<?xml version="1.0" encoding="utf-8"?>
<svg xmlns="http://www.w3.org/2000/svg" xmlns:xlink="http://www.w3.org/1999/xlink" width="800" height="200" viewBox="0 0 3200 800">
<defs>
  <clipPath id="clip970">
    <rect x="0" y="0" width="3200" height="800"/>
  </clipPath>
</defs>
<path clip-path="url(#clip970)" d="M0 800 L3200 800 L3200 0 L0 0  Z" fill="#ffffff" fill-rule="evenodd" fill-opacity="1"/>
<defs>
  <clipPath id="clip971">
    <rect x="1838" y="79" width="1315" height="543"/>
  </clipPath>
</defs>
<path clip-path="url(#clip970)" d="M183.621 621.108 L1497.69 621.108 L1497.69 79.1921 L183.621 79.1921  Z" fill="#ffffff" fill-rule="evenodd" fill-opacity="1"/>
<defs>
  <clipPath id="clip972">
    <rect x="183" y="79" width="1315" height="543"/>
  </clipPath>
</defs>
<polyline clip-path="url(#clip972)" style="stroke:#000000; stroke-linecap:round; stroke-linejoin:round; stroke-width:2; stroke-opacity:0.1; fill:none" points="220.812,621.108 220.812,79.1921 "/>
<polyline clip-path="url(#clip972)" style="stroke:#000000; stroke-linecap:round; stroke-linejoin:round; stroke-width:2; stroke-opacity:0.1; fill:none" points="530.733,621.108 530.733,79.1921 "/>
<polyline clip-path="url(#clip972)" style="stroke:#000000; stroke-linecap:round; stroke-linejoin:round; stroke-width:2; stroke-opacity:0.1; fill:none" points="840.655,621.108 840.655,79.1921 "/>
<polyline clip-path="url(#clip972)" style="stroke:#000000; stroke-linecap:round; stroke-linejoin:round; stroke-width:2; stroke-opacity:0.1; fill:none" points="1150.58,621.108 1150.58,79.1921 "/>
<polyline clip-path="url(#clip972)" style="stroke:#000000; stroke-linecap:round; stroke-linejoin:round; stroke-width:2; stroke-opacity:0.1; fill:none" points="1460.5,621.108 1460.5,79.1921 "/>
<polyline clip-path="url(#clip972)" style="stroke:#000000; stroke-linecap:round; stroke-linejoin:round; stroke-width:2; stroke-opacity:0.1; fill:none" points="183.621,605.77 1497.69,605.77 "/>
<polyline clip-path="url(#clip972)" style="stroke:#000000; stroke-linecap:round; stroke-linejoin:round; stroke-width:2; stroke-opacity:0.1; fill:none" points="183.621,455.402 1497.69,455.402 "/>
<polyline clip-path="url(#clip972)" style="stroke:#000000; stroke-linecap:round; stroke-linejoin:round; stroke-width:2; stroke-opacity:0.1; fill:none" points="183.621,305.033 1497.69,305.033 "/>
<polyline clip-path="url(#clip972)" style="stroke:#000000; stroke-linecap:round; stroke-linejoin:round; stroke-width:2; stroke-opacity:0.1; fill:none" points="183.621,154.665 1497.69,154.665 "/>
<polyline clip-path="url(#clip970)" style="stroke:#000000; stroke-linecap:round; stroke-linejoin:round; stroke-width:4; stroke-opacity:1; fill:none" points="183.621,621.108 1497.69,621.108 "/>
<polyline clip-path="url(#clip970)" style="stroke:#000000; stroke-linecap:round; stroke-linejoin:round; stroke-width:4; stroke-opacity:1; fill:none" points="220.812,621.108 220.812,602.21 "/>
<polyline clip-path="url(#clip970)" style="stroke:#000000; stroke-linecap:round; stroke-linejoin:round; stroke-width:4; stroke-opacity:1; fill:none" points="530.733,621.108 530.733,602.21 "/>
<polyline clip-path="url(#clip970)" style="stroke:#000000; stroke-linecap:round; stroke-linejoin:round; stroke-width:4; stroke-opacity:1; fill:none" points="840.655,621.108 840.655,602.21 "/>
<polyline clip-path="url(#clip970)" style="stroke:#000000; stroke-linecap:round; stroke-linejoin:round; stroke-width:4; stroke-opacity:1; fill:none" points="1150.58,621.108 1150.58,602.21 "/>
<polyline clip-path="url(#clip970)" style="stroke:#000000; stroke-linecap:round; stroke-linejoin:round; stroke-width:4; stroke-opacity:1; fill:none" points="1460.5,621.108 1460.5,602.21 "/>
<path clip-path="url(#clip970)" d="M198.196 658.426 Q194.585 658.426 192.756 661.991 Q190.951 665.533 190.951 672.662 Q190.951 679.769 192.756 683.334 Q194.585 686.875 198.196 686.875 Q201.83 686.875 203.636 683.334 Q205.465 679.769 205.465 672.662 Q205.465 665.533 203.636 661.991 Q201.83 658.426 198.196 658.426 M198.196 654.723 Q204.006 654.723 207.062 659.329 Q210.141 663.912 210.141 672.662 Q210.141 681.389 207.062 685.996 Q204.006 690.579 198.196 690.579 Q192.386 690.579 189.307 685.996 Q186.252 681.389 186.252 672.662 Q186.252 663.912 189.307 659.329 Q192.386 654.723 198.196 654.723 Z" fill="#000000" fill-rule="nonzero" fill-opacity="1" /><path clip-path="url(#clip970)" d="M218.358 684.028 L223.242 684.028 L223.242 689.908 L218.358 689.908 L218.358 684.028 Z" fill="#000000" fill-rule="nonzero" fill-opacity="1" /><path clip-path="url(#clip970)" d="M243.427 658.426 Q239.816 658.426 237.988 661.991 Q236.182 665.533 236.182 672.662 Q236.182 679.769 237.988 683.334 Q239.816 686.875 243.427 686.875 Q247.062 686.875 248.867 683.334 Q250.696 679.769 250.696 672.662 Q250.696 665.533 248.867 661.991 Q247.062 658.426 243.427 658.426 M243.427 654.723 Q249.238 654.723 252.293 659.329 Q255.372 663.912 255.372 672.662 Q255.372 681.389 252.293 685.996 Q249.238 690.579 243.427 690.579 Q237.617 690.579 234.539 685.996 Q231.483 681.389 231.483 672.662 Q231.483 663.912 234.539 659.329 Q237.617 654.723 243.427 654.723 Z" fill="#000000" fill-rule="nonzero" fill-opacity="1" /><path clip-path="url(#clip970)" d="M508.615 658.426 Q505.004 658.426 503.176 661.991 Q501.37 665.533 501.37 672.662 Q501.37 679.769 503.176 683.334 Q505.004 686.875 508.615 686.875 Q512.25 686.875 514.055 683.334 Q515.884 679.769 515.884 672.662 Q515.884 665.533 514.055 661.991 Q512.25 658.426 508.615 658.426 M508.615 654.723 Q514.426 654.723 517.481 659.329 Q520.56 663.912 520.56 672.662 Q520.56 681.389 517.481 685.996 Q514.426 690.579 508.615 690.579 Q502.805 690.579 499.727 685.996 Q496.671 681.389 496.671 672.662 Q496.671 663.912 499.727 659.329 Q502.805 654.723 508.615 654.723 Z" fill="#000000" fill-rule="nonzero" fill-opacity="1" /><path clip-path="url(#clip970)" d="M528.777 684.028 L533.662 684.028 L533.662 689.908 L528.777 689.908 L528.777 684.028 Z" fill="#000000" fill-rule="nonzero" fill-opacity="1" /><path clip-path="url(#clip970)" d="M543.893 655.348 L562.249 655.348 L562.249 659.283 L548.175 659.283 L548.175 667.755 Q549.194 667.408 550.212 667.246 Q551.231 667.061 552.249 667.061 Q558.036 667.061 561.416 670.232 Q564.796 673.403 564.796 678.82 Q564.796 684.398 561.324 687.5 Q557.851 690.579 551.532 690.579 Q549.356 690.579 547.087 690.209 Q544.842 689.838 542.435 689.098 L542.435 684.398 Q544.518 685.533 546.74 686.088 Q548.962 686.644 551.439 686.644 Q555.444 686.644 557.782 684.537 Q560.12 682.431 560.12 678.82 Q560.12 675.209 557.782 673.102 Q555.444 670.996 551.439 670.996 Q549.564 670.996 547.689 671.412 Q545.837 671.829 543.893 672.709 L543.893 655.348 Z" fill="#000000" fill-rule="nonzero" fill-opacity="1" /><path clip-path="url(#clip970)" d="M807.808 685.973 L815.447 685.973 L815.447 659.607 L807.137 661.274 L807.137 657.014 L815.4 655.348 L820.076 655.348 L820.076 685.973 L827.715 685.973 L827.715 689.908 L807.808 689.908 L807.808 685.973 Z" fill="#000000" fill-rule="nonzero" fill-opacity="1" /><path clip-path="url(#clip970)" d="M837.16 684.028 L842.044 684.028 L842.044 689.908 L837.16 689.908 L837.16 684.028 Z" fill="#000000" fill-rule="nonzero" fill-opacity="1" /><path clip-path="url(#clip970)" d="M862.229 658.426 Q858.618 658.426 856.789 661.991 Q854.984 665.533 854.984 672.662 Q854.984 679.769 856.789 683.334 Q858.618 686.875 862.229 686.875 Q865.863 686.875 867.669 683.334 Q869.497 679.769 869.497 672.662 Q869.497 665.533 867.669 661.991 Q865.863 658.426 862.229 658.426 M862.229 654.723 Q868.039 654.723 871.095 659.329 Q874.173 663.912 874.173 672.662 Q874.173 681.389 871.095 685.996 Q868.039 690.579 862.229 690.579 Q856.419 690.579 853.34 685.996 Q850.285 681.389 850.285 672.662 Q850.285 663.912 853.34 659.329 Q856.419 654.723 862.229 654.723 Z" fill="#000000" fill-rule="nonzero" fill-opacity="1" /><path clip-path="url(#clip970)" d="M1118.23 685.973 L1125.87 685.973 L1125.87 659.607 L1117.56 661.274 L1117.56 657.014 L1125.82 655.348 L1130.5 655.348 L1130.5 685.973 L1138.13 685.973 L1138.13 689.908 L1118.23 689.908 L1118.23 685.973 Z" fill="#000000" fill-rule="nonzero" fill-opacity="1" /><path clip-path="url(#clip970)" d="M1147.58 684.028 L1152.46 684.028 L1152.46 689.908 L1147.58 689.908 L1147.58 684.028 Z" fill="#000000" fill-rule="nonzero" fill-opacity="1" /><path clip-path="url(#clip970)" d="M1162.69 655.348 L1181.05 655.348 L1181.05 659.283 L1166.98 659.283 L1166.98 667.755 Q1168 667.408 1169.01 667.246 Q1170.03 667.061 1171.05 667.061 Q1176.84 667.061 1180.22 670.232 Q1183.6 673.403 1183.6 678.82 Q1183.6 684.398 1180.12 687.5 Q1176.65 690.579 1170.33 690.579 Q1168.16 690.579 1165.89 690.209 Q1163.64 689.838 1161.24 689.098 L1161.24 684.398 Q1163.32 685.533 1165.54 686.088 Q1167.76 686.644 1170.24 686.644 Q1174.25 686.644 1176.58 684.537 Q1178.92 682.431 1178.92 678.82 Q1178.92 675.209 1176.58 673.102 Q1174.25 670.996 1170.24 670.996 Q1168.37 670.996 1166.49 671.412 Q1164.64 671.829 1162.69 672.709 L1162.69 655.348 Z" fill="#000000" fill-rule="nonzero" fill-opacity="1" /><path clip-path="url(#clip970)" d="M1431.74 685.973 L1448.06 685.973 L1448.06 689.908 L1426.11 689.908 L1426.11 685.973 Q1428.77 683.218 1433.36 678.588 Q1437.96 673.936 1439.14 672.593 Q1441.39 670.07 1442.27 668.334 Q1443.17 666.575 1443.17 664.885 Q1443.17 662.13 1441.23 660.394 Q1439.31 658.658 1436.2 658.658 Q1434.01 658.658 1431.55 659.422 Q1429.12 660.186 1426.34 661.737 L1426.34 657.014 Q1429.17 655.88 1431.62 655.301 Q1434.07 654.723 1436.11 654.723 Q1441.48 654.723 1444.68 657.408 Q1447.87 660.093 1447.87 664.584 Q1447.87 666.713 1447.06 668.635 Q1446.27 670.533 1444.17 673.125 Q1443.59 673.797 1440.49 677.014 Q1437.38 680.209 1431.74 685.973 Z" fill="#000000" fill-rule="nonzero" fill-opacity="1" /><path clip-path="url(#clip970)" d="M1457.87 684.028 L1462.75 684.028 L1462.75 689.908 L1457.87 689.908 L1457.87 684.028 Z" fill="#000000" fill-rule="nonzero" fill-opacity="1" /><path clip-path="url(#clip970)" d="M1482.94 658.426 Q1479.33 658.426 1477.5 661.991 Q1475.69 665.533 1475.69 672.662 Q1475.69 679.769 1477.5 683.334 Q1479.33 686.875 1482.94 686.875 Q1486.57 686.875 1488.38 683.334 Q1490.21 679.769 1490.21 672.662 Q1490.21 665.533 1488.38 661.991 Q1486.57 658.426 1482.94 658.426 M1482.94 654.723 Q1488.75 654.723 1491.81 659.329 Q1494.88 663.912 1494.88 672.662 Q1494.88 681.389 1491.81 685.996 Q1488.75 690.579 1482.94 690.579 Q1477.13 690.579 1474.05 685.996 Q1471 681.389 1471 672.662 Q1471 663.912 1474.05 659.329 Q1477.13 654.723 1482.94 654.723 Z" fill="#000000" fill-rule="nonzero" fill-opacity="1" /><path clip-path="url(#clip970)" d="M839.801 731.179 L839.801 740.38 L850.768 740.38 L850.768 744.518 L839.801 744.518 L839.801 762.111 Q839.801 766.075 840.872 767.203 Q841.971 768.332 845.299 768.332 L850.768 768.332 L850.768 772.788 L845.299 772.788 Q839.136 772.788 836.792 770.502 Q834.448 768.187 834.448 762.111 L834.448 744.518 L830.542 744.518 L830.542 740.38 L834.448 740.38 L834.448 731.179 L839.801 731.179 Z" fill="#000000" fill-rule="nonzero" fill-opacity="1" /><polyline clip-path="url(#clip970)" style="stroke:#000000; stroke-linecap:round; stroke-linejoin:round; stroke-width:4; stroke-opacity:1; fill:none" points="183.621,621.108 183.621,79.1921 "/>
<polyline clip-path="url(#clip970)" style="stroke:#000000; stroke-linecap:round; stroke-linejoin:round; stroke-width:4; stroke-opacity:1; fill:none" points="183.621,605.77 202.519,605.77 "/>
<polyline clip-path="url(#clip970)" style="stroke:#000000; stroke-linecap:round; stroke-linejoin:round; stroke-width:4; stroke-opacity:1; fill:none" points="183.621,455.402 202.519,455.402 "/>
<polyline clip-path="url(#clip970)" style="stroke:#000000; stroke-linecap:round; stroke-linejoin:round; stroke-width:4; stroke-opacity:1; fill:none" points="183.621,305.033 202.519,305.033 "/>
<polyline clip-path="url(#clip970)" style="stroke:#000000; stroke-linecap:round; stroke-linejoin:round; stroke-width:4; stroke-opacity:1; fill:none" points="183.621,154.665 202.519,154.665 "/>
<path clip-path="url(#clip970)" d="M119.302 619.115 L135.621 619.115 L135.621 623.05 L113.677 623.05 L113.677 619.115 Q116.339 616.361 120.922 611.731 Q125.529 607.078 126.709 605.736 Q128.955 603.213 129.834 601.477 Q130.737 599.717 130.737 598.027 Q130.737 595.273 128.793 593.537 Q126.871 591.801 123.769 591.801 Q121.57 591.801 119.117 592.565 Q116.686 593.328 113.908 594.879 L113.908 590.157 Q116.732 589.023 119.186 588.444 Q121.64 587.865 123.677 587.865 Q129.047 587.865 132.242 590.551 Q135.436 593.236 135.436 597.727 Q135.436 599.856 134.626 601.777 Q133.839 603.676 131.732 606.268 Q131.154 606.939 128.052 610.157 Q124.95 613.351 119.302 619.115 Z" fill="#000000" fill-rule="nonzero" fill-opacity="1" /><path clip-path="url(#clip970)" d="M128.492 454.048 Q131.848 454.765 133.723 457.034 Q135.621 459.302 135.621 462.636 Q135.621 467.751 132.103 470.552 Q128.584 473.353 122.103 473.353 Q119.927 473.353 117.612 472.913 Q115.32 472.497 112.867 471.64 L112.867 467.126 Q114.811 468.261 117.126 468.839 Q119.441 469.418 121.964 469.418 Q126.362 469.418 128.654 467.682 Q130.969 465.946 130.969 462.636 Q130.969 459.58 128.816 457.867 Q126.686 456.131 122.867 456.131 L118.839 456.131 L118.839 452.289 L123.052 452.289 Q126.501 452.289 128.33 450.923 Q130.158 449.534 130.158 446.941 Q130.158 444.279 128.26 442.867 Q126.385 441.432 122.867 441.432 Q120.945 441.432 118.746 441.849 Q116.547 442.265 113.908 443.145 L113.908 438.978 Q116.57 438.238 118.885 437.867 Q121.223 437.497 123.283 437.497 Q128.607 437.497 131.709 439.927 Q134.811 442.335 134.811 446.455 Q134.811 449.326 133.168 451.316 Q131.524 453.284 128.492 454.048 Z" fill="#000000" fill-rule="nonzero" fill-opacity="1" /><path clip-path="url(#clip970)" d="M126.038 291.827 L114.232 310.276 L126.038 310.276 L126.038 291.827 M124.811 287.753 L130.691 287.753 L130.691 310.276 L135.621 310.276 L135.621 314.165 L130.691 314.165 L130.691 322.313 L126.038 322.313 L126.038 314.165 L110.436 314.165 L110.436 309.651 L124.811 287.753 Z" fill="#000000" fill-rule="nonzero" fill-opacity="1" /><path clip-path="url(#clip970)" d="M114.719 137.385 L133.075 137.385 L133.075 141.32 L119.001 141.32 L119.001 149.792 Q120.02 149.445 121.038 149.283 Q122.057 149.098 123.075 149.098 Q128.862 149.098 132.242 152.269 Q135.621 155.44 135.621 160.857 Q135.621 166.436 132.149 169.537 Q128.677 172.616 122.357 172.616 Q120.182 172.616 117.913 172.246 Q115.668 171.875 113.26 171.135 L113.26 166.436 Q115.344 167.57 117.566 168.125 Q119.788 168.681 122.265 168.681 Q126.269 168.681 128.607 166.574 Q130.945 164.468 130.945 160.857 Q130.945 157.246 128.607 155.139 Q126.269 153.033 122.265 153.033 Q120.39 153.033 118.515 153.45 Q116.663 153.866 114.719 154.746 L114.719 137.385 Z" fill="#000000" fill-rule="nonzero" fill-opacity="1" /><path clip-path="url(#clip970)" d="M17.069 335.046 L32.8386 346.765 L49.4762 334.438 L49.4762 340.717 L36.7448 350.15 L49.4762 359.583 L49.4762 365.862 L32.5203 353.275 L17.069 364.791 L17.069 358.512 L28.6141 349.918 L17.069 341.325 L17.069 335.046 Z" fill="#000000" fill-rule="nonzero" fill-opacity="1" /><path clip-path="url(#clip970)" d="M791.813 20.3876 L791.813 25.4223 Q789.556 24.2649 787.125 23.6862 Q784.695 23.1075 782.09 23.1075 Q778.126 23.1075 776.13 24.3228 Q774.162 25.5381 774.162 27.9686 Q774.162 29.8204 775.58 30.891 Q776.998 31.9327 781.28 32.8876 L783.103 33.2926 Q788.774 34.5079 791.147 36.7359 Q793.549 38.935 793.549 42.8991 Q793.549 47.4129 789.961 50.046 Q786.402 52.6791 780.152 52.6791 Q777.548 52.6791 774.712 52.1583 Q771.905 51.6664 768.78 50.6537 L768.78 45.156 Q771.732 46.6896 774.596 47.4708 Q777.461 48.2231 780.268 48.2231 Q784.029 48.2231 786.055 46.95 Q788.08 45.6479 788.08 43.3042 Q788.08 41.134 786.604 39.9766 Q785.158 38.8192 780.21 37.7486 L778.358 37.3146 Q773.41 36.273 771.211 34.1318 Q769.012 31.9616 769.012 28.2001 Q769.012 23.6283 772.253 21.1399 Q775.493 18.6515 781.454 18.6515 Q784.405 18.6515 787.009 19.0855 Q789.614 19.5196 791.813 20.3876 Z" fill="#000000" fill-rule="nonzero" fill-opacity="1" /><path clip-path="url(#clip970)" d="M807.293 10.2314 L807.293 19.4328 L818.259 19.4328 L818.259 23.5705 L807.293 23.5705 L807.293 41.163 Q807.293 45.1271 808.363 46.2555 Q809.463 47.384 812.791 47.384 L818.259 47.384 L818.259 51.84 L812.791 51.84 Q806.627 51.84 804.284 49.5541 Q801.94 47.2393 801.94 41.163 L801.94 23.5705 L798.034 23.5705 L798.034 19.4328 L801.94 19.4328 L801.94 10.2314 L807.293 10.2314 Z" fill="#000000" fill-rule="nonzero" fill-opacity="1" /><path clip-path="url(#clip970)" d="M839.989 35.5496 Q833.537 35.5496 831.049 37.0253 Q828.56 38.501 828.56 42.06 Q828.56 44.8956 830.412 46.5738 Q832.293 48.2231 835.505 48.2231 Q839.932 48.2231 842.594 45.0981 Q845.285 41.9442 845.285 36.7359 L845.285 35.5496 L839.989 35.5496 M850.609 33.3505 L850.609 51.84 L845.285 51.84 L845.285 46.921 Q843.462 49.8724 840.742 51.2902 Q838.022 52.6791 834.087 52.6791 Q829.11 52.6791 826.159 49.9014 Q823.236 47.0947 823.236 42.4072 Q823.236 36.9385 826.882 34.1607 Q830.557 31.3829 837.819 31.3829 L845.285 31.3829 L845.285 30.8621 Q845.285 27.1874 842.854 25.1908 Q840.452 23.1654 836.083 23.1654 Q833.305 23.1654 830.672 23.8309 Q828.039 24.4964 825.609 25.8274 L825.609 20.9085 Q828.531 19.78 831.28 19.2302 Q834.029 18.6515 836.633 18.6515 Q843.664 18.6515 847.136 22.2973 Q850.609 25.9431 850.609 33.3505 Z" fill="#000000" fill-rule="nonzero" fill-opacity="1" /><path clip-path="url(#clip970)" d="M866.841 10.2314 L866.841 19.4328 L877.808 19.4328 L877.808 23.5705 L866.841 23.5705 L866.841 41.163 Q866.841 45.1271 867.912 46.2555 Q869.011 47.384 872.339 47.384 L877.808 47.384 L877.808 51.84 L872.339 51.84 Q866.176 51.84 863.832 49.5541 Q861.488 47.2393 861.488 41.163 L861.488 23.5705 L857.582 23.5705 L857.582 19.4328 L861.488 19.4328 L861.488 10.2314 L866.841 10.2314 Z" fill="#000000" fill-rule="nonzero" fill-opacity="1" /><path clip-path="url(#clip970)" d="M912.53 34.3054 L912.53 36.9095 L888.051 36.9095 Q888.398 42.4072 891.349 45.3007 Q894.329 48.1653 899.625 48.1653 Q902.692 48.1653 905.556 47.4129 Q908.45 46.6606 911.285 45.156 L911.285 50.1907 Q908.421 51.406 905.412 52.0425 Q902.402 52.6791 899.306 52.6791 Q891.552 52.6791 887.009 48.1653 Q882.495 43.6514 882.495 35.9547 Q882.495 27.9975 886.777 23.339 Q891.089 18.6515 898.38 18.6515 Q904.92 18.6515 908.71 22.876 Q912.53 27.0716 912.53 34.3054 M907.206 32.7429 Q907.148 28.3737 904.746 25.7695 Q902.373 23.1654 898.438 23.1654 Q893.982 23.1654 891.291 25.6827 Q888.629 28.2001 888.224 32.7718 L907.206 32.7429 Z" fill="#000000" fill-rule="nonzero" fill-opacity="1" /><polyline clip-path="url(#clip972)" style="stroke:#000000; stroke-linecap:round; stroke-linejoin:round; stroke-width:4; stroke-opacity:1; fill:none" stroke-dasharray="16, 10" points="220.812,1163.02 220.812,-462.723 "/>
<polyline clip-path="url(#clip972)" style="stroke:#000000; stroke-linecap:round; stroke-linejoin:round; stroke-width:4; stroke-opacity:1; fill:none" stroke-dasharray="16, 10" points="1460.5,1163.02 1460.5,-462.723 "/>
<polyline clip-path="url(#clip972)" style="stroke:#000000; stroke-linecap:round; stroke-linejoin:round; stroke-width:4; stroke-opacity:1; fill:none" stroke-dasharray="16, 10" points="220.812,1163.02 220.812,-462.723 "/>
<polyline clip-path="url(#clip972)" style="stroke:#000000; stroke-linecap:round; stroke-linejoin:round; stroke-width:4; stroke-opacity:1; fill:none" stroke-dasharray="16, 10" points="1460.5,1163.02 1460.5,-462.723 "/>
<polyline clip-path="url(#clip972)" style="stroke:#009af9; stroke-linecap:round; stroke-linejoin:round; stroke-width:8; stroke-opacity:1; fill:none" points="220.812,605.77 225.771,604.573 230.729,603.371 235.688,602.165 240.647,600.953 245.606,599.737 250.564,598.515 255.523,597.289 260.482,596.058 265.441,594.823 270.399,593.582 275.358,592.336 280.317,591.085 285.276,589.83 290.234,588.569 295.193,587.303 300.152,586.033 305.111,584.757 310.069,583.476 315.028,582.19 319.987,580.899 324.945,579.603 329.904,578.302 334.863,576.995 339.822,575.683 344.78,574.366 349.739,573.044 354.698,571.717 359.657,570.384 364.615,569.046 369.574,567.703 374.533,566.354 379.492,565 384.45,563.64 389.409,562.275 394.368,560.905 399.327,559.529 404.285,558.148 409.244,556.761 414.203,555.369 419.162,553.971 424.12,552.568 429.079,551.159 434.038,549.744 438.997,548.324 443.955,546.898 448.914,545.466 453.873,544.029 458.832,542.586 463.79,541.137 468.749,539.683 473.708,538.223 478.667,536.757 483.625,535.285 488.584,533.807 493.543,532.323 498.502,530.834 503.46,529.338 508.419,527.837 513.378,526.329 518.337,524.816 523.295,523.296 528.254,521.771 533.213,520.239 538.172,518.702 543.13,517.158 548.089,515.608 553.048,514.052 558.007,512.489 562.965,510.921 567.924,509.346 572.883,507.765 577.841,506.178 582.8,504.584 587.759,502.984 592.718,501.378 597.676,499.765 602.635,498.146 607.594,496.52 612.553,494.888 617.511,493.249 622.47,491.604 627.429,489.953 632.388,488.294 637.346,486.63 642.305,484.958 647.264,483.28 652.223,481.595 657.181,479.904 662.14,478.205 667.099,476.5 672.058,474.789 677.016,473.07 681.975,471.345 686.934,469.612 691.893,467.873 696.851,466.127 701.81,464.374 706.769,462.614 711.728,460.847 716.686,459.073 721.645,457.291 726.604,455.503 731.563,453.708 736.521,451.905 741.48,450.096 746.439,448.279 751.398,446.454 756.356,444.623 761.315,442.784 766.274,440.938 771.233,439.085 776.191,437.224 781.15,435.356 786.109,433.481 791.068,431.597 796.026,429.707 800.985,427.809 805.944,425.903 810.902,423.99 815.861,422.069 820.82,420.141 825.779,418.205 830.737,416.261 835.696,414.309 840.655,412.35 845.614,410.383 850.572,408.408 855.531,406.425 860.49,404.434 865.449,402.435 870.407,400.429 875.366,398.414 880.325,396.391 885.284,394.361 890.242,392.322 895.201,390.275 900.16,388.22 905.119,386.157 910.077,384.085 915.036,382.006 919.995,379.918 924.954,377.821 929.912,375.717 934.871,373.604 939.83,371.482 944.789,369.352 949.747,367.214 954.706,365.067 959.665,362.912 964.624,360.748 969.582,358.575 974.541,356.394 979.5,354.204 984.459,352.006 989.417,349.798 994.376,347.582 999.335,345.357 1004.29,343.123 1009.25,340.88 1014.21,338.629 1019.17,336.368 1024.13,334.098 1029.09,331.82 1034.05,329.532 1039,327.235 1043.96,324.929 1048.92,322.614 1053.88,320.29 1058.84,317.956 1063.8,315.613 1068.76,313.261 1073.72,310.899 1078.67,308.528 1083.63,306.148 1088.59,303.758 1093.55,301.358 1098.51,298.949 1103.47,296.531 1108.43,294.102 1113.39,291.664 1118.34,289.217 1123.3,286.76 1128.26,284.292 1133.22,281.815 1138.18,279.329 1143.14,276.832 1148.1,274.325 1153.06,271.809 1158.01,269.282 1162.97,266.745 1167.93,264.199 1172.89,261.642 1177.85,259.074 1182.81,256.497 1187.77,253.91 1192.73,251.312 1197.68,248.703 1202.64,246.085 1207.6,243.456 1212.56,240.816 1217.52,238.166 1222.48,235.506 1227.44,232.834 1232.4,230.153 1237.35,227.46 1242.31,224.757 1247.27,222.043 1252.23,219.318 1257.19,216.583 1262.15,213.836 1267.11,211.079 1272.07,208.31 1277.02,205.531 1281.98,202.741 1286.94,199.939 1291.9,197.126 1296.86,194.302 1301.82,191.467 1306.78,188.621 1311.74,185.763 1316.69,182.894 1321.65,180.013 1326.61,177.121 1331.57,174.217 1336.53,171.302 1341.49,168.376 1346.45,165.437 1351.41,162.487 1356.36,159.525 1361.32,156.552 1366.28,153.566 1371.24,150.569 1376.2,147.559 1381.16,144.538 1386.12,141.505 1391.08,138.46 1396.03,135.402 1400.99,132.332 1405.95,129.251 1410.91,126.156 1415.87,123.05 1420.83,119.931 1425.79,116.8 1430.75,113.656 1435.7,110.5 1440.66,107.331 1445.62,104.15 1450.58,100.956 1455.54,97.7489 1460.5,94.5294 "/>
<polyline clip-path="url(#clip972)" style="stroke:#e26f46; stroke-linecap:round; stroke-linejoin:round; stroke-width:8; stroke-opacity:1; fill:none" stroke-dasharray="32, 20" points="220.812,605.77 225.771,604.573 230.729,603.371 235.688,602.165 240.647,600.953 245.606,599.737 250.564,598.515 255.523,597.289 260.482,596.058 265.441,594.823 270.399,593.582 275.358,592.336 280.317,591.085 285.276,589.83 290.234,588.569 295.193,587.303 300.152,586.033 305.111,584.757 310.069,583.476 315.028,582.19 319.987,580.899 324.945,579.603 329.904,578.302 334.863,576.995 339.822,575.683 344.78,574.366 349.739,573.044 354.698,571.717 359.657,570.384 364.615,569.046 369.574,567.703 374.533,566.354 379.492,565 384.45,563.64 389.409,562.275 394.368,560.905 399.327,559.529 404.285,558.148 409.244,556.761 414.203,555.369 419.162,553.971 424.12,552.568 429.079,551.159 434.038,549.744 438.997,548.324 443.955,546.898 448.914,545.466 453.873,544.029 458.832,542.586 463.79,541.137 468.749,539.683 473.708,538.223 478.667,536.757 483.625,535.285 488.584,533.807 493.543,532.323 498.502,530.834 503.46,529.338 508.419,527.837 513.378,526.329 518.337,524.816 523.295,523.296 528.254,521.771 533.213,520.239 538.172,518.702 543.13,517.158 548.089,515.608 553.048,514.052 558.007,512.489 562.965,510.921 567.924,509.346 572.883,507.765 577.841,506.178 582.8,504.584 587.759,502.984 592.718,501.378 597.676,499.765 602.635,498.146 607.594,496.52 612.553,494.888 617.511,493.249 622.47,491.604 627.429,489.953 632.388,488.294 637.346,486.63 642.305,484.958 647.264,483.28 652.223,481.595 657.181,479.904 662.14,478.205 667.099,476.5 672.058,474.789 677.016,473.07 681.975,471.345 686.934,469.612 691.893,467.873 696.851,466.127 701.81,464.374 706.769,462.614 711.728,460.847 716.686,459.073 721.645,457.291 726.604,455.503 731.563,453.708 736.521,451.905 741.48,450.096 746.439,448.279 751.398,446.454 756.356,444.623 761.315,442.784 766.274,440.938 771.233,439.085 776.191,437.224 781.15,435.356 786.109,433.481 791.068,431.597 796.026,429.707 800.985,427.809 805.944,425.903 810.902,423.99 815.861,422.069 820.82,420.141 825.779,418.205 830.737,416.261 835.696,414.309 840.655,412.35 845.614,410.383 850.572,408.408 855.531,406.425 860.49,404.434 865.449,402.435 870.407,400.429 875.366,398.414 880.325,396.391 885.284,394.361 890.242,392.322 895.201,390.275 900.16,388.22 905.119,386.157 910.077,384.085 915.036,382.006 919.995,379.918 924.954,377.821 929.912,375.717 934.871,373.604 939.83,371.482 944.789,369.352 949.747,367.214 954.706,365.067 959.665,362.912 964.624,360.748 969.582,358.575 974.541,356.394 979.5,354.204 984.459,352.006 989.417,349.798 994.376,347.582 999.335,345.357 1004.29,343.123 1009.25,340.88 1014.21,338.629 1019.17,336.368 1024.13,334.098 1029.09,331.82 1034.05,329.532 1039,327.235 1043.96,324.929 1048.92,322.614 1053.88,320.29 1058.84,317.956 1063.8,315.613 1068.76,313.261 1073.72,310.899 1078.67,308.528 1083.63,306.148 1088.59,303.758 1093.55,301.358 1098.51,298.949 1103.47,296.531 1108.43,294.102 1113.39,291.664 1118.34,289.217 1123.3,286.76 1128.26,284.292 1133.22,281.815 1138.18,279.329 1143.14,276.832 1148.1,274.325 1153.06,271.809 1158.01,269.282 1162.97,266.745 1167.93,264.199 1172.89,261.642 1177.85,259.074 1182.81,256.497 1187.77,253.91 1192.73,251.312 1197.68,248.703 1202.64,246.085 1207.6,243.456 1212.56,240.816 1217.52,238.166 1222.48,235.506 1227.44,232.834 1232.4,230.153 1237.35,227.46 1242.31,224.757 1247.27,222.043 1252.23,219.318 1257.19,216.583 1262.15,213.836 1267.11,211.079 1272.07,208.31 1277.02,205.531 1281.98,202.741 1286.94,199.939 1291.9,197.126 1296.86,194.302 1301.82,191.467 1306.78,188.621 1311.74,185.763 1316.69,182.894 1321.65,180.013 1326.61,177.121 1331.57,174.217 1336.53,171.302 1341.49,168.376 1346.45,165.437 1351.41,162.487 1356.36,159.525 1361.32,156.552 1366.28,153.566 1371.24,150.569 1376.2,147.559 1381.16,144.538 1386.12,141.505 1391.08,138.46 1396.03,135.402 1400.99,132.332 1405.95,129.251 1410.91,126.156 1415.87,123.05 1420.83,119.931 1425.79,116.8 1430.75,113.656 1435.7,110.5 1440.66,107.331 1445.62,104.15 1450.58,100.956 1455.54,97.7489 1460.5,94.5294 "/>
<path clip-path="url(#clip970)" d="M227.424 252.776 L683.458 252.776 L683.458 97.256 L227.424 97.256  Z" fill="#ffffff" fill-rule="evenodd" fill-opacity="1"/>
<polyline clip-path="url(#clip970)" style="stroke:#000000; stroke-linecap:round; stroke-linejoin:round; stroke-width:4; stroke-opacity:1; fill:none" points="227.424,252.776 683.458,252.776 683.458,97.256 227.424,97.256 227.424,252.776 "/>
<polyline clip-path="url(#clip970)" style="stroke:#009af9; stroke-linecap:round; stroke-linejoin:round; stroke-width:8; stroke-opacity:1; fill:none" points="242.024,149.096 329.629,149.096 "/>
<path clip-path="url(#clip970)" d="M344.23 131.816 L351.197 131.816 L360.016 155.334 L368.882 131.816 L375.85 131.816 L375.85 166.376 L371.29 166.376 L371.29 136.029 L362.378 159.732 L357.679 159.732 L348.767 136.029 L348.767 166.376 L344.23 166.376 L344.23 131.816 Z" fill="#000000" fill-rule="nonzero" fill-opacity="1" /><path clip-path="url(#clip970)" d="M396.729 153.344 Q391.567 153.344 389.576 154.524 Q387.586 155.705 387.586 158.552 Q387.586 160.82 389.067 162.163 Q390.572 163.482 393.141 163.482 Q396.683 163.482 398.813 160.982 Q400.965 158.459 400.965 154.293 L400.965 153.344 L396.729 153.344 M405.225 151.584 L405.225 166.376 L400.965 166.376 L400.965 162.441 Q399.507 164.802 397.331 165.936 Q395.155 167.047 392.007 167.047 Q388.026 167.047 385.664 164.825 Q383.327 162.58 383.327 158.83 Q383.327 154.455 386.243 152.233 Q389.183 150.01 394.993 150.01 L400.965 150.01 L400.965 149.594 Q400.965 146.654 399.021 145.057 Q397.1 143.436 393.604 143.436 Q391.382 143.436 389.276 143.969 Q387.169 144.501 385.225 145.566 L385.225 141.631 Q387.563 140.728 389.762 140.288 Q391.961 139.825 394.044 139.825 Q399.669 139.825 402.447 142.742 Q405.225 145.658 405.225 151.584 Z" fill="#000000" fill-rule="nonzero" fill-opacity="1" /><path clip-path="url(#clip970)" d="M432.655 141.446 L432.655 145.427 Q430.849 144.432 429.021 143.946 Q427.215 143.436 425.363 143.436 Q421.22 143.436 418.928 146.075 Q416.637 148.691 416.637 153.436 Q416.637 158.182 418.928 160.82 Q421.22 163.436 425.363 163.436 Q427.215 163.436 429.021 162.95 Q430.849 162.441 432.655 161.445 L432.655 165.381 Q430.873 166.214 428.951 166.631 Q427.053 167.047 424.9 167.047 Q419.044 167.047 415.595 163.367 Q412.146 159.686 412.146 153.436 Q412.146 147.094 415.618 143.459 Q419.113 139.825 425.178 139.825 Q427.146 139.825 429.021 140.242 Q430.896 140.635 432.655 141.446 Z" fill="#000000" fill-rule="nonzero" fill-opacity="1" /><path clip-path="url(#clip970)" d="M455.085 144.432 Q454.368 144.015 453.511 143.83 Q452.678 143.621 451.659 143.621 Q448.048 143.621 446.104 145.983 Q444.183 148.321 444.183 152.719 L444.183 166.376 L439.9 166.376 L439.9 140.45 L444.183 140.45 L444.183 144.478 Q445.525 142.117 447.678 140.983 Q449.831 139.825 452.909 139.825 Q453.349 139.825 453.882 139.895 Q454.414 139.941 455.062 140.057 L455.085 144.432 Z" fill="#000000" fill-rule="nonzero" fill-opacity="1" /><path clip-path="url(#clip970)" d="M468.558 143.436 Q465.132 143.436 463.141 146.121 Q461.15 148.783 461.15 153.436 Q461.15 158.089 463.118 160.774 Q465.108 163.436 468.558 163.436 Q471.96 163.436 473.951 160.751 Q475.942 158.066 475.942 153.436 Q475.942 148.83 473.951 146.145 Q471.96 143.436 468.558 143.436 M468.558 139.825 Q474.113 139.825 477.284 143.436 Q480.456 147.047 480.456 153.436 Q480.456 159.802 477.284 163.436 Q474.113 167.047 468.558 167.047 Q462.979 167.047 459.808 163.436 Q456.659 159.802 456.659 153.436 Q456.659 147.047 459.808 143.436 Q462.979 139.825 468.558 139.825 Z" fill="#000000" fill-rule="nonzero" fill-opacity="1" /><polyline clip-path="url(#clip970)" style="stroke:#e26f46; stroke-linecap:round; stroke-linejoin:round; stroke-width:8; stroke-opacity:1; fill:none" stroke-dasharray="32, 20" points="242.024,200.936 329.629,200.936 "/>
<path clip-path="url(#clip970)" d="M344.23 183.656 L364.091 183.656 L364.091 187.591 L348.905 187.591 L348.905 197.776 L362.609 197.776 L362.609 201.711 L348.905 201.711 L348.905 218.216 L344.23 218.216 L344.23 183.656 Z" fill="#000000" fill-rule="nonzero" fill-opacity="1" /><path clip-path="url(#clip970)" d="M368.28 207.985 L368.28 192.29 L372.54 192.29 L372.54 207.823 Q372.54 211.503 373.975 213.355 Q375.41 215.184 378.28 215.184 Q381.729 215.184 383.72 212.985 Q385.734 210.785 385.734 206.989 L385.734 192.29 L389.993 192.29 L389.993 218.216 L385.734 218.216 L385.734 214.235 Q384.183 216.596 382.123 217.753 Q380.086 218.887 377.377 218.887 Q372.91 218.887 370.595 216.11 Q368.28 213.332 368.28 207.985 M378.998 191.665 L378.998 191.665 Z" fill="#000000" fill-rule="nonzero" fill-opacity="1" /><path clip-path="url(#clip970)" d="M420.317 202.568 L420.317 218.216 L416.058 218.216 L416.058 202.707 Q416.058 199.026 414.623 197.198 Q413.187 195.369 410.317 195.369 Q406.868 195.369 404.877 197.568 Q402.887 199.767 402.887 203.563 L402.887 218.216 L398.604 218.216 L398.604 192.29 L402.887 192.29 L402.887 196.318 Q404.414 193.98 406.475 192.823 Q408.558 191.665 411.266 191.665 Q415.734 191.665 418.025 194.443 Q420.317 197.198 420.317 202.568 Z" fill="#000000" fill-rule="nonzero" fill-opacity="1" /><path clip-path="url(#clip970)" d="M447.47 193.286 L447.47 197.267 Q445.664 196.272 443.835 195.786 Q442.03 195.276 440.178 195.276 Q436.035 195.276 433.743 197.915 Q431.451 200.531 431.451 205.276 Q431.451 210.022 433.743 212.66 Q436.035 215.276 440.178 215.276 Q442.03 215.276 443.835 214.79 Q445.664 214.281 447.47 213.285 L447.47 217.221 Q445.687 218.054 443.766 218.471 Q441.868 218.887 439.715 218.887 Q433.859 218.887 430.41 215.207 Q426.961 211.526 426.961 205.276 Q426.961 198.934 430.433 195.299 Q433.928 191.665 439.993 191.665 Q441.96 191.665 443.835 192.082 Q445.71 192.475 447.47 193.286 Z" fill="#000000" fill-rule="nonzero" fill-opacity="1" /><path clip-path="url(#clip970)" d="M459.09 184.929 L459.09 192.29 L467.863 192.29 L467.863 195.6 L459.09 195.6 L459.09 209.674 Q459.09 212.846 459.946 213.748 Q460.826 214.651 463.488 214.651 L467.863 214.651 L467.863 218.216 L463.488 218.216 Q458.558 218.216 456.683 216.387 Q454.808 214.535 454.808 209.674 L454.808 195.6 L451.683 195.6 L451.683 192.29 L454.808 192.29 L454.808 184.929 L459.09 184.929 Z" fill="#000000" fill-rule="nonzero" fill-opacity="1" /><path clip-path="url(#clip970)" d="M473.465 192.29 L477.724 192.29 L477.724 218.216 L473.465 218.216 L473.465 192.29 M473.465 182.198 L477.724 182.198 L477.724 187.591 L473.465 187.591 L473.465 182.198 Z" fill="#000000" fill-rule="nonzero" fill-opacity="1" /><path clip-path="url(#clip970)" d="M496.682 195.276 Q493.256 195.276 491.266 197.961 Q489.275 200.623 489.275 205.276 Q489.275 209.929 491.243 212.614 Q493.233 215.276 496.682 215.276 Q500.085 215.276 502.076 212.591 Q504.067 209.906 504.067 205.276 Q504.067 200.67 502.076 197.985 Q500.085 195.276 496.682 195.276 M496.682 191.665 Q502.238 191.665 505.409 195.276 Q508.58 198.887 508.58 205.276 Q508.58 211.642 505.409 215.276 Q502.238 218.887 496.682 218.887 Q491.104 218.887 487.932 215.276 Q484.784 211.642 484.784 205.276 Q484.784 198.887 487.932 195.276 Q491.104 191.665 496.682 191.665 Z" fill="#000000" fill-rule="nonzero" fill-opacity="1" /><path clip-path="url(#clip970)" d="M537.191 202.568 L537.191 218.216 L532.932 218.216 L532.932 202.707 Q532.932 199.026 531.497 197.198 Q530.062 195.369 527.191 195.369 Q523.742 195.369 521.752 197.568 Q519.761 199.767 519.761 203.563 L519.761 218.216 L515.479 218.216 L515.479 192.29 L519.761 192.29 L519.761 196.318 Q521.289 193.98 523.349 192.823 Q525.432 191.665 528.141 191.665 Q532.608 191.665 534.9 194.443 Q537.191 197.198 537.191 202.568 Z" fill="#000000" fill-rule="nonzero" fill-opacity="1" /><path clip-path="url(#clip970)" d="M557.469 205.184 Q552.307 205.184 550.316 206.364 Q548.326 207.545 548.326 210.392 Q548.326 212.66 549.807 214.003 Q551.312 215.322 553.881 215.322 Q557.423 215.322 559.552 212.822 Q561.705 210.299 561.705 206.133 L561.705 205.184 L557.469 205.184 M565.964 203.424 L565.964 218.216 L561.705 218.216 L561.705 214.281 Q560.247 216.642 558.071 217.776 Q555.895 218.887 552.747 218.887 Q548.765 218.887 546.404 216.665 Q544.066 214.42 544.066 210.67 Q544.066 206.295 546.983 204.073 Q549.923 201.85 555.733 201.85 L561.705 201.85 L561.705 201.434 Q561.705 198.494 559.761 196.897 Q557.839 195.276 554.344 195.276 Q552.122 195.276 550.015 195.809 Q547.909 196.341 545.965 197.406 L545.965 193.471 Q548.302 192.568 550.502 192.128 Q552.701 191.665 554.784 191.665 Q560.409 191.665 563.187 194.582 Q565.964 197.498 565.964 203.424 Z" fill="#000000" fill-rule="nonzero" fill-opacity="1" /><path clip-path="url(#clip970)" d="M574.738 182.198 L578.997 182.198 L578.997 218.216 L574.738 218.216 L574.738 182.198 Z" fill="#000000" fill-rule="nonzero" fill-opacity="1" /><path clip-path="url(#clip970)" d="M614.714 188.262 L608.372 205.461 L621.08 205.461 L614.714 188.262 M612.075 183.656 L617.376 183.656 L630.547 218.216 L625.686 218.216 L622.538 209.35 L606.96 209.35 L603.811 218.216 L598.881 218.216 L612.075 183.656 Z" fill="#000000" fill-rule="nonzero" fill-opacity="1" /><path clip-path="url(#clip970)" d="M640.27 187.499 L640.27 200.485 L646.149 200.485 Q649.413 200.485 651.195 198.795 Q652.978 197.105 652.978 193.98 Q652.978 190.878 651.195 189.188 Q649.413 187.499 646.149 187.499 L640.27 187.499 M635.594 183.656 L646.149 183.656 Q651.959 183.656 654.922 186.295 Q657.908 188.911 657.908 193.98 Q657.908 199.096 654.922 201.711 Q651.959 204.327 646.149 204.327 L640.27 204.327 L640.27 218.216 L635.594 218.216 L635.594 183.656 Z" fill="#000000" fill-rule="nonzero" fill-opacity="1" /><path clip-path="url(#clip970)" d="M664.181 183.656 L668.857 183.656 L668.857 218.216 L664.181 218.216 L664.181 183.656 Z" fill="#000000" fill-rule="nonzero" fill-opacity="1" /><path clip-path="url(#clip970)" d="M1838.69 621.108 L3152.76 621.108 L3152.76 79.1921 L1838.69 79.1921  Z" fill="#ffffff" fill-rule="evenodd" fill-opacity="1"/>
<polyline clip-path="url(#clip971)" style="stroke:#000000; stroke-linecap:round; stroke-linejoin:round; stroke-width:2; stroke-opacity:0.1; fill:none" points="1875.88,621.108 1875.88,79.1921 "/>
<polyline clip-path="url(#clip971)" style="stroke:#000000; stroke-linecap:round; stroke-linejoin:round; stroke-width:2; stroke-opacity:0.1; fill:none" points="2185.8,621.108 2185.8,79.1921 "/>
<polyline clip-path="url(#clip971)" style="stroke:#000000; stroke-linecap:round; stroke-linejoin:round; stroke-width:2; stroke-opacity:0.1; fill:none" points="2495.72,621.108 2495.72,79.1921 "/>
<polyline clip-path="url(#clip971)" style="stroke:#000000; stroke-linecap:round; stroke-linejoin:round; stroke-width:2; stroke-opacity:0.1; fill:none" points="2805.64,621.108 2805.64,79.1921 "/>
<polyline clip-path="url(#clip971)" style="stroke:#000000; stroke-linecap:round; stroke-linejoin:round; stroke-width:2; stroke-opacity:0.1; fill:none" points="3115.57,621.108 3115.57,79.1921 "/>
<polyline clip-path="url(#clip971)" style="stroke:#000000; stroke-linecap:round; stroke-linejoin:round; stroke-width:2; stroke-opacity:0.1; fill:none" points="1838.69,602.986 3152.76,602.986 "/>
<polyline clip-path="url(#clip971)" style="stroke:#000000; stroke-linecap:round; stroke-linejoin:round; stroke-width:2; stroke-opacity:0.1; fill:none" points="1838.69,485.614 3152.76,485.614 "/>
<polyline clip-path="url(#clip971)" style="stroke:#000000; stroke-linecap:round; stroke-linejoin:round; stroke-width:2; stroke-opacity:0.1; fill:none" points="1838.69,368.242 3152.76,368.242 "/>
<polyline clip-path="url(#clip971)" style="stroke:#000000; stroke-linecap:round; stroke-linejoin:round; stroke-width:2; stroke-opacity:0.1; fill:none" points="1838.69,250.87 3152.76,250.87 "/>
<polyline clip-path="url(#clip971)" style="stroke:#000000; stroke-linecap:round; stroke-linejoin:round; stroke-width:2; stroke-opacity:0.1; fill:none" points="1838.69,133.498 3152.76,133.498 "/>
<polyline clip-path="url(#clip970)" style="stroke:#000000; stroke-linecap:round; stroke-linejoin:round; stroke-width:4; stroke-opacity:1; fill:none" points="1838.69,621.108 3152.76,621.108 "/>
<polyline clip-path="url(#clip970)" style="stroke:#000000; stroke-linecap:round; stroke-linejoin:round; stroke-width:4; stroke-opacity:1; fill:none" points="1875.88,621.108 1875.88,602.21 "/>
<polyline clip-path="url(#clip970)" style="stroke:#000000; stroke-linecap:round; stroke-linejoin:round; stroke-width:4; stroke-opacity:1; fill:none" points="2185.8,621.108 2185.8,602.21 "/>
<polyline clip-path="url(#clip970)" style="stroke:#000000; stroke-linecap:round; stroke-linejoin:round; stroke-width:4; stroke-opacity:1; fill:none" points="2495.72,621.108 2495.72,602.21 "/>
<polyline clip-path="url(#clip970)" style="stroke:#000000; stroke-linecap:round; stroke-linejoin:round; stroke-width:4; stroke-opacity:1; fill:none" points="2805.64,621.108 2805.64,602.21 "/>
<polyline clip-path="url(#clip970)" style="stroke:#000000; stroke-linecap:round; stroke-linejoin:round; stroke-width:4; stroke-opacity:1; fill:none" points="3115.57,621.108 3115.57,602.21 "/>
<path clip-path="url(#clip970)" d="M1853.26 658.426 Q1849.65 658.426 1847.82 661.991 Q1846.02 665.533 1846.02 672.662 Q1846.02 679.769 1847.82 683.334 Q1849.65 686.875 1853.26 686.875 Q1856.9 686.875 1858.7 683.334 Q1860.53 679.769 1860.53 672.662 Q1860.53 665.533 1858.7 661.991 Q1856.9 658.426 1853.26 658.426 M1853.26 654.723 Q1859.07 654.723 1862.13 659.329 Q1865.21 663.912 1865.21 672.662 Q1865.21 681.389 1862.13 685.996 Q1859.07 690.579 1853.26 690.579 Q1847.45 690.579 1844.37 685.996 Q1841.32 681.389 1841.32 672.662 Q1841.32 663.912 1844.37 659.329 Q1847.45 654.723 1853.26 654.723 Z" fill="#000000" fill-rule="nonzero" fill-opacity="1" /><path clip-path="url(#clip970)" d="M1873.43 684.028 L1878.31 684.028 L1878.31 689.908 L1873.43 689.908 L1873.43 684.028 Z" fill="#000000" fill-rule="nonzero" fill-opacity="1" /><path clip-path="url(#clip970)" d="M1898.49 658.426 Q1894.88 658.426 1893.05 661.991 Q1891.25 665.533 1891.25 672.662 Q1891.25 679.769 1893.05 683.334 Q1894.88 686.875 1898.49 686.875 Q1902.13 686.875 1903.93 683.334 Q1905.76 679.769 1905.76 672.662 Q1905.76 665.533 1903.93 661.991 Q1902.13 658.426 1898.49 658.426 M1898.49 654.723 Q1904.3 654.723 1907.36 659.329 Q1910.44 663.912 1910.44 672.662 Q1910.44 681.389 1907.36 685.996 Q1904.3 690.579 1898.49 690.579 Q1892.68 690.579 1889.61 685.996 Q1886.55 681.389 1886.55 672.662 Q1886.55 663.912 1889.61 659.329 Q1892.68 654.723 1898.49 654.723 Z" fill="#000000" fill-rule="nonzero" fill-opacity="1" /><path clip-path="url(#clip970)" d="M2163.68 658.426 Q2160.07 658.426 2158.24 661.991 Q2156.44 665.533 2156.44 672.662 Q2156.44 679.769 2158.24 683.334 Q2160.07 686.875 2163.68 686.875 Q2167.32 686.875 2169.12 683.334 Q2170.95 679.769 2170.95 672.662 Q2170.95 665.533 2169.12 661.991 Q2167.32 658.426 2163.68 658.426 M2163.68 654.723 Q2169.49 654.723 2172.55 659.329 Q2175.63 663.912 2175.63 672.662 Q2175.63 681.389 2172.55 685.996 Q2169.49 690.579 2163.68 690.579 Q2157.87 690.579 2154.79 685.996 Q2151.74 681.389 2151.74 672.662 Q2151.74 663.912 2154.79 659.329 Q2157.87 654.723 2163.68 654.723 Z" fill="#000000" fill-rule="nonzero" fill-opacity="1" /><path clip-path="url(#clip970)" d="M2183.84 684.028 L2188.73 684.028 L2188.73 689.908 L2183.84 689.908 L2183.84 684.028 Z" fill="#000000" fill-rule="nonzero" fill-opacity="1" /><path clip-path="url(#clip970)" d="M2198.96 655.348 L2217.32 655.348 L2217.32 659.283 L2203.24 659.283 L2203.24 667.755 Q2204.26 667.408 2205.28 667.246 Q2206.3 667.061 2207.32 667.061 Q2213.1 667.061 2216.48 670.232 Q2219.86 673.403 2219.86 678.82 Q2219.86 684.398 2216.39 687.5 Q2212.92 690.579 2206.6 690.579 Q2204.42 690.579 2202.15 690.209 Q2199.91 689.838 2197.5 689.098 L2197.5 684.398 Q2199.59 685.533 2201.81 686.088 Q2204.03 686.644 2206.51 686.644 Q2210.51 686.644 2212.85 684.537 Q2215.19 682.431 2215.19 678.82 Q2215.19 675.209 2212.85 673.102 Q2210.51 670.996 2206.51 670.996 Q2204.63 670.996 2202.76 671.412 Q2200.9 671.829 2198.96 672.709 L2198.96 655.348 Z" fill="#000000" fill-rule="nonzero" fill-opacity="1" /><path clip-path="url(#clip970)" d="M2462.88 685.973 L2470.51 685.973 L2470.51 659.607 L2462.2 661.274 L2462.2 657.014 L2470.47 655.348 L2475.14 655.348 L2475.14 685.973 L2482.78 685.973 L2482.78 689.908 L2462.88 689.908 L2462.88 685.973 Z" fill="#000000" fill-rule="nonzero" fill-opacity="1" /><path clip-path="url(#clip970)" d="M2492.23 684.028 L2497.11 684.028 L2497.11 689.908 L2492.23 689.908 L2492.23 684.028 Z" fill="#000000" fill-rule="nonzero" fill-opacity="1" /><path clip-path="url(#clip970)" d="M2517.3 658.426 Q2513.69 658.426 2511.86 661.991 Q2510.05 665.533 2510.05 672.662 Q2510.05 679.769 2511.86 683.334 Q2513.69 686.875 2517.3 686.875 Q2520.93 686.875 2522.74 683.334 Q2524.56 679.769 2524.56 672.662 Q2524.56 665.533 2522.74 661.991 Q2520.93 658.426 2517.3 658.426 M2517.3 654.723 Q2523.11 654.723 2526.16 659.329 Q2529.24 663.912 2529.24 672.662 Q2529.24 681.389 2526.16 685.996 Q2523.11 690.579 2517.3 690.579 Q2511.49 690.579 2508.41 685.996 Q2505.35 681.389 2505.35 672.662 Q2505.35 663.912 2508.41 659.329 Q2511.49 654.723 2517.3 654.723 Z" fill="#000000" fill-rule="nonzero" fill-opacity="1" /><path clip-path="url(#clip970)" d="M2773.29 685.973 L2780.93 685.973 L2780.93 659.607 L2772.62 661.274 L2772.62 657.014 L2780.89 655.348 L2785.56 655.348 L2785.56 685.973 L2793.2 685.973 L2793.2 689.908 L2773.29 689.908 L2773.29 685.973 Z" fill="#000000" fill-rule="nonzero" fill-opacity="1" /><path clip-path="url(#clip970)" d="M2802.65 684.028 L2807.53 684.028 L2807.53 689.908 L2802.65 689.908 L2802.65 684.028 Z" fill="#000000" fill-rule="nonzero" fill-opacity="1" /><path clip-path="url(#clip970)" d="M2817.76 655.348 L2836.12 655.348 L2836.12 659.283 L2822.04 659.283 L2822.04 667.755 Q2823.06 667.408 2824.08 667.246 Q2825.1 667.061 2826.12 667.061 Q2831.91 667.061 2835.28 670.232 Q2838.66 673.403 2838.66 678.82 Q2838.66 684.398 2835.19 687.5 Q2831.72 690.579 2825.4 690.579 Q2823.22 690.579 2820.96 690.209 Q2818.71 689.838 2816.3 689.098 L2816.3 684.398 Q2818.39 685.533 2820.61 686.088 Q2822.83 686.644 2825.31 686.644 Q2829.31 686.644 2831.65 684.537 Q2833.99 682.431 2833.99 678.82 Q2833.99 675.209 2831.65 673.102 Q2829.31 670.996 2825.31 670.996 Q2823.43 670.996 2821.56 671.412 Q2819.71 671.829 2817.76 672.709 L2817.76 655.348 Z" fill="#000000" fill-rule="nonzero" fill-opacity="1" /><path clip-path="url(#clip970)" d="M3086.8 685.973 L3103.12 685.973 L3103.12 689.908 L3081.18 689.908 L3081.18 685.973 Q3083.84 683.218 3088.42 678.588 Q3093.03 673.936 3094.21 672.593 Q3096.46 670.07 3097.34 668.334 Q3098.24 666.575 3098.24 664.885 Q3098.24 662.13 3096.29 660.394 Q3094.37 658.658 3091.27 658.658 Q3089.07 658.658 3086.62 659.422 Q3084.19 660.186 3081.41 661.737 L3081.41 657.014 Q3084.23 655.88 3086.69 655.301 Q3089.14 654.723 3091.18 654.723 Q3096.55 654.723 3099.74 657.408 Q3102.94 660.093 3102.94 664.584 Q3102.94 666.713 3102.13 668.635 Q3101.34 670.533 3099.23 673.125 Q3098.66 673.797 3095.55 677.014 Q3092.45 680.209 3086.8 685.973 Z" fill="#000000" fill-rule="nonzero" fill-opacity="1" /><path clip-path="url(#clip970)" d="M3112.94 684.028 L3117.82 684.028 L3117.82 689.908 L3112.94 689.908 L3112.94 684.028 Z" fill="#000000" fill-rule="nonzero" fill-opacity="1" /><path clip-path="url(#clip970)" d="M3138.01 658.426 Q3134.4 658.426 3132.57 661.991 Q3130.76 665.533 3130.76 672.662 Q3130.76 679.769 3132.57 683.334 Q3134.4 686.875 3138.01 686.875 Q3141.64 686.875 3143.45 683.334 Q3145.28 679.769 3145.28 672.662 Q3145.28 665.533 3143.45 661.991 Q3141.64 658.426 3138.01 658.426 M3138.01 654.723 Q3143.82 654.723 3146.87 659.329 Q3149.95 663.912 3149.95 672.662 Q3149.95 681.389 3146.87 685.996 Q3143.82 690.579 3138.01 690.579 Q3132.2 690.579 3129.12 685.996 Q3126.06 681.389 3126.06 672.662 Q3126.06 663.912 3129.12 659.329 Q3132.2 654.723 3138.01 654.723 Z" fill="#000000" fill-rule="nonzero" fill-opacity="1" /><path clip-path="url(#clip970)" d="M2494.87 731.179 L2494.87 740.38 L2505.84 740.38 L2505.84 744.518 L2494.87 744.518 L2494.87 762.111 Q2494.87 766.075 2495.94 767.203 Q2497.04 768.332 2500.37 768.332 L2505.84 768.332 L2505.84 772.788 L2500.37 772.788 Q2494.2 772.788 2491.86 770.502 Q2489.52 768.187 2489.52 762.111 L2489.52 744.518 L2485.61 744.518 L2485.61 740.38 L2489.52 740.38 L2489.52 731.179 L2494.87 731.179 Z" fill="#000000" fill-rule="nonzero" fill-opacity="1" /><polyline clip-path="url(#clip970)" style="stroke:#000000; stroke-linecap:round; stroke-linejoin:round; stroke-width:4; stroke-opacity:1; fill:none" points="1838.69,621.108 1838.69,79.1921 "/>
<polyline clip-path="url(#clip970)" style="stroke:#000000; stroke-linecap:round; stroke-linejoin:round; stroke-width:4; stroke-opacity:1; fill:none" points="1838.69,602.986 1857.59,602.986 "/>
<polyline clip-path="url(#clip970)" style="stroke:#000000; stroke-linecap:round; stroke-linejoin:round; stroke-width:4; stroke-opacity:1; fill:none" points="1838.69,485.614 1857.59,485.614 "/>
<polyline clip-path="url(#clip970)" style="stroke:#000000; stroke-linecap:round; stroke-linejoin:round; stroke-width:4; stroke-opacity:1; fill:none" points="1838.69,368.242 1857.59,368.242 "/>
<polyline clip-path="url(#clip970)" style="stroke:#000000; stroke-linecap:round; stroke-linejoin:round; stroke-width:4; stroke-opacity:1; fill:none" points="1838.69,250.87 1857.59,250.87 "/>
<polyline clip-path="url(#clip970)" style="stroke:#000000; stroke-linecap:round; stroke-linejoin:round; stroke-width:4; stroke-opacity:1; fill:none" points="1838.69,133.498 1857.59,133.498 "/>
<path clip-path="url(#clip970)" d="M1623.42 603.437 L1653.1 603.437 L1653.1 607.372 L1623.42 607.372 L1623.42 603.437 Z" fill="#000000" fill-rule="nonzero" fill-opacity="1" /><path clip-path="url(#clip970)" d="M1673.19 588.784 Q1669.58 588.784 1667.75 592.349 Q1665.94 595.891 1665.94 603.02 Q1665.94 610.127 1667.75 613.692 Q1669.58 617.233 1673.19 617.233 Q1676.82 617.233 1678.63 613.692 Q1680.46 610.127 1680.46 603.02 Q1680.46 595.891 1678.63 592.349 Q1676.82 588.784 1673.19 588.784 M1673.19 585.081 Q1679 585.081 1682.05 589.687 Q1685.13 594.27 1685.13 603.02 Q1685.13 611.747 1682.05 616.354 Q1679 620.937 1673.19 620.937 Q1667.38 620.937 1664.3 616.354 Q1661.24 611.747 1661.24 603.02 Q1661.24 594.27 1664.3 589.687 Q1667.38 585.081 1673.19 585.081 Z" fill="#000000" fill-rule="nonzero" fill-opacity="1" /><path clip-path="url(#clip970)" d="M1693.35 614.386 L1698.24 614.386 L1698.24 620.266 L1693.35 620.266 L1693.35 614.386 Z" fill="#000000" fill-rule="nonzero" fill-opacity="1" /><path clip-path="url(#clip970)" d="M1718.42 588.784 Q1714.81 588.784 1712.98 592.349 Q1711.18 595.891 1711.18 603.02 Q1711.18 610.127 1712.98 613.692 Q1714.81 617.233 1718.42 617.233 Q1722.05 617.233 1723.86 613.692 Q1725.69 610.127 1725.69 603.02 Q1725.69 595.891 1723.86 592.349 Q1722.05 588.784 1718.42 588.784 M1718.42 585.081 Q1724.23 585.081 1727.29 589.687 Q1730.36 594.27 1730.36 603.02 Q1730.36 611.747 1727.29 616.354 Q1724.23 620.937 1718.42 620.937 Q1712.61 620.937 1709.53 616.354 Q1706.48 611.747 1706.48 603.02 Q1706.48 594.27 1709.53 589.687 Q1712.61 585.081 1718.42 585.081 Z" fill="#000000" fill-rule="nonzero" fill-opacity="1" /><path clip-path="url(#clip970)" d="M1738.63 585.706 L1756.99 585.706 L1756.99 589.641 L1742.91 589.641 L1742.91 598.113 Q1743.93 597.766 1744.95 597.604 Q1745.97 597.419 1746.99 597.419 Q1752.77 597.419 1756.15 600.59 Q1759.53 603.761 1759.53 609.178 Q1759.53 614.756 1756.06 617.858 Q1752.59 620.937 1746.27 620.937 Q1744.09 620.937 1741.82 620.567 Q1739.58 620.196 1737.17 619.456 L1737.17 614.756 Q1739.25 615.891 1741.48 616.446 Q1743.7 617.002 1746.17 617.002 Q1750.18 617.002 1752.52 614.895 Q1754.86 612.789 1754.86 609.178 Q1754.86 605.567 1752.52 603.46 Q1750.18 601.354 1746.17 601.354 Q1744.3 601.354 1742.42 601.77 Q1740.57 602.187 1738.63 603.067 L1738.63 585.706 Z" fill="#000000" fill-rule="nonzero" fill-opacity="1" /><path clip-path="url(#clip970)" d="M1778.74 588.784 Q1775.13 588.784 1773.3 592.349 Q1771.5 595.891 1771.5 603.02 Q1771.5 610.127 1773.3 613.692 Q1775.13 617.233 1778.74 617.233 Q1782.38 617.233 1784.18 613.692 Q1786.01 610.127 1786.01 603.02 Q1786.01 595.891 1784.18 592.349 Q1782.38 588.784 1778.74 588.784 M1778.74 585.081 Q1784.55 585.081 1787.61 589.687 Q1790.69 594.27 1790.69 603.02 Q1790.69 611.747 1787.61 616.354 Q1784.55 620.937 1778.74 620.937 Q1772.93 620.937 1769.86 616.354 Q1766.8 611.747 1766.8 603.02 Q1766.8 594.27 1769.86 589.687 Q1772.93 585.081 1778.74 585.081 Z" fill="#000000" fill-rule="nonzero" fill-opacity="1" /><path clip-path="url(#clip970)" d="M1624.42 486.065 L1654.09 486.065 L1654.09 490 L1624.42 490 L1624.42 486.065 Z" fill="#000000" fill-rule="nonzero" fill-opacity="1" /><path clip-path="url(#clip970)" d="M1674.18 471.413 Q1670.57 471.413 1668.74 474.977 Q1666.94 478.519 1666.94 485.649 Q1666.94 492.755 1668.74 496.32 Q1670.57 499.861 1674.18 499.861 Q1677.82 499.861 1679.62 496.32 Q1681.45 492.755 1681.45 485.649 Q1681.45 478.519 1679.62 474.977 Q1677.82 471.413 1674.18 471.413 M1674.18 467.709 Q1679.99 467.709 1683.05 472.315 Q1686.13 476.899 1686.13 485.649 Q1686.13 494.375 1683.05 498.982 Q1679.99 503.565 1674.18 503.565 Q1668.37 503.565 1665.3 498.982 Q1662.24 494.375 1662.24 485.649 Q1662.24 476.899 1665.3 472.315 Q1668.37 467.709 1674.18 467.709 Z" fill="#000000" fill-rule="nonzero" fill-opacity="1" /><path clip-path="url(#clip970)" d="M1694.35 497.014 L1699.23 497.014 L1699.23 502.894 L1694.35 502.894 L1694.35 497.014 Z" fill="#000000" fill-rule="nonzero" fill-opacity="1" /><path clip-path="url(#clip970)" d="M1719.42 471.413 Q1715.8 471.413 1713.98 474.977 Q1712.17 478.519 1712.17 485.649 Q1712.17 492.755 1713.98 496.32 Q1715.8 499.861 1719.42 499.861 Q1723.05 499.861 1724.86 496.32 Q1726.68 492.755 1726.68 485.649 Q1726.68 478.519 1724.86 474.977 Q1723.05 471.413 1719.42 471.413 M1719.42 467.709 Q1725.23 467.709 1728.28 472.315 Q1731.36 476.899 1731.36 485.649 Q1731.36 494.375 1728.28 498.982 Q1725.23 503.565 1719.42 503.565 Q1713.61 503.565 1710.53 498.982 Q1707.47 494.375 1707.47 485.649 Q1707.47 476.899 1710.53 472.315 Q1713.61 467.709 1719.42 467.709 Z" fill="#000000" fill-rule="nonzero" fill-opacity="1" /><path clip-path="url(#clip970)" d="M1743.61 498.959 L1759.92 498.959 L1759.92 502.894 L1737.98 502.894 L1737.98 498.959 Q1740.64 496.204 1745.23 491.574 Q1749.83 486.922 1751.01 485.579 Q1753.26 483.056 1754.14 481.32 Q1755.04 479.561 1755.04 477.871 Q1755.04 475.116 1753.1 473.38 Q1751.17 471.644 1748.07 471.644 Q1745.87 471.644 1743.42 472.408 Q1740.99 473.172 1738.21 474.723 L1738.21 470.001 Q1741.04 468.866 1743.49 468.288 Q1745.94 467.709 1747.98 467.709 Q1753.35 467.709 1756.55 470.394 Q1759.74 473.079 1759.74 477.57 Q1759.74 479.7 1758.93 481.621 Q1758.14 483.519 1756.04 486.112 Q1755.46 486.783 1752.36 490 Q1749.25 493.195 1743.61 498.959 Z" fill="#000000" fill-rule="nonzero" fill-opacity="1" /><path clip-path="url(#clip970)" d="M1769.79 468.334 L1788.14 468.334 L1788.14 472.269 L1774.07 472.269 L1774.07 480.741 Q1775.09 480.394 1776.11 480.232 Q1777.12 480.047 1778.14 480.047 Q1783.93 480.047 1787.31 483.218 Q1790.69 486.389 1790.69 491.806 Q1790.69 497.385 1787.22 500.486 Q1783.74 503.565 1777.42 503.565 Q1775.25 503.565 1772.98 503.195 Q1770.73 502.824 1768.33 502.084 L1768.33 497.385 Q1770.41 498.519 1772.63 499.074 Q1774.86 499.63 1777.33 499.63 Q1781.34 499.63 1783.67 497.524 Q1786.01 495.417 1786.01 491.806 Q1786.01 488.195 1783.67 486.088 Q1781.34 483.982 1777.33 483.982 Q1775.46 483.982 1773.58 484.399 Q1771.73 484.815 1769.79 485.695 L1769.79 468.334 Z" fill="#000000" fill-rule="nonzero" fill-opacity="1" /><path clip-path="url(#clip970)" d="M1673.19 354.041 Q1669.58 354.041 1667.75 357.605 Q1665.94 361.147 1665.94 368.277 Q1665.94 375.383 1667.75 378.948 Q1669.58 382.49 1673.19 382.49 Q1676.82 382.49 1678.63 378.948 Q1680.46 375.383 1680.46 368.277 Q1680.46 361.147 1678.63 357.605 Q1676.82 354.041 1673.19 354.041 M1673.19 350.337 Q1679 350.337 1682.05 354.943 Q1685.13 359.527 1685.13 368.277 Q1685.13 377.003 1682.05 381.61 Q1679 386.193 1673.19 386.193 Q1667.38 386.193 1664.3 381.61 Q1661.24 377.003 1661.24 368.277 Q1661.24 359.527 1664.3 354.943 Q1667.38 350.337 1673.19 350.337 Z" fill="#000000" fill-rule="nonzero" fill-opacity="1" /><path clip-path="url(#clip970)" d="M1693.35 379.642 L1698.24 379.642 L1698.24 385.522 L1693.35 385.522 L1693.35 379.642 Z" fill="#000000" fill-rule="nonzero" fill-opacity="1" /><path clip-path="url(#clip970)" d="M1718.42 354.041 Q1714.81 354.041 1712.98 357.605 Q1711.18 361.147 1711.18 368.277 Q1711.18 375.383 1712.98 378.948 Q1714.81 382.49 1718.42 382.49 Q1722.05 382.49 1723.86 378.948 Q1725.69 375.383 1725.69 368.277 Q1725.69 361.147 1723.86 357.605 Q1722.05 354.041 1718.42 354.041 M1718.42 350.337 Q1724.23 350.337 1727.29 354.943 Q1730.36 359.527 1730.36 368.277 Q1730.36 377.003 1727.29 381.61 Q1724.23 386.193 1718.42 386.193 Q1712.61 386.193 1709.53 381.61 Q1706.48 377.003 1706.48 368.277 Q1706.48 359.527 1709.53 354.943 Q1712.61 350.337 1718.42 350.337 Z" fill="#000000" fill-rule="nonzero" fill-opacity="1" /><path clip-path="url(#clip970)" d="M1748.58 354.041 Q1744.97 354.041 1743.14 357.605 Q1741.34 361.147 1741.34 368.277 Q1741.34 375.383 1743.14 378.948 Q1744.97 382.49 1748.58 382.49 Q1752.22 382.49 1754.02 378.948 Q1755.85 375.383 1755.85 368.277 Q1755.85 361.147 1754.02 357.605 Q1752.22 354.041 1748.58 354.041 M1748.58 350.337 Q1754.39 350.337 1757.45 354.943 Q1760.53 359.527 1760.53 368.277 Q1760.53 377.003 1757.45 381.61 Q1754.39 386.193 1748.58 386.193 Q1742.77 386.193 1739.69 381.61 Q1736.64 377.003 1736.64 368.277 Q1736.64 359.527 1739.69 354.943 Q1742.77 350.337 1748.58 350.337 Z" fill="#000000" fill-rule="nonzero" fill-opacity="1" /><path clip-path="url(#clip970)" d="M1778.74 354.041 Q1775.13 354.041 1773.3 357.605 Q1771.5 361.147 1771.5 368.277 Q1771.5 375.383 1773.3 378.948 Q1775.13 382.49 1778.74 382.49 Q1782.38 382.49 1784.18 378.948 Q1786.01 375.383 1786.01 368.277 Q1786.01 361.147 1784.18 357.605 Q1782.38 354.041 1778.74 354.041 M1778.74 350.337 Q1784.55 350.337 1787.61 354.943 Q1790.69 359.527 1790.69 368.277 Q1790.69 377.003 1787.61 381.61 Q1784.55 386.193 1778.74 386.193 Q1772.93 386.193 1769.86 381.61 Q1766.8 377.003 1766.8 368.277 Q1766.8 359.527 1769.86 354.943 Q1772.93 350.337 1778.74 350.337 Z" fill="#000000" fill-rule="nonzero" fill-opacity="1" /><path clip-path="url(#clip970)" d="M1674.18 236.669 Q1670.57 236.669 1668.74 240.234 Q1666.94 243.775 1666.94 250.905 Q1666.94 258.011 1668.74 261.576 Q1670.57 265.118 1674.18 265.118 Q1677.82 265.118 1679.62 261.576 Q1681.45 258.011 1681.45 250.905 Q1681.45 243.775 1679.62 240.234 Q1677.82 236.669 1674.18 236.669 M1674.18 232.965 Q1679.99 232.965 1683.05 237.572 Q1686.13 242.155 1686.13 250.905 Q1686.13 259.632 1683.05 264.238 Q1679.99 268.821 1674.18 268.821 Q1668.37 268.821 1665.3 264.238 Q1662.24 259.632 1662.24 250.905 Q1662.24 242.155 1665.3 237.572 Q1668.37 232.965 1674.18 232.965 Z" fill="#000000" fill-rule="nonzero" fill-opacity="1" /><path clip-path="url(#clip970)" d="M1694.35 262.27 L1699.23 262.27 L1699.23 268.15 L1694.35 268.15 L1694.35 262.27 Z" fill="#000000" fill-rule="nonzero" fill-opacity="1" /><path clip-path="url(#clip970)" d="M1719.42 236.669 Q1715.8 236.669 1713.98 240.234 Q1712.17 243.775 1712.17 250.905 Q1712.17 258.011 1713.98 261.576 Q1715.8 265.118 1719.42 265.118 Q1723.05 265.118 1724.86 261.576 Q1726.68 258.011 1726.68 250.905 Q1726.68 243.775 1724.86 240.234 Q1723.05 236.669 1719.42 236.669 M1719.42 232.965 Q1725.23 232.965 1728.28 237.572 Q1731.36 242.155 1731.36 250.905 Q1731.36 259.632 1728.28 264.238 Q1725.23 268.821 1719.42 268.821 Q1713.61 268.821 1710.53 264.238 Q1707.47 259.632 1707.47 250.905 Q1707.47 242.155 1710.53 237.572 Q1713.61 232.965 1719.42 232.965 Z" fill="#000000" fill-rule="nonzero" fill-opacity="1" /><path clip-path="url(#clip970)" d="M1743.61 264.215 L1759.92 264.215 L1759.92 268.15 L1737.98 268.15 L1737.98 264.215 Q1740.64 261.46 1745.23 256.831 Q1749.83 252.178 1751.01 250.835 Q1753.26 248.312 1754.14 246.576 Q1755.04 244.817 1755.04 243.127 Q1755.04 240.372 1753.1 238.636 Q1751.17 236.9 1748.07 236.9 Q1745.87 236.9 1743.42 237.664 Q1740.99 238.428 1738.21 239.979 L1738.21 235.257 Q1741.04 234.122 1743.49 233.544 Q1745.94 232.965 1747.98 232.965 Q1753.35 232.965 1756.55 235.65 Q1759.74 238.335 1759.74 242.826 Q1759.74 244.956 1758.93 246.877 Q1758.14 248.775 1756.04 251.368 Q1755.46 252.039 1752.36 255.257 Q1749.25 258.451 1743.61 264.215 Z" fill="#000000" fill-rule="nonzero" fill-opacity="1" /><path clip-path="url(#clip970)" d="M1769.79 233.59 L1788.14 233.59 L1788.14 237.525 L1774.07 237.525 L1774.07 245.997 Q1775.09 245.65 1776.11 245.488 Q1777.12 245.303 1778.14 245.303 Q1783.93 245.303 1787.31 248.474 Q1790.69 251.646 1790.69 257.062 Q1790.69 262.641 1787.22 265.743 Q1783.74 268.821 1777.42 268.821 Q1775.25 268.821 1772.98 268.451 Q1770.73 268.081 1768.33 267.34 L1768.33 262.641 Q1770.41 263.775 1772.63 264.331 Q1774.86 264.886 1777.33 264.886 Q1781.34 264.886 1783.67 262.78 Q1786.01 260.673 1786.01 257.062 Q1786.01 253.451 1783.67 251.345 Q1781.34 249.238 1777.33 249.238 Q1775.46 249.238 1773.58 249.655 Q1771.73 250.071 1769.79 250.951 L1769.79 233.59 Z" fill="#000000" fill-rule="nonzero" fill-opacity="1" /><path clip-path="url(#clip970)" d="M1673.19 119.297 Q1669.58 119.297 1667.75 122.862 Q1665.94 126.403 1665.94 133.533 Q1665.94 140.639 1667.75 144.204 Q1669.58 147.746 1673.19 147.746 Q1676.82 147.746 1678.63 144.204 Q1680.46 140.639 1680.46 133.533 Q1680.46 126.403 1678.63 122.862 Q1676.82 119.297 1673.19 119.297 M1673.19 115.593 Q1679 115.593 1682.05 120.2 Q1685.13 124.783 1685.13 133.533 Q1685.13 142.26 1682.05 146.866 Q1679 151.45 1673.19 151.45 Q1667.38 151.45 1664.3 146.866 Q1661.24 142.26 1661.24 133.533 Q1661.24 124.783 1664.3 120.2 Q1667.38 115.593 1673.19 115.593 Z" fill="#000000" fill-rule="nonzero" fill-opacity="1" /><path clip-path="url(#clip970)" d="M1693.35 144.899 L1698.24 144.899 L1698.24 150.778 L1693.35 150.778 L1693.35 144.899 Z" fill="#000000" fill-rule="nonzero" fill-opacity="1" /><path clip-path="url(#clip970)" d="M1718.42 119.297 Q1714.81 119.297 1712.98 122.862 Q1711.18 126.403 1711.18 133.533 Q1711.18 140.639 1712.98 144.204 Q1714.81 147.746 1718.42 147.746 Q1722.05 147.746 1723.86 144.204 Q1725.69 140.639 1725.69 133.533 Q1725.69 126.403 1723.86 122.862 Q1722.05 119.297 1718.42 119.297 M1718.42 115.593 Q1724.23 115.593 1727.29 120.2 Q1730.36 124.783 1730.36 133.533 Q1730.36 142.26 1727.29 146.866 Q1724.23 151.45 1718.42 151.45 Q1712.61 151.45 1709.53 146.866 Q1706.48 142.26 1706.48 133.533 Q1706.48 124.783 1709.53 120.2 Q1712.61 115.593 1718.42 115.593 Z" fill="#000000" fill-rule="nonzero" fill-opacity="1" /><path clip-path="url(#clip970)" d="M1738.63 116.218 L1756.99 116.218 L1756.99 120.153 L1742.91 120.153 L1742.91 128.626 Q1743.93 128.278 1744.95 128.116 Q1745.97 127.931 1746.99 127.931 Q1752.77 127.931 1756.15 131.102 Q1759.53 134.274 1759.53 139.69 Q1759.53 145.269 1756.06 148.371 Q1752.59 151.45 1746.27 151.45 Q1744.09 151.45 1741.82 151.079 Q1739.58 150.709 1737.17 149.968 L1737.17 145.269 Q1739.25 146.403 1741.48 146.959 Q1743.7 147.514 1746.17 147.514 Q1750.18 147.514 1752.52 145.408 Q1754.86 143.301 1754.86 139.69 Q1754.86 136.079 1752.52 133.973 Q1750.18 131.866 1746.17 131.866 Q1744.3 131.866 1742.42 132.283 Q1740.57 132.7 1738.63 133.579 L1738.63 116.218 Z" fill="#000000" fill-rule="nonzero" fill-opacity="1" /><path clip-path="url(#clip970)" d="M1778.74 119.297 Q1775.13 119.297 1773.3 122.862 Q1771.5 126.403 1771.5 133.533 Q1771.5 140.639 1773.3 144.204 Q1775.13 147.746 1778.74 147.746 Q1782.38 147.746 1784.18 144.204 Q1786.01 140.639 1786.01 133.533 Q1786.01 126.403 1784.18 122.862 Q1782.38 119.297 1778.74 119.297 M1778.74 115.593 Q1784.55 115.593 1787.61 120.2 Q1790.69 124.783 1790.69 133.533 Q1790.69 142.26 1787.61 146.866 Q1784.55 151.45 1778.74 151.45 Q1772.93 151.45 1769.86 146.866 Q1766.8 142.26 1766.8 133.533 Q1766.8 124.783 1769.86 120.2 Q1772.93 115.593 1778.74 115.593 Z" fill="#000000" fill-rule="nonzero" fill-opacity="1" /><path clip-path="url(#clip970)" d="M2415.09 20.677 L2415.09 25.6538 Q2412.84 24.4096 2410.55 23.802 Q2408.3 23.1654 2405.98 23.1654 Q2400.8 23.1654 2397.94 26.464 Q2395.07 29.7336 2395.07 35.6653 Q2395.07 41.597 2397.94 44.8956 Q2400.8 48.1653 2405.98 48.1653 Q2408.3 48.1653 2410.55 47.5576 Q2412.84 46.921 2415.09 45.6768 L2415.09 50.5958 Q2412.87 51.6375 2410.47 52.1583 Q2408.09 52.6791 2405.4 52.6791 Q2398.08 52.6791 2393.77 48.0784 Q2389.46 43.4778 2389.46 35.6653 Q2389.46 27.7371 2393.8 23.1943 Q2398.17 18.6515 2405.75 18.6515 Q2408.21 18.6515 2410.55 19.1724 Q2412.9 19.6642 2415.09 20.677 Z" fill="#000000" fill-rule="nonzero" fill-opacity="1" /><path clip-path="url(#clip970)" d="M2436.91 23.1654 Q2432.63 23.1654 2430.14 26.5218 Q2427.65 29.8494 2427.65 35.6653 Q2427.65 41.4813 2430.11 44.8377 Q2432.6 48.1653 2436.91 48.1653 Q2441.17 48.1653 2443.65 44.8088 Q2446.14 41.4523 2446.14 35.6653 Q2446.14 29.9072 2443.65 26.5508 Q2441.17 23.1654 2436.91 23.1654 M2436.91 18.6515 Q2443.86 18.6515 2447.82 23.1654 Q2451.78 27.6792 2451.78 35.6653 Q2451.78 43.6225 2447.82 48.1653 Q2443.86 52.6791 2436.91 52.6791 Q2429.94 52.6791 2425.97 48.1653 Q2422.04 43.6225 2422.04 35.6653 Q2422.04 27.6792 2425.97 23.1654 Q2429.94 18.6515 2436.91 18.6515 Z" fill="#000000" fill-rule="nonzero" fill-opacity="1" /><path clip-path="url(#clip970)" d="M2481.27 20.3876 L2481.27 25.4223 Q2479.01 24.2649 2476.58 23.6862 Q2474.15 23.1075 2471.55 23.1075 Q2467.58 23.1075 2465.59 24.3228 Q2463.62 25.5381 2463.62 27.9686 Q2463.62 29.8204 2465.04 30.891 Q2466.45 31.9327 2470.74 32.8876 L2472.56 33.2926 Q2478.23 34.5079 2480.6 36.7359 Q2483.01 38.935 2483.01 42.8991 Q2483.01 47.4129 2479.42 50.046 Q2475.86 52.6791 2469.61 52.6791 Q2467 52.6791 2464.17 52.1583 Q2461.36 51.6664 2458.24 50.6537 L2458.24 45.156 Q2461.19 46.6896 2464.05 47.4708 Q2466.92 48.2231 2469.72 48.2231 Q2473.49 48.2231 2475.51 46.95 Q2477.54 45.6479 2477.54 43.3042 Q2477.54 41.134 2476.06 39.9766 Q2474.61 38.8192 2469.67 37.7486 L2467.81 37.3146 Q2462.87 36.273 2460.67 34.1318 Q2458.47 31.9616 2458.47 28.2001 Q2458.47 23.6283 2461.71 21.1399 Q2464.95 18.6515 2470.91 18.6515 Q2473.86 18.6515 2476.47 19.0855 Q2479.07 19.5196 2481.27 20.3876 Z" fill="#000000" fill-rule="nonzero" fill-opacity="1" /><path clip-path="url(#clip970)" d="M2496.75 10.2314 L2496.75 19.4328 L2507.72 19.4328 L2507.72 23.5705 L2496.75 23.5705 L2496.75 41.163 Q2496.75 45.1271 2497.82 46.2555 Q2498.92 47.384 2502.25 47.384 L2507.72 47.384 L2507.72 51.84 L2502.25 51.84 Q2496.08 51.84 2493.74 49.5541 Q2491.4 47.2393 2491.4 41.163 L2491.4 23.5705 L2487.49 23.5705 L2487.49 19.4328 L2491.4 19.4328 L2491.4 10.2314 L2496.75 10.2314 Z" fill="#000000" fill-rule="nonzero" fill-opacity="1" /><path clip-path="url(#clip970)" d="M2529.45 35.5496 Q2522.99 35.5496 2520.51 37.0253 Q2518.02 38.501 2518.02 42.06 Q2518.02 44.8956 2519.87 46.5738 Q2521.75 48.2231 2524.96 48.2231 Q2529.39 48.2231 2532.05 45.0981 Q2534.74 41.9442 2534.74 36.7359 L2534.74 35.5496 L2529.45 35.5496 M2540.07 33.3505 L2540.07 51.84 L2534.74 51.84 L2534.74 46.921 Q2532.92 49.8724 2530.2 51.2902 Q2527.48 52.6791 2523.54 52.6791 Q2518.57 52.6791 2515.62 49.9014 Q2512.69 47.0947 2512.69 42.4072 Q2512.69 36.9385 2516.34 34.1607 Q2520.01 31.3829 2527.28 31.3829 L2534.74 31.3829 L2534.74 30.8621 Q2534.74 27.1874 2532.31 25.1908 Q2529.91 23.1654 2525.54 23.1654 Q2522.76 23.1654 2520.13 23.8309 Q2517.5 24.4964 2515.07 25.8274 L2515.07 20.9085 Q2517.99 19.78 2520.74 19.2302 Q2523.49 18.6515 2526.09 18.6515 Q2533.12 18.6515 2536.59 22.2973 Q2540.07 25.9431 2540.07 33.3505 Z" fill="#000000" fill-rule="nonzero" fill-opacity="1" /><path clip-path="url(#clip970)" d="M2556.3 10.2314 L2556.3 19.4328 L2567.26 19.4328 L2567.26 23.5705 L2556.3 23.5705 L2556.3 41.163 Q2556.3 45.1271 2557.37 46.2555 Q2558.47 47.384 2561.8 47.384 L2567.26 47.384 L2567.26 51.84 L2561.8 51.84 Q2555.63 51.84 2553.29 49.5541 Q2550.94 47.2393 2550.94 41.163 L2550.94 23.5705 L2547.04 23.5705 L2547.04 19.4328 L2550.94 19.4328 L2550.94 10.2314 L2556.3 10.2314 Z" fill="#000000" fill-rule="nonzero" fill-opacity="1" /><path clip-path="url(#clip970)" d="M2601.99 34.3054 L2601.99 36.9095 L2577.51 36.9095 Q2577.85 42.4072 2580.81 45.3007 Q2583.79 48.1653 2589.08 48.1653 Q2592.15 48.1653 2595.01 47.4129 Q2597.91 46.6606 2600.74 45.156 L2600.74 50.1907 Q2597.88 51.406 2594.87 52.0425 Q2591.86 52.6791 2588.76 52.6791 Q2581.01 52.6791 2576.47 48.1653 Q2571.95 43.6514 2571.95 35.9547 Q2571.95 27.9975 2576.23 23.339 Q2580.55 18.6515 2587.84 18.6515 Q2594.38 18.6515 2598.17 22.876 Q2601.99 27.0716 2601.99 34.3054 M2596.66 32.7429 Q2596.6 28.3737 2594.2 25.7695 Q2591.83 23.1654 2587.89 23.1654 Q2583.44 23.1654 2580.75 25.6827 Q2578.09 28.2001 2577.68 32.7718 L2596.66 32.7429 Z" fill="#000000" fill-rule="nonzero" fill-opacity="1" /><polyline clip-path="url(#clip971)" style="stroke:#000000; stroke-linecap:round; stroke-linejoin:round; stroke-width:4; stroke-opacity:1; fill:none" stroke-dasharray="16, 10" points="1875.88,1163.02 1875.88,-462.723 "/>
<polyline clip-path="url(#clip971)" style="stroke:#000000; stroke-linecap:round; stroke-linejoin:round; stroke-width:4; stroke-opacity:1; fill:none" stroke-dasharray="16, 10" points="3115.57,1163.02 3115.57,-462.723 "/>
<polyline clip-path="url(#clip971)" style="stroke:#000000; stroke-linecap:round; stroke-linejoin:round; stroke-width:4; stroke-opacity:1; fill:none" stroke-dasharray="16, 10" points="1875.88,1163.02 1875.88,-462.723 "/>
<polyline clip-path="url(#clip971)" style="stroke:#000000; stroke-linecap:round; stroke-linejoin:round; stroke-width:4; stroke-opacity:1; fill:none" stroke-dasharray="16, 10" points="3115.57,1163.02 3115.57,-462.723 "/>
<polyline clip-path="url(#clip971)" style="stroke:#009af9; stroke-linecap:round; stroke-linejoin:round; stroke-width:8; stroke-opacity:1; fill:none" points="1875.88,94.5294 1880.84,97.1213 1885.8,101.195 1890.76,106.714 1895.71,113.628 1900.67,121.872 1905.63,131.368 1910.59,142.026 1915.55,153.743 1920.51,166.405 1925.47,179.891 1930.43,194.07 1935.38,208.802 1940.34,223.946 1945.3,239.354 1950.26,254.874 1955.22,270.357 1960.18,285.65 1965.14,300.606 1970.1,315.078 1975.05,328.926 1980.01,342.016 1984.97,354.22 1989.93,365.422 1994.89,375.513 1999.85,384.398 2004.81,391.993 2009.77,398.225 2014.72,403.039 2019.68,406.391 2024.64,408.254 2029.6,408.613 2034.56,407.472 2039.52,404.848 2044.48,400.773 2049.44,395.295 2054.39,388.473 2059.35,380.385 2064.31,371.116 2069.27,360.767 2074.23,349.448 2079.19,337.28 2084.15,324.392 2089.11,310.919 2094.06,297.005 2099.02,282.796 2103.98,268.442 2108.94,254.093 2113.9,239.902 2118.86,226.018 2123.82,212.587 2128.78,199.751 2133.73,187.648 2138.69,176.404 2143.65,166.142 2148.61,156.969 2153.57,148.987 2158.53,142.282 2163.49,136.928 2168.45,132.987 2173.4,130.504 2178.36,129.512 2183.32,130.028 2188.28,132.053 2193.24,135.574 2198.2,140.562 2203.16,146.973 2208.12,154.751 2213.07,163.823 2218.03,174.106 2222.99,185.501 2227.95,197.903 2232.91,211.191 2237.87,225.241 2242.83,239.916 2247.78,255.077 2252.74,270.577 2257.7,286.267 2262.66,301.997 2267.62,317.616 2272.58,332.972 2277.54,347.919 2282.5,362.313 2287.45,376.017 2292.41,388.9 2297.37,400.84 2302.33,411.724 2307.29,421.45 2312.25,429.928 2317.21,437.08 2322.17,442.842 2327.12,447.163 2332.08,450.009 2337.04,451.359 2342,451.208 2346.96,449.564 2351.92,446.454 2356.88,441.916 2361.84,436.006 2366.79,428.791 2371.75,420.353 2376.71,410.785 2381.67,400.193 2386.63,388.693 2391.59,376.408 2396.55,363.473 2401.51,350.026 2406.46,336.213 2411.42,322.181 2416.38,308.082 2421.34,294.066 2426.3,280.285 2431.26,266.887 2436.22,254.016 2441.18,241.812 2446.13,230.407 2451.09,219.925 2456.05,210.483 2461.01,202.185 2465.97,195.124 2470.93,189.381 2475.89,185.024 2480.85,182.106 2485.8,180.668 2490.76,180.733 2495.72,182.31 2500.68,185.395 2505.64,189.964 2510.6,195.984 2515.56,203.402 2520.52,212.155 2525.47,222.164 2530.43,233.338 2535.39,245.576 2540.35,258.764 2545.31,272.779 2550.27,287.491 2555.23,302.761 2560.19,318.447 2565.14,334.401 2570.1,350.472 2575.06,366.51 2580.02,382.362 2584.98,397.882 2589.94,412.922 2594.9,427.342 2599.86,441.009 2604.81,453.794 2609.77,465.582 2614.73,476.263 2619.69,485.743 2624.65,493.936 2629.61,500.773 2634.57,506.195 2639.53,510.16 2644.48,512.64 2649.44,513.621 2654.4,513.107 2659.36,511.114 2664.32,507.675 2669.28,502.837 2674.24,496.662 2679.2,489.223 2684.15,480.61 2689.11,470.92 2694.07,460.266 2699.03,448.768 2703.99,436.554 2708.95,423.761 2713.91,410.531 2718.87,397.011 2723.82,383.351 2728.78,369.702 2733.74,356.215 2738.7,343.04 2743.66,330.323 2748.62,318.207 2753.58,306.828 2758.54,296.314 2763.49,286.786 2768.45,278.354 2773.41,271.116 2778.37,265.161 2783.33,260.563 2788.29,257.383 2793.25,255.666 2798.21,255.446 2803.16,256.739 2808.12,259.546 2813.08,263.855 2818.04,269.636 2823,276.846 2827.96,285.428 2832.92,295.31 2837.88,306.407 2842.83,318.624 2847.79,331.851 2852.75,345.972 2857.71,360.859 2862.67,376.377 2867.63,392.387 2872.59,408.742 2877.55,425.293 2882.5,441.889 2887.46,458.38 2892.42,474.614 2897.38,490.445 2902.34,505.729 2907.3,520.328 2912.26,534.113 2917.22,546.961 2922.17,558.758 2927.13,569.404 2932.09,578.807 2937.05,586.891 2942.01,593.591 2946.97,598.856 2951.93,602.653 2956.89,604.959 2961.84,605.77 2966.8,605.096 2971.76,602.961 2976.72,599.405 2981.68,594.483 2986.64,588.263 2991.6,580.826 2996.56,572.265 3001.51,562.687 3006.47,552.207 3011.43,540.95 3016.39,529.049 3021.35,516.642 3026.31,503.876 3031.27,490.898 3036.23,477.859 3041.18,464.911 3046.14,452.204 3051.1,439.886 3056.06,428.103 3061.02,416.993 3065.98,406.69 3070.94,397.317 3075.9,388.99 3080.85,381.814 3085.81,375.883 3090.77,371.276 3095.73,368.063 3100.69,366.297 3105.65,366.017 3110.61,367.247 3115.57,367.247 "/>
<polyline clip-path="url(#clip971)" style="stroke:#e26f46; stroke-linecap:round; stroke-linejoin:round; stroke-width:8; stroke-opacity:1; fill:none" stroke-dasharray="32, 20" points="1875.88,94.5294 1880.84,97.1213 1885.8,101.195 1890.76,106.714 1895.71,113.628 1900.67,121.872 1905.63,131.368 1910.59,142.026 1915.55,153.743 1920.51,166.405 1925.47,179.891 1930.43,194.07 1935.38,208.802 1940.34,223.946 1945.3,239.354 1950.26,254.874 1955.22,270.357 1960.18,285.65 1965.14,300.606 1970.1,315.078 1975.05,328.926 1980.01,342.016 1984.97,354.22 1989.93,365.422 1994.89,375.513 1999.85,384.398 2004.81,391.993 2009.77,398.225 2014.72,403.039 2019.68,406.391 2024.64,408.254 2029.6,408.613 2034.56,407.472 2039.52,404.848 2044.48,400.773 2049.44,395.295 2054.39,388.473 2059.35,380.385 2064.31,371.116 2069.27,360.767 2074.23,349.448 2079.19,337.28 2084.15,324.392 2089.11,310.919 2094.06,297.005 2099.02,282.796 2103.98,268.442 2108.94,254.093 2113.9,239.902 2118.86,226.018 2123.82,212.587 2128.78,199.751 2133.73,187.648 2138.69,176.404 2143.65,166.142 2148.61,156.969 2153.57,148.987 2158.53,142.282 2163.49,136.928 2168.45,132.987 2173.4,130.504 2178.36,129.512 2183.32,130.028 2188.28,132.053 2193.24,135.574 2198.2,140.562 2203.16,146.973 2208.12,154.751 2213.07,163.823 2218.03,174.106 2222.99,185.501 2227.95,197.903 2232.91,211.191 2237.87,225.241 2242.83,239.916 2247.78,255.077 2252.74,270.577 2257.7,286.267 2262.66,301.997 2267.62,317.616 2272.58,332.972 2277.54,347.919 2282.5,362.313 2287.45,376.017 2292.41,388.9 2297.37,400.84 2302.33,411.724 2307.29,421.45 2312.25,429.928 2317.21,437.08 2322.17,442.842 2327.12,447.163 2332.08,450.009 2337.04,451.359 2342,451.208 2346.96,449.564 2351.92,446.454 2356.88,441.916 2361.84,436.006 2366.79,428.791 2371.75,420.353 2376.71,410.785 2381.67,400.193 2386.63,388.693 2391.59,376.408 2396.55,363.473 2401.51,350.026 2406.46,336.213 2411.42,322.181 2416.38,308.082 2421.34,294.066 2426.3,280.285 2431.26,266.887 2436.22,254.016 2441.18,241.812 2446.13,230.407 2451.09,219.925 2456.05,210.483 2461.01,202.185 2465.97,195.124 2470.93,189.381 2475.89,185.024 2480.85,182.106 2485.8,180.668 2490.76,180.733 2495.72,182.31 2500.68,185.395 2505.64,189.964 2510.6,195.984 2515.56,203.402 2520.52,212.155 2525.47,222.164 2530.43,233.338 2535.39,245.576 2540.35,258.764 2545.31,272.779 2550.27,287.491 2555.23,302.761 2560.19,318.447 2565.14,334.401 2570.1,350.472 2575.06,366.51 2580.02,382.362 2584.98,397.882 2589.94,412.922 2594.9,427.342 2599.86,441.009 2604.81,453.794 2609.77,465.582 2614.73,476.263 2619.69,485.743 2624.65,493.936 2629.61,500.773 2634.57,506.195 2639.53,510.16 2644.48,512.64 2649.44,513.621 2654.4,513.107 2659.36,511.114 2664.32,507.675 2669.28,502.837 2674.24,496.662 2679.2,489.223 2684.15,480.61 2689.11,470.92 2694.07,460.266 2699.03,448.768 2703.99,436.554 2708.95,423.761 2713.91,410.531 2718.87,397.011 2723.82,383.351 2728.78,369.702 2733.74,356.215 2738.7,343.04 2743.66,330.323 2748.62,318.207 2753.58,306.828 2758.54,296.314 2763.49,286.786 2768.45,278.354 2773.41,271.116 2778.37,265.161 2783.33,260.563 2788.29,257.383 2793.25,255.666 2798.21,255.446 2803.16,256.739 2808.12,259.546 2813.08,263.855 2818.04,269.636 2823,276.846 2827.96,285.428 2832.92,295.31 2837.88,306.407 2842.83,318.624 2847.79,331.851 2852.75,345.972 2857.71,360.859 2862.67,376.377 2867.63,392.387 2872.59,408.742 2877.55,425.293 2882.5,441.889 2887.46,458.38 2892.42,474.614 2897.38,490.445 2902.34,505.729 2907.3,520.328 2912.26,534.113 2917.22,546.961 2922.17,558.758 2927.13,569.404 2932.09,578.807 2937.05,586.891 2942.01,593.591 2946.97,598.856 2951.93,602.653 2956.89,604.959 2961.84,605.77 2966.8,605.096 2971.76,602.961 2976.72,599.405 2981.68,594.483 2986.64,588.263 2991.6,580.826 2996.56,572.265 3001.51,562.687 3006.47,552.207 3011.43,540.95 3016.39,529.049 3021.35,516.642 3026.31,503.876 3031.27,490.898 3036.23,477.859 3041.18,464.911 3046.14,452.204 3051.1,439.886 3056.06,428.103 3061.02,416.993 3065.98,406.69 3070.94,397.317 3075.9,388.99 3080.85,381.814 3085.81,375.883 3090.77,371.276 3095.73,368.063 3100.69,366.297 3105.65,366.017 3110.61,367.247 3115.57,367.247 "/>
<path clip-path="url(#clip970)" d="M2652.92 252.776 L3108.95 252.776 L3108.95 97.256 L2652.92 97.256  Z" fill="#ffffff" fill-rule="evenodd" fill-opacity="1"/>
<polyline clip-path="url(#clip970)" style="stroke:#000000; stroke-linecap:round; stroke-linejoin:round; stroke-width:4; stroke-opacity:1; fill:none" points="2652.92,252.776 3108.95,252.776 3108.95,97.256 2652.92,97.256 2652.92,252.776 "/>
<polyline clip-path="url(#clip970)" style="stroke:#009af9; stroke-linecap:round; stroke-linejoin:round; stroke-width:8; stroke-opacity:1; fill:none" points="2667.52,149.096 2755.12,149.096 "/>
<path clip-path="url(#clip970)" d="M2769.73 131.816 L2776.69 131.816 L2785.51 155.334 L2794.38 131.816 L2801.35 131.816 L2801.35 166.376 L2796.79 166.376 L2796.79 136.029 L2787.87 159.732 L2783.17 159.732 L2774.26 136.029 L2774.26 166.376 L2769.73 166.376 L2769.73 131.816 Z" fill="#000000" fill-rule="nonzero" fill-opacity="1" /><path clip-path="url(#clip970)" d="M2822.22 153.344 Q2817.06 153.344 2815.07 154.524 Q2813.08 155.705 2813.08 158.552 Q2813.08 160.82 2814.56 162.163 Q2816.07 163.482 2818.64 163.482 Q2822.18 163.482 2824.31 160.982 Q2826.46 158.459 2826.46 154.293 L2826.46 153.344 L2822.22 153.344 M2830.72 151.584 L2830.72 166.376 L2826.46 166.376 L2826.46 162.441 Q2825 164.802 2822.83 165.936 Q2820.65 167.047 2817.5 167.047 Q2813.52 167.047 2811.16 164.825 Q2808.82 162.58 2808.82 158.83 Q2808.82 154.455 2811.74 152.233 Q2814.68 150.01 2820.49 150.01 L2826.46 150.01 L2826.46 149.594 Q2826.46 146.654 2824.52 145.057 Q2822.6 143.436 2819.1 143.436 Q2816.88 143.436 2814.77 143.969 Q2812.66 144.501 2810.72 145.566 L2810.72 141.631 Q2813.06 140.728 2815.26 140.288 Q2817.46 139.825 2819.54 139.825 Q2825.16 139.825 2827.94 142.742 Q2830.72 145.658 2830.72 151.584 Z" fill="#000000" fill-rule="nonzero" fill-opacity="1" /><path clip-path="url(#clip970)" d="M2858.15 141.446 L2858.15 145.427 Q2856.34 144.432 2854.52 143.946 Q2852.71 143.436 2850.86 143.436 Q2846.72 143.436 2844.42 146.075 Q2842.13 148.691 2842.13 153.436 Q2842.13 158.182 2844.42 160.82 Q2846.72 163.436 2850.86 163.436 Q2852.71 163.436 2854.52 162.95 Q2856.34 162.441 2858.15 161.445 L2858.15 165.381 Q2856.37 166.214 2854.45 166.631 Q2852.55 167.047 2850.4 167.047 Q2844.54 167.047 2841.09 163.367 Q2837.64 159.686 2837.64 153.436 Q2837.64 147.094 2841.11 143.459 Q2844.61 139.825 2850.67 139.825 Q2852.64 139.825 2854.52 140.242 Q2856.39 140.635 2858.15 141.446 Z" fill="#000000" fill-rule="nonzero" fill-opacity="1" /><path clip-path="url(#clip970)" d="M2880.58 144.432 Q2879.86 144.015 2879.01 143.83 Q2878.17 143.621 2877.16 143.621 Q2873.54 143.621 2871.6 145.983 Q2869.68 148.321 2869.68 152.719 L2869.68 166.376 L2865.4 166.376 L2865.4 140.45 L2869.68 140.45 L2869.68 144.478 Q2871.02 142.117 2873.17 140.983 Q2875.33 139.825 2878.4 139.825 Q2878.84 139.825 2879.38 139.895 Q2879.91 139.941 2880.56 140.057 L2880.58 144.432 Z" fill="#000000" fill-rule="nonzero" fill-opacity="1" /><path clip-path="url(#clip970)" d="M2894.05 143.436 Q2890.63 143.436 2888.64 146.121 Q2886.65 148.783 2886.65 153.436 Q2886.65 158.089 2888.61 160.774 Q2890.6 163.436 2894.05 163.436 Q2897.46 163.436 2899.45 160.751 Q2901.44 158.066 2901.44 153.436 Q2901.44 148.83 2899.45 146.145 Q2897.46 143.436 2894.05 143.436 M2894.05 139.825 Q2899.61 139.825 2902.78 143.436 Q2905.95 147.047 2905.95 153.436 Q2905.95 159.802 2902.78 163.436 Q2899.61 167.047 2894.05 167.047 Q2888.47 167.047 2885.3 163.436 Q2882.15 159.802 2882.15 153.436 Q2882.15 147.047 2885.3 143.436 Q2888.47 139.825 2894.05 139.825 Z" fill="#000000" fill-rule="nonzero" fill-opacity="1" /><polyline clip-path="url(#clip970)" style="stroke:#e26f46; stroke-linecap:round; stroke-linejoin:round; stroke-width:8; stroke-opacity:1; fill:none" stroke-dasharray="32, 20" points="2667.52,200.936 2755.12,200.936 "/>
<path clip-path="url(#clip970)" d="M2769.73 183.656 L2789.59 183.656 L2789.59 187.591 L2774.4 187.591 L2774.4 197.776 L2788.1 197.776 L2788.1 201.711 L2774.4 201.711 L2774.4 218.216 L2769.73 218.216 L2769.73 183.656 Z" fill="#000000" fill-rule="nonzero" fill-opacity="1" /><path clip-path="url(#clip970)" d="M2793.78 207.985 L2793.78 192.29 L2798.04 192.29 L2798.04 207.823 Q2798.04 211.503 2799.47 213.355 Q2800.91 215.184 2803.78 215.184 Q2807.22 215.184 2809.22 212.985 Q2811.23 210.785 2811.23 206.989 L2811.23 192.29 L2815.49 192.29 L2815.49 218.216 L2811.23 218.216 L2811.23 214.235 Q2809.68 216.596 2807.62 217.753 Q2805.58 218.887 2802.87 218.887 Q2798.41 218.887 2796.09 216.11 Q2793.78 213.332 2793.78 207.985 M2804.49 191.665 L2804.49 191.665 Z" fill="#000000" fill-rule="nonzero" fill-opacity="1" /><path clip-path="url(#clip970)" d="M2845.81 202.568 L2845.81 218.216 L2841.55 218.216 L2841.55 202.707 Q2841.55 199.026 2840.12 197.198 Q2838.68 195.369 2835.81 195.369 Q2832.36 195.369 2830.37 197.568 Q2828.38 199.767 2828.38 203.563 L2828.38 218.216 L2824.1 218.216 L2824.1 192.29 L2828.38 192.29 L2828.38 196.318 Q2829.91 193.98 2831.97 192.823 Q2834.05 191.665 2836.76 191.665 Q2841.23 191.665 2843.52 194.443 Q2845.81 197.198 2845.81 202.568 Z" fill="#000000" fill-rule="nonzero" fill-opacity="1" /><path clip-path="url(#clip970)" d="M2872.97 193.286 L2872.97 197.267 Q2871.16 196.272 2869.33 195.786 Q2867.53 195.276 2865.67 195.276 Q2861.53 195.276 2859.24 197.915 Q2856.95 200.531 2856.95 205.276 Q2856.95 210.022 2859.24 212.66 Q2861.53 215.276 2865.67 215.276 Q2867.53 215.276 2869.33 214.79 Q2871.16 214.281 2872.97 213.285 L2872.97 217.221 Q2871.18 218.054 2869.26 218.471 Q2867.36 218.887 2865.21 218.887 Q2859.35 218.887 2855.91 215.207 Q2852.46 211.526 2852.46 205.276 Q2852.46 198.934 2855.93 195.299 Q2859.42 191.665 2865.49 191.665 Q2867.46 191.665 2869.33 192.082 Q2871.21 192.475 2872.97 193.286 Z" fill="#000000" fill-rule="nonzero" fill-opacity="1" /><path clip-path="url(#clip970)" d="M2884.59 184.929 L2884.59 192.29 L2893.36 192.29 L2893.36 195.6 L2884.59 195.6 L2884.59 209.674 Q2884.59 212.846 2885.44 213.748 Q2886.32 214.651 2888.98 214.651 L2893.36 214.651 L2893.36 218.216 L2888.98 218.216 Q2884.05 218.216 2882.18 216.387 Q2880.3 214.535 2880.3 209.674 L2880.3 195.6 L2877.18 195.6 L2877.18 192.29 L2880.3 192.29 L2880.3 184.929 L2884.59 184.929 Z" fill="#000000" fill-rule="nonzero" fill-opacity="1" /><path clip-path="url(#clip970)" d="M2898.96 192.29 L2903.22 192.29 L2903.22 218.216 L2898.96 218.216 L2898.96 192.29 M2898.96 182.198 L2903.22 182.198 L2903.22 187.591 L2898.96 187.591 L2898.96 182.198 Z" fill="#000000" fill-rule="nonzero" fill-opacity="1" /><path clip-path="url(#clip970)" d="M2922.18 195.276 Q2918.75 195.276 2916.76 197.961 Q2914.77 200.623 2914.77 205.276 Q2914.77 209.929 2916.74 212.614 Q2918.73 215.276 2922.18 215.276 Q2925.58 215.276 2927.57 212.591 Q2929.56 209.906 2929.56 205.276 Q2929.56 200.67 2927.57 197.985 Q2925.58 195.276 2922.18 195.276 M2922.18 191.665 Q2927.73 191.665 2930.9 195.276 Q2934.08 198.887 2934.08 205.276 Q2934.08 211.642 2930.9 215.276 Q2927.73 218.887 2922.18 218.887 Q2916.6 218.887 2913.43 215.276 Q2910.28 211.642 2910.28 205.276 Q2910.28 198.887 2913.43 195.276 Q2916.6 191.665 2922.18 191.665 Z" fill="#000000" fill-rule="nonzero" fill-opacity="1" /><path clip-path="url(#clip970)" d="M2962.69 202.568 L2962.69 218.216 L2958.43 218.216 L2958.43 202.707 Q2958.43 199.026 2956.99 197.198 Q2955.56 195.369 2952.69 195.369 Q2949.24 195.369 2947.25 197.568 Q2945.26 199.767 2945.26 203.563 L2945.26 218.216 L2940.97 218.216 L2940.97 192.29 L2945.26 192.29 L2945.26 196.318 Q2946.78 193.98 2948.84 192.823 Q2950.93 191.665 2953.64 191.665 Q2958.1 191.665 2960.4 194.443 Q2962.69 197.198 2962.69 202.568 Z" fill="#000000" fill-rule="nonzero" fill-opacity="1" /><path clip-path="url(#clip970)" d="M2982.96 205.184 Q2977.8 205.184 2975.81 206.364 Q2973.82 207.545 2973.82 210.392 Q2973.82 212.66 2975.3 214.003 Q2976.81 215.322 2979.38 215.322 Q2982.92 215.322 2985.05 212.822 Q2987.2 210.299 2987.2 206.133 L2987.2 205.184 L2982.96 205.184 M2991.46 203.424 L2991.46 218.216 L2987.2 218.216 L2987.2 214.281 Q2985.74 216.642 2983.57 217.776 Q2981.39 218.887 2978.24 218.887 Q2974.26 218.887 2971.9 216.665 Q2969.56 214.42 2969.56 210.67 Q2969.56 206.295 2972.48 204.073 Q2975.42 201.85 2981.23 201.85 L2987.2 201.85 L2987.2 201.434 Q2987.2 198.494 2985.26 196.897 Q2983.33 195.276 2979.84 195.276 Q2977.62 195.276 2975.51 195.809 Q2973.4 196.341 2971.46 197.406 L2971.46 193.471 Q2973.8 192.568 2976 192.128 Q2978.2 191.665 2980.28 191.665 Q2985.9 191.665 2988.68 194.582 Q2991.46 197.498 2991.46 203.424 Z" fill="#000000" fill-rule="nonzero" fill-opacity="1" /><path clip-path="url(#clip970)" d="M3000.23 182.198 L3004.49 182.198 L3004.49 218.216 L3000.23 218.216 L3000.23 182.198 Z" fill="#000000" fill-rule="nonzero" fill-opacity="1" /><path clip-path="url(#clip970)" d="M3040.21 188.262 L3033.87 205.461 L3046.58 205.461 L3040.21 188.262 M3037.57 183.656 L3042.87 183.656 L3056.04 218.216 L3051.18 218.216 L3048.03 209.35 L3032.46 209.35 L3029.31 218.216 L3024.38 218.216 L3037.57 183.656 Z" fill="#000000" fill-rule="nonzero" fill-opacity="1" /><path clip-path="url(#clip970)" d="M3065.77 187.499 L3065.77 200.485 L3071.64 200.485 Q3074.91 200.485 3076.69 198.795 Q3078.47 197.105 3078.47 193.98 Q3078.47 190.878 3076.69 189.188 Q3074.91 187.499 3071.64 187.499 L3065.77 187.499 M3061.09 183.656 L3071.64 183.656 Q3077.45 183.656 3080.42 186.295 Q3083.4 188.911 3083.4 193.98 Q3083.4 199.096 3080.42 201.711 Q3077.45 204.327 3071.64 204.327 L3065.77 204.327 L3065.77 218.216 L3061.09 218.216 L3061.09 183.656 Z" fill="#000000" fill-rule="nonzero" fill-opacity="1" /><path clip-path="url(#clip970)" d="M3089.68 183.656 L3094.35 183.656 L3094.35 218.216 L3089.68 218.216 L3089.68 183.656 Z" fill="#000000" fill-rule="nonzero" fill-opacity="1" /></svg>
