<?xml version="1.0" encoding="utf-8"?>
<svg xmlns="http://www.w3.org/2000/svg" xmlns:xlink="http://www.w3.org/1999/xlink" width="800" height="400" viewBox="0 0 3200 1600">
<defs>
  <clipPath id="clip380">
    <rect x="0" y="0" width="3200" height="1600"/>
  </clipPath>
</defs>
<path clip-path="url(#clip380)" d="M0 1600 L3200 1600 L3200 0 L0 0  Z" fill="#ffffff" fill-rule="evenodd" fill-opacity="1"/>
<defs>
  <clipPath id="clip381">
    <rect x="1846" y="95" width="1307" height="1290"/>
  </clipPath>
</defs>
<path clip-path="url(#clip380)" d="M199.821 1383.95 L1505.79 1383.95 L1505.79 95.3921 L199.821 95.3921  Z" fill="#ffffff" fill-rule="evenodd" fill-opacity="1"/>
<defs>
  <clipPath id="clip382">
    <rect x="199" y="95" width="1307" height="1290"/>
  </clipPath>
</defs>
<polyline clip-path="url(#clip382)" style="stroke:#000000; stroke-linecap:round; stroke-linejoin:round; stroke-width:2; stroke-opacity:0.1; fill:none" points="199.821,1383.95 199.821,95.3921 "/>
<polyline clip-path="url(#clip382)" style="stroke:#000000; stroke-linecap:round; stroke-linejoin:round; stroke-width:2; stroke-opacity:0.1; fill:none" points="526.313,1383.95 526.313,95.3921 "/>
<polyline clip-path="url(#clip382)" style="stroke:#000000; stroke-linecap:round; stroke-linejoin:round; stroke-width:2; stroke-opacity:0.1; fill:none" points="852.805,1383.95 852.805,95.3921 "/>
<polyline clip-path="url(#clip382)" style="stroke:#000000; stroke-linecap:round; stroke-linejoin:round; stroke-width:2; stroke-opacity:0.1; fill:none" points="1179.3,1383.95 1179.3,95.3921 "/>
<polyline clip-path="url(#clip382)" style="stroke:#000000; stroke-linecap:round; stroke-linejoin:round; stroke-width:2; stroke-opacity:0.1; fill:none" points="1505.79,1383.95 1505.79,95.3921 "/>
<polyline clip-path="url(#clip382)" style="stroke:#000000; stroke-linecap:round; stroke-linejoin:round; stroke-width:2; stroke-opacity:0.1; fill:none" points="199.821,1347.48 1505.79,1347.48 "/>
<polyline clip-path="url(#clip382)" style="stroke:#000000; stroke-linecap:round; stroke-linejoin:round; stroke-width:2; stroke-opacity:0.1; fill:none" points="199.821,993.748 1505.79,993.748 "/>
<polyline clip-path="url(#clip382)" style="stroke:#000000; stroke-linecap:round; stroke-linejoin:round; stroke-width:2; stroke-opacity:0.1; fill:none" points="199.821,640.018 1505.79,640.018 "/>
<polyline clip-path="url(#clip382)" style="stroke:#000000; stroke-linecap:round; stroke-linejoin:round; stroke-width:2; stroke-opacity:0.1; fill:none" points="199.821,286.287 1505.79,286.287 "/>
<polyline clip-path="url(#clip380)" style="stroke:#000000; stroke-linecap:round; stroke-linejoin:round; stroke-width:4; stroke-opacity:1; fill:none" points="199.821,1383.95 1505.79,1383.95 "/>
<polyline clip-path="url(#clip380)" style="stroke:#000000; stroke-linecap:round; stroke-linejoin:round; stroke-width:4; stroke-opacity:1; fill:none" points="199.821,1383.95 199.821,1365.05 "/>
<polyline clip-path="url(#clip380)" style="stroke:#000000; stroke-linecap:round; stroke-linejoin:round; stroke-width:4; stroke-opacity:1; fill:none" points="526.313,1383.95 526.313,1365.05 "/>
<polyline clip-path="url(#clip380)" style="stroke:#000000; stroke-linecap:round; stroke-linejoin:round; stroke-width:4; stroke-opacity:1; fill:none" points="852.805,1383.95 852.805,1365.05 "/>
<polyline clip-path="url(#clip380)" style="stroke:#000000; stroke-linecap:round; stroke-linejoin:round; stroke-width:4; stroke-opacity:1; fill:none" points="1179.3,1383.95 1179.3,1365.05 "/>
<polyline clip-path="url(#clip380)" style="stroke:#000000; stroke-linecap:round; stroke-linejoin:round; stroke-width:4; stroke-opacity:1; fill:none" points="1505.79,1383.95 1505.79,1365.05 "/>
<path clip-path="url(#clip380)" d="M177.206 1421.27 Q173.595 1421.27 171.766 1424.83 Q169.96 1428.37 169.96 1435.5 Q169.96 1442.61 171.766 1446.17 Q173.595 1449.72 177.206 1449.72 Q180.84 1449.72 182.645 1446.17 Q184.474 1442.61 184.474 1435.5 Q184.474 1428.37 182.645 1424.83 Q180.84 1421.27 177.206 1421.27 M177.206 1417.56 Q183.016 1417.56 186.071 1422.17 Q189.15 1426.75 189.15 1435.5 Q189.15 1444.23 186.071 1448.84 Q183.016 1453.42 177.206 1453.42 Q171.395 1453.42 168.317 1448.84 Q165.261 1444.23 165.261 1435.5 Q165.261 1426.75 168.317 1422.17 Q171.395 1417.56 177.206 1417.56 Z" fill="#000000" fill-rule="nonzero" fill-opacity="1" /><path clip-path="url(#clip380)" d="M197.368 1446.87 L202.252 1446.87 L202.252 1452.75 L197.368 1452.75 L197.368 1446.87 Z" fill="#000000" fill-rule="nonzero" fill-opacity="1" /><path clip-path="url(#clip380)" d="M222.437 1421.27 Q218.826 1421.27 216.997 1424.83 Q215.192 1428.37 215.192 1435.5 Q215.192 1442.61 216.997 1446.17 Q218.826 1449.72 222.437 1449.72 Q226.071 1449.72 227.877 1446.17 Q229.705 1442.61 229.705 1435.5 Q229.705 1428.37 227.877 1424.83 Q226.071 1421.27 222.437 1421.27 M222.437 1417.56 Q228.247 1417.56 231.303 1422.17 Q234.381 1426.75 234.381 1435.5 Q234.381 1444.23 231.303 1448.84 Q228.247 1453.42 222.437 1453.42 Q216.627 1453.42 213.548 1448.84 Q210.493 1444.23 210.493 1435.5 Q210.493 1426.75 213.548 1422.17 Q216.627 1417.56 222.437 1417.56 Z" fill="#000000" fill-rule="nonzero" fill-opacity="1" /><path clip-path="url(#clip380)" d="M504.195 1421.27 Q500.584 1421.27 498.755 1424.83 Q496.95 1428.37 496.95 1435.5 Q496.95 1442.61 498.755 1446.17 Q500.584 1449.72 504.195 1449.72 Q507.829 1449.72 509.635 1446.17 Q511.464 1442.61 511.464 1435.5 Q511.464 1428.37 509.635 1424.83 Q507.829 1421.27 504.195 1421.27 M504.195 1417.56 Q510.005 1417.56 513.061 1422.17 Q516.14 1426.75 516.14 1435.5 Q516.14 1444.23 513.061 1448.84 Q510.005 1453.42 504.195 1453.42 Q498.385 1453.42 495.306 1448.84 Q492.251 1444.23 492.251 1435.5 Q492.251 1426.75 495.306 1422.17 Q498.385 1417.56 504.195 1417.56 Z" fill="#000000" fill-rule="nonzero" fill-opacity="1" /><path clip-path="url(#clip380)" d="M524.357 1446.87 L529.241 1446.87 L529.241 1452.75 L524.357 1452.75 L524.357 1446.87 Z" fill="#000000" fill-rule="nonzero" fill-opacity="1" /><path clip-path="url(#clip380)" d="M539.473 1418.19 L557.829 1418.19 L557.829 1422.12 L543.755 1422.12 L543.755 1430.6 Q544.774 1430.25 545.792 1430.09 Q546.811 1429.9 547.829 1429.9 Q553.616 1429.9 556.996 1433.07 Q560.375 1436.24 560.375 1441.66 Q560.375 1447.24 556.903 1450.34 Q553.431 1453.42 547.112 1453.42 Q544.936 1453.42 542.667 1453.05 Q540.422 1452.68 538.014 1451.94 L538.014 1447.24 Q540.098 1448.37 542.32 1448.93 Q544.542 1449.48 547.019 1449.48 Q551.024 1449.48 553.362 1447.38 Q555.7 1445.27 555.7 1441.66 Q555.7 1438.05 553.362 1435.94 Q551.024 1433.84 547.019 1433.84 Q545.144 1433.84 543.269 1434.25 Q541.417 1434.67 539.473 1435.55 L539.473 1418.19 Z" fill="#000000" fill-rule="nonzero" fill-opacity="1" /><path clip-path="url(#clip380)" d="M819.958 1448.81 L827.597 1448.81 L827.597 1422.45 L819.287 1424.11 L819.287 1419.85 L827.55 1418.19 L832.226 1418.19 L832.226 1448.81 L839.865 1448.81 L839.865 1452.75 L819.958 1452.75 L819.958 1448.81 Z" fill="#000000" fill-rule="nonzero" fill-opacity="1" /><path clip-path="url(#clip380)" d="M849.31 1446.87 L854.194 1446.87 L854.194 1452.75 L849.31 1452.75 L849.31 1446.87 Z" fill="#000000" fill-rule="nonzero" fill-opacity="1" /><path clip-path="url(#clip380)" d="M874.379 1421.27 Q870.768 1421.27 868.939 1424.83 Q867.134 1428.37 867.134 1435.5 Q867.134 1442.61 868.939 1446.17 Q870.768 1449.72 874.379 1449.72 Q878.013 1449.72 879.819 1446.17 Q881.647 1442.61 881.647 1435.5 Q881.647 1428.37 879.819 1424.83 Q878.013 1421.27 874.379 1421.27 M874.379 1417.56 Q880.189 1417.56 883.245 1422.17 Q886.323 1426.75 886.323 1435.5 Q886.323 1444.23 883.245 1448.84 Q880.189 1453.42 874.379 1453.42 Q868.569 1453.42 865.49 1448.84 Q862.435 1444.23 862.435 1435.5 Q862.435 1426.75 865.49 1422.17 Q868.569 1417.56 874.379 1417.56 Z" fill="#000000" fill-rule="nonzero" fill-opacity="1" /><path clip-path="url(#clip380)" d="M1146.95 1448.81 L1154.59 1448.81 L1154.59 1422.45 L1146.28 1424.11 L1146.28 1419.85 L1154.54 1418.19 L1159.22 1418.19 L1159.22 1448.81 L1166.85 1448.81 L1166.85 1452.75 L1146.95 1452.75 L1146.95 1448.81 Z" fill="#000000" fill-rule="nonzero" fill-opacity="1" /><path clip-path="url(#clip380)" d="M1176.3 1446.87 L1181.18 1446.87 L1181.18 1452.75 L1176.3 1452.75 L1176.3 1446.87 Z" fill="#000000" fill-rule="nonzero" fill-opacity="1" /><path clip-path="url(#clip380)" d="M1191.41 1418.19 L1209.77 1418.19 L1209.77 1422.12 L1195.7 1422.12 L1195.7 1430.6 Q1196.72 1430.25 1197.73 1430.09 Q1198.75 1429.9 1199.77 1429.9 Q1205.56 1429.9 1208.94 1433.07 Q1212.32 1436.24 1212.32 1441.66 Q1212.32 1447.24 1208.85 1450.34 Q1205.37 1453.42 1199.05 1453.42 Q1196.88 1453.42 1194.61 1453.05 Q1192.36 1452.68 1189.96 1451.94 L1189.96 1447.24 Q1192.04 1448.37 1194.26 1448.93 Q1196.48 1449.48 1198.96 1449.48 Q1202.97 1449.48 1205.3 1447.38 Q1207.64 1445.27 1207.64 1441.66 Q1207.64 1438.05 1205.3 1435.94 Q1202.97 1433.84 1198.96 1433.84 Q1197.09 1433.84 1195.21 1434.25 Q1193.36 1434.67 1191.41 1435.55 L1191.41 1418.19 Z" fill="#000000" fill-rule="nonzero" fill-opacity="1" /><path clip-path="url(#clip380)" d="M1477.03 1448.81 L1493.35 1448.81 L1493.35 1452.75 L1471.4 1452.75 L1471.4 1448.81 Q1474.06 1446.06 1478.65 1441.43 Q1483.25 1436.78 1484.43 1435.43 Q1486.68 1432.91 1487.56 1431.17 Q1488.46 1429.41 1488.46 1427.72 Q1488.46 1424.97 1486.52 1423.23 Q1484.6 1421.5 1481.49 1421.5 Q1479.3 1421.5 1476.84 1422.26 Q1474.41 1423.03 1471.63 1424.58 L1471.63 1419.85 Q1474.46 1418.72 1476.91 1418.14 Q1479.37 1417.56 1481.4 1417.56 Q1486.77 1417.56 1489.97 1420.25 Q1493.16 1422.93 1493.16 1427.42 Q1493.16 1429.55 1492.35 1431.47 Q1491.56 1433.37 1489.46 1435.97 Q1488.88 1436.64 1485.78 1439.85 Q1482.68 1443.05 1477.03 1448.81 Z" fill="#000000" fill-rule="nonzero" fill-opacity="1" /><path clip-path="url(#clip380)" d="M1503.16 1446.87 L1508.05 1446.87 L1508.05 1452.75 L1503.16 1452.75 L1503.16 1446.87 Z" fill="#000000" fill-rule="nonzero" fill-opacity="1" /><path clip-path="url(#clip380)" d="M1528.23 1421.27 Q1524.62 1421.27 1522.79 1424.83 Q1520.99 1428.37 1520.99 1435.5 Q1520.99 1442.61 1522.79 1446.17 Q1524.62 1449.72 1528.23 1449.72 Q1531.86 1449.72 1533.67 1446.17 Q1535.5 1442.61 1535.5 1435.5 Q1535.5 1428.37 1533.67 1424.83 Q1531.86 1421.27 1528.23 1421.27 M1528.23 1417.56 Q1534.04 1417.56 1537.1 1422.17 Q1540.18 1426.75 1540.18 1435.5 Q1540.18 1444.23 1537.1 1448.84 Q1534.04 1453.42 1528.23 1453.42 Q1522.42 1453.42 1519.34 1448.84 Q1516.29 1444.23 1516.29 1435.5 Q1516.29 1426.75 1519.34 1422.17 Q1522.42 1417.56 1528.23 1417.56 Z" fill="#000000" fill-rule="nonzero" fill-opacity="1" /><path clip-path="url(#clip380)" d="M851.951 1494.02 L851.951 1503.22 L862.918 1503.22 L862.918 1507.36 L851.951 1507.36 L851.951 1524.95 Q851.951 1528.91 853.022 1530.04 Q854.121 1531.17 857.449 1531.17 L862.918 1531.17 L862.918 1535.63 L857.449 1535.63 Q851.286 1535.63 848.942 1533.34 Q846.598 1531.03 846.598 1524.95 L846.598 1507.36 L842.692 1507.36 L842.692 1503.22 L846.598 1503.22 L846.598 1494.02 L851.951 1494.02 Z" fill="#000000" fill-rule="nonzero" fill-opacity="1" /><polyline clip-path="url(#clip380)" style="stroke:#000000; stroke-linecap:round; stroke-linejoin:round; stroke-width:4; stroke-opacity:1; fill:none" points="199.821,1383.95 199.821,95.3921 "/>
<polyline clip-path="url(#clip380)" style="stroke:#000000; stroke-linecap:round; stroke-linejoin:round; stroke-width:4; stroke-opacity:1; fill:none" points="199.821,1347.48 218.719,1347.48 "/>
<polyline clip-path="url(#clip380)" style="stroke:#000000; stroke-linecap:round; stroke-linejoin:round; stroke-width:4; stroke-opacity:1; fill:none" points="199.821,993.748 218.719,993.748 "/>
<polyline clip-path="url(#clip380)" style="stroke:#000000; stroke-linecap:round; stroke-linejoin:round; stroke-width:4; stroke-opacity:1; fill:none" points="199.821,640.018 218.719,640.018 "/>
<polyline clip-path="url(#clip380)" style="stroke:#000000; stroke-linecap:round; stroke-linejoin:round; stroke-width:4; stroke-opacity:1; fill:none" points="199.821,286.287 218.719,286.287 "/>
<path clip-path="url(#clip380)" d="M135.502 1360.82 L151.821 1360.82 L151.821 1364.76 L129.877 1364.76 L129.877 1360.82 Q132.539 1358.07 137.122 1353.44 Q141.729 1348.79 142.909 1347.44 Q145.155 1344.92 146.034 1343.19 Q146.937 1341.43 146.937 1339.74 Q146.937 1336.98 144.993 1335.25 Q143.071 1333.51 139.969 1333.51 Q137.77 1333.51 135.317 1334.27 Q132.886 1335.04 130.108 1336.59 L130.108 1331.87 Q132.932 1330.73 135.386 1330.15 Q137.84 1329.57 139.877 1329.57 Q145.247 1329.57 148.442 1332.26 Q151.636 1334.94 151.636 1339.44 Q151.636 1341.56 150.826 1343.49 Q150.039 1345.38 147.932 1347.98 Q147.354 1348.65 144.252 1351.87 Q141.15 1355.06 135.502 1360.82 Z" fill="#000000" fill-rule="nonzero" fill-opacity="1" /><path clip-path="url(#clip380)" d="M144.692 992.394 Q148.048 993.112 149.923 995.38 Q151.821 997.649 151.821 1000.98 Q151.821 1006.1 148.303 1008.9 Q144.784 1011.7 138.303 1011.7 Q136.127 1011.7 133.812 1011.26 Q131.52 1010.84 129.067 1009.99 L129.067 1005.47 Q131.011 1006.61 133.326 1007.19 Q135.641 1007.76 138.164 1007.76 Q142.562 1007.76 144.854 1006.03 Q147.169 1004.29 147.169 1000.98 Q147.169 997.927 145.016 996.214 Q142.886 994.478 139.067 994.478 L135.039 994.478 L135.039 990.635 L139.252 990.635 Q142.701 990.635 144.53 989.269 Q146.358 987.88 146.358 985.288 Q146.358 982.626 144.46 981.214 Q142.585 979.779 139.067 979.779 Q137.145 979.779 134.946 980.195 Q132.747 980.612 130.108 981.491 L130.108 977.325 Q132.77 976.584 135.085 976.214 Q137.423 975.843 139.483 975.843 Q144.807 975.843 147.909 978.274 Q151.011 980.681 151.011 984.802 Q151.011 987.672 149.368 989.663 Q147.724 991.63 144.692 992.394 Z" fill="#000000" fill-rule="nonzero" fill-opacity="1" /><path clip-path="url(#clip380)" d="M142.238 626.812 L130.432 645.261 L142.238 645.261 L142.238 626.812 M141.011 622.738 L146.891 622.738 L146.891 645.261 L151.821 645.261 L151.821 649.149 L146.891 649.149 L146.891 657.298 L142.238 657.298 L142.238 649.149 L126.636 649.149 L126.636 644.636 L141.011 622.738 Z" fill="#000000" fill-rule="nonzero" fill-opacity="1" /><path clip-path="url(#clip380)" d="M130.919 269.007 L149.275 269.007 L149.275 272.942 L135.201 272.942 L135.201 281.414 Q136.22 281.067 137.238 280.905 Q138.257 280.72 139.275 280.72 Q145.062 280.72 148.442 283.891 Q151.821 287.062 151.821 292.479 Q151.821 298.057 148.349 301.159 Q144.877 304.238 138.557 304.238 Q136.382 304.238 134.113 303.868 Q131.868 303.497 129.46 302.757 L129.46 298.057 Q131.544 299.192 133.766 299.747 Q135.988 300.303 138.465 300.303 Q142.469 300.303 144.807 298.196 Q147.145 296.09 147.145 292.479 Q147.145 288.868 144.807 286.761 Q142.469 284.655 138.465 284.655 Q136.59 284.655 134.715 285.071 Q132.863 285.488 130.919 286.368 L130.919 269.007 Z" fill="#000000" fill-rule="nonzero" fill-opacity="1" /><path clip-path="url(#clip380)" d="M33.269 724.566 L49.0386 736.285 L65.6762 723.958 L65.6762 730.237 L52.9448 739.67 L65.6762 749.103 L65.6762 755.382 L48.7203 742.795 L33.269 754.311 L33.269 748.032 L44.8141 739.438 L33.269 730.845 L33.269 724.566 Z" fill="#000000" fill-rule="nonzero" fill-opacity="1" /><path clip-path="url(#clip380)" d="M803.963 20.3876 L803.963 25.4223 Q801.706 24.2649 799.275 23.6862 Q796.845 23.1075 794.24 23.1075 Q790.276 23.1075 788.28 24.3228 Q786.312 25.5381 786.312 27.9686 Q786.312 29.8204 787.73 30.891 Q789.148 31.9327 793.43 32.8876 L795.253 33.2926 Q800.924 34.5079 803.297 36.7359 Q805.699 38.935 805.699 42.8991 Q805.699 47.4129 802.111 50.046 Q798.552 52.6791 792.302 52.6791 Q789.698 52.6791 786.862 52.1583 Q784.055 51.6664 780.93 50.6537 L780.93 45.156 Q783.882 46.6896 786.746 47.4708 Q789.611 48.2231 792.418 48.2231 Q796.179 48.2231 798.205 46.95 Q800.23 45.6479 800.23 43.3042 Q800.23 41.134 798.754 39.9766 Q797.308 38.8192 792.36 37.7486 L790.508 37.3146 Q785.56 36.273 783.361 34.1318 Q781.162 31.9616 781.162 28.2001 Q781.162 23.6283 784.403 21.1399 Q787.643 18.6515 793.604 18.6515 Q796.555 18.6515 799.159 19.0855 Q801.764 19.5196 803.963 20.3876 Z" fill="#000000" fill-rule="nonzero" fill-opacity="1" /><path clip-path="url(#clip380)" d="M819.443 10.2314 L819.443 19.4328 L830.409 19.4328 L830.409 23.5705 L819.443 23.5705 L819.443 41.163 Q819.443 45.1271 820.513 46.2555 Q821.613 47.384 824.941 47.384 L830.409 47.384 L830.409 51.84 L824.941 51.84 Q818.777 51.84 816.434 49.5541 Q814.09 47.2393 814.09 41.163 L814.09 23.5705 L810.184 23.5705 L810.184 19.4328 L814.09 19.4328 L814.09 10.2314 L819.443 10.2314 Z" fill="#000000" fill-rule="nonzero" fill-opacity="1" /><path clip-path="url(#clip380)" d="M852.139 35.5496 Q845.687 35.5496 843.199 37.0253 Q840.71 38.501 840.71 42.06 Q840.71 44.8956 842.562 46.5738 Q844.443 48.2231 847.655 48.2231 Q852.082 48.2231 854.744 45.0981 Q857.435 41.9442 857.435 36.7359 L857.435 35.5496 L852.139 35.5496 M862.759 33.3505 L862.759 51.84 L857.435 51.84 L857.435 46.921 Q855.612 49.8724 852.892 51.2902 Q850.172 52.6791 846.237 52.6791 Q841.26 52.6791 838.309 49.9014 Q835.386 47.0947 835.386 42.4072 Q835.386 36.9385 839.032 34.1607 Q842.707 31.3829 849.969 31.3829 L857.435 31.3829 L857.435 30.8621 Q857.435 27.1874 855.004 25.1908 Q852.602 23.1654 848.233 23.1654 Q845.455 23.1654 842.822 23.8309 Q840.189 24.4964 837.759 25.8274 L837.759 20.9085 Q840.681 19.78 843.43 19.2302 Q846.179 18.6515 848.783 18.6515 Q855.814 18.6515 859.286 22.2973 Q862.759 25.9431 862.759 33.3505 Z" fill="#000000" fill-rule="nonzero" fill-opacity="1" /><path clip-path="url(#clip380)" d="M878.991 10.2314 L878.991 19.4328 L889.958 19.4328 L889.958 23.5705 L878.991 23.5705 L878.991 41.163 Q878.991 45.1271 880.062 46.2555 Q881.161 47.384 884.489 47.384 L889.958 47.384 L889.958 51.84 L884.489 51.84 Q878.326 51.84 875.982 49.5541 Q873.638 47.2393 873.638 41.163 L873.638 23.5705 L869.732 23.5705 L869.732 19.4328 L873.638 19.4328 L873.638 10.2314 L878.991 10.2314 Z" fill="#000000" fill-rule="nonzero" fill-opacity="1" /><path clip-path="url(#clip380)" d="M924.68 34.3054 L924.68 36.9095 L900.201 36.9095 Q900.548 42.4072 903.499 45.3007 Q906.479 48.1653 911.775 48.1653 Q914.842 48.1653 917.706 47.4129 Q920.6 46.6606 923.435 45.156 L923.435 50.1907 Q920.571 51.406 917.562 52.0425 Q914.552 52.6791 911.456 52.6791 Q903.702 52.6791 899.159 48.1653 Q894.645 43.6514 894.645 35.9547 Q894.645 27.9975 898.927 23.339 Q903.239 18.6515 910.53 18.6515 Q917.07 18.6515 920.86 22.876 Q924.68 27.0716 924.68 34.3054 M919.356 32.7429 Q919.298 28.3737 916.896 25.7695 Q914.523 23.1654 910.588 23.1654 Q906.132 23.1654 903.441 25.6827 Q900.779 28.2001 900.374 32.7718 L919.356 32.7429 Z" fill="#000000" fill-rule="nonzero" fill-opacity="1" /><polyline clip-path="url(#clip382)" style="stroke:#000000; stroke-linecap:round; stroke-linejoin:round; stroke-width:4; stroke-opacity:1; fill:none" stroke-dasharray="16, 10" points="199.821,2672.5 199.821,-1193.16 "/>
<polyline clip-path="url(#clip382)" style="stroke:#000000; stroke-linecap:round; stroke-linejoin:round; stroke-width:4; stroke-opacity:1; fill:none" stroke-dasharray="16, 10" points="1505.79,2672.5 1505.79,-1193.16 "/>
<polyline clip-path="url(#clip382)" style="stroke:#009af9; stroke-linecap:round; stroke-linejoin:round; stroke-width:8; stroke-opacity:1; fill:none" points="199.821,1347.48 205.045,1344.66 210.269,1341.84 215.493,1339 220.717,1336.15 225.941,1333.29 231.164,1330.41 236.388,1327.53 241.612,1324.63 246.836,1321.73 252.06,1318.81 257.284,1315.88 262.508,1312.93 267.732,1309.98 272.955,1307.01 278.179,1304.04 283.403,1301.05 288.627,1298.05 293.851,1295.03 299.075,1292.01 304.299,1288.97 309.523,1285.92 314.746,1282.86 319.97,1279.79 325.194,1276.7 330.418,1273.6 335.642,1270.49 340.866,1267.37 346.09,1264.24 351.313,1261.09 356.537,1257.93 361.761,1254.75 366.985,1251.57 372.209,1248.37 377.433,1245.16 382.657,1241.94 387.881,1238.7 393.104,1235.45 398.328,1232.19 403.552,1228.91 408.776,1225.62 414,1222.32 419.224,1219.01 424.448,1215.68 429.672,1212.34 434.895,1208.99 440.119,1205.62 445.343,1202.24 450.567,1198.84 455.791,1195.43 461.015,1192.01 466.239,1188.58 471.462,1185.13 476.686,1181.67 481.91,1178.19 487.134,1174.7 492.358,1171.2 497.582,1167.68 502.806,1164.15 508.03,1160.6 513.253,1157.04 518.477,1153.46 523.701,1149.88 528.925,1146.27 534.149,1142.66 539.373,1139.02 544.597,1135.38 549.821,1131.72 555.044,1128.04 560.268,1124.35 565.492,1120.65 570.716,1116.93 575.94,1113.19 581.164,1109.45 586.388,1105.68 591.611,1101.9 596.835,1098.11 602.059,1094.3 607.283,1090.48 612.507,1086.64 617.731,1082.78 622.955,1078.91 628.179,1075.03 633.402,1071.13 638.626,1067.21 643.85,1063.28 649.074,1059.33 654.298,1055.37 659.522,1051.39 664.746,1047.39 669.97,1043.38 675.193,1039.35 680.417,1035.31 685.641,1031.25 690.865,1027.18 696.089,1023.09 701.313,1018.98 706.537,1014.85 711.76,1010.71 716.984,1006.56 722.208,1002.38 727.432,998.193 732.656,993.986 737.88,989.763 743.104,985.523 748.328,981.265 753.551,976.991 758.775,972.7 763.999,968.392 769.223,964.067 774.447,959.724 779.671,955.364 784.895,950.987 790.119,946.592 795.342,942.18 800.566,937.75 805.79,933.303 811.014,928.838 816.238,924.355 821.462,919.854 826.686,915.336 831.909,910.799 837.133,906.244 842.357,901.672 847.581,897.081 852.805,892.471 858.029,887.844 863.253,883.198 868.477,878.533 873.7,873.85 878.924,869.148 884.148,864.428 889.372,859.689 894.596,854.93 899.82,850.153 905.044,845.357 910.268,840.542 915.491,835.708 920.715,830.854 925.939,825.981 931.163,821.089 936.387,816.177 941.611,811.246 946.835,806.295 952.058,801.324 957.282,796.334 962.506,791.323 967.73,786.293 972.954,781.243 978.178,776.172 983.402,771.082 988.626,765.971 993.849,760.84 999.073,755.688 1004.3,750.516 1009.52,745.323 1014.74,740.11 1019.97,734.876 1025.19,729.621 1030.42,724.345 1035.64,719.048 1040.86,713.73 1046.09,708.391 1051.31,703.03 1056.54,697.649 1061.76,692.246 1066.98,686.821 1072.21,681.375 1077.43,675.907 1082.66,670.417 1087.88,664.905 1093.1,659.372 1098.33,653.816 1103.55,648.239 1108.77,642.639 1114,637.016 1119.22,631.372 1124.45,625.705 1129.67,620.015 1134.89,614.303 1140.12,608.568 1145.34,602.81 1150.57,597.03 1155.79,591.226 1161.01,585.399 1166.24,579.549 1171.46,573.676 1176.68,567.779 1181.91,561.859 1187.13,555.915 1192.36,549.948 1197.58,543.957 1202.8,537.942 1208.03,531.903 1213.25,525.84 1218.48,519.753 1223.7,513.641 1228.92,507.506 1234.15,501.345 1239.37,495.161 1244.6,488.952 1249.82,482.718 1255.04,476.459 1260.27,470.175 1265.49,463.866 1270.71,457.533 1275.94,451.173 1281.16,444.789 1286.39,438.379 1291.61,431.944 1296.83,425.483 1302.06,418.997 1307.28,412.484 1312.51,405.946 1317.73,399.381 1322.95,392.791 1328.18,386.174 1333.4,379.531 1338.62,372.861 1343.85,366.165 1349.07,359.442 1354.3,352.693 1359.52,345.917 1364.74,339.113 1369.97,332.283 1375.19,325.425 1380.42,318.54 1385.64,311.628 1390.86,304.688 1396.09,297.72 1401.31,290.725 1406.54,283.702 1411.76,276.651 1416.98,269.572 1422.21,262.465 1427.43,255.329 1432.65,248.165 1437.88,240.973 1443.1,233.751 1448.33,226.502 1453.55,219.223 1458.77,211.915 1464,204.578 1469.22,197.212 1474.45,189.817 1479.67,182.392 1484.89,174.938 1490.12,167.454 1495.34,159.94 1500.56,152.396 1505.79,144.823 "/>
<polyline clip-path="url(#clip382)" style="stroke:#000000; stroke-linecap:round; stroke-linejoin:round; stroke-width:8; stroke-opacity:1; fill:none" stroke-dasharray="4, 8" points="199.821,1347.48 205.045,1337.54 210.269,1327.67 215.493,1317.92 220.717,1308.38 225.941,1299.11 231.164,1290.16 236.388,1281.61 241.612,1273.52 246.836,1265.92 252.06,1258.87 257.284,1252.42 262.508,1246.59 267.732,1241.42 272.955,1236.93 278.179,1233.13 283.403,1230.03 288.627,1227.63 293.851,1225.92 299.075,1224.9 304.299,1224.54 309.523,1224.82 314.746,1225.69 319.97,1227.13 325.194,1229.08 330.418,1231.49 335.642,1234.31 340.866,1237.48 346.09,1240.93 351.313,1244.6 356.537,1248.41 361.761,1252.31 366.985,1256.2 372.209,1260.03 377.433,1263.73 382.657,1267.21 387.881,1270.42 393.104,1273.29 398.328,1275.75 403.552,1277.75 408.776,1279.24 414,1280.16 419.224,1280.48 424.448,1280.15 429.672,1279.15 434.895,1277.45 440.119,1275.03 445.343,1271.89 450.567,1268.02 455.791,1263.43 461.015,1258.13 466.239,1252.13 471.462,1245.47 476.686,1238.17 481.91,1230.27 487.134,1221.82 492.358,1212.86 497.582,1203.46 502.806,1193.67 508.03,1183.55 513.253,1173.17 518.477,1162.6 523.701,1151.91 528.925,1141.17 534.149,1130.45 539.373,1119.82 544.597,1109.35 549.821,1099.12 555.044,1089.18 560.268,1079.61 565.492,1070.45 570.716,1061.77 575.94,1053.61 581.164,1046.01 586.388,1039.03 591.611,1032.68 596.835,1027 602.059,1022 607.283,1017.7 612.507,1014.09 617.731,1011.18 622.955,1008.96 628.179,1007.4 633.402,1006.5 638.626,1006.2 643.85,1006.48 649.074,1007.3 654.298,1008.6 659.522,1010.34 664.746,1012.45 669.97,1014.87 675.193,1017.54 680.417,1020.39 685.641,1023.34 690.865,1026.34 696.089,1029.3 701.313,1032.15 706.537,1034.83 711.76,1037.26 716.984,1039.37 722.208,1041.12 727.432,1042.42 732.656,1043.23 737.88,1043.5 743.104,1043.18 748.328,1042.22 753.551,1040.61 758.775,1038.3 763.999,1035.28 769.223,1031.54 774.447,1027.07 779.671,1021.86 784.895,1015.93 790.119,1009.3 795.342,1001.98 800.566,994.002 805.79,985.404 811.014,976.227 816.238,966.517 821.462,956.326 826.686,945.712 831.909,934.736 837.133,923.462 842.357,911.956 847.581,900.29 852.805,888.534 858.029,876.759 863.253,865.036 868.477,853.438 873.7,842.033 878.924,830.889 884.148,820.069 889.372,809.636 894.596,799.646 899.82,790.151 905.044,781.199 910.268,772.83 915.491,765.081 920.715,757.979 925.939,751.547 931.163,745.801 936.387,740.747 941.611,736.388 946.835,732.716 952.058,729.718 957.282,727.374 962.506,725.656 967.73,724.53 972.954,723.957 978.178,723.89 983.402,724.278 988.626,725.066 993.849,726.192 999.073,727.594 1004.3,729.204 1009.52,730.954 1014.74,732.772 1019.97,734.586 1025.19,736.326 1030.42,737.92 1035.64,739.297 1040.86,740.389 1046.09,741.132 1051.31,741.463 1056.54,741.323 1061.76,740.66 1066.98,739.425 1072.21,737.574 1077.43,735.071 1082.66,731.884 1087.88,727.991 1093.1,723.374 1098.33,718.022 1103.55,711.934 1108.77,705.113 1114,697.572 1119.22,689.328 1124.45,680.407 1129.67,670.842 1134.89,660.671 1140.12,649.937 1145.34,638.691 1150.57,626.988 1155.79,614.886 1161.01,602.448 1166.24,589.741 1171.46,576.832 1176.68,563.791 1181.91,550.692 1187.13,537.603 1192.36,524.599 1197.58,511.747 1202.8,499.118 1208.03,486.776 1213.25,474.785 1218.48,463.204 1223.7,452.087 1228.92,441.484 1234.15,431.439 1239.37,421.992 1244.6,413.172 1249.82,405.007 1255.04,397.515 1260.27,390.708 1265.49,384.589 1270.71,379.156 1275.94,374.399 1281.16,370.302 1286.39,366.839 1291.61,363.98 1296.83,361.689 1302.06,359.922 1307.28,358.631 1312.51,357.761 1317.73,357.256 1322.95,357.052 1328.18,357.084 1333.4,357.285 1338.62,357.583 1343.85,357.908 1349.07,358.189 1354.3,358.352 1359.52,358.328 1364.74,358.046 1369.97,357.442 1375.19,356.45 1380.42,355.009 1385.64,353.066 1390.86,350.567 1396.09,347.468 1401.31,343.727 1406.54,339.312 1411.76,334.195 1416.98,328.354 1422.21,321.778 1427.43,314.459 1432.65,306.398 1437.88,297.602 1443.1,288.088 1448.33,277.878 1453.55,266.999 1458.77,255.487 1464,243.384 1469.22,230.737 1474.45,217.597 1479.67,204.022 1484.89,190.073 1490.12,175.814 1495.34,161.313 1500.56,146.638 1505.79,131.861 "/>
<polyline clip-path="url(#clip382)" style="stroke:#ff0000; stroke-linecap:round; stroke-linejoin:round; stroke-width:8; stroke-opacity:1; fill:none" stroke-dasharray="32, 20" points="199.821,1347.48 206.384,1343.94 212.947,1340.38 219.509,1336.81 226.072,1333.21 232.635,1329.6 239.197,1325.97 245.76,1322.32 252.322,1318.66 258.885,1314.98 265.448,1311.27 272.01,1307.55 278.573,1303.81 285.136,1300.05 291.698,1296.28 298.261,1292.48 304.824,1288.67 311.386,1284.83 317.949,1280.98 324.512,1277.1 331.074,1273.21 337.637,1269.3 344.2,1265.37 350.762,1261.42 357.325,1257.45 363.888,1253.46 370.45,1249.45 377.013,1245.42 383.575,1241.37 390.138,1237.3 396.701,1233.21 403.263,1229.09 409.826,1224.96 416.389,1220.81 422.951,1216.63 429.514,1212.44 436.077,1208.22 442.639,1203.99 449.202,1199.73 455.765,1195.45 462.327,1191.15 468.89,1186.83 475.453,1182.48 482.015,1178.12 488.578,1173.73 495.141,1169.32 501.703,1164.89 508.266,1160.44 514.828,1155.96 521.391,1151.46 527.954,1146.94 534.516,1142.4 541.079,1137.83 547.642,1133.24 554.204,1128.63 560.767,1124 567.33,1119.34 573.892,1114.66 580.455,1109.95 587.018,1105.23 593.58,1100.47 600.143,1095.7 606.706,1090.9 613.268,1086.07 619.831,1081.23 626.394,1076.35 632.956,1071.46 639.519,1066.54 646.081,1061.59 652.644,1056.62 659.207,1051.63 665.769,1046.61 672.332,1041.56 678.895,1036.49 685.457,1031.39 692.02,1026.27 698.583,1021.12 705.145,1015.95 711.708,1010.75 718.271,1005.53 724.833,1000.28 731.396,995 737.959,989.697 744.521,984.367 751.084,979.01 757.647,973.626 764.209,968.216 770.772,962.778 777.334,957.313 783.897,951.821 790.46,946.302 797.022,940.754 803.585,935.179 810.148,929.577 816.71,923.946 823.273,918.286 829.836,912.599 836.398,906.883 842.961,901.139 849.524,895.366 856.086,889.563 862.649,883.732 869.212,877.872 875.774,871.982 882.337,866.063 888.9,860.114 895.462,854.136 902.025,848.128 908.587,842.089 915.15,836.02 921.713,829.921 928.275,823.792 934.838,817.632 941.401,811.441 947.963,805.219 954.526,798.965 961.089,792.681 967.651,786.365 974.214,780.018 980.777,773.638 987.339,767.227 993.902,760.784 1000.46,754.308 1007.03,747.8 1013.59,741.26 1020.15,734.687 1026.72,728.081 1033.28,721.442 1039.84,714.769 1046.4,708.063 1052.97,701.324 1059.53,694.551 1066.09,687.744 1072.65,680.903 1079.22,674.028 1085.78,667.118 1092.34,660.174 1098.9,653.195 1105.47,646.182 1112.03,639.133 1118.59,632.048 1125.15,624.929 1131.72,617.773 1138.28,610.582 1144.84,603.355 1151.41,596.092 1157.97,588.793 1164.53,581.456 1171.09,574.084 1177.66,566.674 1184.22,559.227 1190.78,551.743 1197.34,544.222 1203.91,536.663 1210.47,529.066 1217.03,521.431 1223.59,513.758 1230.16,506.046 1236.72,498.296 1243.28,490.507 1249.85,482.679 1256.41,474.812 1262.97,466.906 1269.53,458.96 1276.1,450.974 1282.66,442.948 1289.22,434.883 1295.78,426.776 1302.35,418.63 1308.91,410.442 1315.47,402.214 1322.03,393.944 1328.6,385.633 1335.16,377.28 1341.72,368.886 1348.29,360.449 1354.85,351.971 1361.41,343.45 1367.97,334.886 1374.54,326.28 1381.1,317.63 1387.66,308.937 1394.22,300.201 1400.79,291.421 1407.35,282.596 1413.91,273.728 1420.47,264.816 1427.04,255.859 1433.6,246.857 1440.16,237.81 1446.72,228.717 1453.29,219.58 1459.85,210.396 1466.41,201.167 1472.98,191.891 1479.54,182.569 1486.1,173.2 1492.66,163.785 1499.23,154.322 1505.79,144.812 "/>
<path clip-path="url(#clip380)" d="M243.354 345.704 L547.722 345.704 L547.722 138.344 L243.354 138.344  Z" fill="#ffffff" fill-rule="evenodd" fill-opacity="1"/>
<polyline clip-path="url(#clip380)" style="stroke:#000000; stroke-linecap:round; stroke-linejoin:round; stroke-width:4; stroke-opacity:1; fill:none" points="243.354,345.704 547.722,345.704 547.722,138.344 243.354,138.344 243.354,345.704 "/>
<polyline clip-path="url(#clip380)" style="stroke:#009af9; stroke-linecap:round; stroke-linejoin:round; stroke-width:8; stroke-opacity:1; fill:none" points="257.864,190.184 344.929,190.184 "/>
<path clip-path="url(#clip380)" d="M364.115 176.747 L364.115 203.621 L369.764 203.621 Q376.916 203.621 380.226 200.381 Q383.56 197.14 383.56 190.149 Q383.56 183.205 380.226 179.987 Q376.916 176.747 369.764 176.747 L364.115 176.747 M359.44 172.904 L369.046 172.904 Q379.092 172.904 383.791 177.094 Q388.49 181.26 388.49 190.149 Q388.49 199.084 383.768 203.274 Q379.046 207.464 369.046 207.464 L359.44 207.464 L359.44 172.904 Z" fill="#000000" fill-rule="nonzero" fill-opacity="1" /><path clip-path="url(#clip380)" d="M395.759 181.538 L400.018 181.538 L400.018 207.464 L395.759 207.464 L395.759 181.538 M395.759 171.446 L400.018 171.446 L400.018 176.839 L395.759 176.839 L395.759 171.446 Z" fill="#000000" fill-rule="nonzero" fill-opacity="1" /><path clip-path="url(#clip380)" d="M423.953 185.52 Q423.235 185.103 422.379 184.918 Q421.546 184.709 420.527 184.709 Q416.916 184.709 414.972 187.071 Q413.05 189.409 413.05 193.807 L413.05 207.464 L408.768 207.464 L408.768 181.538 L413.05 181.538 L413.05 185.566 Q414.393 183.205 416.546 182.071 Q418.698 180.913 421.777 180.913 Q422.217 180.913 422.749 180.983 Q423.282 181.029 423.93 181.145 L423.953 185.52 Z" fill="#000000" fill-rule="nonzero" fill-opacity="1" /><path clip-path="url(#clip380)" d="M449.555 193.436 L449.555 195.52 L429.972 195.52 Q430.249 199.918 432.61 202.233 Q434.995 204.524 439.231 204.524 Q441.684 204.524 443.976 203.922 Q446.291 203.32 448.559 202.117 L448.559 206.145 Q446.268 207.117 443.86 207.626 Q441.453 208.135 438.976 208.135 Q432.772 208.135 429.138 204.524 Q425.527 200.913 425.527 194.756 Q425.527 188.39 428.953 184.663 Q432.402 180.913 438.235 180.913 Q443.467 180.913 446.499 184.293 Q449.555 187.649 449.555 193.436 M445.296 192.186 Q445.249 188.691 443.328 186.608 Q441.43 184.524 438.282 184.524 Q434.717 184.524 432.564 186.538 Q430.434 188.552 430.11 192.209 L445.296 192.186 Z" fill="#000000" fill-rule="nonzero" fill-opacity="1" /><path clip-path="url(#clip380)" d="M475.203 182.534 L475.203 186.515 Q473.397 185.52 471.569 185.034 Q469.763 184.524 467.911 184.524 Q463.768 184.524 461.476 187.163 Q459.184 189.779 459.184 194.524 Q459.184 199.27 461.476 201.908 Q463.768 204.524 467.911 204.524 Q469.763 204.524 471.569 204.038 Q473.397 203.529 475.203 202.533 L475.203 206.469 Q473.42 207.302 471.499 207.719 Q469.601 208.135 467.448 208.135 Q461.592 208.135 458.143 204.455 Q454.694 200.774 454.694 194.524 Q454.694 188.182 458.166 184.547 Q461.661 180.913 467.726 180.913 Q469.694 180.913 471.569 181.33 Q473.444 181.723 475.203 182.534 Z" fill="#000000" fill-rule="nonzero" fill-opacity="1" /><path clip-path="url(#clip380)" d="M486.823 174.177 L486.823 181.538 L495.596 181.538 L495.596 184.848 L486.823 184.848 L486.823 198.922 Q486.823 202.094 487.68 202.996 Q488.559 203.899 491.221 203.899 L495.596 203.899 L495.596 207.464 L491.221 207.464 Q486.291 207.464 484.416 205.635 Q482.541 203.783 482.541 198.922 L482.541 184.848 L479.416 184.848 L479.416 181.538 L482.541 181.538 L482.541 174.177 L486.823 174.177 Z" fill="#000000" fill-rule="nonzero" fill-opacity="1" /><polyline clip-path="url(#clip380)" style="stroke:#000000; stroke-linecap:round; stroke-linejoin:round; stroke-width:8; stroke-opacity:1; fill:none" stroke-dasharray="4, 8" points="257.864,242.024 344.929,242.024 "/>
<path clip-path="url(#clip380)" d="M364.115 228.587 L364.115 255.461 L369.764 255.461 Q376.916 255.461 380.226 252.221 Q383.56 248.98 383.56 241.989 Q383.56 235.045 380.226 231.827 Q376.916 228.587 369.764 228.587 L364.115 228.587 M359.44 224.744 L369.046 224.744 Q379.092 224.744 383.791 228.934 Q388.49 233.1 388.49 241.989 Q388.49 250.924 383.768 255.114 Q379.046 259.304 369.046 259.304 L359.44 259.304 L359.44 224.744 Z" fill="#000000" fill-rule="nonzero" fill-opacity="1" /><path clip-path="url(#clip380)" d="M407.541 246.272 Q402.379 246.272 400.388 247.452 Q398.398 248.633 398.398 251.48 Q398.398 253.748 399.879 255.091 Q401.384 256.41 403.953 256.41 Q407.495 256.41 409.624 253.91 Q411.777 251.387 411.777 247.221 L411.777 246.272 L407.541 246.272 M416.036 244.512 L416.036 259.304 L411.777 259.304 L411.777 255.369 Q410.319 257.73 408.143 258.864 Q405.967 259.975 402.819 259.975 Q398.837 259.975 396.476 257.753 Q394.138 255.508 394.138 251.758 Q394.138 247.383 397.055 245.161 Q399.995 242.938 405.805 242.938 L411.777 242.938 L411.777 242.522 Q411.777 239.582 409.833 237.985 Q407.911 236.364 404.416 236.364 Q402.194 236.364 400.087 236.897 Q397.981 237.429 396.037 238.494 L396.037 234.559 Q398.374 233.656 400.574 233.216 Q402.773 232.753 404.856 232.753 Q410.481 232.753 413.259 235.67 Q416.036 238.586 416.036 244.512 Z" fill="#000000" fill-rule="nonzero" fill-opacity="1" /><path clip-path="url(#clip380)" d="M429.022 226.017 L429.022 233.378 L437.796 233.378 L437.796 236.688 L429.022 236.688 L429.022 250.762 Q429.022 253.934 429.879 254.836 Q430.759 255.739 433.421 255.739 L437.796 255.739 L437.796 259.304 L433.421 259.304 Q428.49 259.304 426.615 257.475 Q424.74 255.623 424.74 250.762 L424.74 236.688 L421.615 236.688 L421.615 233.378 L424.74 233.378 L424.74 226.017 L429.022 226.017 Z" fill="#000000" fill-rule="nonzero" fill-opacity="1" /><path clip-path="url(#clip380)" d="M455.18 246.272 Q450.018 246.272 448.027 247.452 Q446.036 248.633 446.036 251.48 Q446.036 253.748 447.518 255.091 Q449.022 256.41 451.592 256.41 Q455.133 256.41 457.263 253.91 Q459.416 251.387 459.416 247.221 L459.416 246.272 L455.18 246.272 M463.675 244.512 L463.675 259.304 L459.416 259.304 L459.416 255.369 Q457.957 257.73 455.782 258.864 Q453.606 259.975 450.458 259.975 Q446.476 259.975 444.115 257.753 Q441.777 255.508 441.777 251.758 Q441.777 247.383 444.694 245.161 Q447.633 242.938 453.444 242.938 L459.416 242.938 L459.416 242.522 Q459.416 239.582 457.471 237.985 Q455.55 236.364 452.055 236.364 Q449.833 236.364 447.726 236.897 Q445.62 237.429 443.675 238.494 L443.675 234.559 Q446.013 233.656 448.212 233.216 Q450.411 232.753 452.495 232.753 Q458.12 232.753 460.897 235.67 Q463.675 238.586 463.675 244.512 Z" fill="#000000" fill-rule="nonzero" fill-opacity="1" /><polyline clip-path="url(#clip380)" style="stroke:#ff0000; stroke-linecap:round; stroke-linejoin:round; stroke-width:8; stroke-opacity:1; fill:none" stroke-dasharray="32, 20" points="257.864,293.864 344.929,293.864 "/>
<path clip-path="url(#clip380)" d="M359.44 276.584 L364.115 276.584 L364.115 311.144 L359.44 311.144 L359.44 276.584 Z" fill="#000000" fill-rule="nonzero" fill-opacity="1" /><path clip-path="url(#clip380)" d="M394.787 295.496 L394.787 311.144 L390.527 311.144 L390.527 295.635 Q390.527 291.954 389.092 290.126 Q387.657 288.297 384.787 288.297 Q381.338 288.297 379.347 290.496 Q377.356 292.695 377.356 296.491 L377.356 311.144 L373.074 311.144 L373.074 285.218 L377.356 285.218 L377.356 289.246 Q378.884 286.908 380.944 285.751 Q383.027 284.593 385.736 284.593 Q390.203 284.593 392.495 287.371 Q394.787 290.126 394.787 295.496 Z" fill="#000000" fill-rule="nonzero" fill-opacity="1" /><path clip-path="url(#clip380)" d="M420.342 289.153 L420.342 275.126 L424.601 275.126 L424.601 311.144 L420.342 311.144 L420.342 307.255 Q418.999 309.57 416.939 310.704 Q414.902 311.815 412.032 311.815 Q407.333 311.815 404.37 308.065 Q401.43 304.315 401.43 298.204 Q401.43 292.093 404.37 288.343 Q407.333 284.593 412.032 284.593 Q414.902 284.593 416.939 285.727 Q418.999 286.839 420.342 289.153 M405.828 298.204 Q405.828 302.903 407.749 305.588 Q409.694 308.25 413.073 308.25 Q416.453 308.25 418.398 305.588 Q420.342 302.903 420.342 298.204 Q420.342 293.505 418.398 290.843 Q416.453 288.158 413.073 288.158 Q409.694 288.158 407.749 290.843 Q405.828 293.505 405.828 298.204 Z" fill="#000000" fill-rule="nonzero" fill-opacity="1" /><path clip-path="url(#clip380)" d="M433.374 285.218 L437.634 285.218 L437.634 311.144 L433.374 311.144 L433.374 285.218 M433.374 275.126 L437.634 275.126 L437.634 280.519 L433.374 280.519 L433.374 275.126 Z" fill="#000000" fill-rule="nonzero" fill-opacity="1" /><path clip-path="url(#clip380)" d="M461.569 289.2 Q460.851 288.783 459.995 288.598 Q459.161 288.389 458.143 288.389 Q454.532 288.389 452.587 290.751 Q450.666 293.089 450.666 297.487 L450.666 311.144 L446.383 311.144 L446.383 285.218 L450.666 285.218 L450.666 289.246 Q452.008 286.885 454.161 285.751 Q456.314 284.593 459.393 284.593 Q459.832 284.593 460.365 284.663 Q460.897 284.709 461.545 284.825 L461.569 289.2 Z" fill="#000000" fill-rule="nonzero" fill-opacity="1" /><path clip-path="url(#clip380)" d="M487.17 297.116 L487.17 299.2 L467.587 299.2 Q467.865 303.598 470.226 305.913 Q472.61 308.204 476.846 308.204 Q479.3 308.204 481.592 307.602 Q483.906 307 486.175 305.797 L486.175 309.825 Q483.883 310.797 481.476 311.306 Q479.068 311.815 476.592 311.815 Q470.388 311.815 466.754 308.204 Q463.143 304.593 463.143 298.436 Q463.143 292.07 466.569 288.343 Q470.018 284.593 475.851 284.593 Q481.082 284.593 484.115 287.973 Q487.17 291.329 487.17 297.116 M482.911 295.866 Q482.865 292.371 480.943 290.288 Q479.045 288.204 475.897 288.204 Q472.332 288.204 470.18 290.218 Q468.05 292.232 467.726 295.889 L482.911 295.866 Z" fill="#000000" fill-rule="nonzero" fill-opacity="1" /><path clip-path="url(#clip380)" d="M512.818 286.214 L512.818 290.195 Q511.013 289.2 509.184 288.714 Q507.379 288.204 505.527 288.204 Q501.383 288.204 499.092 290.843 Q496.8 293.459 496.8 298.204 Q496.8 302.95 499.092 305.588 Q501.383 308.204 505.527 308.204 Q507.379 308.204 509.184 307.718 Q511.013 307.209 512.818 306.213 L512.818 310.149 Q511.036 310.982 509.115 311.399 Q507.216 311.815 505.064 311.815 Q499.207 311.815 495.758 308.135 Q492.309 304.454 492.309 298.204 Q492.309 291.862 495.781 288.227 Q499.277 284.593 505.342 284.593 Q507.309 284.593 509.184 285.01 Q511.059 285.403 512.818 286.214 Z" fill="#000000" fill-rule="nonzero" fill-opacity="1" /><path clip-path="url(#clip380)" d="M524.439 277.857 L524.439 285.218 L533.212 285.218 L533.212 288.528 L524.439 288.528 L524.439 302.602 Q524.439 305.774 525.295 306.676 Q526.175 307.579 528.837 307.579 L533.212 307.579 L533.212 311.144 L528.837 311.144 Q523.906 311.144 522.031 309.315 Q520.156 307.463 520.156 302.602 L520.156 288.528 L517.031 288.528 L517.031 285.218 L520.156 285.218 L520.156 277.857 L524.439 277.857 Z" fill="#000000" fill-rule="nonzero" fill-opacity="1" /><path clip-path="url(#clip380)" d="M1846.79 1383.95 L3152.76 1383.95 L3152.76 95.3921 L1846.79 95.3921  Z" fill="#ffffff" fill-rule="evenodd" fill-opacity="1"/>
<polyline clip-path="url(#clip381)" style="stroke:#000000; stroke-linecap:round; stroke-linejoin:round; stroke-width:2; stroke-opacity:0.1; fill:none" points="1846.79,1383.95 1846.79,95.3921 "/>
<polyline clip-path="url(#clip381)" style="stroke:#000000; stroke-linecap:round; stroke-linejoin:round; stroke-width:2; stroke-opacity:0.1; fill:none" points="2173.28,1383.95 2173.28,95.3921 "/>
<polyline clip-path="url(#clip381)" style="stroke:#000000; stroke-linecap:round; stroke-linejoin:round; stroke-width:2; stroke-opacity:0.1; fill:none" points="2499.77,1383.95 2499.77,95.3921 "/>
<polyline clip-path="url(#clip381)" style="stroke:#000000; stroke-linecap:round; stroke-linejoin:round; stroke-width:2; stroke-opacity:0.1; fill:none" points="2826.26,1383.95 2826.26,95.3921 "/>
<polyline clip-path="url(#clip381)" style="stroke:#000000; stroke-linecap:round; stroke-linejoin:round; stroke-width:2; stroke-opacity:0.1; fill:none" points="3152.76,1383.95 3152.76,95.3921 "/>
<polyline clip-path="url(#clip381)" style="stroke:#000000; stroke-linecap:round; stroke-linejoin:round; stroke-width:2; stroke-opacity:0.1; fill:none" points="1846.79,1340.82 3152.76,1340.82 "/>
<polyline clip-path="url(#clip381)" style="stroke:#000000; stroke-linecap:round; stroke-linejoin:round; stroke-width:2; stroke-opacity:0.1; fill:none" points="1846.79,1062.2 3152.76,1062.2 "/>
<polyline clip-path="url(#clip381)" style="stroke:#000000; stroke-linecap:round; stroke-linejoin:round; stroke-width:2; stroke-opacity:0.1; fill:none" points="1846.79,783.583 3152.76,783.583 "/>
<polyline clip-path="url(#clip381)" style="stroke:#000000; stroke-linecap:round; stroke-linejoin:round; stroke-width:2; stroke-opacity:0.1; fill:none" points="1846.79,504.967 3152.76,504.967 "/>
<polyline clip-path="url(#clip381)" style="stroke:#000000; stroke-linecap:round; stroke-linejoin:round; stroke-width:2; stroke-opacity:0.1; fill:none" points="1846.79,226.351 3152.76,226.351 "/>
<polyline clip-path="url(#clip380)" style="stroke:#000000; stroke-linecap:round; stroke-linejoin:round; stroke-width:4; stroke-opacity:1; fill:none" points="1846.79,1383.95 3152.76,1383.95 "/>
<polyline clip-path="url(#clip380)" style="stroke:#000000; stroke-linecap:round; stroke-linejoin:round; stroke-width:4; stroke-opacity:1; fill:none" points="1846.79,1383.95 1846.79,1365.05 "/>
<polyline clip-path="url(#clip380)" style="stroke:#000000; stroke-linecap:round; stroke-linejoin:round; stroke-width:4; stroke-opacity:1; fill:none" points="2173.28,1383.95 2173.28,1365.05 "/>
<polyline clip-path="url(#clip380)" style="stroke:#000000; stroke-linecap:round; stroke-linejoin:round; stroke-width:4; stroke-opacity:1; fill:none" points="2499.77,1383.95 2499.77,1365.05 "/>
<polyline clip-path="url(#clip380)" style="stroke:#000000; stroke-linecap:round; stroke-linejoin:round; stroke-width:4; stroke-opacity:1; fill:none" points="2826.26,1383.95 2826.26,1365.05 "/>
<polyline clip-path="url(#clip380)" style="stroke:#000000; stroke-linecap:round; stroke-linejoin:round; stroke-width:4; stroke-opacity:1; fill:none" points="3152.76,1383.95 3152.76,1365.05 "/>
<path clip-path="url(#clip380)" d="M1824.17 1421.27 Q1820.56 1421.27 1818.73 1424.83 Q1816.93 1428.37 1816.93 1435.5 Q1816.93 1442.61 1818.73 1446.17 Q1820.56 1449.72 1824.17 1449.72 Q1827.81 1449.72 1829.61 1446.17 Q1831.44 1442.61 1831.44 1435.5 Q1831.44 1428.37 1829.61 1424.83 Q1827.81 1421.27 1824.17 1421.27 M1824.17 1417.56 Q1829.98 1417.56 1833.04 1422.17 Q1836.12 1426.75 1836.12 1435.5 Q1836.12 1444.23 1833.04 1448.84 Q1829.98 1453.42 1824.17 1453.42 Q1818.36 1453.42 1815.28 1448.84 Q1812.23 1444.23 1812.23 1435.5 Q1812.23 1426.75 1815.28 1422.17 Q1818.36 1417.56 1824.17 1417.56 Z" fill="#000000" fill-rule="nonzero" fill-opacity="1" /><path clip-path="url(#clip380)" d="M1844.33 1446.87 L1849.22 1446.87 L1849.22 1452.75 L1844.33 1452.75 L1844.33 1446.87 Z" fill="#000000" fill-rule="nonzero" fill-opacity="1" /><path clip-path="url(#clip380)" d="M1869.4 1421.27 Q1865.79 1421.27 1863.96 1424.83 Q1862.16 1428.37 1862.16 1435.5 Q1862.16 1442.61 1863.96 1446.17 Q1865.79 1449.72 1869.4 1449.72 Q1873.04 1449.72 1874.84 1446.17 Q1876.67 1442.61 1876.67 1435.5 Q1876.67 1428.37 1874.84 1424.83 Q1873.04 1421.27 1869.4 1421.27 M1869.4 1417.56 Q1875.21 1417.56 1878.27 1422.17 Q1881.35 1426.75 1881.35 1435.5 Q1881.35 1444.23 1878.27 1448.84 Q1875.21 1453.42 1869.4 1453.42 Q1863.59 1453.42 1860.52 1448.84 Q1857.46 1444.23 1857.46 1435.5 Q1857.46 1426.75 1860.52 1422.17 Q1863.59 1417.56 1869.4 1417.56 Z" fill="#000000" fill-rule="nonzero" fill-opacity="1" /><path clip-path="url(#clip380)" d="M2151.16 1421.27 Q2147.55 1421.27 2145.72 1424.83 Q2143.92 1428.37 2143.92 1435.5 Q2143.92 1442.61 2145.72 1446.17 Q2147.55 1449.72 2151.16 1449.72 Q2154.8 1449.72 2156.6 1446.17 Q2158.43 1442.61 2158.43 1435.5 Q2158.43 1428.37 2156.6 1424.83 Q2154.8 1421.27 2151.16 1421.27 M2151.16 1417.56 Q2156.97 1417.56 2160.03 1422.17 Q2163.11 1426.75 2163.11 1435.5 Q2163.11 1444.23 2160.03 1448.84 Q2156.97 1453.42 2151.16 1453.42 Q2145.35 1453.42 2142.27 1448.84 Q2139.22 1444.23 2139.22 1435.5 Q2139.22 1426.75 2142.27 1422.17 Q2145.35 1417.56 2151.16 1417.56 Z" fill="#000000" fill-rule="nonzero" fill-opacity="1" /><path clip-path="url(#clip380)" d="M2171.32 1446.87 L2176.21 1446.87 L2176.21 1452.75 L2171.32 1452.75 L2171.32 1446.87 Z" fill="#000000" fill-rule="nonzero" fill-opacity="1" /><path clip-path="url(#clip380)" d="M2186.44 1418.19 L2204.8 1418.19 L2204.8 1422.12 L2190.72 1422.12 L2190.72 1430.6 Q2191.74 1430.25 2192.76 1430.09 Q2193.78 1429.9 2194.8 1429.9 Q2200.58 1429.9 2203.96 1433.07 Q2207.34 1436.24 2207.34 1441.66 Q2207.34 1447.24 2203.87 1450.34 Q2200.4 1453.42 2194.08 1453.42 Q2191.9 1453.42 2189.63 1453.05 Q2187.39 1452.68 2184.98 1451.94 L2184.98 1447.24 Q2187.07 1448.37 2189.29 1448.93 Q2191.51 1449.48 2193.99 1449.48 Q2197.99 1449.48 2200.33 1447.38 Q2202.67 1445.27 2202.67 1441.66 Q2202.67 1438.05 2200.33 1435.94 Q2197.99 1433.84 2193.99 1433.84 Q2192.11 1433.84 2190.24 1434.25 Q2188.38 1434.67 2186.44 1435.55 L2186.44 1418.19 Z" fill="#000000" fill-rule="nonzero" fill-opacity="1" /><path clip-path="url(#clip380)" d="M2466.93 1448.81 L2474.56 1448.81 L2474.56 1422.45 L2466.25 1424.11 L2466.25 1419.85 L2474.52 1418.19 L2479.19 1418.19 L2479.19 1448.81 L2486.83 1448.81 L2486.83 1452.75 L2466.93 1452.75 L2466.93 1448.81 Z" fill="#000000" fill-rule="nonzero" fill-opacity="1" /><path clip-path="url(#clip380)" d="M2496.28 1446.87 L2501.16 1446.87 L2501.16 1452.75 L2496.28 1452.75 L2496.28 1446.87 Z" fill="#000000" fill-rule="nonzero" fill-opacity="1" /><path clip-path="url(#clip380)" d="M2521.35 1421.27 Q2517.74 1421.27 2515.91 1424.83 Q2514.1 1428.37 2514.1 1435.5 Q2514.1 1442.61 2515.91 1446.17 Q2517.74 1449.72 2521.35 1449.72 Q2524.98 1449.72 2526.79 1446.17 Q2528.61 1442.61 2528.61 1435.5 Q2528.61 1428.37 2526.79 1424.83 Q2524.98 1421.27 2521.35 1421.27 M2521.35 1417.56 Q2527.16 1417.56 2530.21 1422.17 Q2533.29 1426.75 2533.29 1435.5 Q2533.29 1444.23 2530.21 1448.84 Q2527.16 1453.42 2521.35 1453.42 Q2515.54 1453.42 2512.46 1448.84 Q2509.4 1444.23 2509.4 1435.5 Q2509.4 1426.75 2512.46 1422.17 Q2515.54 1417.56 2521.35 1417.56 Z" fill="#000000" fill-rule="nonzero" fill-opacity="1" /><path clip-path="url(#clip380)" d="M2793.91 1448.81 L2801.55 1448.81 L2801.55 1422.45 L2793.24 1424.11 L2793.24 1419.85 L2801.51 1418.19 L2806.18 1418.19 L2806.18 1448.81 L2813.82 1448.81 L2813.82 1452.75 L2793.91 1452.75 L2793.91 1448.81 Z" fill="#000000" fill-rule="nonzero" fill-opacity="1" /><path clip-path="url(#clip380)" d="M2823.27 1446.87 L2828.15 1446.87 L2828.15 1452.75 L2823.27 1452.75 L2823.27 1446.87 Z" fill="#000000" fill-rule="nonzero" fill-opacity="1" /><path clip-path="url(#clip380)" d="M2838.38 1418.19 L2856.74 1418.19 L2856.74 1422.12 L2842.66 1422.12 L2842.66 1430.6 Q2843.68 1430.25 2844.7 1430.09 Q2845.72 1429.9 2846.74 1429.9 Q2852.53 1429.9 2855.91 1433.07 Q2859.28 1436.24 2859.28 1441.66 Q2859.28 1447.24 2855.81 1450.34 Q2852.34 1453.42 2846.02 1453.42 Q2843.84 1453.42 2841.58 1453.05 Q2839.33 1452.68 2836.92 1451.94 L2836.92 1447.24 Q2839.01 1448.37 2841.23 1448.93 Q2843.45 1449.48 2845.93 1449.48 Q2849.93 1449.48 2852.27 1447.38 Q2854.61 1445.27 2854.61 1441.66 Q2854.61 1438.05 2852.27 1435.94 Q2849.93 1433.84 2845.93 1433.84 Q2844.05 1433.84 2842.18 1434.25 Q2840.33 1434.67 2838.38 1435.55 L2838.38 1418.19 Z" fill="#000000" fill-rule="nonzero" fill-opacity="1" /><path clip-path="url(#clip380)" d="M3123.99 1448.81 L3140.31 1448.81 L3140.31 1452.75 L3118.37 1452.75 L3118.37 1448.81 Q3121.03 1446.06 3125.61 1441.43 Q3130.22 1436.78 3131.4 1435.43 Q3133.65 1432.91 3134.53 1431.17 Q3135.43 1429.41 3135.43 1427.72 Q3135.43 1424.97 3133.49 1423.23 Q3131.56 1421.5 3128.46 1421.5 Q3126.26 1421.5 3123.81 1422.26 Q3121.38 1423.03 3118.6 1424.58 L3118.6 1419.85 Q3121.43 1418.72 3123.88 1418.14 Q3126.33 1417.56 3128.37 1417.56 Q3133.74 1417.56 3136.93 1420.25 Q3140.13 1422.93 3140.13 1427.42 Q3140.13 1429.55 3139.32 1431.47 Q3138.53 1433.37 3136.42 1435.97 Q3135.85 1436.64 3132.74 1439.85 Q3129.64 1443.05 3123.99 1448.81 Z" fill="#000000" fill-rule="nonzero" fill-opacity="1" /><path clip-path="url(#clip380)" d="M3150.13 1446.87 L3155.01 1446.87 L3155.01 1452.75 L3150.13 1452.75 L3150.13 1446.87 Z" fill="#000000" fill-rule="nonzero" fill-opacity="1" /><path clip-path="url(#clip380)" d="M3175.2 1421.27 Q3171.59 1421.27 3169.76 1424.83 Q3167.95 1428.37 3167.95 1435.5 Q3167.95 1442.61 3169.76 1446.17 Q3171.59 1449.72 3175.2 1449.72 Q3178.83 1449.72 3180.64 1446.17 Q3182.47 1442.61 3182.47 1435.5 Q3182.47 1428.37 3180.64 1424.83 Q3178.83 1421.27 3175.2 1421.27 M3175.2 1417.56 Q3181.01 1417.56 3184.06 1422.17 Q3187.14 1426.75 3187.14 1435.5 Q3187.14 1444.23 3184.06 1448.84 Q3181.01 1453.42 3175.2 1453.42 Q3169.39 1453.42 3166.31 1448.84 Q3163.25 1444.23 3163.25 1435.5 Q3163.25 1426.75 3166.31 1422.17 Q3169.39 1417.56 3175.2 1417.56 Z" fill="#000000" fill-rule="nonzero" fill-opacity="1" /><path clip-path="url(#clip380)" d="M2498.92 1494.02 L2498.92 1503.22 L2509.89 1503.22 L2509.89 1507.36 L2498.92 1507.36 L2498.92 1524.95 Q2498.92 1528.91 2499.99 1530.04 Q2501.09 1531.17 2504.42 1531.17 L2509.89 1531.17 L2509.89 1535.63 L2504.42 1535.63 Q2498.25 1535.63 2495.91 1533.34 Q2493.57 1531.03 2493.57 1524.95 L2493.57 1507.36 L2489.66 1507.36 L2489.66 1503.22 L2493.57 1503.22 L2493.57 1494.02 L2498.92 1494.02 Z" fill="#000000" fill-rule="nonzero" fill-opacity="1" /><polyline clip-path="url(#clip380)" style="stroke:#000000; stroke-linecap:round; stroke-linejoin:round; stroke-width:4; stroke-opacity:1; fill:none" points="1846.79,1383.95 1846.79,95.3921 "/>
<polyline clip-path="url(#clip380)" style="stroke:#000000; stroke-linecap:round; stroke-linejoin:round; stroke-width:4; stroke-opacity:1; fill:none" points="1846.79,1340.82 1865.69,1340.82 "/>
<polyline clip-path="url(#clip380)" style="stroke:#000000; stroke-linecap:round; stroke-linejoin:round; stroke-width:4; stroke-opacity:1; fill:none" points="1846.79,1062.2 1865.69,1062.2 "/>
<polyline clip-path="url(#clip380)" style="stroke:#000000; stroke-linecap:round; stroke-linejoin:round; stroke-width:4; stroke-opacity:1; fill:none" points="1846.79,783.583 1865.69,783.583 "/>
<polyline clip-path="url(#clip380)" style="stroke:#000000; stroke-linecap:round; stroke-linejoin:round; stroke-width:4; stroke-opacity:1; fill:none" points="1846.79,504.967 1865.69,504.967 "/>
<polyline clip-path="url(#clip380)" style="stroke:#000000; stroke-linecap:round; stroke-linejoin:round; stroke-width:4; stroke-opacity:1; fill:none" points="1846.79,226.351 1865.69,226.351 "/>
<path clip-path="url(#clip380)" d="M1631.52 1341.27 L1661.2 1341.27 L1661.2 1345.2 L1631.52 1345.2 L1631.52 1341.27 Z" fill="#000000" fill-rule="nonzero" fill-opacity="1" /><path clip-path="url(#clip380)" d="M1681.29 1326.61 Q1677.68 1326.61 1675.85 1330.18 Q1674.04 1333.72 1674.04 1340.85 Q1674.04 1347.96 1675.85 1351.52 Q1677.68 1355.06 1681.29 1355.06 Q1684.92 1355.06 1686.73 1351.52 Q1688.56 1347.96 1688.56 1340.85 Q1688.56 1333.72 1686.73 1330.18 Q1684.92 1326.61 1681.29 1326.61 M1681.29 1322.91 Q1687.1 1322.91 1690.15 1327.52 Q1693.23 1332.1 1693.23 1340.85 Q1693.23 1349.58 1690.15 1354.18 Q1687.1 1358.77 1681.29 1358.77 Q1675.48 1358.77 1672.4 1354.18 Q1669.34 1349.58 1669.34 1340.85 Q1669.34 1332.1 1672.4 1327.52 Q1675.48 1322.91 1681.29 1322.91 Z" fill="#000000" fill-rule="nonzero" fill-opacity="1" /><path clip-path="url(#clip380)" d="M1701.45 1352.22 L1706.34 1352.22 L1706.34 1358.1 L1701.45 1358.1 L1701.45 1352.22 Z" fill="#000000" fill-rule="nonzero" fill-opacity="1" /><path clip-path="url(#clip380)" d="M1726.52 1326.61 Q1722.91 1326.61 1721.08 1330.18 Q1719.28 1333.72 1719.28 1340.85 Q1719.28 1347.96 1721.08 1351.52 Q1722.91 1355.06 1726.52 1355.06 Q1730.15 1355.06 1731.96 1351.52 Q1733.79 1347.96 1733.79 1340.85 Q1733.79 1333.72 1731.96 1330.18 Q1730.15 1326.61 1726.52 1326.61 M1726.52 1322.91 Q1732.33 1322.91 1735.39 1327.52 Q1738.46 1332.1 1738.46 1340.85 Q1738.46 1349.58 1735.39 1354.18 Q1732.33 1358.77 1726.52 1358.77 Q1720.71 1358.77 1717.63 1354.18 Q1714.58 1349.58 1714.58 1340.85 Q1714.58 1332.1 1717.63 1327.52 Q1720.71 1322.91 1726.52 1322.91 Z" fill="#000000" fill-rule="nonzero" fill-opacity="1" /><path clip-path="url(#clip380)" d="M1746.73 1323.54 L1765.09 1323.54 L1765.09 1327.47 L1751.01 1327.47 L1751.01 1335.94 Q1752.03 1335.6 1753.05 1335.43 Q1754.07 1335.25 1755.09 1335.25 Q1760.87 1335.25 1764.25 1338.42 Q1767.63 1341.59 1767.63 1347.01 Q1767.63 1352.59 1764.16 1355.69 Q1760.69 1358.77 1754.37 1358.77 Q1752.19 1358.77 1749.92 1358.4 Q1747.68 1358.03 1745.27 1357.29 L1745.27 1352.59 Q1747.35 1353.72 1749.58 1354.28 Q1751.8 1354.83 1754.27 1354.83 Q1758.28 1354.83 1760.62 1352.73 Q1762.96 1350.62 1762.96 1347.01 Q1762.96 1343.4 1760.62 1341.29 Q1758.28 1339.18 1754.27 1339.18 Q1752.4 1339.18 1750.52 1339.6 Q1748.67 1340.02 1746.73 1340.9 L1746.73 1323.54 Z" fill="#000000" fill-rule="nonzero" fill-opacity="1" /><path clip-path="url(#clip380)" d="M1786.84 1326.61 Q1783.23 1326.61 1781.4 1330.18 Q1779.6 1333.72 1779.6 1340.85 Q1779.6 1347.96 1781.4 1351.52 Q1783.23 1355.06 1786.84 1355.06 Q1790.48 1355.06 1792.28 1351.52 Q1794.11 1347.96 1794.11 1340.85 Q1794.11 1333.72 1792.28 1330.18 Q1790.48 1326.61 1786.84 1326.61 M1786.84 1322.91 Q1792.65 1322.91 1795.71 1327.52 Q1798.79 1332.1 1798.79 1340.85 Q1798.79 1349.58 1795.71 1354.18 Q1792.65 1358.77 1786.84 1358.77 Q1781.03 1358.77 1777.96 1354.18 Q1774.9 1349.58 1774.9 1340.85 Q1774.9 1332.1 1777.96 1327.52 Q1781.03 1322.91 1786.84 1322.91 Z" fill="#000000" fill-rule="nonzero" fill-opacity="1" /><path clip-path="url(#clip380)" d="M1632.52 1062.65 L1662.19 1062.65 L1662.19 1066.59 L1632.52 1066.59 L1632.52 1062.65 Z" fill="#000000" fill-rule="nonzero" fill-opacity="1" /><path clip-path="url(#clip380)" d="M1682.28 1048 Q1678.67 1048 1676.84 1051.56 Q1675.04 1055.1 1675.04 1062.23 Q1675.04 1069.34 1676.84 1072.91 Q1678.67 1076.45 1682.28 1076.45 Q1685.92 1076.45 1687.72 1072.91 Q1689.55 1069.34 1689.55 1062.23 Q1689.55 1055.1 1687.72 1051.56 Q1685.92 1048 1682.28 1048 M1682.28 1044.29 Q1688.09 1044.29 1691.15 1048.9 Q1694.23 1053.48 1694.23 1062.23 Q1694.23 1070.96 1691.15 1075.57 Q1688.09 1080.15 1682.28 1080.15 Q1676.47 1080.15 1673.4 1075.57 Q1670.34 1070.96 1670.34 1062.23 Q1670.34 1053.48 1673.4 1048.9 Q1676.47 1044.29 1682.28 1044.29 Z" fill="#000000" fill-rule="nonzero" fill-opacity="1" /><path clip-path="url(#clip380)" d="M1702.45 1073.6 L1707.33 1073.6 L1707.33 1079.48 L1702.45 1079.48 L1702.45 1073.6 Z" fill="#000000" fill-rule="nonzero" fill-opacity="1" /><path clip-path="url(#clip380)" d="M1727.52 1048 Q1723.9 1048 1722.08 1051.56 Q1720.27 1055.1 1720.27 1062.23 Q1720.27 1069.34 1722.08 1072.91 Q1723.9 1076.45 1727.52 1076.45 Q1731.15 1076.45 1732.96 1072.91 Q1734.78 1069.34 1734.78 1062.23 Q1734.78 1055.1 1732.96 1051.56 Q1731.15 1048 1727.52 1048 M1727.52 1044.29 Q1733.33 1044.29 1736.38 1048.9 Q1739.46 1053.48 1739.46 1062.23 Q1739.46 1070.96 1736.38 1075.57 Q1733.33 1080.15 1727.52 1080.15 Q1721.71 1080.15 1718.63 1075.57 Q1715.57 1070.96 1715.57 1062.23 Q1715.57 1053.48 1718.63 1048.9 Q1721.71 1044.29 1727.52 1044.29 Z" fill="#000000" fill-rule="nonzero" fill-opacity="1" /><path clip-path="url(#clip380)" d="M1751.71 1075.54 L1768.02 1075.54 L1768.02 1079.48 L1746.08 1079.48 L1746.08 1075.54 Q1748.74 1072.79 1753.33 1068.16 Q1757.93 1063.51 1759.11 1062.16 Q1761.36 1059.64 1762.24 1057.91 Q1763.14 1056.15 1763.14 1054.46 Q1763.14 1051.7 1761.2 1049.97 Q1759.27 1048.23 1756.17 1048.23 Q1753.97 1048.23 1751.52 1048.99 Q1749.09 1049.76 1746.31 1051.31 L1746.31 1046.59 Q1749.14 1045.45 1751.59 1044.87 Q1754.04 1044.29 1756.08 1044.29 Q1761.45 1044.29 1764.65 1046.98 Q1767.84 1049.66 1767.84 1054.16 Q1767.84 1056.29 1767.03 1058.21 Q1766.24 1060.1 1764.14 1062.7 Q1763.56 1063.37 1760.46 1066.59 Q1757.35 1069.78 1751.71 1075.54 Z" fill="#000000" fill-rule="nonzero" fill-opacity="1" /><path clip-path="url(#clip380)" d="M1777.89 1044.92 L1796.24 1044.92 L1796.24 1048.85 L1782.17 1048.85 L1782.17 1057.33 Q1783.19 1056.98 1784.21 1056.82 Q1785.22 1056.63 1786.24 1056.63 Q1792.03 1056.63 1795.41 1059.8 Q1798.79 1062.97 1798.79 1068.39 Q1798.79 1073.97 1795.32 1077.07 Q1791.84 1080.15 1785.52 1080.15 Q1783.35 1080.15 1781.08 1079.78 Q1778.83 1079.41 1776.43 1078.67 L1776.43 1073.97 Q1778.51 1075.1 1780.73 1075.66 Q1782.96 1076.22 1785.43 1076.22 Q1789.44 1076.22 1791.77 1074.11 Q1794.11 1072 1794.11 1068.39 Q1794.11 1064.78 1791.77 1062.67 Q1789.44 1060.57 1785.43 1060.57 Q1783.56 1060.57 1781.68 1060.98 Q1779.83 1061.4 1777.89 1062.28 L1777.89 1044.92 Z" fill="#000000" fill-rule="nonzero" fill-opacity="1" /><path clip-path="url(#clip380)" d="M1681.29 769.382 Q1677.68 769.382 1675.85 772.947 Q1674.04 776.488 1674.04 783.618 Q1674.04 790.724 1675.85 794.289 Q1677.68 797.831 1681.29 797.831 Q1684.92 797.831 1686.73 794.289 Q1688.56 790.724 1688.56 783.618 Q1688.56 776.488 1686.73 772.947 Q1684.92 769.382 1681.29 769.382 M1681.29 765.678 Q1687.1 765.678 1690.15 770.285 Q1693.23 774.868 1693.23 783.618 Q1693.23 792.345 1690.15 796.951 Q1687.1 801.534 1681.29 801.534 Q1675.48 801.534 1672.4 796.951 Q1669.34 792.345 1669.34 783.618 Q1669.34 774.868 1672.4 770.285 Q1675.48 765.678 1681.29 765.678 Z" fill="#000000" fill-rule="nonzero" fill-opacity="1" /><path clip-path="url(#clip380)" d="M1701.45 794.984 L1706.34 794.984 L1706.34 800.863 L1701.45 800.863 L1701.45 794.984 Z" fill="#000000" fill-rule="nonzero" fill-opacity="1" /><path clip-path="url(#clip380)" d="M1726.52 769.382 Q1722.91 769.382 1721.08 772.947 Q1719.28 776.488 1719.28 783.618 Q1719.28 790.724 1721.08 794.289 Q1722.91 797.831 1726.52 797.831 Q1730.15 797.831 1731.96 794.289 Q1733.79 790.724 1733.79 783.618 Q1733.79 776.488 1731.96 772.947 Q1730.15 769.382 1726.52 769.382 M1726.52 765.678 Q1732.33 765.678 1735.39 770.285 Q1738.46 774.868 1738.46 783.618 Q1738.46 792.345 1735.39 796.951 Q1732.33 801.534 1726.52 801.534 Q1720.71 801.534 1717.63 796.951 Q1714.58 792.345 1714.58 783.618 Q1714.58 774.868 1717.63 770.285 Q1720.71 765.678 1726.52 765.678 Z" fill="#000000" fill-rule="nonzero" fill-opacity="1" /><path clip-path="url(#clip380)" d="M1756.68 769.382 Q1753.07 769.382 1751.24 772.947 Q1749.44 776.488 1749.44 783.618 Q1749.44 790.724 1751.24 794.289 Q1753.07 797.831 1756.68 797.831 Q1760.32 797.831 1762.12 794.289 Q1763.95 790.724 1763.95 783.618 Q1763.95 776.488 1762.12 772.947 Q1760.32 769.382 1756.68 769.382 M1756.68 765.678 Q1762.49 765.678 1765.55 770.285 Q1768.63 774.868 1768.63 783.618 Q1768.63 792.345 1765.55 796.951 Q1762.49 801.534 1756.68 801.534 Q1750.87 801.534 1747.79 796.951 Q1744.74 792.345 1744.74 783.618 Q1744.74 774.868 1747.79 770.285 Q1750.87 765.678 1756.68 765.678 Z" fill="#000000" fill-rule="nonzero" fill-opacity="1" /><path clip-path="url(#clip380)" d="M1786.84 769.382 Q1783.23 769.382 1781.4 772.947 Q1779.6 776.488 1779.6 783.618 Q1779.6 790.724 1781.4 794.289 Q1783.23 797.831 1786.84 797.831 Q1790.48 797.831 1792.28 794.289 Q1794.11 790.724 1794.11 783.618 Q1794.11 776.488 1792.28 772.947 Q1790.48 769.382 1786.84 769.382 M1786.84 765.678 Q1792.65 765.678 1795.71 770.285 Q1798.79 774.868 1798.79 783.618 Q1798.79 792.345 1795.71 796.951 Q1792.65 801.534 1786.84 801.534 Q1781.03 801.534 1777.96 796.951 Q1774.9 792.345 1774.9 783.618 Q1774.9 774.868 1777.96 770.285 Q1781.03 765.678 1786.84 765.678 Z" fill="#000000" fill-rule="nonzero" fill-opacity="1" /><path clip-path="url(#clip380)" d="M1682.28 490.766 Q1678.67 490.766 1676.84 494.33 Q1675.04 497.872 1675.04 505.002 Q1675.04 512.108 1676.84 515.673 Q1678.67 519.215 1682.28 519.215 Q1685.92 519.215 1687.72 515.673 Q1689.55 512.108 1689.55 505.002 Q1689.55 497.872 1687.72 494.33 Q1685.92 490.766 1682.28 490.766 M1682.28 487.062 Q1688.09 487.062 1691.15 491.668 Q1694.23 496.252 1694.23 505.002 Q1694.23 513.728 1691.15 518.335 Q1688.09 522.918 1682.28 522.918 Q1676.47 522.918 1673.4 518.335 Q1670.34 513.728 1670.34 505.002 Q1670.34 496.252 1673.4 491.668 Q1676.47 487.062 1682.28 487.062 Z" fill="#000000" fill-rule="nonzero" fill-opacity="1" /><path clip-path="url(#clip380)" d="M1702.45 516.367 L1707.33 516.367 L1707.33 522.247 L1702.45 522.247 L1702.45 516.367 Z" fill="#000000" fill-rule="nonzero" fill-opacity="1" /><path clip-path="url(#clip380)" d="M1727.52 490.766 Q1723.9 490.766 1722.08 494.33 Q1720.27 497.872 1720.27 505.002 Q1720.27 512.108 1722.08 515.673 Q1723.9 519.215 1727.52 519.215 Q1731.15 519.215 1732.96 515.673 Q1734.78 512.108 1734.78 505.002 Q1734.78 497.872 1732.96 494.33 Q1731.15 490.766 1727.52 490.766 M1727.52 487.062 Q1733.33 487.062 1736.38 491.668 Q1739.46 496.252 1739.46 505.002 Q1739.46 513.728 1736.38 518.335 Q1733.33 522.918 1727.52 522.918 Q1721.71 522.918 1718.63 518.335 Q1715.57 513.728 1715.57 505.002 Q1715.57 496.252 1718.63 491.668 Q1721.71 487.062 1727.52 487.062 Z" fill="#000000" fill-rule="nonzero" fill-opacity="1" /><path clip-path="url(#clip380)" d="M1751.71 518.312 L1768.02 518.312 L1768.02 522.247 L1746.08 522.247 L1746.08 518.312 Q1748.74 515.557 1753.33 510.928 Q1757.93 506.275 1759.11 504.932 Q1761.36 502.409 1762.24 500.673 Q1763.14 498.914 1763.14 497.224 Q1763.14 494.469 1761.2 492.733 Q1759.27 490.997 1756.17 490.997 Q1753.97 490.997 1751.52 491.761 Q1749.09 492.525 1746.31 494.076 L1746.31 489.354 Q1749.14 488.219 1751.59 487.641 Q1754.04 487.062 1756.08 487.062 Q1761.45 487.062 1764.65 489.747 Q1767.84 492.432 1767.84 496.923 Q1767.84 499.053 1767.03 500.974 Q1766.24 502.872 1764.14 505.465 Q1763.56 506.136 1760.46 509.353 Q1757.35 512.548 1751.71 518.312 Z" fill="#000000" fill-rule="nonzero" fill-opacity="1" /><path clip-path="url(#clip380)" d="M1777.89 487.687 L1796.24 487.687 L1796.24 491.622 L1782.17 491.622 L1782.17 500.094 Q1783.19 499.747 1784.21 499.585 Q1785.22 499.4 1786.24 499.4 Q1792.03 499.4 1795.41 502.571 Q1798.79 505.742 1798.79 511.159 Q1798.79 516.738 1795.32 519.84 Q1791.84 522.918 1785.52 522.918 Q1783.35 522.918 1781.08 522.548 Q1778.83 522.177 1776.43 521.437 L1776.43 516.738 Q1778.51 517.872 1780.73 518.428 Q1782.96 518.983 1785.43 518.983 Q1789.44 518.983 1791.77 516.877 Q1794.11 514.77 1794.11 511.159 Q1794.11 507.548 1791.77 505.441 Q1789.44 503.335 1785.43 503.335 Q1783.56 503.335 1781.68 503.752 Q1779.83 504.168 1777.89 505.048 L1777.89 487.687 Z" fill="#000000" fill-rule="nonzero" fill-opacity="1" /><path clip-path="url(#clip380)" d="M1681.29 212.149 Q1677.68 212.149 1675.85 215.714 Q1674.04 219.256 1674.04 226.385 Q1674.04 233.492 1675.85 237.057 Q1677.68 240.598 1681.29 240.598 Q1684.92 240.598 1686.73 237.057 Q1688.56 233.492 1688.56 226.385 Q1688.56 219.256 1686.73 215.714 Q1684.92 212.149 1681.29 212.149 M1681.29 208.446 Q1687.1 208.446 1690.15 213.052 Q1693.23 217.635 1693.23 226.385 Q1693.23 235.112 1690.15 239.719 Q1687.1 244.302 1681.29 244.302 Q1675.48 244.302 1672.4 239.719 Q1669.34 235.112 1669.34 226.385 Q1669.34 217.635 1672.4 213.052 Q1675.48 208.446 1681.29 208.446 Z" fill="#000000" fill-rule="nonzero" fill-opacity="1" /><path clip-path="url(#clip380)" d="M1701.45 237.751 L1706.34 237.751 L1706.34 243.631 L1701.45 243.631 L1701.45 237.751 Z" fill="#000000" fill-rule="nonzero" fill-opacity="1" /><path clip-path="url(#clip380)" d="M1726.52 212.149 Q1722.91 212.149 1721.08 215.714 Q1719.28 219.256 1719.28 226.385 Q1719.28 233.492 1721.08 237.057 Q1722.91 240.598 1726.52 240.598 Q1730.15 240.598 1731.96 237.057 Q1733.79 233.492 1733.79 226.385 Q1733.79 219.256 1731.96 215.714 Q1730.15 212.149 1726.52 212.149 M1726.52 208.446 Q1732.33 208.446 1735.39 213.052 Q1738.46 217.635 1738.46 226.385 Q1738.46 235.112 1735.39 239.719 Q1732.33 244.302 1726.52 244.302 Q1720.71 244.302 1717.63 239.719 Q1714.58 235.112 1714.58 226.385 Q1714.58 217.635 1717.63 213.052 Q1720.71 208.446 1726.52 208.446 Z" fill="#000000" fill-rule="nonzero" fill-opacity="1" /><path clip-path="url(#clip380)" d="M1746.73 209.071 L1765.09 209.071 L1765.09 213.006 L1751.01 213.006 L1751.01 221.478 Q1752.03 221.131 1753.05 220.969 Q1754.07 220.784 1755.09 220.784 Q1760.87 220.784 1764.25 223.955 Q1767.63 227.126 1767.63 232.543 Q1767.63 238.121 1764.16 241.223 Q1760.69 244.302 1754.37 244.302 Q1752.19 244.302 1749.92 243.932 Q1747.68 243.561 1745.27 242.821 L1745.27 238.121 Q1747.35 239.256 1749.58 239.811 Q1751.8 240.367 1754.27 240.367 Q1758.28 240.367 1760.62 238.26 Q1762.96 236.154 1762.96 232.543 Q1762.96 228.932 1760.62 226.825 Q1758.28 224.719 1754.27 224.719 Q1752.4 224.719 1750.52 225.135 Q1748.67 225.552 1746.73 226.432 L1746.73 209.071 Z" fill="#000000" fill-rule="nonzero" fill-opacity="1" /><path clip-path="url(#clip380)" d="M1786.84 212.149 Q1783.23 212.149 1781.4 215.714 Q1779.6 219.256 1779.6 226.385 Q1779.6 233.492 1781.4 237.057 Q1783.23 240.598 1786.84 240.598 Q1790.48 240.598 1792.28 237.057 Q1794.11 233.492 1794.11 226.385 Q1794.11 219.256 1792.28 215.714 Q1790.48 212.149 1786.84 212.149 M1786.84 208.446 Q1792.65 208.446 1795.71 213.052 Q1798.79 217.635 1798.79 226.385 Q1798.79 235.112 1795.71 239.719 Q1792.65 244.302 1786.84 244.302 Q1781.03 244.302 1777.96 239.719 Q1774.9 235.112 1774.9 226.385 Q1774.9 217.635 1777.96 213.052 Q1781.03 208.446 1786.84 208.446 Z" fill="#000000" fill-rule="nonzero" fill-opacity="1" /><path clip-path="url(#clip380)" d="M2419.14 20.677 L2419.14 25.6538 Q2416.89 24.4096 2414.6 23.802 Q2412.35 23.1654 2410.03 23.1654 Q2404.85 23.1654 2401.99 26.464 Q2399.12 29.7336 2399.12 35.6653 Q2399.12 41.597 2401.99 44.8956 Q2404.85 48.1653 2410.03 48.1653 Q2412.35 48.1653 2414.6 47.5576 Q2416.89 46.921 2419.14 45.6768 L2419.14 50.5958 Q2416.92 51.6375 2414.52 52.1583 Q2412.14 52.6791 2409.45 52.6791 Q2402.13 52.6791 2397.82 48.0784 Q2393.51 43.4778 2393.51 35.6653 Q2393.51 27.7371 2397.85 23.1943 Q2402.22 18.6515 2409.8 18.6515 Q2412.26 18.6515 2414.6 19.1724 Q2416.95 19.6642 2419.14 20.677 Z" fill="#000000" fill-rule="nonzero" fill-opacity="1" /><path clip-path="url(#clip380)" d="M2440.96 23.1654 Q2436.68 23.1654 2434.19 26.5218 Q2431.7 29.8494 2431.7 35.6653 Q2431.7 41.4813 2434.16 44.8377 Q2436.65 48.1653 2440.96 48.1653 Q2445.22 48.1653 2447.7 44.8088 Q2450.19 41.4523 2450.19 35.6653 Q2450.19 29.9072 2447.7 26.5508 Q2445.22 23.1654 2440.96 23.1654 M2440.96 18.6515 Q2447.91 18.6515 2451.87 23.1654 Q2455.83 27.6792 2455.83 35.6653 Q2455.83 43.6225 2451.87 48.1653 Q2447.91 52.6791 2440.96 52.6791 Q2433.99 52.6791 2430.02 48.1653 Q2426.09 43.6225 2426.09 35.6653 Q2426.09 27.6792 2430.02 23.1654 Q2433.99 18.6515 2440.96 18.6515 Z" fill="#000000" fill-rule="nonzero" fill-opacity="1" /><path clip-path="url(#clip380)" d="M2485.32 20.3876 L2485.32 25.4223 Q2483.06 24.2649 2480.63 23.6862 Q2478.2 23.1075 2475.6 23.1075 Q2471.63 23.1075 2469.64 24.3228 Q2467.67 25.5381 2467.67 27.9686 Q2467.67 29.8204 2469.09 30.891 Q2470.5 31.9327 2474.79 32.8876 L2476.61 33.2926 Q2482.28 34.5079 2484.65 36.7359 Q2487.06 38.935 2487.06 42.8991 Q2487.06 47.4129 2483.47 50.046 Q2479.91 52.6791 2473.66 52.6791 Q2471.05 52.6791 2468.22 52.1583 Q2465.41 51.6664 2462.29 50.6537 L2462.29 45.156 Q2465.24 46.6896 2468.1 47.4708 Q2470.97 48.2231 2473.77 48.2231 Q2477.54 48.2231 2479.56 46.95 Q2481.59 45.6479 2481.59 43.3042 Q2481.59 41.134 2480.11 39.9766 Q2478.66 38.8192 2473.72 37.7486 L2471.86 37.3146 Q2466.92 36.273 2464.72 34.1318 Q2462.52 31.9616 2462.52 28.2001 Q2462.52 23.6283 2465.76 21.1399 Q2469 18.6515 2474.96 18.6515 Q2477.91 18.6515 2480.52 19.0855 Q2483.12 19.5196 2485.32 20.3876 Z" fill="#000000" fill-rule="nonzero" fill-opacity="1" /><path clip-path="url(#clip380)" d="M2500.8 10.2314 L2500.8 19.4328 L2511.77 19.4328 L2511.77 23.5705 L2500.8 23.5705 L2500.8 41.163 Q2500.8 45.1271 2501.87 46.2555 Q2502.97 47.384 2506.3 47.384 L2511.77 47.384 L2511.77 51.84 L2506.3 51.84 Q2500.13 51.84 2497.79 49.5541 Q2495.45 47.2393 2495.45 41.163 L2495.45 23.5705 L2491.54 23.5705 L2491.54 19.4328 L2495.45 19.4328 L2495.45 10.2314 L2500.8 10.2314 Z" fill="#000000" fill-rule="nonzero" fill-opacity="1" /><path clip-path="url(#clip380)" d="M2533.5 35.5496 Q2527.04 35.5496 2524.56 37.0253 Q2522.07 38.501 2522.07 42.06 Q2522.07 44.8956 2523.92 46.5738 Q2525.8 48.2231 2529.01 48.2231 Q2533.44 48.2231 2536.1 45.0981 Q2538.79 41.9442 2538.79 36.7359 L2538.79 35.5496 L2533.5 35.5496 M2544.12 33.3505 L2544.12 51.84 L2538.79 51.84 L2538.79 46.921 Q2536.97 49.8724 2534.25 51.2902 Q2531.53 52.6791 2527.59 52.6791 Q2522.62 52.6791 2519.67 49.9014 Q2516.74 47.0947 2516.74 42.4072 Q2516.74 36.9385 2520.39 34.1607 Q2524.06 31.3829 2531.33 31.3829 L2538.79 31.3829 L2538.79 30.8621 Q2538.79 27.1874 2536.36 25.1908 Q2533.96 23.1654 2529.59 23.1654 Q2526.81 23.1654 2524.18 23.8309 Q2521.55 24.4964 2519.12 25.8274 L2519.12 20.9085 Q2522.04 19.78 2524.79 19.2302 Q2527.54 18.6515 2530.14 18.6515 Q2537.17 18.6515 2540.64 22.2973 Q2544.12 25.9431 2544.12 33.3505 Z" fill="#000000" fill-rule="nonzero" fill-opacity="1" /><path clip-path="url(#clip380)" d="M2560.35 10.2314 L2560.35 19.4328 L2571.31 19.4328 L2571.31 23.5705 L2560.35 23.5705 L2560.35 41.163 Q2560.35 45.1271 2561.42 46.2555 Q2562.52 47.384 2565.85 47.384 L2571.31 47.384 L2571.31 51.84 L2565.85 51.84 Q2559.68 51.84 2557.34 49.5541 Q2554.99 47.2393 2554.99 41.163 L2554.99 23.5705 L2551.09 23.5705 L2551.09 19.4328 L2554.99 19.4328 L2554.99 10.2314 L2560.35 10.2314 Z" fill="#000000" fill-rule="nonzero" fill-opacity="1" /><path clip-path="url(#clip380)" d="M2606.04 34.3054 L2606.04 36.9095 L2581.56 36.9095 Q2581.9 42.4072 2584.86 45.3007 Q2587.84 48.1653 2593.13 48.1653 Q2596.2 48.1653 2599.06 47.4129 Q2601.96 46.6606 2604.79 45.156 L2604.79 50.1907 Q2601.93 51.406 2598.92 52.0425 Q2595.91 52.6791 2592.81 52.6791 Q2585.06 52.6791 2580.52 48.1653 Q2576 43.6514 2576 35.9547 Q2576 27.9975 2580.28 23.339 Q2584.6 18.6515 2591.89 18.6515 Q2598.43 18.6515 2602.22 22.876 Q2606.04 27.0716 2606.04 34.3054 M2600.71 32.7429 Q2600.65 28.3737 2598.25 25.7695 Q2595.88 23.1654 2591.94 23.1654 Q2587.49 23.1654 2584.8 25.6827 Q2582.14 28.2001 2581.73 32.7718 L2600.71 32.7429 Z" fill="#000000" fill-rule="nonzero" fill-opacity="1" /><polyline clip-path="url(#clip381)" style="stroke:#000000; stroke-linecap:round; stroke-linejoin:round; stroke-width:4; stroke-opacity:1; fill:none" stroke-dasharray="16, 10" points="1846.79,2672.5 1846.79,-1193.16 "/>
<polyline clip-path="url(#clip381)" style="stroke:#000000; stroke-linecap:round; stroke-linejoin:round; stroke-width:4; stroke-opacity:1; fill:none" stroke-dasharray="16, 10" points="3152.76,2672.5 3152.76,-1193.16 "/>
<polyline clip-path="url(#clip381)" style="stroke:#009af9; stroke-linecap:round; stroke-linejoin:round; stroke-width:8; stroke-opacity:1; fill:none" points="1846.79,133.847 1852.01,140 1857.24,149.669 1862.46,162.77 1867.68,179.183 1872.91,198.752 1878.13,221.295 1883.36,246.594 1888.58,274.407 1893.8,304.465 1899.03,336.478 1904.25,370.134 1909.47,405.107 1914.7,441.055 1919.92,477.629 1925.15,514.472 1930.37,551.224 1935.59,587.528 1940.82,623.03 1946.04,657.384 1951.27,690.256 1956.49,721.328 1961.71,750.299 1966.94,776.889 1972.16,800.844 1977.39,821.935 1982.61,839.962 1987.83,854.757 1993.06,866.184 1998.28,874.142 2003.5,878.563 2008.73,879.416 2013.95,876.708 2019.18,870.479 2024.4,860.806 2029.62,847.8 2034.85,831.608 2040.07,812.407 2045.3,790.405 2050.52,765.839 2055.74,738.97 2060.97,710.086 2066.19,679.492 2071.41,647.511 2076.64,614.482 2081.86,580.752 2087.09,546.678 2092.31,512.618 2097.53,478.931 2102.76,445.972 2107.98,414.09 2113.21,383.622 2118.43,354.89 2123.65,328.201 2128.88,303.839 2134.1,282.066 2139.33,263.118 2144.55,247.201 2149.77,234.492 2155,225.136 2160.22,219.243 2165.44,216.889 2170.67,218.113 2175.89,222.92 2181.12,231.278 2186.34,243.118 2191.56,258.338 2196.79,276.801 2202.01,298.336 2207.24,322.744 2212.46,349.795 2217.68,379.233 2222.91,410.778 2228.13,444.128 2233.35,478.964 2238.58,514.952 2243.8,551.746 2249.03,588.993 2254.25,626.333 2259.47,663.407 2264.7,699.86 2269.92,735.341 2275.15,769.51 2280.37,802.04 2285.59,832.622 2290.82,860.965 2296.04,886.801 2301.27,909.888 2306.49,930.013 2311.71,946.99 2316.94,960.667 2322.16,970.926 2327.38,977.682 2332.61,980.886 2337.83,980.526 2343.06,976.625 2348.28,969.242 2353.5,958.471 2358.73,944.441 2363.95,927.314 2369.18,907.283 2374.4,884.572 2379.62,859.428 2384.85,832.128 2390.07,802.968 2395.29,772.263 2400.52,740.343 2405.74,707.553 2410.97,674.245 2416.19,640.776 2421.41,607.506 2426.64,574.793 2431.86,542.988 2437.09,512.435 2442.31,483.465 2447.53,456.392 2452.76,431.511 2457.98,409.097 2463.21,389.398 2468.43,372.636 2473.65,359.004 2478.88,348.661 2484.1,341.736 2489.32,338.322 2494.55,338.476 2499.77,342.22 2505,349.542 2510.22,360.389 2515.44,374.678 2520.67,392.288 2525.89,413.065 2531.12,436.824 2536.34,463.35 2541.56,492.399 2546.79,523.704 2552.01,556.974 2557.23,591.896 2562.46,628.146 2567.68,665.381 2572.91,703.251 2578.13,741.401 2583.35,779.471 2588.58,817.102 2593.8,853.942 2599.03,889.644 2604.25,923.875 2609.47,956.316 2614.7,986.666 2619.92,1014.65 2625.15,1040 2630.37,1062.51 2635.59,1081.95 2640.82,1098.18 2646.04,1111.05 2651.26,1120.47 2656.49,1126.35 2661.71,1128.68 2666.94,1127.46 2672.16,1122.73 2677.38,1114.57 2682.61,1103.08 2687.83,1088.42 2693.06,1070.77 2698.28,1050.32 2703.5,1027.32 2708.73,1002.03 2713.95,974.735 2719.17,945.742 2724.4,915.374 2729.62,883.969 2734.85,851.875 2740.07,819.449 2745.29,787.048 2750.52,755.033 2755.74,723.758 2760.97,693.571 2766.19,664.811 2771.41,637.799 2776.64,612.841 2781.86,590.223 2787.09,570.207 2792.31,553.027 2797.53,538.892 2802.76,527.977 2807.98,520.427 2813.2,516.353 2818.43,515.83 2823.65,518.898 2828.88,525.562 2834.1,535.79 2839.32,549.513 2844.55,566.629 2849.77,587 2855,610.457 2860.22,636.8 2865.44,665.8 2870.67,697.199 2875.89,730.719 2881.11,766.057 2886.34,802.895 2891.56,840.899 2896.79,879.722 2902.01,919.01 2907.23,958.407 2912.46,997.551 2917.68,1036.09 2922.91,1073.67 2928.13,1109.95 2933.35,1144.6 2938.58,1177.33 2943.8,1207.82 2949.02,1235.83 2954.25,1261.1 2959.47,1283.42 2964.7,1302.61 2969.92,1318.51 2975.14,1331.01 2980.37,1340.03 2985.59,1345.5 2990.82,1347.43 2996.04,1345.83 3001.26,1340.76 3006.49,1332.32 3011.71,1320.63 3016.94,1305.87 3022.16,1288.21 3027.38,1267.89 3032.61,1245.16 3037.83,1220.28 3043.05,1193.56 3048.28,1165.3 3053.5,1135.85 3058.73,1105.55 3063.95,1074.74 3069.17,1043.79 3074.4,1013.05 3079.62,982.891 3084.85,953.652 3090.07,925.681 3095.29,899.309 3100.52,874.85 3105.74,852.601 3110.96,832.835 3116.19,815.801 3121.41,801.72 3126.64,790.786 3131.86,783.159 3137.08,778.966 3142.31,778.301 3147.53,781.221 "/>
<polyline clip-path="url(#clip381)" style="stroke:#ff0000; stroke-linecap:round; stroke-linejoin:round; stroke-width:8; stroke-opacity:1; fill:none" stroke-dasharray="32, 20" points="1846.79,131.861 1853.35,137.934 1859.91,149.584 1866.48,166.649 1873.04,188.882 1879.6,215.952 1886.16,247.454 1892.73,282.908 1899.29,321.776 1905.85,363.463 1912.42,407.33 1918.98,452.702 1925.54,498.884 1932.1,545.163 1938.67,590.829 1945.23,635.179 1951.79,677.533 1958.35,717.243 1964.92,753.701 1971.48,786.353 1978.04,814.706 1984.6,838.335 1991.17,856.889 1997.73,870.1 2004.29,877.785 2010.85,879.848 2017.42,876.285 2023.98,867.179 2030.54,852.703 2037.11,833.115 2043.67,808.757 2050.23,780.043 2056.79,747.461 2063.36,711.557 2069.92,672.932 2076.48,632.231 2083.04,590.132 2089.61,547.333 2096.17,504.547 2102.73,462.486 2109.29,421.848 2115.86,383.312 2122.42,347.521 2128.98,315.077 2135.55,286.528 2142.11,262.358 2148.67,242.985 2155.23,228.748 2161.8,219.906 2168.36,216.632 2174.92,219.009 2181.48,227.034 2188.05,240.609 2194.61,259.552 2201.17,283.595 2207.73,312.387 2214.3,345.503 2220.86,382.45 2227.42,422.673 2233.98,465.566 2240.55,510.48 2247.11,556.734 2253.67,603.627 2260.24,650.446 2266.8,696.482 2273.36,741.037 2279.92,783.438 2286.49,823.045 2293.05,859.264 2299.61,891.554 2306.17,919.44 2312.74,942.513 2319.3,960.444 2325.86,972.986 2332.42,979.977 2338.99,981.344 2345.55,977.104 2352.11,967.364 2358.68,952.318 2365.24,932.246 2371.8,907.507 2378.36,878.537 2384.93,845.837 2391.49,809.968 2398.05,771.545 2404.61,731.219 2411.18,689.676 2417.74,647.619 2424.3,605.761 2430.86,564.812 2437.43,525.466 2443.99,488.395 2450.55,454.233 2457.11,423.567 2463.68,396.932 2470.24,374.796 2476.8,357.556 2483.37,345.535 2489.93,338.968 2496.49,338.006 2503.05,342.712 2509.62,353.058 2516.18,368.926 2522.74,390.111 2529.3,416.325 2535.87,447.197 2542.43,482.285 2548.99,521.079 2555.55,563.011 2562.12,607.464 2568.68,653.779 2575.24,701.269 2581.81,749.23 2588.37,796.948 2594.93,843.717 2601.49,888.843 2608.06,931.66 2614.62,971.54 2621.18,1007.9 2627.74,1040.22 2634.31,1068.03 2640.87,1090.95 2647.43,1108.67 2653.99,1120.96 2660.56,1127.68 2667.12,1128.79 2673.68,1124.31 2680.25,1114.39 2686.81,1099.23 2693.37,1079.14 2699.93,1054.49 2706.5,1025.75 2713.06,993.414 2719.62,958.073 2726.18,920.347 2732.75,880.899 2739.31,840.418 2745.87,799.613 2752.43,759.194 2759,719.871 2765.56,682.333 2772.12,647.243 2778.68,615.224 2785.25,586.852 2791.81,562.645 2798.37,543.055 2804.94,528.46 2811.5,519.162 2818.06,515.375 2824.62,517.23 2831.19,524.765 2837.75,537.931 2844.31,556.587 2850.87,580.508 2857.44,609.383 2864,642.826 2870.56,680.374 2877.12,721.505 2883.69,765.635 2890.25,812.136 2896.81,860.343 2903.38,909.563 2909.94,959.087 2916.5,1008.2 2923.06,1056.21 2929.63,1102.41 2936.19,1146.16 2942.75,1186.84 2949.31,1223.87 2955.88,1256.74 2962.44,1285.03 2969,1308.35 2975.56,1326.41 2982.13,1339.02 2988.69,1346.05 2995.25,1347.48 3001.81,1343.37 3008.38,1333.86 3014.94,1319.21 3021.5,1299.72 3028.07,1275.8 3034.63,1247.92 3041.19,1216.6 3047.75,1182.44 3054.32,1146.07 3060.88,1108.17 3067.44,1069.42 3074,1030.54 3080.57,992.238 3087.13,955.221 3093.69,920.174 3100.25,887.749 3106.82,858.559 3113.38,833.166 3119.94,812.072 3126.51,795.713 3133.07,784.448 3139.63,778.556 3146.19,778.232 3152.76,783.583 "/>
<path clip-path="url(#clip380)" d="M2804.85 293.864 L3109.22 293.864 L3109.22 138.344 L2804.85 138.344  Z" fill="#ffffff" fill-rule="evenodd" fill-opacity="1"/>
<polyline clip-path="url(#clip380)" style="stroke:#000000; stroke-linecap:round; stroke-linejoin:round; stroke-width:4; stroke-opacity:1; fill:none" points="2804.85,293.864 3109.22,293.864 3109.22,138.344 2804.85,138.344 2804.85,293.864 "/>
<polyline clip-path="url(#clip380)" style="stroke:#009af9; stroke-linecap:round; stroke-linejoin:round; stroke-width:8; stroke-opacity:1; fill:none" points="2819.37,190.184 2906.43,190.184 "/>
<path clip-path="url(#clip380)" d="M2925.62 176.747 L2925.62 203.621 L2931.26 203.621 Q2938.42 203.621 2941.73 200.381 Q2945.06 197.14 2945.06 190.149 Q2945.06 183.205 2941.73 179.987 Q2938.42 176.747 2931.26 176.747 L2925.62 176.747 M2920.94 172.904 L2930.55 172.904 Q2940.59 172.904 2945.29 177.094 Q2949.99 181.26 2949.99 190.149 Q2949.99 199.084 2945.27 203.274 Q2940.55 207.464 2930.55 207.464 L2920.94 207.464 L2920.94 172.904 Z" fill="#000000" fill-rule="nonzero" fill-opacity="1" /><path clip-path="url(#clip380)" d="M2957.26 181.538 L2961.52 181.538 L2961.52 207.464 L2957.26 207.464 L2957.26 181.538 M2957.26 171.446 L2961.52 171.446 L2961.52 176.839 L2957.26 176.839 L2957.26 171.446 Z" fill="#000000" fill-rule="nonzero" fill-opacity="1" /><path clip-path="url(#clip380)" d="M2985.45 185.52 Q2984.74 185.103 2983.88 184.918 Q2983.05 184.709 2982.03 184.709 Q2978.42 184.709 2976.47 187.071 Q2974.55 189.409 2974.55 193.807 L2974.55 207.464 L2970.27 207.464 L2970.27 181.538 L2974.55 181.538 L2974.55 185.566 Q2975.89 183.205 2978.05 182.071 Q2980.2 180.913 2983.28 180.913 Q2983.72 180.913 2984.25 180.983 Q2984.78 181.029 2985.43 181.145 L2985.45 185.52 Z" fill="#000000" fill-rule="nonzero" fill-opacity="1" /><path clip-path="url(#clip380)" d="M3011.06 193.436 L3011.06 195.52 L2991.47 195.52 Q2991.75 199.918 2994.11 202.233 Q2996.5 204.524 3000.73 204.524 Q3003.19 204.524 3005.48 203.922 Q3007.79 203.32 3010.06 202.117 L3010.06 206.145 Q3007.77 207.117 3005.36 207.626 Q3002.95 208.135 3000.48 208.135 Q2994.27 208.135 2990.64 204.524 Q2987.03 200.913 2987.03 194.756 Q2987.03 188.39 2990.45 184.663 Q2993.9 180.913 2999.74 180.913 Q3004.97 180.913 3008 184.293 Q3011.06 187.649 3011.06 193.436 M3006.8 192.186 Q3006.75 188.691 3004.83 186.608 Q3002.93 184.524 2999.78 184.524 Q2996.22 184.524 2994.07 186.538 Q2991.94 188.552 2991.61 192.209 L3006.8 192.186 Z" fill="#000000" fill-rule="nonzero" fill-opacity="1" /><path clip-path="url(#clip380)" d="M3036.7 182.534 L3036.7 186.515 Q3034.9 185.52 3033.07 185.034 Q3031.26 184.524 3029.41 184.524 Q3025.27 184.524 3022.98 187.163 Q3020.69 189.779 3020.69 194.524 Q3020.69 199.27 3022.98 201.908 Q3025.27 204.524 3029.41 204.524 Q3031.26 204.524 3033.07 204.038 Q3034.9 203.529 3036.7 202.533 L3036.7 206.469 Q3034.92 207.302 3033 207.719 Q3031.1 208.135 3028.95 208.135 Q3023.09 208.135 3019.64 204.455 Q3016.19 200.774 3016.19 194.524 Q3016.19 188.182 3019.67 184.547 Q3023.16 180.913 3029.23 180.913 Q3031.19 180.913 3033.07 181.33 Q3034.94 181.723 3036.7 182.534 Z" fill="#000000" fill-rule="nonzero" fill-opacity="1" /><path clip-path="url(#clip380)" d="M3048.32 174.177 L3048.32 181.538 L3057.1 181.538 L3057.1 184.848 L3048.32 184.848 L3048.32 198.922 Q3048.32 202.094 3049.18 202.996 Q3050.06 203.899 3052.72 203.899 L3057.1 203.899 L3057.1 207.464 L3052.72 207.464 Q3047.79 207.464 3045.92 205.635 Q3044.04 203.783 3044.04 198.922 L3044.04 184.848 L3040.92 184.848 L3040.92 181.538 L3044.04 181.538 L3044.04 174.177 L3048.32 174.177 Z" fill="#000000" fill-rule="nonzero" fill-opacity="1" /><polyline clip-path="url(#clip380)" style="stroke:#ff0000; stroke-linecap:round; stroke-linejoin:round; stroke-width:8; stroke-opacity:1; fill:none" stroke-dasharray="32, 20" points="2819.37,242.024 2906.43,242.024 "/>
<path clip-path="url(#clip380)" d="M2920.94 224.744 L2925.62 224.744 L2925.62 259.304 L2920.94 259.304 L2920.94 224.744 Z" fill="#000000" fill-rule="nonzero" fill-opacity="1" /><path clip-path="url(#clip380)" d="M2956.29 243.656 L2956.29 259.304 L2952.03 259.304 L2952.03 243.795 Q2952.03 240.114 2950.59 238.286 Q2949.16 236.457 2946.29 236.457 Q2942.84 236.457 2940.85 238.656 Q2938.86 240.855 2938.86 244.651 L2938.86 259.304 L2934.57 259.304 L2934.57 233.378 L2938.86 233.378 L2938.86 237.406 Q2940.39 235.068 2942.45 233.911 Q2944.53 232.753 2947.24 232.753 Q2951.7 232.753 2954 235.531 Q2956.29 238.286 2956.29 243.656 Z" fill="#000000" fill-rule="nonzero" fill-opacity="1" /><path clip-path="url(#clip380)" d="M2981.84 237.313 L2981.84 223.286 L2986.1 223.286 L2986.1 259.304 L2981.84 259.304 L2981.84 255.415 Q2980.5 257.73 2978.44 258.864 Q2976.4 259.975 2973.53 259.975 Q2968.83 259.975 2965.87 256.225 Q2962.93 252.475 2962.93 246.364 Q2962.93 240.253 2965.87 236.503 Q2968.83 232.753 2973.53 232.753 Q2976.4 232.753 2978.44 233.887 Q2980.5 234.999 2981.84 237.313 M2967.33 246.364 Q2967.33 251.063 2969.25 253.748 Q2971.2 256.41 2974.57 256.41 Q2977.95 256.41 2979.9 253.748 Q2981.84 251.063 2981.84 246.364 Q2981.84 241.665 2979.9 239.003 Q2977.95 236.318 2974.57 236.318 Q2971.2 236.318 2969.25 239.003 Q2967.33 241.665 2967.33 246.364 Z" fill="#000000" fill-rule="nonzero" fill-opacity="1" /><path clip-path="url(#clip380)" d="M2994.88 233.378 L2999.13 233.378 L2999.13 259.304 L2994.88 259.304 L2994.88 233.378 M2994.88 223.286 L2999.13 223.286 L2999.13 228.679 L2994.88 228.679 L2994.88 223.286 Z" fill="#000000" fill-rule="nonzero" fill-opacity="1" /><path clip-path="url(#clip380)" d="M3023.07 237.36 Q3022.35 236.943 3021.5 236.758 Q3020.66 236.549 3019.64 236.549 Q3016.03 236.549 3014.09 238.911 Q3012.17 241.249 3012.17 245.647 L3012.17 259.304 L3007.88 259.304 L3007.88 233.378 L3012.17 233.378 L3012.17 237.406 Q3013.51 235.045 3015.66 233.911 Q3017.82 232.753 3020.89 232.753 Q3021.33 232.753 3021.87 232.823 Q3022.4 232.869 3023.05 232.985 L3023.07 237.36 Z" fill="#000000" fill-rule="nonzero" fill-opacity="1" /><path clip-path="url(#clip380)" d="M3048.67 245.276 L3048.67 247.36 L3029.09 247.36 Q3029.37 251.758 3031.73 254.073 Q3034.11 256.364 3038.35 256.364 Q3040.8 256.364 3043.09 255.762 Q3045.41 255.16 3047.68 253.957 L3047.68 257.985 Q3045.38 258.957 3042.98 259.466 Q3040.57 259.975 3038.09 259.975 Q3031.89 259.975 3028.25 256.364 Q3024.64 252.753 3024.64 246.596 Q3024.64 240.23 3028.07 236.503 Q3031.52 232.753 3037.35 232.753 Q3042.58 232.753 3045.62 236.133 Q3048.67 239.489 3048.67 245.276 M3044.41 244.026 Q3044.37 240.531 3042.44 238.448 Q3040.55 236.364 3037.4 236.364 Q3033.83 236.364 3031.68 238.378 Q3029.55 240.392 3029.23 244.049 L3044.41 244.026 Z" fill="#000000" fill-rule="nonzero" fill-opacity="1" /><path clip-path="url(#clip380)" d="M3074.32 234.374 L3074.32 238.355 Q3072.51 237.36 3070.69 236.874 Q3068.88 236.364 3067.03 236.364 Q3062.88 236.364 3060.59 239.003 Q3058.3 241.619 3058.3 246.364 Q3058.3 251.11 3060.59 253.748 Q3062.88 256.364 3067.03 256.364 Q3068.88 256.364 3070.69 255.878 Q3072.51 255.369 3074.32 254.373 L3074.32 258.309 Q3072.54 259.142 3070.62 259.559 Q3068.72 259.975 3066.56 259.975 Q3060.71 259.975 3057.26 256.295 Q3053.81 252.614 3053.81 246.364 Q3053.81 240.022 3057.28 236.387 Q3060.78 232.753 3066.84 232.753 Q3068.81 232.753 3070.69 233.17 Q3072.56 233.563 3074.32 234.374 Z" fill="#000000" fill-rule="nonzero" fill-opacity="1" /><path clip-path="url(#clip380)" d="M3085.94 226.017 L3085.94 233.378 L3094.71 233.378 L3094.71 236.688 L3085.94 236.688 L3085.94 250.762 Q3085.94 253.934 3086.8 254.836 Q3087.68 255.739 3090.34 255.739 L3094.71 255.739 L3094.71 259.304 L3090.34 259.304 Q3085.41 259.304 3083.53 257.475 Q3081.66 255.623 3081.66 250.762 L3081.66 236.688 L3078.53 236.688 L3078.53 233.378 L3081.66 233.378 L3081.66 226.017 L3085.94 226.017 Z" fill="#000000" fill-rule="nonzero" fill-opacity="1" /></svg>
