<?xml version="1.0" encoding="utf-8"?>
<svg xmlns="http://www.w3.org/2000/svg" xmlns:xlink="http://www.w3.org/1999/xlink" width="800" height="400" viewBox="0 0 3200 1600">
<defs>
  <clipPath id="clip350">
    <rect x="0" y="0" width="3200" height="1600"/>
  </clipPath>
</defs>
<path clip-path="url(#clip350)" d="M0 1600 L3200 1600 L3200 0 L0 0  Z" fill="#ffffff" fill-rule="evenodd" fill-opacity="1"/>
<defs>
  <clipPath id="clip351">
    <rect x="1846" y="95" width="1307" height="1290"/>
  </clipPath>
</defs>
<path clip-path="url(#clip350)" d="M199.821 1383.95 L1505.79 1383.95 L1505.79 95.3921 L199.821 95.3921  Z" fill="#ffffff" fill-rule="evenodd" fill-opacity="1"/>
<defs>
  <clipPath id="clip352">
    <rect x="199" y="95" width="1307" height="1290"/>
  </clipPath>
</defs>
<polyline clip-path="url(#clip352)" style="stroke:#000000; stroke-linecap:round; stroke-linejoin:round; stroke-width:2; stroke-opacity:0.1; fill:none" points="236.783,1383.95 236.783,95.3921 "/>
<polyline clip-path="url(#clip352)" style="stroke:#000000; stroke-linecap:round; stroke-linejoin:round; stroke-width:2; stroke-opacity:0.1; fill:none" points="544.794,1383.95 544.794,95.3921 "/>
<polyline clip-path="url(#clip352)" style="stroke:#000000; stroke-linecap:round; stroke-linejoin:round; stroke-width:2; stroke-opacity:0.1; fill:none" points="852.805,1383.95 852.805,95.3921 "/>
<polyline clip-path="url(#clip352)" style="stroke:#000000; stroke-linecap:round; stroke-linejoin:round; stroke-width:2; stroke-opacity:0.1; fill:none" points="1160.82,1383.95 1160.82,95.3921 "/>
<polyline clip-path="url(#clip352)" style="stroke:#000000; stroke-linecap:round; stroke-linejoin:round; stroke-width:2; stroke-opacity:0.1; fill:none" points="1468.83,1383.95 1468.83,95.3921 "/>
<polyline clip-path="url(#clip352)" style="stroke:#000000; stroke-linecap:round; stroke-linejoin:round; stroke-width:2; stroke-opacity:0.1; fill:none" points="199.821,1347.48 1505.79,1347.48 "/>
<polyline clip-path="url(#clip352)" style="stroke:#000000; stroke-linecap:round; stroke-linejoin:round; stroke-width:2; stroke-opacity:0.1; fill:none" points="199.821,993.748 1505.79,993.748 "/>
<polyline clip-path="url(#clip352)" style="stroke:#000000; stroke-linecap:round; stroke-linejoin:round; stroke-width:2; stroke-opacity:0.1; fill:none" points="199.821,640.018 1505.79,640.018 "/>
<polyline clip-path="url(#clip352)" style="stroke:#000000; stroke-linecap:round; stroke-linejoin:round; stroke-width:2; stroke-opacity:0.1; fill:none" points="199.821,286.287 1505.79,286.287 "/>
<polyline clip-path="url(#clip350)" style="stroke:#000000; stroke-linecap:round; stroke-linejoin:round; stroke-width:4; stroke-opacity:1; fill:none" points="199.821,1383.95 1505.79,1383.95 "/>
<polyline clip-path="url(#clip350)" style="stroke:#000000; stroke-linecap:round; stroke-linejoin:round; stroke-width:4; stroke-opacity:1; fill:none" points="236.783,1383.95 236.783,1365.05 "/>
<polyline clip-path="url(#clip350)" style="stroke:#000000; stroke-linecap:round; stroke-linejoin:round; stroke-width:4; stroke-opacity:1; fill:none" points="544.794,1383.95 544.794,1365.05 "/>
<polyline clip-path="url(#clip350)" style="stroke:#000000; stroke-linecap:round; stroke-linejoin:round; stroke-width:4; stroke-opacity:1; fill:none" points="852.805,1383.95 852.805,1365.05 "/>
<polyline clip-path="url(#clip350)" style="stroke:#000000; stroke-linecap:round; stroke-linejoin:round; stroke-width:4; stroke-opacity:1; fill:none" points="1160.82,1383.95 1160.82,1365.05 "/>
<polyline clip-path="url(#clip350)" style="stroke:#000000; stroke-linecap:round; stroke-linejoin:round; stroke-width:4; stroke-opacity:1; fill:none" points="1468.83,1383.95 1468.83,1365.05 "/>
<path clip-path="url(#clip350)" d="M214.167 1421.27 Q210.556 1421.27 208.727 1424.83 Q206.922 1428.37 206.922 1435.5 Q206.922 1442.61 208.727 1446.17 Q210.556 1449.72 214.167 1449.72 Q217.801 1449.72 219.607 1446.17 Q221.435 1442.61 221.435 1435.5 Q221.435 1428.37 219.607 1424.83 Q217.801 1421.27 214.167 1421.27 M214.167 1417.56 Q219.977 1417.56 223.033 1422.17 Q226.111 1426.75 226.111 1435.5 Q226.111 1444.23 223.033 1448.84 Q219.977 1453.42 214.167 1453.42 Q208.357 1453.42 205.278 1448.84 Q202.223 1444.23 202.223 1435.5 Q202.223 1426.75 205.278 1422.17 Q208.357 1417.56 214.167 1417.56 Z" fill="#000000" fill-rule="nonzero" fill-opacity="1" /><path clip-path="url(#clip350)" d="M234.329 1446.87 L239.213 1446.87 L239.213 1452.75 L234.329 1452.75 L234.329 1446.87 Z" fill="#000000" fill-rule="nonzero" fill-opacity="1" /><path clip-path="url(#clip350)" d="M259.398 1421.27 Q255.787 1421.27 253.958 1424.83 Q252.153 1428.37 252.153 1435.5 Q252.153 1442.61 253.958 1446.17 Q255.787 1449.72 259.398 1449.72 Q263.032 1449.72 264.838 1446.17 Q266.667 1442.61 266.667 1435.5 Q266.667 1428.37 264.838 1424.83 Q263.032 1421.27 259.398 1421.27 M259.398 1417.56 Q265.208 1417.56 268.264 1422.17 Q271.343 1426.75 271.343 1435.5 Q271.343 1444.23 268.264 1448.84 Q265.208 1453.42 259.398 1453.42 Q253.588 1453.42 250.509 1448.84 Q247.454 1444.23 247.454 1435.5 Q247.454 1426.75 250.509 1422.17 Q253.588 1417.56 259.398 1417.56 Z" fill="#000000" fill-rule="nonzero" fill-opacity="1" /><path clip-path="url(#clip350)" d="M522.676 1421.27 Q519.065 1421.27 517.236 1424.83 Q515.431 1428.37 515.431 1435.5 Q515.431 1442.61 517.236 1446.17 Q519.065 1449.72 522.676 1449.72 Q526.31 1449.72 528.116 1446.17 Q529.944 1442.61 529.944 1435.5 Q529.944 1428.37 528.116 1424.83 Q526.31 1421.27 522.676 1421.27 M522.676 1417.56 Q528.486 1417.56 531.542 1422.17 Q534.62 1426.75 534.62 1435.5 Q534.62 1444.23 531.542 1448.84 Q528.486 1453.42 522.676 1453.42 Q516.866 1453.42 513.787 1448.84 Q510.731 1444.23 510.731 1435.5 Q510.731 1426.75 513.787 1422.17 Q516.866 1417.56 522.676 1417.56 Z" fill="#000000" fill-rule="nonzero" fill-opacity="1" /><path clip-path="url(#clip350)" d="M542.838 1446.87 L547.722 1446.87 L547.722 1452.75 L542.838 1452.75 L542.838 1446.87 Z" fill="#000000" fill-rule="nonzero" fill-opacity="1" /><path clip-path="url(#clip350)" d="M557.953 1418.19 L576.31 1418.19 L576.31 1422.12 L562.236 1422.12 L562.236 1430.6 Q563.254 1430.25 564.273 1430.09 Q565.291 1429.9 566.31 1429.9 Q572.097 1429.9 575.476 1433.07 Q578.856 1436.24 578.856 1441.66 Q578.856 1447.24 575.384 1450.34 Q571.912 1453.42 565.592 1453.42 Q563.416 1453.42 561.148 1453.05 Q558.903 1452.68 556.495 1451.94 L556.495 1447.24 Q558.578 1448.37 560.801 1448.93 Q563.023 1449.48 565.5 1449.48 Q569.504 1449.48 571.842 1447.38 Q574.18 1445.27 574.18 1441.66 Q574.18 1438.05 571.842 1435.94 Q569.504 1433.84 565.5 1433.84 Q563.625 1433.84 561.75 1434.25 Q559.898 1434.67 557.953 1435.55 L557.953 1418.19 Z" fill="#000000" fill-rule="nonzero" fill-opacity="1" /><path clip-path="url(#clip350)" d="M819.958 1448.81 L827.597 1448.81 L827.597 1422.45 L819.287 1424.11 L819.287 1419.85 L827.55 1418.19 L832.226 1418.19 L832.226 1448.81 L839.865 1448.81 L839.865 1452.75 L819.958 1452.75 L819.958 1448.81 Z" fill="#000000" fill-rule="nonzero" fill-opacity="1" /><path clip-path="url(#clip350)" d="M849.31 1446.87 L854.194 1446.87 L854.194 1452.75 L849.31 1452.75 L849.31 1446.87 Z" fill="#000000" fill-rule="nonzero" fill-opacity="1" /><path clip-path="url(#clip350)" d="M874.379 1421.27 Q870.768 1421.27 868.939 1424.83 Q867.134 1428.37 867.134 1435.5 Q867.134 1442.61 868.939 1446.17 Q870.768 1449.72 874.379 1449.72 Q878.013 1449.72 879.819 1446.17 Q881.647 1442.61 881.647 1435.5 Q881.647 1428.37 879.819 1424.83 Q878.013 1421.27 874.379 1421.27 M874.379 1417.56 Q880.189 1417.56 883.245 1422.17 Q886.323 1426.75 886.323 1435.5 Q886.323 1444.23 883.245 1448.84 Q880.189 1453.42 874.379 1453.42 Q868.569 1453.42 865.49 1448.84 Q862.435 1444.23 862.435 1435.5 Q862.435 1426.75 865.49 1422.17 Q868.569 1417.56 874.379 1417.56 Z" fill="#000000" fill-rule="nonzero" fill-opacity="1" /><path clip-path="url(#clip350)" d="M1128.47 1448.81 L1136.11 1448.81 L1136.11 1422.45 L1127.8 1424.11 L1127.8 1419.85 L1136.06 1418.19 L1140.74 1418.19 L1140.74 1448.81 L1148.37 1448.81 L1148.37 1452.75 L1128.47 1452.75 L1128.47 1448.81 Z" fill="#000000" fill-rule="nonzero" fill-opacity="1" /><path clip-path="url(#clip350)" d="M1157.82 1446.87 L1162.7 1446.87 L1162.7 1452.75 L1157.82 1452.75 L1157.82 1446.87 Z" fill="#000000" fill-rule="nonzero" fill-opacity="1" /><path clip-path="url(#clip350)" d="M1172.93 1418.19 L1191.29 1418.19 L1191.29 1422.12 L1177.22 1422.12 L1177.22 1430.6 Q1178.24 1430.25 1179.25 1430.09 Q1180.27 1429.9 1181.29 1429.9 Q1187.08 1429.9 1190.46 1433.07 Q1193.84 1436.24 1193.84 1441.66 Q1193.84 1447.24 1190.36 1450.34 Q1186.89 1453.42 1180.57 1453.42 Q1178.4 1453.42 1176.13 1453.05 Q1173.88 1452.68 1171.48 1451.94 L1171.48 1447.24 Q1173.56 1448.37 1175.78 1448.93 Q1178 1449.48 1180.48 1449.48 Q1184.48 1449.48 1186.82 1447.38 Q1189.16 1445.27 1189.16 1441.66 Q1189.16 1438.05 1186.82 1435.94 Q1184.48 1433.84 1180.48 1433.84 Q1178.61 1433.84 1176.73 1434.25 Q1174.88 1434.67 1172.93 1435.55 L1172.93 1418.19 Z" fill="#000000" fill-rule="nonzero" fill-opacity="1" /><path clip-path="url(#clip350)" d="M1440.07 1448.81 L1456.39 1448.81 L1456.39 1452.75 L1434.44 1452.75 L1434.44 1448.81 Q1437.1 1446.06 1441.69 1441.43 Q1446.29 1436.78 1447.47 1435.43 Q1449.72 1432.91 1450.6 1431.17 Q1451.5 1429.41 1451.5 1427.72 Q1451.5 1424.97 1449.56 1423.23 Q1447.64 1421.5 1444.53 1421.5 Q1442.33 1421.5 1439.88 1422.26 Q1437.45 1423.03 1434.67 1424.58 L1434.67 1419.85 Q1437.5 1418.72 1439.95 1418.14 Q1442.4 1417.56 1444.44 1417.56 Q1449.81 1417.56 1453.01 1420.25 Q1456.2 1422.93 1456.2 1427.42 Q1456.2 1429.55 1455.39 1431.47 Q1454.6 1433.37 1452.5 1435.97 Q1451.92 1436.64 1448.82 1439.85 Q1445.71 1443.05 1440.07 1448.81 Z" fill="#000000" fill-rule="nonzero" fill-opacity="1" /><path clip-path="url(#clip350)" d="M1466.2 1446.87 L1471.08 1446.87 L1471.08 1452.75 L1466.2 1452.75 L1466.2 1446.87 Z" fill="#000000" fill-rule="nonzero" fill-opacity="1" /><path clip-path="url(#clip350)" d="M1491.27 1421.27 Q1487.66 1421.27 1485.83 1424.83 Q1484.02 1428.37 1484.02 1435.5 Q1484.02 1442.61 1485.83 1446.17 Q1487.66 1449.72 1491.27 1449.72 Q1494.9 1449.72 1496.71 1446.17 Q1498.54 1442.61 1498.54 1435.5 Q1498.54 1428.37 1496.71 1424.83 Q1494.9 1421.27 1491.27 1421.27 M1491.27 1417.56 Q1497.08 1417.56 1500.13 1422.17 Q1503.21 1426.75 1503.21 1435.5 Q1503.21 1444.23 1500.13 1448.84 Q1497.08 1453.42 1491.27 1453.42 Q1485.46 1453.42 1482.38 1448.84 Q1479.32 1444.23 1479.32 1435.5 Q1479.32 1426.75 1482.38 1422.17 Q1485.46 1417.56 1491.27 1417.56 Z" fill="#000000" fill-rule="nonzero" fill-opacity="1" /><path clip-path="url(#clip350)" d="M851.951 1494.02 L851.951 1503.22 L862.918 1503.22 L862.918 1507.36 L851.951 1507.36 L851.951 1524.95 Q851.951 1528.91 853.022 1530.04 Q854.121 1531.17 857.449 1531.17 L862.918 1531.17 L862.918 1535.63 L857.449 1535.63 Q851.286 1535.63 848.942 1533.34 Q846.598 1531.03 846.598 1524.95 L846.598 1507.36 L842.692 1507.36 L842.692 1503.22 L846.598 1503.22 L846.598 1494.02 L851.951 1494.02 Z" fill="#000000" fill-rule="nonzero" fill-opacity="1" /><polyline clip-path="url(#clip350)" style="stroke:#000000; stroke-linecap:round; stroke-linejoin:round; stroke-width:4; stroke-opacity:1; fill:none" points="199.821,1383.95 199.821,95.3921 "/>
<polyline clip-path="url(#clip350)" style="stroke:#000000; stroke-linecap:round; stroke-linejoin:round; stroke-width:4; stroke-opacity:1; fill:none" points="199.821,1347.48 218.719,1347.48 "/>
<polyline clip-path="url(#clip350)" style="stroke:#000000; stroke-linecap:round; stroke-linejoin:round; stroke-width:4; stroke-opacity:1; fill:none" points="199.821,993.748 218.719,993.748 "/>
<polyline clip-path="url(#clip350)" style="stroke:#000000; stroke-linecap:round; stroke-linejoin:round; stroke-width:4; stroke-opacity:1; fill:none" points="199.821,640.018 218.719,640.018 "/>
<polyline clip-path="url(#clip350)" style="stroke:#000000; stroke-linecap:round; stroke-linejoin:round; stroke-width:4; stroke-opacity:1; fill:none" points="199.821,286.287 218.719,286.287 "/>
<path clip-path="url(#clip350)" d="M135.502 1360.82 L151.821 1360.82 L151.821 1364.76 L129.877 1364.76 L129.877 1360.82 Q132.539 1358.07 137.122 1353.44 Q141.729 1348.79 142.909 1347.44 Q145.155 1344.92 146.034 1343.19 Q146.937 1341.43 146.937 1339.74 Q146.937 1336.98 144.993 1335.25 Q143.071 1333.51 139.969 1333.51 Q137.77 1333.51 135.317 1334.27 Q132.886 1335.04 130.108 1336.59 L130.108 1331.87 Q132.932 1330.73 135.386 1330.15 Q137.84 1329.57 139.877 1329.57 Q145.247 1329.57 148.442 1332.26 Q151.636 1334.94 151.636 1339.44 Q151.636 1341.56 150.826 1343.49 Q150.039 1345.38 147.932 1347.98 Q147.354 1348.65 144.252 1351.87 Q141.15 1355.06 135.502 1360.82 Z" fill="#000000" fill-rule="nonzero" fill-opacity="1" /><path clip-path="url(#clip350)" d="M144.692 992.394 Q148.048 993.112 149.923 995.38 Q151.821 997.649 151.821 1000.98 Q151.821 1006.1 148.303 1008.9 Q144.784 1011.7 138.303 1011.7 Q136.127 1011.7 133.812 1011.26 Q131.52 1010.84 129.067 1009.99 L129.067 1005.47 Q131.011 1006.61 133.326 1007.19 Q135.641 1007.76 138.164 1007.76 Q142.562 1007.76 144.854 1006.03 Q147.169 1004.29 147.169 1000.98 Q147.169 997.927 145.016 996.214 Q142.886 994.478 139.067 994.478 L135.039 994.478 L135.039 990.635 L139.252 990.635 Q142.701 990.635 144.53 989.269 Q146.358 987.88 146.358 985.288 Q146.358 982.626 144.46 981.214 Q142.585 979.779 139.067 979.779 Q137.145 979.779 134.946 980.195 Q132.747 980.612 130.108 981.491 L130.108 977.325 Q132.77 976.584 135.085 976.214 Q137.423 975.843 139.483 975.843 Q144.807 975.843 147.909 978.274 Q151.011 980.681 151.011 984.802 Q151.011 987.672 149.368 989.663 Q147.724 991.63 144.692 992.394 Z" fill="#000000" fill-rule="nonzero" fill-opacity="1" /><path clip-path="url(#clip350)" d="M142.238 626.812 L130.432 645.261 L142.238 645.261 L142.238 626.812 M141.011 622.738 L146.891 622.738 L146.891 645.261 L151.821 645.261 L151.821 649.149 L146.891 649.149 L146.891 657.298 L142.238 657.298 L142.238 649.149 L126.636 649.149 L126.636 644.636 L141.011 622.738 Z" fill="#000000" fill-rule="nonzero" fill-opacity="1" /><path clip-path="url(#clip350)" d="M130.919 269.007 L149.275 269.007 L149.275 272.942 L135.201 272.942 L135.201 281.414 Q136.22 281.067 137.238 280.905 Q138.257 280.72 139.275 280.72 Q145.062 280.72 148.442 283.891 Q151.821 287.062 151.821 292.479 Q151.821 298.057 148.349 301.159 Q144.877 304.238 138.557 304.238 Q136.382 304.238 134.113 303.868 Q131.868 303.497 129.46 302.757 L129.46 298.057 Q131.544 299.192 133.766 299.747 Q135.988 300.303 138.465 300.303 Q142.469 300.303 144.807 298.196 Q147.145 296.09 147.145 292.479 Q147.145 288.868 144.807 286.761 Q142.469 284.655 138.465 284.655 Q136.59 284.655 134.715 285.071 Q132.863 285.488 130.919 286.368 L130.919 269.007 Z" fill="#000000" fill-rule="nonzero" fill-opacity="1" /><path clip-path="url(#clip350)" d="M33.269 724.566 L49.0386 736.285 L65.6762 723.958 L65.6762 730.237 L52.9448 739.67 L65.6762 749.103 L65.6762 755.382 L48.7203 742.795 L33.269 754.311 L33.269 748.032 L44.8141 739.438 L33.269 730.845 L33.269 724.566 Z" fill="#000000" fill-rule="nonzero" fill-opacity="1" /><path clip-path="url(#clip350)" d="M803.963 20.3876 L803.963 25.4223 Q801.706 24.2649 799.275 23.6862 Q796.845 23.1075 794.24 23.1075 Q790.276 23.1075 788.28 24.3228 Q786.312 25.5381 786.312 27.9686 Q786.312 29.8204 787.73 30.891 Q789.148 31.9327 793.43 32.8876 L795.253 33.2926 Q800.924 34.5079 803.297 36.7359 Q805.699 38.935 805.699 42.8991 Q805.699 47.4129 802.111 50.046 Q798.552 52.6791 792.302 52.6791 Q789.698 52.6791 786.862 52.1583 Q784.055 51.6664 780.93 50.6537 L780.93 45.156 Q783.882 46.6896 786.746 47.4708 Q789.611 48.2231 792.418 48.2231 Q796.179 48.2231 798.205 46.95 Q800.23 45.6479 800.23 43.3042 Q800.23 41.134 798.754 39.9766 Q797.308 38.8192 792.36 37.7486 L790.508 37.3146 Q785.56 36.273 783.361 34.1318 Q781.162 31.9616 781.162 28.2001 Q781.162 23.6283 784.403 21.1399 Q787.643 18.6515 793.604 18.6515 Q796.555 18.6515 799.159 19.0855 Q801.764 19.5196 803.963 20.3876 Z" fill="#000000" fill-rule="nonzero" fill-opacity="1" /><path clip-path="url(#clip350)" d="M819.443 10.2314 L819.443 19.4328 L830.409 19.4328 L830.409 23.5705 L819.443 23.5705 L819.443 41.163 Q819.443 45.1271 820.513 46.2555 Q821.613 47.384 824.941 47.384 L830.409 47.384 L830.409 51.84 L824.941 51.84 Q818.777 51.84 816.434 49.5541 Q814.09 47.2393 814.09 41.163 L814.09 23.5705 L810.184 23.5705 L810.184 19.4328 L814.09 19.4328 L814.09 10.2314 L819.443 10.2314 Z" fill="#000000" fill-rule="nonzero" fill-opacity="1" /><path clip-path="url(#clip350)" d="M852.139 35.5496 Q845.687 35.5496 843.199 37.0253 Q840.71 38.501 840.71 42.06 Q840.71 44.8956 842.562 46.5738 Q844.443 48.2231 847.655 48.2231 Q852.082 48.2231 854.744 45.0981 Q857.435 41.9442 857.435 36.7359 L857.435 35.5496 L852.139 35.5496 M862.759 33.3505 L862.759 51.84 L857.435 51.84 L857.435 46.921 Q855.612 49.8724 852.892 51.2902 Q850.172 52.6791 846.237 52.6791 Q841.26 52.6791 838.309 49.9014 Q835.386 47.0947 835.386 42.4072 Q835.386 36.9385 839.032 34.1607 Q842.707 31.3829 849.969 31.3829 L857.435 31.3829 L857.435 30.8621 Q857.435 27.1874 855.004 25.1908 Q852.602 23.1654 848.233 23.1654 Q845.455 23.1654 842.822 23.8309 Q840.189 24.4964 837.759 25.8274 L837.759 20.9085 Q840.681 19.78 843.43 19.2302 Q846.179 18.6515 848.783 18.6515 Q855.814 18.6515 859.286 22.2973 Q862.759 25.9431 862.759 33.3505 Z" fill="#000000" fill-rule="nonzero" fill-opacity="1" /><path clip-path="url(#clip350)" d="M878.991 10.2314 L878.991 19.4328 L889.958 19.4328 L889.958 23.5705 L878.991 23.5705 L878.991 41.163 Q878.991 45.1271 880.062 46.2555 Q881.161 47.384 884.489 47.384 L889.958 47.384 L889.958 51.84 L884.489 51.84 Q878.326 51.84 875.982 49.5541 Q873.638 47.2393 873.638 41.163 L873.638 23.5705 L869.732 23.5705 L869.732 19.4328 L873.638 19.4328 L873.638 10.2314 L878.991 10.2314 Z" fill="#000000" fill-rule="nonzero" fill-opacity="1" /><path clip-path="url(#clip350)" d="M924.68 34.3054 L924.68 36.9095 L900.201 36.9095 Q900.548 42.4072 903.499 45.3007 Q906.479 48.1653 911.775 48.1653 Q914.842 48.1653 917.706 47.4129 Q920.6 46.6606 923.435 45.156 L923.435 50.1907 Q920.571 51.406 917.562 52.0425 Q914.552 52.6791 911.456 52.6791 Q903.702 52.6791 899.159 48.1653 Q894.645 43.6514 894.645 35.9547 Q894.645 27.9975 898.927 23.339 Q903.239 18.6515 910.53 18.6515 Q917.07 18.6515 920.86 22.876 Q924.68 27.0716 924.68 34.3054 M919.356 32.7429 Q919.298 28.3737 916.896 25.7695 Q914.523 23.1654 910.588 23.1654 Q906.132 23.1654 903.441 25.6827 Q900.779 28.2001 900.374 32.7718 L919.356 32.7429 Z" fill="#000000" fill-rule="nonzero" fill-opacity="1" /><polyline clip-path="url(#clip352)" style="stroke:#000000; stroke-linecap:round; stroke-linejoin:round; stroke-width:4; stroke-opacity:1; fill:none" stroke-dasharray="16, 10" points="236.783,2672.5 236.783,-1193.16 "/>
<polyline clip-path="url(#clip352)" style="stroke:#000000; stroke-linecap:round; stroke-linejoin:round; stroke-width:4; stroke-opacity:1; fill:none" stroke-dasharray="16, 10" points="1468.83,2672.5 1468.83,-1193.16 "/>
<polyline clip-path="url(#clip352)" style="stroke:#009af9; stroke-linecap:round; stroke-linejoin:round; stroke-width:8; stroke-opacity:1; fill:none" points="236.783,1347.48 241.711,1344.66 246.639,1341.84 251.567,1339 256.495,1336.15 261.424,1333.29 266.352,1330.41 271.28,1327.53 276.208,1324.63 281.136,1321.73 286.064,1318.81 290.993,1315.88 295.921,1312.93 300.849,1309.98 305.777,1307.01 310.705,1304.04 315.633,1301.05 320.562,1298.05 325.49,1295.03 330.418,1292.01 335.346,1288.97 340.274,1285.92 345.203,1282.86 350.131,1279.79 355.059,1276.7 359.987,1273.6 364.915,1270.49 369.843,1267.37 374.772,1264.24 379.7,1261.09 384.628,1257.93 389.556,1254.75 394.484,1251.57 399.413,1248.37 404.341,1245.16 409.269,1241.94 414.197,1238.7 419.125,1235.45 424.053,1232.19 428.982,1228.91 433.91,1225.62 438.838,1222.32 443.766,1219.01 448.694,1215.68 453.622,1212.34 458.551,1208.99 463.479,1205.62 468.407,1202.24 473.335,1198.84 478.263,1195.43 483.192,1192.01 488.12,1188.58 493.048,1185.13 497.976,1181.67 502.904,1178.19 507.832,1174.7 512.761,1171.2 517.689,1167.68 522.617,1164.15 527.545,1160.6 532.473,1157.04 537.402,1153.46 542.33,1149.88 547.258,1146.27 552.186,1142.66 557.114,1139.02 562.042,1135.38 566.971,1131.72 571.899,1128.04 576.827,1124.35 581.755,1120.65 586.683,1116.93 591.611,1113.19 596.54,1109.45 601.468,1105.68 606.396,1101.9 611.324,1098.11 616.252,1094.3 621.181,1090.48 626.109,1086.64 631.037,1082.78 635.965,1078.91 640.893,1075.03 645.821,1071.13 650.75,1067.21 655.678,1063.28 660.606,1059.33 665.534,1055.37 670.462,1051.39 675.391,1047.39 680.319,1043.38 685.247,1039.35 690.175,1035.31 695.103,1031.25 700.031,1027.18 704.96,1023.09 709.888,1018.98 714.816,1014.85 719.744,1010.71 724.672,1006.56 729.6,1002.38 734.529,998.193 739.457,993.986 744.385,989.763 749.313,985.523 754.241,981.265 759.17,976.991 764.098,972.7 769.026,968.392 773.954,964.067 778.882,959.724 783.81,955.364 788.739,950.987 793.667,946.592 798.595,942.18 803.523,937.75 808.451,933.303 813.38,928.838 818.308,924.355 823.236,919.854 828.164,915.336 833.092,910.799 838.02,906.244 842.949,901.672 847.877,897.081 852.805,892.471 857.733,887.844 862.661,883.198 867.589,878.533 872.518,873.85 877.446,869.148 882.374,864.428 887.302,859.689 892.23,854.93 897.159,850.153 902.087,845.357 907.015,840.542 911.943,835.708 916.871,830.854 921.799,825.981 926.728,821.089 931.656,816.177 936.584,811.246 941.512,806.295 946.44,801.324 951.369,796.334 956.297,791.323 961.225,786.293 966.153,781.243 971.081,776.172 976.009,771.082 980.938,765.971 985.866,760.84 990.794,755.688 995.722,750.516 1000.65,745.323 1005.58,740.11 1010.51,734.876 1015.43,729.621 1020.36,724.345 1025.29,719.048 1030.22,713.73 1035.15,708.391 1040.08,703.03 1045,697.649 1049.93,692.246 1054.86,686.821 1059.79,681.375 1064.72,675.907 1069.64,670.417 1074.57,664.905 1079.5,659.372 1084.43,653.816 1089.36,648.239 1094.29,642.639 1099.21,637.016 1104.14,631.372 1109.07,625.705 1114,620.015 1118.93,614.303 1123.85,608.568 1128.78,602.81 1133.71,597.03 1138.64,591.226 1143.57,585.399 1148.5,579.549 1153.42,573.676 1158.35,567.779 1163.28,561.859 1168.21,555.915 1173.14,549.948 1178.06,543.957 1182.99,537.942 1187.92,531.903 1192.85,525.84 1197.78,519.753 1202.71,513.641 1207.63,507.506 1212.56,501.345 1217.49,495.161 1222.42,488.952 1227.35,482.718 1232.27,476.459 1237.2,470.175 1242.13,463.866 1247.06,457.533 1251.99,451.173 1256.92,444.789 1261.84,438.379 1266.77,431.944 1271.7,425.483 1276.63,418.997 1281.56,412.484 1286.48,405.946 1291.41,399.381 1296.34,392.791 1301.27,386.174 1306.2,379.531 1311.13,372.861 1316.05,366.165 1320.98,359.442 1325.91,352.693 1330.84,345.917 1335.77,339.113 1340.69,332.283 1345.62,325.425 1350.55,318.54 1355.48,311.628 1360.41,304.688 1365.34,297.72 1370.26,290.725 1375.19,283.702 1380.12,276.651 1385.05,269.572 1389.98,262.465 1394.9,255.329 1399.83,248.165 1404.76,240.973 1409.69,233.751 1414.62,226.502 1419.55,219.223 1424.47,211.915 1429.4,204.578 1434.33,197.212 1439.26,189.817 1444.19,182.392 1449.11,174.938 1454.04,167.454 1458.97,159.94 1463.9,152.396 1468.83,144.823 "/>
<polyline clip-path="url(#clip352)" style="stroke:#000000; stroke-linecap:round; stroke-linejoin:round; stroke-width:8; stroke-opacity:1; fill:none" stroke-dasharray="4, 8" points="236.783,1347.48 241.711,1337.54 246.639,1327.67 251.567,1317.92 256.495,1308.38 261.424,1299.11 266.352,1290.16 271.28,1281.61 276.208,1273.52 281.136,1265.92 286.064,1258.87 290.993,1252.42 295.921,1246.59 300.849,1241.42 305.777,1236.93 310.705,1233.13 315.633,1230.03 320.562,1227.63 325.49,1225.92 330.418,1224.9 335.346,1224.54 340.274,1224.82 345.203,1225.69 350.131,1227.13 355.059,1229.08 359.987,1231.49 364.915,1234.31 369.843,1237.48 374.772,1240.93 379.7,1244.6 384.628,1248.41 389.556,1252.31 394.484,1256.2 399.413,1260.03 404.341,1263.73 409.269,1267.21 414.197,1270.42 419.125,1273.29 424.053,1275.75 428.982,1277.75 433.91,1279.24 438.838,1280.16 443.766,1280.48 448.694,1280.15 453.622,1279.15 458.551,1277.45 463.479,1275.03 468.407,1271.89 473.335,1268.02 478.263,1263.43 483.192,1258.13 488.12,1252.13 493.048,1245.47 497.976,1238.17 502.904,1230.27 507.832,1221.82 512.761,1212.86 517.689,1203.46 522.617,1193.67 527.545,1183.55 532.473,1173.17 537.402,1162.6 542.33,1151.91 547.258,1141.17 552.186,1130.45 557.114,1119.82 562.042,1109.35 566.971,1099.12 571.899,1089.18 576.827,1079.61 581.755,1070.45 586.683,1061.77 591.611,1053.61 596.54,1046.01 601.468,1039.03 606.396,1032.68 611.324,1027 616.252,1022 621.181,1017.7 626.109,1014.09 631.037,1011.18 635.965,1008.96 640.893,1007.4 645.821,1006.5 650.75,1006.2 655.678,1006.48 660.606,1007.3 665.534,1008.6 670.462,1010.34 675.391,1012.45 680.319,1014.87 685.247,1017.54 690.175,1020.39 695.103,1023.34 700.031,1026.34 704.96,1029.3 709.888,1032.15 714.816,1034.83 719.744,1037.26 724.672,1039.37 729.6,1041.12 734.529,1042.42 739.457,1043.23 744.385,1043.5 749.313,1043.18 754.241,1042.22 759.17,1040.61 764.098,1038.3 769.026,1035.28 773.954,1031.54 778.882,1027.07 783.81,1021.86 788.739,1015.93 793.667,1009.3 798.595,1001.98 803.523,994.002 808.451,985.404 813.38,976.227 818.308,966.517 823.236,956.326 828.164,945.712 833.092,934.736 838.02,923.462 842.949,911.956 847.877,900.29 852.805,888.534 857.733,876.759 862.661,865.036 867.589,853.438 872.518,842.033 877.446,830.889 882.374,820.069 887.302,809.636 892.23,799.646 897.159,790.151 902.087,781.199 907.015,772.83 911.943,765.081 916.871,757.979 921.799,751.547 926.728,745.801 931.656,740.747 936.584,736.388 941.512,732.716 946.44,729.718 951.369,727.374 956.297,725.656 961.225,724.53 966.153,723.957 971.081,723.89 976.009,724.278 980.938,725.066 985.866,726.192 990.794,727.594 995.722,729.204 1000.65,730.954 1005.58,732.772 1010.51,734.586 1015.43,736.326 1020.36,737.92 1025.29,739.297 1030.22,740.389 1035.15,741.132 1040.08,741.463 1045,741.323 1049.93,740.66 1054.86,739.425 1059.79,737.574 1064.72,735.071 1069.64,731.884 1074.57,727.991 1079.5,723.374 1084.43,718.022 1089.36,711.934 1094.29,705.113 1099.21,697.572 1104.14,689.328 1109.07,680.407 1114,670.842 1118.93,660.671 1123.85,649.937 1128.78,638.691 1133.71,626.988 1138.64,614.886 1143.57,602.448 1148.5,589.741 1153.42,576.832 1158.35,563.791 1163.28,550.692 1168.21,537.603 1173.14,524.599 1178.06,511.747 1182.99,499.118 1187.92,486.776 1192.85,474.785 1197.78,463.204 1202.71,452.087 1207.63,441.484 1212.56,431.439 1217.49,421.992 1222.42,413.172 1227.35,405.007 1232.27,397.515 1237.2,390.708 1242.13,384.589 1247.06,379.156 1251.99,374.399 1256.92,370.302 1261.84,366.839 1266.77,363.98 1271.7,361.689 1276.63,359.922 1281.56,358.631 1286.48,357.761 1291.41,357.256 1296.34,357.052 1301.27,357.084 1306.2,357.285 1311.13,357.583 1316.05,357.908 1320.98,358.189 1325.91,358.352 1330.84,358.328 1335.77,358.046 1340.69,357.442 1345.62,356.45 1350.55,355.009 1355.48,353.066 1360.41,350.567 1365.34,347.468 1370.26,343.727 1375.19,339.312 1380.12,334.195 1385.05,328.354 1389.98,321.778 1394.9,314.459 1399.83,306.398 1404.76,297.602 1409.69,288.088 1414.62,277.878 1419.55,266.999 1424.47,255.487 1429.4,243.384 1434.33,230.737 1439.26,217.597 1444.19,204.022 1449.11,190.073 1454.04,175.814 1458.97,161.313 1463.9,146.638 1468.83,131.861 "/>
<path clip-path="url(#clip350)" d="M243.354 293.864 L510.107 293.864 L510.107 138.344 L243.354 138.344  Z" fill="#ffffff" fill-rule="evenodd" fill-opacity="1"/>
<polyline clip-path="url(#clip350)" style="stroke:#000000; stroke-linecap:round; stroke-linejoin:round; stroke-width:4; stroke-opacity:1; fill:none" points="243.354,293.864 510.107,293.864 510.107,138.344 243.354,138.344 243.354,293.864 "/>
<polyline clip-path="url(#clip350)" style="stroke:#009af9; stroke-linecap:round; stroke-linejoin:round; stroke-width:8; stroke-opacity:1; fill:none" points="257.864,190.184 344.929,190.184 "/>
<path clip-path="url(#clip350)" d="M364.115 176.747 L364.115 203.621 L369.764 203.621 Q376.916 203.621 380.226 200.381 Q383.56 197.14 383.56 190.149 Q383.56 183.205 380.226 179.987 Q376.916 176.747 369.764 176.747 L364.115 176.747 M359.44 172.904 L369.046 172.904 Q379.092 172.904 383.791 177.094 Q388.49 181.26 388.49 190.149 Q388.49 199.084 383.768 203.274 Q379.046 207.464 369.046 207.464 L359.44 207.464 L359.44 172.904 Z" fill="#000000" fill-rule="nonzero" fill-opacity="1" /><path clip-path="url(#clip350)" d="M395.759 181.538 L400.018 181.538 L400.018 207.464 L395.759 207.464 L395.759 181.538 M395.759 171.446 L400.018 171.446 L400.018 176.839 L395.759 176.839 L395.759 171.446 Z" fill="#000000" fill-rule="nonzero" fill-opacity="1" /><path clip-path="url(#clip350)" d="M423.953 185.52 Q423.235 185.103 422.379 184.918 Q421.546 184.709 420.527 184.709 Q416.916 184.709 414.972 187.071 Q413.05 189.409 413.05 193.807 L413.05 207.464 L408.768 207.464 L408.768 181.538 L413.05 181.538 L413.05 185.566 Q414.393 183.205 416.546 182.071 Q418.698 180.913 421.777 180.913 Q422.217 180.913 422.749 180.983 Q423.282 181.029 423.93 181.145 L423.953 185.52 Z" fill="#000000" fill-rule="nonzero" fill-opacity="1" /><path clip-path="url(#clip350)" d="M449.555 193.436 L449.555 195.52 L429.972 195.52 Q430.249 199.918 432.61 202.233 Q434.995 204.524 439.231 204.524 Q441.684 204.524 443.976 203.922 Q446.291 203.32 448.559 202.117 L448.559 206.145 Q446.268 207.117 443.86 207.626 Q441.453 208.135 438.976 208.135 Q432.772 208.135 429.138 204.524 Q425.527 200.913 425.527 194.756 Q425.527 188.39 428.953 184.663 Q432.402 180.913 438.235 180.913 Q443.467 180.913 446.499 184.293 Q449.555 187.649 449.555 193.436 M445.296 192.186 Q445.249 188.691 443.328 186.608 Q441.43 184.524 438.282 184.524 Q434.717 184.524 432.564 186.538 Q430.434 188.552 430.11 192.209 L445.296 192.186 Z" fill="#000000" fill-rule="nonzero" fill-opacity="1" /><path clip-path="url(#clip350)" d="M475.203 182.534 L475.203 186.515 Q473.397 185.52 471.569 185.034 Q469.763 184.524 467.911 184.524 Q463.768 184.524 461.476 187.163 Q459.184 189.779 459.184 194.524 Q459.184 199.27 461.476 201.908 Q463.768 204.524 467.911 204.524 Q469.763 204.524 471.569 204.038 Q473.397 203.529 475.203 202.533 L475.203 206.469 Q473.42 207.302 471.499 207.719 Q469.601 208.135 467.448 208.135 Q461.592 208.135 458.143 204.455 Q454.694 200.774 454.694 194.524 Q454.694 188.182 458.166 184.547 Q461.661 180.913 467.726 180.913 Q469.694 180.913 471.569 181.33 Q473.444 181.723 475.203 182.534 Z" fill="#000000" fill-rule="nonzero" fill-opacity="1" /><path clip-path="url(#clip350)" d="M486.823 174.177 L486.823 181.538 L495.596 181.538 L495.596 184.848 L486.823 184.848 L486.823 198.922 Q486.823 202.094 487.68 202.996 Q488.559 203.899 491.221 203.899 L495.596 203.899 L495.596 207.464 L491.221 207.464 Q486.291 207.464 484.416 205.635 Q482.541 203.783 482.541 198.922 L482.541 184.848 L479.416 184.848 L479.416 181.538 L482.541 181.538 L482.541 174.177 L486.823 174.177 Z" fill="#000000" fill-rule="nonzero" fill-opacity="1" /><polyline clip-path="url(#clip350)" style="stroke:#000000; stroke-linecap:round; stroke-linejoin:round; stroke-width:8; stroke-opacity:1; fill:none" stroke-dasharray="4, 8" points="257.864,242.024 344.929,242.024 "/>
<path clip-path="url(#clip350)" d="M364.115 228.587 L364.115 255.461 L369.764 255.461 Q376.916 255.461 380.226 252.221 Q383.56 248.98 383.56 241.989 Q383.56 235.045 380.226 231.827 Q376.916 228.587 369.764 228.587 L364.115 228.587 M359.44 224.744 L369.046 224.744 Q379.092 224.744 383.791 228.934 Q388.49 233.1 388.49 241.989 Q388.49 250.924 383.768 255.114 Q379.046 259.304 369.046 259.304 L359.44 259.304 L359.44 224.744 Z" fill="#000000" fill-rule="nonzero" fill-opacity="1" /><path clip-path="url(#clip350)" d="M407.541 246.272 Q402.379 246.272 400.388 247.452 Q398.398 248.633 398.398 251.48 Q398.398 253.748 399.879 255.091 Q401.384 256.41 403.953 256.41 Q407.495 256.41 409.624 253.91 Q411.777 251.387 411.777 247.221 L411.777 246.272 L407.541 246.272 M416.036 244.512 L416.036 259.304 L411.777 259.304 L411.777 255.369 Q410.319 257.73 408.143 258.864 Q405.967 259.975 402.819 259.975 Q398.837 259.975 396.476 257.753 Q394.138 255.508 394.138 251.758 Q394.138 247.383 397.055 245.161 Q399.995 242.938 405.805 242.938 L411.777 242.938 L411.777 242.522 Q411.777 239.582 409.833 237.985 Q407.911 236.364 404.416 236.364 Q402.194 236.364 400.087 236.897 Q397.981 237.429 396.037 238.494 L396.037 234.559 Q398.374 233.656 400.574 233.216 Q402.773 232.753 404.856 232.753 Q410.481 232.753 413.259 235.67 Q416.036 238.586 416.036 244.512 Z" fill="#000000" fill-rule="nonzero" fill-opacity="1" /><path clip-path="url(#clip350)" d="M429.022 226.017 L429.022 233.378 L437.796 233.378 L437.796 236.688 L429.022 236.688 L429.022 250.762 Q429.022 253.934 429.879 254.836 Q430.759 255.739 433.421 255.739 L437.796 255.739 L437.796 259.304 L433.421 259.304 Q428.49 259.304 426.615 257.475 Q424.74 255.623 424.74 250.762 L424.74 236.688 L421.615 236.688 L421.615 233.378 L424.74 233.378 L424.74 226.017 L429.022 226.017 Z" fill="#000000" fill-rule="nonzero" fill-opacity="1" /><path clip-path="url(#clip350)" d="M455.18 246.272 Q450.018 246.272 448.027 247.452 Q446.036 248.633 446.036 251.48 Q446.036 253.748 447.518 255.091 Q449.022 256.41 451.592 256.41 Q455.133 256.41 457.263 253.91 Q459.416 251.387 459.416 247.221 L459.416 246.272 L455.18 246.272 M463.675 244.512 L463.675 259.304 L459.416 259.304 L459.416 255.369 Q457.957 257.73 455.782 258.864 Q453.606 259.975 450.458 259.975 Q446.476 259.975 444.115 257.753 Q441.777 255.508 441.777 251.758 Q441.777 247.383 444.694 245.161 Q447.633 242.938 453.444 242.938 L459.416 242.938 L459.416 242.522 Q459.416 239.582 457.471 237.985 Q455.55 236.364 452.055 236.364 Q449.833 236.364 447.726 236.897 Q445.62 237.429 443.675 238.494 L443.675 234.559 Q446.013 233.656 448.212 233.216 Q450.411 232.753 452.495 232.753 Q458.12 232.753 460.897 235.67 Q463.675 238.586 463.675 244.512 Z" fill="#000000" fill-rule="nonzero" fill-opacity="1" /><path clip-path="url(#clip350)" d="M1846.79 1383.95 L3152.76 1383.95 L3152.76 95.3921 L1846.79 95.3921  Z" fill="#ffffff" fill-rule="evenodd" fill-opacity="1"/>
<polyline clip-path="url(#clip351)" style="stroke:#000000; stroke-linecap:round; stroke-linejoin:round; stroke-width:2; stroke-opacity:0.1; fill:none" points="1883.75,1383.95 1883.75,95.3921 "/>
<polyline clip-path="url(#clip351)" style="stroke:#000000; stroke-linecap:round; stroke-linejoin:round; stroke-width:2; stroke-opacity:0.1; fill:none" points="2191.76,1383.95 2191.76,95.3921 "/>
<polyline clip-path="url(#clip351)" style="stroke:#000000; stroke-linecap:round; stroke-linejoin:round; stroke-width:2; stroke-opacity:0.1; fill:none" points="2499.77,1383.95 2499.77,95.3921 "/>
<polyline clip-path="url(#clip351)" style="stroke:#000000; stroke-linecap:round; stroke-linejoin:round; stroke-width:2; stroke-opacity:0.1; fill:none" points="2807.78,1383.95 2807.78,95.3921 "/>
<polyline clip-path="url(#clip351)" style="stroke:#000000; stroke-linecap:round; stroke-linejoin:round; stroke-width:2; stroke-opacity:0.1; fill:none" points="3115.79,1383.95 3115.79,95.3921 "/>
<polyline clip-path="url(#clip351)" style="stroke:#000000; stroke-linecap:round; stroke-linejoin:round; stroke-width:2; stroke-opacity:0.1; fill:none" points="1846.79,1340.86 3152.76,1340.86 "/>
<polyline clip-path="url(#clip351)" style="stroke:#000000; stroke-linecap:round; stroke-linejoin:round; stroke-width:2; stroke-opacity:0.1; fill:none" points="1846.79,1061.77 3152.76,1061.77 "/>
<polyline clip-path="url(#clip351)" style="stroke:#000000; stroke-linecap:round; stroke-linejoin:round; stroke-width:2; stroke-opacity:0.1; fill:none" points="1846.79,782.689 3152.76,782.689 "/>
<polyline clip-path="url(#clip351)" style="stroke:#000000; stroke-linecap:round; stroke-linejoin:round; stroke-width:2; stroke-opacity:0.1; fill:none" points="1846.79,503.604 3152.76,503.604 "/>
<polyline clip-path="url(#clip351)" style="stroke:#000000; stroke-linecap:round; stroke-linejoin:round; stroke-width:2; stroke-opacity:0.1; fill:none" points="1846.79,224.52 3152.76,224.52 "/>
<polyline clip-path="url(#clip350)" style="stroke:#000000; stroke-linecap:round; stroke-linejoin:round; stroke-width:4; stroke-opacity:1; fill:none" points="1846.79,1383.95 3152.76,1383.95 "/>
<polyline clip-path="url(#clip350)" style="stroke:#000000; stroke-linecap:round; stroke-linejoin:round; stroke-width:4; stroke-opacity:1; fill:none" points="1883.75,1383.95 1883.75,1365.05 "/>
<polyline clip-path="url(#clip350)" style="stroke:#000000; stroke-linecap:round; stroke-linejoin:round; stroke-width:4; stroke-opacity:1; fill:none" points="2191.76,1383.95 2191.76,1365.05 "/>
<polyline clip-path="url(#clip350)" style="stroke:#000000; stroke-linecap:round; stroke-linejoin:round; stroke-width:4; stroke-opacity:1; fill:none" points="2499.77,1383.95 2499.77,1365.05 "/>
<polyline clip-path="url(#clip350)" style="stroke:#000000; stroke-linecap:round; stroke-linejoin:round; stroke-width:4; stroke-opacity:1; fill:none" points="2807.78,1383.95 2807.78,1365.05 "/>
<polyline clip-path="url(#clip350)" style="stroke:#000000; stroke-linecap:round; stroke-linejoin:round; stroke-width:4; stroke-opacity:1; fill:none" points="3115.79,1383.95 3115.79,1365.05 "/>
<path clip-path="url(#clip350)" d="M1861.13 1421.27 Q1857.52 1421.27 1855.69 1424.83 Q1853.89 1428.37 1853.89 1435.5 Q1853.89 1442.61 1855.69 1446.17 Q1857.52 1449.72 1861.13 1449.72 Q1864.77 1449.72 1866.57 1446.17 Q1868.4 1442.61 1868.4 1435.5 Q1868.4 1428.37 1866.57 1424.83 Q1864.77 1421.27 1861.13 1421.27 M1861.13 1417.56 Q1866.94 1417.56 1870 1422.17 Q1873.08 1426.75 1873.08 1435.5 Q1873.08 1444.23 1870 1448.84 Q1866.94 1453.42 1861.13 1453.42 Q1855.32 1453.42 1852.25 1448.84 Q1849.19 1444.23 1849.19 1435.5 Q1849.19 1426.75 1852.25 1422.17 Q1855.32 1417.56 1861.13 1417.56 Z" fill="#000000" fill-rule="nonzero" fill-opacity="1" /><path clip-path="url(#clip350)" d="M1881.3 1446.87 L1886.18 1446.87 L1886.18 1452.75 L1881.3 1452.75 L1881.3 1446.87 Z" fill="#000000" fill-rule="nonzero" fill-opacity="1" /><path clip-path="url(#clip350)" d="M1906.37 1421.27 Q1902.75 1421.27 1900.93 1424.83 Q1899.12 1428.37 1899.12 1435.5 Q1899.12 1442.61 1900.93 1446.17 Q1902.75 1449.72 1906.37 1449.72 Q1910 1449.72 1911.81 1446.17 Q1913.63 1442.61 1913.63 1435.5 Q1913.63 1428.37 1911.81 1424.83 Q1910 1421.27 1906.37 1421.27 M1906.37 1417.56 Q1912.18 1417.56 1915.23 1422.17 Q1918.31 1426.75 1918.31 1435.5 Q1918.31 1444.23 1915.23 1448.84 Q1912.18 1453.42 1906.37 1453.42 Q1900.56 1453.42 1897.48 1448.84 Q1894.42 1444.23 1894.42 1435.5 Q1894.42 1426.75 1897.48 1422.17 Q1900.56 1417.56 1906.37 1417.56 Z" fill="#000000" fill-rule="nonzero" fill-opacity="1" /><path clip-path="url(#clip350)" d="M2169.64 1421.27 Q2166.03 1421.27 2164.2 1424.83 Q2162.4 1428.37 2162.4 1435.5 Q2162.4 1442.61 2164.2 1446.17 Q2166.03 1449.72 2169.64 1449.72 Q2173.28 1449.72 2175.08 1446.17 Q2176.91 1442.61 2176.91 1435.5 Q2176.91 1428.37 2175.08 1424.83 Q2173.28 1421.27 2169.64 1421.27 M2169.64 1417.56 Q2175.45 1417.56 2178.51 1422.17 Q2181.59 1426.75 2181.59 1435.5 Q2181.59 1444.23 2178.51 1448.84 Q2175.45 1453.42 2169.64 1453.42 Q2163.83 1453.42 2160.75 1448.84 Q2157.7 1444.23 2157.7 1435.5 Q2157.7 1426.75 2160.75 1422.17 Q2163.83 1417.56 2169.64 1417.56 Z" fill="#000000" fill-rule="nonzero" fill-opacity="1" /><path clip-path="url(#clip350)" d="M2189.81 1446.87 L2194.69 1446.87 L2194.69 1452.75 L2189.81 1452.75 L2189.81 1446.87 Z" fill="#000000" fill-rule="nonzero" fill-opacity="1" /><path clip-path="url(#clip350)" d="M2204.92 1418.19 L2223.28 1418.19 L2223.28 1422.12 L2209.2 1422.12 L2209.2 1430.6 Q2210.22 1430.25 2211.24 1430.09 Q2212.26 1429.9 2213.28 1429.9 Q2219.06 1429.9 2222.44 1433.07 Q2225.82 1436.24 2225.82 1441.66 Q2225.82 1447.24 2222.35 1450.34 Q2218.88 1453.42 2212.56 1453.42 Q2210.38 1453.42 2208.12 1453.05 Q2205.87 1452.68 2203.46 1451.94 L2203.46 1447.24 Q2205.55 1448.37 2207.77 1448.93 Q2209.99 1449.48 2212.47 1449.48 Q2216.47 1449.48 2218.81 1447.38 Q2221.15 1445.27 2221.15 1441.66 Q2221.15 1438.05 2218.81 1435.94 Q2216.47 1433.84 2212.47 1433.84 Q2210.59 1433.84 2208.72 1434.25 Q2206.87 1434.67 2204.92 1435.55 L2204.92 1418.19 Z" fill="#000000" fill-rule="nonzero" fill-opacity="1" /><path clip-path="url(#clip350)" d="M2466.93 1448.81 L2474.56 1448.81 L2474.56 1422.45 L2466.25 1424.11 L2466.25 1419.85 L2474.52 1418.19 L2479.19 1418.19 L2479.19 1448.81 L2486.83 1448.81 L2486.83 1452.75 L2466.93 1452.75 L2466.93 1448.81 Z" fill="#000000" fill-rule="nonzero" fill-opacity="1" /><path clip-path="url(#clip350)" d="M2496.28 1446.87 L2501.16 1446.87 L2501.16 1452.75 L2496.28 1452.75 L2496.28 1446.87 Z" fill="#000000" fill-rule="nonzero" fill-opacity="1" /><path clip-path="url(#clip350)" d="M2521.35 1421.27 Q2517.74 1421.27 2515.91 1424.83 Q2514.1 1428.37 2514.1 1435.5 Q2514.1 1442.61 2515.91 1446.17 Q2517.74 1449.72 2521.35 1449.72 Q2524.98 1449.72 2526.79 1446.17 Q2528.61 1442.61 2528.61 1435.5 Q2528.61 1428.37 2526.79 1424.83 Q2524.98 1421.27 2521.35 1421.27 M2521.35 1417.56 Q2527.16 1417.56 2530.21 1422.17 Q2533.29 1426.75 2533.29 1435.5 Q2533.29 1444.23 2530.21 1448.84 Q2527.16 1453.42 2521.35 1453.42 Q2515.54 1453.42 2512.46 1448.84 Q2509.4 1444.23 2509.4 1435.5 Q2509.4 1426.75 2512.46 1422.17 Q2515.54 1417.56 2521.35 1417.56 Z" fill="#000000" fill-rule="nonzero" fill-opacity="1" /><path clip-path="url(#clip350)" d="M2775.43 1448.81 L2783.07 1448.81 L2783.07 1422.45 L2774.76 1424.11 L2774.76 1419.85 L2783.03 1418.19 L2787.7 1418.19 L2787.7 1448.81 L2795.34 1448.81 L2795.34 1452.75 L2775.43 1452.75 L2775.43 1448.81 Z" fill="#000000" fill-rule="nonzero" fill-opacity="1" /><path clip-path="url(#clip350)" d="M2804.79 1446.87 L2809.67 1446.87 L2809.67 1452.75 L2804.79 1452.75 L2804.79 1446.87 Z" fill="#000000" fill-rule="nonzero" fill-opacity="1" /><path clip-path="url(#clip350)" d="M2819.9 1418.19 L2838.26 1418.19 L2838.26 1422.12 L2824.18 1422.12 L2824.18 1430.6 Q2825.2 1430.25 2826.22 1430.09 Q2827.24 1429.9 2828.26 1429.9 Q2834.04 1429.9 2837.42 1433.07 Q2840.8 1436.24 2840.8 1441.66 Q2840.8 1447.24 2837.33 1450.34 Q2833.86 1453.42 2827.54 1453.42 Q2825.36 1453.42 2823.1 1453.05 Q2820.85 1452.68 2818.44 1451.94 L2818.44 1447.24 Q2820.53 1448.37 2822.75 1448.93 Q2824.97 1449.48 2827.45 1449.48 Q2831.45 1449.48 2833.79 1447.38 Q2836.13 1445.27 2836.13 1441.66 Q2836.13 1438.05 2833.79 1435.94 Q2831.45 1433.84 2827.45 1433.84 Q2825.57 1433.84 2823.7 1434.25 Q2821.85 1434.67 2819.9 1435.55 L2819.9 1418.19 Z" fill="#000000" fill-rule="nonzero" fill-opacity="1" /><path clip-path="url(#clip350)" d="M3087.03 1448.81 L3103.35 1448.81 L3103.35 1452.75 L3081.41 1452.75 L3081.41 1448.81 Q3084.07 1446.06 3088.65 1441.43 Q3093.26 1436.78 3094.44 1435.43 Q3096.69 1432.91 3097.57 1431.17 Q3098.47 1429.41 3098.47 1427.72 Q3098.47 1424.97 3096.52 1423.23 Q3094.6 1421.5 3091.5 1421.5 Q3089.3 1421.5 3086.85 1422.26 Q3084.42 1423.03 3081.64 1424.58 L3081.64 1419.85 Q3084.46 1418.72 3086.92 1418.14 Q3089.37 1417.56 3091.41 1417.56 Q3096.78 1417.56 3099.97 1420.25 Q3103.17 1422.93 3103.17 1427.42 Q3103.17 1429.55 3102.36 1431.47 Q3101.57 1433.37 3099.46 1435.97 Q3098.88 1436.64 3095.78 1439.85 Q3092.68 1443.05 3087.03 1448.81 Z" fill="#000000" fill-rule="nonzero" fill-opacity="1" /><path clip-path="url(#clip350)" d="M3113.17 1446.87 L3118.05 1446.87 L3118.05 1452.75 L3113.17 1452.75 L3113.17 1446.87 Z" fill="#000000" fill-rule="nonzero" fill-opacity="1" /><path clip-path="url(#clip350)" d="M3138.24 1421.27 Q3134.63 1421.27 3132.8 1424.83 Q3130.99 1428.37 3130.99 1435.5 Q3130.99 1442.61 3132.8 1446.17 Q3134.63 1449.72 3138.24 1449.72 Q3141.87 1449.72 3143.68 1446.17 Q3145.51 1442.61 3145.51 1435.5 Q3145.51 1428.37 3143.68 1424.83 Q3141.87 1421.27 3138.24 1421.27 M3138.24 1417.56 Q3144.05 1417.56 3147.1 1422.17 Q3150.18 1426.75 3150.18 1435.5 Q3150.18 1444.23 3147.1 1448.84 Q3144.05 1453.42 3138.24 1453.42 Q3132.43 1453.42 3129.35 1448.84 Q3126.29 1444.23 3126.29 1435.5 Q3126.29 1426.75 3129.35 1422.17 Q3132.43 1417.56 3138.24 1417.56 Z" fill="#000000" fill-rule="nonzero" fill-opacity="1" /><path clip-path="url(#clip350)" d="M2498.92 1494.02 L2498.92 1503.22 L2509.89 1503.22 L2509.89 1507.36 L2498.92 1507.36 L2498.92 1524.95 Q2498.92 1528.91 2499.99 1530.04 Q2501.09 1531.17 2504.42 1531.17 L2509.89 1531.17 L2509.89 1535.63 L2504.42 1535.63 Q2498.25 1535.63 2495.91 1533.34 Q2493.57 1531.03 2493.57 1524.95 L2493.57 1507.36 L2489.66 1507.36 L2489.66 1503.22 L2493.57 1503.22 L2493.57 1494.02 L2498.92 1494.02 Z" fill="#000000" fill-rule="nonzero" fill-opacity="1" /><polyline clip-path="url(#clip350)" style="stroke:#000000; stroke-linecap:round; stroke-linejoin:round; stroke-width:4; stroke-opacity:1; fill:none" points="1846.79,1383.95 1846.79,95.3921 "/>
<polyline clip-path="url(#clip350)" style="stroke:#000000; stroke-linecap:round; stroke-linejoin:round; stroke-width:4; stroke-opacity:1; fill:none" points="1846.79,1340.86 1865.69,1340.86 "/>
<polyline clip-path="url(#clip350)" style="stroke:#000000; stroke-linecap:round; stroke-linejoin:round; stroke-width:4; stroke-opacity:1; fill:none" points="1846.79,1061.77 1865.69,1061.77 "/>
<polyline clip-path="url(#clip350)" style="stroke:#000000; stroke-linecap:round; stroke-linejoin:round; stroke-width:4; stroke-opacity:1; fill:none" points="1846.79,782.689 1865.69,782.689 "/>
<polyline clip-path="url(#clip350)" style="stroke:#000000; stroke-linecap:round; stroke-linejoin:round; stroke-width:4; stroke-opacity:1; fill:none" points="1846.79,503.604 1865.69,503.604 "/>
<polyline clip-path="url(#clip350)" style="stroke:#000000; stroke-linecap:round; stroke-linejoin:round; stroke-width:4; stroke-opacity:1; fill:none" points="1846.79,224.52 1865.69,224.52 "/>
<path clip-path="url(#clip350)" d="M1631.52 1341.31 L1661.2 1341.31 L1661.2 1345.24 L1631.52 1345.24 L1631.52 1341.31 Z" fill="#000000" fill-rule="nonzero" fill-opacity="1" /><path clip-path="url(#clip350)" d="M1681.29 1326.66 Q1677.68 1326.66 1675.85 1330.22 Q1674.04 1333.76 1674.04 1340.89 Q1674.04 1348 1675.85 1351.56 Q1677.68 1355.11 1681.29 1355.11 Q1684.92 1355.11 1686.73 1351.56 Q1688.56 1348 1688.56 1340.89 Q1688.56 1333.76 1686.73 1330.22 Q1684.92 1326.66 1681.29 1326.66 M1681.29 1322.95 Q1687.1 1322.95 1690.15 1327.56 Q1693.23 1332.14 1693.23 1340.89 Q1693.23 1349.62 1690.15 1354.23 Q1687.1 1358.81 1681.29 1358.81 Q1675.48 1358.81 1672.4 1354.23 Q1669.34 1349.62 1669.34 1340.89 Q1669.34 1332.14 1672.4 1327.56 Q1675.48 1322.95 1681.29 1322.95 Z" fill="#000000" fill-rule="nonzero" fill-opacity="1" /><path clip-path="url(#clip350)" d="M1701.45 1352.26 L1706.34 1352.26 L1706.34 1358.14 L1701.45 1358.14 L1701.45 1352.26 Z" fill="#000000" fill-rule="nonzero" fill-opacity="1" /><path clip-path="url(#clip350)" d="M1726.52 1326.66 Q1722.91 1326.66 1721.08 1330.22 Q1719.28 1333.76 1719.28 1340.89 Q1719.28 1348 1721.08 1351.56 Q1722.91 1355.11 1726.52 1355.11 Q1730.15 1355.11 1731.96 1351.56 Q1733.79 1348 1733.79 1340.89 Q1733.79 1333.76 1731.96 1330.22 Q1730.15 1326.66 1726.52 1326.66 M1726.52 1322.95 Q1732.33 1322.95 1735.39 1327.56 Q1738.46 1332.14 1738.46 1340.89 Q1738.46 1349.62 1735.39 1354.23 Q1732.33 1358.81 1726.52 1358.81 Q1720.71 1358.81 1717.63 1354.23 Q1714.58 1349.62 1714.58 1340.89 Q1714.58 1332.14 1717.63 1327.56 Q1720.71 1322.95 1726.52 1322.95 Z" fill="#000000" fill-rule="nonzero" fill-opacity="1" /><path clip-path="url(#clip350)" d="M1746.73 1323.58 L1765.09 1323.58 L1765.09 1327.51 L1751.01 1327.51 L1751.01 1335.98 Q1752.03 1335.64 1753.05 1335.48 Q1754.07 1335.29 1755.09 1335.29 Q1760.87 1335.29 1764.25 1338.46 Q1767.63 1341.63 1767.63 1347.05 Q1767.63 1352.63 1764.16 1355.73 Q1760.69 1358.81 1754.37 1358.81 Q1752.19 1358.81 1749.92 1358.44 Q1747.68 1358.07 1745.27 1357.33 L1745.27 1352.63 Q1747.35 1353.76 1749.58 1354.32 Q1751.8 1354.87 1754.27 1354.87 Q1758.28 1354.87 1760.62 1352.77 Q1762.96 1350.66 1762.96 1347.05 Q1762.96 1343.44 1760.62 1341.33 Q1758.28 1339.23 1754.27 1339.23 Q1752.4 1339.23 1750.52 1339.64 Q1748.67 1340.06 1746.73 1340.94 L1746.73 1323.58 Z" fill="#000000" fill-rule="nonzero" fill-opacity="1" /><path clip-path="url(#clip350)" d="M1786.84 1326.66 Q1783.23 1326.66 1781.4 1330.22 Q1779.6 1333.76 1779.6 1340.89 Q1779.6 1348 1781.4 1351.56 Q1783.23 1355.11 1786.84 1355.11 Q1790.48 1355.11 1792.28 1351.56 Q1794.11 1348 1794.11 1340.89 Q1794.11 1333.76 1792.28 1330.22 Q1790.48 1326.66 1786.84 1326.66 M1786.84 1322.95 Q1792.65 1322.95 1795.71 1327.56 Q1798.79 1332.14 1798.79 1340.89 Q1798.79 1349.62 1795.71 1354.23 Q1792.65 1358.81 1786.84 1358.81 Q1781.03 1358.81 1777.96 1354.23 Q1774.9 1349.62 1774.9 1340.89 Q1774.9 1332.14 1777.96 1327.56 Q1781.03 1322.95 1786.84 1322.95 Z" fill="#000000" fill-rule="nonzero" fill-opacity="1" /><path clip-path="url(#clip350)" d="M1632.52 1062.22 L1662.19 1062.22 L1662.19 1066.16 L1632.52 1066.16 L1632.52 1062.22 Z" fill="#000000" fill-rule="nonzero" fill-opacity="1" /><path clip-path="url(#clip350)" d="M1682.28 1047.57 Q1678.67 1047.57 1676.84 1051.14 Q1675.04 1054.68 1675.04 1061.81 Q1675.04 1068.91 1676.84 1072.48 Q1678.67 1076.02 1682.28 1076.02 Q1685.92 1076.02 1687.72 1072.48 Q1689.55 1068.91 1689.55 1061.81 Q1689.55 1054.68 1687.72 1051.14 Q1685.92 1047.57 1682.28 1047.57 M1682.28 1043.87 Q1688.09 1043.87 1691.15 1048.47 Q1694.23 1053.06 1694.23 1061.81 Q1694.23 1070.53 1691.15 1075.14 Q1688.09 1079.72 1682.28 1079.72 Q1676.47 1079.72 1673.4 1075.14 Q1670.34 1070.53 1670.34 1061.81 Q1670.34 1053.06 1673.4 1048.47 Q1676.47 1043.87 1682.28 1043.87 Z" fill="#000000" fill-rule="nonzero" fill-opacity="1" /><path clip-path="url(#clip350)" d="M1702.45 1073.17 L1707.33 1073.17 L1707.33 1079.05 L1702.45 1079.05 L1702.45 1073.17 Z" fill="#000000" fill-rule="nonzero" fill-opacity="1" /><path clip-path="url(#clip350)" d="M1727.52 1047.57 Q1723.9 1047.57 1722.08 1051.14 Q1720.27 1054.68 1720.27 1061.81 Q1720.27 1068.91 1722.08 1072.48 Q1723.9 1076.02 1727.52 1076.02 Q1731.15 1076.02 1732.96 1072.48 Q1734.78 1068.91 1734.78 1061.81 Q1734.78 1054.68 1732.96 1051.14 Q1731.15 1047.57 1727.52 1047.57 M1727.52 1043.87 Q1733.33 1043.87 1736.38 1048.47 Q1739.46 1053.06 1739.46 1061.81 Q1739.46 1070.53 1736.38 1075.14 Q1733.33 1079.72 1727.52 1079.72 Q1721.71 1079.72 1718.63 1075.14 Q1715.57 1070.53 1715.57 1061.81 Q1715.57 1053.06 1718.63 1048.47 Q1721.71 1043.87 1727.52 1043.87 Z" fill="#000000" fill-rule="nonzero" fill-opacity="1" /><path clip-path="url(#clip350)" d="M1751.71 1075.12 L1768.02 1075.12 L1768.02 1079.05 L1746.08 1079.05 L1746.08 1075.12 Q1748.74 1072.36 1753.33 1067.73 Q1757.93 1063.08 1759.11 1061.74 Q1761.36 1059.22 1762.24 1057.48 Q1763.14 1055.72 1763.14 1054.03 Q1763.14 1051.28 1761.2 1049.54 Q1759.27 1047.8 1756.17 1047.8 Q1753.97 1047.8 1751.52 1048.57 Q1749.09 1049.33 1746.31 1050.88 L1746.31 1046.16 Q1749.14 1045.03 1751.59 1044.45 Q1754.04 1043.87 1756.08 1043.87 Q1761.45 1043.87 1764.65 1046.55 Q1767.84 1049.24 1767.84 1053.73 Q1767.84 1055.86 1767.03 1057.78 Q1766.24 1059.68 1764.14 1062.27 Q1763.56 1062.94 1760.46 1066.16 Q1757.35 1069.35 1751.71 1075.12 Z" fill="#000000" fill-rule="nonzero" fill-opacity="1" /><path clip-path="url(#clip350)" d="M1777.89 1044.49 L1796.24 1044.49 L1796.24 1048.43 L1782.17 1048.43 L1782.17 1056.9 Q1783.19 1056.55 1784.21 1056.39 Q1785.22 1056.21 1786.24 1056.21 Q1792.03 1056.21 1795.41 1059.38 Q1798.79 1062.55 1798.79 1067.97 Q1798.79 1073.54 1795.32 1076.65 Q1791.84 1079.72 1785.52 1079.72 Q1783.35 1079.72 1781.08 1079.35 Q1778.83 1078.98 1776.43 1078.24 L1776.43 1073.54 Q1778.51 1074.68 1780.73 1075.23 Q1782.96 1075.79 1785.43 1075.79 Q1789.44 1075.79 1791.77 1073.68 Q1794.11 1071.58 1794.11 1067.97 Q1794.11 1064.35 1791.77 1062.25 Q1789.44 1060.14 1785.43 1060.14 Q1783.56 1060.14 1781.68 1060.56 Q1779.83 1060.97 1777.89 1061.85 L1777.89 1044.49 Z" fill="#000000" fill-rule="nonzero" fill-opacity="1" /><path clip-path="url(#clip350)" d="M1681.29 768.488 Q1677.68 768.488 1675.85 772.052 Q1674.04 775.594 1674.04 782.724 Q1674.04 789.83 1675.85 793.395 Q1677.68 796.936 1681.29 796.936 Q1684.92 796.936 1686.73 793.395 Q1688.56 789.83 1688.56 782.724 Q1688.56 775.594 1686.73 772.052 Q1684.92 768.488 1681.29 768.488 M1681.29 764.784 Q1687.1 764.784 1690.15 769.39 Q1693.23 773.974 1693.23 782.724 Q1693.23 791.45 1690.15 796.057 Q1687.1 800.64 1681.29 800.64 Q1675.48 800.64 1672.4 796.057 Q1669.34 791.45 1669.34 782.724 Q1669.34 773.974 1672.4 769.39 Q1675.48 764.784 1681.29 764.784 Z" fill="#000000" fill-rule="nonzero" fill-opacity="1" /><path clip-path="url(#clip350)" d="M1701.45 794.089 L1706.34 794.089 L1706.34 799.969 L1701.45 799.969 L1701.45 794.089 Z" fill="#000000" fill-rule="nonzero" fill-opacity="1" /><path clip-path="url(#clip350)" d="M1726.52 768.488 Q1722.91 768.488 1721.08 772.052 Q1719.28 775.594 1719.28 782.724 Q1719.28 789.83 1721.08 793.395 Q1722.91 796.936 1726.52 796.936 Q1730.15 796.936 1731.96 793.395 Q1733.79 789.83 1733.79 782.724 Q1733.79 775.594 1731.96 772.052 Q1730.15 768.488 1726.52 768.488 M1726.52 764.784 Q1732.33 764.784 1735.39 769.39 Q1738.46 773.974 1738.46 782.724 Q1738.46 791.45 1735.39 796.057 Q1732.33 800.64 1726.52 800.64 Q1720.71 800.64 1717.63 796.057 Q1714.58 791.45 1714.58 782.724 Q1714.58 773.974 1717.63 769.39 Q1720.71 764.784 1726.52 764.784 Z" fill="#000000" fill-rule="nonzero" fill-opacity="1" /><path clip-path="url(#clip350)" d="M1756.68 768.488 Q1753.07 768.488 1751.24 772.052 Q1749.44 775.594 1749.44 782.724 Q1749.44 789.83 1751.24 793.395 Q1753.07 796.936 1756.68 796.936 Q1760.32 796.936 1762.12 793.395 Q1763.95 789.83 1763.95 782.724 Q1763.95 775.594 1762.12 772.052 Q1760.32 768.488 1756.68 768.488 M1756.68 764.784 Q1762.49 764.784 1765.55 769.39 Q1768.63 773.974 1768.63 782.724 Q1768.63 791.45 1765.55 796.057 Q1762.49 800.64 1756.68 800.64 Q1750.87 800.64 1747.79 796.057 Q1744.74 791.45 1744.74 782.724 Q1744.74 773.974 1747.79 769.39 Q1750.87 764.784 1756.68 764.784 Z" fill="#000000" fill-rule="nonzero" fill-opacity="1" /><path clip-path="url(#clip350)" d="M1786.84 768.488 Q1783.23 768.488 1781.4 772.052 Q1779.6 775.594 1779.6 782.724 Q1779.6 789.83 1781.4 793.395 Q1783.23 796.936 1786.84 796.936 Q1790.48 796.936 1792.28 793.395 Q1794.11 789.83 1794.11 782.724 Q1794.11 775.594 1792.28 772.052 Q1790.48 768.488 1786.84 768.488 M1786.84 764.784 Q1792.65 764.784 1795.71 769.39 Q1798.79 773.974 1798.79 782.724 Q1798.79 791.45 1795.71 796.057 Q1792.65 800.64 1786.84 800.64 Q1781.03 800.64 1777.96 796.057 Q1774.9 791.45 1774.9 782.724 Q1774.9 773.974 1777.96 769.39 Q1781.03 764.784 1786.84 764.784 Z" fill="#000000" fill-rule="nonzero" fill-opacity="1" /><path clip-path="url(#clip350)" d="M1682.28 489.403 Q1678.67 489.403 1676.84 492.968 Q1675.04 496.51 1675.04 503.639 Q1675.04 510.746 1676.84 514.31 Q1678.67 517.852 1682.28 517.852 Q1685.92 517.852 1687.72 514.31 Q1689.55 510.746 1689.55 503.639 Q1689.55 496.51 1687.72 492.968 Q1685.92 489.403 1682.28 489.403 M1682.28 485.699 Q1688.09 485.699 1691.15 490.306 Q1694.23 494.889 1694.23 503.639 Q1694.23 512.366 1691.15 516.972 Q1688.09 521.556 1682.28 521.556 Q1676.47 521.556 1673.4 516.972 Q1670.34 512.366 1670.34 503.639 Q1670.34 494.889 1673.4 490.306 Q1676.47 485.699 1682.28 485.699 Z" fill="#000000" fill-rule="nonzero" fill-opacity="1" /><path clip-path="url(#clip350)" d="M1702.45 515.005 L1707.33 515.005 L1707.33 520.884 L1702.45 520.884 L1702.45 515.005 Z" fill="#000000" fill-rule="nonzero" fill-opacity="1" /><path clip-path="url(#clip350)" d="M1727.52 489.403 Q1723.9 489.403 1722.08 492.968 Q1720.27 496.51 1720.27 503.639 Q1720.27 510.746 1722.08 514.31 Q1723.9 517.852 1727.52 517.852 Q1731.15 517.852 1732.96 514.31 Q1734.78 510.746 1734.78 503.639 Q1734.78 496.51 1732.96 492.968 Q1731.15 489.403 1727.52 489.403 M1727.52 485.699 Q1733.33 485.699 1736.38 490.306 Q1739.46 494.889 1739.46 503.639 Q1739.46 512.366 1736.38 516.972 Q1733.33 521.556 1727.52 521.556 Q1721.71 521.556 1718.63 516.972 Q1715.57 512.366 1715.57 503.639 Q1715.57 494.889 1718.63 490.306 Q1721.71 485.699 1727.52 485.699 Z" fill="#000000" fill-rule="nonzero" fill-opacity="1" /><path clip-path="url(#clip350)" d="M1751.71 516.949 L1768.02 516.949 L1768.02 520.884 L1746.08 520.884 L1746.08 516.949 Q1748.74 514.195 1753.33 509.565 Q1757.93 504.912 1759.11 503.57 Q1761.36 501.047 1762.24 499.31 Q1763.14 497.551 1763.14 495.861 Q1763.14 493.107 1761.2 491.371 Q1759.27 489.635 1756.17 489.635 Q1753.97 489.635 1751.52 490.398 Q1749.09 491.162 1746.31 492.713 L1746.31 487.991 Q1749.14 486.857 1751.59 486.278 Q1754.04 485.699 1756.08 485.699 Q1761.45 485.699 1764.65 488.385 Q1767.84 491.07 1767.84 495.56 Q1767.84 497.69 1767.03 499.611 Q1766.24 501.51 1764.14 504.102 Q1763.56 504.773 1760.46 507.991 Q1757.35 511.185 1751.71 516.949 Z" fill="#000000" fill-rule="nonzero" fill-opacity="1" /><path clip-path="url(#clip350)" d="M1777.89 486.324 L1796.24 486.324 L1796.24 490.26 L1782.17 490.26 L1782.17 498.732 Q1783.19 498.385 1784.21 498.223 Q1785.22 498.037 1786.24 498.037 Q1792.03 498.037 1795.41 501.209 Q1798.79 504.38 1798.79 509.797 Q1798.79 515.375 1795.32 518.477 Q1791.84 521.556 1785.52 521.556 Q1783.35 521.556 1781.08 521.185 Q1778.83 520.815 1776.43 520.074 L1776.43 515.375 Q1778.51 516.509 1780.73 517.065 Q1782.96 517.621 1785.43 517.621 Q1789.44 517.621 1791.77 515.514 Q1794.11 513.408 1794.11 509.797 Q1794.11 506.185 1791.77 504.079 Q1789.44 501.972 1785.43 501.972 Q1783.56 501.972 1781.68 502.389 Q1779.83 502.806 1777.89 503.685 L1777.89 486.324 Z" fill="#000000" fill-rule="nonzero" fill-opacity="1" /><path clip-path="url(#clip350)" d="M1681.29 210.319 Q1677.68 210.319 1675.85 213.884 Q1674.04 217.425 1674.04 224.555 Q1674.04 231.661 1675.85 235.226 Q1677.68 238.768 1681.29 238.768 Q1684.92 238.768 1686.73 235.226 Q1688.56 231.661 1688.56 224.555 Q1688.56 217.425 1686.73 213.884 Q1684.92 210.319 1681.29 210.319 M1681.29 206.615 Q1687.1 206.615 1690.15 211.221 Q1693.23 215.805 1693.23 224.555 Q1693.23 233.282 1690.15 237.888 Q1687.1 242.471 1681.29 242.471 Q1675.48 242.471 1672.4 237.888 Q1669.34 233.282 1669.34 224.555 Q1669.34 215.805 1672.4 211.221 Q1675.48 206.615 1681.29 206.615 Z" fill="#000000" fill-rule="nonzero" fill-opacity="1" /><path clip-path="url(#clip350)" d="M1701.45 235.92 L1706.34 235.92 L1706.34 241.8 L1701.45 241.8 L1701.45 235.92 Z" fill="#000000" fill-rule="nonzero" fill-opacity="1" /><path clip-path="url(#clip350)" d="M1726.52 210.319 Q1722.91 210.319 1721.08 213.884 Q1719.28 217.425 1719.28 224.555 Q1719.28 231.661 1721.08 235.226 Q1722.91 238.768 1726.52 238.768 Q1730.15 238.768 1731.96 235.226 Q1733.79 231.661 1733.79 224.555 Q1733.79 217.425 1731.96 213.884 Q1730.15 210.319 1726.52 210.319 M1726.52 206.615 Q1732.33 206.615 1735.39 211.221 Q1738.46 215.805 1738.46 224.555 Q1738.46 233.282 1735.39 237.888 Q1732.33 242.471 1726.52 242.471 Q1720.71 242.471 1717.63 237.888 Q1714.58 233.282 1714.58 224.555 Q1714.58 215.805 1717.63 211.221 Q1720.71 206.615 1726.52 206.615 Z" fill="#000000" fill-rule="nonzero" fill-opacity="1" /><path clip-path="url(#clip350)" d="M1746.73 207.24 L1765.09 207.24 L1765.09 211.175 L1751.01 211.175 L1751.01 219.647 Q1752.03 219.3 1753.05 219.138 Q1754.07 218.953 1755.09 218.953 Q1760.87 218.953 1764.25 222.124 Q1767.63 225.295 1767.63 230.712 Q1767.63 236.291 1764.16 239.393 Q1760.69 242.471 1754.37 242.471 Q1752.19 242.471 1749.92 242.101 Q1747.68 241.731 1745.27 240.99 L1745.27 236.291 Q1747.35 237.425 1749.58 237.981 Q1751.8 238.536 1754.27 238.536 Q1758.28 238.536 1760.62 236.43 Q1762.96 234.323 1762.96 230.712 Q1762.96 227.101 1760.62 224.995 Q1758.28 222.888 1754.27 222.888 Q1752.4 222.888 1750.52 223.305 Q1748.67 223.721 1746.73 224.601 L1746.73 207.24 Z" fill="#000000" fill-rule="nonzero" fill-opacity="1" /><path clip-path="url(#clip350)" d="M1786.84 210.319 Q1783.23 210.319 1781.4 213.884 Q1779.6 217.425 1779.6 224.555 Q1779.6 231.661 1781.4 235.226 Q1783.23 238.768 1786.84 238.768 Q1790.48 238.768 1792.28 235.226 Q1794.11 231.661 1794.11 224.555 Q1794.11 217.425 1792.28 213.884 Q1790.48 210.319 1786.84 210.319 M1786.84 206.615 Q1792.65 206.615 1795.71 211.221 Q1798.79 215.805 1798.79 224.555 Q1798.79 233.282 1795.71 237.888 Q1792.65 242.471 1786.84 242.471 Q1781.03 242.471 1777.96 237.888 Q1774.9 233.282 1774.9 224.555 Q1774.9 215.805 1777.96 211.221 Q1781.03 206.615 1786.84 206.615 Z" fill="#000000" fill-rule="nonzero" fill-opacity="1" /><path clip-path="url(#clip350)" d="M2419.14 20.677 L2419.14 25.6538 Q2416.89 24.4096 2414.6 23.802 Q2412.35 23.1654 2410.03 23.1654 Q2404.85 23.1654 2401.99 26.464 Q2399.12 29.7336 2399.12 35.6653 Q2399.12 41.597 2401.99 44.8956 Q2404.85 48.1653 2410.03 48.1653 Q2412.35 48.1653 2414.6 47.5576 Q2416.89 46.921 2419.14 45.6768 L2419.14 50.5958 Q2416.92 51.6375 2414.52 52.1583 Q2412.14 52.6791 2409.45 52.6791 Q2402.13 52.6791 2397.82 48.0784 Q2393.51 43.4778 2393.51 35.6653 Q2393.51 27.7371 2397.85 23.1943 Q2402.22 18.6515 2409.8 18.6515 Q2412.26 18.6515 2414.6 19.1724 Q2416.95 19.6642 2419.14 20.677 Z" fill="#000000" fill-rule="nonzero" fill-opacity="1" /><path clip-path="url(#clip350)" d="M2440.96 23.1654 Q2436.68 23.1654 2434.19 26.5218 Q2431.7 29.8494 2431.7 35.6653 Q2431.7 41.4813 2434.16 44.8377 Q2436.65 48.1653 2440.96 48.1653 Q2445.22 48.1653 2447.7 44.8088 Q2450.19 41.4523 2450.19 35.6653 Q2450.19 29.9072 2447.7 26.5508 Q2445.22 23.1654 2440.96 23.1654 M2440.96 18.6515 Q2447.91 18.6515 2451.87 23.1654 Q2455.83 27.6792 2455.83 35.6653 Q2455.83 43.6225 2451.87 48.1653 Q2447.91 52.6791 2440.96 52.6791 Q2433.99 52.6791 2430.02 48.1653 Q2426.09 43.6225 2426.09 35.6653 Q2426.09 27.6792 2430.02 23.1654 Q2433.99 18.6515 2440.96 18.6515 Z" fill="#000000" fill-rule="nonzero" fill-opacity="1" /><path clip-path="url(#clip350)" d="M2485.32 20.3876 L2485.32 25.4223 Q2483.06 24.2649 2480.63 23.6862 Q2478.2 23.1075 2475.6 23.1075 Q2471.63 23.1075 2469.64 24.3228 Q2467.67 25.5381 2467.67 27.9686 Q2467.67 29.8204 2469.09 30.891 Q2470.5 31.9327 2474.79 32.8876 L2476.61 33.2926 Q2482.28 34.5079 2484.65 36.7359 Q2487.06 38.935 2487.06 42.8991 Q2487.06 47.4129 2483.47 50.046 Q2479.91 52.6791 2473.66 52.6791 Q2471.05 52.6791 2468.22 52.1583 Q2465.41 51.6664 2462.29 50.6537 L2462.29 45.156 Q2465.24 46.6896 2468.1 47.4708 Q2470.97 48.2231 2473.77 48.2231 Q2477.54 48.2231 2479.56 46.95 Q2481.59 45.6479 2481.59 43.3042 Q2481.59 41.134 2480.11 39.9766 Q2478.66 38.8192 2473.72 37.7486 L2471.86 37.3146 Q2466.92 36.273 2464.72 34.1318 Q2462.52 31.9616 2462.52 28.2001 Q2462.52 23.6283 2465.76 21.1399 Q2469 18.6515 2474.96 18.6515 Q2477.91 18.6515 2480.52 19.0855 Q2483.12 19.5196 2485.32 20.3876 Z" fill="#000000" fill-rule="nonzero" fill-opacity="1" /><path clip-path="url(#clip350)" d="M2500.8 10.2314 L2500.8 19.4328 L2511.77 19.4328 L2511.77 23.5705 L2500.8 23.5705 L2500.8 41.163 Q2500.8 45.1271 2501.87 46.2555 Q2502.97 47.384 2506.3 47.384 L2511.77 47.384 L2511.77 51.84 L2506.3 51.84 Q2500.13 51.84 2497.79 49.5541 Q2495.45 47.2393 2495.45 41.163 L2495.45 23.5705 L2491.54 23.5705 L2491.54 19.4328 L2495.45 19.4328 L2495.45 10.2314 L2500.8 10.2314 Z" fill="#000000" fill-rule="nonzero" fill-opacity="1" /><path clip-path="url(#clip350)" d="M2533.5 35.5496 Q2527.04 35.5496 2524.56 37.0253 Q2522.07 38.501 2522.07 42.06 Q2522.07 44.8956 2523.92 46.5738 Q2525.8 48.2231 2529.01 48.2231 Q2533.44 48.2231 2536.1 45.0981 Q2538.79 41.9442 2538.79 36.7359 L2538.79 35.5496 L2533.5 35.5496 M2544.12 33.3505 L2544.12 51.84 L2538.79 51.84 L2538.79 46.921 Q2536.97 49.8724 2534.25 51.2902 Q2531.53 52.6791 2527.59 52.6791 Q2522.62 52.6791 2519.67 49.9014 Q2516.74 47.0947 2516.74 42.4072 Q2516.74 36.9385 2520.39 34.1607 Q2524.06 31.3829 2531.33 31.3829 L2538.79 31.3829 L2538.79 30.8621 Q2538.79 27.1874 2536.36 25.1908 Q2533.96 23.1654 2529.59 23.1654 Q2526.81 23.1654 2524.18 23.8309 Q2521.55 24.4964 2519.12 25.8274 L2519.12 20.9085 Q2522.04 19.78 2524.79 19.2302 Q2527.54 18.6515 2530.14 18.6515 Q2537.17 18.6515 2540.64 22.2973 Q2544.12 25.9431 2544.12 33.3505 Z" fill="#000000" fill-rule="nonzero" fill-opacity="1" /><path clip-path="url(#clip350)" d="M2560.35 10.2314 L2560.35 19.4328 L2571.31 19.4328 L2571.31 23.5705 L2560.35 23.5705 L2560.35 41.163 Q2560.35 45.1271 2561.42 46.2555 Q2562.52 47.384 2565.85 47.384 L2571.31 47.384 L2571.31 51.84 L2565.85 51.84 Q2559.68 51.84 2557.34 49.5541 Q2554.99 47.2393 2554.99 41.163 L2554.99 23.5705 L2551.09 23.5705 L2551.09 19.4328 L2554.99 19.4328 L2554.99 10.2314 L2560.35 10.2314 Z" fill="#000000" fill-rule="nonzero" fill-opacity="1" /><path clip-path="url(#clip350)" d="M2606.04 34.3054 L2606.04 36.9095 L2581.56 36.9095 Q2581.9 42.4072 2584.86 45.3007 Q2587.84 48.1653 2593.13 48.1653 Q2596.2 48.1653 2599.06 47.4129 Q2601.96 46.6606 2604.79 45.156 L2604.79 50.1907 Q2601.93 51.406 2598.92 52.0425 Q2595.91 52.6791 2592.81 52.6791 Q2585.06 52.6791 2580.52 48.1653 Q2576 43.6514 2576 35.9547 Q2576 27.9975 2580.28 23.339 Q2584.6 18.6515 2591.89 18.6515 Q2598.43 18.6515 2602.22 22.876 Q2606.04 27.0716 2606.04 34.3054 M2600.71 32.7429 Q2600.65 28.3737 2598.25 25.7695 Q2595.88 23.1654 2591.94 23.1654 Q2587.49 23.1654 2584.8 25.6827 Q2582.14 28.2001 2581.73 32.7718 L2600.71 32.7429 Z" fill="#000000" fill-rule="nonzero" fill-opacity="1" /><polyline clip-path="url(#clip351)" style="stroke:#000000; stroke-linecap:round; stroke-linejoin:round; stroke-width:4; stroke-opacity:1; fill:none" stroke-dasharray="16, 10" points="1883.75,2672.5 1883.75,-1193.16 "/>
<polyline clip-path="url(#clip351)" style="stroke:#000000; stroke-linecap:round; stroke-linejoin:round; stroke-width:4; stroke-opacity:1; fill:none" stroke-dasharray="16, 10" points="3115.79,2672.5 3115.79,-1193.16 "/>
<polyline clip-path="url(#clip351)" style="stroke:#009af9; stroke-linecap:round; stroke-linejoin:round; stroke-width:8; stroke-opacity:1; fill:none" points="1883.75,131.861 1888.68,138.024 1893.61,147.71 1898.53,160.833 1903.46,177.273 1908.39,196.875 1913.32,219.455 1918.25,244.797 1923.18,272.657 1928.1,302.766 1933.03,334.832 1937.96,368.545 1942.89,403.577 1947.82,439.585 1952.74,476.221 1957.67,513.125 1962.6,549.94 1967.53,586.305 1972.46,621.866 1977.39,656.277 1982.31,689.205 1987.24,720.329 1992.17,749.348 1997.1,775.984 2002.03,799.979 2006.95,821.105 2011.88,839.163 2016.81,853.983 2021.74,865.429 2026.67,873.4 2031.6,877.828 2036.52,878.683 2041.45,875.97 2046.38,869.73 2051.31,860.041 2056.24,847.014 2061.16,830.795 2066.09,811.561 2071.02,789.522 2075.95,764.914 2080.88,738.001 2085.81,709.068 2090.73,678.422 2095.66,646.388 2100.59,613.303 2105.52,579.517 2110.45,545.385 2115.37,511.268 2120.3,477.525 2125.23,444.511 2130.16,412.575 2135.09,382.056 2140.02,353.276 2144.94,326.542 2149.87,302.139 2154.8,280.329 2159.73,261.349 2164.66,245.405 2169.58,232.675 2174.51,223.303 2179.44,217.401 2184.37,215.042 2189.3,216.269 2194.23,221.084 2199.15,229.455 2204.08,241.316 2209.01,256.561 2213.94,275.055 2218.87,296.626 2223.79,321.076 2228.72,348.172 2233.65,377.659 2238.58,409.257 2243.51,442.663 2248.44,477.558 2253.36,513.607 2258.29,550.463 2263.22,587.771 2268.15,625.174 2273.08,662.311 2278,698.825 2282.93,734.365 2287.86,768.592 2292.79,801.177 2297.72,831.81 2302.65,860.2 2307.57,886.08 2312.5,909.206 2317.43,929.364 2322.36,946.37 2327.29,960.07 2332.21,970.346 2337.14,977.114 2342.07,980.324 2347,979.963 2351.93,976.055 2356.86,968.659 2361.78,957.87 2366.71,943.817 2371.64,926.661 2376.57,906.597 2381.5,883.847 2386.42,858.662 2391.35,831.316 2396.28,802.106 2401.21,771.349 2406.14,739.376 2411.07,706.531 2415.99,673.166 2420.92,639.641 2425.85,606.316 2430.78,573.547 2435.71,541.689 2440.63,511.085 2445.56,482.066 2450.49,454.947 2455.42,430.025 2460.35,407.573 2465.27,387.841 2470.2,371.052 2475.13,357.396 2480.06,347.036 2484.99,340.099 2489.92,336.679 2494.84,336.833 2499.77,340.584 2504.7,347.918 2509.63,358.784 2514.56,373.097 2519.48,390.736 2524.41,411.548 2529.34,435.347 2534.27,461.917 2539.2,491.016 2544.13,522.373 2549.05,555.698 2553.98,590.68 2558.91,626.99 2563.84,664.288 2568.77,702.222 2573.69,740.436 2578.62,778.57 2583.55,816.264 2588.48,853.166 2593.41,888.928 2598.34,923.216 2603.26,955.712 2608.19,986.113 2613.12,1014.14 2618.05,1039.54 2622.98,1062.08 2627.9,1081.56 2632.83,1097.82 2637.76,1110.71 2642.69,1120.14 2647.62,1126.03 2652.55,1128.37 2657.47,1127.15 2662.4,1122.41 2667.33,1114.23 2672.26,1102.73 2677.19,1088.04 2682.11,1070.36 2687.04,1049.87 2691.97,1026.84 2696.9,1001.5 2701.83,974.162 2706.76,945.12 2711.68,914.701 2716.61,883.243 2721.54,851.096 2726.47,818.615 2731.4,786.16 2736.32,754.09 2741.25,722.763 2746.18,692.526 2751.11,663.717 2756.04,636.659 2760.97,611.66 2765.89,589.004 2770.82,568.954 2775.75,551.745 2780.68,537.586 2785.61,526.653 2790.53,519.09 2795.46,515.009 2800.39,514.485 2805.32,517.559 2810.25,524.235 2815.18,534.479 2820.1,548.225 2825.03,565.37 2829.96,585.775 2834.89,609.272 2839.82,635.659 2844.74,664.707 2849.67,696.16 2854.6,729.735 2859.53,765.133 2864.46,802.033 2869.39,840.1 2874.31,878.989 2879.24,918.344 2884.17,957.806 2889.1,997.016 2894.03,1035.62 2898.95,1073.26 2903.88,1109.6 2908.81,1144.32 2913.74,1177.09 2918.67,1207.64 2923.6,1235.69 2928.52,1261.01 2933.45,1283.37 2938.38,1302.59 2943.31,1318.52 2948.24,1331.04 2953.16,1340.07 2958.09,1345.55 2963.02,1347.48 2967.95,1345.88 2972.88,1340.8 2977.81,1332.34 2982.73,1320.64 2987.66,1305.85 2992.59,1288.17 2997.52,1267.81 3002.45,1245.04 3007.37,1220.12 3012.3,1193.35 3017.23,1165.05 3022.16,1135.55 3027.09,1105.2 3032.02,1074.34 3036.94,1043.33 3041.87,1012.55 3046.8,982.331 3051.73,953.043 3056.66,925.025 3061.58,898.609 3066.51,874.109 3071.44,851.822 3076.37,832.023 3081.3,814.96 3086.23,800.856 3091.15,789.904 3096.08,782.264 3101.01,778.064 3105.94,777.397 3110.87,780.323 "/>
<path clip-path="url(#clip350)" d="M2842.47 242.024 L3109.22 242.024 L3109.22 138.344 L2842.47 138.344  Z" fill="#ffffff" fill-rule="evenodd" fill-opacity="1"/>
<polyline clip-path="url(#clip350)" style="stroke:#000000; stroke-linecap:round; stroke-linejoin:round; stroke-width:4; stroke-opacity:1; fill:none" points="2842.47,242.024 3109.22,242.024 3109.22,138.344 2842.47,138.344 2842.47,242.024 "/>
<polyline clip-path="url(#clip350)" style="stroke:#009af9; stroke-linecap:round; stroke-linejoin:round; stroke-width:8; stroke-opacity:1; fill:none" points="2856.98,190.184 2944.05,190.184 "/>
<path clip-path="url(#clip350)" d="M2963.23 176.747 L2963.23 203.621 L2968.88 203.621 Q2976.03 203.621 2979.34 200.381 Q2982.68 197.14 2982.68 190.149 Q2982.68 183.205 2979.34 179.987 Q2976.03 176.747 2968.88 176.747 L2963.23 176.747 M2958.56 172.904 L2968.16 172.904 Q2978.21 172.904 2982.91 177.094 Q2987.61 181.26 2987.61 190.149 Q2987.61 199.084 2982.88 203.274 Q2978.16 207.464 2968.16 207.464 L2958.56 207.464 L2958.56 172.904 Z" fill="#000000" fill-rule="nonzero" fill-opacity="1" /><path clip-path="url(#clip350)" d="M2994.88 181.538 L2999.13 181.538 L2999.13 207.464 L2994.88 207.464 L2994.88 181.538 M2994.88 171.446 L2999.13 171.446 L2999.13 176.839 L2994.88 176.839 L2994.88 171.446 Z" fill="#000000" fill-rule="nonzero" fill-opacity="1" /><path clip-path="url(#clip350)" d="M3023.07 185.52 Q3022.35 185.103 3021.5 184.918 Q3020.66 184.709 3019.64 184.709 Q3016.03 184.709 3014.09 187.071 Q3012.17 189.409 3012.17 193.807 L3012.17 207.464 L3007.88 207.464 L3007.88 181.538 L3012.17 181.538 L3012.17 185.566 Q3013.51 183.205 3015.66 182.071 Q3017.82 180.913 3020.89 180.913 Q3021.33 180.913 3021.87 180.983 Q3022.4 181.029 3023.05 181.145 L3023.07 185.52 Z" fill="#000000" fill-rule="nonzero" fill-opacity="1" /><path clip-path="url(#clip350)" d="M3048.67 193.436 L3048.67 195.52 L3029.09 195.52 Q3029.37 199.918 3031.73 202.233 Q3034.11 204.524 3038.35 204.524 Q3040.8 204.524 3043.09 203.922 Q3045.41 203.32 3047.68 202.117 L3047.68 206.145 Q3045.38 207.117 3042.98 207.626 Q3040.57 208.135 3038.09 208.135 Q3031.89 208.135 3028.25 204.524 Q3024.64 200.913 3024.64 194.756 Q3024.64 188.39 3028.07 184.663 Q3031.52 180.913 3037.35 180.913 Q3042.58 180.913 3045.62 184.293 Q3048.67 187.649 3048.67 193.436 M3044.41 192.186 Q3044.37 188.691 3042.44 186.608 Q3040.55 184.524 3037.4 184.524 Q3033.83 184.524 3031.68 186.538 Q3029.55 188.552 3029.23 192.209 L3044.41 192.186 Z" fill="#000000" fill-rule="nonzero" fill-opacity="1" /><path clip-path="url(#clip350)" d="M3074.32 182.534 L3074.32 186.515 Q3072.51 185.52 3070.69 185.034 Q3068.88 184.524 3067.03 184.524 Q3062.88 184.524 3060.59 187.163 Q3058.3 189.779 3058.3 194.524 Q3058.3 199.27 3060.59 201.908 Q3062.88 204.524 3067.03 204.524 Q3068.88 204.524 3070.69 204.038 Q3072.51 203.529 3074.32 202.533 L3074.32 206.469 Q3072.54 207.302 3070.62 207.719 Q3068.72 208.135 3066.56 208.135 Q3060.71 208.135 3057.26 204.455 Q3053.81 200.774 3053.81 194.524 Q3053.81 188.182 3057.28 184.547 Q3060.78 180.913 3066.84 180.913 Q3068.81 180.913 3070.69 181.33 Q3072.56 181.723 3074.32 182.534 Z" fill="#000000" fill-rule="nonzero" fill-opacity="1" /><path clip-path="url(#clip350)" d="M3085.94 174.177 L3085.94 181.538 L3094.71 181.538 L3094.71 184.848 L3085.94 184.848 L3085.94 198.922 Q3085.94 202.094 3086.8 202.996 Q3087.68 203.899 3090.34 203.899 L3094.71 203.899 L3094.71 207.464 L3090.34 207.464 Q3085.41 207.464 3083.53 205.635 Q3081.66 203.783 3081.66 198.922 L3081.66 184.848 L3078.53 184.848 L3078.53 181.538 L3081.66 181.538 L3081.66 174.177 L3085.94 174.177 Z" fill="#000000" fill-rule="nonzero" fill-opacity="1" /></svg>
