<?xml version="1.0" encoding="utf-8"?>
<svg xmlns="http://www.w3.org/2000/svg" xmlns:xlink="http://www.w3.org/1999/xlink" width="800" height="400" viewBox="0 0 3200 1600">
<defs>
  <clipPath id="clip480">
    <rect x="0" y="0" width="3200" height="1600"/>
  </clipPath>
</defs>
<path clip-path="url(#clip480)" d="M0 1600 L3200 1600 L3200 0 L0 0  Z" fill="#ffffff" fill-rule="evenodd" fill-opacity="1"/>
<defs>
  <clipPath id="clip481">
    <rect x="1846" y="95" width="1307" height="1290"/>
  </clipPath>
</defs>
<path clip-path="url(#clip480)" d="M199.821 1383.95 L1505.79 1383.95 L1505.79 95.3921 L199.821 95.3921  Z" fill="#ffffff" fill-rule="evenodd" fill-opacity="1"/>
<defs>
  <clipPath id="clip482">
    <rect x="199" y="95" width="1307" height="1290"/>
  </clipPath>
</defs>
<polyline clip-path="url(#clip482)" style="stroke:#000000; stroke-linecap:round; stroke-linejoin:round; stroke-width:2; stroke-opacity:0.1; fill:none" points="236.783,1383.95 236.783,95.3921 "/>
<polyline clip-path="url(#clip482)" style="stroke:#000000; stroke-linecap:round; stroke-linejoin:round; stroke-width:2; stroke-opacity:0.1; fill:none" points="544.794,1383.95 544.794,95.3921 "/>
<polyline clip-path="url(#clip482)" style="stroke:#000000; stroke-linecap:round; stroke-linejoin:round; stroke-width:2; stroke-opacity:0.1; fill:none" points="852.805,1383.95 852.805,95.3921 "/>
<polyline clip-path="url(#clip482)" style="stroke:#000000; stroke-linecap:round; stroke-linejoin:round; stroke-width:2; stroke-opacity:0.1; fill:none" points="1160.82,1383.95 1160.82,95.3921 "/>
<polyline clip-path="url(#clip482)" style="stroke:#000000; stroke-linecap:round; stroke-linejoin:round; stroke-width:2; stroke-opacity:0.1; fill:none" points="1468.83,1383.95 1468.83,95.3921 "/>
<polyline clip-path="url(#clip482)" style="stroke:#000000; stroke-linecap:round; stroke-linejoin:round; stroke-width:2; stroke-opacity:0.1; fill:none" points="199.821,1347.48 1505.79,1347.48 "/>
<polyline clip-path="url(#clip482)" style="stroke:#000000; stroke-linecap:round; stroke-linejoin:round; stroke-width:2; stroke-opacity:0.1; fill:none" points="199.821,993.748 1505.79,993.748 "/>
<polyline clip-path="url(#clip482)" style="stroke:#000000; stroke-linecap:round; stroke-linejoin:round; stroke-width:2; stroke-opacity:0.1; fill:none" points="199.821,640.018 1505.79,640.018 "/>
<polyline clip-path="url(#clip482)" style="stroke:#000000; stroke-linecap:round; stroke-linejoin:round; stroke-width:2; stroke-opacity:0.1; fill:none" points="199.821,286.287 1505.79,286.287 "/>
<polyline clip-path="url(#clip480)" style="stroke:#000000; stroke-linecap:round; stroke-linejoin:round; stroke-width:4; stroke-opacity:1; fill:none" points="199.821,1383.95 1505.79,1383.95 "/>
<polyline clip-path="url(#clip480)" style="stroke:#000000; stroke-linecap:round; stroke-linejoin:round; stroke-width:4; stroke-opacity:1; fill:none" points="236.783,1383.95 236.783,1365.05 "/>
<polyline clip-path="url(#clip480)" style="stroke:#000000; stroke-linecap:round; stroke-linejoin:round; stroke-width:4; stroke-opacity:1; fill:none" points="544.794,1383.95 544.794,1365.05 "/>
<polyline clip-path="url(#clip480)" style="stroke:#000000; stroke-linecap:round; stroke-linejoin:round; stroke-width:4; stroke-opacity:1; fill:none" points="852.805,1383.95 852.805,1365.05 "/>
<polyline clip-path="url(#clip480)" style="stroke:#000000; stroke-linecap:round; stroke-linejoin:round; stroke-width:4; stroke-opacity:1; fill:none" points="1160.82,1383.95 1160.82,1365.05 "/>
<polyline clip-path="url(#clip480)" style="stroke:#000000; stroke-linecap:round; stroke-linejoin:round; stroke-width:4; stroke-opacity:1; fill:none" points="1468.83,1383.95 1468.83,1365.05 "/>
<path clip-path="url(#clip480)" d="M214.167 1421.27 Q210.556 1421.27 208.727 1424.83 Q206.922 1428.37 206.922 1435.5 Q206.922 1442.61 208.727 1446.17 Q210.556 1449.72 214.167 1449.72 Q217.801 1449.72 219.607 1446.17 Q221.435 1442.61 221.435 1435.5 Q221.435 1428.37 219.607 1424.83 Q217.801 1421.27 214.167 1421.27 M214.167 1417.56 Q219.977 1417.56 223.033 1422.17 Q226.111 1426.75 226.111 1435.5 Q226.111 1444.23 223.033 1448.84 Q219.977 1453.42 214.167 1453.42 Q208.357 1453.42 205.278 1448.84 Q202.223 1444.23 202.223 1435.5 Q202.223 1426.75 205.278 1422.17 Q208.357 1417.56 214.167 1417.56 Z" fill="#000000" fill-rule="nonzero" fill-opacity="1" /><path clip-path="url(#clip480)" d="M234.329 1446.87 L239.213 1446.87 L239.213 1452.75 L234.329 1452.75 L234.329 1446.87 Z" fill="#000000" fill-rule="nonzero" fill-opacity="1" /><path clip-path="url(#clip480)" d="M259.398 1421.27 Q255.787 1421.27 253.958 1424.83 Q252.153 1428.37 252.153 1435.5 Q252.153 1442.61 253.958 1446.17 Q255.787 1449.72 259.398 1449.72 Q263.032 1449.72 264.838 1446.17 Q266.667 1442.61 266.667 1435.5 Q266.667 1428.37 264.838 1424.83 Q263.032 1421.27 259.398 1421.27 M259.398 1417.56 Q265.208 1417.56 268.264 1422.17 Q271.343 1426.75 271.343 1435.5 Q271.343 1444.23 268.264 1448.84 Q265.208 1453.42 259.398 1453.42 Q253.588 1453.42 250.509 1448.84 Q247.454 1444.23 247.454 1435.5 Q247.454 1426.75 250.509 1422.17 Q253.588 1417.56 259.398 1417.56 Z" fill="#000000" fill-rule="nonzero" fill-opacity="1" /><path clip-path="url(#clip480)" d="M522.676 1421.27 Q519.065 1421.27 517.236 1424.83 Q515.431 1428.37 515.431 1435.5 Q515.431 1442.61 517.236 1446.17 Q519.065 1449.72 522.676 1449.72 Q526.31 1449.72 528.116 1446.17 Q529.944 1442.61 529.944 1435.5 Q529.944 1428.37 528.116 1424.83 Q526.31 1421.27 522.676 1421.27 M522.676 1417.56 Q528.486 1417.56 531.542 1422.17 Q534.62 1426.75 534.62 1435.5 Q534.62 1444.23 531.542 1448.84 Q528.486 1453.42 522.676 1453.42 Q516.866 1453.42 513.787 1448.84 Q510.731 1444.23 510.731 1435.5 Q510.731 1426.75 513.787 1422.17 Q516.866 1417.56 522.676 1417.56 Z" fill="#000000" fill-rule="nonzero" fill-opacity="1" /><path clip-path="url(#clip480)" d="M542.838 1446.87 L547.722 1446.87 L547.722 1452.75 L542.838 1452.75 L542.838 1446.87 Z" fill="#000000" fill-rule="nonzero" fill-opacity="1" /><path clip-path="url(#clip480)" d="M557.953 1418.19 L576.31 1418.19 L576.31 1422.12 L562.236 1422.12 L562.236 1430.6 Q563.254 1430.25 564.273 1430.09 Q565.291 1429.9 566.31 1429.9 Q572.097 1429.9 575.476 1433.07 Q578.856 1436.24 578.856 1441.66 Q578.856 1447.24 575.384 1450.34 Q571.912 1453.42 565.592 1453.42 Q563.416 1453.42 561.148 1453.05 Q558.903 1452.68 556.495 1451.94 L556.495 1447.24 Q558.578 1448.37 560.801 1448.93 Q563.023 1449.48 565.5 1449.48 Q569.504 1449.48 571.842 1447.38 Q574.18 1445.27 574.18 1441.66 Q574.18 1438.05 571.842 1435.94 Q569.504 1433.84 565.5 1433.84 Q563.625 1433.84 561.75 1434.25 Q559.898 1434.67 557.953 1435.55 L557.953 1418.19 Z" fill="#000000" fill-rule="nonzero" fill-opacity="1" /><path clip-path="url(#clip480)" d="M819.958 1448.81 L827.597 1448.81 L827.597 1422.45 L819.287 1424.11 L819.287 1419.85 L827.55 1418.19 L832.226 1418.19 L832.226 1448.81 L839.865 1448.81 L839.865 1452.75 L819.958 1452.75 L819.958 1448.81 Z" fill="#000000" fill-rule="nonzero" fill-opacity="1" /><path clip-path="url(#clip480)" d="M849.31 1446.87 L854.194 1446.87 L854.194 1452.75 L849.31 1452.75 L849.31 1446.87 Z" fill="#000000" fill-rule="nonzero" fill-opacity="1" /><path clip-path="url(#clip480)" d="M874.379 1421.27 Q870.768 1421.27 868.939 1424.83 Q867.134 1428.37 867.134 1435.5 Q867.134 1442.61 868.939 1446.17 Q870.768 1449.72 874.379 1449.72 Q878.013 1449.72 879.819 1446.17 Q881.647 1442.61 881.647 1435.5 Q881.647 1428.37 879.819 1424.83 Q878.013 1421.27 874.379 1421.27 M874.379 1417.56 Q880.189 1417.56 883.245 1422.17 Q886.323 1426.75 886.323 1435.5 Q886.323 1444.23 883.245 1448.84 Q880.189 1453.42 874.379 1453.42 Q868.569 1453.42 865.49 1448.84 Q862.435 1444.23 862.435 1435.5 Q862.435 1426.75 865.49 1422.17 Q868.569 1417.56 874.379 1417.56 Z" fill="#000000" fill-rule="nonzero" fill-opacity="1" /><path clip-path="url(#clip480)" d="M1128.47 1448.81 L1136.11 1448.81 L1136.11 1422.45 L1127.8 1424.11 L1127.8 1419.85 L1136.06 1418.19 L1140.74 1418.19 L1140.74 1448.81 L1148.37 1448.81 L1148.37 1452.75 L1128.47 1452.75 L1128.47 1448.81 Z" fill="#000000" fill-rule="nonzero" fill-opacity="1" /><path clip-path="url(#clip480)" d="M1157.82 1446.87 L1162.7 1446.87 L1162.7 1452.75 L1157.82 1452.75 L1157.82 1446.87 Z" fill="#000000" fill-rule="nonzero" fill-opacity="1" /><path clip-path="url(#clip480)" d="M1172.93 1418.19 L1191.29 1418.19 L1191.29 1422.12 L1177.22 1422.12 L1177.22 1430.6 Q1178.24 1430.25 1179.25 1430.09 Q1180.27 1429.9 1181.29 1429.9 Q1187.08 1429.9 1190.46 1433.07 Q1193.84 1436.24 1193.84 1441.66 Q1193.84 1447.24 1190.36 1450.34 Q1186.89 1453.42 1180.57 1453.42 Q1178.4 1453.42 1176.13 1453.05 Q1173.88 1452.68 1171.48 1451.94 L1171.48 1447.24 Q1173.56 1448.37 1175.78 1448.93 Q1178 1449.48 1180.48 1449.48 Q1184.48 1449.48 1186.82 1447.38 Q1189.16 1445.27 1189.16 1441.66 Q1189.16 1438.05 1186.82 1435.94 Q1184.48 1433.84 1180.48 1433.84 Q1178.61 1433.84 1176.73 1434.25 Q1174.88 1434.67 1172.93 1435.55 L1172.93 1418.19 Z" fill="#000000" fill-rule="nonzero" fill-opacity="1" /><path clip-path="url(#clip480)" d="M1440.07 1448.81 L1456.39 1448.81 L1456.39 1452.75 L1434.44 1452.75 L1434.44 1448.81 Q1437.1 1446.06 1441.69 1441.43 Q1446.29 1436.78 1447.47 1435.43 Q1449.72 1432.91 1450.6 1431.17 Q1451.5 1429.41 1451.5 1427.72 Q1451.5 1424.97 1449.56 1423.23 Q1447.64 1421.5 1444.53 1421.5 Q1442.33 1421.5 1439.88 1422.26 Q1437.45 1423.03 1434.67 1424.58 L1434.67 1419.85 Q1437.5 1418.72 1439.95 1418.14 Q1442.4 1417.56 1444.44 1417.56 Q1449.81 1417.56 1453.01 1420.25 Q1456.2 1422.93 1456.2 1427.42 Q1456.2 1429.55 1455.39 1431.47 Q1454.6 1433.37 1452.5 1435.97 Q1451.92 1436.64 1448.82 1439.85 Q1445.71 1443.05 1440.07 1448.81 Z" fill="#000000" fill-rule="nonzero" fill-opacity="1" /><path clip-path="url(#clip480)" d="M1466.2 1446.87 L1471.08 1446.87 L1471.08 1452.75 L1466.2 1452.75 L1466.2 1446.87 Z" fill="#000000" fill-rule="nonzero" fill-opacity="1" /><path clip-path="url(#clip480)" d="M1491.27 1421.27 Q1487.66 1421.27 1485.83 1424.83 Q1484.02 1428.37 1484.02 1435.5 Q1484.02 1442.61 1485.83 1446.17 Q1487.66 1449.72 1491.27 1449.72 Q1494.9 1449.72 1496.71 1446.17 Q1498.54 1442.61 1498.54 1435.5 Q1498.54 1428.37 1496.71 1424.83 Q1494.9 1421.27 1491.27 1421.27 M1491.27 1417.56 Q1497.08 1417.56 1500.13 1422.17 Q1503.21 1426.75 1503.21 1435.5 Q1503.21 1444.23 1500.13 1448.84 Q1497.08 1453.42 1491.27 1453.42 Q1485.46 1453.42 1482.38 1448.84 Q1479.32 1444.23 1479.32 1435.5 Q1479.32 1426.75 1482.38 1422.17 Q1485.46 1417.56 1491.27 1417.56 Z" fill="#000000" fill-rule="nonzero" fill-opacity="1" /><path clip-path="url(#clip480)" d="M851.951 1494.02 L851.951 1503.22 L862.918 1503.22 L862.918 1507.36 L851.951 1507.36 L851.951 1524.95 Q851.951 1528.91 853.022 1530.04 Q854.121 1531.17 857.449 1531.17 L862.918 1531.17 L862.918 1535.63 L857.449 1535.63 Q851.286 1535.63 848.942 1533.34 Q846.598 1531.03 846.598 1524.95 L846.598 1507.36 L842.692 1507.36 L842.692 1503.22 L846.598 1503.22 L846.598 1494.02 L851.951 1494.02 Z" fill="#000000" fill-rule="nonzero" fill-opacity="1" /><polyline clip-path="url(#clip480)" style="stroke:#000000; stroke-linecap:round; stroke-linejoin:round; stroke-width:4; stroke-opacity:1; fill:none" points="199.821,1383.95 199.821,95.3921 "/>
<polyline clip-path="url(#clip480)" style="stroke:#000000; stroke-linecap:round; stroke-linejoin:round; stroke-width:4; stroke-opacity:1; fill:none" points="199.821,1347.48 218.719,1347.48 "/>
<polyline clip-path="url(#clip480)" style="stroke:#000000; stroke-linecap:round; stroke-linejoin:round; stroke-width:4; stroke-opacity:1; fill:none" points="199.821,993.748 218.719,993.748 "/>
<polyline clip-path="url(#clip480)" style="stroke:#000000; stroke-linecap:round; stroke-linejoin:round; stroke-width:4; stroke-opacity:1; fill:none" points="199.821,640.018 218.719,640.018 "/>
<polyline clip-path="url(#clip480)" style="stroke:#000000; stroke-linecap:round; stroke-linejoin:round; stroke-width:4; stroke-opacity:1; fill:none" points="199.821,286.287 218.719,286.287 "/>
<path clip-path="url(#clip480)" d="M135.502 1360.82 L151.821 1360.82 L151.821 1364.76 L129.877 1364.76 L129.877 1360.82 Q132.539 1358.07 137.122 1353.44 Q141.729 1348.79 142.909 1347.44 Q145.155 1344.92 146.034 1343.19 Q146.937 1341.43 146.937 1339.74 Q146.937 1336.98 144.993 1335.25 Q143.071 1333.51 139.969 1333.51 Q137.77 1333.51 135.317 1334.27 Q132.886 1335.04 130.108 1336.59 L130.108 1331.87 Q132.932 1330.73 135.386 1330.15 Q137.84 1329.57 139.877 1329.57 Q145.247 1329.57 148.442 1332.26 Q151.636 1334.94 151.636 1339.44 Q151.636 1341.56 150.826 1343.49 Q150.039 1345.38 147.932 1347.98 Q147.354 1348.65 144.252 1351.87 Q141.15 1355.06 135.502 1360.82 Z" fill="#000000" fill-rule="nonzero" fill-opacity="1" /><path clip-path="url(#clip480)" d="M144.692 992.394 Q148.048 993.112 149.923 995.38 Q151.821 997.649 151.821 1000.98 Q151.821 1006.1 148.303 1008.9 Q144.784 1011.7 138.303 1011.7 Q136.127 1011.7 133.812 1011.26 Q131.52 1010.84 129.067 1009.99 L129.067 1005.47 Q131.011 1006.61 133.326 1007.19 Q135.641 1007.76 138.164 1007.76 Q142.562 1007.76 144.854 1006.03 Q147.169 1004.29 147.169 1000.98 Q147.169 997.927 145.016 996.214 Q142.886 994.478 139.067 994.478 L135.039 994.478 L135.039 990.635 L139.252 990.635 Q142.701 990.635 144.53 989.269 Q146.358 987.88 146.358 985.288 Q146.358 982.626 144.46 981.214 Q142.585 979.779 139.067 979.779 Q137.145 979.779 134.946 980.195 Q132.747 980.612 130.108 981.491 L130.108 977.325 Q132.77 976.584 135.085 976.214 Q137.423 975.843 139.483 975.843 Q144.807 975.843 147.909 978.274 Q151.011 980.681 151.011 984.802 Q151.011 987.672 149.368 989.663 Q147.724 991.63 144.692 992.394 Z" fill="#000000" fill-rule="nonzero" fill-opacity="1" /><path clip-path="url(#clip480)" d="M142.238 626.812 L130.432 645.261 L142.238 645.261 L142.238 626.812 M141.011 622.738 L146.891 622.738 L146.891 645.261 L151.821 645.261 L151.821 649.149 L146.891 649.149 L146.891 657.298 L142.238 657.298 L142.238 649.149 L126.636 649.149 L126.636 644.636 L141.011 622.738 Z" fill="#000000" fill-rule="nonzero" fill-opacity="1" /><path clip-path="url(#clip480)" d="M130.919 269.007 L149.275 269.007 L149.275 272.942 L135.201 272.942 L135.201 281.414 Q136.22 281.067 137.238 280.905 Q138.257 280.72 139.275 280.72 Q145.062 280.72 148.442 283.891 Q151.821 287.062 151.821 292.479 Q151.821 298.057 148.349 301.159 Q144.877 304.238 138.557 304.238 Q136.382 304.238 134.113 303.868 Q131.868 303.497 129.46 302.757 L129.46 298.057 Q131.544 299.192 133.766 299.747 Q135.988 300.303 138.465 300.303 Q142.469 300.303 144.807 298.196 Q147.145 296.09 147.145 292.479 Q147.145 288.868 144.807 286.761 Q142.469 284.655 138.465 284.655 Q136.59 284.655 134.715 285.071 Q132.863 285.488 130.919 286.368 L130.919 269.007 Z" fill="#000000" fill-rule="nonzero" fill-opacity="1" /><path clip-path="url(#clip480)" d="M33.269 724.566 L49.0386 736.285 L65.6762 723.958 L65.6762 730.237 L52.9448 739.67 L65.6762 749.103 L65.6762 755.382 L48.7203 742.795 L33.269 754.311 L33.269 748.032 L44.8141 739.438 L33.269 730.845 L33.269 724.566 Z" fill="#000000" fill-rule="nonzero" fill-opacity="1" /><path clip-path="url(#clip480)" d="M803.963 20.3876 L803.963 25.4223 Q801.706 24.2649 799.275 23.6862 Q796.845 23.1075 794.24 23.1075 Q790.276 23.1075 788.28 24.3228 Q786.312 25.5381 786.312 27.9686 Q786.312 29.8204 787.73 30.891 Q789.148 31.9327 793.43 32.8876 L795.253 33.2926 Q800.924 34.5079 803.297 36.7359 Q805.699 38.935 805.699 42.8991 Q805.699 47.4129 802.111 50.046 Q798.552 52.6791 792.302 52.6791 Q789.698 52.6791 786.862 52.1583 Q784.055 51.6664 780.93 50.6537 L780.93 45.156 Q783.882 46.6896 786.746 47.4708 Q789.611 48.2231 792.418 48.2231 Q796.179 48.2231 798.205 46.95 Q800.23 45.6479 800.23 43.3042 Q800.23 41.134 798.754 39.9766 Q797.308 38.8192 792.36 37.7486 L790.508 37.3146 Q785.56 36.273 783.361 34.1318 Q781.162 31.9616 781.162 28.2001 Q781.162 23.6283 784.403 21.1399 Q787.643 18.6515 793.604 18.6515 Q796.555 18.6515 799.159 19.0855 Q801.764 19.5196 803.963 20.3876 Z" fill="#000000" fill-rule="nonzero" fill-opacity="1" /><path clip-path="url(#clip480)" d="M819.443 10.2314 L819.443 19.4328 L830.409 19.4328 L830.409 23.5705 L819.443 23.5705 L819.443 41.163 Q819.443 45.1271 820.513 46.2555 Q821.613 47.384 824.941 47.384 L830.409 47.384 L830.409 51.84 L824.941 51.84 Q818.777 51.84 816.434 49.5541 Q814.09 47.2393 814.09 41.163 L814.09 23.5705 L810.184 23.5705 L810.184 19.4328 L814.09 19.4328 L814.09 10.2314 L819.443 10.2314 Z" fill="#000000" fill-rule="nonzero" fill-opacity="1" /><path clip-path="url(#clip480)" d="M852.139 35.5496 Q845.687 35.5496 843.199 37.0253 Q840.71 38.501 840.71 42.06 Q840.71 44.8956 842.562 46.5738 Q844.443 48.2231 847.655 48.2231 Q852.082 48.2231 854.744 45.0981 Q857.435 41.9442 857.435 36.7359 L857.435 35.5496 L852.139 35.5496 M862.759 33.3505 L862.759 51.84 L857.435 51.84 L857.435 46.921 Q855.612 49.8724 852.892 51.2902 Q850.172 52.6791 846.237 52.6791 Q841.26 52.6791 838.309 49.9014 Q835.386 47.0947 835.386 42.4072 Q835.386 36.9385 839.032 34.1607 Q842.707 31.3829 849.969 31.3829 L857.435 31.3829 L857.435 30.8621 Q857.435 27.1874 855.004 25.1908 Q852.602 23.1654 848.233 23.1654 Q845.455 23.1654 842.822 23.8309 Q840.189 24.4964 837.759 25.8274 L837.759 20.9085 Q840.681 19.78 843.43 19.2302 Q846.179 18.6515 848.783 18.6515 Q855.814 18.6515 859.286 22.2973 Q862.759 25.9431 862.759 33.3505 Z" fill="#000000" fill-rule="nonzero" fill-opacity="1" /><path clip-path="url(#clip480)" d="M878.991 10.2314 L878.991 19.4328 L889.958 19.4328 L889.958 23.5705 L878.991 23.5705 L878.991 41.163 Q878.991 45.1271 880.062 46.2555 Q881.161 47.384 884.489 47.384 L889.958 47.384 L889.958 51.84 L884.489 51.84 Q878.326 51.84 875.982 49.5541 Q873.638 47.2393 873.638 41.163 L873.638 23.5705 L869.732 23.5705 L869.732 19.4328 L873.638 19.4328 L873.638 10.2314 L878.991 10.2314 Z" fill="#000000" fill-rule="nonzero" fill-opacity="1" /><path clip-path="url(#clip480)" d="M924.68 34.3054 L924.68 36.9095 L900.201 36.9095 Q900.548 42.4072 903.499 45.3007 Q906.479 48.1653 911.775 48.1653 Q914.842 48.1653 917.706 47.4129 Q920.6 46.6606 923.435 45.156 L923.435 50.1907 Q920.571 51.406 917.562 52.0425 Q914.552 52.6791 911.456 52.6791 Q903.702 52.6791 899.159 48.1653 Q894.645 43.6514 894.645 35.9547 Q894.645 27.9975 898.927 23.339 Q903.239 18.6515 910.53 18.6515 Q917.07 18.6515 920.86 22.876 Q924.68 27.0716 924.68 34.3054 M919.356 32.7429 Q919.298 28.3737 916.896 25.7695 Q914.523 23.1654 910.588 23.1654 Q906.132 23.1654 903.441 25.6827 Q900.779 28.2001 900.374 32.7718 L919.356 32.7429 Z" fill="#000000" fill-rule="nonzero" fill-opacity="1" /><polyline clip-path="url(#clip482)" style="stroke:#000000; stroke-linecap:round; stroke-linejoin:round; stroke-width:4; stroke-opacity:1; fill:none" stroke-dasharray="16, 10" points="236.783,2672.5 236.783,-1193.16 "/>
<polyline clip-path="url(#clip482)" style="stroke:#000000; stroke-linecap:round; stroke-linejoin:round; stroke-width:4; stroke-opacity:1; fill:none" stroke-dasharray="16, 10" points="1468.83,2672.5 1468.83,-1193.16 "/>
<polyline clip-path="url(#clip482)" style="stroke:#000000; stroke-linecap:round; stroke-linejoin:round; stroke-width:4; stroke-opacity:1; fill:none" stroke-dasharray="16, 10" points="236.783,2672.5 236.783,-1193.16 "/>
<polyline clip-path="url(#clip482)" style="stroke:#000000; stroke-linecap:round; stroke-linejoin:round; stroke-width:4; stroke-opacity:1; fill:none" stroke-dasharray="16, 10" points="1468.83,2672.5 1468.83,-1193.16 "/>
<polyline clip-path="url(#clip482)" style="stroke:#009af9; stroke-linecap:round; stroke-linejoin:round; stroke-width:8; stroke-opacity:1; fill:none" points="236.783,1347.48 298.385,1311.49 359.987,1273.67 421.589,1233.93 483.192,1192.16 544.794,1148.28 606.396,1102.15 667.998,1053.69 729.6,1002.75 791.203,949.228 852.805,892.981 914.407,833.873 976.009,771.758 1037.61,706.483 1099.21,637.887 1160.82,565.802 1222.42,490.051 1284.02,410.445 1345.62,326.791 1407.23,238.88 1468.83,146.498 "/>
<polyline clip-path="url(#clip482)" style="stroke:#000000; stroke-linecap:round; stroke-linejoin:round; stroke-width:8; stroke-opacity:1; fill:none" stroke-dasharray="4, 8" points="236.783,1347.48 298.385,1243.92 359.987,1231.49 421.589,1274.57 483.192,1258.13 544.794,1146.54 606.396,1032.68 667.998,1009.42 729.6,1041.12 791.203,1012.7 852.805,888.534 914.407,761.447 976.009,724.278 1037.61,741.353 1099.21,697.572 1160.82,557.244 1222.42,413.172 1284.02,358.147 1345.62,356.45 1407.23,292.934 1468.83,131.861 "/>
<polyline clip-path="url(#clip482)" style="stroke:#e26f46; stroke-linecap:round; stroke-linejoin:round; stroke-width:8; stroke-opacity:1; fill:none" stroke-dasharray="32, 20" points="236.783,1347.48 242.974,1343.94 249.165,1340.38 255.356,1336.81 261.547,1333.21 267.739,1329.6 273.93,1325.97 280.121,1322.32 286.312,1318.66 292.503,1314.98 298.694,1311.27 304.886,1307.55 311.077,1303.81 317.268,1300.05 323.459,1296.28 329.65,1292.48 335.841,1288.67 342.033,1284.83 348.224,1280.98 354.415,1277.1 360.606,1273.21 366.797,1269.3 372.989,1265.37 379.18,1261.42 385.371,1257.45 391.562,1253.46 397.753,1249.45 403.944,1245.42 410.136,1241.37 416.327,1237.3 422.518,1233.21 428.709,1229.09 434.9,1224.96 441.092,1220.81 447.283,1216.63 453.474,1212.44 459.665,1208.22 465.856,1203.99 472.047,1199.73 478.239,1195.45 484.43,1191.15 490.621,1186.83 496.812,1182.48 503.003,1178.12 509.195,1173.73 515.386,1169.32 521.577,1164.89 527.768,1160.44 533.959,1155.96 540.15,1151.46 546.342,1146.94 552.533,1142.4 558.724,1137.83 564.915,1133.24 571.106,1128.63 577.297,1124 583.489,1119.34 589.68,1114.66 595.871,1109.95 602.062,1105.23 608.253,1100.47 614.445,1095.7 620.636,1090.9 626.827,1086.07 633.018,1081.23 639.209,1076.35 645.4,1071.46 651.592,1066.54 657.783,1061.59 663.974,1056.62 670.165,1051.63 676.356,1046.61 682.548,1041.56 688.739,1036.49 694.93,1031.39 701.121,1026.27 707.312,1021.12 713.503,1015.95 719.695,1010.75 725.886,1005.53 732.077,1000.28 738.268,995 744.459,989.697 750.65,984.367 756.842,979.01 763.033,973.626 769.224,968.216 775.415,962.778 781.606,957.313 787.798,951.821 793.989,946.302 800.18,940.754 806.371,935.179 812.562,929.577 818.753,923.946 824.945,918.286 831.136,912.599 837.327,906.883 843.518,901.139 849.709,895.366 855.901,889.563 862.092,883.732 868.283,877.872 874.474,871.982 880.665,866.063 886.856,860.114 893.048,854.136 899.239,848.128 905.43,842.089 911.621,836.02 917.812,829.921 924.004,823.792 930.195,817.632 936.386,811.441 942.577,805.219 948.768,798.965 954.959,792.681 961.151,786.365 967.342,780.018 973.533,773.638 979.724,767.227 985.915,760.784 992.106,754.308 998.298,747.8 1004.49,741.26 1010.68,734.687 1016.87,728.081 1023.06,721.442 1029.25,714.769 1035.44,708.063 1041.64,701.324 1047.83,694.551 1054.02,687.744 1060.21,680.903 1066.4,674.028 1072.59,667.118 1078.78,660.174 1084.97,653.195 1091.17,646.182 1097.36,639.133 1103.55,632.048 1109.74,624.929 1115.93,617.773 1122.12,610.582 1128.31,603.355 1134.5,596.092 1140.69,588.793 1146.89,581.456 1153.08,574.084 1159.27,566.674 1165.46,559.227 1171.65,551.743 1177.84,544.222 1184.03,536.663 1190.22,529.066 1196.42,521.431 1202.61,513.758 1208.8,506.046 1214.99,498.296 1221.18,490.507 1227.37,482.679 1233.56,474.812 1239.75,466.906 1245.94,458.96 1252.14,450.974 1258.33,442.948 1264.52,434.883 1270.71,426.776 1276.9,418.63 1283.09,410.442 1289.28,402.214 1295.47,393.944 1301.67,385.633 1307.86,377.28 1314.05,368.886 1320.24,360.449 1326.43,351.971 1332.62,343.45 1338.81,334.886 1345,326.28 1351.19,317.63 1357.39,308.937 1363.58,300.201 1369.77,291.421 1375.96,282.596 1382.15,273.728 1388.34,264.816 1394.53,255.859 1400.72,246.857 1406.92,237.81 1413.11,228.717 1419.3,219.58 1425.49,210.396 1431.68,201.167 1437.87,191.891 1444.06,182.569 1450.25,173.2 1456.44,163.785 1462.64,154.322 1468.83,144.812 "/>
<path clip-path="url(#clip480)" d="M243.354 345.704 L547.722 345.704 L547.722 138.344 L243.354 138.344  Z" fill="#ffffff" fill-rule="evenodd" fill-opacity="1"/>
<polyline clip-path="url(#clip480)" style="stroke:#000000; stroke-linecap:round; stroke-linejoin:round; stroke-width:4; stroke-opacity:1; fill:none" points="243.354,345.704 547.722,345.704 547.722,138.344 243.354,138.344 243.354,345.704 "/>
<polyline clip-path="url(#clip480)" style="stroke:#009af9; stroke-linecap:round; stroke-linejoin:round; stroke-width:8; stroke-opacity:1; fill:none" points="257.864,190.184 344.929,190.184 "/>
<path clip-path="url(#clip480)" d="M364.115 176.747 L364.115 203.621 L369.764 203.621 Q376.916 203.621 380.226 200.381 Q383.56 197.14 383.56 190.149 Q383.56 183.205 380.226 179.987 Q376.916 176.747 369.764 176.747 L364.115 176.747 M359.44 172.904 L369.046 172.904 Q379.092 172.904 383.791 177.094 Q388.49 181.26 388.49 190.149 Q388.49 199.084 383.768 203.274 Q379.046 207.464 369.046 207.464 L359.44 207.464 L359.44 172.904 Z" fill="#000000" fill-rule="nonzero" fill-opacity="1" /><path clip-path="url(#clip480)" d="M395.759 181.538 L400.018 181.538 L400.018 207.464 L395.759 207.464 L395.759 181.538 M395.759 171.446 L400.018 171.446 L400.018 176.839 L395.759 176.839 L395.759 171.446 Z" fill="#000000" fill-rule="nonzero" fill-opacity="1" /><path clip-path="url(#clip480)" d="M423.953 185.52 Q423.235 185.103 422.379 184.918 Q421.546 184.709 420.527 184.709 Q416.916 184.709 414.972 187.071 Q413.05 189.409 413.05 193.807 L413.05 207.464 L408.768 207.464 L408.768 181.538 L413.05 181.538 L413.05 185.566 Q414.393 183.205 416.546 182.071 Q418.698 180.913 421.777 180.913 Q422.217 180.913 422.749 180.983 Q423.282 181.029 423.93 181.145 L423.953 185.52 Z" fill="#000000" fill-rule="nonzero" fill-opacity="1" /><path clip-path="url(#clip480)" d="M449.555 193.436 L449.555 195.52 L429.972 195.52 Q430.249 199.918 432.61 202.233 Q434.995 204.524 439.231 204.524 Q441.684 204.524 443.976 203.922 Q446.291 203.32 448.559 202.117 L448.559 206.145 Q446.268 207.117 443.86 207.626 Q441.453 208.135 438.976 208.135 Q432.772 208.135 429.138 204.524 Q425.527 200.913 425.527 194.756 Q425.527 188.39 428.953 184.663 Q432.402 180.913 438.235 180.913 Q443.467 180.913 446.499 184.293 Q449.555 187.649 449.555 193.436 M445.296 192.186 Q445.249 188.691 443.328 186.608 Q441.43 184.524 438.282 184.524 Q434.717 184.524 432.564 186.538 Q430.434 188.552 430.11 192.209 L445.296 192.186 Z" fill="#000000" fill-rule="nonzero" fill-opacity="1" /><path clip-path="url(#clip480)" d="M475.203 182.534 L475.203 186.515 Q473.397 185.52 471.569 185.034 Q469.763 184.524 467.911 184.524 Q463.768 184.524 461.476 187.163 Q459.184 189.779 459.184 194.524 Q459.184 199.27 461.476 201.908 Q463.768 204.524 467.911 204.524 Q469.763 204.524 471.569 204.038 Q473.397 203.529 475.203 202.533 L475.203 206.469 Q473.42 207.302 471.499 207.719 Q469.601 208.135 467.448 208.135 Q461.592 208.135 458.143 204.455 Q454.694 200.774 454.694 194.524 Q454.694 188.182 458.166 184.547 Q461.661 180.913 467.726 180.913 Q469.694 180.913 471.569 181.33 Q473.444 181.723 475.203 182.534 Z" fill="#000000" fill-rule="nonzero" fill-opacity="1" /><path clip-path="url(#clip480)" d="M486.823 174.177 L486.823 181.538 L495.596 181.538 L495.596 184.848 L486.823 184.848 L486.823 198.922 Q486.823 202.094 487.68 202.996 Q488.559 203.899 491.221 203.899 L495.596 203.899 L495.596 207.464 L491.221 207.464 Q486.291 207.464 484.416 205.635 Q482.541 203.783 482.541 198.922 L482.541 184.848 L479.416 184.848 L479.416 181.538 L482.541 181.538 L482.541 174.177 L486.823 174.177 Z" fill="#000000" fill-rule="nonzero" fill-opacity="1" /><polyline clip-path="url(#clip480)" style="stroke:#000000; stroke-linecap:round; stroke-linejoin:round; stroke-width:8; stroke-opacity:1; fill:none" stroke-dasharray="4, 8" points="257.864,242.024 344.929,242.024 "/>
<path clip-path="url(#clip480)" d="M364.115 228.587 L364.115 255.461 L369.764 255.461 Q376.916 255.461 380.226 252.221 Q383.56 248.98 383.56 241.989 Q383.56 235.045 380.226 231.827 Q376.916 228.587 369.764 228.587 L364.115 228.587 M359.44 224.744 L369.046 224.744 Q379.092 224.744 383.791 228.934 Q388.49 233.1 388.49 241.989 Q388.49 250.924 383.768 255.114 Q379.046 259.304 369.046 259.304 L359.44 259.304 L359.44 224.744 Z" fill="#000000" fill-rule="nonzero" fill-opacity="1" /><path clip-path="url(#clip480)" d="M407.541 246.272 Q402.379 246.272 400.388 247.452 Q398.398 248.633 398.398 251.48 Q398.398 253.748 399.879 255.091 Q401.384 256.41 403.953 256.41 Q407.495 256.41 409.624 253.91 Q411.777 251.387 411.777 247.221 L411.777 246.272 L407.541 246.272 M416.036 244.512 L416.036 259.304 L411.777 259.304 L411.777 255.369 Q410.319 257.73 408.143 258.864 Q405.967 259.975 402.819 259.975 Q398.837 259.975 396.476 257.753 Q394.138 255.508 394.138 251.758 Q394.138 247.383 397.055 245.161 Q399.995 242.938 405.805 242.938 L411.777 242.938 L411.777 242.522 Q411.777 239.582 409.833 237.985 Q407.911 236.364 404.416 236.364 Q402.194 236.364 400.087 236.897 Q397.981 237.429 396.037 238.494 L396.037 234.559 Q398.374 233.656 400.574 233.216 Q402.773 232.753 404.856 232.753 Q410.481 232.753 413.259 235.67 Q416.036 238.586 416.036 244.512 Z" fill="#000000" fill-rule="nonzero" fill-opacity="1" /><path clip-path="url(#clip480)" d="M429.022 226.017 L429.022 233.378 L437.796 233.378 L437.796 236.688 L429.022 236.688 L429.022 250.762 Q429.022 253.934 429.879 254.836 Q430.759 255.739 433.421 255.739 L437.796 255.739 L437.796 259.304 L433.421 259.304 Q428.49 259.304 426.615 257.475 Q424.74 255.623 424.74 250.762 L424.74 236.688 L421.615 236.688 L421.615 233.378 L424.74 233.378 L424.74 226.017 L429.022 226.017 Z" fill="#000000" fill-rule="nonzero" fill-opacity="1" /><path clip-path="url(#clip480)" d="M455.18 246.272 Q450.018 246.272 448.027 247.452 Q446.036 248.633 446.036 251.48 Q446.036 253.748 447.518 255.091 Q449.022 256.41 451.592 256.41 Q455.133 256.41 457.263 253.91 Q459.416 251.387 459.416 247.221 L459.416 246.272 L455.18 246.272 M463.675 244.512 L463.675 259.304 L459.416 259.304 L459.416 255.369 Q457.957 257.73 455.782 258.864 Q453.606 259.975 450.458 259.975 Q446.476 259.975 444.115 257.753 Q441.777 255.508 441.777 251.758 Q441.777 247.383 444.694 245.161 Q447.633 242.938 453.444 242.938 L459.416 242.938 L459.416 242.522 Q459.416 239.582 457.471 237.985 Q455.55 236.364 452.055 236.364 Q449.833 236.364 447.726 236.897 Q445.62 237.429 443.675 238.494 L443.675 234.559 Q446.013 233.656 448.212 233.216 Q450.411 232.753 452.495 232.753 Q458.12 232.753 460.897 235.67 Q463.675 238.586 463.675 244.512 Z" fill="#000000" fill-rule="nonzero" fill-opacity="1" /><polyline clip-path="url(#clip480)" style="stroke:#e26f46; stroke-linecap:round; stroke-linejoin:round; stroke-width:8; stroke-opacity:1; fill:none" stroke-dasharray="32, 20" points="257.864,293.864 344.929,293.864 "/>
<path clip-path="url(#clip480)" d="M359.44 276.584 L364.115 276.584 L364.115 311.144 L359.44 311.144 L359.44 276.584 Z" fill="#000000" fill-rule="nonzero" fill-opacity="1" /><path clip-path="url(#clip480)" d="M394.787 295.496 L394.787 311.144 L390.527 311.144 L390.527 295.635 Q390.527 291.954 389.092 290.126 Q387.657 288.297 384.787 288.297 Q381.338 288.297 379.347 290.496 Q377.356 292.695 377.356 296.491 L377.356 311.144 L373.074 311.144 L373.074 285.218 L377.356 285.218 L377.356 289.246 Q378.884 286.908 380.944 285.751 Q383.027 284.593 385.736 284.593 Q390.203 284.593 392.495 287.371 Q394.787 290.126 394.787 295.496 Z" fill="#000000" fill-rule="nonzero" fill-opacity="1" /><path clip-path="url(#clip480)" d="M420.342 289.153 L420.342 275.126 L424.601 275.126 L424.601 311.144 L420.342 311.144 L420.342 307.255 Q418.999 309.57 416.939 310.704 Q414.902 311.815 412.032 311.815 Q407.333 311.815 404.37 308.065 Q401.43 304.315 401.43 298.204 Q401.43 292.093 404.37 288.343 Q407.333 284.593 412.032 284.593 Q414.902 284.593 416.939 285.727 Q418.999 286.839 420.342 289.153 M405.828 298.204 Q405.828 302.903 407.749 305.588 Q409.694 308.25 413.073 308.25 Q416.453 308.25 418.398 305.588 Q420.342 302.903 420.342 298.204 Q420.342 293.505 418.398 290.843 Q416.453 288.158 413.073 288.158 Q409.694 288.158 407.749 290.843 Q405.828 293.505 405.828 298.204 Z" fill="#000000" fill-rule="nonzero" fill-opacity="1" /><path clip-path="url(#clip480)" d="M433.374 285.218 L437.634 285.218 L437.634 311.144 L433.374 311.144 L433.374 285.218 M433.374 275.126 L437.634 275.126 L437.634 280.519 L433.374 280.519 L433.374 275.126 Z" fill="#000000" fill-rule="nonzero" fill-opacity="1" /><path clip-path="url(#clip480)" d="M461.569 289.2 Q460.851 288.783 459.995 288.598 Q459.161 288.389 458.143 288.389 Q454.532 288.389 452.587 290.751 Q450.666 293.089 450.666 297.487 L450.666 311.144 L446.383 311.144 L446.383 285.218 L450.666 285.218 L450.666 289.246 Q452.008 286.885 454.161 285.751 Q456.314 284.593 459.393 284.593 Q459.832 284.593 460.365 284.663 Q460.897 284.709 461.545 284.825 L461.569 289.2 Z" fill="#000000" fill-rule="nonzero" fill-opacity="1" /><path clip-path="url(#clip480)" d="M487.17 297.116 L487.17 299.2 L467.587 299.2 Q467.865 303.598 470.226 305.913 Q472.61 308.204 476.846 308.204 Q479.3 308.204 481.592 307.602 Q483.906 307 486.175 305.797 L486.175 309.825 Q483.883 310.797 481.476 311.306 Q479.068 311.815 476.592 311.815 Q470.388 311.815 466.754 308.204 Q463.143 304.593 463.143 298.436 Q463.143 292.07 466.569 288.343 Q470.018 284.593 475.851 284.593 Q481.082 284.593 484.115 287.973 Q487.17 291.329 487.17 297.116 M482.911 295.866 Q482.865 292.371 480.943 290.288 Q479.045 288.204 475.897 288.204 Q472.332 288.204 470.18 290.218 Q468.05 292.232 467.726 295.889 L482.911 295.866 Z" fill="#000000" fill-rule="nonzero" fill-opacity="1" /><path clip-path="url(#clip480)" d="M512.818 286.214 L512.818 290.195 Q511.013 289.2 509.184 288.714 Q507.379 288.204 505.527 288.204 Q501.383 288.204 499.092 290.843 Q496.8 293.459 496.8 298.204 Q496.8 302.95 499.092 305.588 Q501.383 308.204 505.527 308.204 Q507.379 308.204 509.184 307.718 Q511.013 307.209 512.818 306.213 L512.818 310.149 Q511.036 310.982 509.115 311.399 Q507.216 311.815 505.064 311.815 Q499.207 311.815 495.758 308.135 Q492.309 304.454 492.309 298.204 Q492.309 291.862 495.781 288.227 Q499.277 284.593 505.342 284.593 Q507.309 284.593 509.184 285.01 Q511.059 285.403 512.818 286.214 Z" fill="#000000" fill-rule="nonzero" fill-opacity="1" /><path clip-path="url(#clip480)" d="M524.439 277.857 L524.439 285.218 L533.212 285.218 L533.212 288.528 L524.439 288.528 L524.439 302.602 Q524.439 305.774 525.295 306.676 Q526.175 307.579 528.837 307.579 L533.212 307.579 L533.212 311.144 L528.837 311.144 Q523.906 311.144 522.031 309.315 Q520.156 307.463 520.156 302.602 L520.156 288.528 L517.031 288.528 L517.031 285.218 L520.156 285.218 L520.156 277.857 L524.439 277.857 Z" fill="#000000" fill-rule="nonzero" fill-opacity="1" /><path clip-path="url(#clip480)" d="M1846.79 1383.95 L3152.76 1383.95 L3152.76 95.3921 L1846.79 95.3921  Z" fill="#ffffff" fill-rule="evenodd" fill-opacity="1"/>
<polyline clip-path="url(#clip481)" style="stroke:#000000; stroke-linecap:round; stroke-linejoin:round; stroke-width:2; stroke-opacity:0.1; fill:none" points="1883.75,1383.95 1883.75,95.3921 "/>
<polyline clip-path="url(#clip481)" style="stroke:#000000; stroke-linecap:round; stroke-linejoin:round; stroke-width:2; stroke-opacity:0.1; fill:none" points="2191.76,1383.95 2191.76,95.3921 "/>
<polyline clip-path="url(#clip481)" style="stroke:#000000; stroke-linecap:round; stroke-linejoin:round; stroke-width:2; stroke-opacity:0.1; fill:none" points="2499.77,1383.95 2499.77,95.3921 "/>
<polyline clip-path="url(#clip481)" style="stroke:#000000; stroke-linecap:round; stroke-linejoin:round; stroke-width:2; stroke-opacity:0.1; fill:none" points="2807.78,1383.95 2807.78,95.3921 "/>
<polyline clip-path="url(#clip481)" style="stroke:#000000; stroke-linecap:round; stroke-linejoin:round; stroke-width:2; stroke-opacity:0.1; fill:none" points="3115.79,1383.95 3115.79,95.3921 "/>
<polyline clip-path="url(#clip481)" style="stroke:#000000; stroke-linecap:round; stroke-linejoin:round; stroke-width:2; stroke-opacity:0.1; fill:none" points="1846.79,1340.82 3152.76,1340.82 "/>
<polyline clip-path="url(#clip481)" style="stroke:#000000; stroke-linecap:round; stroke-linejoin:round; stroke-width:2; stroke-opacity:0.1; fill:none" points="1846.79,1062.2 3152.76,1062.2 "/>
<polyline clip-path="url(#clip481)" style="stroke:#000000; stroke-linecap:round; stroke-linejoin:round; stroke-width:2; stroke-opacity:0.1; fill:none" points="1846.79,783.583 3152.76,783.583 "/>
<polyline clip-path="url(#clip481)" style="stroke:#000000; stroke-linecap:round; stroke-linejoin:round; stroke-width:2; stroke-opacity:0.1; fill:none" points="1846.79,504.967 3152.76,504.967 "/>
<polyline clip-path="url(#clip481)" style="stroke:#000000; stroke-linecap:round; stroke-linejoin:round; stroke-width:2; stroke-opacity:0.1; fill:none" points="1846.79,226.351 3152.76,226.351 "/>
<polyline clip-path="url(#clip480)" style="stroke:#000000; stroke-linecap:round; stroke-linejoin:round; stroke-width:4; stroke-opacity:1; fill:none" points="1846.79,1383.95 3152.76,1383.95 "/>
<polyline clip-path="url(#clip480)" style="stroke:#000000; stroke-linecap:round; stroke-linejoin:round; stroke-width:4; stroke-opacity:1; fill:none" points="1883.75,1383.95 1883.75,1365.05 "/>
<polyline clip-path="url(#clip480)" style="stroke:#000000; stroke-linecap:round; stroke-linejoin:round; stroke-width:4; stroke-opacity:1; fill:none" points="2191.76,1383.95 2191.76,1365.05 "/>
<polyline clip-path="url(#clip480)" style="stroke:#000000; stroke-linecap:round; stroke-linejoin:round; stroke-width:4; stroke-opacity:1; fill:none" points="2499.77,1383.95 2499.77,1365.05 "/>
<polyline clip-path="url(#clip480)" style="stroke:#000000; stroke-linecap:round; stroke-linejoin:round; stroke-width:4; stroke-opacity:1; fill:none" points="2807.78,1383.95 2807.78,1365.05 "/>
<polyline clip-path="url(#clip480)" style="stroke:#000000; stroke-linecap:round; stroke-linejoin:round; stroke-width:4; stroke-opacity:1; fill:none" points="3115.79,1383.95 3115.79,1365.05 "/>
<path clip-path="url(#clip480)" d="M1861.13 1421.27 Q1857.52 1421.27 1855.69 1424.83 Q1853.89 1428.37 1853.89 1435.5 Q1853.89 1442.61 1855.69 1446.17 Q1857.52 1449.72 1861.13 1449.72 Q1864.77 1449.72 1866.57 1446.17 Q1868.4 1442.61 1868.4 1435.5 Q1868.4 1428.37 1866.57 1424.83 Q1864.77 1421.27 1861.13 1421.27 M1861.13 1417.56 Q1866.94 1417.56 1870 1422.17 Q1873.08 1426.75 1873.08 1435.5 Q1873.08 1444.23 1870 1448.84 Q1866.94 1453.42 1861.13 1453.42 Q1855.32 1453.42 1852.25 1448.84 Q1849.19 1444.23 1849.19 1435.5 Q1849.19 1426.75 1852.25 1422.17 Q1855.32 1417.56 1861.13 1417.56 Z" fill="#000000" fill-rule="nonzero" fill-opacity="1" /><path clip-path="url(#clip480)" d="M1881.3 1446.87 L1886.18 1446.87 L1886.18 1452.75 L1881.3 1452.75 L1881.3 1446.87 Z" fill="#000000" fill-rule="nonzero" fill-opacity="1" /><path clip-path="url(#clip480)" d="M1906.37 1421.27 Q1902.75 1421.27 1900.93 1424.83 Q1899.12 1428.37 1899.12 1435.5 Q1899.12 1442.61 1900.93 1446.17 Q1902.75 1449.72 1906.37 1449.72 Q1910 1449.72 1911.81 1446.17 Q1913.63 1442.61 1913.63 1435.5 Q1913.63 1428.37 1911.81 1424.83 Q1910 1421.27 1906.37 1421.27 M1906.37 1417.56 Q1912.18 1417.56 1915.23 1422.17 Q1918.31 1426.75 1918.31 1435.5 Q1918.31 1444.23 1915.23 1448.84 Q1912.18 1453.42 1906.37 1453.42 Q1900.56 1453.42 1897.48 1448.84 Q1894.42 1444.23 1894.42 1435.5 Q1894.42 1426.75 1897.48 1422.17 Q1900.56 1417.56 1906.37 1417.56 Z" fill="#000000" fill-rule="nonzero" fill-opacity="1" /><path clip-path="url(#clip480)" d="M2169.64 1421.27 Q2166.03 1421.27 2164.2 1424.83 Q2162.4 1428.37 2162.4 1435.5 Q2162.4 1442.61 2164.2 1446.17 Q2166.03 1449.72 2169.64 1449.72 Q2173.28 1449.72 2175.08 1446.17 Q2176.91 1442.61 2176.91 1435.5 Q2176.91 1428.37 2175.08 1424.83 Q2173.28 1421.27 2169.64 1421.27 M2169.64 1417.56 Q2175.45 1417.56 2178.51 1422.17 Q2181.59 1426.75 2181.59 1435.5 Q2181.59 1444.23 2178.51 1448.84 Q2175.45 1453.42 2169.64 1453.42 Q2163.83 1453.42 2160.75 1448.84 Q2157.7 1444.23 2157.7 1435.5 Q2157.7 1426.75 2160.75 1422.17 Q2163.83 1417.56 2169.64 1417.56 Z" fill="#000000" fill-rule="nonzero" fill-opacity="1" /><path clip-path="url(#clip480)" d="M2189.81 1446.87 L2194.69 1446.87 L2194.69 1452.75 L2189.81 1452.75 L2189.81 1446.87 Z" fill="#000000" fill-rule="nonzero" fill-opacity="1" /><path clip-path="url(#clip480)" d="M2204.92 1418.19 L2223.28 1418.19 L2223.28 1422.12 L2209.2 1422.12 L2209.2 1430.6 Q2210.22 1430.25 2211.24 1430.09 Q2212.26 1429.9 2213.28 1429.9 Q2219.06 1429.9 2222.44 1433.07 Q2225.82 1436.24 2225.82 1441.66 Q2225.82 1447.24 2222.35 1450.34 Q2218.88 1453.42 2212.56 1453.42 Q2210.38 1453.42 2208.12 1453.05 Q2205.87 1452.68 2203.46 1451.94 L2203.46 1447.24 Q2205.55 1448.37 2207.77 1448.93 Q2209.99 1449.48 2212.47 1449.48 Q2216.47 1449.48 2218.81 1447.38 Q2221.15 1445.27 2221.15 1441.66 Q2221.15 1438.05 2218.81 1435.94 Q2216.47 1433.84 2212.47 1433.84 Q2210.59 1433.84 2208.72 1434.25 Q2206.87 1434.67 2204.92 1435.55 L2204.92 1418.19 Z" fill="#000000" fill-rule="nonzero" fill-opacity="1" /><path clip-path="url(#clip480)" d="M2466.93 1448.81 L2474.56 1448.81 L2474.56 1422.45 L2466.25 1424.11 L2466.25 1419.85 L2474.52 1418.19 L2479.19 1418.19 L2479.19 1448.81 L2486.83 1448.81 L2486.83 1452.75 L2466.93 1452.75 L2466.93 1448.81 Z" fill="#000000" fill-rule="nonzero" fill-opacity="1" /><path clip-path="url(#clip480)" d="M2496.28 1446.87 L2501.16 1446.87 L2501.16 1452.75 L2496.28 1452.75 L2496.28 1446.87 Z" fill="#000000" fill-rule="nonzero" fill-opacity="1" /><path clip-path="url(#clip480)" d="M2521.35 1421.27 Q2517.74 1421.27 2515.91 1424.83 Q2514.1 1428.37 2514.1 1435.5 Q2514.1 1442.61 2515.91 1446.17 Q2517.74 1449.72 2521.35 1449.72 Q2524.98 1449.72 2526.79 1446.17 Q2528.61 1442.61 2528.61 1435.5 Q2528.61 1428.37 2526.79 1424.83 Q2524.98 1421.27 2521.35 1421.27 M2521.35 1417.56 Q2527.16 1417.56 2530.21 1422.17 Q2533.29 1426.75 2533.29 1435.5 Q2533.29 1444.23 2530.21 1448.84 Q2527.16 1453.42 2521.35 1453.42 Q2515.54 1453.42 2512.46 1448.84 Q2509.4 1444.23 2509.4 1435.5 Q2509.4 1426.75 2512.46 1422.17 Q2515.54 1417.56 2521.35 1417.56 Z" fill="#000000" fill-rule="nonzero" fill-opacity="1" /><path clip-path="url(#clip480)" d="M2775.43 1448.81 L2783.07 1448.81 L2783.07 1422.45 L2774.76 1424.11 L2774.76 1419.85 L2783.03 1418.19 L2787.7 1418.19 L2787.7 1448.81 L2795.34 1448.81 L2795.34 1452.75 L2775.43 1452.75 L2775.43 1448.81 Z" fill="#000000" fill-rule="nonzero" fill-opacity="1" /><path clip-path="url(#clip480)" d="M2804.79 1446.87 L2809.67 1446.87 L2809.67 1452.75 L2804.79 1452.75 L2804.79 1446.87 Z" fill="#000000" fill-rule="nonzero" fill-opacity="1" /><path clip-path="url(#clip480)" d="M2819.9 1418.19 L2838.26 1418.19 L2838.26 1422.12 L2824.18 1422.12 L2824.18 1430.6 Q2825.2 1430.25 2826.22 1430.09 Q2827.24 1429.9 2828.26 1429.9 Q2834.04 1429.9 2837.42 1433.07 Q2840.8 1436.24 2840.8 1441.66 Q2840.8 1447.24 2837.33 1450.34 Q2833.86 1453.42 2827.54 1453.42 Q2825.36 1453.42 2823.1 1453.05 Q2820.85 1452.68 2818.44 1451.94 L2818.44 1447.24 Q2820.53 1448.37 2822.75 1448.93 Q2824.97 1449.48 2827.45 1449.48 Q2831.45 1449.48 2833.79 1447.38 Q2836.13 1445.27 2836.13 1441.66 Q2836.13 1438.05 2833.79 1435.94 Q2831.45 1433.84 2827.45 1433.84 Q2825.57 1433.84 2823.7 1434.25 Q2821.85 1434.67 2819.9 1435.55 L2819.9 1418.19 Z" fill="#000000" fill-rule="nonzero" fill-opacity="1" /><path clip-path="url(#clip480)" d="M3087.03 1448.81 L3103.35 1448.81 L3103.35 1452.75 L3081.41 1452.75 L3081.41 1448.81 Q3084.07 1446.06 3088.65 1441.43 Q3093.26 1436.78 3094.44 1435.43 Q3096.69 1432.91 3097.57 1431.17 Q3098.47 1429.41 3098.47 1427.72 Q3098.47 1424.97 3096.52 1423.23 Q3094.6 1421.5 3091.5 1421.5 Q3089.3 1421.5 3086.85 1422.26 Q3084.42 1423.03 3081.64 1424.58 L3081.64 1419.85 Q3084.46 1418.72 3086.92 1418.14 Q3089.37 1417.56 3091.41 1417.56 Q3096.78 1417.56 3099.97 1420.25 Q3103.17 1422.93 3103.17 1427.42 Q3103.17 1429.55 3102.36 1431.47 Q3101.57 1433.37 3099.46 1435.97 Q3098.88 1436.64 3095.78 1439.85 Q3092.68 1443.05 3087.03 1448.81 Z" fill="#000000" fill-rule="nonzero" fill-opacity="1" /><path clip-path="url(#clip480)" d="M3113.17 1446.87 L3118.05 1446.87 L3118.05 1452.75 L3113.17 1452.75 L3113.17 1446.87 Z" fill="#000000" fill-rule="nonzero" fill-opacity="1" /><path clip-path="url(#clip480)" d="M3138.24 1421.27 Q3134.63 1421.27 3132.8 1424.83 Q3130.99 1428.37 3130.99 1435.5 Q3130.99 1442.61 3132.8 1446.17 Q3134.63 1449.72 3138.24 1449.72 Q3141.87 1449.72 3143.68 1446.17 Q3145.51 1442.61 3145.51 1435.5 Q3145.51 1428.37 3143.68 1424.83 Q3141.87 1421.27 3138.24 1421.27 M3138.24 1417.56 Q3144.05 1417.56 3147.1 1422.17 Q3150.18 1426.75 3150.18 1435.5 Q3150.18 1444.23 3147.1 1448.84 Q3144.05 1453.42 3138.24 1453.42 Q3132.43 1453.42 3129.35 1448.84 Q3126.29 1444.23 3126.29 1435.5 Q3126.29 1426.75 3129.35 1422.17 Q3132.43 1417.56 3138.24 1417.56 Z" fill="#000000" fill-rule="nonzero" fill-opacity="1" /><path clip-path="url(#clip480)" d="M2498.92 1494.02 L2498.92 1503.22 L2509.89 1503.22 L2509.89 1507.36 L2498.92 1507.36 L2498.92 1524.95 Q2498.92 1528.91 2499.99 1530.04 Q2501.09 1531.17 2504.42 1531.17 L2509.89 1531.17 L2509.89 1535.63 L2504.42 1535.63 Q2498.25 1535.63 2495.91 1533.34 Q2493.57 1531.03 2493.57 1524.95 L2493.57 1507.36 L2489.66 1507.36 L2489.66 1503.22 L2493.57 1503.22 L2493.57 1494.02 L2498.92 1494.02 Z" fill="#000000" fill-rule="nonzero" fill-opacity="1" /><polyline clip-path="url(#clip480)" style="stroke:#000000; stroke-linecap:round; stroke-linejoin:round; stroke-width:4; stroke-opacity:1; fill:none" points="1846.79,1383.95 1846.79,95.3921 "/>
<polyline clip-path="url(#clip480)" style="stroke:#000000; stroke-linecap:round; stroke-linejoin:round; stroke-width:4; stroke-opacity:1; fill:none" points="1846.79,1340.82 1865.69,1340.82 "/>
<polyline clip-path="url(#clip480)" style="stroke:#000000; stroke-linecap:round; stroke-linejoin:round; stroke-width:4; stroke-opacity:1; fill:none" points="1846.79,1062.2 1865.69,1062.2 "/>
<polyline clip-path="url(#clip480)" style="stroke:#000000; stroke-linecap:round; stroke-linejoin:round; stroke-width:4; stroke-opacity:1; fill:none" points="1846.79,783.583 1865.69,783.583 "/>
<polyline clip-path="url(#clip480)" style="stroke:#000000; stroke-linecap:round; stroke-linejoin:round; stroke-width:4; stroke-opacity:1; fill:none" points="1846.79,504.967 1865.69,504.967 "/>
<polyline clip-path="url(#clip480)" style="stroke:#000000; stroke-linecap:round; stroke-linejoin:round; stroke-width:4; stroke-opacity:1; fill:none" points="1846.79,226.351 1865.69,226.351 "/>
<path clip-path="url(#clip480)" d="M1631.52 1341.27 L1661.2 1341.27 L1661.2 1345.2 L1631.52 1345.2 L1631.52 1341.27 Z" fill="#000000" fill-rule="nonzero" fill-opacity="1" /><path clip-path="url(#clip480)" d="M1681.29 1326.61 Q1677.68 1326.61 1675.85 1330.18 Q1674.04 1333.72 1674.04 1340.85 Q1674.04 1347.96 1675.85 1351.52 Q1677.68 1355.06 1681.29 1355.06 Q1684.92 1355.06 1686.73 1351.52 Q1688.56 1347.96 1688.56 1340.85 Q1688.56 1333.72 1686.73 1330.18 Q1684.92 1326.61 1681.29 1326.61 M1681.29 1322.91 Q1687.1 1322.91 1690.15 1327.52 Q1693.23 1332.1 1693.23 1340.85 Q1693.23 1349.58 1690.15 1354.18 Q1687.1 1358.77 1681.29 1358.77 Q1675.48 1358.77 1672.4 1354.18 Q1669.34 1349.58 1669.34 1340.85 Q1669.34 1332.1 1672.4 1327.52 Q1675.48 1322.91 1681.29 1322.91 Z" fill="#000000" fill-rule="nonzero" fill-opacity="1" /><path clip-path="url(#clip480)" d="M1701.45 1352.22 L1706.34 1352.22 L1706.34 1358.1 L1701.45 1358.1 L1701.45 1352.22 Z" fill="#000000" fill-rule="nonzero" fill-opacity="1" /><path clip-path="url(#clip480)" d="M1726.52 1326.61 Q1722.91 1326.61 1721.08 1330.18 Q1719.28 1333.72 1719.28 1340.85 Q1719.28 1347.96 1721.08 1351.52 Q1722.91 1355.06 1726.52 1355.06 Q1730.15 1355.06 1731.96 1351.52 Q1733.79 1347.96 1733.79 1340.85 Q1733.79 1333.72 1731.96 1330.18 Q1730.15 1326.61 1726.52 1326.61 M1726.52 1322.91 Q1732.33 1322.91 1735.39 1327.52 Q1738.46 1332.1 1738.46 1340.85 Q1738.46 1349.58 1735.39 1354.18 Q1732.33 1358.77 1726.52 1358.77 Q1720.71 1358.77 1717.63 1354.18 Q1714.58 1349.58 1714.58 1340.85 Q1714.58 1332.1 1717.63 1327.52 Q1720.71 1322.91 1726.52 1322.91 Z" fill="#000000" fill-rule="nonzero" fill-opacity="1" /><path clip-path="url(#clip480)" d="M1746.73 1323.54 L1765.09 1323.54 L1765.09 1327.47 L1751.01 1327.47 L1751.01 1335.94 Q1752.03 1335.6 1753.05 1335.43 Q1754.07 1335.25 1755.09 1335.25 Q1760.87 1335.25 1764.25 1338.42 Q1767.63 1341.59 1767.63 1347.01 Q1767.63 1352.59 1764.16 1355.69 Q1760.69 1358.77 1754.37 1358.77 Q1752.19 1358.77 1749.92 1358.4 Q1747.68 1358.03 1745.27 1357.29 L1745.27 1352.59 Q1747.35 1353.72 1749.58 1354.28 Q1751.8 1354.83 1754.27 1354.83 Q1758.28 1354.83 1760.62 1352.73 Q1762.96 1350.62 1762.96 1347.01 Q1762.96 1343.4 1760.62 1341.29 Q1758.28 1339.18 1754.27 1339.18 Q1752.4 1339.18 1750.52 1339.6 Q1748.67 1340.02 1746.73 1340.9 L1746.73 1323.54 Z" fill="#000000" fill-rule="nonzero" fill-opacity="1" /><path clip-path="url(#clip480)" d="M1786.84 1326.61 Q1783.23 1326.61 1781.4 1330.18 Q1779.6 1333.72 1779.6 1340.85 Q1779.6 1347.96 1781.4 1351.52 Q1783.23 1355.06 1786.84 1355.06 Q1790.48 1355.06 1792.28 1351.52 Q1794.11 1347.96 1794.11 1340.85 Q1794.11 1333.72 1792.28 1330.18 Q1790.48 1326.61 1786.84 1326.61 M1786.84 1322.91 Q1792.65 1322.91 1795.71 1327.52 Q1798.79 1332.1 1798.79 1340.85 Q1798.79 1349.58 1795.71 1354.18 Q1792.65 1358.77 1786.84 1358.77 Q1781.03 1358.77 1777.96 1354.18 Q1774.9 1349.58 1774.9 1340.85 Q1774.9 1332.1 1777.96 1327.52 Q1781.03 1322.91 1786.84 1322.91 Z" fill="#000000" fill-rule="nonzero" fill-opacity="1" /><path clip-path="url(#clip480)" d="M1632.52 1062.65 L1662.19 1062.65 L1662.19 1066.59 L1632.52 1066.59 L1632.52 1062.65 Z" fill="#000000" fill-rule="nonzero" fill-opacity="1" /><path clip-path="url(#clip480)" d="M1682.28 1048 Q1678.67 1048 1676.84 1051.56 Q1675.04 1055.1 1675.04 1062.23 Q1675.04 1069.34 1676.84 1072.91 Q1678.67 1076.45 1682.28 1076.45 Q1685.92 1076.45 1687.72 1072.91 Q1689.55 1069.34 1689.55 1062.23 Q1689.55 1055.1 1687.72 1051.56 Q1685.92 1048 1682.28 1048 M1682.28 1044.29 Q1688.09 1044.29 1691.15 1048.9 Q1694.23 1053.48 1694.23 1062.23 Q1694.23 1070.96 1691.15 1075.57 Q1688.09 1080.15 1682.28 1080.15 Q1676.47 1080.15 1673.4 1075.57 Q1670.34 1070.96 1670.34 1062.23 Q1670.34 1053.48 1673.4 1048.9 Q1676.47 1044.29 1682.28 1044.29 Z" fill="#000000" fill-rule="nonzero" fill-opacity="1" /><path clip-path="url(#clip480)" d="M1702.45 1073.6 L1707.33 1073.6 L1707.33 1079.48 L1702.45 1079.48 L1702.45 1073.6 Z" fill="#000000" fill-rule="nonzero" fill-opacity="1" /><path clip-path="url(#clip480)" d="M1727.52 1048 Q1723.9 1048 1722.08 1051.56 Q1720.27 1055.1 1720.27 1062.23 Q1720.27 1069.34 1722.08 1072.91 Q1723.9 1076.45 1727.52 1076.45 Q1731.15 1076.45 1732.96 1072.91 Q1734.78 1069.34 1734.78 1062.23 Q1734.78 1055.1 1732.96 1051.56 Q1731.15 1048 1727.52 1048 M1727.52 1044.29 Q1733.33 1044.29 1736.38 1048.9 Q1739.46 1053.48 1739.46 1062.23 Q1739.46 1070.96 1736.38 1075.57 Q1733.33 1080.15 1727.52 1080.15 Q1721.71 1080.15 1718.63 1075.57 Q1715.57 1070.96 1715.57 1062.23 Q1715.57 1053.48 1718.63 1048.9 Q1721.71 1044.29 1727.52 1044.29 Z" fill="#000000" fill-rule="nonzero" fill-opacity="1" /><path clip-path="url(#clip480)" d="M1751.71 1075.54 L1768.02 1075.54 L1768.02 1079.48 L1746.08 1079.48 L1746.08 1075.54 Q1748.74 1072.79 1753.33 1068.16 Q1757.93 1063.51 1759.11 1062.16 Q1761.36 1059.64 1762.24 1057.91 Q1763.14 1056.15 1763.14 1054.46 Q1763.14 1051.7 1761.2 1049.97 Q1759.27 1048.23 1756.17 1048.23 Q1753.97 1048.23 1751.52 1048.99 Q1749.09 1049.76 1746.31 1051.31 L1746.31 1046.59 Q1749.14 1045.45 1751.59 1044.87 Q1754.04 1044.29 1756.08 1044.29 Q1761.45 1044.29 1764.65 1046.98 Q1767.84 1049.66 1767.84 1054.16 Q1767.84 1056.29 1767.03 1058.21 Q1766.24 1060.1 1764.14 1062.7 Q1763.56 1063.37 1760.46 1066.59 Q1757.35 1069.78 1751.71 1075.54 Z" fill="#000000" fill-rule="nonzero" fill-opacity="1" /><path clip-path="url(#clip480)" d="M1777.89 1044.92 L1796.24 1044.92 L1796.24 1048.85 L1782.17 1048.85 L1782.17 1057.33 Q1783.19 1056.98 1784.21 1056.82 Q1785.22 1056.63 1786.24 1056.63 Q1792.03 1056.63 1795.41 1059.8 Q1798.79 1062.97 1798.79 1068.39 Q1798.79 1073.97 1795.32 1077.07 Q1791.84 1080.15 1785.52 1080.15 Q1783.35 1080.15 1781.08 1079.78 Q1778.83 1079.41 1776.43 1078.67 L1776.43 1073.97 Q1778.51 1075.1 1780.73 1075.66 Q1782.96 1076.22 1785.43 1076.22 Q1789.44 1076.22 1791.77 1074.11 Q1794.11 1072 1794.11 1068.39 Q1794.11 1064.78 1791.77 1062.67 Q1789.44 1060.57 1785.43 1060.57 Q1783.56 1060.57 1781.68 1060.98 Q1779.83 1061.4 1777.89 1062.28 L1777.89 1044.92 Z" fill="#000000" fill-rule="nonzero" fill-opacity="1" /><path clip-path="url(#clip480)" d="M1681.29 769.382 Q1677.68 769.382 1675.85 772.947 Q1674.04 776.488 1674.04 783.618 Q1674.04 790.724 1675.85 794.289 Q1677.68 797.831 1681.29 797.831 Q1684.92 797.831 1686.73 794.289 Q1688.56 790.724 1688.56 783.618 Q1688.56 776.488 1686.73 772.947 Q1684.92 769.382 1681.29 769.382 M1681.29 765.678 Q1687.1 765.678 1690.15 770.285 Q1693.23 774.868 1693.23 783.618 Q1693.23 792.345 1690.15 796.951 Q1687.1 801.534 1681.29 801.534 Q1675.48 801.534 1672.4 796.951 Q1669.34 792.345 1669.34 783.618 Q1669.34 774.868 1672.4 770.285 Q1675.48 765.678 1681.29 765.678 Z" fill="#000000" fill-rule="nonzero" fill-opacity="1" /><path clip-path="url(#clip480)" d="M1701.45 794.984 L1706.34 794.984 L1706.34 800.863 L1701.45 800.863 L1701.45 794.984 Z" fill="#000000" fill-rule="nonzero" fill-opacity="1" /><path clip-path="url(#clip480)" d="M1726.52 769.382 Q1722.91 769.382 1721.08 772.947 Q1719.28 776.488 1719.28 783.618 Q1719.28 790.724 1721.08 794.289 Q1722.91 797.831 1726.52 797.831 Q1730.15 797.831 1731.96 794.289 Q1733.79 790.724 1733.79 783.618 Q1733.79 776.488 1731.96 772.947 Q1730.15 769.382 1726.52 769.382 M1726.52 765.678 Q1732.33 765.678 1735.39 770.285 Q1738.46 774.868 1738.46 783.618 Q1738.46 792.345 1735.39 796.951 Q1732.33 801.534 1726.52 801.534 Q1720.71 801.534 1717.63 796.951 Q1714.58 792.345 1714.58 783.618 Q1714.58 774.868 1717.63 770.285 Q1720.71 765.678 1726.52 765.678 Z" fill="#000000" fill-rule="nonzero" fill-opacity="1" /><path clip-path="url(#clip480)" d="M1756.68 769.382 Q1753.07 769.382 1751.24 772.947 Q1749.44 776.488 1749.44 783.618 Q1749.44 790.724 1751.24 794.289 Q1753.07 797.831 1756.68 797.831 Q1760.32 797.831 1762.12 794.289 Q1763.95 790.724 1763.95 783.618 Q1763.95 776.488 1762.12 772.947 Q1760.32 769.382 1756.68 769.382 M1756.68 765.678 Q1762.49 765.678 1765.55 770.285 Q1768.63 774.868 1768.63 783.618 Q1768.63 792.345 1765.55 796.951 Q1762.49 801.534 1756.68 801.534 Q1750.87 801.534 1747.79 796.951 Q1744.74 792.345 1744.74 783.618 Q1744.74 774.868 1747.79 770.285 Q1750.87 765.678 1756.68 765.678 Z" fill="#000000" fill-rule="nonzero" fill-opacity="1" /><path clip-path="url(#clip480)" d="M1786.84 769.382 Q1783.23 769.382 1781.4 772.947 Q1779.6 776.488 1779.6 783.618 Q1779.6 790.724 1781.4 794.289 Q1783.23 797.831 1786.84 797.831 Q1790.48 797.831 1792.28 794.289 Q1794.11 790.724 1794.11 783.618 Q1794.11 776.488 1792.28 772.947 Q1790.48 769.382 1786.84 769.382 M1786.84 765.678 Q1792.65 765.678 1795.71 770.285 Q1798.79 774.868 1798.79 783.618 Q1798.79 792.345 1795.71 796.951 Q1792.65 801.534 1786.84 801.534 Q1781.03 801.534 1777.96 796.951 Q1774.9 792.345 1774.9 783.618 Q1774.9 774.868 1777.96 770.285 Q1781.03 765.678 1786.84 765.678 Z" fill="#000000" fill-rule="nonzero" fill-opacity="1" /><path clip-path="url(#clip480)" d="M1682.28 490.766 Q1678.67 490.766 1676.84 494.33 Q1675.04 497.872 1675.04 505.002 Q1675.04 512.108 1676.84 515.673 Q1678.67 519.215 1682.28 519.215 Q1685.92 519.215 1687.72 515.673 Q1689.55 512.108 1689.55 505.002 Q1689.55 497.872 1687.72 494.33 Q1685.92 490.766 1682.28 490.766 M1682.28 487.062 Q1688.09 487.062 1691.15 491.668 Q1694.23 496.252 1694.23 505.002 Q1694.23 513.728 1691.15 518.335 Q1688.09 522.918 1682.28 522.918 Q1676.47 522.918 1673.4 518.335 Q1670.34 513.728 1670.34 505.002 Q1670.34 496.252 1673.4 491.668 Q1676.47 487.062 1682.28 487.062 Z" fill="#000000" fill-rule="nonzero" fill-opacity="1" /><path clip-path="url(#clip480)" d="M1702.45 516.367 L1707.33 516.367 L1707.33 522.247 L1702.45 522.247 L1702.45 516.367 Z" fill="#000000" fill-rule="nonzero" fill-opacity="1" /><path clip-path="url(#clip480)" d="M1727.52 490.766 Q1723.9 490.766 1722.08 494.33 Q1720.27 497.872 1720.27 505.002 Q1720.27 512.108 1722.08 515.673 Q1723.9 519.215 1727.52 519.215 Q1731.15 519.215 1732.96 515.673 Q1734.78 512.108 1734.78 505.002 Q1734.78 497.872 1732.96 494.33 Q1731.15 490.766 1727.52 490.766 M1727.52 487.062 Q1733.33 487.062 1736.38 491.668 Q1739.46 496.252 1739.46 505.002 Q1739.46 513.728 1736.38 518.335 Q1733.33 522.918 1727.52 522.918 Q1721.71 522.918 1718.63 518.335 Q1715.57 513.728 1715.57 505.002 Q1715.57 496.252 1718.63 491.668 Q1721.71 487.062 1727.52 487.062 Z" fill="#000000" fill-rule="nonzero" fill-opacity="1" /><path clip-path="url(#clip480)" d="M1751.71 518.312 L1768.02 518.312 L1768.02 522.247 L1746.08 522.247 L1746.08 518.312 Q1748.74 515.557 1753.33 510.928 Q1757.93 506.275 1759.11 504.932 Q1761.36 502.409 1762.24 500.673 Q1763.14 498.914 1763.14 497.224 Q1763.14 494.469 1761.2 492.733 Q1759.27 490.997 1756.17 490.997 Q1753.97 490.997 1751.52 491.761 Q1749.09 492.525 1746.31 494.076 L1746.31 489.354 Q1749.14 488.219 1751.59 487.641 Q1754.04 487.062 1756.08 487.062 Q1761.45 487.062 1764.65 489.747 Q1767.84 492.432 1767.84 496.923 Q1767.84 499.053 1767.03 500.974 Q1766.24 502.872 1764.14 505.465 Q1763.56 506.136 1760.46 509.353 Q1757.35 512.548 1751.71 518.312 Z" fill="#000000" fill-rule="nonzero" fill-opacity="1" /><path clip-path="url(#clip480)" d="M1777.89 487.687 L1796.24 487.687 L1796.24 491.622 L1782.17 491.622 L1782.17 500.094 Q1783.19 499.747 1784.21 499.585 Q1785.22 499.4 1786.24 499.4 Q1792.03 499.4 1795.41 502.571 Q1798.79 505.742 1798.79 511.159 Q1798.79 516.738 1795.32 519.84 Q1791.84 522.918 1785.52 522.918 Q1783.35 522.918 1781.08 522.548 Q1778.83 522.177 1776.43 521.437 L1776.43 516.738 Q1778.51 517.872 1780.73 518.428 Q1782.96 518.983 1785.43 518.983 Q1789.44 518.983 1791.77 516.877 Q1794.11 514.77 1794.11 511.159 Q1794.11 507.548 1791.77 505.441 Q1789.44 503.335 1785.43 503.335 Q1783.56 503.335 1781.68 503.752 Q1779.83 504.168 1777.89 505.048 L1777.89 487.687 Z" fill="#000000" fill-rule="nonzero" fill-opacity="1" /><path clip-path="url(#clip480)" d="M1681.29 212.149 Q1677.68 212.149 1675.85 215.714 Q1674.04 219.256 1674.04 226.385 Q1674.04 233.492 1675.85 237.057 Q1677.68 240.598 1681.29 240.598 Q1684.92 240.598 1686.73 237.057 Q1688.56 233.492 1688.56 226.385 Q1688.56 219.256 1686.73 215.714 Q1684.92 212.149 1681.29 212.149 M1681.29 208.446 Q1687.1 208.446 1690.15 213.052 Q1693.23 217.635 1693.23 226.385 Q1693.23 235.112 1690.15 239.719 Q1687.1 244.302 1681.29 244.302 Q1675.48 244.302 1672.4 239.719 Q1669.34 235.112 1669.34 226.385 Q1669.34 217.635 1672.4 213.052 Q1675.48 208.446 1681.29 208.446 Z" fill="#000000" fill-rule="nonzero" fill-opacity="1" /><path clip-path="url(#clip480)" d="M1701.45 237.751 L1706.34 237.751 L1706.34 243.631 L1701.45 243.631 L1701.45 237.751 Z" fill="#000000" fill-rule="nonzero" fill-opacity="1" /><path clip-path="url(#clip480)" d="M1726.52 212.149 Q1722.91 212.149 1721.08 215.714 Q1719.28 219.256 1719.28 226.385 Q1719.28 233.492 1721.08 237.057 Q1722.91 240.598 1726.52 240.598 Q1730.15 240.598 1731.96 237.057 Q1733.79 233.492 1733.79 226.385 Q1733.79 219.256 1731.96 215.714 Q1730.15 212.149 1726.52 212.149 M1726.52 208.446 Q1732.33 208.446 1735.39 213.052 Q1738.46 217.635 1738.46 226.385 Q1738.46 235.112 1735.39 239.719 Q1732.33 244.302 1726.52 244.302 Q1720.71 244.302 1717.63 239.719 Q1714.58 235.112 1714.58 226.385 Q1714.58 217.635 1717.63 213.052 Q1720.71 208.446 1726.52 208.446 Z" fill="#000000" fill-rule="nonzero" fill-opacity="1" /><path clip-path="url(#clip480)" d="M1746.73 209.071 L1765.09 209.071 L1765.09 213.006 L1751.01 213.006 L1751.01 221.478 Q1752.03 221.131 1753.05 220.969 Q1754.07 220.784 1755.09 220.784 Q1760.87 220.784 1764.25 223.955 Q1767.63 227.126 1767.63 232.543 Q1767.63 238.121 1764.16 241.223 Q1760.69 244.302 1754.37 244.302 Q1752.19 244.302 1749.92 243.932 Q1747.68 243.561 1745.27 242.821 L1745.27 238.121 Q1747.35 239.256 1749.58 239.811 Q1751.8 240.367 1754.27 240.367 Q1758.28 240.367 1760.62 238.26 Q1762.96 236.154 1762.96 232.543 Q1762.96 228.932 1760.62 226.825 Q1758.28 224.719 1754.27 224.719 Q1752.4 224.719 1750.52 225.135 Q1748.67 225.552 1746.73 226.432 L1746.73 209.071 Z" fill="#000000" fill-rule="nonzero" fill-opacity="1" /><path clip-path="url(#clip480)" d="M1786.84 212.149 Q1783.23 212.149 1781.4 215.714 Q1779.6 219.256 1779.6 226.385 Q1779.6 233.492 1781.4 237.057 Q1783.23 240.598 1786.84 240.598 Q1790.48 240.598 1792.28 237.057 Q1794.11 233.492 1794.11 226.385 Q1794.11 219.256 1792.28 215.714 Q1790.48 212.149 1786.84 212.149 M1786.84 208.446 Q1792.65 208.446 1795.71 213.052 Q1798.79 217.635 1798.79 226.385 Q1798.79 235.112 1795.71 239.719 Q1792.65 244.302 1786.84 244.302 Q1781.03 244.302 1777.96 239.719 Q1774.9 235.112 1774.9 226.385 Q1774.9 217.635 1777.96 213.052 Q1781.03 208.446 1786.84 208.446 Z" fill="#000000" fill-rule="nonzero" fill-opacity="1" /><path clip-path="url(#clip480)" d="M2419.14 20.677 L2419.14 25.6538 Q2416.89 24.4096 2414.6 23.802 Q2412.35 23.1654 2410.03 23.1654 Q2404.85 23.1654 2401.99 26.464 Q2399.12 29.7336 2399.12 35.6653 Q2399.12 41.597 2401.99 44.8956 Q2404.85 48.1653 2410.03 48.1653 Q2412.35 48.1653 2414.6 47.5576 Q2416.89 46.921 2419.14 45.6768 L2419.14 50.5958 Q2416.92 51.6375 2414.52 52.1583 Q2412.14 52.6791 2409.45 52.6791 Q2402.13 52.6791 2397.82 48.0784 Q2393.51 43.4778 2393.51 35.6653 Q2393.51 27.7371 2397.85 23.1943 Q2402.22 18.6515 2409.8 18.6515 Q2412.26 18.6515 2414.6 19.1724 Q2416.95 19.6642 2419.14 20.677 Z" fill="#000000" fill-rule="nonzero" fill-opacity="1" /><path clip-path="url(#clip480)" d="M2440.96 23.1654 Q2436.68 23.1654 2434.19 26.5218 Q2431.7 29.8494 2431.7 35.6653 Q2431.7 41.4813 2434.16 44.8377 Q2436.65 48.1653 2440.96 48.1653 Q2445.22 48.1653 2447.7 44.8088 Q2450.19 41.4523 2450.19 35.6653 Q2450.19 29.9072 2447.7 26.5508 Q2445.22 23.1654 2440.96 23.1654 M2440.96 18.6515 Q2447.91 18.6515 2451.87 23.1654 Q2455.83 27.6792 2455.83 35.6653 Q2455.83 43.6225 2451.87 48.1653 Q2447.91 52.6791 2440.96 52.6791 Q2433.99 52.6791 2430.02 48.1653 Q2426.09 43.6225 2426.09 35.6653 Q2426.09 27.6792 2430.02 23.1654 Q2433.99 18.6515 2440.96 18.6515 Z" fill="#000000" fill-rule="nonzero" fill-opacity="1" /><path clip-path="url(#clip480)" d="M2485.32 20.3876 L2485.32 25.4223 Q2483.06 24.2649 2480.63 23.6862 Q2478.2 23.1075 2475.6 23.1075 Q2471.63 23.1075 2469.64 24.3228 Q2467.67 25.5381 2467.67 27.9686 Q2467.67 29.8204 2469.09 30.891 Q2470.5 31.9327 2474.79 32.8876 L2476.61 33.2926 Q2482.28 34.5079 2484.65 36.7359 Q2487.06 38.935 2487.06 42.8991 Q2487.06 47.4129 2483.47 50.046 Q2479.91 52.6791 2473.66 52.6791 Q2471.05 52.6791 2468.22 52.1583 Q2465.41 51.6664 2462.29 50.6537 L2462.29 45.156 Q2465.24 46.6896 2468.1 47.4708 Q2470.97 48.2231 2473.77 48.2231 Q2477.54 48.2231 2479.56 46.95 Q2481.59 45.6479 2481.59 43.3042 Q2481.59 41.134 2480.11 39.9766 Q2478.66 38.8192 2473.72 37.7486 L2471.86 37.3146 Q2466.92 36.273 2464.72 34.1318 Q2462.52 31.9616 2462.52 28.2001 Q2462.52 23.6283 2465.76 21.1399 Q2469 18.6515 2474.96 18.6515 Q2477.91 18.6515 2480.52 19.0855 Q2483.12 19.5196 2485.32 20.3876 Z" fill="#000000" fill-rule="nonzero" fill-opacity="1" /><path clip-path="url(#clip480)" d="M2500.8 10.2314 L2500.8 19.4328 L2511.77 19.4328 L2511.77 23.5705 L2500.8 23.5705 L2500.8 41.163 Q2500.8 45.1271 2501.87 46.2555 Q2502.97 47.384 2506.3 47.384 L2511.77 47.384 L2511.77 51.84 L2506.3 51.84 Q2500.13 51.84 2497.79 49.5541 Q2495.45 47.2393 2495.45 41.163 L2495.45 23.5705 L2491.54 23.5705 L2491.54 19.4328 L2495.45 19.4328 L2495.45 10.2314 L2500.8 10.2314 Z" fill="#000000" fill-rule="nonzero" fill-opacity="1" /><path clip-path="url(#clip480)" d="M2533.5 35.5496 Q2527.04 35.5496 2524.56 37.0253 Q2522.07 38.501 2522.07 42.06 Q2522.07 44.8956 2523.92 46.5738 Q2525.8 48.2231 2529.01 48.2231 Q2533.44 48.2231 2536.1 45.0981 Q2538.79 41.9442 2538.79 36.7359 L2538.79 35.5496 L2533.5 35.5496 M2544.12 33.3505 L2544.12 51.84 L2538.79 51.84 L2538.79 46.921 Q2536.97 49.8724 2534.25 51.2902 Q2531.53 52.6791 2527.59 52.6791 Q2522.62 52.6791 2519.67 49.9014 Q2516.74 47.0947 2516.74 42.4072 Q2516.74 36.9385 2520.39 34.1607 Q2524.06 31.3829 2531.33 31.3829 L2538.79 31.3829 L2538.79 30.8621 Q2538.79 27.1874 2536.36 25.1908 Q2533.96 23.1654 2529.59 23.1654 Q2526.81 23.1654 2524.18 23.8309 Q2521.55 24.4964 2519.12 25.8274 L2519.12 20.9085 Q2522.04 19.78 2524.79 19.2302 Q2527.54 18.6515 2530.14 18.6515 Q2537.17 18.6515 2540.64 22.2973 Q2544.12 25.9431 2544.12 33.3505 Z" fill="#000000" fill-rule="nonzero" fill-opacity="1" /><path clip-path="url(#clip480)" d="M2560.35 10.2314 L2560.35 19.4328 L2571.31 19.4328 L2571.31 23.5705 L2560.35 23.5705 L2560.35 41.163 Q2560.35 45.1271 2561.42 46.2555 Q2562.52 47.384 2565.85 47.384 L2571.31 47.384 L2571.31 51.84 L2565.85 51.84 Q2559.68 51.84 2557.34 49.5541 Q2554.99 47.2393 2554.99 41.163 L2554.99 23.5705 L2551.09 23.5705 L2551.09 19.4328 L2554.99 19.4328 L2554.99 10.2314 L2560.35 10.2314 Z" fill="#000000" fill-rule="nonzero" fill-opacity="1" /><path clip-path="url(#clip480)" d="M2606.04 34.3054 L2606.04 36.9095 L2581.56 36.9095 Q2581.9 42.4072 2584.86 45.3007 Q2587.84 48.1653 2593.13 48.1653 Q2596.2 48.1653 2599.06 47.4129 Q2601.96 46.6606 2604.79 45.156 L2604.79 50.1907 Q2601.93 51.406 2598.92 52.0425 Q2595.91 52.6791 2592.81 52.6791 Q2585.06 52.6791 2580.52 48.1653 Q2576 43.6514 2576 35.9547 Q2576 27.9975 2580.28 23.339 Q2584.6 18.6515 2591.89 18.6515 Q2598.43 18.6515 2602.22 22.876 Q2606.04 27.0716 2606.04 34.3054 M2600.71 32.7429 Q2600.65 28.3737 2598.25 25.7695 Q2595.88 23.1654 2591.94 23.1654 Q2587.49 23.1654 2584.8 25.6827 Q2582.14 28.2001 2581.73 32.7718 L2600.71 32.7429 Z" fill="#000000" fill-rule="nonzero" fill-opacity="1" /><polyline clip-path="url(#clip481)" style="stroke:#000000; stroke-linecap:round; stroke-linejoin:round; stroke-width:4; stroke-opacity:1; fill:none" stroke-dasharray="16, 10" points="1883.75,2672.5 1883.75,-1193.16 "/>
<polyline clip-path="url(#clip481)" style="stroke:#000000; stroke-linecap:round; stroke-linejoin:round; stroke-width:4; stroke-opacity:1; fill:none" stroke-dasharray="16, 10" points="3115.79,2672.5 3115.79,-1193.16 "/>
<polyline clip-path="url(#clip481)" style="stroke:#000000; stroke-linecap:round; stroke-linejoin:round; stroke-width:4; stroke-opacity:1; fill:none" stroke-dasharray="16, 10" points="1883.75,2672.5 1883.75,-1193.16 "/>
<polyline clip-path="url(#clip481)" style="stroke:#000000; stroke-linecap:round; stroke-linejoin:round; stroke-width:4; stroke-opacity:1; fill:none" stroke-dasharray="16, 10" points="3115.79,2672.5 3115.79,-1193.16 "/>
<polyline clip-path="url(#clip481)" style="stroke:#009af9; stroke-linecap:round; stroke-linejoin:round; stroke-width:8; stroke-opacity:1; fill:none" points="1883.75,242.273 1945.35,603.533 2006.95,821.319 2068.56,616.9 2130.16,296.78 2191.76,329.318 2253.36,697.675 2314.97,923.312 2376.57,727.543 2438.17,416.923 2499.77,459.862 2561.37,839.58 2622.98,1077.6 2684.58,895.29 2746.18,599.288 2807.78,658.07 2869.39,1054.94 2930.99,1311.5 2992.59,1149.21 3054.19,874.806 "/>
<polyline clip-path="url(#clip481)" style="stroke:#e26f46; stroke-linecap:round; stroke-linejoin:round; stroke-width:8; stroke-opacity:1; fill:none" stroke-dasharray="32, 20" points="1883.75,131.861 1889.94,137.934 1896.13,149.584 1902.32,166.649 1908.51,188.882 1914.71,215.952 1920.9,247.454 1927.09,282.908 1933.28,321.776 1939.47,363.463 1945.66,407.33 1951.85,452.702 1958.04,498.884 1964.24,545.163 1970.43,590.829 1976.62,635.179 1982.81,677.533 1989,717.243 1995.19,753.701 2001.38,786.353 2007.57,814.706 2013.76,838.335 2019.96,856.889 2026.15,870.1 2032.34,877.785 2038.53,879.848 2044.72,876.285 2050.91,867.179 2057.1,852.703 2063.29,833.115 2069.49,808.757 2075.68,780.043 2081.87,747.461 2088.06,711.557 2094.25,672.932 2100.44,632.231 2106.63,590.132 2112.82,547.333 2119.01,504.547 2125.21,462.486 2131.4,421.848 2137.59,383.312 2143.78,347.521 2149.97,315.077 2156.16,286.528 2162.35,262.358 2168.54,242.985 2174.74,228.748 2180.93,219.906 2187.12,216.632 2193.31,219.009 2199.5,227.034 2205.69,240.609 2211.88,259.552 2218.07,283.595 2224.26,312.387 2230.46,345.503 2236.65,382.45 2242.84,422.673 2249.03,465.566 2255.22,510.48 2261.41,556.734 2267.6,603.627 2273.79,650.446 2279.99,696.482 2286.18,741.037 2292.37,783.438 2298.56,823.045 2304.75,859.264 2310.94,891.554 2317.13,919.44 2323.32,942.513 2329.51,960.444 2335.71,972.986 2341.9,979.977 2348.09,981.344 2354.28,977.104 2360.47,967.364 2366.66,952.318 2372.85,932.246 2379.04,907.507 2385.24,878.537 2391.43,845.837 2397.62,809.968 2403.81,771.545 2410,731.219 2416.19,689.676 2422.38,647.619 2428.57,605.761 2434.76,564.812 2440.96,525.466 2447.15,488.395 2453.34,454.233 2459.53,423.567 2465.72,396.932 2471.91,374.796 2478.1,357.556 2484.29,345.535 2490.49,338.968 2496.68,338.006 2502.87,342.712 2509.06,353.058 2515.25,368.926 2521.44,390.111 2527.63,416.325 2533.82,447.197 2540.01,482.285 2546.21,521.079 2552.4,563.011 2558.59,607.464 2564.78,653.779 2570.97,701.269 2577.16,749.23 2583.35,796.948 2589.54,843.717 2595.74,888.843 2601.93,931.66 2608.12,971.54 2614.31,1007.9 2620.5,1040.22 2626.69,1068.03 2632.88,1090.95 2639.07,1108.67 2645.26,1120.96 2651.46,1127.68 2657.65,1128.79 2663.84,1124.31 2670.03,1114.39 2676.22,1099.23 2682.41,1079.14 2688.6,1054.49 2694.79,1025.75 2700.99,993.414 2707.18,958.073 2713.37,920.347 2719.56,880.899 2725.75,840.418 2731.94,799.613 2738.13,759.194 2744.32,719.871 2750.51,682.333 2756.71,647.243 2762.9,615.224 2769.09,586.852 2775.28,562.645 2781.47,543.055 2787.66,528.46 2793.85,519.162 2800.04,515.375 2806.24,517.23 2812.43,524.765 2818.62,537.931 2824.81,556.587 2831,580.508 2837.19,609.383 2843.38,642.826 2849.57,680.374 2855.77,721.505 2861.96,765.635 2868.15,812.136 2874.34,860.343 2880.53,909.563 2886.72,959.087 2892.91,1008.2 2899.1,1056.21 2905.29,1102.41 2911.49,1146.16 2917.68,1186.84 2923.87,1223.87 2930.06,1256.74 2936.25,1285.03 2942.44,1308.35 2948.63,1326.41 2954.82,1339.02 2961.02,1346.05 2967.21,1347.48 2973.4,1343.37 2979.59,1333.86 2985.78,1319.21 2991.97,1299.72 2998.16,1275.8 3004.35,1247.92 3010.54,1216.6 3016.74,1182.44 3022.93,1146.07 3029.12,1108.17 3035.31,1069.42 3041.5,1030.54 3047.69,992.238 3053.88,955.221 3060.07,920.174 3066.27,887.749 3072.46,858.559 3078.65,833.166 3084.84,812.072 3091.03,795.713 3097.22,784.448 3103.41,778.556 3109.6,778.232 3115.79,783.583 "/>
<path clip-path="url(#clip480)" d="M2804.85 293.864 L3109.22 293.864 L3109.22 138.344 L2804.85 138.344  Z" fill="#ffffff" fill-rule="evenodd" fill-opacity="1"/>
<polyline clip-path="url(#clip480)" style="stroke:#000000; stroke-linecap:round; stroke-linejoin:round; stroke-width:4; stroke-opacity:1; fill:none" points="2804.85,293.864 3109.22,293.864 3109.22,138.344 2804.85,138.344 2804.85,293.864 "/>
<polyline clip-path="url(#clip480)" style="stroke:#009af9; stroke-linecap:round; stroke-linejoin:round; stroke-width:8; stroke-opacity:1; fill:none" points="2819.37,190.184 2906.43,190.184 "/>
<path clip-path="url(#clip480)" d="M2925.62 176.747 L2925.62 203.621 L2931.26 203.621 Q2938.42 203.621 2941.73 200.381 Q2945.06 197.14 2945.06 190.149 Q2945.06 183.205 2941.73 179.987 Q2938.42 176.747 2931.26 176.747 L2925.62 176.747 M2920.94 172.904 L2930.55 172.904 Q2940.59 172.904 2945.29 177.094 Q2949.99 181.26 2949.99 190.149 Q2949.99 199.084 2945.27 203.274 Q2940.55 207.464 2930.55 207.464 L2920.94 207.464 L2920.94 172.904 Z" fill="#000000" fill-rule="nonzero" fill-opacity="1" /><path clip-path="url(#clip480)" d="M2957.26 181.538 L2961.52 181.538 L2961.52 207.464 L2957.26 207.464 L2957.26 181.538 M2957.26 171.446 L2961.52 171.446 L2961.52 176.839 L2957.26 176.839 L2957.26 171.446 Z" fill="#000000" fill-rule="nonzero" fill-opacity="1" /><path clip-path="url(#clip480)" d="M2985.45 185.52 Q2984.74 185.103 2983.88 184.918 Q2983.05 184.709 2982.03 184.709 Q2978.42 184.709 2976.47 187.071 Q2974.55 189.409 2974.55 193.807 L2974.55 207.464 L2970.27 207.464 L2970.27 181.538 L2974.55 181.538 L2974.55 185.566 Q2975.89 183.205 2978.05 182.071 Q2980.2 180.913 2983.28 180.913 Q2983.72 180.913 2984.25 180.983 Q2984.78 181.029 2985.43 181.145 L2985.45 185.52 Z" fill="#000000" fill-rule="nonzero" fill-opacity="1" /><path clip-path="url(#clip480)" d="M3011.06 193.436 L3011.06 195.52 L2991.47 195.52 Q2991.75 199.918 2994.11 202.233 Q2996.5 204.524 3000.73 204.524 Q3003.19 204.524 3005.48 203.922 Q3007.79 203.32 3010.06 202.117 L3010.06 206.145 Q3007.77 207.117 3005.36 207.626 Q3002.95 208.135 3000.48 208.135 Q2994.27 208.135 2990.64 204.524 Q2987.03 200.913 2987.03 194.756 Q2987.03 188.39 2990.45 184.663 Q2993.9 180.913 2999.74 180.913 Q3004.97 180.913 3008 184.293 Q3011.06 187.649 3011.06 193.436 M3006.8 192.186 Q3006.75 188.691 3004.83 186.608 Q3002.93 184.524 2999.78 184.524 Q2996.22 184.524 2994.07 186.538 Q2991.94 188.552 2991.61 192.209 L3006.8 192.186 Z" fill="#000000" fill-rule="nonzero" fill-opacity="1" /><path clip-path="url(#clip480)" d="M3036.7 182.534 L3036.7 186.515 Q3034.9 185.52 3033.07 185.034 Q3031.26 184.524 3029.41 184.524 Q3025.27 184.524 3022.98 187.163 Q3020.69 189.779 3020.69 194.524 Q3020.69 199.27 3022.98 201.908 Q3025.27 204.524 3029.41 204.524 Q3031.26 204.524 3033.07 204.038 Q3034.9 203.529 3036.7 202.533 L3036.7 206.469 Q3034.92 207.302 3033 207.719 Q3031.1 208.135 3028.95 208.135 Q3023.09 208.135 3019.64 204.455 Q3016.19 200.774 3016.19 194.524 Q3016.19 188.182 3019.67 184.547 Q3023.16 180.913 3029.23 180.913 Q3031.19 180.913 3033.07 181.33 Q3034.94 181.723 3036.7 182.534 Z" fill="#000000" fill-rule="nonzero" fill-opacity="1" /><path clip-path="url(#clip480)" d="M3048.32 174.177 L3048.32 181.538 L3057.1 181.538 L3057.1 184.848 L3048.32 184.848 L3048.32 198.922 Q3048.32 202.094 3049.18 202.996 Q3050.06 203.899 3052.72 203.899 L3057.1 203.899 L3057.1 207.464 L3052.72 207.464 Q3047.79 207.464 3045.92 205.635 Q3044.04 203.783 3044.04 198.922 L3044.04 184.848 L3040.92 184.848 L3040.92 181.538 L3044.04 181.538 L3044.04 174.177 L3048.32 174.177 Z" fill="#000000" fill-rule="nonzero" fill-opacity="1" /><polyline clip-path="url(#clip480)" style="stroke:#e26f46; stroke-linecap:round; stroke-linejoin:round; stroke-width:8; stroke-opacity:1; fill:none" stroke-dasharray="32, 20" points="2819.37,242.024 2906.43,242.024 "/>
<path clip-path="url(#clip480)" d="M2920.94 224.744 L2925.62 224.744 L2925.62 259.304 L2920.94 259.304 L2920.94 224.744 Z" fill="#000000" fill-rule="nonzero" fill-opacity="1" /><path clip-path="url(#clip480)" d="M2956.29 243.656 L2956.29 259.304 L2952.03 259.304 L2952.03 243.795 Q2952.03 240.114 2950.59 238.286 Q2949.16 236.457 2946.29 236.457 Q2942.84 236.457 2940.85 238.656 Q2938.86 240.855 2938.86 244.651 L2938.86 259.304 L2934.57 259.304 L2934.57 233.378 L2938.86 233.378 L2938.86 237.406 Q2940.39 235.068 2942.45 233.911 Q2944.53 232.753 2947.24 232.753 Q2951.7 232.753 2954 235.531 Q2956.29 238.286 2956.29 243.656 Z" fill="#000000" fill-rule="nonzero" fill-opacity="1" /><path clip-path="url(#clip480)" d="M2981.84 237.313 L2981.84 223.286 L2986.1 223.286 L2986.1 259.304 L2981.84 259.304 L2981.84 255.415 Q2980.5 257.73 2978.44 258.864 Q2976.4 259.975 2973.53 259.975 Q2968.83 259.975 2965.87 256.225 Q2962.93 252.475 2962.93 246.364 Q2962.93 240.253 2965.87 236.503 Q2968.83 232.753 2973.53 232.753 Q2976.4 232.753 2978.44 233.887 Q2980.5 234.999 2981.84 237.313 M2967.33 246.364 Q2967.33 251.063 2969.25 253.748 Q2971.2 256.41 2974.57 256.41 Q2977.95 256.41 2979.9 253.748 Q2981.84 251.063 2981.84 246.364 Q2981.84 241.665 2979.9 239.003 Q2977.95 236.318 2974.57 236.318 Q2971.2 236.318 2969.25 239.003 Q2967.33 241.665 2967.33 246.364 Z" fill="#000000" fill-rule="nonzero" fill-opacity="1" /><path clip-path="url(#clip480)" d="M2994.88 233.378 L2999.13 233.378 L2999.13 259.304 L2994.88 259.304 L2994.88 233.378 M2994.88 223.286 L2999.13 223.286 L2999.13 228.679 L2994.88 228.679 L2994.88 223.286 Z" fill="#000000" fill-rule="nonzero" fill-opacity="1" /><path clip-path="url(#clip480)" d="M3023.07 237.36 Q3022.35 236.943 3021.5 236.758 Q3020.66 236.549 3019.64 236.549 Q3016.03 236.549 3014.09 238.911 Q3012.17 241.249 3012.17 245.647 L3012.17 259.304 L3007.88 259.304 L3007.88 233.378 L3012.17 233.378 L3012.17 237.406 Q3013.51 235.045 3015.66 233.911 Q3017.82 232.753 3020.89 232.753 Q3021.33 232.753 3021.87 232.823 Q3022.4 232.869 3023.05 232.985 L3023.07 237.36 Z" fill="#000000" fill-rule="nonzero" fill-opacity="1" /><path clip-path="url(#clip480)" d="M3048.67 245.276 L3048.67 247.36 L3029.09 247.36 Q3029.37 251.758 3031.73 254.073 Q3034.11 256.364 3038.35 256.364 Q3040.8 256.364 3043.09 255.762 Q3045.41 255.16 3047.68 253.957 L3047.68 257.985 Q3045.38 258.957 3042.98 259.466 Q3040.57 259.975 3038.09 259.975 Q3031.89 259.975 3028.25 256.364 Q3024.64 252.753 3024.64 246.596 Q3024.64 240.23 3028.07 236.503 Q3031.52 232.753 3037.35 232.753 Q3042.58 232.753 3045.62 236.133 Q3048.67 239.489 3048.67 245.276 M3044.41 244.026 Q3044.37 240.531 3042.44 238.448 Q3040.55 236.364 3037.4 236.364 Q3033.83 236.364 3031.68 238.378 Q3029.55 240.392 3029.23 244.049 L3044.41 244.026 Z" fill="#000000" fill-rule="nonzero" fill-opacity="1" /><path clip-path="url(#clip480)" d="M3074.32 234.374 L3074.32 238.355 Q3072.51 237.36 3070.69 236.874 Q3068.88 236.364 3067.03 236.364 Q3062.88 236.364 3060.59 239.003 Q3058.3 241.619 3058.3 246.364 Q3058.3 251.11 3060.59 253.748 Q3062.88 256.364 3067.03 256.364 Q3068.88 256.364 3070.69 255.878 Q3072.51 255.369 3074.32 254.373 L3074.32 258.309 Q3072.54 259.142 3070.62 259.559 Q3068.72 259.975 3066.56 259.975 Q3060.71 259.975 3057.26 256.295 Q3053.81 252.614 3053.81 246.364 Q3053.81 240.022 3057.28 236.387 Q3060.78 232.753 3066.84 232.753 Q3068.81 232.753 3070.69 233.17 Q3072.56 233.563 3074.32 234.374 Z" fill="#000000" fill-rule="nonzero" fill-opacity="1" /><path clip-path="url(#clip480)" d="M3085.94 226.017 L3085.94 233.378 L3094.71 233.378 L3094.71 236.688 L3085.94 236.688 L3085.94 250.762 Q3085.94 253.934 3086.8 254.836 Q3087.68 255.739 3090.34 255.739 L3094.71 255.739 L3094.71 259.304 L3090.34 259.304 Q3085.41 259.304 3083.53 257.475 Q3081.66 255.623 3081.66 250.762 L3081.66 236.688 L3078.53 236.688 L3078.53 233.378 L3081.66 233.378 L3081.66 226.017 L3085.94 226.017 Z" fill="#000000" fill-rule="nonzero" fill-opacity="1" /></svg>
