<?xml version="1.0" encoding="utf-8"?>
<svg xmlns="http://www.w3.org/2000/svg" xmlns:xlink="http://www.w3.org/1999/xlink" width="800" height="400" viewBox="0 0 3200 1600">
<defs>
  <clipPath id="clip870">
    <rect x="0" y="0" width="3200" height="1600"/>
  </clipPath>
</defs>
<path clip-path="url(#clip870)" d="M0 1600 L3200 1600 L3200 0 L0 0  Z" fill="#ffffff" fill-rule="evenodd" fill-opacity="1"/>
<defs>
  <clipPath id="clip871">
    <rect x="1831" y="95" width="1322" height="1290"/>
  </clipPath>
</defs>
<path clip-path="url(#clip870)" d="M199.821 1383.95 L1520.63 1383.95 L1520.63 95.3921 L199.821 95.3921  Z" fill="#ffffff" fill-rule="evenodd" fill-opacity="1"/>
<defs>
  <clipPath id="clip872">
    <rect x="199" y="95" width="1322" height="1290"/>
  </clipPath>
</defs>
<polyline clip-path="url(#clip872)" style="stroke:#000000; stroke-linecap:round; stroke-linejoin:round; stroke-width:2; stroke-opacity:0.1; fill:none" points="237.203,1383.95 237.203,95.3921 "/>
<polyline clip-path="url(#clip872)" style="stroke:#000000; stroke-linecap:round; stroke-linejoin:round; stroke-width:2; stroke-opacity:0.1; fill:none" points="548.713,1383.95 548.713,95.3921 "/>
<polyline clip-path="url(#clip872)" style="stroke:#000000; stroke-linecap:round; stroke-linejoin:round; stroke-width:2; stroke-opacity:0.1; fill:none" points="860.224,1383.95 860.224,95.3921 "/>
<polyline clip-path="url(#clip872)" style="stroke:#000000; stroke-linecap:round; stroke-linejoin:round; stroke-width:2; stroke-opacity:0.1; fill:none" points="1171.73,1383.95 1171.73,95.3921 "/>
<polyline clip-path="url(#clip872)" style="stroke:#000000; stroke-linecap:round; stroke-linejoin:round; stroke-width:2; stroke-opacity:0.1; fill:none" points="1483.25,1383.95 1483.25,95.3921 "/>
<polyline clip-path="url(#clip872)" style="stroke:#000000; stroke-linecap:round; stroke-linejoin:round; stroke-width:2; stroke-opacity:0.1; fill:none" points="199.821,1347.48 1520.63,1347.48 "/>
<polyline clip-path="url(#clip872)" style="stroke:#000000; stroke-linecap:round; stroke-linejoin:round; stroke-width:2; stroke-opacity:0.1; fill:none" points="199.821,993.748 1520.63,993.748 "/>
<polyline clip-path="url(#clip872)" style="stroke:#000000; stroke-linecap:round; stroke-linejoin:round; stroke-width:2; stroke-opacity:0.1; fill:none" points="199.821,640.018 1520.63,640.018 "/>
<polyline clip-path="url(#clip872)" style="stroke:#000000; stroke-linecap:round; stroke-linejoin:round; stroke-width:2; stroke-opacity:0.1; fill:none" points="199.821,286.287 1520.63,286.287 "/>
<polyline clip-path="url(#clip870)" style="stroke:#000000; stroke-linecap:round; stroke-linejoin:round; stroke-width:4; stroke-opacity:1; fill:none" points="199.821,1383.95 1520.63,1383.95 "/>
<polyline clip-path="url(#clip870)" style="stroke:#000000; stroke-linecap:round; stroke-linejoin:round; stroke-width:4; stroke-opacity:1; fill:none" points="237.203,1383.95 237.203,1365.05 "/>
<polyline clip-path="url(#clip870)" style="stroke:#000000; stroke-linecap:round; stroke-linejoin:round; stroke-width:4; stroke-opacity:1; fill:none" points="548.713,1383.95 548.713,1365.05 "/>
<polyline clip-path="url(#clip870)" style="stroke:#000000; stroke-linecap:round; stroke-linejoin:round; stroke-width:4; stroke-opacity:1; fill:none" points="860.224,1383.95 860.224,1365.05 "/>
<polyline clip-path="url(#clip870)" style="stroke:#000000; stroke-linecap:round; stroke-linejoin:round; stroke-width:4; stroke-opacity:1; fill:none" points="1171.73,1383.95 1171.73,1365.05 "/>
<polyline clip-path="url(#clip870)" style="stroke:#000000; stroke-linecap:round; stroke-linejoin:round; stroke-width:4; stroke-opacity:1; fill:none" points="1483.25,1383.95 1483.25,1365.05 "/>
<path clip-path="url(#clip870)" d="M214.587 1421.27 Q210.976 1421.27 209.147 1424.83 Q207.342 1428.37 207.342 1435.5 Q207.342 1442.61 209.147 1446.17 Q210.976 1449.72 214.587 1449.72 Q218.221 1449.72 220.027 1446.17 Q221.855 1442.61 221.855 1435.5 Q221.855 1428.37 220.027 1424.83 Q218.221 1421.27 214.587 1421.27 M214.587 1417.56 Q220.397 1417.56 223.453 1422.17 Q226.531 1426.75 226.531 1435.5 Q226.531 1444.23 223.453 1448.84 Q220.397 1453.42 214.587 1453.42 Q208.777 1453.42 205.698 1448.84 Q202.643 1444.23 202.643 1435.5 Q202.643 1426.75 205.698 1422.17 Q208.777 1417.56 214.587 1417.56 Z" fill="#000000" fill-rule="nonzero" fill-opacity="1" /><path clip-path="url(#clip870)" d="M234.749 1446.87 L239.633 1446.87 L239.633 1452.75 L234.749 1452.75 L234.749 1446.87 Z" fill="#000000" fill-rule="nonzero" fill-opacity="1" /><path clip-path="url(#clip870)" d="M259.818 1421.27 Q256.207 1421.27 254.378 1424.83 Q252.573 1428.37 252.573 1435.5 Q252.573 1442.61 254.378 1446.17 Q256.207 1449.72 259.818 1449.72 Q263.452 1449.72 265.258 1446.17 Q267.087 1442.61 267.087 1435.5 Q267.087 1428.37 265.258 1424.83 Q263.452 1421.27 259.818 1421.27 M259.818 1417.56 Q265.628 1417.56 268.684 1422.17 Q271.763 1426.75 271.763 1435.5 Q271.763 1444.23 268.684 1448.84 Q265.628 1453.42 259.818 1453.42 Q254.008 1453.42 250.929 1448.84 Q247.874 1444.23 247.874 1435.5 Q247.874 1426.75 250.929 1422.17 Q254.008 1417.56 259.818 1417.56 Z" fill="#000000" fill-rule="nonzero" fill-opacity="1" /><path clip-path="url(#clip870)" d="M526.595 1421.27 Q522.984 1421.27 521.156 1424.83 Q519.35 1428.37 519.35 1435.5 Q519.35 1442.61 521.156 1446.17 Q522.984 1449.72 526.595 1449.72 Q530.23 1449.72 532.035 1446.17 Q533.864 1442.61 533.864 1435.5 Q533.864 1428.37 532.035 1424.83 Q530.23 1421.27 526.595 1421.27 M526.595 1417.56 Q532.405 1417.56 535.461 1422.17 Q538.54 1426.75 538.54 1435.5 Q538.54 1444.23 535.461 1448.84 Q532.405 1453.42 526.595 1453.42 Q520.785 1453.42 517.706 1448.84 Q514.651 1444.23 514.651 1435.5 Q514.651 1426.75 517.706 1422.17 Q520.785 1417.56 526.595 1417.56 Z" fill="#000000" fill-rule="nonzero" fill-opacity="1" /><path clip-path="url(#clip870)" d="M546.757 1446.87 L551.641 1446.87 L551.641 1452.75 L546.757 1452.75 L546.757 1446.87 Z" fill="#000000" fill-rule="nonzero" fill-opacity="1" /><path clip-path="url(#clip870)" d="M561.873 1418.19 L580.229 1418.19 L580.229 1422.12 L566.155 1422.12 L566.155 1430.6 Q567.174 1430.25 568.192 1430.09 Q569.211 1429.9 570.229 1429.9 Q576.016 1429.9 579.396 1433.07 Q582.776 1436.24 582.776 1441.66 Q582.776 1447.24 579.303 1450.34 Q575.831 1453.42 569.512 1453.42 Q567.336 1453.42 565.067 1453.05 Q562.822 1452.68 560.415 1451.94 L560.415 1447.24 Q562.498 1448.37 564.72 1448.93 Q566.942 1449.48 569.419 1449.48 Q573.424 1449.48 575.762 1447.38 Q578.1 1445.27 578.1 1441.66 Q578.1 1438.05 575.762 1435.94 Q573.424 1433.84 569.419 1433.84 Q567.544 1433.84 565.669 1434.25 Q563.817 1434.67 561.873 1435.55 L561.873 1418.19 Z" fill="#000000" fill-rule="nonzero" fill-opacity="1" /><path clip-path="url(#clip870)" d="M827.377 1448.81 L835.016 1448.81 L835.016 1422.45 L826.706 1424.11 L826.706 1419.85 L834.969 1418.19 L839.645 1418.19 L839.645 1448.81 L847.284 1448.81 L847.284 1452.75 L827.377 1452.75 L827.377 1448.81 Z" fill="#000000" fill-rule="nonzero" fill-opacity="1" /><path clip-path="url(#clip870)" d="M856.729 1446.87 L861.613 1446.87 L861.613 1452.75 L856.729 1452.75 L856.729 1446.87 Z" fill="#000000" fill-rule="nonzero" fill-opacity="1" /><path clip-path="url(#clip870)" d="M881.798 1421.27 Q878.187 1421.27 876.358 1424.83 Q874.553 1428.37 874.553 1435.5 Q874.553 1442.61 876.358 1446.17 Q878.187 1449.72 881.798 1449.72 Q885.432 1449.72 887.238 1446.17 Q889.066 1442.61 889.066 1435.5 Q889.066 1428.37 887.238 1424.83 Q885.432 1421.27 881.798 1421.27 M881.798 1417.56 Q887.608 1417.56 890.664 1422.17 Q893.742 1426.75 893.742 1435.5 Q893.742 1444.23 890.664 1448.84 Q887.608 1453.42 881.798 1453.42 Q875.988 1453.42 872.909 1448.84 Q869.853 1444.23 869.853 1435.5 Q869.853 1426.75 872.909 1422.17 Q875.988 1417.56 881.798 1417.56 Z" fill="#000000" fill-rule="nonzero" fill-opacity="1" /><path clip-path="url(#clip870)" d="M1139.39 1448.81 L1147.02 1448.81 L1147.02 1422.45 L1138.71 1424.11 L1138.71 1419.85 L1146.98 1418.19 L1151.65 1418.19 L1151.65 1448.81 L1159.29 1448.81 L1159.29 1452.75 L1139.39 1452.75 L1139.39 1448.81 Z" fill="#000000" fill-rule="nonzero" fill-opacity="1" /><path clip-path="url(#clip870)" d="M1168.74 1446.87 L1173.62 1446.87 L1173.62 1452.75 L1168.74 1452.75 L1168.74 1446.87 Z" fill="#000000" fill-rule="nonzero" fill-opacity="1" /><path clip-path="url(#clip870)" d="M1183.85 1418.19 L1202.21 1418.19 L1202.21 1422.12 L1188.13 1422.12 L1188.13 1430.6 Q1189.15 1430.25 1190.17 1430.09 Q1191.19 1429.9 1192.21 1429.9 Q1198 1429.9 1201.38 1433.07 Q1204.76 1436.24 1204.76 1441.66 Q1204.76 1447.24 1201.28 1450.34 Q1197.81 1453.42 1191.49 1453.42 Q1189.32 1453.42 1187.05 1453.05 Q1184.8 1452.68 1182.39 1451.94 L1182.39 1447.24 Q1184.48 1448.37 1186.7 1448.93 Q1188.92 1449.48 1191.4 1449.48 Q1195.4 1449.48 1197.74 1447.38 Q1200.08 1445.27 1200.08 1441.66 Q1200.08 1438.05 1197.74 1435.94 Q1195.4 1433.84 1191.4 1433.84 Q1189.52 1433.84 1187.65 1434.25 Q1185.8 1434.67 1183.85 1435.55 L1183.85 1418.19 Z" fill="#000000" fill-rule="nonzero" fill-opacity="1" /><path clip-path="url(#clip870)" d="M1454.48 1448.81 L1470.8 1448.81 L1470.8 1452.75 L1448.86 1452.75 L1448.86 1448.81 Q1451.52 1446.06 1456.1 1441.43 Q1460.71 1436.78 1461.89 1435.43 Q1464.14 1432.91 1465.02 1431.17 Q1465.92 1429.41 1465.92 1427.72 Q1465.92 1424.97 1463.97 1423.23 Q1462.05 1421.5 1458.95 1421.5 Q1456.75 1421.5 1454.3 1422.26 Q1451.87 1423.03 1449.09 1424.58 L1449.09 1419.85 Q1451.91 1418.72 1454.37 1418.14 Q1456.82 1417.56 1458.86 1417.56 Q1464.23 1417.56 1467.42 1420.25 Q1470.62 1422.93 1470.62 1427.42 Q1470.62 1429.55 1469.81 1431.47 Q1469.02 1433.37 1466.91 1435.97 Q1466.34 1436.64 1463.23 1439.85 Q1460.13 1443.05 1454.48 1448.81 Z" fill="#000000" fill-rule="nonzero" fill-opacity="1" /><path clip-path="url(#clip870)" d="M1480.62 1446.87 L1485.5 1446.87 L1485.5 1452.75 L1480.62 1452.75 L1480.62 1446.87 Z" fill="#000000" fill-rule="nonzero" fill-opacity="1" /><path clip-path="url(#clip870)" d="M1505.69 1421.27 Q1502.08 1421.27 1500.25 1424.83 Q1498.44 1428.37 1498.44 1435.5 Q1498.44 1442.61 1500.25 1446.17 Q1502.08 1449.72 1505.69 1449.72 Q1509.32 1449.72 1511.13 1446.17 Q1512.96 1442.61 1512.96 1435.5 Q1512.96 1428.37 1511.13 1424.83 Q1509.32 1421.27 1505.69 1421.27 M1505.69 1417.56 Q1511.5 1417.56 1514.55 1422.17 Q1517.63 1426.75 1517.63 1435.5 Q1517.63 1444.23 1514.55 1448.84 Q1511.5 1453.42 1505.69 1453.42 Q1499.88 1453.42 1496.8 1448.84 Q1493.74 1444.23 1493.74 1435.5 Q1493.74 1426.75 1496.8 1422.17 Q1499.88 1417.56 1505.69 1417.56 Z" fill="#000000" fill-rule="nonzero" fill-opacity="1" /><path clip-path="url(#clip870)" d="M859.37 1494.02 L859.37 1503.22 L870.337 1503.22 L870.337 1507.36 L859.37 1507.36 L859.37 1524.95 Q859.37 1528.91 860.441 1530.04 Q861.54 1531.17 864.868 1531.17 L870.337 1531.17 L870.337 1535.63 L864.868 1535.63 Q858.705 1535.63 856.361 1533.34 Q854.017 1531.03 854.017 1524.95 L854.017 1507.36 L850.111 1507.36 L850.111 1503.22 L854.017 1503.22 L854.017 1494.02 L859.37 1494.02 Z" fill="#000000" fill-rule="nonzero" fill-opacity="1" /><polyline clip-path="url(#clip870)" style="stroke:#000000; stroke-linecap:round; stroke-linejoin:round; stroke-width:4; stroke-opacity:1; fill:none" points="199.821,1383.95 199.821,95.3921 "/>
<polyline clip-path="url(#clip870)" style="stroke:#000000; stroke-linecap:round; stroke-linejoin:round; stroke-width:4; stroke-opacity:1; fill:none" points="199.821,1347.48 218.719,1347.48 "/>
<polyline clip-path="url(#clip870)" style="stroke:#000000; stroke-linecap:round; stroke-linejoin:round; stroke-width:4; stroke-opacity:1; fill:none" points="199.821,993.748 218.719,993.748 "/>
<polyline clip-path="url(#clip870)" style="stroke:#000000; stroke-linecap:round; stroke-linejoin:round; stroke-width:4; stroke-opacity:1; fill:none" points="199.821,640.018 218.719,640.018 "/>
<polyline clip-path="url(#clip870)" style="stroke:#000000; stroke-linecap:round; stroke-linejoin:round; stroke-width:4; stroke-opacity:1; fill:none" points="199.821,286.287 218.719,286.287 "/>
<path clip-path="url(#clip870)" d="M135.502 1360.82 L151.821 1360.82 L151.821 1364.76 L129.877 1364.76 L129.877 1360.82 Q132.539 1358.07 137.122 1353.44 Q141.729 1348.79 142.909 1347.44 Q145.155 1344.92 146.034 1343.19 Q146.937 1341.43 146.937 1339.74 Q146.937 1336.98 144.993 1335.25 Q143.071 1333.51 139.969 1333.51 Q137.77 1333.51 135.317 1334.27 Q132.886 1335.04 130.108 1336.59 L130.108 1331.87 Q132.932 1330.73 135.386 1330.15 Q137.84 1329.57 139.877 1329.57 Q145.247 1329.57 148.442 1332.26 Q151.636 1334.94 151.636 1339.44 Q151.636 1341.56 150.826 1343.49 Q150.039 1345.38 147.932 1347.98 Q147.354 1348.65 144.252 1351.87 Q141.15 1355.06 135.502 1360.82 Z" fill="#000000" fill-rule="nonzero" fill-opacity="1" /><path clip-path="url(#clip870)" d="M144.692 992.394 Q148.048 993.112 149.923 995.38 Q151.821 997.649 151.821 1000.98 Q151.821 1006.1 148.303 1008.9 Q144.784 1011.7 138.303 1011.7 Q136.127 1011.7 133.812 1011.26 Q131.52 1010.84 129.067 1009.99 L129.067 1005.47 Q131.011 1006.61 133.326 1007.19 Q135.641 1007.76 138.164 1007.76 Q142.562 1007.76 144.854 1006.03 Q147.169 1004.29 147.169 1000.98 Q147.169 997.927 145.016 996.214 Q142.886 994.478 139.067 994.478 L135.039 994.478 L135.039 990.635 L139.252 990.635 Q142.701 990.635 144.53 989.269 Q146.358 987.88 146.358 985.288 Q146.358 982.626 144.46 981.214 Q142.585 979.779 139.067 979.779 Q137.145 979.779 134.946 980.195 Q132.747 980.612 130.108 981.491 L130.108 977.325 Q132.77 976.584 135.085 976.214 Q137.423 975.843 139.483 975.843 Q144.807 975.843 147.909 978.274 Q151.011 980.681 151.011 984.802 Q151.011 987.672 149.368 989.663 Q147.724 991.63 144.692 992.394 Z" fill="#000000" fill-rule="nonzero" fill-opacity="1" /><path clip-path="url(#clip870)" d="M142.238 626.812 L130.432 645.261 L142.238 645.261 L142.238 626.812 M141.011 622.738 L146.891 622.738 L146.891 645.261 L151.821 645.261 L151.821 649.149 L146.891 649.149 L146.891 657.298 L142.238 657.298 L142.238 649.149 L126.636 649.149 L126.636 644.636 L141.011 622.738 Z" fill="#000000" fill-rule="nonzero" fill-opacity="1" /><path clip-path="url(#clip870)" d="M130.919 269.007 L149.275 269.007 L149.275 272.942 L135.201 272.942 L135.201 281.414 Q136.22 281.067 137.238 280.905 Q138.257 280.72 139.275 280.72 Q145.062 280.72 148.442 283.891 Q151.821 287.062 151.821 292.479 Q151.821 298.057 148.349 301.159 Q144.877 304.238 138.557 304.238 Q136.382 304.238 134.113 303.868 Q131.868 303.497 129.46 302.757 L129.46 298.057 Q131.544 299.192 133.766 299.747 Q135.988 300.303 138.465 300.303 Q142.469 300.303 144.807 298.196 Q147.145 296.09 147.145 292.479 Q147.145 288.868 144.807 286.761 Q142.469 284.655 138.465 284.655 Q136.59 284.655 134.715 285.071 Q132.863 285.488 130.919 286.368 L130.919 269.007 Z" fill="#000000" fill-rule="nonzero" fill-opacity="1" /><path clip-path="url(#clip870)" d="M33.269 724.566 L49.0386 736.285 L65.6762 723.958 L65.6762 730.237 L52.9448 739.67 L65.6762 749.103 L65.6762 755.382 L48.7203 742.795 L33.269 754.311 L33.269 748.032 L44.8141 739.438 L33.269 730.845 L33.269 724.566 Z" fill="#000000" fill-rule="nonzero" fill-opacity="1" /><path clip-path="url(#clip870)" d="M811.382 20.3876 L811.382 25.4223 Q809.125 24.2649 806.694 23.6862 Q804.264 23.1075 801.659 23.1075 Q797.695 23.1075 795.699 24.3228 Q793.731 25.5381 793.731 27.9686 Q793.731 29.8204 795.149 30.891 Q796.567 31.9327 800.849 32.8876 L802.672 33.2926 Q808.343 34.5079 810.716 36.7359 Q813.118 38.935 813.118 42.8991 Q813.118 47.4129 809.53 50.046 Q805.971 52.6791 799.721 52.6791 Q797.117 52.6791 794.281 52.1583 Q791.474 51.6664 788.349 50.6537 L788.349 45.156 Q791.301 46.6896 794.165 47.4708 Q797.03 48.2231 799.836 48.2231 Q803.598 48.2231 805.623 46.95 Q807.649 45.6479 807.649 43.3042 Q807.649 41.134 806.173 39.9766 Q804.727 38.8192 799.779 37.7486 L797.927 37.3146 Q792.979 36.273 790.78 34.1318 Q788.581 31.9616 788.581 28.2001 Q788.581 23.6283 791.821 21.1399 Q795.062 18.6515 801.023 18.6515 Q803.974 18.6515 806.578 19.0855 Q809.183 19.5196 811.382 20.3876 Z" fill="#000000" fill-rule="nonzero" fill-opacity="1" /><path clip-path="url(#clip870)" d="M826.862 10.2314 L826.862 19.4328 L837.828 19.4328 L837.828 23.5705 L826.862 23.5705 L826.862 41.163 Q826.862 45.1271 827.932 46.2555 Q829.032 47.384 832.359 47.384 L837.828 47.384 L837.828 51.84 L832.359 51.84 Q826.196 51.84 823.853 49.5541 Q821.509 47.2393 821.509 41.163 L821.509 23.5705 L817.603 23.5705 L817.603 19.4328 L821.509 19.4328 L821.509 10.2314 L826.862 10.2314 Z" fill="#000000" fill-rule="nonzero" fill-opacity="1" /><path clip-path="url(#clip870)" d="M859.558 35.5496 Q853.106 35.5496 850.617 37.0253 Q848.129 38.501 848.129 42.06 Q848.129 44.8956 849.981 46.5738 Q851.862 48.2231 855.073 48.2231 Q859.501 48.2231 862.163 45.0981 Q864.853 41.9442 864.853 36.7359 L864.853 35.5496 L859.558 35.5496 M870.178 33.3505 L870.178 51.84 L864.853 51.84 L864.853 46.921 Q863.031 49.8724 860.311 51.2902 Q857.591 52.6791 853.656 52.6791 Q848.679 52.6791 845.727 49.9014 Q842.805 47.0947 842.805 42.4072 Q842.805 36.9385 846.451 34.1607 Q850.126 31.3829 857.388 31.3829 L864.853 31.3829 L864.853 30.8621 Q864.853 27.1874 862.423 25.1908 Q860.021 23.1654 855.652 23.1654 Q852.874 23.1654 850.241 23.8309 Q847.608 24.4964 845.178 25.8274 L845.178 20.9085 Q848.1 19.78 850.849 19.2302 Q853.598 18.6515 856.202 18.6515 Q863.233 18.6515 866.705 22.2973 Q870.178 25.9431 870.178 33.3505 Z" fill="#000000" fill-rule="nonzero" fill-opacity="1" /><path clip-path="url(#clip870)" d="M886.41 10.2314 L886.41 19.4328 L897.376 19.4328 L897.376 23.5705 L886.41 23.5705 L886.41 41.163 Q886.41 45.1271 887.481 46.2555 Q888.58 47.384 891.908 47.384 L897.376 47.384 L897.376 51.84 L891.908 51.84 Q885.745 51.84 883.401 49.5541 Q881.057 47.2393 881.057 41.163 L881.057 23.5705 L877.151 23.5705 L877.151 19.4328 L881.057 19.4328 L881.057 10.2314 L886.41 10.2314 Z" fill="#000000" fill-rule="nonzero" fill-opacity="1" /><path clip-path="url(#clip870)" d="M932.099 34.3054 L932.099 36.9095 L907.619 36.9095 Q907.967 42.4072 910.918 45.3007 Q913.898 48.1653 919.193 48.1653 Q922.261 48.1653 925.125 47.4129 Q928.019 46.6606 930.854 45.156 L930.854 50.1907 Q927.99 51.406 924.98 52.0425 Q921.971 52.6791 918.875 52.6791 Q911.121 52.6791 906.578 48.1653 Q902.064 43.6514 902.064 35.9547 Q902.064 27.9975 906.346 23.339 Q910.658 18.6515 917.949 18.6515 Q924.489 18.6515 928.279 22.876 Q932.099 27.0716 932.099 34.3054 M926.774 32.7429 Q926.717 28.3737 924.315 25.7695 Q921.942 23.1654 918.007 23.1654 Q913.551 23.1654 910.86 25.6827 Q908.198 28.2001 907.793 32.7718 L926.774 32.7429 Z" fill="#000000" fill-rule="nonzero" fill-opacity="1" /><polyline clip-path="url(#clip872)" style="stroke:#000000; stroke-linecap:round; stroke-linejoin:round; stroke-width:4; stroke-opacity:1; fill:none" stroke-dasharray="16, 10" points="237.203,2672.5 237.203,-1193.16 "/>
<polyline clip-path="url(#clip872)" style="stroke:#000000; stroke-linecap:round; stroke-linejoin:round; stroke-width:4; stroke-opacity:1; fill:none" stroke-dasharray="16, 10" points="1483.25,2672.5 1483.25,-1193.16 "/>
<polyline clip-path="url(#clip872)" style="stroke:#009af9; stroke-linecap:round; stroke-linejoin:round; stroke-width:8; stroke-opacity:1; fill:none" points="237.203,1347.48 299.505,1311.49 361.807,1273.67 424.109,1233.93 486.411,1192.16 548.713,1148.28 611.015,1102.15 673.317,1053.69 735.62,1002.75 797.922,949.228 860.224,892.981 922.526,833.873 984.828,771.758 1047.13,706.483 1109.43,637.887 1171.73,565.802 1234.04,490.051 1296.34,410.445 1358.64,326.791 1420.94,238.88 1483.25,146.498 "/>
<polyline clip-path="url(#clip872)" style="stroke:#000000; stroke-linecap:round; stroke-linejoin:round; stroke-width:8; stroke-opacity:1; fill:none" stroke-dasharray="4, 8" points="237.203,1347.48 299.505,1243.92 361.807,1231.49 424.109,1274.57 486.411,1258.13 548.713,1146.54 611.015,1032.68 673.317,1009.42 735.62,1041.12 797.922,1012.7 860.224,888.534 922.526,761.447 984.828,724.278 1047.13,741.353 1109.43,697.572 1171.73,557.244 1234.04,413.172 1296.34,358.147 1358.64,356.45 1420.94,292.934 1483.25,131.861 "/>
<path clip-path="url(#clip870)" d="M243.848 293.864 L512.085 293.864 L512.085 138.344 L243.848 138.344  Z" fill="#ffffff" fill-rule="evenodd" fill-opacity="1"/>
<polyline clip-path="url(#clip870)" style="stroke:#000000; stroke-linecap:round; stroke-linejoin:round; stroke-width:4; stroke-opacity:1; fill:none" points="243.848,293.864 512.085,293.864 512.085,138.344 243.848,138.344 243.848,293.864 "/>
<polyline clip-path="url(#clip870)" style="stroke:#009af9; stroke-linecap:round; stroke-linejoin:round; stroke-width:8; stroke-opacity:1; fill:none" points="258.524,190.184 346.577,190.184 "/>
<path clip-path="url(#clip870)" d="M365.929 176.747 L365.929 203.621 L371.577 203.621 Q378.73 203.621 382.04 200.381 Q385.373 197.14 385.373 190.149 Q385.373 183.205 382.04 179.987 Q378.73 176.747 371.577 176.747 L365.929 176.747 M361.253 172.904 L370.859 172.904 Q380.906 172.904 385.605 177.094 Q390.304 181.26 390.304 190.149 Q390.304 199.084 385.582 203.274 Q380.859 207.464 370.859 207.464 L361.253 207.464 L361.253 172.904 Z" fill="#000000" fill-rule="nonzero" fill-opacity="1" /><path clip-path="url(#clip870)" d="M397.572 181.538 L401.832 181.538 L401.832 207.464 L397.572 207.464 L397.572 181.538 M397.572 171.446 L401.832 171.446 L401.832 176.839 L397.572 176.839 L397.572 171.446 Z" fill="#000000" fill-rule="nonzero" fill-opacity="1" /><path clip-path="url(#clip870)" d="M425.767 185.52 Q425.049 185.103 424.193 184.918 Q423.359 184.709 422.341 184.709 Q418.73 184.709 416.785 187.071 Q414.864 189.409 414.864 193.807 L414.864 207.464 L410.581 207.464 L410.581 181.538 L414.864 181.538 L414.864 185.566 Q416.206 183.205 418.359 182.071 Q420.512 180.913 423.591 180.913 Q424.03 180.913 424.563 180.983 Q425.095 181.029 425.743 181.145 L425.767 185.52 Z" fill="#000000" fill-rule="nonzero" fill-opacity="1" /><path clip-path="url(#clip870)" d="M451.368 193.436 L451.368 195.52 L431.785 195.52 Q432.063 199.918 434.424 202.233 Q436.808 204.524 441.044 204.524 Q443.498 204.524 445.79 203.922 Q448.104 203.32 450.373 202.117 L450.373 206.145 Q448.081 207.117 445.674 207.626 Q443.266 208.135 440.79 208.135 Q434.586 208.135 430.952 204.524 Q427.341 200.913 427.341 194.756 Q427.341 188.39 430.767 184.663 Q434.216 180.913 440.049 180.913 Q445.28 180.913 448.313 184.293 Q451.368 187.649 451.368 193.436 M447.109 192.186 Q447.063 188.691 445.141 186.608 Q443.243 184.524 440.095 184.524 Q436.53 184.524 434.378 186.538 Q432.248 188.552 431.924 192.209 L447.109 192.186 Z" fill="#000000" fill-rule="nonzero" fill-opacity="1" /><path clip-path="url(#clip870)" d="M477.016 182.534 L477.016 186.515 Q475.211 185.52 473.382 185.034 Q471.577 184.524 469.725 184.524 Q465.581 184.524 463.29 187.163 Q460.998 189.779 460.998 194.524 Q460.998 199.27 463.29 201.908 Q465.581 204.524 469.725 204.524 Q471.577 204.524 473.382 204.038 Q475.211 203.529 477.016 202.533 L477.016 206.469 Q475.234 207.302 473.313 207.719 Q471.414 208.135 469.262 208.135 Q463.405 208.135 459.956 204.455 Q456.507 200.774 456.507 194.524 Q456.507 188.182 459.979 184.547 Q463.475 180.913 469.539 180.913 Q471.507 180.913 473.382 181.33 Q475.257 181.723 477.016 182.534 Z" fill="#000000" fill-rule="nonzero" fill-opacity="1" /><path clip-path="url(#clip870)" d="M488.637 174.177 L488.637 181.538 L497.41 181.538 L497.41 184.848 L488.637 184.848 L488.637 198.922 Q488.637 202.094 489.493 202.996 Q490.373 203.899 493.035 203.899 L497.41 203.899 L497.41 207.464 L493.035 207.464 Q488.104 207.464 486.229 205.635 Q484.354 203.783 484.354 198.922 L484.354 184.848 L481.229 184.848 L481.229 181.538 L484.354 181.538 L484.354 174.177 L488.637 174.177 Z" fill="#000000" fill-rule="nonzero" fill-opacity="1" /><polyline clip-path="url(#clip870)" style="stroke:#000000; stroke-linecap:round; stroke-linejoin:round; stroke-width:8; stroke-opacity:1; fill:none" stroke-dasharray="4, 8" points="258.524,242.024 346.577,242.024 "/>
<path clip-path="url(#clip870)" d="M365.929 228.587 L365.929 255.461 L371.577 255.461 Q378.73 255.461 382.04 252.221 Q385.373 248.98 385.373 241.989 Q385.373 235.045 382.04 231.827 Q378.73 228.587 371.577 228.587 L365.929 228.587 M361.253 224.744 L370.859 224.744 Q380.906 224.744 385.605 228.934 Q390.304 233.1 390.304 241.989 Q390.304 250.924 385.582 255.114 Q380.859 259.304 370.859 259.304 L361.253 259.304 L361.253 224.744 Z" fill="#000000" fill-rule="nonzero" fill-opacity="1" /><path clip-path="url(#clip870)" d="M409.355 246.272 Q404.193 246.272 402.202 247.452 Q400.211 248.633 400.211 251.48 Q400.211 253.748 401.693 255.091 Q403.197 256.41 405.767 256.41 Q409.308 256.41 411.438 253.91 Q413.591 251.387 413.591 247.221 L413.591 246.272 L409.355 246.272 M417.85 244.512 L417.85 259.304 L413.591 259.304 L413.591 255.369 Q412.132 257.73 409.956 258.864 Q407.781 259.975 404.632 259.975 Q400.651 259.975 398.29 257.753 Q395.952 255.508 395.952 251.758 Q395.952 247.383 398.869 245.161 Q401.808 242.938 407.619 242.938 L413.591 242.938 L413.591 242.522 Q413.591 239.582 411.646 237.985 Q409.725 236.364 406.23 236.364 Q404.007 236.364 401.901 236.897 Q399.794 237.429 397.85 238.494 L397.85 234.559 Q400.188 233.656 402.387 233.216 Q404.586 232.753 406.669 232.753 Q412.294 232.753 415.072 235.67 Q417.85 238.586 417.85 244.512 Z" fill="#000000" fill-rule="nonzero" fill-opacity="1" /><path clip-path="url(#clip870)" d="M430.836 226.017 L430.836 233.378 L439.609 233.378 L439.609 236.688 L430.836 236.688 L430.836 250.762 Q430.836 253.934 431.692 254.836 Q432.572 255.739 435.234 255.739 L439.609 255.739 L439.609 259.304 L435.234 259.304 Q430.304 259.304 428.429 257.475 Q426.554 255.623 426.554 250.762 L426.554 236.688 L423.429 236.688 L423.429 233.378 L426.554 233.378 L426.554 226.017 L430.836 226.017 Z" fill="#000000" fill-rule="nonzero" fill-opacity="1" /><path clip-path="url(#clip870)" d="M456.993 246.272 Q451.831 246.272 449.841 247.452 Q447.85 248.633 447.85 251.48 Q447.85 253.748 449.331 255.091 Q450.836 256.41 453.405 256.41 Q456.947 256.41 459.077 253.91 Q461.229 251.387 461.229 247.221 L461.229 246.272 L456.993 246.272 M465.489 244.512 L465.489 259.304 L461.229 259.304 L461.229 255.369 Q459.771 257.73 457.595 258.864 Q455.419 259.975 452.271 259.975 Q448.29 259.975 445.928 257.753 Q443.591 255.508 443.591 251.758 Q443.591 247.383 446.507 245.161 Q449.447 242.938 455.257 242.938 L461.229 242.938 L461.229 242.522 Q461.229 239.582 459.285 237.985 Q457.364 236.364 453.868 236.364 Q451.646 236.364 449.54 236.897 Q447.433 237.429 445.489 238.494 L445.489 234.559 Q447.827 233.656 450.026 233.216 Q452.225 232.753 454.308 232.753 Q459.933 232.753 462.711 235.67 Q465.489 238.586 465.489 244.512 Z" fill="#000000" fill-rule="nonzero" fill-opacity="1" /><path clip-path="url(#clip870)" d="M1831.95 1383.95 L3152.76 1383.95 L3152.76 95.3921 L1831.95 95.3921  Z" fill="#ffffff" fill-rule="evenodd" fill-opacity="1"/>
<polyline clip-path="url(#clip871)" style="stroke:#000000; stroke-linecap:round; stroke-linejoin:round; stroke-width:2; stroke-opacity:0.1; fill:none" points="1869.33,1383.95 1869.33,95.3921 "/>
<polyline clip-path="url(#clip871)" style="stroke:#000000; stroke-linecap:round; stroke-linejoin:round; stroke-width:2; stroke-opacity:0.1; fill:none" points="2180.84,1383.95 2180.84,95.3921 "/>
<polyline clip-path="url(#clip871)" style="stroke:#000000; stroke-linecap:round; stroke-linejoin:round; stroke-width:2; stroke-opacity:0.1; fill:none" points="2492.35,1383.95 2492.35,95.3921 "/>
<polyline clip-path="url(#clip871)" style="stroke:#000000; stroke-linecap:round; stroke-linejoin:round; stroke-width:2; stroke-opacity:0.1; fill:none" points="2803.86,1383.95 2803.86,95.3921 "/>
<polyline clip-path="url(#clip871)" style="stroke:#000000; stroke-linecap:round; stroke-linejoin:round; stroke-width:2; stroke-opacity:0.1; fill:none" points="3115.37,1383.95 3115.37,95.3921 "/>
<polyline clip-path="url(#clip871)" style="stroke:#000000; stroke-linecap:round; stroke-linejoin:round; stroke-width:2; stroke-opacity:0.1; fill:none" points="1831.95,1254.11 3152.76,1254.11 "/>
<polyline clip-path="url(#clip871)" style="stroke:#000000; stroke-linecap:round; stroke-linejoin:round; stroke-width:2; stroke-opacity:0.1; fill:none" points="1831.95,1000.7 3152.76,1000.7 "/>
<polyline clip-path="url(#clip871)" style="stroke:#000000; stroke-linecap:round; stroke-linejoin:round; stroke-width:2; stroke-opacity:0.1; fill:none" points="1831.95,747.286 3152.76,747.286 "/>
<polyline clip-path="url(#clip871)" style="stroke:#000000; stroke-linecap:round; stroke-linejoin:round; stroke-width:2; stroke-opacity:0.1; fill:none" points="1831.95,493.875 3152.76,493.875 "/>
<polyline clip-path="url(#clip871)" style="stroke:#000000; stroke-linecap:round; stroke-linejoin:round; stroke-width:2; stroke-opacity:0.1; fill:none" points="1831.95,240.464 3152.76,240.464 "/>
<polyline clip-path="url(#clip870)" style="stroke:#000000; stroke-linecap:round; stroke-linejoin:round; stroke-width:4; stroke-opacity:1; fill:none" points="1831.95,1383.95 3152.76,1383.95 "/>
<polyline clip-path="url(#clip870)" style="stroke:#000000; stroke-linecap:round; stroke-linejoin:round; stroke-width:4; stroke-opacity:1; fill:none" points="1869.33,1383.95 1869.33,1365.05 "/>
<polyline clip-path="url(#clip870)" style="stroke:#000000; stroke-linecap:round; stroke-linejoin:round; stroke-width:4; stroke-opacity:1; fill:none" points="2180.84,1383.95 2180.84,1365.05 "/>
<polyline clip-path="url(#clip870)" style="stroke:#000000; stroke-linecap:round; stroke-linejoin:round; stroke-width:4; stroke-opacity:1; fill:none" points="2492.35,1383.95 2492.35,1365.05 "/>
<polyline clip-path="url(#clip870)" style="stroke:#000000; stroke-linecap:round; stroke-linejoin:round; stroke-width:4; stroke-opacity:1; fill:none" points="2803.86,1383.95 2803.86,1365.05 "/>
<polyline clip-path="url(#clip870)" style="stroke:#000000; stroke-linecap:round; stroke-linejoin:round; stroke-width:4; stroke-opacity:1; fill:none" points="3115.37,1383.95 3115.37,1365.05 "/>
<path clip-path="url(#clip870)" d="M1846.72 1421.27 Q1843.11 1421.27 1841.28 1424.83 Q1839.47 1428.37 1839.47 1435.5 Q1839.47 1442.61 1841.28 1446.17 Q1843.11 1449.72 1846.72 1449.72 Q1850.35 1449.72 1852.16 1446.17 Q1853.98 1442.61 1853.98 1435.5 Q1853.98 1428.37 1852.16 1424.83 Q1850.35 1421.27 1846.72 1421.27 M1846.72 1417.56 Q1852.53 1417.56 1855.58 1422.17 Q1858.66 1426.75 1858.66 1435.5 Q1858.66 1444.23 1855.58 1448.84 Q1852.53 1453.42 1846.72 1453.42 Q1840.91 1453.42 1837.83 1448.84 Q1834.77 1444.23 1834.77 1435.5 Q1834.77 1426.75 1837.83 1422.17 Q1840.91 1417.56 1846.72 1417.56 Z" fill="#000000" fill-rule="nonzero" fill-opacity="1" /><path clip-path="url(#clip870)" d="M1866.88 1446.87 L1871.76 1446.87 L1871.76 1452.75 L1866.88 1452.75 L1866.88 1446.87 Z" fill="#000000" fill-rule="nonzero" fill-opacity="1" /><path clip-path="url(#clip870)" d="M1891.95 1421.27 Q1888.34 1421.27 1886.51 1424.83 Q1884.7 1428.37 1884.7 1435.5 Q1884.7 1442.61 1886.51 1446.17 Q1888.34 1449.72 1891.95 1449.72 Q1895.58 1449.72 1897.39 1446.17 Q1899.22 1442.61 1899.22 1435.5 Q1899.22 1428.37 1897.39 1424.83 Q1895.58 1421.27 1891.95 1421.27 M1891.95 1417.56 Q1897.76 1417.56 1900.81 1422.17 Q1903.89 1426.75 1903.89 1435.5 Q1903.89 1444.23 1900.81 1448.84 Q1897.76 1453.42 1891.95 1453.42 Q1886.14 1453.42 1883.06 1448.84 Q1880 1444.23 1880 1435.5 Q1880 1426.75 1883.06 1422.17 Q1886.14 1417.56 1891.95 1417.56 Z" fill="#000000" fill-rule="nonzero" fill-opacity="1" /><path clip-path="url(#clip870)" d="M2158.72 1421.27 Q2155.11 1421.27 2153.28 1424.83 Q2151.48 1428.37 2151.48 1435.5 Q2151.48 1442.61 2153.28 1446.17 Q2155.11 1449.72 2158.72 1449.72 Q2162.36 1449.72 2164.16 1446.17 Q2165.99 1442.61 2165.99 1435.5 Q2165.99 1428.37 2164.16 1424.83 Q2162.36 1421.27 2158.72 1421.27 M2158.72 1417.56 Q2164.53 1417.56 2167.59 1422.17 Q2170.67 1426.75 2170.67 1435.5 Q2170.67 1444.23 2167.59 1448.84 Q2164.53 1453.42 2158.72 1453.42 Q2152.91 1453.42 2149.84 1448.84 Q2146.78 1444.23 2146.78 1435.5 Q2146.78 1426.75 2149.84 1422.17 Q2152.91 1417.56 2158.72 1417.56 Z" fill="#000000" fill-rule="nonzero" fill-opacity="1" /><path clip-path="url(#clip870)" d="M2178.89 1446.87 L2183.77 1446.87 L2183.77 1452.75 L2178.89 1452.75 L2178.89 1446.87 Z" fill="#000000" fill-rule="nonzero" fill-opacity="1" /><path clip-path="url(#clip870)" d="M2194 1418.19 L2212.36 1418.19 L2212.36 1422.12 L2198.28 1422.12 L2198.28 1430.6 Q2199.3 1430.25 2200.32 1430.09 Q2201.34 1429.9 2202.36 1429.9 Q2208.15 1429.9 2211.53 1433.07 Q2214.9 1436.24 2214.9 1441.66 Q2214.9 1447.24 2211.43 1450.34 Q2207.96 1453.42 2201.64 1453.42 Q2199.47 1453.42 2197.2 1453.05 Q2194.95 1452.68 2192.54 1451.94 L2192.54 1447.24 Q2194.63 1448.37 2196.85 1448.93 Q2199.07 1449.48 2201.55 1449.48 Q2205.55 1449.48 2207.89 1447.38 Q2210.23 1445.27 2210.23 1441.66 Q2210.23 1438.05 2207.89 1435.94 Q2205.55 1433.84 2201.55 1433.84 Q2199.67 1433.84 2197.8 1434.25 Q2195.95 1434.67 2194 1435.55 L2194 1418.19 Z" fill="#000000" fill-rule="nonzero" fill-opacity="1" /><path clip-path="url(#clip870)" d="M2459.51 1448.81 L2467.15 1448.81 L2467.15 1422.45 L2458.83 1424.11 L2458.83 1419.85 L2467.1 1418.19 L2471.77 1418.19 L2471.77 1448.81 L2479.41 1448.81 L2479.41 1452.75 L2459.51 1452.75 L2459.51 1448.81 Z" fill="#000000" fill-rule="nonzero" fill-opacity="1" /><path clip-path="url(#clip870)" d="M2488.86 1446.87 L2493.74 1446.87 L2493.74 1452.75 L2488.86 1452.75 L2488.86 1446.87 Z" fill="#000000" fill-rule="nonzero" fill-opacity="1" /><path clip-path="url(#clip870)" d="M2513.93 1421.27 Q2510.32 1421.27 2508.49 1424.83 Q2506.68 1428.37 2506.68 1435.5 Q2506.68 1442.61 2508.49 1446.17 Q2510.32 1449.72 2513.93 1449.72 Q2517.56 1449.72 2519.37 1446.17 Q2521.2 1442.61 2521.2 1435.5 Q2521.2 1428.37 2519.37 1424.83 Q2517.56 1421.27 2513.93 1421.27 M2513.93 1417.56 Q2519.74 1417.56 2522.79 1422.17 Q2525.87 1426.75 2525.87 1435.5 Q2525.87 1444.23 2522.79 1448.84 Q2519.74 1453.42 2513.93 1453.42 Q2508.12 1453.42 2505.04 1448.84 Q2501.98 1444.23 2501.98 1435.5 Q2501.98 1426.75 2505.04 1422.17 Q2508.12 1417.56 2513.93 1417.56 Z" fill="#000000" fill-rule="nonzero" fill-opacity="1" /><path clip-path="url(#clip870)" d="M2771.51 1448.81 L2779.15 1448.81 L2779.15 1422.45 L2770.84 1424.11 L2770.84 1419.85 L2779.11 1418.19 L2783.78 1418.19 L2783.78 1448.81 L2791.42 1448.81 L2791.42 1452.75 L2771.51 1452.75 L2771.51 1448.81 Z" fill="#000000" fill-rule="nonzero" fill-opacity="1" /><path clip-path="url(#clip870)" d="M2800.87 1446.87 L2805.75 1446.87 L2805.75 1452.75 L2800.87 1452.75 L2800.87 1446.87 Z" fill="#000000" fill-rule="nonzero" fill-opacity="1" /><path clip-path="url(#clip870)" d="M2815.98 1418.19 L2834.34 1418.19 L2834.34 1422.12 L2820.26 1422.12 L2820.26 1430.6 Q2821.28 1430.25 2822.3 1430.09 Q2823.32 1429.9 2824.34 1429.9 Q2830.13 1429.9 2833.5 1433.07 Q2836.88 1436.24 2836.88 1441.66 Q2836.88 1447.24 2833.41 1450.34 Q2829.94 1453.42 2823.62 1453.42 Q2821.44 1453.42 2819.18 1453.05 Q2816.93 1452.68 2814.52 1451.94 L2814.52 1447.24 Q2816.61 1448.37 2818.83 1448.93 Q2821.05 1449.48 2823.53 1449.48 Q2827.53 1449.48 2829.87 1447.38 Q2832.21 1445.27 2832.21 1441.66 Q2832.21 1438.05 2829.87 1435.94 Q2827.53 1433.84 2823.53 1433.84 Q2821.65 1433.84 2819.78 1434.25 Q2817.93 1434.67 2815.98 1435.55 L2815.98 1418.19 Z" fill="#000000" fill-rule="nonzero" fill-opacity="1" /><path clip-path="url(#clip870)" d="M3086.61 1448.81 L3102.93 1448.81 L3102.93 1452.75 L3080.99 1452.75 L3080.99 1448.81 Q3083.65 1446.06 3088.23 1441.43 Q3092.84 1436.78 3094.02 1435.43 Q3096.27 1432.91 3097.15 1431.17 Q3098.05 1429.41 3098.05 1427.72 Q3098.05 1424.97 3096.1 1423.23 Q3094.18 1421.5 3091.08 1421.5 Q3088.88 1421.5 3086.43 1422.26 Q3084 1423.03 3081.22 1424.58 L3081.22 1419.85 Q3084.04 1418.72 3086.5 1418.14 Q3088.95 1417.56 3090.99 1417.56 Q3096.36 1417.56 3099.55 1420.25 Q3102.75 1422.93 3102.75 1427.42 Q3102.75 1429.55 3101.94 1431.47 Q3101.15 1433.37 3099.04 1435.97 Q3098.46 1436.64 3095.36 1439.85 Q3092.26 1443.05 3086.61 1448.81 Z" fill="#000000" fill-rule="nonzero" fill-opacity="1" /><path clip-path="url(#clip870)" d="M3112.75 1446.87 L3117.63 1446.87 L3117.63 1452.75 L3112.75 1452.75 L3112.75 1446.87 Z" fill="#000000" fill-rule="nonzero" fill-opacity="1" /><path clip-path="url(#clip870)" d="M3137.82 1421.27 Q3134.21 1421.27 3132.38 1424.83 Q3130.57 1428.37 3130.57 1435.5 Q3130.57 1442.61 3132.38 1446.17 Q3134.21 1449.72 3137.82 1449.72 Q3141.45 1449.72 3143.26 1446.17 Q3145.09 1442.61 3145.09 1435.5 Q3145.09 1428.37 3143.26 1424.83 Q3141.45 1421.27 3137.82 1421.27 M3137.82 1417.56 Q3143.63 1417.56 3146.68 1422.17 Q3149.76 1426.75 3149.76 1435.5 Q3149.76 1444.23 3146.68 1448.84 Q3143.63 1453.42 3137.82 1453.42 Q3132.01 1453.42 3128.93 1448.84 Q3125.87 1444.23 3125.87 1435.5 Q3125.87 1426.75 3128.93 1422.17 Q3132.01 1417.56 3137.82 1417.56 Z" fill="#000000" fill-rule="nonzero" fill-opacity="1" /><path clip-path="url(#clip870)" d="M2491.5 1494.02 L2491.5 1503.22 L2502.47 1503.22 L2502.47 1507.36 L2491.5 1507.36 L2491.5 1524.95 Q2491.5 1528.91 2492.57 1530.04 Q2493.67 1531.17 2497 1531.17 L2502.47 1531.17 L2502.47 1535.63 L2497 1535.63 Q2490.83 1535.63 2488.49 1533.34 Q2486.15 1531.03 2486.15 1524.95 L2486.15 1507.36 L2482.24 1507.36 L2482.24 1503.22 L2486.15 1503.22 L2486.15 1494.02 L2491.5 1494.02 Z" fill="#000000" fill-rule="nonzero" fill-opacity="1" /><polyline clip-path="url(#clip870)" style="stroke:#000000; stroke-linecap:round; stroke-linejoin:round; stroke-width:4; stroke-opacity:1; fill:none" points="1831.95,1383.95 1831.95,95.3921 "/>
<polyline clip-path="url(#clip870)" style="stroke:#000000; stroke-linecap:round; stroke-linejoin:round; stroke-width:4; stroke-opacity:1; fill:none" points="1831.95,1254.11 1850.85,1254.11 "/>
<polyline clip-path="url(#clip870)" style="stroke:#000000; stroke-linecap:round; stroke-linejoin:round; stroke-width:4; stroke-opacity:1; fill:none" points="1831.95,1000.7 1850.85,1000.7 "/>
<polyline clip-path="url(#clip870)" style="stroke:#000000; stroke-linecap:round; stroke-linejoin:round; stroke-width:4; stroke-opacity:1; fill:none" points="1831.95,747.286 1850.85,747.286 "/>
<polyline clip-path="url(#clip870)" style="stroke:#000000; stroke-linecap:round; stroke-linejoin:round; stroke-width:4; stroke-opacity:1; fill:none" points="1831.95,493.875 1850.85,493.875 "/>
<polyline clip-path="url(#clip870)" style="stroke:#000000; stroke-linecap:round; stroke-linejoin:round; stroke-width:4; stroke-opacity:1; fill:none" points="1831.95,240.464 1850.85,240.464 "/>
<path clip-path="url(#clip870)" d="M1646.36 1254.56 L1676.03 1254.56 L1676.03 1258.49 L1646.36 1258.49 L1646.36 1254.56 Z" fill="#000000" fill-rule="nonzero" fill-opacity="1" /><path clip-path="url(#clip870)" d="M1696.13 1239.91 Q1692.52 1239.91 1690.69 1243.47 Q1688.88 1247.01 1688.88 1254.14 Q1688.88 1261.25 1690.69 1264.81 Q1692.52 1268.36 1696.13 1268.36 Q1699.76 1268.36 1701.57 1264.81 Q1703.4 1261.25 1703.4 1254.14 Q1703.4 1247.01 1701.57 1243.47 Q1699.76 1239.91 1696.13 1239.91 M1696.13 1236.2 Q1701.94 1236.2 1704.99 1240.81 Q1708.07 1245.39 1708.07 1254.14 Q1708.07 1262.87 1704.99 1267.48 Q1701.94 1272.06 1696.13 1272.06 Q1690.32 1272.06 1687.24 1267.48 Q1684.18 1262.87 1684.18 1254.14 Q1684.18 1245.39 1687.24 1240.81 Q1690.32 1236.2 1696.13 1236.2 Z" fill="#000000" fill-rule="nonzero" fill-opacity="1" /><path clip-path="url(#clip870)" d="M1716.29 1265.51 L1721.17 1265.51 L1721.17 1271.39 L1716.29 1271.39 L1716.29 1265.51 Z" fill="#000000" fill-rule="nonzero" fill-opacity="1" /><path clip-path="url(#clip870)" d="M1741.36 1239.91 Q1737.75 1239.91 1735.92 1243.47 Q1734.11 1247.01 1734.11 1254.14 Q1734.11 1261.25 1735.92 1264.81 Q1737.75 1268.36 1741.36 1268.36 Q1744.99 1268.36 1746.8 1264.81 Q1748.63 1261.25 1748.63 1254.14 Q1748.63 1247.01 1746.8 1243.47 Q1744.99 1239.91 1741.36 1239.91 M1741.36 1236.2 Q1747.17 1236.2 1750.22 1240.81 Q1753.3 1245.39 1753.3 1254.14 Q1753.3 1262.87 1750.22 1267.48 Q1747.17 1272.06 1741.36 1272.06 Q1735.55 1272.06 1732.47 1267.48 Q1729.41 1262.87 1729.41 1254.14 Q1729.41 1245.39 1732.47 1240.81 Q1735.55 1236.2 1741.36 1236.2 Z" fill="#000000" fill-rule="nonzero" fill-opacity="1" /><path clip-path="url(#clip870)" d="M1774.37 1240.9 L1762.56 1259.35 L1774.37 1259.35 L1774.37 1240.9 M1773.14 1236.83 L1779.02 1236.83 L1779.02 1259.35 L1783.95 1259.35 L1783.95 1263.24 L1779.02 1263.24 L1779.02 1271.39 L1774.37 1271.39 L1774.37 1263.24 L1758.77 1263.24 L1758.77 1258.73 L1773.14 1236.83 Z" fill="#000000" fill-rule="nonzero" fill-opacity="1" /><path clip-path="url(#clip870)" d="M1648.44 1001.15 L1678.12 1001.15 L1678.12 1005.08 L1648.44 1005.08 L1648.44 1001.15 Z" fill="#000000" fill-rule="nonzero" fill-opacity="1" /><path clip-path="url(#clip870)" d="M1698.21 986.496 Q1694.6 986.496 1692.77 990.061 Q1690.97 993.602 1690.97 1000.73 Q1690.97 1007.84 1692.77 1011.4 Q1694.6 1014.94 1698.21 1014.94 Q1701.84 1014.94 1703.65 1011.4 Q1705.48 1007.84 1705.48 1000.73 Q1705.48 993.602 1703.65 990.061 Q1701.84 986.496 1698.21 986.496 M1698.21 982.792 Q1704.02 982.792 1707.08 987.399 Q1710.15 991.982 1710.15 1000.73 Q1710.15 1009.46 1707.08 1014.07 Q1704.02 1018.65 1698.21 1018.65 Q1692.4 1018.65 1689.32 1014.07 Q1686.27 1009.46 1686.27 1000.73 Q1686.27 991.982 1689.32 987.399 Q1692.4 982.792 1698.21 982.792 Z" fill="#000000" fill-rule="nonzero" fill-opacity="1" /><path clip-path="url(#clip870)" d="M1718.37 1012.1 L1723.26 1012.1 L1723.26 1017.98 L1718.37 1017.98 L1718.37 1012.1 Z" fill="#000000" fill-rule="nonzero" fill-opacity="1" /><path clip-path="url(#clip870)" d="M1743.44 986.496 Q1739.83 986.496 1738 990.061 Q1736.2 993.602 1736.2 1000.73 Q1736.2 1007.84 1738 1011.4 Q1739.83 1014.94 1743.44 1014.94 Q1747.08 1014.94 1748.88 1011.4 Q1750.71 1007.84 1750.71 1000.73 Q1750.71 993.602 1748.88 990.061 Q1747.08 986.496 1743.44 986.496 M1743.44 982.792 Q1749.25 982.792 1752.31 987.399 Q1755.39 991.982 1755.39 1000.73 Q1755.39 1009.46 1752.31 1014.07 Q1749.25 1018.65 1743.44 1018.65 Q1737.63 1018.65 1734.55 1014.07 Q1731.5 1009.46 1731.5 1000.73 Q1731.5 991.982 1734.55 987.399 Q1737.63 982.792 1743.44 982.792 Z" fill="#000000" fill-rule="nonzero" fill-opacity="1" /><path clip-path="url(#clip870)" d="M1767.63 1014.04 L1783.95 1014.04 L1783.95 1017.98 L1762.01 1017.98 L1762.01 1014.04 Q1764.67 1011.29 1769.25 1006.66 Q1773.86 1002.01 1775.04 1000.66 Q1777.28 998.139 1778.16 996.403 Q1779.07 994.644 1779.07 992.954 Q1779.07 990.2 1777.12 988.464 Q1775.2 986.727 1772.1 986.727 Q1769.9 986.727 1767.45 987.491 Q1765.02 988.255 1762.24 989.806 L1762.24 985.084 Q1765.06 983.95 1767.52 983.371 Q1769.97 982.792 1772.01 982.792 Q1777.38 982.792 1780.57 985.477 Q1783.77 988.163 1783.77 992.653 Q1783.77 994.783 1782.96 996.704 Q1782.17 998.602 1780.06 1001.19 Q1779.48 1001.87 1776.38 1005.08 Q1773.28 1008.28 1767.63 1014.04 Z" fill="#000000" fill-rule="nonzero" fill-opacity="1" /><path clip-path="url(#clip870)" d="M1696.61 733.085 Q1693 733.085 1691.17 736.65 Q1689.37 740.191 1689.37 747.321 Q1689.37 754.427 1691.17 757.992 Q1693 761.534 1696.61 761.534 Q1700.25 761.534 1702.05 757.992 Q1703.88 754.427 1703.88 747.321 Q1703.88 740.191 1702.05 736.65 Q1700.25 733.085 1696.61 733.085 M1696.61 729.381 Q1702.42 729.381 1705.48 733.988 Q1708.56 738.571 1708.56 747.321 Q1708.56 756.048 1705.48 760.654 Q1702.42 765.238 1696.61 765.238 Q1690.8 765.238 1687.72 760.654 Q1684.67 756.048 1684.67 747.321 Q1684.67 738.571 1687.72 733.988 Q1690.8 729.381 1696.61 729.381 Z" fill="#000000" fill-rule="nonzero" fill-opacity="1" /><path clip-path="url(#clip870)" d="M1716.78 758.687 L1721.66 758.687 L1721.66 764.566 L1716.78 764.566 L1716.78 758.687 Z" fill="#000000" fill-rule="nonzero" fill-opacity="1" /><path clip-path="url(#clip870)" d="M1741.84 733.085 Q1738.23 733.085 1736.4 736.65 Q1734.6 740.191 1734.6 747.321 Q1734.6 754.427 1736.4 757.992 Q1738.23 761.534 1741.84 761.534 Q1745.48 761.534 1747.28 757.992 Q1749.11 754.427 1749.11 747.321 Q1749.11 740.191 1747.28 736.65 Q1745.48 733.085 1741.84 733.085 M1741.84 729.381 Q1747.65 729.381 1750.71 733.988 Q1753.79 738.571 1753.79 747.321 Q1753.79 756.048 1750.71 760.654 Q1747.65 765.238 1741.84 765.238 Q1736.03 765.238 1732.96 760.654 Q1729.9 756.048 1729.9 747.321 Q1729.9 738.571 1732.96 733.988 Q1736.03 729.381 1741.84 729.381 Z" fill="#000000" fill-rule="nonzero" fill-opacity="1" /><path clip-path="url(#clip870)" d="M1772.01 733.085 Q1768.4 733.085 1766.57 736.65 Q1764.76 740.191 1764.76 747.321 Q1764.76 754.427 1766.57 757.992 Q1768.4 761.534 1772.01 761.534 Q1775.64 761.534 1777.45 757.992 Q1779.27 754.427 1779.27 747.321 Q1779.27 740.191 1777.45 736.65 Q1775.64 733.085 1772.01 733.085 M1772.01 729.381 Q1777.82 729.381 1780.87 733.988 Q1783.95 738.571 1783.95 747.321 Q1783.95 756.048 1780.87 760.654 Q1777.82 765.238 1772.01 765.238 Q1766.2 765.238 1763.12 760.654 Q1760.06 756.048 1760.06 747.321 Q1760.06 738.571 1763.12 733.988 Q1766.2 729.381 1772.01 729.381 Z" fill="#000000" fill-rule="nonzero" fill-opacity="1" /><path clip-path="url(#clip870)" d="M1698.21 479.674 Q1694.6 479.674 1692.77 483.239 Q1690.97 486.78 1690.97 493.91 Q1690.97 501.016 1692.77 504.581 Q1694.6 508.123 1698.21 508.123 Q1701.84 508.123 1703.65 504.581 Q1705.48 501.016 1705.48 493.91 Q1705.48 486.78 1703.65 483.239 Q1701.84 479.674 1698.21 479.674 M1698.21 475.97 Q1704.02 475.97 1707.08 480.577 Q1710.15 485.16 1710.15 493.91 Q1710.15 502.637 1707.08 507.243 Q1704.02 511.827 1698.21 511.827 Q1692.4 511.827 1689.32 507.243 Q1686.27 502.637 1686.27 493.91 Q1686.27 485.16 1689.32 480.577 Q1692.4 475.97 1698.21 475.97 Z" fill="#000000" fill-rule="nonzero" fill-opacity="1" /><path clip-path="url(#clip870)" d="M1718.37 505.276 L1723.26 505.276 L1723.26 511.155 L1718.37 511.155 L1718.37 505.276 Z" fill="#000000" fill-rule="nonzero" fill-opacity="1" /><path clip-path="url(#clip870)" d="M1743.44 479.674 Q1739.83 479.674 1738 483.239 Q1736.2 486.78 1736.2 493.91 Q1736.2 501.016 1738 504.581 Q1739.83 508.123 1743.44 508.123 Q1747.08 508.123 1748.88 504.581 Q1750.71 501.016 1750.71 493.91 Q1750.71 486.78 1748.88 483.239 Q1747.08 479.674 1743.44 479.674 M1743.44 475.97 Q1749.25 475.97 1752.31 480.577 Q1755.39 485.16 1755.39 493.91 Q1755.39 502.637 1752.31 507.243 Q1749.25 511.827 1743.44 511.827 Q1737.63 511.827 1734.55 507.243 Q1731.5 502.637 1731.5 493.91 Q1731.5 485.16 1734.55 480.577 Q1737.63 475.97 1743.44 475.97 Z" fill="#000000" fill-rule="nonzero" fill-opacity="1" /><path clip-path="url(#clip870)" d="M1767.63 507.22 L1783.95 507.22 L1783.95 511.155 L1762.01 511.155 L1762.01 507.22 Q1764.67 504.466 1769.25 499.836 Q1773.86 495.183 1775.04 493.841 Q1777.28 491.317 1778.16 489.581 Q1779.07 487.822 1779.07 486.132 Q1779.07 483.378 1777.12 481.642 Q1775.2 479.905 1772.1 479.905 Q1769.9 479.905 1767.45 480.669 Q1765.02 481.433 1762.24 482.984 L1762.24 478.262 Q1765.06 477.128 1767.52 476.549 Q1769.97 475.97 1772.01 475.97 Q1777.38 475.97 1780.57 478.655 Q1783.77 481.341 1783.77 485.831 Q1783.77 487.961 1782.96 489.882 Q1782.17 491.78 1780.06 494.373 Q1779.48 495.044 1776.38 498.262 Q1773.28 501.456 1767.63 507.22 Z" fill="#000000" fill-rule="nonzero" fill-opacity="1" /><path clip-path="url(#clip870)" d="M1696.13 226.263 Q1692.52 226.263 1690.69 229.828 Q1688.88 233.369 1688.88 240.499 Q1688.88 247.605 1690.69 251.17 Q1692.52 254.712 1696.13 254.712 Q1699.76 254.712 1701.57 251.17 Q1703.4 247.605 1703.4 240.499 Q1703.4 233.369 1701.57 229.828 Q1699.76 226.263 1696.13 226.263 M1696.13 222.559 Q1701.94 222.559 1704.99 227.166 Q1708.07 231.749 1708.07 240.499 Q1708.07 249.226 1704.99 253.832 Q1701.94 258.416 1696.13 258.416 Q1690.32 258.416 1687.24 253.832 Q1684.18 249.226 1684.18 240.499 Q1684.18 231.749 1687.24 227.166 Q1690.32 222.559 1696.13 222.559 Z" fill="#000000" fill-rule="nonzero" fill-opacity="1" /><path clip-path="url(#clip870)" d="M1716.29 251.865 L1721.17 251.865 L1721.17 257.744 L1716.29 257.744 L1716.29 251.865 Z" fill="#000000" fill-rule="nonzero" fill-opacity="1" /><path clip-path="url(#clip870)" d="M1741.36 226.263 Q1737.75 226.263 1735.92 229.828 Q1734.11 233.369 1734.11 240.499 Q1734.11 247.605 1735.92 251.17 Q1737.75 254.712 1741.36 254.712 Q1744.99 254.712 1746.8 251.17 Q1748.63 247.605 1748.63 240.499 Q1748.63 233.369 1746.8 229.828 Q1744.99 226.263 1741.36 226.263 M1741.36 222.559 Q1747.17 222.559 1750.22 227.166 Q1753.3 231.749 1753.3 240.499 Q1753.3 249.226 1750.22 253.832 Q1747.17 258.416 1741.36 258.416 Q1735.55 258.416 1732.47 253.832 Q1729.41 249.226 1729.41 240.499 Q1729.41 231.749 1732.47 227.166 Q1735.55 222.559 1741.36 222.559 Z" fill="#000000" fill-rule="nonzero" fill-opacity="1" /><path clip-path="url(#clip870)" d="M1774.37 227.258 L1762.56 245.707 L1774.37 245.707 L1774.37 227.258 M1773.14 223.184 L1779.02 223.184 L1779.02 245.707 L1783.95 245.707 L1783.95 249.596 L1779.02 249.596 L1779.02 257.744 L1774.37 257.744 L1774.37 249.596 L1758.77 249.596 L1758.77 245.082 L1773.14 223.184 Z" fill="#000000" fill-rule="nonzero" fill-opacity="1" /><path clip-path="url(#clip870)" d="M2411.73 20.677 L2411.73 25.6538 Q2409.47 24.4096 2407.18 23.802 Q2404.93 23.1654 2402.61 23.1654 Q2397.43 23.1654 2394.57 26.464 Q2391.7 29.7336 2391.7 35.6653 Q2391.7 41.597 2394.57 44.8956 Q2397.43 48.1653 2402.61 48.1653 Q2404.93 48.1653 2407.18 47.5576 Q2409.47 46.921 2411.73 45.6768 L2411.73 50.5958 Q2409.5 51.6375 2407.1 52.1583 Q2404.72 52.6791 2402.03 52.6791 Q2394.71 52.6791 2390.4 48.0784 Q2386.09 43.4778 2386.09 35.6653 Q2386.09 27.7371 2390.43 23.1943 Q2394.8 18.6515 2402.38 18.6515 Q2404.84 18.6515 2407.18 19.1724 Q2409.53 19.6642 2411.73 20.677 Z" fill="#000000" fill-rule="nonzero" fill-opacity="1" /><path clip-path="url(#clip870)" d="M2433.54 23.1654 Q2429.26 23.1654 2426.77 26.5218 Q2424.28 29.8494 2424.28 35.6653 Q2424.28 41.4813 2426.74 44.8377 Q2429.23 48.1653 2433.54 48.1653 Q2437.8 48.1653 2440.28 44.8088 Q2442.77 41.4523 2442.77 35.6653 Q2442.77 29.9072 2440.28 26.5508 Q2437.8 23.1654 2433.54 23.1654 M2433.54 18.6515 Q2440.49 18.6515 2444.45 23.1654 Q2448.42 27.6792 2448.42 35.6653 Q2448.42 43.6225 2444.45 48.1653 Q2440.49 52.6791 2433.54 52.6791 Q2426.57 52.6791 2422.61 48.1653 Q2418.67 43.6225 2418.67 35.6653 Q2418.67 27.6792 2422.61 23.1654 Q2426.57 18.6515 2433.54 18.6515 Z" fill="#000000" fill-rule="nonzero" fill-opacity="1" /><path clip-path="url(#clip870)" d="M2477.9 20.3876 L2477.9 25.4223 Q2475.64 24.2649 2473.21 23.6862 Q2470.78 23.1075 2468.18 23.1075 Q2464.21 23.1075 2462.22 24.3228 Q2460.25 25.5381 2460.25 27.9686 Q2460.25 29.8204 2461.67 30.891 Q2463.09 31.9327 2467.37 32.8876 L2469.19 33.2926 Q2474.86 34.5079 2477.23 36.7359 Q2479.64 38.935 2479.64 42.8991 Q2479.64 47.4129 2476.05 50.046 Q2472.49 52.6791 2466.24 52.6791 Q2463.64 52.6791 2460.8 52.1583 Q2457.99 51.6664 2454.87 50.6537 L2454.87 45.156 Q2457.82 46.6896 2460.68 47.4708 Q2463.55 48.2231 2466.36 48.2231 Q2470.12 48.2231 2472.14 46.95 Q2474.17 45.6479 2474.17 43.3042 Q2474.17 41.134 2472.69 39.9766 Q2471.25 38.8192 2466.3 37.7486 L2464.45 37.3146 Q2459.5 36.273 2457.3 34.1318 Q2455.1 31.9616 2455.1 28.2001 Q2455.1 23.6283 2458.34 21.1399 Q2461.58 18.6515 2467.54 18.6515 Q2470.49 18.6515 2473.1 19.0855 Q2475.7 19.5196 2477.9 20.3876 Z" fill="#000000" fill-rule="nonzero" fill-opacity="1" /><path clip-path="url(#clip870)" d="M2493.38 10.2314 L2493.38 19.4328 L2504.35 19.4328 L2504.35 23.5705 L2493.38 23.5705 L2493.38 41.163 Q2493.38 45.1271 2494.45 46.2555 Q2495.55 47.384 2498.88 47.384 L2504.35 47.384 L2504.35 51.84 L2498.88 51.84 Q2492.71 51.84 2490.37 49.5541 Q2488.03 47.2393 2488.03 41.163 L2488.03 23.5705 L2484.12 23.5705 L2484.12 19.4328 L2488.03 19.4328 L2488.03 10.2314 L2493.38 10.2314 Z" fill="#000000" fill-rule="nonzero" fill-opacity="1" /><path clip-path="url(#clip870)" d="M2526.08 35.5496 Q2519.62 35.5496 2517.14 37.0253 Q2514.65 38.501 2514.65 42.06 Q2514.65 44.8956 2516.5 46.5738 Q2518.38 48.2231 2521.59 48.2231 Q2526.02 48.2231 2528.68 45.0981 Q2531.37 41.9442 2531.37 36.7359 L2531.37 35.5496 L2526.08 35.5496 M2536.7 33.3505 L2536.7 51.84 L2531.37 51.84 L2531.37 46.921 Q2529.55 49.8724 2526.83 51.2902 Q2524.11 52.6791 2520.17 52.6791 Q2515.2 52.6791 2512.25 49.9014 Q2509.32 47.0947 2509.32 42.4072 Q2509.32 36.9385 2512.97 34.1607 Q2516.64 31.3829 2523.91 31.3829 L2531.37 31.3829 L2531.37 30.8621 Q2531.37 27.1874 2528.94 25.1908 Q2526.54 23.1654 2522.17 23.1654 Q2519.39 23.1654 2516.76 23.8309 Q2514.13 24.4964 2511.7 25.8274 L2511.7 20.9085 Q2514.62 19.78 2517.37 19.2302 Q2520.12 18.6515 2522.72 18.6515 Q2529.75 18.6515 2533.22 22.2973 Q2536.7 25.9431 2536.7 33.3505 Z" fill="#000000" fill-rule="nonzero" fill-opacity="1" /><path clip-path="url(#clip870)" d="M2552.93 10.2314 L2552.93 19.4328 L2563.9 19.4328 L2563.9 23.5705 L2552.93 23.5705 L2552.93 41.163 Q2552.93 45.1271 2554 46.2555 Q2555.1 47.384 2558.43 47.384 L2563.9 47.384 L2563.9 51.84 L2558.43 51.84 Q2552.26 51.84 2549.92 49.5541 Q2547.58 47.2393 2547.58 41.163 L2547.58 23.5705 L2543.67 23.5705 L2543.67 19.4328 L2547.58 19.4328 L2547.58 10.2314 L2552.93 10.2314 Z" fill="#000000" fill-rule="nonzero" fill-opacity="1" /><path clip-path="url(#clip870)" d="M2598.62 34.3054 L2598.62 36.9095 L2574.14 36.9095 Q2574.49 42.4072 2577.44 45.3007 Q2580.42 48.1653 2585.71 48.1653 Q2588.78 48.1653 2591.64 47.4129 Q2594.54 46.6606 2597.37 45.156 L2597.37 50.1907 Q2594.51 51.406 2591.5 52.0425 Q2588.49 52.6791 2585.39 52.6791 Q2577.64 52.6791 2573.1 48.1653 Q2568.58 43.6514 2568.58 35.9547 Q2568.58 27.9975 2572.87 23.339 Q2577.18 18.6515 2584.47 18.6515 Q2591.01 18.6515 2594.8 22.876 Q2598.62 27.0716 2598.62 34.3054 M2593.29 32.7429 Q2593.24 28.3737 2590.83 25.7695 Q2588.46 23.1654 2584.53 23.1654 Q2580.07 23.1654 2577.38 25.6827 Q2574.72 28.2001 2574.31 32.7718 L2593.29 32.7429 Z" fill="#000000" fill-rule="nonzero" fill-opacity="1" /><polyline clip-path="url(#clip871)" style="stroke:#000000; stroke-linecap:round; stroke-linejoin:round; stroke-width:4; stroke-opacity:1; fill:none" stroke-dasharray="16, 10" points="1869.33,2672.5 1869.33,-1193.16 "/>
<polyline clip-path="url(#clip871)" style="stroke:#000000; stroke-linecap:round; stroke-linejoin:round; stroke-width:4; stroke-opacity:1; fill:none" stroke-dasharray="16, 10" points="3115.37,2672.5 3115.37,-1193.16 "/>
<polyline clip-path="url(#clip871)" style="stroke:#009af9; stroke-linecap:round; stroke-linejoin:round; stroke-width:8; stroke-opacity:1; fill:none" points="1869.33,131.861 1931.63,542.584 1993.94,790.188 2056.24,557.781 2118.54,193.832 2180.84,230.824 2243.14,649.616 2305.45,906.146 2367.75,683.573 2430.05,330.424 2492.35,379.242 2554.66,810.95 2616.96,1081.55 2679.26,874.288 2741.56,537.757 2803.86,604.589 2866.17,1055.8 2928.47,1347.48 2990.77,1162.98 3053.07,850.999 "/>
<path clip-path="url(#clip870)" d="M2840.49 242.024 L3108.73 242.024 L3108.73 138.344 L2840.49 138.344  Z" fill="#ffffff" fill-rule="evenodd" fill-opacity="1"/>
<polyline clip-path="url(#clip870)" style="stroke:#000000; stroke-linecap:round; stroke-linejoin:round; stroke-width:4; stroke-opacity:1; fill:none" points="2840.49,242.024 3108.73,242.024 3108.73,138.344 2840.49,138.344 2840.49,242.024 "/>
<polyline clip-path="url(#clip870)" style="stroke:#009af9; stroke-linecap:round; stroke-linejoin:round; stroke-width:8; stroke-opacity:1; fill:none" points="2855.17,190.184 2943.22,190.184 "/>
<path clip-path="url(#clip870)" d="M2962.57 176.747 L2962.57 203.621 L2968.22 203.621 Q2975.37 203.621 2978.68 200.381 Q2982.02 197.14 2982.02 190.149 Q2982.02 183.205 2978.68 179.987 Q2975.37 176.747 2968.22 176.747 L2962.57 176.747 M2957.9 172.904 L2967.5 172.904 Q2977.55 172.904 2982.25 177.094 Q2986.95 181.26 2986.95 190.149 Q2986.95 199.084 2982.23 203.274 Q2977.5 207.464 2967.5 207.464 L2957.9 207.464 L2957.9 172.904 Z" fill="#000000" fill-rule="nonzero" fill-opacity="1" /><path clip-path="url(#clip870)" d="M2994.22 181.538 L2998.48 181.538 L2998.48 207.464 L2994.22 207.464 L2994.22 181.538 M2994.22 171.446 L2998.48 171.446 L2998.48 176.839 L2994.22 176.839 L2994.22 171.446 Z" fill="#000000" fill-rule="nonzero" fill-opacity="1" /><path clip-path="url(#clip870)" d="M3022.41 185.52 Q3021.69 185.103 3020.84 184.918 Q3020 184.709 3018.98 184.709 Q3015.37 184.709 3013.43 187.071 Q3011.51 189.409 3011.51 193.807 L3011.51 207.464 L3007.23 207.464 L3007.23 181.538 L3011.51 181.538 L3011.51 185.566 Q3012.85 183.205 3015 182.071 Q3017.16 180.913 3020.23 180.913 Q3020.67 180.913 3021.21 180.983 Q3021.74 181.029 3022.39 181.145 L3022.41 185.52 Z" fill="#000000" fill-rule="nonzero" fill-opacity="1" /><path clip-path="url(#clip870)" d="M3048.01 193.436 L3048.01 195.52 L3028.43 195.52 Q3028.71 199.918 3031.07 202.233 Q3033.45 204.524 3037.69 204.524 Q3040.14 204.524 3042.43 203.922 Q3044.75 203.32 3047.02 202.117 L3047.02 206.145 Q3044.73 207.117 3042.32 207.626 Q3039.91 208.135 3037.43 208.135 Q3031.23 208.135 3027.6 204.524 Q3023.98 200.913 3023.98 194.756 Q3023.98 188.39 3027.41 184.663 Q3030.86 180.913 3036.69 180.913 Q3041.92 180.913 3044.96 184.293 Q3048.01 187.649 3048.01 193.436 M3043.75 192.186 Q3043.71 188.691 3041.79 186.608 Q3039.89 184.524 3036.74 184.524 Q3033.17 184.524 3031.02 186.538 Q3028.89 188.552 3028.57 192.209 L3043.75 192.186 Z" fill="#000000" fill-rule="nonzero" fill-opacity="1" /><path clip-path="url(#clip870)" d="M3073.66 182.534 L3073.66 186.515 Q3071.85 185.52 3070.03 185.034 Q3068.22 184.524 3066.37 184.524 Q3062.22 184.524 3059.93 187.163 Q3057.64 189.779 3057.64 194.524 Q3057.64 199.27 3059.93 201.908 Q3062.22 204.524 3066.37 204.524 Q3068.22 204.524 3070.03 204.038 Q3071.85 203.529 3073.66 202.533 L3073.66 206.469 Q3071.88 207.302 3069.96 207.719 Q3068.06 208.135 3065.91 208.135 Q3060.05 208.135 3056.6 204.455 Q3053.15 200.774 3053.15 194.524 Q3053.15 188.182 3056.62 184.547 Q3060.12 180.913 3066.18 180.913 Q3068.15 180.913 3070.03 181.33 Q3071.9 181.723 3073.66 182.534 Z" fill="#000000" fill-rule="nonzero" fill-opacity="1" /><path clip-path="url(#clip870)" d="M3085.28 174.177 L3085.28 181.538 L3094.05 181.538 L3094.05 184.848 L3085.28 184.848 L3085.28 198.922 Q3085.28 202.094 3086.14 202.996 Q3087.02 203.899 3089.68 203.899 L3094.05 203.899 L3094.05 207.464 L3089.68 207.464 Q3084.75 207.464 3082.87 205.635 Q3081 203.783 3081 198.922 L3081 184.848 L3077.87 184.848 L3077.87 181.538 L3081 181.538 L3081 174.177 L3085.28 174.177 Z" fill="#000000" fill-rule="nonzero" fill-opacity="1" /></svg>
