<?xml version="1.0" encoding="utf-8"?>
<svg xmlns="http://www.w3.org/2000/svg" xmlns:xlink="http://www.w3.org/1999/xlink" width="800" height="400" viewBox="0 0 3200 1600">
<defs>
  <clipPath id="clip140">
    <rect x="0" y="0" width="3200" height="1600"/>
  </clipPath>
</defs>
<path clip-path="url(#clip140)" d="M0 1600 L3200 1600 L3200 0 L0 0  Z" fill="#ffffff" fill-rule="evenodd" fill-opacity="1"/>
<defs>
  <clipPath id="clip141">
    <rect x="310" y="895" width="2843" height="553"/>
  </clipPath>
</defs>
<path clip-path="url(#clip140)" d="M258.502 646.94 L1576.09 646.94 L1576.09 95.3921 L258.502 95.3921  Z" fill="#ffffff" fill-rule="evenodd" fill-opacity="1"/>
<defs>
  <clipPath id="clip142">
    <rect x="258" y="95" width="1319" height="553"/>
  </clipPath>
</defs>
<polyline clip-path="url(#clip142)" style="stroke:#000000; stroke-linecap:round; stroke-linejoin:round; stroke-width:2; stroke-opacity:0.1; fill:none" points="295.792,646.94 295.792,95.3921 "/>
<polyline clip-path="url(#clip142)" style="stroke:#000000; stroke-linecap:round; stroke-linejoin:round; stroke-width:2; stroke-opacity:0.1; fill:none" points="606.544,646.94 606.544,95.3921 "/>
<polyline clip-path="url(#clip142)" style="stroke:#000000; stroke-linecap:round; stroke-linejoin:round; stroke-width:2; stroke-opacity:0.1; fill:none" points="917.295,646.94 917.295,95.3921 "/>
<polyline clip-path="url(#clip142)" style="stroke:#000000; stroke-linecap:round; stroke-linejoin:round; stroke-width:2; stroke-opacity:0.1; fill:none" points="1228.05,646.94 1228.05,95.3921 "/>
<polyline clip-path="url(#clip142)" style="stroke:#000000; stroke-linecap:round; stroke-linejoin:round; stroke-width:2; stroke-opacity:0.1; fill:none" points="1538.8,646.94 1538.8,95.3921 "/>
<polyline clip-path="url(#clip142)" style="stroke:#000000; stroke-linecap:round; stroke-linejoin:round; stroke-width:2; stroke-opacity:0.1; fill:none" points="258.502,634.86 1576.09,634.86 "/>
<polyline clip-path="url(#clip142)" style="stroke:#000000; stroke-linecap:round; stroke-linejoin:round; stroke-width:2; stroke-opacity:0.1; fill:none" points="258.502,458.364 1576.09,458.364 "/>
<polyline clip-path="url(#clip142)" style="stroke:#000000; stroke-linecap:round; stroke-linejoin:round; stroke-width:2; stroke-opacity:0.1; fill:none" points="258.502,281.868 1576.09,281.868 "/>
<polyline clip-path="url(#clip142)" style="stroke:#000000; stroke-linecap:round; stroke-linejoin:round; stroke-width:2; stroke-opacity:0.1; fill:none" points="258.502,105.372 1576.09,105.372 "/>
<polyline clip-path="url(#clip140)" style="stroke:#000000; stroke-linecap:round; stroke-linejoin:round; stroke-width:4; stroke-opacity:1; fill:none" points="258.502,646.94 1576.09,646.94 "/>
<polyline clip-path="url(#clip140)" style="stroke:#000000; stroke-linecap:round; stroke-linejoin:round; stroke-width:4; stroke-opacity:1; fill:none" points="295.792,646.94 295.792,628.042 "/>
<polyline clip-path="url(#clip140)" style="stroke:#000000; stroke-linecap:round; stroke-linejoin:round; stroke-width:4; stroke-opacity:1; fill:none" points="606.544,646.94 606.544,628.042 "/>
<polyline clip-path="url(#clip140)" style="stroke:#000000; stroke-linecap:round; stroke-linejoin:round; stroke-width:4; stroke-opacity:1; fill:none" points="917.295,646.94 917.295,628.042 "/>
<polyline clip-path="url(#clip140)" style="stroke:#000000; stroke-linecap:round; stroke-linejoin:round; stroke-width:4; stroke-opacity:1; fill:none" points="1228.05,646.94 1228.05,628.042 "/>
<polyline clip-path="url(#clip140)" style="stroke:#000000; stroke-linecap:round; stroke-linejoin:round; stroke-width:4; stroke-opacity:1; fill:none" points="1538.8,646.94 1538.8,628.042 "/>
<path clip-path="url(#clip140)" d="M273.176 684.259 Q269.565 684.259 267.736 687.823 Q265.931 691.365 265.931 698.495 Q265.931 705.601 267.736 709.166 Q269.565 712.707 273.176 712.707 Q276.81 712.707 278.616 709.166 Q280.445 705.601 280.445 698.495 Q280.445 691.365 278.616 687.823 Q276.81 684.259 273.176 684.259 M273.176 680.555 Q278.986 680.555 282.042 685.161 Q285.12 689.745 285.12 698.495 Q285.12 707.221 282.042 711.828 Q278.986 716.411 273.176 716.411 Q267.366 716.411 264.287 711.828 Q261.232 707.221 261.232 698.495 Q261.232 689.745 264.287 685.161 Q267.366 680.555 273.176 680.555 Z" fill="#000000" fill-rule="nonzero" fill-opacity="1" /><path clip-path="url(#clip140)" d="M293.338 709.86 L298.222 709.86 L298.222 715.74 L293.338 715.74 L293.338 709.86 Z" fill="#000000" fill-rule="nonzero" fill-opacity="1" /><path clip-path="url(#clip140)" d="M318.407 684.259 Q314.796 684.259 312.968 687.823 Q311.162 691.365 311.162 698.495 Q311.162 705.601 312.968 709.166 Q314.796 712.707 318.407 712.707 Q322.042 712.707 323.847 709.166 Q325.676 705.601 325.676 698.495 Q325.676 691.365 323.847 687.823 Q322.042 684.259 318.407 684.259 M318.407 680.555 Q324.218 680.555 327.273 685.161 Q330.352 689.745 330.352 698.495 Q330.352 707.221 327.273 711.828 Q324.218 716.411 318.407 716.411 Q312.597 716.411 309.519 711.828 Q306.463 707.221 306.463 698.495 Q306.463 689.745 309.519 685.161 Q312.597 680.555 318.407 680.555 Z" fill="#000000" fill-rule="nonzero" fill-opacity="1" /><path clip-path="url(#clip140)" d="M578.28 711.805 L594.599 711.805 L594.599 715.74 L572.655 715.74 L572.655 711.805 Q575.317 709.05 579.9 704.42 Q584.507 699.768 585.687 698.425 Q587.933 695.902 588.812 694.166 Q589.715 692.407 589.715 690.717 Q589.715 687.962 587.77 686.226 Q585.849 684.49 582.747 684.49 Q580.548 684.49 578.095 685.254 Q575.664 686.018 572.886 687.569 L572.886 682.847 Q575.71 681.712 578.164 681.134 Q580.618 680.555 582.655 680.555 Q588.025 680.555 591.22 683.24 Q594.414 685.925 594.414 690.416 Q594.414 692.546 593.604 694.467 Q592.817 696.365 590.71 698.958 Q590.132 699.629 587.03 702.846 Q583.928 706.041 578.28 711.805 Z" fill="#000000" fill-rule="nonzero" fill-opacity="1" /><path clip-path="url(#clip140)" d="M604.414 709.86 L609.298 709.86 L609.298 715.74 L604.414 715.74 L604.414 709.86 Z" fill="#000000" fill-rule="nonzero" fill-opacity="1" /><path clip-path="url(#clip140)" d="M619.53 681.18 L637.886 681.18 L637.886 685.115 L623.812 685.115 L623.812 693.587 Q624.83 693.24 625.849 693.078 Q626.868 692.893 627.886 692.893 Q633.673 692.893 637.053 696.064 Q640.432 699.235 640.432 704.652 Q640.432 710.231 636.96 713.332 Q633.488 716.411 627.168 716.411 Q624.993 716.411 622.724 716.041 Q620.479 715.67 618.071 714.93 L618.071 710.231 Q620.155 711.365 622.377 711.92 Q624.599 712.476 627.076 712.476 Q631.08 712.476 633.418 710.37 Q635.756 708.263 635.756 704.652 Q635.756 701.041 633.418 698.934 Q631.08 696.828 627.076 696.828 Q625.201 696.828 623.326 697.245 Q621.474 697.661 619.53 698.541 L619.53 681.18 Z" fill="#000000" fill-rule="nonzero" fill-opacity="1" /><path clip-path="url(#clip140)" d="M884.46 681.18 L902.816 681.18 L902.816 685.115 L888.742 685.115 L888.742 693.587 Q889.761 693.24 890.779 693.078 Q891.798 692.893 892.816 692.893 Q898.603 692.893 901.983 696.064 Q905.363 699.235 905.363 704.652 Q905.363 710.231 901.89 713.332 Q898.418 716.411 892.099 716.411 Q889.923 716.411 887.654 716.041 Q885.409 715.67 883.002 714.93 L883.002 710.231 Q885.085 711.365 887.307 711.92 Q889.529 712.476 892.006 712.476 Q896.011 712.476 898.349 710.37 Q900.687 708.263 900.687 704.652 Q900.687 701.041 898.349 698.934 Q896.011 696.828 892.006 696.828 Q890.131 696.828 888.256 697.245 Q886.404 697.661 884.46 698.541 L884.46 681.18 Z" fill="#000000" fill-rule="nonzero" fill-opacity="1" /><path clip-path="url(#clip140)" d="M914.575 709.86 L919.46 709.86 L919.46 715.74 L914.575 715.74 L914.575 709.86 Z" fill="#000000" fill-rule="nonzero" fill-opacity="1" /><path clip-path="url(#clip140)" d="M939.645 684.259 Q936.034 684.259 934.205 687.823 Q932.399 691.365 932.399 698.495 Q932.399 705.601 934.205 709.166 Q936.034 712.707 939.645 712.707 Q943.279 712.707 945.085 709.166 Q946.913 705.601 946.913 698.495 Q946.913 691.365 945.085 687.823 Q943.279 684.259 939.645 684.259 M939.645 680.555 Q945.455 680.555 948.51 685.161 Q951.589 689.745 951.589 698.495 Q951.589 707.221 948.51 711.828 Q945.455 716.411 939.645 716.411 Q933.835 716.411 930.756 711.828 Q927.7 707.221 927.7 698.495 Q927.7 689.745 930.756 685.161 Q933.835 680.555 939.645 680.555 Z" fill="#000000" fill-rule="nonzero" fill-opacity="1" /><path clip-path="url(#clip140)" d="M1194.37 681.18 L1216.59 681.18 L1216.59 683.171 L1204.04 715.74 L1199.16 715.74 L1210.96 685.115 L1194.37 685.115 L1194.37 681.18 Z" fill="#000000" fill-rule="nonzero" fill-opacity="1" /><path clip-path="url(#clip140)" d="M1225.71 709.86 L1230.59 709.86 L1230.59 715.74 L1225.71 715.74 L1225.71 709.86 Z" fill="#000000" fill-rule="nonzero" fill-opacity="1" /><path clip-path="url(#clip140)" d="M1240.82 681.18 L1259.18 681.18 L1259.18 685.115 L1245.11 685.115 L1245.11 693.587 Q1246.13 693.24 1247.14 693.078 Q1248.16 692.893 1249.18 692.893 Q1254.97 692.893 1258.35 696.064 Q1261.73 699.235 1261.73 704.652 Q1261.73 710.231 1258.26 713.332 Q1254.78 716.411 1248.46 716.411 Q1246.29 716.411 1244.02 716.041 Q1241.77 715.67 1239.37 714.93 L1239.37 710.231 Q1241.45 711.365 1243.67 711.92 Q1245.89 712.476 1248.37 712.476 Q1252.38 712.476 1254.71 710.37 Q1257.05 708.263 1257.05 704.652 Q1257.05 701.041 1254.71 698.934 Q1252.38 696.828 1248.37 696.828 Q1246.5 696.828 1244.62 697.245 Q1242.77 697.661 1240.82 698.541 L1240.82 681.18 Z" fill="#000000" fill-rule="nonzero" fill-opacity="1" /><path clip-path="url(#clip140)" d="M1490.87 711.805 L1498.51 711.805 L1498.51 685.439 L1490.2 687.106 L1490.2 682.847 L1498.46 681.18 L1503.14 681.18 L1503.14 711.805 L1510.78 711.805 L1510.78 715.74 L1490.87 715.74 L1490.87 711.805 Z" fill="#000000" fill-rule="nonzero" fill-opacity="1" /><path clip-path="url(#clip140)" d="M1530.22 684.259 Q1526.61 684.259 1524.78 687.823 Q1522.98 691.365 1522.98 698.495 Q1522.98 705.601 1524.78 709.166 Q1526.61 712.707 1530.22 712.707 Q1533.86 712.707 1535.66 709.166 Q1537.49 705.601 1537.49 698.495 Q1537.49 691.365 1535.66 687.823 Q1533.86 684.259 1530.22 684.259 M1530.22 680.555 Q1536.03 680.555 1539.09 685.161 Q1542.17 689.745 1542.17 698.495 Q1542.17 707.221 1539.09 711.828 Q1536.03 716.411 1530.22 716.411 Q1524.41 716.411 1521.33 711.828 Q1518.28 707.221 1518.28 698.495 Q1518.28 689.745 1521.33 685.161 Q1524.41 680.555 1530.22 680.555 Z" fill="#000000" fill-rule="nonzero" fill-opacity="1" /><path clip-path="url(#clip140)" d="M1550.38 709.86 L1555.27 709.86 L1555.27 715.74 L1550.38 715.74 L1550.38 709.86 Z" fill="#000000" fill-rule="nonzero" fill-opacity="1" /><path clip-path="url(#clip140)" d="M1575.45 684.259 Q1571.84 684.259 1570.01 687.823 Q1568.21 691.365 1568.21 698.495 Q1568.21 705.601 1570.01 709.166 Q1571.84 712.707 1575.45 712.707 Q1579.09 712.707 1580.89 709.166 Q1582.72 705.601 1582.72 698.495 Q1582.72 691.365 1580.89 687.823 Q1579.09 684.259 1575.45 684.259 M1575.45 680.555 Q1581.26 680.555 1584.32 685.161 Q1587.4 689.745 1587.4 698.495 Q1587.4 707.221 1584.32 711.828 Q1581.26 716.411 1575.45 716.411 Q1569.64 716.411 1566.57 711.828 Q1563.51 707.221 1563.51 698.495 Q1563.51 689.745 1566.57 685.161 Q1569.64 680.555 1575.45 680.555 Z" fill="#000000" fill-rule="nonzero" fill-opacity="1" /><path clip-path="url(#clip140)" d="M916.442 757.011 L916.442 766.213 L927.408 766.213 L927.408 770.35 L916.442 770.35 L916.442 787.943 Q916.442 791.907 917.512 793.035 Q918.612 794.164 921.939 794.164 L927.408 794.164 L927.408 798.62 L921.939 798.62 Q915.776 798.62 913.433 796.334 Q911.089 794.019 911.089 787.943 L911.089 770.35 L907.183 770.35 L907.183 766.213 L911.089 766.213 L911.089 757.011 L916.442 757.011 Z" fill="#000000" fill-rule="nonzero" fill-opacity="1" /><polyline clip-path="url(#clip140)" style="stroke:#000000; stroke-linecap:round; stroke-linejoin:round; stroke-width:4; stroke-opacity:1; fill:none" points="258.502,646.94 258.502,95.3921 "/>
<polyline clip-path="url(#clip140)" style="stroke:#000000; stroke-linecap:round; stroke-linejoin:round; stroke-width:4; stroke-opacity:1; fill:none" points="258.502,634.86 277.399,634.86 "/>
<polyline clip-path="url(#clip140)" style="stroke:#000000; stroke-linecap:round; stroke-linejoin:round; stroke-width:4; stroke-opacity:1; fill:none" points="258.502,458.364 277.399,458.364 "/>
<polyline clip-path="url(#clip140)" style="stroke:#000000; stroke-linecap:round; stroke-linejoin:round; stroke-width:4; stroke-opacity:1; fill:none" points="258.502,281.868 277.399,281.868 "/>
<polyline clip-path="url(#clip140)" style="stroke:#000000; stroke-linecap:round; stroke-linejoin:round; stroke-width:4; stroke-opacity:1; fill:none" points="258.502,105.372 277.399,105.372 "/>
<path clip-path="url(#clip140)" d="M198.557 620.659 Q194.946 620.659 193.117 624.223 Q191.312 627.765 191.312 634.895 Q191.312 642.001 193.117 645.566 Q194.946 649.108 198.557 649.108 Q202.191 649.108 203.997 645.566 Q205.826 642.001 205.826 634.895 Q205.826 627.765 203.997 624.223 Q202.191 620.659 198.557 620.659 M198.557 616.955 Q204.367 616.955 207.423 621.561 Q210.502 626.145 210.502 634.895 Q210.502 643.621 207.423 648.228 Q204.367 652.811 198.557 652.811 Q192.747 652.811 189.668 648.228 Q186.613 643.621 186.613 634.895 Q186.613 626.145 189.668 621.561 Q192.747 616.955 198.557 616.955 Z" fill="#000000" fill-rule="nonzero" fill-opacity="1" /><path clip-path="url(#clip140)" d="M129.044 471.709 L136.682 471.709 L136.682 445.343 L128.372 447.01 L128.372 442.751 L136.636 441.084 L141.312 441.084 L141.312 471.709 L148.951 471.709 L148.951 475.644 L129.044 475.644 L129.044 471.709 Z" fill="#000000" fill-rule="nonzero" fill-opacity="1" /><path clip-path="url(#clip140)" d="M168.395 444.163 Q164.784 444.163 162.955 447.727 Q161.15 451.269 161.15 458.399 Q161.15 465.505 162.955 469.07 Q164.784 472.611 168.395 472.611 Q172.029 472.611 173.835 469.07 Q175.664 465.505 175.664 458.399 Q175.664 451.269 173.835 447.727 Q172.029 444.163 168.395 444.163 M168.395 440.459 Q174.205 440.459 177.261 445.065 Q180.34 449.649 180.34 458.399 Q180.34 467.125 177.261 471.732 Q174.205 476.315 168.395 476.315 Q162.585 476.315 159.506 471.732 Q156.451 467.125 156.451 458.399 Q156.451 449.649 159.506 445.065 Q162.585 440.459 168.395 440.459 Z" fill="#000000" fill-rule="nonzero" fill-opacity="1" /><path clip-path="url(#clip140)" d="M198.557 444.163 Q194.946 444.163 193.117 447.727 Q191.312 451.269 191.312 458.399 Q191.312 465.505 193.117 469.07 Q194.946 472.611 198.557 472.611 Q202.191 472.611 203.997 469.07 Q205.826 465.505 205.826 458.399 Q205.826 451.269 203.997 447.727 Q202.191 444.163 198.557 444.163 M198.557 440.459 Q204.367 440.459 207.423 445.065 Q210.502 449.649 210.502 458.399 Q210.502 467.125 207.423 471.732 Q204.367 476.315 198.557 476.315 Q192.747 476.315 189.668 471.732 Q186.613 467.125 186.613 458.399 Q186.613 449.649 189.668 445.065 Q192.747 440.459 198.557 440.459 Z" fill="#000000" fill-rule="nonzero" fill-opacity="1" /><path clip-path="url(#clip140)" d="M132.261 295.213 L148.581 295.213 L148.581 299.148 L126.636 299.148 L126.636 295.213 Q129.298 292.458 133.882 287.828 Q138.488 283.176 139.669 281.833 Q141.914 279.31 142.794 277.574 Q143.696 275.815 143.696 274.125 Q143.696 271.37 141.752 269.634 Q139.831 267.898 136.729 267.898 Q134.53 267.898 132.076 268.662 Q129.645 269.426 126.868 270.977 L126.868 266.254 Q129.692 265.12 132.145 264.542 Q134.599 263.963 136.636 263.963 Q142.007 263.963 145.201 266.648 Q148.395 269.333 148.395 273.824 Q148.395 275.954 147.585 277.875 Q146.798 279.773 144.692 282.366 Q144.113 283.037 141.011 286.254 Q137.909 289.449 132.261 295.213 Z" fill="#000000" fill-rule="nonzero" fill-opacity="1" /><path clip-path="url(#clip140)" d="M168.395 267.667 Q164.784 267.667 162.955 271.231 Q161.15 274.773 161.15 281.903 Q161.15 289.009 162.955 292.574 Q164.784 296.115 168.395 296.115 Q172.029 296.115 173.835 292.574 Q175.664 289.009 175.664 281.903 Q175.664 274.773 173.835 271.231 Q172.029 267.667 168.395 267.667 M168.395 263.963 Q174.205 263.963 177.261 268.569 Q180.34 273.153 180.34 281.903 Q180.34 290.629 177.261 295.236 Q174.205 299.819 168.395 299.819 Q162.585 299.819 159.506 295.236 Q156.451 290.629 156.451 281.903 Q156.451 273.153 159.506 268.569 Q162.585 263.963 168.395 263.963 Z" fill="#000000" fill-rule="nonzero" fill-opacity="1" /><path clip-path="url(#clip140)" d="M198.557 267.667 Q194.946 267.667 193.117 271.231 Q191.312 274.773 191.312 281.903 Q191.312 289.009 193.117 292.574 Q194.946 296.115 198.557 296.115 Q202.191 296.115 203.997 292.574 Q205.826 289.009 205.826 281.903 Q205.826 274.773 203.997 271.231 Q202.191 267.667 198.557 267.667 M198.557 263.963 Q204.367 263.963 207.423 268.569 Q210.502 273.153 210.502 281.903 Q210.502 290.629 207.423 295.236 Q204.367 299.819 198.557 299.819 Q192.747 299.819 189.668 295.236 Q186.613 290.629 186.613 281.903 Q186.613 273.153 189.668 268.569 Q192.747 263.963 198.557 263.963 Z" fill="#000000" fill-rule="nonzero" fill-opacity="1" /><path clip-path="url(#clip140)" d="M142.4 104.018 Q145.756 104.735 147.631 107.004 Q149.53 109.272 149.53 112.606 Q149.53 117.721 146.011 120.522 Q142.493 123.323 136.011 123.323 Q133.835 123.323 131.52 122.883 Q129.229 122.467 126.775 121.61 L126.775 117.096 Q128.72 118.231 131.034 118.809 Q133.349 119.388 135.872 119.388 Q140.27 119.388 142.562 117.652 Q144.877 115.916 144.877 112.606 Q144.877 109.55 142.724 107.837 Q140.594 106.101 136.775 106.101 L132.747 106.101 L132.747 102.258 L136.96 102.258 Q140.409 102.258 142.238 100.893 Q144.067 99.5038 144.067 96.9112 Q144.067 94.2492 142.169 92.8371 Q140.294 91.402 136.775 91.402 Q134.854 91.402 132.655 91.8186 Q130.456 92.2353 127.817 93.1149 L127.817 88.9483 Q130.479 88.2075 132.794 87.8372 Q135.132 87.4668 137.192 87.4668 Q142.516 87.4668 145.618 89.8973 Q148.719 92.3047 148.719 96.4251 Q148.719 99.2954 147.076 101.286 Q145.432 103.254 142.4 104.018 Z" fill="#000000" fill-rule="nonzero" fill-opacity="1" /><path clip-path="url(#clip140)" d="M168.395 91.1705 Q164.784 91.1705 162.955 94.7353 Q161.15 98.2769 161.15 105.407 Q161.15 112.513 162.955 116.078 Q164.784 119.619 168.395 119.619 Q172.029 119.619 173.835 116.078 Q175.664 112.513 175.664 105.407 Q175.664 98.2769 173.835 94.7353 Q172.029 91.1705 168.395 91.1705 M168.395 87.4668 Q174.205 87.4668 177.261 92.0733 Q180.34 96.6566 180.34 105.407 Q180.34 114.133 177.261 118.74 Q174.205 123.323 168.395 123.323 Q162.585 123.323 159.506 118.74 Q156.451 114.133 156.451 105.407 Q156.451 96.6566 159.506 92.0733 Q162.585 87.4668 168.395 87.4668 Z" fill="#000000" fill-rule="nonzero" fill-opacity="1" /><path clip-path="url(#clip140)" d="M198.557 91.1705 Q194.946 91.1705 193.117 94.7353 Q191.312 98.2769 191.312 105.407 Q191.312 112.513 193.117 116.078 Q194.946 119.619 198.557 119.619 Q202.191 119.619 203.997 116.078 Q205.826 112.513 205.826 105.407 Q205.826 98.2769 203.997 94.7353 Q202.191 91.1705 198.557 91.1705 M198.557 87.4668 Q204.367 87.4668 207.423 92.0733 Q210.502 96.6566 210.502 105.407 Q210.502 114.133 207.423 118.74 Q204.367 123.323 198.557 123.323 Q192.747 123.323 189.668 118.74 Q186.613 114.133 186.613 105.407 Q186.613 96.6566 189.668 92.0733 Q192.747 87.4668 198.557 87.4668 Z" fill="#000000" fill-rule="nonzero" fill-opacity="1" /><path clip-path="url(#clip140)" d="M33.269 356.062 L49.0386 367.781 L65.6762 355.454 L65.6762 361.733 L52.9448 371.166 L65.6762 380.599 L65.6762 386.878 L48.7203 374.291 L33.269 385.807 L33.269 379.528 L44.8141 370.935 L33.269 362.341 L33.269 356.062 Z" fill="#000000" fill-rule="nonzero" fill-opacity="1" /><path clip-path="url(#clip140)" d="M868.453 20.3876 L868.453 25.4223 Q866.196 24.2649 863.766 23.6862 Q861.335 23.1075 858.731 23.1075 Q854.767 23.1075 852.77 24.3228 Q850.803 25.5381 850.803 27.9686 Q850.803 29.8204 852.22 30.891 Q853.638 31.9327 857.921 32.8876 L859.744 33.2926 Q865.415 34.5079 867.788 36.7359 Q870.189 38.935 870.189 42.8991 Q870.189 47.4129 866.601 50.046 Q863.042 52.6791 856.792 52.6791 Q854.188 52.6791 851.352 52.1583 Q848.546 51.6664 845.421 50.6537 L845.421 45.156 Q848.372 46.6896 851.237 47.4708 Q854.101 48.2231 856.908 48.2231 Q860.669 48.2231 862.695 46.95 Q864.72 45.6479 864.72 43.3042 Q864.72 41.134 863.245 39.9766 Q861.798 38.8192 856.85 37.7486 L854.998 37.3146 Q850.05 36.273 847.851 34.1318 Q845.652 31.9616 845.652 28.2001 Q845.652 23.6283 848.893 21.1399 Q852.134 18.6515 858.094 18.6515 Q861.046 18.6515 863.65 19.0855 Q866.254 19.5196 868.453 20.3876 Z" fill="#000000" fill-rule="nonzero" fill-opacity="1" /><path clip-path="url(#clip140)" d="M883.933 10.2314 L883.933 19.4328 L894.9 19.4328 L894.9 23.5705 L883.933 23.5705 L883.933 41.163 Q883.933 45.1271 885.004 46.2555 Q886.103 47.384 889.431 47.384 L894.9 47.384 L894.9 51.84 L889.431 51.84 Q883.268 51.84 880.924 49.5541 Q878.58 47.2393 878.58 41.163 L878.58 23.5705 L874.674 23.5705 L874.674 19.4328 L878.58 19.4328 L878.58 10.2314 L883.933 10.2314 Z" fill="#000000" fill-rule="nonzero" fill-opacity="1" /><path clip-path="url(#clip140)" d="M916.63 35.5496 Q910.177 35.5496 907.689 37.0253 Q905.201 38.501 905.201 42.06 Q905.201 44.8956 907.052 46.5738 Q908.933 48.2231 912.145 48.2231 Q916.572 48.2231 919.234 45.0981 Q921.925 41.9442 921.925 36.7359 L921.925 35.5496 L916.63 35.5496 M927.249 33.3505 L927.249 51.84 L921.925 51.84 L921.925 46.921 Q920.102 49.8724 917.382 51.2902 Q914.662 52.6791 910.727 52.6791 Q905.75 52.6791 902.799 49.9014 Q899.876 47.0947 899.876 42.4072 Q899.876 36.9385 903.522 34.1607 Q907.197 31.3829 914.46 31.3829 L921.925 31.3829 L921.925 30.8621 Q921.925 27.1874 919.494 25.1908 Q917.093 23.1654 912.724 23.1654 Q909.946 23.1654 907.313 23.8309 Q904.68 24.4964 902.249 25.8274 L902.249 20.9085 Q905.172 19.78 907.92 19.2302 Q910.669 18.6515 913.273 18.6515 Q920.305 18.6515 923.777 22.2973 Q927.249 25.9431 927.249 33.3505 Z" fill="#000000" fill-rule="nonzero" fill-opacity="1" /><path clip-path="url(#clip140)" d="M943.482 10.2314 L943.482 19.4328 L954.448 19.4328 L954.448 23.5705 L943.482 23.5705 L943.482 41.163 Q943.482 45.1271 944.552 46.2555 Q945.652 47.384 948.979 47.384 L954.448 47.384 L954.448 51.84 L948.979 51.84 Q942.816 51.84 940.472 49.5541 Q938.129 47.2393 938.129 41.163 L938.129 23.5705 L934.222 23.5705 L934.222 19.4328 L938.129 19.4328 L938.129 10.2314 L943.482 10.2314 Z" fill="#000000" fill-rule="nonzero" fill-opacity="1" /><path clip-path="url(#clip140)" d="M989.17 34.3054 L989.17 36.9095 L964.691 36.9095 Q965.038 42.4072 967.99 45.3007 Q970.97 48.1653 976.265 48.1653 Q979.332 48.1653 982.197 47.4129 Q985.09 46.6606 987.926 45.156 L987.926 50.1907 Q985.061 51.406 982.052 52.0425 Q979.043 52.6791 975.947 52.6791 Q968.192 52.6791 963.649 48.1653 Q959.135 43.6514 959.135 35.9547 Q959.135 27.9975 963.418 23.339 Q967.729 18.6515 975.021 18.6515 Q981.56 18.6515 985.351 22.876 Q989.17 27.0716 989.17 34.3054 M983.846 32.7429 Q983.788 28.3737 981.386 25.7695 Q979.014 23.1654 975.079 23.1654 Q970.623 23.1654 967.932 25.6827 Q965.27 28.2001 964.865 32.7718 L983.846 32.7429 Z" fill="#000000" fill-rule="nonzero" fill-opacity="1" /><polyline clip-path="url(#clip142)" style="stroke:#000000; stroke-linecap:round; stroke-linejoin:round; stroke-width:4; stroke-opacity:1; fill:none" stroke-dasharray="16, 10" points="295.792,1198.49 295.792,-456.156 "/>
<polyline clip-path="url(#clip142)" style="stroke:#000000; stroke-linecap:round; stroke-linejoin:round; stroke-width:4; stroke-opacity:1; fill:none" stroke-dasharray="16, 10" points="1538.8,1198.49 1538.8,-456.156 "/>
<polyline clip-path="url(#clip142)" style="stroke:#009af9; stroke-linecap:round; stroke-linejoin:round; stroke-width:8; stroke-opacity:1; fill:none" points="295.792,631.33 300.764,631.259 305.736,631.186 310.708,631.112 315.68,631.036 320.652,630.959 325.624,630.88 330.596,630.8 335.568,630.718 340.54,630.634 345.512,630.548 350.484,630.461 355.456,630.373 360.428,630.282 365.4,630.189 370.372,630.095 375.344,629.999 380.316,629.901 385.288,629.8 390.26,629.698 395.232,629.594 400.204,629.488 405.176,629.379 410.148,629.268 415.12,629.155 420.092,629.04 425.064,628.923 430.037,628.803 435.009,628.68 439.981,628.555 444.953,628.428 449.925,628.298 454.897,628.166 459.869,628.03 464.841,627.892 469.813,627.752 474.785,627.608 479.757,627.461 484.729,627.312 489.701,627.16 494.673,627.004 499.645,626.845 504.617,626.683 509.589,626.518 514.561,626.35 519.533,626.178 524.505,626.002 529.477,625.823 534.449,625.641 539.421,625.455 544.393,625.265 549.365,625.071 554.337,624.873 559.309,624.671 564.281,624.466 569.253,624.256 574.225,624.041 579.197,623.823 584.169,623.6 589.141,623.372 594.113,623.14 599.085,622.904 604.058,622.662 609.03,622.416 614.002,622.164 618.974,621.908 623.946,621.646 628.918,621.379 633.89,621.107 638.862,620.829 643.834,620.546 648.806,620.256 653.778,619.961 658.75,619.66 663.722,619.353 668.694,619.04 673.666,618.721 678.638,618.395 683.61,618.062 688.582,617.723 693.554,617.376 698.526,617.023 703.498,616.663 708.47,616.295 713.442,615.92 718.414,615.538 723.386,615.147 728.358,614.749 733.33,614.343 738.302,613.928 743.274,613.506 748.246,613.074 753.218,612.634 758.19,612.185 763.162,611.727 768.134,611.26 773.107,610.783 778.079,610.297 783.051,609.8 788.023,609.294 792.995,608.778 797.967,608.251 802.939,607.713 807.911,607.165 812.883,606.605 817.855,606.035 822.827,605.452 827.799,604.858 832.771,604.252 837.743,603.634 842.715,603.003 847.687,602.36 852.659,601.703 857.631,601.033 862.603,600.35 867.575,599.653 872.547,598.942 877.519,598.216 882.491,597.476 887.463,596.72 892.435,595.95 897.407,595.164 902.379,594.362 907.351,593.544 912.323,592.709 917.295,591.858 922.267,590.989 927.239,590.103 932.211,589.199 937.183,588.276 942.155,587.335 947.128,586.375 952.1,585.396 957.072,584.397 962.044,583.377 967.016,582.337 971.988,581.276 976.96,580.194 981.932,579.089 986.904,577.963 991.876,576.813 996.848,575.641 1001.82,574.445 1006.79,573.224 1011.76,571.979 1016.74,570.709 1021.71,569.413 1026.68,568.091 1031.65,566.742 1036.62,565.366 1041.6,563.962 1046.57,562.53 1051.54,561.069 1056.51,559.578 1061.48,558.057 1066.46,556.506 1071.43,554.923 1076.4,553.308 1081.37,551.66 1086.34,549.98 1091.32,548.265 1096.29,546.516 1101.26,544.731 1106.23,542.91 1111.2,541.053 1116.18,539.158 1121.15,537.225 1126.12,535.252 1131.09,533.24 1136.06,531.187 1141.04,529.093 1146.01,526.956 1150.98,524.777 1155.95,522.553 1160.92,520.284 1165.9,517.969 1170.87,515.608 1175.84,513.199 1180.81,510.741 1185.78,508.234 1190.76,505.676 1195.73,503.066 1200.7,500.404 1205.67,497.688 1210.65,494.917 1215.62,492.09 1220.59,489.206 1225.56,486.263 1230.53,483.262 1235.51,480.199 1240.48,477.075 1245.45,473.887 1250.42,470.636 1255.39,467.318 1260.37,463.934 1265.34,460.481 1270.31,456.958 1275.28,453.364 1280.25,449.698 1285.23,445.957 1290.2,442.141 1295.17,438.248 1300.14,434.276 1305.11,430.224 1310.09,426.09 1315.06,421.873 1320.03,417.57 1325,413.181 1329.97,408.703 1334.95,404.134 1339.92,399.473 1344.89,394.718 1349.86,389.867 1354.83,384.918 1359.81,379.869 1364.78,374.718 1369.75,369.463 1374.72,364.101 1379.69,358.632 1384.67,353.052 1389.64,347.359 1394.61,341.551 1399.58,335.626 1404.55,329.581 1409.53,323.414 1414.5,317.122 1419.47,310.704 1424.44,304.155 1429.41,297.475 1434.39,290.659 1439.36,283.706 1444.33,276.612 1449.3,269.375 1454.27,261.992 1459.25,254.46 1464.22,246.775 1469.19,238.935 1474.16,230.937 1479.13,222.778 1484.11,214.453 1489.08,205.96 1494.05,197.296 1499.02,188.457 1503.99,179.439 1508.97,170.239 1513.94,160.853 1518.91,151.278 1523.88,141.509 1528.85,131.543 1533.83,121.375 1538.8,111.002 "/>
<path clip-path="url(#clip140)" d="M1887.41 646.94 L3152.76 646.94 L3152.76 95.3921 L1887.41 95.3921  Z" fill="#ffffff" fill-rule="evenodd" fill-opacity="1"/>
<defs>
  <clipPath id="clip143">
    <rect x="1887" y="95" width="1266" height="553"/>
  </clipPath>
</defs>
<polyline clip-path="url(#clip143)" style="stroke:#000000; stroke-linecap:round; stroke-linejoin:round; stroke-width:2; stroke-opacity:0.1; fill:none" points="1923.22,646.94 1923.22,95.3921 "/>
<polyline clip-path="url(#clip143)" style="stroke:#000000; stroke-linecap:round; stroke-linejoin:round; stroke-width:2; stroke-opacity:0.1; fill:none" points="2221.65,646.94 2221.65,95.3921 "/>
<polyline clip-path="url(#clip143)" style="stroke:#000000; stroke-linecap:round; stroke-linejoin:round; stroke-width:2; stroke-opacity:0.1; fill:none" points="2520.08,646.94 2520.08,95.3921 "/>
<polyline clip-path="url(#clip143)" style="stroke:#000000; stroke-linecap:round; stroke-linejoin:round; stroke-width:2; stroke-opacity:0.1; fill:none" points="2818.51,646.94 2818.51,95.3921 "/>
<polyline clip-path="url(#clip143)" style="stroke:#000000; stroke-linecap:round; stroke-linejoin:round; stroke-width:2; stroke-opacity:0.1; fill:none" points="3116.94,646.94 3116.94,95.3921 "/>
<polyline clip-path="url(#clip143)" style="stroke:#000000; stroke-linecap:round; stroke-linejoin:round; stroke-width:2; stroke-opacity:0.1; fill:none" points="1887.41,603.434 3152.76,603.434 "/>
<polyline clip-path="url(#clip143)" style="stroke:#000000; stroke-linecap:round; stroke-linejoin:round; stroke-width:2; stroke-opacity:0.1; fill:none" points="1887.41,508.215 3152.76,508.215 "/>
<polyline clip-path="url(#clip143)" style="stroke:#000000; stroke-linecap:round; stroke-linejoin:round; stroke-width:2; stroke-opacity:0.1; fill:none" points="1887.41,412.997 3152.76,412.997 "/>
<polyline clip-path="url(#clip143)" style="stroke:#000000; stroke-linecap:round; stroke-linejoin:round; stroke-width:2; stroke-opacity:0.1; fill:none" points="1887.41,317.779 3152.76,317.779 "/>
<polyline clip-path="url(#clip143)" style="stroke:#000000; stroke-linecap:round; stroke-linejoin:round; stroke-width:2; stroke-opacity:0.1; fill:none" points="1887.41,222.561 3152.76,222.561 "/>
<polyline clip-path="url(#clip143)" style="stroke:#000000; stroke-linecap:round; stroke-linejoin:round; stroke-width:2; stroke-opacity:0.1; fill:none" points="1887.41,127.343 3152.76,127.343 "/>
<polyline clip-path="url(#clip140)" style="stroke:#000000; stroke-linecap:round; stroke-linejoin:round; stroke-width:4; stroke-opacity:1; fill:none" points="1887.41,646.94 3152.76,646.94 "/>
<polyline clip-path="url(#clip140)" style="stroke:#000000; stroke-linecap:round; stroke-linejoin:round; stroke-width:4; stroke-opacity:1; fill:none" points="1923.22,646.94 1923.22,628.042 "/>
<polyline clip-path="url(#clip140)" style="stroke:#000000; stroke-linecap:round; stroke-linejoin:round; stroke-width:4; stroke-opacity:1; fill:none" points="2221.65,646.94 2221.65,628.042 "/>
<polyline clip-path="url(#clip140)" style="stroke:#000000; stroke-linecap:round; stroke-linejoin:round; stroke-width:4; stroke-opacity:1; fill:none" points="2520.08,646.94 2520.08,628.042 "/>
<polyline clip-path="url(#clip140)" style="stroke:#000000; stroke-linecap:round; stroke-linejoin:round; stroke-width:4; stroke-opacity:1; fill:none" points="2818.51,646.94 2818.51,628.042 "/>
<polyline clip-path="url(#clip140)" style="stroke:#000000; stroke-linecap:round; stroke-linejoin:round; stroke-width:4; stroke-opacity:1; fill:none" points="3116.94,646.94 3116.94,628.042 "/>
<path clip-path="url(#clip140)" d="M1900.61 684.259 Q1897 684.259 1895.17 687.823 Q1893.36 691.365 1893.36 698.495 Q1893.36 705.601 1895.17 709.166 Q1897 712.707 1900.61 712.707 Q1904.24 712.707 1906.05 709.166 Q1907.88 705.601 1907.88 698.495 Q1907.88 691.365 1906.05 687.823 Q1904.24 684.259 1900.61 684.259 M1900.61 680.555 Q1906.42 680.555 1909.47 685.161 Q1912.55 689.745 1912.55 698.495 Q1912.55 707.221 1909.47 711.828 Q1906.42 716.411 1900.61 716.411 Q1894.8 716.411 1891.72 711.828 Q1888.66 707.221 1888.66 698.495 Q1888.66 689.745 1891.72 685.161 Q1894.8 680.555 1900.61 680.555 Z" fill="#000000" fill-rule="nonzero" fill-opacity="1" /><path clip-path="url(#clip140)" d="M1920.77 709.86 L1925.66 709.86 L1925.66 715.74 L1920.77 715.74 L1920.77 709.86 Z" fill="#000000" fill-rule="nonzero" fill-opacity="1" /><path clip-path="url(#clip140)" d="M1945.84 684.259 Q1942.23 684.259 1940.4 687.823 Q1938.6 691.365 1938.6 698.495 Q1938.6 705.601 1940.4 709.166 Q1942.23 712.707 1945.84 712.707 Q1949.47 712.707 1951.28 709.166 Q1953.11 705.601 1953.11 698.495 Q1953.11 691.365 1951.28 687.823 Q1949.47 684.259 1945.84 684.259 M1945.84 680.555 Q1951.65 680.555 1954.71 685.161 Q1957.78 689.745 1957.78 698.495 Q1957.78 707.221 1954.71 711.828 Q1951.65 716.411 1945.84 716.411 Q1940.03 716.411 1936.95 711.828 Q1933.9 707.221 1933.9 698.495 Q1933.9 689.745 1936.95 685.161 Q1940.03 680.555 1945.84 680.555 Z" fill="#000000" fill-rule="nonzero" fill-opacity="1" /><path clip-path="url(#clip140)" d="M2193.39 711.805 L2209.71 711.805 L2209.71 715.74 L2187.77 715.74 L2187.77 711.805 Q2190.43 709.05 2195.01 704.42 Q2199.62 699.768 2200.8 698.425 Q2203.04 695.902 2203.92 694.166 Q2204.83 692.407 2204.83 690.717 Q2204.83 687.962 2202.88 686.226 Q2200.96 684.49 2197.86 684.49 Q2195.66 684.49 2193.21 685.254 Q2190.78 686.018 2188 687.569 L2188 682.847 Q2190.82 681.712 2193.28 681.134 Q2195.73 680.555 2197.77 680.555 Q2203.14 680.555 2206.33 683.24 Q2209.53 685.925 2209.53 690.416 Q2209.53 692.546 2208.72 694.467 Q2207.93 696.365 2205.82 698.958 Q2205.24 699.629 2202.14 702.846 Q2199.04 706.041 2193.39 711.805 Z" fill="#000000" fill-rule="nonzero" fill-opacity="1" /><path clip-path="url(#clip140)" d="M2219.53 709.86 L2224.41 709.86 L2224.41 715.74 L2219.53 715.74 L2219.53 709.86 Z" fill="#000000" fill-rule="nonzero" fill-opacity="1" /><path clip-path="url(#clip140)" d="M2234.64 681.18 L2253 681.18 L2253 685.115 L2238.92 685.115 L2238.92 693.587 Q2239.94 693.24 2240.96 693.078 Q2241.98 692.893 2243 692.893 Q2248.78 692.893 2252.16 696.064 Q2255.54 699.235 2255.54 704.652 Q2255.54 710.231 2252.07 713.332 Q2248.6 716.411 2242.28 716.411 Q2240.1 716.411 2237.84 716.041 Q2235.59 715.67 2233.18 714.93 L2233.18 710.231 Q2235.27 711.365 2237.49 711.92 Q2239.71 712.476 2242.19 712.476 Q2246.19 712.476 2248.53 710.37 Q2250.87 708.263 2250.87 704.652 Q2250.87 701.041 2248.53 698.934 Q2246.19 696.828 2242.19 696.828 Q2240.31 696.828 2238.44 697.245 Q2236.59 697.661 2234.64 698.541 L2234.64 681.18 Z" fill="#000000" fill-rule="nonzero" fill-opacity="1" /><path clip-path="url(#clip140)" d="M2487.25 681.18 L2505.61 681.18 L2505.61 685.115 L2491.53 685.115 L2491.53 693.587 Q2492.55 693.24 2493.57 693.078 Q2494.59 692.893 2495.61 692.893 Q2501.39 692.893 2504.77 696.064 Q2508.15 699.235 2508.15 704.652 Q2508.15 710.231 2504.68 713.332 Q2501.21 716.411 2494.89 716.411 Q2492.71 716.411 2490.44 716.041 Q2488.2 715.67 2485.79 714.93 L2485.79 710.231 Q2487.87 711.365 2490.1 711.92 Q2492.32 712.476 2494.8 712.476 Q2498.8 712.476 2501.14 710.37 Q2503.48 708.263 2503.48 704.652 Q2503.48 701.041 2501.14 698.934 Q2498.8 696.828 2494.8 696.828 Q2492.92 696.828 2491.05 697.245 Q2489.19 697.661 2487.25 698.541 L2487.25 681.18 Z" fill="#000000" fill-rule="nonzero" fill-opacity="1" /><path clip-path="url(#clip140)" d="M2517.36 709.86 L2522.25 709.86 L2522.25 715.74 L2517.36 715.74 L2517.36 709.86 Z" fill="#000000" fill-rule="nonzero" fill-opacity="1" /><path clip-path="url(#clip140)" d="M2542.43 684.259 Q2538.82 684.259 2536.99 687.823 Q2535.19 691.365 2535.19 698.495 Q2535.19 705.601 2536.99 709.166 Q2538.82 712.707 2542.43 712.707 Q2546.07 712.707 2547.87 709.166 Q2549.7 705.601 2549.7 698.495 Q2549.7 691.365 2547.87 687.823 Q2546.07 684.259 2542.43 684.259 M2542.43 680.555 Q2548.24 680.555 2551.3 685.161 Q2554.38 689.745 2554.38 698.495 Q2554.38 707.221 2551.3 711.828 Q2548.24 716.411 2542.43 716.411 Q2536.62 716.411 2533.55 711.828 Q2530.49 707.221 2530.49 698.495 Q2530.49 689.745 2533.55 685.161 Q2536.62 680.555 2542.43 680.555 Z" fill="#000000" fill-rule="nonzero" fill-opacity="1" /><path clip-path="url(#clip140)" d="M2784.83 681.18 L2807.06 681.18 L2807.06 683.171 L2794.51 715.74 L2789.63 715.74 L2801.43 685.115 L2784.83 685.115 L2784.83 681.18 Z" fill="#000000" fill-rule="nonzero" fill-opacity="1" /><path clip-path="url(#clip140)" d="M2816.18 709.86 L2821.06 709.86 L2821.06 715.74 L2816.18 715.74 L2816.18 709.86 Z" fill="#000000" fill-rule="nonzero" fill-opacity="1" /><path clip-path="url(#clip140)" d="M2831.29 681.18 L2849.65 681.18 L2849.65 685.115 L2835.57 685.115 L2835.57 693.587 Q2836.59 693.24 2837.61 693.078 Q2838.63 692.893 2839.65 692.893 Q2845.44 692.893 2848.82 696.064 Q2852.19 699.235 2852.19 704.652 Q2852.19 710.231 2848.72 713.332 Q2845.25 716.411 2838.93 716.411 Q2836.76 716.411 2834.49 716.041 Q2832.24 715.67 2829.83 714.93 L2829.83 710.231 Q2831.92 711.365 2834.14 711.92 Q2836.36 712.476 2838.84 712.476 Q2842.84 712.476 2845.18 710.37 Q2847.52 708.263 2847.52 704.652 Q2847.52 701.041 2845.18 698.934 Q2842.84 696.828 2838.84 696.828 Q2836.96 696.828 2835.09 697.245 Q2833.24 697.661 2831.29 698.541 L2831.29 681.18 Z" fill="#000000" fill-rule="nonzero" fill-opacity="1" /><path clip-path="url(#clip140)" d="M3069.02 711.805 L3076.66 711.805 L3076.66 685.439 L3068.35 687.106 L3068.35 682.847 L3076.61 681.18 L3081.28 681.18 L3081.28 711.805 L3088.92 711.805 L3088.92 715.74 L3069.02 715.74 L3069.02 711.805 Z" fill="#000000" fill-rule="nonzero" fill-opacity="1" /><path clip-path="url(#clip140)" d="M3108.37 684.259 Q3104.76 684.259 3102.93 687.823 Q3101.12 691.365 3101.12 698.495 Q3101.12 705.601 3102.93 709.166 Q3104.76 712.707 3108.37 712.707 Q3112 712.707 3113.81 709.166 Q3115.64 705.601 3115.64 698.495 Q3115.64 691.365 3113.81 687.823 Q3112 684.259 3108.37 684.259 M3108.37 680.555 Q3114.18 680.555 3117.23 685.161 Q3120.31 689.745 3120.31 698.495 Q3120.31 707.221 3117.23 711.828 Q3114.18 716.411 3108.37 716.411 Q3102.56 716.411 3099.48 711.828 Q3096.42 707.221 3096.42 698.495 Q3096.42 689.745 3099.48 685.161 Q3102.56 680.555 3108.37 680.555 Z" fill="#000000" fill-rule="nonzero" fill-opacity="1" /><path clip-path="url(#clip140)" d="M3128.53 709.86 L3133.41 709.86 L3133.41 715.74 L3128.53 715.74 L3128.53 709.86 Z" fill="#000000" fill-rule="nonzero" fill-opacity="1" /><path clip-path="url(#clip140)" d="M3153.6 684.259 Q3149.99 684.259 3148.16 687.823 Q3146.35 691.365 3146.35 698.495 Q3146.35 705.601 3148.16 709.166 Q3149.99 712.707 3153.6 712.707 Q3157.23 712.707 3159.04 709.166 Q3160.87 705.601 3160.87 698.495 Q3160.87 691.365 3159.04 687.823 Q3157.23 684.259 3153.6 684.259 M3153.6 680.555 Q3159.41 680.555 3162.46 685.161 Q3165.54 689.745 3165.54 698.495 Q3165.54 707.221 3162.46 711.828 Q3159.41 716.411 3153.6 716.411 Q3147.79 716.411 3144.71 711.828 Q3141.65 707.221 3141.65 698.495 Q3141.65 689.745 3144.71 685.161 Q3147.79 680.555 3153.6 680.555 Z" fill="#000000" fill-rule="nonzero" fill-opacity="1" /><path clip-path="url(#clip140)" d="M2519.23 757.011 L2519.23 766.213 L2530.2 766.213 L2530.2 770.35 L2519.23 770.35 L2519.23 787.943 Q2519.23 791.907 2520.3 793.035 Q2521.4 794.164 2524.73 794.164 L2530.2 794.164 L2530.2 798.62 L2524.73 798.62 Q2518.57 798.62 2516.22 796.334 Q2513.88 794.019 2513.88 787.943 L2513.88 770.35 L2509.97 770.35 L2509.97 766.213 L2513.88 766.213 L2513.88 757.011 L2519.23 757.011 Z" fill="#000000" fill-rule="nonzero" fill-opacity="1" /><polyline clip-path="url(#clip140)" style="stroke:#000000; stroke-linecap:round; stroke-linejoin:round; stroke-width:4; stroke-opacity:1; fill:none" points="1887.41,646.94 1887.41,95.3921 "/>
<polyline clip-path="url(#clip140)" style="stroke:#000000; stroke-linecap:round; stroke-linejoin:round; stroke-width:4; stroke-opacity:1; fill:none" points="1887.41,603.434 1906.31,603.434 "/>
<polyline clip-path="url(#clip140)" style="stroke:#000000; stroke-linecap:round; stroke-linejoin:round; stroke-width:4; stroke-opacity:1; fill:none" points="1887.41,508.215 1906.31,508.215 "/>
<polyline clip-path="url(#clip140)" style="stroke:#000000; stroke-linecap:round; stroke-linejoin:round; stroke-width:4; stroke-opacity:1; fill:none" points="1887.41,412.997 1906.31,412.997 "/>
<polyline clip-path="url(#clip140)" style="stroke:#000000; stroke-linecap:round; stroke-linejoin:round; stroke-width:4; stroke-opacity:1; fill:none" points="1887.41,317.779 1906.31,317.779 "/>
<polyline clip-path="url(#clip140)" style="stroke:#000000; stroke-linecap:round; stroke-linejoin:round; stroke-width:4; stroke-opacity:1; fill:none" points="1887.41,222.561 1906.31,222.561 "/>
<polyline clip-path="url(#clip140)" style="stroke:#000000; stroke-linecap:round; stroke-linejoin:round; stroke-width:4; stroke-opacity:1; fill:none" points="1887.41,127.343 1906.31,127.343 "/>
<path clip-path="url(#clip140)" d="M1703.3 603.885 L1732.98 603.885 L1732.98 607.82 L1703.3 607.82 L1703.3 603.885 Z" fill="#000000" fill-rule="nonzero" fill-opacity="1" /><path clip-path="url(#clip140)" d="M1753.07 589.232 Q1749.46 589.232 1747.63 592.797 Q1745.83 596.339 1745.83 603.468 Q1745.83 610.575 1747.63 614.139 Q1749.46 617.681 1753.07 617.681 Q1756.71 617.681 1758.51 614.139 Q1760.34 610.575 1760.34 603.468 Q1760.34 596.339 1758.51 592.797 Q1756.71 589.232 1753.07 589.232 M1753.07 585.529 Q1758.88 585.529 1761.94 590.135 Q1765.02 594.718 1765.02 603.468 Q1765.02 612.195 1761.94 616.802 Q1758.88 621.385 1753.07 621.385 Q1747.26 621.385 1744.18 616.802 Q1741.13 612.195 1741.13 603.468 Q1741.13 594.718 1744.18 590.135 Q1747.26 585.529 1753.07 585.529 Z" fill="#000000" fill-rule="nonzero" fill-opacity="1" /><path clip-path="url(#clip140)" d="M1773.23 614.834 L1778.12 614.834 L1778.12 620.714 L1773.23 620.714 L1773.23 614.834 Z" fill="#000000" fill-rule="nonzero" fill-opacity="1" /><path clip-path="url(#clip140)" d="M1798.3 589.232 Q1794.69 589.232 1792.86 592.797 Q1791.06 596.339 1791.06 603.468 Q1791.06 610.575 1792.86 614.139 Q1794.69 617.681 1798.3 617.681 Q1801.94 617.681 1803.74 614.139 Q1805.57 610.575 1805.57 603.468 Q1805.57 596.339 1803.74 592.797 Q1801.94 589.232 1798.3 589.232 M1798.3 585.529 Q1804.11 585.529 1807.17 590.135 Q1810.25 594.718 1810.25 603.468 Q1810.25 612.195 1807.17 616.802 Q1804.11 621.385 1798.3 621.385 Q1792.49 621.385 1789.41 616.802 Q1786.36 612.195 1786.36 603.468 Q1786.36 594.718 1789.41 590.135 Q1792.49 585.529 1798.3 585.529 Z" fill="#000000" fill-rule="nonzero" fill-opacity="1" /><path clip-path="url(#clip140)" d="M1818.51 586.154 L1836.87 586.154 L1836.87 590.089 L1822.79 590.089 L1822.79 598.561 Q1823.81 598.214 1824.83 598.052 Q1825.85 597.866 1826.87 597.866 Q1832.65 597.866 1836.03 601.038 Q1839.41 604.209 1839.41 609.626 Q1839.41 615.204 1835.94 618.306 Q1832.47 621.385 1826.15 621.385 Q1823.97 621.385 1821.71 621.014 Q1819.46 620.644 1817.05 619.903 L1817.05 615.204 Q1819.14 616.339 1821.36 616.894 Q1823.58 617.45 1826.06 617.45 Q1830.06 617.45 1832.4 615.343 Q1834.74 613.237 1834.74 609.626 Q1834.74 606.015 1832.4 603.908 Q1830.06 601.802 1826.06 601.802 Q1824.18 601.802 1822.31 602.218 Q1820.46 602.635 1818.51 603.515 L1818.51 586.154 Z" fill="#000000" fill-rule="nonzero" fill-opacity="1" /><path clip-path="url(#clip140)" d="M1701.82 508.667 L1731.5 508.667 L1731.5 512.602 L1701.82 512.602 L1701.82 508.667 Z" fill="#000000" fill-rule="nonzero" fill-opacity="1" /><path clip-path="url(#clip140)" d="M1751.59 494.014 Q1747.98 494.014 1746.15 497.579 Q1744.34 501.121 1744.34 508.25 Q1744.34 515.357 1746.15 518.921 Q1747.98 522.463 1751.59 522.463 Q1755.22 522.463 1757.03 518.921 Q1758.86 515.357 1758.86 508.25 Q1758.86 501.121 1757.03 497.579 Q1755.22 494.014 1751.59 494.014 M1751.59 490.31 Q1757.4 490.31 1760.46 494.917 Q1763.53 499.5 1763.53 508.25 Q1763.53 516.977 1760.46 521.583 Q1757.4 526.167 1751.59 526.167 Q1745.78 526.167 1742.7 521.583 Q1739.65 516.977 1739.65 508.25 Q1739.65 499.5 1742.7 494.917 Q1745.78 490.31 1751.59 490.31 Z" fill="#000000" fill-rule="nonzero" fill-opacity="1" /><path clip-path="url(#clip140)" d="M1771.75 519.616 L1776.64 519.616 L1776.64 525.495 L1771.75 525.495 L1771.75 519.616 Z" fill="#000000" fill-rule="nonzero" fill-opacity="1" /><path clip-path="url(#clip140)" d="M1796.82 494.014 Q1793.21 494.014 1791.38 497.579 Q1789.58 501.121 1789.58 508.25 Q1789.58 515.357 1791.38 518.921 Q1793.21 522.463 1796.82 522.463 Q1800.46 522.463 1802.26 518.921 Q1804.09 515.357 1804.09 508.25 Q1804.09 501.121 1802.26 497.579 Q1800.46 494.014 1796.82 494.014 M1796.82 490.31 Q1802.63 490.31 1805.69 494.917 Q1808.77 499.5 1808.77 508.25 Q1808.77 516.977 1805.69 521.583 Q1802.63 526.167 1796.82 526.167 Q1791.01 526.167 1787.93 521.583 Q1784.88 516.977 1784.88 508.25 Q1784.88 499.5 1787.93 494.917 Q1791.01 490.31 1796.82 490.31 Z" fill="#000000" fill-rule="nonzero" fill-opacity="1" /><path clip-path="url(#clip140)" d="M1829.83 495.01 L1818.02 513.459 L1829.83 513.459 L1829.83 495.01 M1828.6 490.935 L1834.48 490.935 L1834.48 513.459 L1839.41 513.459 L1839.41 517.347 L1834.48 517.347 L1834.48 525.495 L1829.83 525.495 L1829.83 517.347 L1814.23 517.347 L1814.23 512.834 L1828.6 490.935 Z" fill="#000000" fill-rule="nonzero" fill-opacity="1" /><path clip-path="url(#clip140)" d="M1702.96 413.449 L1732.63 413.449 L1732.63 417.384 L1702.96 417.384 L1702.96 413.449 Z" fill="#000000" fill-rule="nonzero" fill-opacity="1" /><path clip-path="url(#clip140)" d="M1752.72 398.796 Q1749.11 398.796 1747.28 402.361 Q1745.48 405.903 1745.48 413.032 Q1745.48 420.139 1747.28 423.703 Q1749.11 427.245 1752.72 427.245 Q1756.36 427.245 1758.16 423.703 Q1759.99 420.139 1759.99 413.032 Q1759.99 405.903 1758.16 402.361 Q1756.36 398.796 1752.72 398.796 M1752.72 395.092 Q1758.53 395.092 1761.59 399.699 Q1764.67 404.282 1764.67 413.032 Q1764.67 421.759 1761.59 426.365 Q1758.53 430.949 1752.72 430.949 Q1746.91 430.949 1743.84 426.365 Q1740.78 421.759 1740.78 413.032 Q1740.78 404.282 1743.84 399.699 Q1746.91 395.092 1752.72 395.092 Z" fill="#000000" fill-rule="nonzero" fill-opacity="1" /><path clip-path="url(#clip140)" d="M1772.89 424.398 L1777.77 424.398 L1777.77 430.277 L1772.89 430.277 L1772.89 424.398 Z" fill="#000000" fill-rule="nonzero" fill-opacity="1" /><path clip-path="url(#clip140)" d="M1797.96 398.796 Q1794.34 398.796 1792.52 402.361 Q1790.71 405.903 1790.71 413.032 Q1790.71 420.139 1792.52 423.703 Q1794.34 427.245 1797.96 427.245 Q1801.59 427.245 1803.39 423.703 Q1805.22 420.139 1805.22 413.032 Q1805.22 405.903 1803.39 402.361 Q1801.59 398.796 1797.96 398.796 M1797.96 395.092 Q1803.77 395.092 1806.82 399.699 Q1809.9 404.282 1809.9 413.032 Q1809.9 421.759 1806.82 426.365 Q1803.77 430.949 1797.96 430.949 Q1792.15 430.949 1789.07 426.365 Q1786.01 421.759 1786.01 413.032 Q1786.01 404.282 1789.07 399.699 Q1792.15 395.092 1797.96 395.092 Z" fill="#000000" fill-rule="nonzero" fill-opacity="1" /><path clip-path="url(#clip140)" d="M1832.28 411.643 Q1835.64 412.361 1837.52 414.629 Q1839.41 416.898 1839.41 420.231 Q1839.41 425.347 1835.89 428.148 Q1832.38 430.949 1825.89 430.949 Q1823.72 430.949 1821.4 430.509 Q1819.11 430.092 1816.66 429.236 L1816.66 424.722 Q1818.6 425.856 1820.92 426.435 Q1823.23 427.014 1825.76 427.014 Q1830.15 427.014 1832.45 425.277 Q1834.76 423.541 1834.76 420.231 Q1834.76 417.176 1832.61 415.463 Q1830.48 413.727 1826.66 413.727 L1822.63 413.727 L1822.63 409.884 L1826.84 409.884 Q1830.29 409.884 1832.12 408.518 Q1833.95 407.129 1833.95 404.537 Q1833.95 401.875 1832.05 400.463 Q1830.18 399.028 1826.66 399.028 Q1824.74 399.028 1822.54 399.444 Q1820.34 399.861 1817.7 400.741 L1817.7 396.574 Q1820.36 395.833 1822.68 395.463 Q1825.02 395.092 1827.08 395.092 Q1832.4 395.092 1835.5 397.523 Q1838.6 399.93 1838.6 404.051 Q1838.6 406.921 1836.96 408.912 Q1835.32 410.879 1832.28 411.643 Z" fill="#000000" fill-rule="nonzero" fill-opacity="1" /><path clip-path="url(#clip140)" d="M1703.9 318.231 L1733.58 318.231 L1733.58 322.166 L1703.9 322.166 L1703.9 318.231 Z" fill="#000000" fill-rule="nonzero" fill-opacity="1" /><path clip-path="url(#clip140)" d="M1753.67 303.578 Q1750.06 303.578 1748.23 307.143 Q1746.43 310.685 1746.43 317.814 Q1746.43 324.921 1748.23 328.485 Q1750.06 332.027 1753.67 332.027 Q1757.31 332.027 1759.11 328.485 Q1760.94 324.921 1760.94 317.814 Q1760.94 310.685 1759.11 307.143 Q1757.31 303.578 1753.67 303.578 M1753.67 299.874 Q1759.48 299.874 1762.54 304.481 Q1765.62 309.064 1765.62 317.814 Q1765.62 326.541 1762.54 331.147 Q1759.48 335.731 1753.67 335.731 Q1747.86 335.731 1744.78 331.147 Q1741.73 326.541 1741.73 317.814 Q1741.73 309.064 1744.78 304.481 Q1747.86 299.874 1753.67 299.874 Z" fill="#000000" fill-rule="nonzero" fill-opacity="1" /><path clip-path="url(#clip140)" d="M1773.83 329.18 L1778.72 329.18 L1778.72 335.059 L1773.83 335.059 L1773.83 329.18 Z" fill="#000000" fill-rule="nonzero" fill-opacity="1" /><path clip-path="url(#clip140)" d="M1798.9 303.578 Q1795.29 303.578 1793.46 307.143 Q1791.66 310.685 1791.66 317.814 Q1791.66 324.921 1793.46 328.485 Q1795.29 332.027 1798.9 332.027 Q1802.54 332.027 1804.34 328.485 Q1806.17 324.921 1806.17 317.814 Q1806.17 310.685 1804.34 307.143 Q1802.54 303.578 1798.9 303.578 M1798.9 299.874 Q1804.71 299.874 1807.77 304.481 Q1810.85 309.064 1810.85 317.814 Q1810.85 326.541 1807.77 331.147 Q1804.71 335.731 1798.9 335.731 Q1793.09 335.731 1790.02 331.147 Q1786.96 326.541 1786.96 317.814 Q1786.96 309.064 1790.02 304.481 Q1793.09 299.874 1798.9 299.874 Z" fill="#000000" fill-rule="nonzero" fill-opacity="1" /><path clip-path="url(#clip140)" d="M1823.09 331.124 L1839.41 331.124 L1839.41 335.059 L1817.47 335.059 L1817.47 331.124 Q1820.13 328.37 1824.71 323.74 Q1829.32 319.087 1830.5 317.745 Q1832.75 315.222 1833.63 313.485 Q1834.53 311.726 1834.53 310.036 Q1834.53 307.282 1832.58 305.546 Q1830.66 303.81 1827.56 303.81 Q1825.36 303.81 1822.91 304.573 Q1820.48 305.337 1817.7 306.888 L1817.7 302.166 Q1820.52 301.032 1822.98 300.453 Q1825.43 299.874 1827.47 299.874 Q1832.84 299.874 1836.03 302.56 Q1839.23 305.245 1839.23 309.735 Q1839.23 311.865 1838.42 313.786 Q1837.63 315.684 1835.52 318.277 Q1834.95 318.948 1831.84 322.166 Q1828.74 325.36 1823.09 331.124 Z" fill="#000000" fill-rule="nonzero" fill-opacity="1" /><path clip-path="url(#clip140)" d="M1703.53 223.013 L1733.21 223.013 L1733.21 226.948 L1703.53 226.948 L1703.53 223.013 Z" fill="#000000" fill-rule="nonzero" fill-opacity="1" /><path clip-path="url(#clip140)" d="M1753.3 208.36 Q1749.69 208.36 1747.86 211.925 Q1746.06 215.466 1746.06 222.596 Q1746.06 229.703 1747.86 233.267 Q1749.69 236.809 1753.3 236.809 Q1756.94 236.809 1758.74 233.267 Q1760.57 229.703 1760.57 222.596 Q1760.57 215.466 1758.74 211.925 Q1756.94 208.36 1753.3 208.36 M1753.3 204.656 Q1759.11 204.656 1762.17 209.263 Q1765.25 213.846 1765.25 222.596 Q1765.25 231.323 1762.17 235.929 Q1759.11 240.513 1753.3 240.513 Q1747.49 240.513 1744.41 235.929 Q1741.36 231.323 1741.36 222.596 Q1741.36 213.846 1744.41 209.263 Q1747.49 204.656 1753.3 204.656 Z" fill="#000000" fill-rule="nonzero" fill-opacity="1" /><path clip-path="url(#clip140)" d="M1773.46 233.962 L1778.35 233.962 L1778.35 239.841 L1773.46 239.841 L1773.46 233.962 Z" fill="#000000" fill-rule="nonzero" fill-opacity="1" /><path clip-path="url(#clip140)" d="M1798.53 208.36 Q1794.92 208.36 1793.09 211.925 Q1791.29 215.466 1791.29 222.596 Q1791.29 229.703 1793.09 233.267 Q1794.92 236.809 1798.53 236.809 Q1802.17 236.809 1803.97 233.267 Q1805.8 229.703 1805.8 222.596 Q1805.8 215.466 1803.97 211.925 Q1802.17 208.36 1798.53 208.36 M1798.53 204.656 Q1804.34 204.656 1807.4 209.263 Q1810.48 213.846 1810.48 222.596 Q1810.48 231.323 1807.4 235.929 Q1804.34 240.513 1798.53 240.513 Q1792.72 240.513 1789.65 235.929 Q1786.59 231.323 1786.59 222.596 Q1786.59 213.846 1789.65 209.263 Q1792.72 204.656 1798.53 204.656 Z" fill="#000000" fill-rule="nonzero" fill-opacity="1" /><path clip-path="url(#clip140)" d="M1819.51 235.906 L1827.14 235.906 L1827.14 209.541 L1818.83 211.207 L1818.83 206.948 L1827.1 205.281 L1831.77 205.281 L1831.77 235.906 L1839.41 235.906 L1839.41 239.841 L1819.51 239.841 L1819.51 235.906 Z" fill="#000000" fill-rule="nonzero" fill-opacity="1" /><path clip-path="url(#clip140)" d="M1752.08 113.142 Q1748.46 113.142 1746.64 116.707 Q1744.83 120.248 1744.83 127.378 Q1744.83 134.484 1746.64 138.049 Q1748.46 141.591 1752.08 141.591 Q1755.71 141.591 1757.52 138.049 Q1759.34 134.484 1759.34 127.378 Q1759.34 120.248 1757.52 116.707 Q1755.71 113.142 1752.08 113.142 M1752.08 109.438 Q1757.89 109.438 1760.94 114.045 Q1764.02 118.628 1764.02 127.378 Q1764.02 136.105 1760.94 140.711 Q1757.89 145.295 1752.08 145.295 Q1746.27 145.295 1743.19 140.711 Q1740.13 136.105 1740.13 127.378 Q1740.13 118.628 1743.19 114.045 Q1746.27 109.438 1752.08 109.438 Z" fill="#000000" fill-rule="nonzero" fill-opacity="1" /><path clip-path="url(#clip140)" d="M1772.24 138.744 L1777.12 138.744 L1777.12 144.623 L1772.24 144.623 L1772.24 138.744 Z" fill="#000000" fill-rule="nonzero" fill-opacity="1" /><path clip-path="url(#clip140)" d="M1797.31 113.142 Q1793.7 113.142 1791.87 116.707 Q1790.06 120.248 1790.06 127.378 Q1790.06 134.484 1791.87 138.049 Q1793.7 141.591 1797.31 141.591 Q1800.94 141.591 1802.75 138.049 Q1804.58 134.484 1804.58 127.378 Q1804.58 120.248 1802.75 116.707 Q1800.94 113.142 1797.31 113.142 M1797.31 109.438 Q1803.12 109.438 1806.17 114.045 Q1809.25 118.628 1809.25 127.378 Q1809.25 136.105 1806.17 140.711 Q1803.12 145.295 1797.31 145.295 Q1791.5 145.295 1788.42 140.711 Q1785.36 136.105 1785.36 127.378 Q1785.36 118.628 1788.42 114.045 Q1791.5 109.438 1797.31 109.438 Z" fill="#000000" fill-rule="nonzero" fill-opacity="1" /><path clip-path="url(#clip140)" d="M1827.47 113.142 Q1823.86 113.142 1822.03 116.707 Q1820.22 120.248 1820.22 127.378 Q1820.22 134.484 1822.03 138.049 Q1823.86 141.591 1827.47 141.591 Q1831.1 141.591 1832.91 138.049 Q1834.74 134.484 1834.74 127.378 Q1834.74 120.248 1832.91 116.707 Q1831.1 113.142 1827.47 113.142 M1827.47 109.438 Q1833.28 109.438 1836.33 114.045 Q1839.41 118.628 1839.41 127.378 Q1839.41 136.105 1836.33 140.711 Q1833.28 145.295 1827.47 145.295 Q1821.66 145.295 1818.58 140.711 Q1815.52 136.105 1815.52 127.378 Q1815.52 118.628 1818.58 114.045 Q1821.66 109.438 1827.47 109.438 Z" fill="#000000" fill-rule="nonzero" fill-opacity="1" /><path clip-path="url(#clip140)" d="M2439.46 20.677 L2439.46 25.6538 Q2437.2 24.4096 2434.91 23.802 Q2432.66 23.1654 2430.34 23.1654 Q2425.16 23.1654 2422.3 26.464 Q2419.43 29.7336 2419.43 35.6653 Q2419.43 41.597 2422.3 44.8956 Q2425.16 48.1653 2430.34 48.1653 Q2432.66 48.1653 2434.91 47.5576 Q2437.2 46.921 2439.46 45.6768 L2439.46 50.5958 Q2437.23 51.6375 2434.83 52.1583 Q2432.45 52.6791 2429.76 52.6791 Q2422.44 52.6791 2418.13 48.0784 Q2413.82 43.4778 2413.82 35.6653 Q2413.82 27.7371 2418.16 23.1943 Q2422.53 18.6515 2430.11 18.6515 Q2432.57 18.6515 2434.91 19.1724 Q2437.26 19.6642 2439.46 20.677 Z" fill="#000000" fill-rule="nonzero" fill-opacity="1" /><path clip-path="url(#clip140)" d="M2461.27 23.1654 Q2456.99 23.1654 2454.5 26.5218 Q2452.01 29.8494 2452.01 35.6653 Q2452.01 41.4813 2454.47 44.8377 Q2456.96 48.1653 2461.27 48.1653 Q2465.53 48.1653 2468.02 44.8088 Q2470.5 41.4523 2470.5 35.6653 Q2470.5 29.9072 2468.02 26.5508 Q2465.53 23.1654 2461.27 23.1654 M2461.27 18.6515 Q2468.22 18.6515 2472.18 23.1654 Q2476.15 27.6792 2476.15 35.6653 Q2476.15 43.6225 2472.18 48.1653 Q2468.22 52.6791 2461.27 52.6791 Q2454.3 52.6791 2450.34 48.1653 Q2446.4 43.6225 2446.4 35.6653 Q2446.4 27.6792 2450.34 23.1654 Q2454.3 18.6515 2461.27 18.6515 Z" fill="#000000" fill-rule="nonzero" fill-opacity="1" /><path clip-path="url(#clip140)" d="M2505.63 20.3876 L2505.63 25.4223 Q2503.37 24.2649 2500.94 23.6862 Q2498.51 23.1075 2495.91 23.1075 Q2491.95 23.1075 2489.95 24.3228 Q2487.98 25.5381 2487.98 27.9686 Q2487.98 29.8204 2489.4 30.891 Q2490.82 31.9327 2495.1 32.8876 L2496.92 33.2926 Q2502.59 34.5079 2504.97 36.7359 Q2507.37 38.935 2507.37 42.8991 Q2507.37 47.4129 2503.78 50.046 Q2500.22 52.6791 2493.97 52.6791 Q2491.37 52.6791 2488.53 52.1583 Q2485.72 51.6664 2482.6 50.6537 L2482.6 45.156 Q2485.55 46.6896 2488.42 47.4708 Q2491.28 48.2231 2494.09 48.2231 Q2497.85 48.2231 2499.87 46.95 Q2501.9 45.6479 2501.9 43.3042 Q2501.9 41.134 2500.42 39.9766 Q2498.98 38.8192 2494.03 37.7486 L2492.18 37.3146 Q2487.23 36.273 2485.03 34.1318 Q2482.83 31.9616 2482.83 28.2001 Q2482.83 23.6283 2486.07 21.1399 Q2489.31 18.6515 2495.27 18.6515 Q2498.22 18.6515 2500.83 19.0855 Q2503.43 19.5196 2505.63 20.3876 Z" fill="#000000" fill-rule="nonzero" fill-opacity="1" /><path clip-path="url(#clip140)" d="M2521.11 10.2314 L2521.11 19.4328 L2532.08 19.4328 L2532.08 23.5705 L2521.11 23.5705 L2521.11 41.163 Q2521.11 45.1271 2522.18 46.2555 Q2523.28 47.384 2526.61 47.384 L2532.08 47.384 L2532.08 51.84 L2526.61 51.84 Q2520.45 51.84 2518.1 49.5541 Q2515.76 47.2393 2515.76 41.163 L2515.76 23.5705 L2511.85 23.5705 L2511.85 19.4328 L2515.76 19.4328 L2515.76 10.2314 L2521.11 10.2314 Z" fill="#000000" fill-rule="nonzero" fill-opacity="1" /><path clip-path="url(#clip140)" d="M2553.81 35.5496 Q2547.36 35.5496 2544.87 37.0253 Q2542.38 38.501 2542.38 42.06 Q2542.38 44.8956 2544.23 46.5738 Q2546.11 48.2231 2549.32 48.2231 Q2553.75 48.2231 2556.41 45.0981 Q2559.1 41.9442 2559.1 36.7359 L2559.1 35.5496 L2553.81 35.5496 M2564.43 33.3505 L2564.43 51.84 L2559.1 51.84 L2559.1 46.921 Q2557.28 49.8724 2554.56 51.2902 Q2551.84 52.6791 2547.91 52.6791 Q2542.93 52.6791 2539.98 49.9014 Q2537.06 47.0947 2537.06 42.4072 Q2537.06 36.9385 2540.7 34.1607 Q2544.38 31.3829 2551.64 31.3829 L2559.1 31.3829 L2559.1 30.8621 Q2559.1 27.1874 2556.67 25.1908 Q2554.27 23.1654 2549.9 23.1654 Q2547.12 23.1654 2544.49 23.8309 Q2541.86 24.4964 2539.43 25.8274 L2539.43 20.9085 Q2542.35 19.78 2545.1 19.2302 Q2547.85 18.6515 2550.45 18.6515 Q2557.48 18.6515 2560.96 22.2973 Q2564.43 25.9431 2564.43 33.3505 Z" fill="#000000" fill-rule="nonzero" fill-opacity="1" /><path clip-path="url(#clip140)" d="M2580.66 10.2314 L2580.66 19.4328 L2591.63 19.4328 L2591.63 23.5705 L2580.66 23.5705 L2580.66 41.163 Q2580.66 45.1271 2581.73 46.2555 Q2582.83 47.384 2586.16 47.384 L2591.63 47.384 L2591.63 51.84 L2586.16 51.84 Q2579.99 51.84 2577.65 49.5541 Q2575.31 47.2393 2575.31 41.163 L2575.31 23.5705 L2571.4 23.5705 L2571.4 19.4328 L2575.31 19.4328 L2575.31 10.2314 L2580.66 10.2314 Z" fill="#000000" fill-rule="nonzero" fill-opacity="1" /><path clip-path="url(#clip140)" d="M2626.35 34.3054 L2626.35 36.9095 L2601.87 36.9095 Q2602.22 42.4072 2605.17 45.3007 Q2608.15 48.1653 2613.44 48.1653 Q2616.51 48.1653 2619.38 47.4129 Q2622.27 46.6606 2625.1 45.156 L2625.1 50.1907 Q2622.24 51.406 2619.23 52.0425 Q2616.22 52.6791 2613.13 52.6791 Q2605.37 52.6791 2600.83 48.1653 Q2596.31 43.6514 2596.31 35.9547 Q2596.31 27.9975 2600.6 23.339 Q2604.91 18.6515 2612.2 18.6515 Q2618.74 18.6515 2622.53 22.876 Q2626.35 27.0716 2626.35 34.3054 M2621.02 32.7429 Q2620.97 28.3737 2618.56 25.7695 Q2616.19 23.1654 2612.26 23.1654 Q2607.8 23.1654 2605.11 25.6827 Q2602.45 28.2001 2602.04 32.7718 L2621.02 32.7429 Z" fill="#000000" fill-rule="nonzero" fill-opacity="1" /><polyline clip-path="url(#clip143)" style="stroke:#000000; stroke-linecap:round; stroke-linejoin:round; stroke-width:4; stroke-opacity:1; fill:none" stroke-dasharray="16, 10" points="1923.22,1198.49 1923.22,-456.156 "/>
<polyline clip-path="url(#clip143)" style="stroke:#000000; stroke-linecap:round; stroke-linejoin:round; stroke-width:4; stroke-opacity:1; fill:none" stroke-dasharray="16, 10" points="3116.94,1198.49 3116.94,-456.156 "/>
<polyline clip-path="url(#clip143)" style="stroke:#009af9; stroke-linecap:round; stroke-linejoin:round; stroke-width:8; stroke-opacity:1; fill:none" points="1923.22,631.33 1928,621.274 1932.77,611.416 1937.55,601.752 1942.32,592.277 1947.1,582.99 1951.87,573.885 1956.65,564.958 1961.42,556.208 1966.2,547.629 1970.97,539.219 1975.75,530.974 1980.52,522.891 1985.3,514.966 1990.07,507.197 1994.85,499.581 1999.62,492.113 2004.4,484.792 2009.17,477.615 2013.95,470.578 2018.72,463.679 2023.5,456.915 2028.27,450.283 2033.05,443.781 2037.82,437.406 2042.6,431.156 2047.37,425.028 2052.15,419.019 2056.92,413.128 2061.7,407.352 2066.47,401.688 2071.25,396.134 2076.02,390.689 2080.8,385.35 2085.57,380.114 2090.35,374.981 2095.12,369.947 2099.9,365.01 2104.67,360.17 2109.45,355.423 2114.22,350.769 2118.99,346.204 2123.77,341.728 2128.54,337.338 2133.32,333.034 2138.09,328.812 2142.87,324.672 2147.64,320.611 2152.42,316.629 2157.19,312.723 2161.97,308.892 2166.74,305.135 2171.52,301.45 2176.29,297.835 2181.07,294.29 2185.84,290.812 2190.62,287.401 2195.39,284.055 2200.17,280.773 2204.94,277.553 2209.72,274.394 2214.49,271.295 2219.27,268.255 2224.04,265.272 2228.82,262.346 2233.59,259.475 2238.37,256.658 2243.14,253.894 2247.92,251.183 2252.69,248.521 2257.47,245.91 2262.24,243.348 2267.02,240.833 2271.79,238.365 2276.57,235.943 2281.34,233.566 2286.12,231.233 2290.89,228.943 2295.67,226.695 2300.44,224.489 2305.22,222.323 2309.99,220.196 2314.76,218.109 2319.54,216.06 2324.31,214.047 2329.09,212.072 2333.86,210.132 2338.64,208.227 2343.41,206.356 2348.19,204.519 2352.96,202.715 2357.74,200.943 2362.51,199.203 2367.29,197.493 2372.06,195.814 2376.84,194.164 2381.61,192.543 2386.39,190.951 2391.16,189.387 2395.94,187.849 2400.71,186.339 2405.49,184.854 2410.26,183.395 2415.04,181.961 2419.81,180.551 2424.59,179.166 2429.36,177.804 2434.14,176.465 2438.91,175.148 2443.69,173.854 2448.46,172.581 2453.24,171.329 2458.01,170.098 2462.79,168.887 2467.56,167.696 2472.34,166.525 2477.11,165.372 2481.89,164.239 2486.66,163.123 2491.44,162.025 2496.21,160.945 2500.99,159.882 2505.76,158.836 2510.53,157.807 2515.31,156.793 2520.08,155.795 2524.86,154.813 2529.63,153.846 2534.41,152.894 2539.18,151.956 2543.96,151.033 2548.73,150.124 2553.51,149.229 2558.28,148.347 2563.06,147.478 2567.83,146.622 2572.61,145.779 2577.38,144.949 2582.16,144.13 2586.93,143.324 2591.71,142.53 2596.48,141.747 2601.26,140.976 2606.03,140.216 2610.81,139.467 2615.58,138.728 2620.36,138.001 2625.13,137.284 2629.91,136.578 2634.68,135.881 2639.46,135.195 2644.23,134.519 2649.01,133.852 2653.78,133.195 2658.56,132.548 2663.33,131.91 2668.11,131.281 2672.88,130.662 2677.66,130.052 2682.43,129.45 2687.21,128.858 2691.98,128.275 2696.76,127.7 2701.53,127.135 2706.3,126.578 2711.08,126.029 2715.85,125.49 2720.63,124.958 2725.4,124.436 2730.18,123.922 2734.95,123.417 2739.73,122.92 2744.5,122.431 2749.28,121.952 2754.05,121.48 2758.83,121.018 2763.6,120.564 2768.38,120.119 2773.15,119.682 2777.93,119.255 2782.7,118.836 2787.48,118.426 2792.25,118.026 2797.03,117.634 2801.8,117.252 2806.58,116.879 2811.35,116.515 2816.13,116.161 2820.9,115.817 2825.68,115.483 2830.45,115.159 2835.23,114.845 2840,114.541 2844.78,114.248 2849.55,113.966 2854.33,113.695 2859.1,113.435 2863.88,113.187 2868.65,112.95 2873.43,112.725 2878.2,112.513 2882.98,112.313 2887.75,112.125 2892.53,111.951 2897.3,111.791 2902.07,111.644 2906.85,111.511 2911.62,111.392 2916.4,111.289 2921.17,111.201 2925.95,111.128 2930.72,111.071 2935.5,111.031 2940.27,111.008 2945.05,111.002 2949.82,111.014 2954.6,111.044 2959.37,111.094 2964.15,111.162 2968.92,111.251 2973.7,111.36 2978.47,111.49 2983.25,111.642 2988.02,111.817 2992.8,112.014 2997.57,112.235 3002.35,112.48 3007.12,112.751 3011.9,113.047 3016.67,113.37 3021.45,113.72 3026.22,114.099 3031,114.506 3035.77,114.943 3040.55,115.411 3045.32,115.911 3050.1,116.443 3054.87,117.009 3059.65,117.609 3064.42,118.245 3069.2,118.917 3073.97,119.627 3078.75,120.376 3083.52,121.165 3088.3,121.994 3093.07,122.867 3097.84,123.782 3102.62,124.743 3107.39,125.75 3112.17,126.804 "/>
<path clip-path="url(#clip140)" d="M310.747 1446.94 L3152.76 1446.94 L3152.76 895.392 L310.747 895.392  Z" fill="#ffffff" fill-rule="evenodd" fill-opacity="1"/>
<polyline clip-path="url(#clip141)" style="stroke:#000000; stroke-linecap:round; stroke-linejoin:round; stroke-width:2; stroke-opacity:0.1; fill:none" points="391.181,1446.94 391.181,895.392 "/>
<polyline clip-path="url(#clip141)" style="stroke:#000000; stroke-linecap:round; stroke-linejoin:round; stroke-width:2; stroke-opacity:0.1; fill:none" points="1061.47,1446.94 1061.47,895.392 "/>
<polyline clip-path="url(#clip141)" style="stroke:#000000; stroke-linecap:round; stroke-linejoin:round; stroke-width:2; stroke-opacity:0.1; fill:none" points="1731.75,1446.94 1731.75,895.392 "/>
<polyline clip-path="url(#clip141)" style="stroke:#000000; stroke-linecap:round; stroke-linejoin:round; stroke-width:2; stroke-opacity:0.1; fill:none" points="2402.04,1446.94 2402.04,895.392 "/>
<polyline clip-path="url(#clip141)" style="stroke:#000000; stroke-linecap:round; stroke-linejoin:round; stroke-width:2; stroke-opacity:0.1; fill:none" points="3072.32,1446.94 3072.32,895.392 "/>
<polyline clip-path="url(#clip141)" style="stroke:#000000; stroke-linecap:round; stroke-linejoin:round; stroke-width:2; stroke-opacity:0.1; fill:none" points="310.747,1309.05 3152.76,1309.05 "/>
<polyline clip-path="url(#clip141)" style="stroke:#000000; stroke-linecap:round; stroke-linejoin:round; stroke-width:2; stroke-opacity:0.1; fill:none" points="310.747,1171.17 3152.76,1171.17 "/>
<polyline clip-path="url(#clip141)" style="stroke:#000000; stroke-linecap:round; stroke-linejoin:round; stroke-width:2; stroke-opacity:0.1; fill:none" points="310.747,1033.28 3152.76,1033.28 "/>
<polyline clip-path="url(#clip141)" style="stroke:#000000; stroke-linecap:round; stroke-linejoin:round; stroke-width:2; stroke-opacity:0.1; fill:none" points="310.747,895.392 3152.76,895.392 "/>
<polyline clip-path="url(#clip140)" style="stroke:#000000; stroke-linecap:round; stroke-linejoin:round; stroke-width:4; stroke-opacity:1; fill:none" points="310.747,1446.94 3152.76,1446.94 "/>
<polyline clip-path="url(#clip140)" style="stroke:#000000; stroke-linecap:round; stroke-linejoin:round; stroke-width:4; stroke-opacity:1; fill:none" points="391.181,1446.94 391.181,1428.04 "/>
<polyline clip-path="url(#clip140)" style="stroke:#000000; stroke-linecap:round; stroke-linejoin:round; stroke-width:4; stroke-opacity:1; fill:none" points="1061.47,1446.94 1061.47,1428.04 "/>
<polyline clip-path="url(#clip140)" style="stroke:#000000; stroke-linecap:round; stroke-linejoin:round; stroke-width:4; stroke-opacity:1; fill:none" points="1731.75,1446.94 1731.75,1428.04 "/>
<polyline clip-path="url(#clip140)" style="stroke:#000000; stroke-linecap:round; stroke-linejoin:round; stroke-width:4; stroke-opacity:1; fill:none" points="2402.04,1446.94 2402.04,1428.04 "/>
<polyline clip-path="url(#clip140)" style="stroke:#000000; stroke-linecap:round; stroke-linejoin:round; stroke-width:4; stroke-opacity:1; fill:none" points="3072.32,1446.94 3072.32,1428.04 "/>
<path clip-path="url(#clip140)" d="M368.565 1484.26 Q364.954 1484.26 363.125 1487.82 Q361.32 1491.36 361.32 1498.49 Q361.32 1505.6 363.125 1509.17 Q364.954 1512.71 368.565 1512.71 Q372.199 1512.71 374.005 1509.17 Q375.834 1505.6 375.834 1498.49 Q375.834 1491.36 374.005 1487.82 Q372.199 1484.26 368.565 1484.26 M368.565 1480.55 Q374.375 1480.55 377.431 1485.16 Q380.51 1489.74 380.51 1498.49 Q380.51 1507.22 377.431 1511.83 Q374.375 1516.41 368.565 1516.41 Q362.755 1516.41 359.676 1511.83 Q356.621 1507.22 356.621 1498.49 Q356.621 1489.74 359.676 1485.16 Q362.755 1480.55 368.565 1480.55 Z" fill="#000000" fill-rule="nonzero" fill-opacity="1" /><path clip-path="url(#clip140)" d="M388.727 1509.86 L393.611 1509.86 L393.611 1515.74 L388.727 1515.74 L388.727 1509.86 Z" fill="#000000" fill-rule="nonzero" fill-opacity="1" /><path clip-path="url(#clip140)" d="M413.796 1484.26 Q410.185 1484.26 408.357 1487.82 Q406.551 1491.36 406.551 1498.49 Q406.551 1505.6 408.357 1509.17 Q410.185 1512.71 413.796 1512.71 Q417.431 1512.71 419.236 1509.17 Q421.065 1505.6 421.065 1498.49 Q421.065 1491.36 419.236 1487.82 Q417.431 1484.26 413.796 1484.26 M413.796 1480.55 Q419.607 1480.55 422.662 1485.16 Q425.741 1489.74 425.741 1498.49 Q425.741 1507.22 422.662 1511.83 Q419.607 1516.41 413.796 1516.41 Q407.986 1516.41 404.908 1511.83 Q401.852 1507.22 401.852 1498.49 Q401.852 1489.74 404.908 1485.16 Q407.986 1480.55 413.796 1480.55 Z" fill="#000000" fill-rule="nonzero" fill-opacity="1" /><path clip-path="url(#clip140)" d="M1033.2 1511.8 L1049.52 1511.8 L1049.52 1515.74 L1027.58 1515.74 L1027.58 1511.8 Q1030.24 1509.05 1034.82 1504.42 Q1039.43 1499.77 1040.61 1498.43 Q1042.86 1495.9 1043.73 1494.17 Q1044.64 1492.41 1044.64 1490.72 Q1044.64 1487.96 1042.69 1486.23 Q1040.77 1484.49 1037.67 1484.49 Q1035.47 1484.49 1033.02 1485.25 Q1030.59 1486.02 1027.81 1487.57 L1027.81 1482.85 Q1030.63 1481.71 1033.09 1481.13 Q1035.54 1480.55 1037.58 1480.55 Q1042.95 1480.55 1046.14 1483.24 Q1049.34 1485.93 1049.34 1490.42 Q1049.34 1492.55 1048.53 1494.47 Q1047.74 1496.36 1045.63 1498.96 Q1045.05 1499.63 1041.95 1502.85 Q1038.85 1506.04 1033.2 1511.8 Z" fill="#000000" fill-rule="nonzero" fill-opacity="1" /><path clip-path="url(#clip140)" d="M1059.34 1509.86 L1064.22 1509.86 L1064.22 1515.74 L1059.34 1515.74 L1059.34 1509.86 Z" fill="#000000" fill-rule="nonzero" fill-opacity="1" /><path clip-path="url(#clip140)" d="M1074.45 1481.18 L1092.81 1481.18 L1092.81 1485.12 L1078.73 1485.12 L1078.73 1493.59 Q1079.75 1493.24 1080.77 1493.08 Q1081.79 1492.89 1082.81 1492.89 Q1088.6 1492.89 1091.98 1496.06 Q1095.35 1499.24 1095.35 1504.65 Q1095.35 1510.23 1091.88 1513.33 Q1088.41 1516.41 1082.09 1516.41 Q1079.92 1516.41 1077.65 1516.04 Q1075.4 1515.67 1072.99 1514.93 L1072.99 1510.23 Q1075.08 1511.36 1077.3 1511.92 Q1079.52 1512.48 1082 1512.48 Q1086 1512.48 1088.34 1510.37 Q1090.68 1508.26 1090.68 1504.65 Q1090.68 1501.04 1088.34 1498.93 Q1086 1496.83 1082 1496.83 Q1080.12 1496.83 1078.25 1497.24 Q1076.4 1497.66 1074.45 1498.54 L1074.45 1481.18 Z" fill="#000000" fill-rule="nonzero" fill-opacity="1" /><path clip-path="url(#clip140)" d="M1698.92 1481.18 L1717.27 1481.18 L1717.27 1485.12 L1703.2 1485.12 L1703.2 1493.59 Q1704.22 1493.24 1705.24 1493.08 Q1706.25 1492.89 1707.27 1492.89 Q1713.06 1492.89 1716.44 1496.06 Q1719.82 1499.24 1719.82 1504.65 Q1719.82 1510.23 1716.35 1513.33 Q1712.87 1516.41 1706.55 1516.41 Q1704.38 1516.41 1702.11 1516.04 Q1699.86 1515.67 1697.46 1514.93 L1697.46 1510.23 Q1699.54 1511.36 1701.76 1511.92 Q1703.99 1512.48 1706.46 1512.48 Q1710.47 1512.48 1712.8 1510.37 Q1715.14 1508.26 1715.14 1504.65 Q1715.14 1501.04 1712.8 1498.93 Q1710.47 1496.83 1706.46 1496.83 Q1704.59 1496.83 1702.71 1497.24 Q1700.86 1497.66 1698.92 1498.54 L1698.92 1481.18 Z" fill="#000000" fill-rule="nonzero" fill-opacity="1" /><path clip-path="url(#clip140)" d="M1729.03 1509.86 L1733.92 1509.86 L1733.92 1515.74 L1729.03 1515.74 L1729.03 1509.86 Z" fill="#000000" fill-rule="nonzero" fill-opacity="1" /><path clip-path="url(#clip140)" d="M1754.1 1484.26 Q1750.49 1484.26 1748.66 1487.82 Q1746.86 1491.36 1746.86 1498.49 Q1746.86 1505.6 1748.66 1509.17 Q1750.49 1512.71 1754.1 1512.71 Q1757.73 1512.71 1759.54 1509.17 Q1761.37 1505.6 1761.37 1498.49 Q1761.37 1491.36 1759.54 1487.82 Q1757.73 1484.26 1754.1 1484.26 M1754.1 1480.55 Q1759.91 1480.55 1762.97 1485.16 Q1766.05 1489.74 1766.05 1498.49 Q1766.05 1507.22 1762.97 1511.83 Q1759.91 1516.41 1754.1 1516.41 Q1748.29 1516.41 1745.21 1511.83 Q1742.16 1507.22 1742.16 1498.49 Q1742.16 1489.74 1745.21 1485.16 Q1748.29 1480.55 1754.1 1480.55 Z" fill="#000000" fill-rule="nonzero" fill-opacity="1" /><path clip-path="url(#clip140)" d="M2368.36 1481.18 L2390.58 1481.18 L2390.58 1483.17 L2378.03 1515.74 L2373.15 1515.74 L2384.95 1485.12 L2368.36 1485.12 L2368.36 1481.18 Z" fill="#000000" fill-rule="nonzero" fill-opacity="1" /><path clip-path="url(#clip140)" d="M2399.7 1509.86 L2404.58 1509.86 L2404.58 1515.74 L2399.7 1515.74 L2399.7 1509.86 Z" fill="#000000" fill-rule="nonzero" fill-opacity="1" /><path clip-path="url(#clip140)" d="M2414.81 1481.18 L2433.17 1481.18 L2433.17 1485.12 L2419.1 1485.12 L2419.1 1493.59 Q2420.12 1493.24 2421.13 1493.08 Q2422.15 1492.89 2423.17 1492.89 Q2428.96 1492.89 2432.34 1496.06 Q2435.72 1499.24 2435.72 1504.65 Q2435.72 1510.23 2432.24 1513.33 Q2428.77 1516.41 2422.45 1516.41 Q2420.28 1516.41 2418.01 1516.04 Q2415.76 1515.67 2413.36 1514.93 L2413.36 1510.23 Q2415.44 1511.36 2417.66 1511.92 Q2419.88 1512.48 2422.36 1512.48 Q2426.37 1512.48 2428.7 1510.37 Q2431.04 1508.26 2431.04 1504.65 Q2431.04 1501.04 2428.7 1498.93 Q2426.37 1496.83 2422.36 1496.83 Q2420.49 1496.83 2418.61 1497.24 Q2416.76 1497.66 2414.81 1498.54 L2414.81 1481.18 Z" fill="#000000" fill-rule="nonzero" fill-opacity="1" /><path clip-path="url(#clip140)" d="M3024.39 1511.8 L3032.03 1511.8 L3032.03 1485.44 L3023.72 1487.11 L3023.72 1482.85 L3031.99 1481.18 L3036.66 1481.18 L3036.66 1511.8 L3044.3 1511.8 L3044.3 1515.74 L3024.39 1515.74 L3024.39 1511.8 Z" fill="#000000" fill-rule="nonzero" fill-opacity="1" /><path clip-path="url(#clip140)" d="M3063.75 1484.26 Q3060.13 1484.26 3058.31 1487.82 Q3056.5 1491.36 3056.5 1498.49 Q3056.5 1505.6 3058.31 1509.17 Q3060.13 1512.71 3063.75 1512.71 Q3067.38 1512.71 3069.19 1509.17 Q3071.01 1505.6 3071.01 1498.49 Q3071.01 1491.36 3069.19 1487.82 Q3067.38 1484.26 3063.75 1484.26 M3063.75 1480.55 Q3069.56 1480.55 3072.61 1485.16 Q3075.69 1489.74 3075.69 1498.49 Q3075.69 1507.22 3072.61 1511.83 Q3069.56 1516.41 3063.75 1516.41 Q3057.94 1516.41 3054.86 1511.83 Q3051.8 1507.22 3051.8 1498.49 Q3051.8 1489.74 3054.86 1485.16 Q3057.94 1480.55 3063.75 1480.55 Z" fill="#000000" fill-rule="nonzero" fill-opacity="1" /><path clip-path="url(#clip140)" d="M3083.91 1509.86 L3088.79 1509.86 L3088.79 1515.74 L3083.91 1515.74 L3083.91 1509.86 Z" fill="#000000" fill-rule="nonzero" fill-opacity="1" /><path clip-path="url(#clip140)" d="M3108.98 1484.26 Q3105.37 1484.26 3103.54 1487.82 Q3101.73 1491.36 3101.73 1498.49 Q3101.73 1505.6 3103.54 1509.17 Q3105.37 1512.71 3108.98 1512.71 Q3112.61 1512.71 3114.42 1509.17 Q3116.25 1505.6 3116.25 1498.49 Q3116.25 1491.36 3114.42 1487.82 Q3112.61 1484.26 3108.98 1484.26 M3108.98 1480.55 Q3114.79 1480.55 3117.84 1485.16 Q3120.92 1489.74 3120.92 1498.49 Q3120.92 1507.22 3117.84 1511.83 Q3114.79 1516.41 3108.98 1516.41 Q3103.17 1516.41 3100.09 1511.83 Q3097.03 1507.22 3097.03 1498.49 Q3097.03 1489.74 3100.09 1485.16 Q3103.17 1480.55 3108.98 1480.55 Z" fill="#000000" fill-rule="nonzero" fill-opacity="1" /><path clip-path="url(#clip140)" d="M1730.9 1557.01 L1730.9 1566.21 L1741.86 1566.21 L1741.86 1570.35 L1730.9 1570.35 L1730.9 1587.94 Q1730.9 1591.91 1731.97 1593.04 Q1733.07 1594.16 1736.4 1594.16 L1741.86 1594.16 L1741.86 1598.62 L1736.4 1598.62 Q1730.23 1598.62 1727.89 1596.33 Q1725.54 1594.02 1725.54 1587.94 L1725.54 1570.35 L1721.64 1570.35 L1721.64 1566.21 L1725.54 1566.21 L1725.54 1557.01 L1730.9 1557.01 Z" fill="#000000" fill-rule="nonzero" fill-opacity="1" /><polyline clip-path="url(#clip140)" style="stroke:#000000; stroke-linecap:round; stroke-linejoin:round; stroke-width:4; stroke-opacity:1; fill:none" points="310.747,1446.94 310.747,895.392 "/>
<polyline clip-path="url(#clip140)" style="stroke:#000000; stroke-linecap:round; stroke-linejoin:round; stroke-width:4; stroke-opacity:1; fill:none" points="310.747,1309.05 329.644,1309.05 "/>
<polyline clip-path="url(#clip140)" style="stroke:#000000; stroke-linecap:round; stroke-linejoin:round; stroke-width:4; stroke-opacity:1; fill:none" points="310.747,1171.17 329.644,1171.17 "/>
<polyline clip-path="url(#clip140)" style="stroke:#000000; stroke-linecap:round; stroke-linejoin:round; stroke-width:4; stroke-opacity:1; fill:none" points="310.747,1033.28 329.644,1033.28 "/>
<polyline clip-path="url(#clip140)" style="stroke:#000000; stroke-linecap:round; stroke-linejoin:round; stroke-width:4; stroke-opacity:1; fill:none" points="310.747,895.392 329.644,895.392 "/>
<path clip-path="url(#clip140)" d="M126.636 1309.5 L156.312 1309.5 L156.312 1313.44 L126.636 1313.44 L126.636 1309.5 Z" fill="#000000" fill-rule="nonzero" fill-opacity="1" /><path clip-path="url(#clip140)" d="M176.404 1294.85 Q172.793 1294.85 170.965 1298.42 Q169.159 1301.96 169.159 1309.09 Q169.159 1316.19 170.965 1319.76 Q172.793 1323.3 176.404 1323.3 Q180.039 1323.3 181.844 1319.76 Q183.673 1316.19 183.673 1309.09 Q183.673 1301.96 181.844 1298.42 Q180.039 1294.85 176.404 1294.85 M176.404 1291.15 Q182.215 1291.15 185.27 1295.75 Q188.349 1300.34 188.349 1309.09 Q188.349 1317.81 185.27 1322.42 Q182.215 1327 176.404 1327 Q170.594 1327 167.516 1322.42 Q164.46 1317.81 164.46 1309.09 Q164.46 1300.34 167.516 1295.75 Q170.594 1291.15 176.404 1291.15 Z" fill="#000000" fill-rule="nonzero" fill-opacity="1" /><path clip-path="url(#clip140)" d="M196.566 1320.45 L201.451 1320.45 L201.451 1326.33 L196.566 1326.33 L196.566 1320.45 Z" fill="#000000" fill-rule="nonzero" fill-opacity="1" /><path clip-path="url(#clip140)" d="M221.636 1294.85 Q218.025 1294.85 216.196 1298.42 Q214.39 1301.96 214.39 1309.09 Q214.39 1316.19 216.196 1319.76 Q218.025 1323.3 221.636 1323.3 Q225.27 1323.3 227.075 1319.76 Q228.904 1316.19 228.904 1309.09 Q228.904 1301.96 227.075 1298.42 Q225.27 1294.85 221.636 1294.85 M221.636 1291.15 Q227.446 1291.15 230.501 1295.75 Q233.58 1300.34 233.58 1309.09 Q233.58 1317.81 230.501 1322.42 Q227.446 1327 221.636 1327 Q215.826 1327 212.747 1322.42 Q209.691 1317.81 209.691 1309.09 Q209.691 1300.34 212.747 1295.75 Q215.826 1291.15 221.636 1291.15 Z" fill="#000000" fill-rule="nonzero" fill-opacity="1" /><path clip-path="url(#clip140)" d="M241.844 1291.77 L260.2 1291.77 L260.2 1295.71 L246.126 1295.71 L246.126 1304.18 Q247.145 1303.83 248.163 1303.67 Q249.182 1303.49 250.2 1303.49 Q255.987 1303.49 259.367 1306.66 Q262.747 1309.83 262.747 1315.25 Q262.747 1320.82 259.274 1323.93 Q255.802 1327 249.483 1327 Q247.307 1327 245.038 1326.63 Q242.793 1326.26 240.386 1325.52 L240.386 1320.82 Q242.469 1321.96 244.691 1322.51 Q246.913 1323.07 249.39 1323.07 Q253.395 1323.07 255.733 1320.96 Q258.071 1318.86 258.071 1315.25 Q258.071 1311.63 255.733 1309.53 Q253.395 1307.42 249.39 1307.42 Q247.515 1307.42 245.64 1307.84 Q243.788 1308.25 241.844 1309.13 L241.844 1291.77 Z" fill="#000000" fill-rule="nonzero" fill-opacity="1" /><path clip-path="url(#clip140)" d="M175.409 1156.96 Q171.798 1156.96 169.969 1160.53 Q168.164 1164.07 168.164 1171.2 Q168.164 1178.31 169.969 1181.87 Q171.798 1185.41 175.409 1185.41 Q179.043 1185.41 180.849 1181.87 Q182.678 1178.31 182.678 1171.2 Q182.678 1164.07 180.849 1160.53 Q179.043 1156.96 175.409 1156.96 M175.409 1153.26 Q181.219 1153.26 184.275 1157.87 Q187.353 1162.45 187.353 1171.2 Q187.353 1179.93 184.275 1184.53 Q181.219 1189.12 175.409 1189.12 Q169.599 1189.12 166.52 1184.53 Q163.465 1179.93 163.465 1171.2 Q163.465 1162.45 166.52 1157.87 Q169.599 1153.26 175.409 1153.26 Z" fill="#000000" fill-rule="nonzero" fill-opacity="1" /><path clip-path="url(#clip140)" d="M195.571 1182.57 L200.455 1182.57 L200.455 1188.45 L195.571 1188.45 L195.571 1182.57 Z" fill="#000000" fill-rule="nonzero" fill-opacity="1" /><path clip-path="url(#clip140)" d="M220.64 1156.96 Q217.029 1156.96 215.201 1160.53 Q213.395 1164.07 213.395 1171.2 Q213.395 1178.31 215.201 1181.87 Q217.029 1185.41 220.64 1185.41 Q224.275 1185.41 226.08 1181.87 Q227.909 1178.31 227.909 1171.2 Q227.909 1164.07 226.08 1160.53 Q224.275 1156.96 220.64 1156.96 M220.64 1153.26 Q226.451 1153.26 229.506 1157.87 Q232.585 1162.45 232.585 1171.2 Q232.585 1179.93 229.506 1184.53 Q226.451 1189.12 220.64 1189.12 Q214.83 1189.12 211.752 1184.53 Q208.696 1179.93 208.696 1171.2 Q208.696 1162.45 211.752 1157.87 Q214.83 1153.26 220.64 1153.26 Z" fill="#000000" fill-rule="nonzero" fill-opacity="1" /><path clip-path="url(#clip140)" d="M250.802 1156.96 Q247.191 1156.96 245.362 1160.53 Q243.557 1164.07 243.557 1171.2 Q243.557 1178.31 245.362 1181.87 Q247.191 1185.41 250.802 1185.41 Q254.436 1185.41 256.242 1181.87 Q258.071 1178.31 258.071 1171.2 Q258.071 1164.07 256.242 1160.53 Q254.436 1156.96 250.802 1156.96 M250.802 1153.26 Q256.612 1153.26 259.668 1157.87 Q262.747 1162.45 262.747 1171.2 Q262.747 1179.93 259.668 1184.53 Q256.612 1189.12 250.802 1189.12 Q244.992 1189.12 241.913 1184.53 Q238.858 1179.93 238.858 1171.2 Q238.858 1162.45 241.913 1157.87 Q244.992 1153.26 250.802 1153.26 Z" fill="#000000" fill-rule="nonzero" fill-opacity="1" /><path clip-path="url(#clip140)" d="M176.404 1019.08 Q172.793 1019.08 170.965 1022.64 Q169.159 1026.18 169.159 1033.31 Q169.159 1040.42 170.965 1043.99 Q172.793 1047.53 176.404 1047.53 Q180.039 1047.53 181.844 1043.99 Q183.673 1040.42 183.673 1033.31 Q183.673 1026.18 181.844 1022.64 Q180.039 1019.08 176.404 1019.08 M176.404 1015.37 Q182.215 1015.37 185.27 1019.98 Q188.349 1024.56 188.349 1033.31 Q188.349 1042.04 185.27 1046.65 Q182.215 1051.23 176.404 1051.23 Q170.594 1051.23 167.516 1046.65 Q164.46 1042.04 164.46 1033.31 Q164.46 1024.56 167.516 1019.98 Q170.594 1015.37 176.404 1015.37 Z" fill="#000000" fill-rule="nonzero" fill-opacity="1" /><path clip-path="url(#clip140)" d="M196.566 1044.68 L201.451 1044.68 L201.451 1050.56 L196.566 1050.56 L196.566 1044.68 Z" fill="#000000" fill-rule="nonzero" fill-opacity="1" /><path clip-path="url(#clip140)" d="M221.636 1019.08 Q218.025 1019.08 216.196 1022.64 Q214.39 1026.18 214.39 1033.31 Q214.39 1040.42 216.196 1043.99 Q218.025 1047.53 221.636 1047.53 Q225.27 1047.53 227.075 1043.99 Q228.904 1040.42 228.904 1033.31 Q228.904 1026.18 227.075 1022.64 Q225.27 1019.08 221.636 1019.08 M221.636 1015.37 Q227.446 1015.37 230.501 1019.98 Q233.58 1024.56 233.58 1033.31 Q233.58 1042.04 230.501 1046.65 Q227.446 1051.23 221.636 1051.23 Q215.826 1051.23 212.747 1046.65 Q209.691 1042.04 209.691 1033.31 Q209.691 1024.56 212.747 1019.98 Q215.826 1015.37 221.636 1015.37 Z" fill="#000000" fill-rule="nonzero" fill-opacity="1" /><path clip-path="url(#clip140)" d="M241.844 1016 L260.2 1016 L260.2 1019.93 L246.126 1019.93 L246.126 1028.41 Q247.145 1028.06 248.163 1027.9 Q249.182 1027.71 250.2 1027.71 Q255.987 1027.71 259.367 1030.88 Q262.747 1034.05 262.747 1039.47 Q262.747 1045.05 259.274 1048.15 Q255.802 1051.23 249.483 1051.23 Q247.307 1051.23 245.038 1050.86 Q242.793 1050.49 240.386 1049.75 L240.386 1045.05 Q242.469 1046.18 244.691 1046.74 Q246.913 1047.3 249.39 1047.3 Q253.395 1047.3 255.733 1045.19 Q258.071 1043.08 258.071 1039.47 Q258.071 1035.86 255.733 1033.75 Q253.395 1031.65 249.39 1031.65 Q247.515 1031.65 245.64 1032.06 Q243.788 1032.48 241.844 1033.36 L241.844 1016 Z" fill="#000000" fill-rule="nonzero" fill-opacity="1" /><path clip-path="url(#clip140)" d="M175.409 881.191 Q171.798 881.191 169.969 884.756 Q168.164 888.297 168.164 895.427 Q168.164 902.533 169.969 906.098 Q171.798 909.64 175.409 909.64 Q179.043 909.64 180.849 906.098 Q182.678 902.533 182.678 895.427 Q182.678 888.297 180.849 884.756 Q179.043 881.191 175.409 881.191 M175.409 877.487 Q181.219 877.487 184.275 882.094 Q187.353 886.677 187.353 895.427 Q187.353 904.154 184.275 908.76 Q181.219 913.343 175.409 913.343 Q169.599 913.343 166.52 908.76 Q163.465 904.154 163.465 895.427 Q163.465 886.677 166.52 882.094 Q169.599 877.487 175.409 877.487 Z" fill="#000000" fill-rule="nonzero" fill-opacity="1" /><path clip-path="url(#clip140)" d="M195.571 906.793 L200.455 906.793 L200.455 912.672 L195.571 912.672 L195.571 906.793 Z" fill="#000000" fill-rule="nonzero" fill-opacity="1" /><path clip-path="url(#clip140)" d="M211.451 908.737 L219.089 908.737 L219.089 882.371 L210.779 884.038 L210.779 879.779 L219.043 878.112 L223.719 878.112 L223.719 908.737 L231.358 908.737 L231.358 912.672 L211.451 912.672 L211.451 908.737 Z" fill="#000000" fill-rule="nonzero" fill-opacity="1" /><path clip-path="url(#clip140)" d="M250.802 881.191 Q247.191 881.191 245.362 884.756 Q243.557 888.297 243.557 895.427 Q243.557 902.533 245.362 906.098 Q247.191 909.64 250.802 909.64 Q254.436 909.64 256.242 906.098 Q258.071 902.533 258.071 895.427 Q258.071 888.297 256.242 884.756 Q254.436 881.191 250.802 881.191 M250.802 877.487 Q256.612 877.487 259.668 882.094 Q262.747 886.677 262.747 895.427 Q262.747 904.154 259.668 908.76 Q256.612 913.343 250.802 913.343 Q244.992 913.343 241.913 908.76 Q238.858 904.154 238.858 895.427 Q238.858 886.677 241.913 882.094 Q244.992 877.487 250.802 877.487 Z" fill="#000000" fill-rule="nonzero" fill-opacity="1" /><path clip-path="url(#clip140)" d="M52.8869 1184.74 L33.269 1184.74 L33.269 1179.41 L52.6844 1179.41 Q57.2851 1179.41 59.5999 1177.62 Q61.8857 1175.82 61.8857 1172.24 Q61.8857 1167.93 59.1369 1165.44 Q56.3881 1162.92 51.6427 1162.92 L33.269 1162.92 L33.269 1157.6 L65.6762 1157.6 L65.6762 1162.92 L60.6994 1162.92 Q63.6508 1164.86 65.0975 1167.43 Q66.5153 1169.98 66.5153 1173.37 Q66.5153 1178.95 63.0431 1181.84 Q59.5709 1184.74 52.8869 1184.74 M32.4877 1171.34 L32.4877 1171.34 Z" fill="#000000" fill-rule="nonzero" fill-opacity="1" /><path clip-path="url(#clip140)" d="M1659.1 820.677 L1659.1 825.654 Q1656.84 824.41 1654.55 823.802 Q1652.3 823.165 1649.98 823.165 Q1644.8 823.165 1641.94 826.464 Q1639.07 829.734 1639.07 835.665 Q1639.07 841.597 1641.94 844.896 Q1644.8 848.165 1649.98 848.165 Q1652.3 848.165 1654.55 847.558 Q1656.84 846.921 1659.1 845.677 L1659.1 850.596 Q1656.87 851.637 1654.47 852.158 Q1652.09 852.679 1649.4 852.679 Q1642.08 852.679 1637.77 848.078 Q1633.46 843.478 1633.46 835.665 Q1633.46 827.737 1637.8 823.194 Q1642.17 818.652 1649.75 818.652 Q1652.21 818.652 1654.55 819.172 Q1656.9 819.664 1659.1 820.677 Z" fill="#000000" fill-rule="nonzero" fill-opacity="1" /><path clip-path="url(#clip140)" d="M1680.91 823.165 Q1676.63 823.165 1674.14 826.522 Q1671.65 829.849 1671.65 835.665 Q1671.65 841.481 1674.11 844.838 Q1676.6 848.165 1680.91 848.165 Q1685.17 848.165 1687.65 844.809 Q1690.14 841.452 1690.14 835.665 Q1690.14 829.907 1687.65 826.551 Q1685.17 823.165 1680.91 823.165 M1680.91 818.652 Q1687.86 818.652 1691.82 823.165 Q1695.79 827.679 1695.79 835.665 Q1695.79 843.622 1691.82 848.165 Q1687.86 852.679 1680.91 852.679 Q1673.94 852.679 1669.97 848.165 Q1666.04 843.622 1666.04 835.665 Q1666.04 827.679 1669.97 823.165 Q1673.94 818.652 1680.91 818.652 Z" fill="#000000" fill-rule="nonzero" fill-opacity="1" /><path clip-path="url(#clip140)" d="M1731.55 832.28 L1731.55 851.84 L1726.22 851.84 L1726.22 832.454 Q1726.22 827.853 1724.43 825.567 Q1722.64 823.281 1719.05 823.281 Q1714.74 823.281 1712.25 826.03 Q1709.76 828.779 1709.76 833.524 L1709.76 851.84 L1704.41 851.84 L1704.41 819.433 L1709.76 819.433 L1709.76 824.467 Q1711.67 821.545 1714.25 820.098 Q1716.85 818.652 1720.24 818.652 Q1725.82 818.652 1728.68 822.124 Q1731.55 825.567 1731.55 832.28 Z" fill="#000000" fill-rule="nonzero" fill-opacity="1" /><path clip-path="url(#clip140)" d="M1747.43 810.231 L1747.43 819.433 L1758.4 819.433 L1758.4 823.57 L1747.43 823.57 L1747.43 841.163 Q1747.43 845.127 1748.5 846.256 Q1749.6 847.384 1752.93 847.384 L1758.4 847.384 L1758.4 851.84 L1752.93 851.84 Q1746.77 851.84 1744.42 849.554 Q1742.08 847.239 1742.08 841.163 L1742.08 823.57 L1738.17 823.57 L1738.17 819.433 L1742.08 819.433 L1742.08 810.231 L1747.43 810.231 Z" fill="#000000" fill-rule="nonzero" fill-opacity="1" /><path clip-path="url(#clip140)" d="M1784.18 824.41 Q1783.28 823.889 1782.21 823.657 Q1781.17 823.397 1779.9 823.397 Q1775.39 823.397 1772.95 826.348 Q1770.55 829.271 1770.55 834.768 L1770.55 851.84 L1765.2 851.84 L1765.2 819.433 L1770.55 819.433 L1770.55 824.467 Q1772.23 821.516 1774.92 820.098 Q1777.61 818.652 1781.46 818.652 Q1782.01 818.652 1782.68 818.738 Q1783.34 818.796 1784.15 818.941 L1784.18 824.41 Z" fill="#000000" fill-rule="nonzero" fill-opacity="1" /><path clip-path="url(#clip140)" d="M1801.02 823.165 Q1796.74 823.165 1794.25 826.522 Q1791.76 829.849 1791.76 835.665 Q1791.76 841.481 1794.22 844.838 Q1796.71 848.165 1801.02 848.165 Q1805.28 848.165 1807.76 844.809 Q1810.25 841.452 1810.25 835.665 Q1810.25 829.907 1807.76 826.551 Q1805.28 823.165 1801.02 823.165 M1801.02 818.652 Q1807.97 818.652 1811.93 823.165 Q1815.89 827.679 1815.89 835.665 Q1815.89 843.622 1811.93 848.165 Q1807.97 852.679 1801.02 852.679 Q1794.05 852.679 1790.08 848.165 Q1786.15 843.622 1786.15 835.665 Q1786.15 827.679 1790.08 823.165 Q1794.05 818.652 1801.02 818.652 Z" fill="#000000" fill-rule="nonzero" fill-opacity="1" /><path clip-path="url(#clip140)" d="M1824.72 806.817 L1830.04 806.817 L1830.04 851.84 L1824.72 851.84 L1824.72 806.817 Z" fill="#000000" fill-rule="nonzero" fill-opacity="1" /><polyline clip-path="url(#clip141)" style="stroke:#000000; stroke-linecap:round; stroke-linejoin:round; stroke-width:4; stroke-opacity:1; fill:none" stroke-dasharray="16, 10" points="391.181,1998.49 391.181,343.844 "/>
<polyline clip-path="url(#clip141)" style="stroke:#000000; stroke-linecap:round; stroke-linejoin:round; stroke-width:4; stroke-opacity:1; fill:none" stroke-dasharray="16, 10" points="3072.32,1998.49 3072.32,343.844 "/>
<polyline clip-path="url(#clip141)" style="stroke:#009af9; stroke-linecap:round; stroke-linejoin:round; stroke-width:8; stroke-opacity:1; fill:none" points="391.181,1171.17 401.905,1171.17 412.63,1171.17 423.355,1171.17 434.079,1171.17 444.804,1171.17 455.528,1171.17 466.253,1171.17 476.977,1171.17 487.702,1171.17 498.426,1171.17 509.151,1171.17 519.876,1171.17 530.6,1171.17 541.325,1171.17 552.049,1171.17 562.774,1171.17 573.498,1171.17 584.223,1171.17 594.948,1171.17 605.672,1171.17 616.397,1171.17 627.121,1171.17 637.846,1171.17 648.57,1171.17 659.295,1171.17 670.019,1171.17 680.744,1171.17 691.469,1171.17 702.193,1171.17 712.918,1171.17 723.642,1171.17 734.367,1171.17 745.091,1171.17 755.816,1171.17 766.541,1171.17 777.265,1171.17 787.99,1171.17 798.714,1171.17 809.439,1171.17 820.163,1171.17 830.888,1171.17 841.612,1171.17 852.337,1171.17 863.062,1171.17 873.786,1171.17 884.511,1171.17 895.235,1171.17 905.96,1171.17 916.684,1171.17 927.409,1171.17 938.134,1171.17 948.858,1171.17 959.583,1171.17 970.307,1171.17 981.032,1171.17 991.756,1171.17 1002.48,1171.17 1013.21,1171.17 1023.93,1171.17 1034.65,1171.17 1045.38,1171.17 1056.1,1171.17 1066.83,1171.17 1077.55,1171.17 1088.28,1171.17 1099,1171.17 1109.73,1171.17 1120.45,1171.17 1131.18,1171.17 1141.9,1171.17 1152.62,1171.17 1163.35,1171.17 1174.07,1171.17 1184.8,1171.17 1195.52,1171.17 1206.25,1171.17 1216.97,1171.17 1227.7,1171.17 1238.42,1171.17 1249.15,1171.17 1259.87,1171.17 1270.6,1171.17 1281.32,1171.17 1292.04,1171.17 1302.77,1171.17 1313.49,1171.17 1324.22,1171.17 1334.94,1171.17 1345.67,1171.17 1356.39,1171.17 1367.12,1171.17 1377.84,1171.17 1388.57,1171.17 1399.29,1171.17 1410.01,1171.17 1420.74,1171.17 1431.46,1171.17 1442.19,1171.17 1452.91,1171.17 1463.64,1171.17 1474.36,1171.17 1485.09,1171.17 1495.81,1171.17 1506.54,1171.17 1517.26,1171.17 1527.98,1171.17 1538.71,1171.17 1549.43,1171.17 1560.16,1171.17 1570.88,1171.17 1581.61,1171.17 1592.33,1171.17 1603.06,1171.17 1613.78,1171.17 1624.51,1171.17 1635.23,1171.17 1645.95,1171.17 1656.68,1171.17 1667.4,1171.17 1678.13,1171.17 1688.85,1171.17 1699.58,1171.17 1710.3,1171.17 1721.03,1171.17 1731.75,1171.17 1742.48,1171.17 1753.2,1171.17 1763.92,1171.17 1774.65,1171.17 1785.37,1171.17 1796.1,1171.17 1806.82,1171.17 1817.55,1171.17 1828.27,1171.17 1839,1171.17 1849.72,1171.17 1860.45,1171.17 1871.17,1171.17 1881.9,1171.17 1892.62,1171.17 1903.34,1171.17 1914.07,1171.17 1924.79,1171.17 1935.52,1171.17 1946.24,1171.17 1956.97,1171.17 1967.69,1171.17 1978.42,1171.17 1989.14,1171.17 1999.87,1171.17 2010.59,1171.17 2021.31,1171.17 2032.04,1171.17 2042.76,1171.17 2053.49,1171.17 2064.21,1171.17 2074.94,1171.17 2085.66,1171.17 2096.39,1171.17 2107.11,1171.17 2117.84,1171.17 2128.56,1171.17 2139.28,1171.17 2150.01,1171.17 2160.73,1171.17 2171.46,1171.17 2182.18,1171.17 2192.91,1171.17 2203.63,1171.17 2214.36,1171.17 2225.08,1171.17 2235.81,1171.17 2246.53,1171.17 2257.25,1171.17 2267.98,1171.17 2278.7,1171.17 2289.43,1171.17 2300.15,1171.17 2310.88,1171.17 2321.6,1171.17 2332.33,1171.17 2343.05,1171.17 2353.78,1171.17 2364.5,1171.17 2375.23,1171.17 2385.95,1171.17 2396.67,1171.17 2407.4,1171.17 2418.12,1171.17 2428.85,1171.17 2439.57,1171.17 2450.3,1171.17 2461.02,1171.17 2471.75,1171.17 2482.47,1171.17 2493.2,1171.17 2503.92,1171.17 2514.64,1171.17 2525.37,1171.17 2536.09,1171.17 2546.82,1171.17 2557.54,1171.17 2568.27,1171.17 2578.99,1171.17 2589.72,1171.17 2600.44,1171.17 2611.17,1171.17 2621.89,1171.17 2632.61,1171.17 2643.34,1171.17 2654.06,1171.17 2664.79,1171.17 2675.51,1171.17 2686.24,1171.17 2696.96,1171.17 2707.69,1171.17 2718.41,1171.17 2729.14,1171.17 2739.86,1171.17 2750.58,1171.17 2761.31,1171.17 2772.03,1171.17 2782.76,1171.17 2793.48,1171.17 2804.21,1171.17 2814.93,1171.17 2825.66,1171.17 2836.38,1171.17 2847.11,1171.17 2857.83,1171.17 2868.55,1171.17 2879.28,1171.17 2890,1171.17 2900.73,1171.17 2911.45,1171.17 2922.18,1171.17 2932.9,1171.17 2943.63,1171.17 2954.35,1171.17 2965.08,1171.17 2975.8,1171.17 2986.53,1171.17 2997.25,1171.17 3007.97,1171.17 3018.7,1171.17 3029.42,1171.17 3040.15,1171.17 3050.87,1171.17 3061.6,1171.17 3072.32,1171.17 "/>
</svg>
