<?xml version="1.0" encoding="utf-8"?>
<svg xmlns="http://www.w3.org/2000/svg" xmlns:xlink="http://www.w3.org/1999/xlink" width="600" height="400" viewBox="0 0 2400 1600">
<defs>
  <clipPath id="clip230">
    <rect x="0" y="0" width="2400" height="1600"/>
  </clipPath>
</defs>
<path clip-path="url(#clip230)" d="M0 1600 L2400 1600 L2400 0 L0 0  Z" fill="#ffffff" fill-rule="evenodd" fill-opacity="1"/>
<defs>
  <clipPath id="clip231">
    <rect x="480" y="0" width="1681" height="1600"/>
  </clipPath>
</defs>
<path clip-path="url(#clip230)" d="M186.274 1486.45 L2352.76 1486.45 L2352.76 47.2441 L186.274 47.2441  Z" fill="#ffffff" fill-rule="evenodd" fill-opacity="1"/>
<defs>
  <clipPath id="clip232">
    <rect x="186" y="47" width="2167" height="1440"/>
  </clipPath>
</defs>
<polyline clip-path="url(#clip232)" style="stroke:#000000; stroke-linecap:round; stroke-linejoin:round; stroke-width:2; stroke-opacity:0.1; fill:none" points="247.59,1486.45 247.59,47.2441 "/>
<polyline clip-path="url(#clip232)" style="stroke:#000000; stroke-linecap:round; stroke-linejoin:round; stroke-width:2; stroke-opacity:0.1; fill:none" points="738.103,1486.45 738.103,47.2441 "/>
<polyline clip-path="url(#clip232)" style="stroke:#000000; stroke-linecap:round; stroke-linejoin:round; stroke-width:2; stroke-opacity:0.1; fill:none" points="1228.62,1486.45 1228.62,47.2441 "/>
<polyline clip-path="url(#clip232)" style="stroke:#000000; stroke-linecap:round; stroke-linejoin:round; stroke-width:2; stroke-opacity:0.1; fill:none" points="1719.13,1486.45 1719.13,47.2441 "/>
<polyline clip-path="url(#clip232)" style="stroke:#000000; stroke-linecap:round; stroke-linejoin:round; stroke-width:2; stroke-opacity:0.1; fill:none" points="2209.64,1486.45 2209.64,47.2441 "/>
<polyline clip-path="url(#clip232)" style="stroke:#000000; stroke-linecap:round; stroke-linejoin:round; stroke-width:2; stroke-opacity:0.1; fill:none" points="186.274,1445.72 2352.76,1445.72 "/>
<polyline clip-path="url(#clip232)" style="stroke:#000000; stroke-linecap:round; stroke-linejoin:round; stroke-width:2; stroke-opacity:0.1; fill:none" points="186.274,1106.28 2352.76,1106.28 "/>
<polyline clip-path="url(#clip232)" style="stroke:#000000; stroke-linecap:round; stroke-linejoin:round; stroke-width:2; stroke-opacity:0.1; fill:none" points="186.274,766.846 2352.76,766.846 "/>
<polyline clip-path="url(#clip232)" style="stroke:#000000; stroke-linecap:round; stroke-linejoin:round; stroke-width:2; stroke-opacity:0.1; fill:none" points="186.274,427.411 2352.76,427.411 "/>
<polyline clip-path="url(#clip232)" style="stroke:#000000; stroke-linecap:round; stroke-linejoin:round; stroke-width:2; stroke-opacity:0.1; fill:none" points="186.274,87.9763 2352.76,87.9763 "/>
<polyline clip-path="url(#clip230)" style="stroke:#000000; stroke-linecap:round; stroke-linejoin:round; stroke-width:4; stroke-opacity:1; fill:none" points="186.274,1486.45 2352.76,1486.45 "/>
<polyline clip-path="url(#clip230)" style="stroke:#000000; stroke-linecap:round; stroke-linejoin:round; stroke-width:4; stroke-opacity:1; fill:none" points="247.59,1486.45 247.59,1467.55 "/>
<polyline clip-path="url(#clip230)" style="stroke:#000000; stroke-linecap:round; stroke-linejoin:round; stroke-width:4; stroke-opacity:1; fill:none" points="738.103,1486.45 738.103,1467.55 "/>
<polyline clip-path="url(#clip230)" style="stroke:#000000; stroke-linecap:round; stroke-linejoin:round; stroke-width:4; stroke-opacity:1; fill:none" points="1228.62,1486.45 1228.62,1467.55 "/>
<polyline clip-path="url(#clip230)" style="stroke:#000000; stroke-linecap:round; stroke-linejoin:round; stroke-width:4; stroke-opacity:1; fill:none" points="1719.13,1486.45 1719.13,1467.55 "/>
<polyline clip-path="url(#clip230)" style="stroke:#000000; stroke-linecap:round; stroke-linejoin:round; stroke-width:4; stroke-opacity:1; fill:none" points="2209.64,1486.45 2209.64,1467.55 "/>
<path clip-path="url(#clip230)" d="M224.974 1517.37 Q221.363 1517.37 219.534 1520.93 Q217.729 1524.47 217.729 1531.6 Q217.729 1538.71 219.534 1542.27 Q221.363 1545.82 224.974 1545.82 Q228.608 1545.82 230.414 1542.27 Q232.242 1538.71 232.242 1531.6 Q232.242 1524.47 230.414 1520.93 Q228.608 1517.37 224.974 1517.37 M224.974 1513.66 Q230.784 1513.66 233.84 1518.27 Q236.918 1522.85 236.918 1531.6 Q236.918 1540.33 233.84 1544.94 Q230.784 1549.52 224.974 1549.52 Q219.164 1549.52 216.085 1544.94 Q213.03 1540.33 213.03 1531.6 Q213.03 1522.85 216.085 1518.27 Q219.164 1513.66 224.974 1513.66 Z" fill="#000000" fill-rule="nonzero" fill-opacity="1" /><path clip-path="url(#clip230)" d="M245.136 1542.97 L250.02 1542.97 L250.02 1548.85 L245.136 1548.85 L245.136 1542.97 Z" fill="#000000" fill-rule="nonzero" fill-opacity="1" /><path clip-path="url(#clip230)" d="M270.205 1517.37 Q266.594 1517.37 264.765 1520.93 Q262.96 1524.47 262.96 1531.6 Q262.96 1538.71 264.765 1542.27 Q266.594 1545.82 270.205 1545.82 Q273.839 1545.82 275.645 1542.27 Q277.474 1538.71 277.474 1531.6 Q277.474 1524.47 275.645 1520.93 Q273.839 1517.37 270.205 1517.37 M270.205 1513.66 Q276.015 1513.66 279.071 1518.27 Q282.15 1522.85 282.15 1531.6 Q282.15 1540.33 279.071 1544.94 Q276.015 1549.52 270.205 1549.52 Q264.395 1549.52 261.316 1544.94 Q258.261 1540.33 258.261 1531.6 Q258.261 1522.85 261.316 1518.27 Q264.395 1513.66 270.205 1513.66 Z" fill="#000000" fill-rule="nonzero" fill-opacity="1" /><path clip-path="url(#clip230)" d="M715.985 1517.37 Q712.374 1517.37 710.545 1520.93 Q708.74 1524.47 708.74 1531.6 Q708.74 1538.71 710.545 1542.27 Q712.374 1545.82 715.985 1545.82 Q719.619 1545.82 721.425 1542.27 Q723.253 1538.71 723.253 1531.6 Q723.253 1524.47 721.425 1520.93 Q719.619 1517.37 715.985 1517.37 M715.985 1513.66 Q721.795 1513.66 724.851 1518.27 Q727.929 1522.85 727.929 1531.6 Q727.929 1540.33 724.851 1544.94 Q721.795 1549.52 715.985 1549.52 Q710.175 1549.52 707.096 1544.94 Q704.041 1540.33 704.041 1531.6 Q704.041 1522.85 707.096 1518.27 Q710.175 1513.66 715.985 1513.66 Z" fill="#000000" fill-rule="nonzero" fill-opacity="1" /><path clip-path="url(#clip230)" d="M736.147 1542.97 L741.031 1542.97 L741.031 1548.85 L736.147 1548.85 L736.147 1542.97 Z" fill="#000000" fill-rule="nonzero" fill-opacity="1" /><path clip-path="url(#clip230)" d="M751.262 1514.29 L769.619 1514.29 L769.619 1518.22 L755.545 1518.22 L755.545 1526.7 Q756.563 1526.35 757.582 1526.19 Q758.6 1526 759.619 1526 Q765.406 1526 768.786 1529.17 Q772.165 1532.34 772.165 1537.76 Q772.165 1543.34 768.693 1546.44 Q765.221 1549.52 758.901 1549.52 Q756.725 1549.52 754.457 1549.15 Q752.212 1548.78 749.804 1548.04 L749.804 1543.34 Q751.887 1544.47 754.11 1545.03 Q756.332 1545.58 758.809 1545.58 Q762.813 1545.58 765.151 1543.48 Q767.489 1541.37 767.489 1537.76 Q767.489 1534.15 765.151 1532.04 Q762.813 1529.94 758.809 1529.94 Q756.934 1529.94 755.059 1530.35 Q753.207 1530.77 751.262 1531.65 L751.262 1514.29 Z" fill="#000000" fill-rule="nonzero" fill-opacity="1" /><path clip-path="url(#clip230)" d="M1195.77 1544.91 L1203.41 1544.91 L1203.41 1518.55 L1195.1 1520.21 L1195.1 1515.95 L1203.36 1514.29 L1208.04 1514.29 L1208.04 1544.91 L1215.68 1544.91 L1215.68 1548.85 L1195.77 1548.85 L1195.77 1544.91 Z" fill="#000000" fill-rule="nonzero" fill-opacity="1" /><path clip-path="url(#clip230)" d="M1225.12 1542.97 L1230.01 1542.97 L1230.01 1548.85 L1225.12 1548.85 L1225.12 1542.97 Z" fill="#000000" fill-rule="nonzero" fill-opacity="1" /><path clip-path="url(#clip230)" d="M1250.19 1517.37 Q1246.58 1517.37 1244.75 1520.93 Q1242.94 1524.47 1242.94 1531.6 Q1242.94 1538.71 1244.75 1542.27 Q1246.58 1545.82 1250.19 1545.82 Q1253.82 1545.82 1255.63 1542.27 Q1257.46 1538.71 1257.46 1531.6 Q1257.46 1524.47 1255.63 1520.93 Q1253.82 1517.37 1250.19 1517.37 M1250.19 1513.66 Q1256 1513.66 1259.06 1518.27 Q1262.13 1522.85 1262.13 1531.6 Q1262.13 1540.33 1259.06 1544.94 Q1256 1549.52 1250.19 1549.52 Q1244.38 1549.52 1241.3 1544.94 Q1238.25 1540.33 1238.25 1531.6 Q1238.25 1522.85 1241.3 1518.27 Q1244.38 1513.66 1250.19 1513.66 Z" fill="#000000" fill-rule="nonzero" fill-opacity="1" /><path clip-path="url(#clip230)" d="M1686.78 1544.91 L1694.42 1544.91 L1694.42 1518.55 L1686.11 1520.21 L1686.11 1515.95 L1694.37 1514.29 L1699.05 1514.29 L1699.05 1544.91 L1706.69 1544.91 L1706.69 1548.85 L1686.78 1548.85 L1686.78 1544.91 Z" fill="#000000" fill-rule="nonzero" fill-opacity="1" /><path clip-path="url(#clip230)" d="M1716.13 1542.97 L1721.02 1542.97 L1721.02 1548.85 L1716.13 1548.85 L1716.13 1542.97 Z" fill="#000000" fill-rule="nonzero" fill-opacity="1" /><path clip-path="url(#clip230)" d="M1731.25 1514.29 L1749.6 1514.29 L1749.6 1518.22 L1735.53 1518.22 L1735.53 1526.7 Q1736.55 1526.35 1737.57 1526.19 Q1738.59 1526 1739.6 1526 Q1745.39 1526 1748.77 1529.17 Q1752.15 1532.34 1752.15 1537.76 Q1752.15 1543.34 1748.68 1546.44 Q1745.21 1549.52 1738.89 1549.52 Q1736.71 1549.52 1734.44 1549.15 Q1732.2 1548.78 1729.79 1548.04 L1729.79 1543.34 Q1731.87 1544.47 1734.09 1545.03 Q1736.32 1545.58 1738.79 1545.58 Q1742.8 1545.58 1745.14 1543.48 Q1747.47 1541.37 1747.47 1537.76 Q1747.47 1534.15 1745.14 1532.04 Q1742.8 1529.94 1738.79 1529.94 Q1736.92 1529.94 1735.04 1530.35 Q1733.19 1530.77 1731.25 1531.65 L1731.25 1514.29 Z" fill="#000000" fill-rule="nonzero" fill-opacity="1" /><path clip-path="url(#clip230)" d="M2180.88 1544.91 L2197.2 1544.91 L2197.2 1548.85 L2175.26 1548.85 L2175.26 1544.91 Q2177.92 1542.16 2182.5 1537.53 Q2187.11 1532.88 2188.29 1531.53 Q2190.53 1529.01 2191.41 1527.27 Q2192.32 1525.51 2192.32 1523.82 Q2192.32 1521.07 2190.37 1519.33 Q2188.45 1517.6 2185.35 1517.6 Q2183.15 1517.6 2180.7 1518.36 Q2178.27 1519.13 2175.49 1520.68 L2175.49 1515.95 Q2178.31 1514.82 2180.77 1514.24 Q2183.22 1513.66 2185.26 1513.66 Q2190.63 1513.66 2193.82 1516.35 Q2197.02 1519.03 2197.02 1523.52 Q2197.02 1525.65 2196.21 1527.57 Q2195.42 1529.47 2193.31 1532.07 Q2192.73 1532.74 2189.63 1535.95 Q2186.53 1539.15 2180.88 1544.91 Z" fill="#000000" fill-rule="nonzero" fill-opacity="1" /><path clip-path="url(#clip230)" d="M2207.02 1542.97 L2211.9 1542.97 L2211.9 1548.85 L2207.02 1548.85 L2207.02 1542.97 Z" fill="#000000" fill-rule="nonzero" fill-opacity="1" /><path clip-path="url(#clip230)" d="M2232.08 1517.37 Q2228.47 1517.37 2226.64 1520.93 Q2224.84 1524.47 2224.84 1531.6 Q2224.84 1538.71 2226.64 1542.27 Q2228.47 1545.82 2232.08 1545.82 Q2235.72 1545.82 2237.52 1542.27 Q2239.35 1538.71 2239.35 1531.6 Q2239.35 1524.47 2237.52 1520.93 Q2235.72 1517.37 2232.08 1517.37 M2232.08 1513.66 Q2237.89 1513.66 2240.95 1518.27 Q2244.03 1522.85 2244.03 1531.6 Q2244.03 1540.33 2240.95 1544.94 Q2237.89 1549.52 2232.08 1549.52 Q2226.27 1549.52 2223.2 1544.94 Q2220.14 1540.33 2220.14 1531.6 Q2220.14 1522.85 2223.2 1518.27 Q2226.27 1513.66 2232.08 1513.66 Z" fill="#000000" fill-rule="nonzero" fill-opacity="1" /><polyline clip-path="url(#clip230)" style="stroke:#000000; stroke-linecap:round; stroke-linejoin:round; stroke-width:4; stroke-opacity:1; fill:none" points="186.274,1486.45 186.274,47.2441 "/>
<polyline clip-path="url(#clip230)" style="stroke:#000000; stroke-linecap:round; stroke-linejoin:round; stroke-width:4; stroke-opacity:1; fill:none" points="186.274,1445.72 205.172,1445.72 "/>
<polyline clip-path="url(#clip230)" style="stroke:#000000; stroke-linecap:round; stroke-linejoin:round; stroke-width:4; stroke-opacity:1; fill:none" points="186.274,1106.28 205.172,1106.28 "/>
<polyline clip-path="url(#clip230)" style="stroke:#000000; stroke-linecap:round; stroke-linejoin:round; stroke-width:4; stroke-opacity:1; fill:none" points="186.274,766.846 205.172,766.846 "/>
<polyline clip-path="url(#clip230)" style="stroke:#000000; stroke-linecap:round; stroke-linejoin:round; stroke-width:4; stroke-opacity:1; fill:none" points="186.274,427.411 205.172,427.411 "/>
<polyline clip-path="url(#clip230)" style="stroke:#000000; stroke-linecap:round; stroke-linejoin:round; stroke-width:4; stroke-opacity:1; fill:none" points="186.274,87.9763 205.172,87.9763 "/>
<path clip-path="url(#clip230)" d="M62.9365 1431.51 Q59.3254 1431.51 57.4967 1435.08 Q55.6912 1438.62 55.6912 1445.75 Q55.6912 1452.86 57.4967 1456.42 Q59.3254 1459.96 62.9365 1459.96 Q66.5707 1459.96 68.3763 1456.42 Q70.205 1452.86 70.205 1445.75 Q70.205 1438.62 68.3763 1435.08 Q66.5707 1431.51 62.9365 1431.51 M62.9365 1427.81 Q68.7467 1427.81 71.8022 1432.42 Q74.8809 1437 74.8809 1445.75 Q74.8809 1454.48 71.8022 1459.08 Q68.7467 1463.67 62.9365 1463.67 Q57.1264 1463.67 54.0477 1459.08 Q50.9921 1454.48 50.9921 1445.75 Q50.9921 1437 54.0477 1432.42 Q57.1264 1427.81 62.9365 1427.81 Z" fill="#000000" fill-rule="nonzero" fill-opacity="1" /><path clip-path="url(#clip230)" d="M83.0984 1457.12 L87.9827 1457.12 L87.9827 1463 L83.0984 1463 L83.0984 1457.12 Z" fill="#000000" fill-rule="nonzero" fill-opacity="1" /><path clip-path="url(#clip230)" d="M108.168 1431.51 Q104.557 1431.51 102.728 1435.08 Q100.922 1438.62 100.922 1445.75 Q100.922 1452.86 102.728 1456.42 Q104.557 1459.96 108.168 1459.96 Q111.802 1459.96 113.608 1456.42 Q115.436 1452.86 115.436 1445.75 Q115.436 1438.62 113.608 1435.08 Q111.802 1431.51 108.168 1431.51 M108.168 1427.81 Q113.978 1427.81 117.033 1432.42 Q120.112 1437 120.112 1445.75 Q120.112 1454.48 117.033 1459.08 Q113.978 1463.67 108.168 1463.67 Q102.358 1463.67 99.2789 1459.08 Q96.2234 1454.48 96.2234 1445.75 Q96.2234 1437 99.2789 1432.42 Q102.358 1427.81 108.168 1427.81 Z" fill="#000000" fill-rule="nonzero" fill-opacity="1" /><path clip-path="url(#clip230)" d="M138.33 1431.51 Q134.719 1431.51 132.89 1435.08 Q131.084 1438.62 131.084 1445.75 Q131.084 1452.86 132.89 1456.42 Q134.719 1459.96 138.33 1459.96 Q141.964 1459.96 143.769 1456.42 Q145.598 1452.86 145.598 1445.75 Q145.598 1438.62 143.769 1435.08 Q141.964 1431.51 138.33 1431.51 M138.33 1427.81 Q144.14 1427.81 147.195 1432.42 Q150.274 1437 150.274 1445.75 Q150.274 1454.48 147.195 1459.08 Q144.14 1463.67 138.33 1463.67 Q132.519 1463.67 129.441 1459.08 Q126.385 1454.48 126.385 1445.75 Q126.385 1437 129.441 1432.42 Q132.519 1427.81 138.33 1427.81 Z" fill="#000000" fill-rule="nonzero" fill-opacity="1" /><path clip-path="url(#clip230)" d="M63.9319 1092.08 Q60.3208 1092.08 58.4921 1095.64 Q56.6865 1099.19 56.6865 1106.32 Q56.6865 1113.42 58.4921 1116.99 Q60.3208 1120.53 63.9319 1120.53 Q67.5661 1120.53 69.3717 1116.99 Q71.2004 1113.42 71.2004 1106.32 Q71.2004 1099.19 69.3717 1095.64 Q67.5661 1092.08 63.9319 1092.08 M63.9319 1088.38 Q69.742 1088.38 72.7976 1092.98 Q75.8763 1097.57 75.8763 1106.32 Q75.8763 1115.04 72.7976 1119.65 Q69.742 1124.23 63.9319 1124.23 Q58.1217 1124.23 55.043 1119.65 Q51.9875 1115.04 51.9875 1106.32 Q51.9875 1097.57 55.043 1092.98 Q58.1217 1088.38 63.9319 1088.38 Z" fill="#000000" fill-rule="nonzero" fill-opacity="1" /><path clip-path="url(#clip230)" d="M84.0938 1117.68 L88.978 1117.68 L88.978 1123.56 L84.0938 1123.56 L84.0938 1117.68 Z" fill="#000000" fill-rule="nonzero" fill-opacity="1" /><path clip-path="url(#clip230)" d="M103.191 1119.63 L119.51 1119.63 L119.51 1123.56 L97.566 1123.56 L97.566 1119.63 Q100.228 1116.87 104.811 1112.24 Q109.418 1107.59 110.598 1106.25 Q112.844 1103.72 113.723 1101.99 Q114.626 1100.23 114.626 1098.54 Q114.626 1095.78 112.682 1094.05 Q110.76 1092.31 107.658 1092.31 Q105.459 1092.31 103.006 1093.07 Q100.575 1093.84 97.7974 1095.39 L97.7974 1090.67 Q100.621 1089.53 103.075 1088.95 Q105.529 1088.38 107.566 1088.38 Q112.936 1088.38 116.131 1091.06 Q119.325 1093.75 119.325 1098.24 Q119.325 1100.37 118.515 1102.29 Q117.728 1104.19 115.621 1106.78 Q115.043 1107.45 111.941 1110.67 Q108.839 1113.86 103.191 1119.63 Z" fill="#000000" fill-rule="nonzero" fill-opacity="1" /><path clip-path="url(#clip230)" d="M129.371 1089 L147.728 1089 L147.728 1092.94 L133.654 1092.94 L133.654 1101.41 Q134.672 1101.06 135.691 1100.9 Q136.709 1100.71 137.728 1100.71 Q143.515 1100.71 146.894 1103.89 Q150.274 1107.06 150.274 1112.47 Q150.274 1118.05 146.802 1121.15 Q143.33 1124.23 137.01 1124.23 Q134.834 1124.23 132.566 1123.86 Q130.32 1123.49 127.913 1122.75 L127.913 1118.05 Q129.996 1119.19 132.219 1119.74 Q134.441 1120.3 136.918 1120.3 Q140.922 1120.3 143.26 1118.19 Q145.598 1116.08 145.598 1112.47 Q145.598 1108.86 143.26 1106.76 Q140.922 1104.65 136.918 1104.65 Q135.043 1104.65 133.168 1105.07 Q131.316 1105.48 129.371 1106.36 L129.371 1089 Z" fill="#000000" fill-rule="nonzero" fill-opacity="1" /><path clip-path="url(#clip230)" d="M62.9365 752.645 Q59.3254 752.645 57.4967 756.209 Q55.6912 759.751 55.6912 766.881 Q55.6912 773.987 57.4967 777.552 Q59.3254 781.094 62.9365 781.094 Q66.5707 781.094 68.3763 777.552 Q70.205 773.987 70.205 766.881 Q70.205 759.751 68.3763 756.209 Q66.5707 752.645 62.9365 752.645 M62.9365 748.941 Q68.7467 748.941 71.8022 753.547 Q74.8809 758.131 74.8809 766.881 Q74.8809 775.608 71.8022 780.214 Q68.7467 784.797 62.9365 784.797 Q57.1264 784.797 54.0477 780.214 Q50.9921 775.608 50.9921 766.881 Q50.9921 758.131 54.0477 753.547 Q57.1264 748.941 62.9365 748.941 Z" fill="#000000" fill-rule="nonzero" fill-opacity="1" /><path clip-path="url(#clip230)" d="M83.0984 778.246 L87.9827 778.246 L87.9827 784.126 L83.0984 784.126 L83.0984 778.246 Z" fill="#000000" fill-rule="nonzero" fill-opacity="1" /><path clip-path="url(#clip230)" d="M98.2141 749.566 L116.57 749.566 L116.57 753.501 L102.496 753.501 L102.496 761.973 Q103.515 761.626 104.534 761.464 Q105.552 761.279 106.571 761.279 Q112.358 761.279 115.737 764.45 Q119.117 767.621 119.117 773.038 Q119.117 778.617 115.645 781.719 Q112.172 784.797 105.853 784.797 Q103.677 784.797 101.409 784.427 Q99.1632 784.057 96.7558 783.316 L96.7558 778.617 Q98.8391 779.751 101.061 780.307 Q103.284 780.862 105.76 780.862 Q109.765 780.862 112.103 778.756 Q114.441 776.649 114.441 773.038 Q114.441 769.427 112.103 767.321 Q109.765 765.214 105.76 765.214 Q103.885 765.214 102.01 765.631 Q100.159 766.047 98.2141 766.927 L98.2141 749.566 Z" fill="#000000" fill-rule="nonzero" fill-opacity="1" /><path clip-path="url(#clip230)" d="M138.33 752.645 Q134.719 752.645 132.89 756.209 Q131.084 759.751 131.084 766.881 Q131.084 773.987 132.89 777.552 Q134.719 781.094 138.33 781.094 Q141.964 781.094 143.769 777.552 Q145.598 773.987 145.598 766.881 Q145.598 759.751 143.769 756.209 Q141.964 752.645 138.33 752.645 M138.33 748.941 Q144.14 748.941 147.195 753.547 Q150.274 758.131 150.274 766.881 Q150.274 775.608 147.195 780.214 Q144.14 784.797 138.33 784.797 Q132.519 784.797 129.441 780.214 Q126.385 775.608 126.385 766.881 Q126.385 758.131 129.441 753.547 Q132.519 748.941 138.33 748.941 Z" fill="#000000" fill-rule="nonzero" fill-opacity="1" /><path clip-path="url(#clip230)" d="M63.9319 413.21 Q60.3208 413.21 58.4921 416.775 Q56.6865 420.316 56.6865 427.446 Q56.6865 434.552 58.4921 438.117 Q60.3208 441.659 63.9319 441.659 Q67.5661 441.659 69.3717 438.117 Q71.2004 434.552 71.2004 427.446 Q71.2004 420.316 69.3717 416.775 Q67.5661 413.21 63.9319 413.21 M63.9319 409.506 Q69.742 409.506 72.7976 414.113 Q75.8763 418.696 75.8763 427.446 Q75.8763 436.173 72.7976 440.779 Q69.742 445.362 63.9319 445.362 Q58.1217 445.362 55.043 440.779 Q51.9875 436.173 51.9875 427.446 Q51.9875 418.696 55.043 414.113 Q58.1217 409.506 63.9319 409.506 Z" fill="#000000" fill-rule="nonzero" fill-opacity="1" /><path clip-path="url(#clip230)" d="M84.0938 438.812 L88.978 438.812 L88.978 444.691 L84.0938 444.691 L84.0938 438.812 Z" fill="#000000" fill-rule="nonzero" fill-opacity="1" /><path clip-path="url(#clip230)" d="M97.9826 410.131 L120.205 410.131 L120.205 412.122 L107.658 444.691 L102.774 444.691 L114.58 414.066 L97.9826 414.066 L97.9826 410.131 Z" fill="#000000" fill-rule="nonzero" fill-opacity="1" /><path clip-path="url(#clip230)" d="M129.371 410.131 L147.728 410.131 L147.728 414.066 L133.654 414.066 L133.654 422.538 Q134.672 422.191 135.691 422.029 Q136.709 421.844 137.728 421.844 Q143.515 421.844 146.894 425.015 Q150.274 428.187 150.274 433.603 Q150.274 439.182 146.802 442.284 Q143.33 445.362 137.01 445.362 Q134.834 445.362 132.566 444.992 Q130.32 444.622 127.913 443.881 L127.913 439.182 Q129.996 440.316 132.219 440.872 Q134.441 441.427 136.918 441.427 Q140.922 441.427 143.26 439.321 Q145.598 437.214 145.598 433.603 Q145.598 429.992 143.26 427.886 Q140.922 425.779 136.918 425.779 Q135.043 425.779 133.168 426.196 Q131.316 426.613 129.371 427.492 L129.371 410.131 Z" fill="#000000" fill-rule="nonzero" fill-opacity="1" /><path clip-path="url(#clip230)" d="M53.7467 101.321 L61.3856 101.321 L61.3856 74.9555 L53.0754 76.6222 L53.0754 72.3629 L61.3393 70.6963 L66.0152 70.6963 L66.0152 101.321 L73.654 101.321 L73.654 105.256 L53.7467 105.256 L53.7467 101.321 Z" fill="#000000" fill-rule="nonzero" fill-opacity="1" /><path clip-path="url(#clip230)" d="M83.0984 99.3767 L87.9827 99.3767 L87.9827 105.256 L83.0984 105.256 L83.0984 99.3767 Z" fill="#000000" fill-rule="nonzero" fill-opacity="1" /><path clip-path="url(#clip230)" d="M108.168 73.775 Q104.557 73.775 102.728 77.3398 Q100.922 80.8814 100.922 88.011 Q100.922 95.1174 102.728 98.6822 Q104.557 102.224 108.168 102.224 Q111.802 102.224 113.608 98.6822 Q115.436 95.1174 115.436 88.011 Q115.436 80.8814 113.608 77.3398 Q111.802 73.775 108.168 73.775 M108.168 70.0713 Q113.978 70.0713 117.033 74.6777 Q120.112 79.261 120.112 88.011 Q120.112 96.7378 117.033 101.344 Q113.978 105.928 108.168 105.928 Q102.358 105.928 99.2789 101.344 Q96.2234 96.7378 96.2234 88.011 Q96.2234 79.261 99.2789 74.6777 Q102.358 70.0713 108.168 70.0713 Z" fill="#000000" fill-rule="nonzero" fill-opacity="1" /><path clip-path="url(#clip230)" d="M138.33 73.775 Q134.719 73.775 132.89 77.3398 Q131.084 80.8814 131.084 88.011 Q131.084 95.1174 132.89 98.6822 Q134.719 102.224 138.33 102.224 Q141.964 102.224 143.769 98.6822 Q145.598 95.1174 145.598 88.011 Q145.598 80.8814 143.769 77.3398 Q141.964 73.775 138.33 73.775 M138.33 70.0713 Q144.14 70.0713 147.195 74.6777 Q150.274 79.261 150.274 88.011 Q150.274 96.7378 147.195 101.344 Q144.14 105.928 138.33 105.928 Q132.519 105.928 129.441 101.344 Q126.385 96.7378 126.385 88.011 Q126.385 79.261 129.441 74.6777 Q132.519 70.0713 138.33 70.0713 Z" fill="#000000" fill-rule="nonzero" fill-opacity="1" /><polyline clip-path="url(#clip232)" style="stroke:#009af9; stroke-linecap:round; stroke-linejoin:round; stroke-width:4; stroke-opacity:1; fill:none" points="247.59,1445.72 255.765,1445.72 263.94,1445.72 272.116,1445.72 280.291,1445.72 288.467,1445.72 296.642,1445.72 304.817,1445.72 312.993,1445.72 321.168,1445.72 329.344,1445.72 337.519,1445.72 345.694,1445.72 353.87,1445.72 362.045,1445.72 370.221,1445.72 378.396,1445.72 386.571,1445.72 394.747,1445.72 402.922,1445.72 411.098,1445.72 419.273,1445.72 427.448,1445.72 435.624,1445.72 443.799,1445.72 451.975,1445.72 460.15,1445.72 468.325,1445.72 476.501,1445.72 484.676,1445.72 492.852,1445.72 501.027,1445.72 509.202,1445.72 517.378,1445.72 525.553,1445.72 533.729,1445.72 541.904,1445.72 550.079,1445.72 558.255,1445.72 566.43,1445.72 574.606,1445.72 582.781,1445.72 590.956,1445.72 599.132,1445.72 607.307,1445.72 615.483,1445.72 623.658,1445.72 631.833,1445.72 640.009,1445.72 648.184,1445.72 656.36,1445.72 664.535,1445.72 672.711,1445.72 680.886,1445.72 689.061,1445.72 697.237,1445.72 705.412,1445.72 713.588,1445.72 721.763,1445.72 729.938,1445.72 738.114,1445.72 746.289,1445.72 754.465,1445.72 762.64,1445.72 770.815,1445.72 778.991,1445.72 787.166,1445.72 795.342,1445.72 803.517,1445.72 811.692,1445.72 819.868,1445.72 828.043,1445.72 836.219,1445.72 844.394,1445.72 852.569,1445.72 860.745,1445.72 868.92,1445.72 877.096,1445.72 885.271,1445.72 893.446,1445.72 901.622,1445.72 909.797,1445.72 917.973,1445.72 926.148,1445.72 934.323,1445.72 942.499,1445.72 950.674,1445.72 958.85,1445.72 967.025,1445.72 975.2,1445.72 983.376,1445.72 991.551,1445.72 999.727,1445.72 1007.9,1445.72 1016.08,1445.72 1024.25,1445.72 1032.43,1445.72 1040.6,1445.72 1048.78,1445.72 1056.95,1445.72 1065.13,1445.72 1073.31,1445.72 1081.48,1445.72 1089.66,1445.72 1097.83,1445.72 1106.01,1445.72 1114.18,1445.72 1122.36,1445.72 1130.53,1445.72 1138.71,1445.72 1146.88,1445.72 1155.06,1445.72 1163.23,1445.72 1171.41,1445.72 1179.59,1445.72 1187.76,1445.72 1195.94,1445.72 1204.11,1445.72 1212.29,1445.72 1220.46,1445.72 1228.64,1445.72 1236.81,1445.72 1244.99,1445.72 1253.16,1445.72 1261.34,1445.72 1269.51,1445.72 1277.69,1445.72 1285.87,1445.72 1294.04,1445.72 1302.22,1445.72 1310.39,1445.72 1318.57,1445.72 1326.74,1445.72 1334.92,1445.72 1343.09,1445.72 1351.27,1445.72 1359.44,1445.72 1367.62,1445.72 1375.8,1445.72 1383.97,1445.72 1392.15,1445.72 1400.32,1445.72 1408.5,1445.72 1416.67,1445.72 1424.85,1445.72 1433.02,1445.72 1441.2,1445.72 1449.37,1445.72 1457.55,1445.72 1465.72,1445.72 1473.9,1445.72 1482.08,1445.72 1490.25,1445.72 1498.43,1445.72 1506.6,1445.72 1514.78,1445.72 1522.95,1445.72 1531.13,1445.72 1539.3,1445.72 1547.48,1445.72 1555.65,1445.72 1563.83,1445.72 1572,1445.72 1580.18,1445.72 1588.36,1445.72 1596.53,1445.72 1604.71,1445.72 1612.88,1445.72 1621.06,1445.72 1629.23,1445.72 1637.41,1445.72 1645.58,1445.72 1653.76,1445.72 1661.93,1445.72 1670.11,1445.72 1678.29,1445.72 1686.46,1445.72 1694.64,1445.72 1702.81,1445.72 1710.99,1445.72 1719.16,1445.72 1727.34,1445.72 1735.51,1445.72 1743.69,1445.72 1751.86,1445.72 1760.04,1445.72 1768.21,1445.72 1776.39,1445.72 1784.57,1445.72 1792.74,1445.72 1800.92,1445.72 1809.09,1445.72 1817.27,1445.72 1825.44,1445.72 1833.62,1445.72 1841.79,1445.72 1849.97,1445.72 1858.14,1445.72 1866.32,1445.72 1874.49,1445.72 1882.67,1445.72 1890.85,1445.72 1899.02,1445.72 1907.2,1445.72 1915.37,1445.72 1923.55,1445.72 1931.72,1445.72 1939.9,1445.72 1948.07,1445.72 1956.25,1445.72 1964.42,1445.72 1972.6,1445.72 1980.78,1445.72 1988.95,1445.72 1997.13,1445.72 2005.3,1445.72 2013.48,1445.72 2021.65,1445.72 2029.83,1445.72 2038,1445.72 2046.18,1445.72 2054.35,1445.72 2062.53,1445.72 2070.7,1445.72 2078.88,1445.72 2087.06,1445.72 2095.23,1445.72 2103.41,1445.72 2111.58,1445.72 2119.76,1445.72 2127.93,1445.72 2136.11,1445.72 2144.28,1445.72 2152.46,1445.72 2160.63,1445.72 2168.81,1445.72 2176.98,1445.72 2185.16,1445.72 2193.34,1445.72 2201.51,1445.72 2209.69,1445.72 2217.86,1445.72 2226.04,1445.72 2234.21,1445.72 2242.39,1445.72 2250.56,1445.72 2258.74,1445.72 2266.91,1445.72 2275.09,1445.72 2283.26,1445.72 2291.44,1445.72 "/>
<path clip-path="url(#clip230)" d="M2011.46 198.898 L2280.54 198.898 L2280.54 95.2176 L2011.46 95.2176  Z" fill="#ffffff" fill-rule="evenodd" fill-opacity="1"/>
<polyline clip-path="url(#clip230)" style="stroke:#000000; stroke-linecap:round; stroke-linejoin:round; stroke-width:4; stroke-opacity:1; fill:none" points="2011.46,198.898 2280.54,198.898 2280.54,95.2176 2011.46,95.2176 2011.46,198.898 "/>
<polyline clip-path="url(#clip230)" style="stroke:#009af9; stroke-linecap:round; stroke-linejoin:round; stroke-width:4; stroke-opacity:1; fill:none" points="2035.53,147.058 2179.97,147.058 "/>
<path clip-path="url(#clip230)" d="M2217.88 166.745 Q2216.07 171.375 2214.36 172.787 Q2212.65 174.199 2209.78 174.199 L2206.38 174.199 L2206.38 170.634 L2208.88 170.634 Q2210.63 170.634 2211.61 169.8 Q2212.58 168.967 2213.76 165.865 L2214.52 163.921 L2204.04 138.412 L2208.55 138.412 L2216.65 158.689 L2224.76 138.412 L2229.27 138.412 L2217.88 166.745 Z" fill="#000000" fill-rule="nonzero" fill-opacity="1" /><path clip-path="url(#clip230)" d="M2236.56 160.402 L2244.2 160.402 L2244.2 134.037 L2235.89 135.703 L2235.89 131.444 L2244.15 129.778 L2248.83 129.778 L2248.83 160.402 L2256.47 160.402 L2256.47 164.338 L2236.56 164.338 L2236.56 160.402 Z" fill="#000000" fill-rule="nonzero" fill-opacity="1" /></svg>
