<?xml version="1.0" encoding="utf-8"?>
<svg xmlns="http://www.w3.org/2000/svg" xmlns:xlink="http://www.w3.org/1999/xlink" width="600" height="400" viewBox="0 0 2400 1600">
<defs>
  <clipPath id="clip650">
    <rect x="0" y="0" width="2400" height="1600"/>
  </clipPath>
</defs>
<path clip-path="url(#clip650)" d="M0 1600 L2400 1600 L2400 0 L0 0  Z" fill="#ffffff" fill-rule="evenodd" fill-opacity="1"/>
<defs>
  <clipPath id="clip651">
    <rect x="480" y="0" width="1681" height="1600"/>
  </clipPath>
</defs>
<path clip-path="url(#clip650)" d="M213.607 1423.18 L2352.76 1423.18 L2352.76 123.472 L213.607 123.472  Z" fill="#ffffff" fill-rule="evenodd" fill-opacity="1"/>
<defs>
  <clipPath id="clip652">
    <rect x="213" y="123" width="2140" height="1301"/>
  </clipPath>
</defs>
<polyline clip-path="url(#clip652)" style="stroke:#000000; stroke-linecap:round; stroke-linejoin:round; stroke-width:2; stroke-opacity:0.1; fill:none" points="270.105,1423.18 270.105,123.472 "/>
<polyline clip-path="url(#clip652)" style="stroke:#000000; stroke-linecap:round; stroke-linejoin:round; stroke-width:2; stroke-opacity:0.1; fill:none" points="674.527,1423.18 674.527,123.472 "/>
<polyline clip-path="url(#clip652)" style="stroke:#000000; stroke-linecap:round; stroke-linejoin:round; stroke-width:2; stroke-opacity:0.1; fill:none" points="1078.95,1423.18 1078.95,123.472 "/>
<polyline clip-path="url(#clip652)" style="stroke:#000000; stroke-linecap:round; stroke-linejoin:round; stroke-width:2; stroke-opacity:0.1; fill:none" points="1483.37,1423.18 1483.37,123.472 "/>
<polyline clip-path="url(#clip652)" style="stroke:#000000; stroke-linecap:round; stroke-linejoin:round; stroke-width:2; stroke-opacity:0.1; fill:none" points="1887.79,1423.18 1887.79,123.472 "/>
<polyline clip-path="url(#clip652)" style="stroke:#000000; stroke-linecap:round; stroke-linejoin:round; stroke-width:2; stroke-opacity:0.1; fill:none" points="2292.21,1423.18 2292.21,123.472 "/>
<polyline clip-path="url(#clip652)" style="stroke:#000000; stroke-linecap:round; stroke-linejoin:round; stroke-width:2; stroke-opacity:0.1; fill:none" points="213.607,1009.41 2352.76,1009.41 "/>
<polyline clip-path="url(#clip652)" style="stroke:#000000; stroke-linecap:round; stroke-linejoin:round; stroke-width:2; stroke-opacity:0.1; fill:none" points="213.607,568.367 2352.76,568.367 "/>
<polyline clip-path="url(#clip652)" style="stroke:#000000; stroke-linecap:round; stroke-linejoin:round; stroke-width:2; stroke-opacity:0.1; fill:none" points="213.607,127.326 2352.76,127.326 "/>
<polyline clip-path="url(#clip650)" style="stroke:#000000; stroke-linecap:round; stroke-linejoin:round; stroke-width:4; stroke-opacity:1; fill:none" points="213.607,1423.18 2352.76,1423.18 "/>
<polyline clip-path="url(#clip650)" style="stroke:#000000; stroke-linecap:round; stroke-linejoin:round; stroke-width:4; stroke-opacity:1; fill:none" points="270.105,1423.18 270.105,1404.28 "/>
<polyline clip-path="url(#clip650)" style="stroke:#000000; stroke-linecap:round; stroke-linejoin:round; stroke-width:4; stroke-opacity:1; fill:none" points="674.527,1423.18 674.527,1404.28 "/>
<polyline clip-path="url(#clip650)" style="stroke:#000000; stroke-linecap:round; stroke-linejoin:round; stroke-width:4; stroke-opacity:1; fill:none" points="1078.95,1423.18 1078.95,1404.28 "/>
<polyline clip-path="url(#clip650)" style="stroke:#000000; stroke-linecap:round; stroke-linejoin:round; stroke-width:4; stroke-opacity:1; fill:none" points="1483.37,1423.18 1483.37,1404.28 "/>
<polyline clip-path="url(#clip650)" style="stroke:#000000; stroke-linecap:round; stroke-linejoin:round; stroke-width:4; stroke-opacity:1; fill:none" points="1887.79,1423.18 1887.79,1404.28 "/>
<polyline clip-path="url(#clip650)" style="stroke:#000000; stroke-linecap:round; stroke-linejoin:round; stroke-width:4; stroke-opacity:1; fill:none" points="2292.21,1423.18 2292.21,1404.28 "/>
<path clip-path="url(#clip650)" d="M270.105 1454.1 Q266.494 1454.1 264.665 1457.66 Q262.86 1461.2 262.86 1468.33 Q262.86 1475.44 264.665 1479.01 Q266.494 1482.55 270.105 1482.55 Q273.739 1482.55 275.545 1479.01 Q277.374 1475.44 277.374 1468.33 Q277.374 1461.2 275.545 1457.66 Q273.739 1454.1 270.105 1454.1 M270.105 1450.39 Q275.915 1450.39 278.971 1455 Q282.05 1459.58 282.05 1468.33 Q282.05 1477.06 278.971 1481.67 Q275.915 1486.25 270.105 1486.25 Q264.295 1486.25 261.216 1481.67 Q258.161 1477.06 258.161 1468.33 Q258.161 1459.58 261.216 1455 Q264.295 1450.39 270.105 1450.39 Z" fill="#000000" fill-rule="nonzero" fill-opacity="1" /><path clip-path="url(#clip650)" d="M634.134 1481.64 L641.772 1481.64 L641.772 1455.28 L633.462 1456.95 L633.462 1452.69 L641.726 1451.02 L646.402 1451.02 L646.402 1481.64 L654.041 1481.64 L654.041 1485.58 L634.134 1485.58 L634.134 1481.64 Z" fill="#000000" fill-rule="nonzero" fill-opacity="1" /><path clip-path="url(#clip650)" d="M673.485 1454.1 Q669.874 1454.1 668.046 1457.66 Q666.24 1461.2 666.24 1468.33 Q666.24 1475.44 668.046 1479.01 Q669.874 1482.55 673.485 1482.55 Q677.12 1482.55 678.925 1479.01 Q680.754 1475.44 680.754 1468.33 Q680.754 1461.2 678.925 1457.66 Q677.12 1454.1 673.485 1454.1 M673.485 1450.39 Q679.295 1450.39 682.351 1455 Q685.43 1459.58 685.43 1468.33 Q685.43 1477.06 682.351 1481.67 Q679.295 1486.25 673.485 1486.25 Q667.675 1486.25 664.596 1481.67 Q661.541 1477.06 661.541 1468.33 Q661.541 1459.58 664.596 1455 Q667.675 1450.39 673.485 1450.39 Z" fill="#000000" fill-rule="nonzero" fill-opacity="1" /><path clip-path="url(#clip650)" d="M703.647 1454.1 Q700.036 1454.1 698.207 1457.66 Q696.402 1461.2 696.402 1468.33 Q696.402 1475.44 698.207 1479.01 Q700.036 1482.55 703.647 1482.55 Q707.281 1482.55 709.087 1479.01 Q710.916 1475.44 710.916 1468.33 Q710.916 1461.2 709.087 1457.66 Q707.281 1454.1 703.647 1454.1 M703.647 1450.39 Q709.457 1450.39 712.513 1455 Q715.592 1459.58 715.592 1468.33 Q715.592 1477.06 712.513 1481.67 Q709.457 1486.25 703.647 1486.25 Q697.837 1486.25 694.758 1481.67 Q691.703 1477.06 691.703 1468.33 Q691.703 1459.58 694.758 1455 Q697.837 1450.39 703.647 1450.39 Z" fill="#000000" fill-rule="nonzero" fill-opacity="1" /><path clip-path="url(#clip650)" d="M1042.64 1481.64 L1058.96 1481.64 L1058.96 1485.58 L1037.02 1485.58 L1037.02 1481.64 Q1039.68 1478.89 1044.26 1474.26 Q1048.87 1469.61 1050.05 1468.27 Q1052.29 1465.74 1053.17 1464.01 Q1054.08 1462.25 1054.08 1460.56 Q1054.08 1457.8 1052.13 1456.07 Q1050.21 1454.33 1047.11 1454.33 Q1044.91 1454.33 1042.46 1455.09 Q1040.03 1455.86 1037.25 1457.41 L1037.25 1452.69 Q1040.07 1451.55 1042.53 1450.97 Q1044.98 1450.39 1047.02 1450.39 Q1052.39 1450.39 1055.58 1453.08 Q1058.78 1455.77 1058.78 1460.26 Q1058.78 1462.39 1057.97 1464.31 Q1057.18 1466.2 1055.07 1468.8 Q1054.49 1469.47 1051.39 1472.69 Q1048.29 1475.88 1042.64 1481.64 Z" fill="#000000" fill-rule="nonzero" fill-opacity="1" /><path clip-path="url(#clip650)" d="M1078.78 1454.1 Q1075.16 1454.1 1073.34 1457.66 Q1071.53 1461.2 1071.53 1468.33 Q1071.53 1475.44 1073.34 1479.01 Q1075.16 1482.55 1078.78 1482.55 Q1082.41 1482.55 1084.21 1479.01 Q1086.04 1475.44 1086.04 1468.33 Q1086.04 1461.2 1084.21 1457.66 Q1082.41 1454.1 1078.78 1454.1 M1078.78 1450.39 Q1084.59 1450.39 1087.64 1455 Q1090.72 1459.58 1090.72 1468.33 Q1090.72 1477.06 1087.64 1481.67 Q1084.59 1486.25 1078.78 1486.25 Q1072.96 1486.25 1069.89 1481.67 Q1066.83 1477.06 1066.83 1468.33 Q1066.83 1459.58 1069.89 1455 Q1072.96 1450.39 1078.78 1450.39 Z" fill="#000000" fill-rule="nonzero" fill-opacity="1" /><path clip-path="url(#clip650)" d="M1108.94 1454.1 Q1105.33 1454.1 1103.5 1457.66 Q1101.69 1461.2 1101.69 1468.33 Q1101.69 1475.44 1103.5 1479.01 Q1105.33 1482.55 1108.94 1482.55 Q1112.57 1482.55 1114.38 1479.01 Q1116.21 1475.44 1116.21 1468.33 Q1116.21 1461.2 1114.38 1457.66 Q1112.57 1454.1 1108.94 1454.1 M1108.94 1450.39 Q1114.75 1450.39 1117.8 1455 Q1120.88 1459.58 1120.88 1468.33 Q1120.88 1477.06 1117.8 1481.67 Q1114.75 1486.25 1108.94 1486.25 Q1103.13 1486.25 1100.05 1481.67 Q1096.99 1477.06 1096.99 1468.33 Q1096.99 1459.58 1100.05 1455 Q1103.13 1450.39 1108.94 1450.39 Z" fill="#000000" fill-rule="nonzero" fill-opacity="1" /><path clip-path="url(#clip650)" d="M1457.13 1466.95 Q1460.49 1467.66 1462.36 1469.93 Q1464.26 1472.2 1464.26 1475.53 Q1464.26 1480.65 1460.74 1483.45 Q1457.22 1486.25 1450.74 1486.25 Q1448.57 1486.25 1446.25 1485.81 Q1443.96 1485.39 1441.51 1484.54 L1441.51 1480.02 Q1443.45 1481.16 1445.77 1481.74 Q1448.08 1482.32 1450.6 1482.32 Q1455 1482.32 1457.29 1480.58 Q1459.61 1478.84 1459.61 1475.53 Q1459.61 1472.48 1457.46 1470.77 Q1455.33 1469.03 1451.51 1469.03 L1447.48 1469.03 L1447.48 1465.19 L1451.69 1465.19 Q1455.14 1465.19 1456.97 1463.82 Q1458.8 1462.43 1458.8 1459.84 Q1458.8 1457.18 1456.9 1455.77 Q1455.03 1454.33 1451.51 1454.33 Q1449.59 1454.33 1447.39 1454.75 Q1445.19 1455.16 1442.55 1456.04 L1442.55 1451.88 Q1445.21 1451.14 1447.53 1450.77 Q1449.86 1450.39 1451.92 1450.39 Q1457.25 1450.39 1460.35 1452.83 Q1463.45 1455.23 1463.45 1459.35 Q1463.45 1462.22 1461.81 1464.21 Q1460.16 1466.18 1457.13 1466.95 Z" fill="#000000" fill-rule="nonzero" fill-opacity="1" /><path clip-path="url(#clip650)" d="M1483.13 1454.1 Q1479.52 1454.1 1477.69 1457.66 Q1475.88 1461.2 1475.88 1468.33 Q1475.88 1475.44 1477.69 1479.01 Q1479.52 1482.55 1483.13 1482.55 Q1486.76 1482.55 1488.57 1479.01 Q1490.4 1475.44 1490.4 1468.33 Q1490.4 1461.2 1488.57 1457.66 Q1486.76 1454.1 1483.13 1454.1 M1483.13 1450.39 Q1488.94 1450.39 1491.99 1455 Q1495.07 1459.58 1495.07 1468.33 Q1495.07 1477.06 1491.99 1481.67 Q1488.94 1486.25 1483.13 1486.25 Q1477.32 1486.25 1474.24 1481.67 Q1471.18 1477.06 1471.18 1468.33 Q1471.18 1459.58 1474.24 1455 Q1477.32 1450.39 1483.13 1450.39 Z" fill="#000000" fill-rule="nonzero" fill-opacity="1" /><path clip-path="url(#clip650)" d="M1513.29 1454.1 Q1509.68 1454.1 1507.85 1457.66 Q1506.04 1461.2 1506.04 1468.33 Q1506.04 1475.44 1507.85 1479.01 Q1509.68 1482.55 1513.29 1482.55 Q1516.92 1482.55 1518.73 1479.01 Q1520.56 1475.44 1520.56 1468.33 Q1520.56 1461.2 1518.73 1457.66 Q1516.92 1454.1 1513.29 1454.1 M1513.29 1450.39 Q1519.1 1450.39 1522.15 1455 Q1525.23 1459.58 1525.23 1468.33 Q1525.23 1477.06 1522.15 1481.67 Q1519.1 1486.25 1513.29 1486.25 Q1507.48 1486.25 1504.4 1481.67 Q1501.34 1477.06 1501.34 1468.33 Q1501.34 1459.58 1504.4 1455 Q1507.48 1450.39 1513.29 1450.39 Z" fill="#000000" fill-rule="nonzero" fill-opacity="1" /><path clip-path="url(#clip650)" d="M1860.88 1455.09 L1849.08 1473.54 L1860.88 1473.54 L1860.88 1455.09 M1859.66 1451.02 L1865.54 1451.02 L1865.54 1473.54 L1870.47 1473.54 L1870.47 1477.43 L1865.54 1477.43 L1865.54 1485.58 L1860.88 1485.58 L1860.88 1477.43 L1845.28 1477.43 L1845.28 1472.92 L1859.66 1451.02 Z" fill="#000000" fill-rule="nonzero" fill-opacity="1" /><path clip-path="url(#clip650)" d="M1888.2 1454.1 Q1884.59 1454.1 1882.76 1457.66 Q1880.95 1461.2 1880.95 1468.33 Q1880.95 1475.44 1882.76 1479.01 Q1884.59 1482.55 1888.2 1482.55 Q1891.83 1482.55 1893.64 1479.01 Q1895.47 1475.44 1895.47 1468.33 Q1895.47 1461.2 1893.64 1457.66 Q1891.83 1454.1 1888.2 1454.1 M1888.2 1450.39 Q1894.01 1450.39 1897.06 1455 Q1900.14 1459.58 1900.14 1468.33 Q1900.14 1477.06 1897.06 1481.67 Q1894.01 1486.25 1888.2 1486.25 Q1882.39 1486.25 1879.31 1481.67 Q1876.25 1477.06 1876.25 1468.33 Q1876.25 1459.58 1879.31 1455 Q1882.39 1450.39 1888.2 1450.39 Z" fill="#000000" fill-rule="nonzero" fill-opacity="1" /><path clip-path="url(#clip650)" d="M1918.36 1454.1 Q1914.75 1454.1 1912.92 1457.66 Q1911.11 1461.2 1911.11 1468.33 Q1911.11 1475.44 1912.92 1479.01 Q1914.75 1482.55 1918.36 1482.55 Q1921.99 1482.55 1923.8 1479.01 Q1925.63 1475.44 1925.63 1468.33 Q1925.63 1461.2 1923.8 1457.66 Q1921.99 1454.1 1918.36 1454.1 M1918.36 1450.39 Q1924.17 1450.39 1927.22 1455 Q1930.3 1459.58 1930.3 1468.33 Q1930.3 1477.06 1927.22 1481.67 Q1924.17 1486.25 1918.36 1486.25 Q1912.55 1486.25 1909.47 1481.67 Q1906.41 1477.06 1906.41 1468.33 Q1906.41 1459.58 1909.47 1455 Q1912.55 1450.39 1918.36 1450.39 Z" fill="#000000" fill-rule="nonzero" fill-opacity="1" /><path clip-path="url(#clip650)" d="M2251.83 1451.02 L2270.19 1451.02 L2270.19 1454.96 L2256.11 1454.96 L2256.11 1463.43 Q2257.13 1463.08 2258.15 1462.92 Q2259.17 1462.73 2260.19 1462.73 Q2265.98 1462.73 2269.36 1465.9 Q2272.73 1469.08 2272.73 1474.49 Q2272.73 1480.07 2269.26 1483.17 Q2265.79 1486.25 2259.47 1486.25 Q2257.3 1486.25 2255.03 1485.88 Q2252.78 1485.51 2250.37 1484.77 L2250.37 1480.07 Q2252.46 1481.2 2254.68 1481.76 Q2256.9 1482.32 2259.38 1482.32 Q2263.38 1482.32 2265.72 1480.21 Q2268.06 1478.1 2268.06 1474.49 Q2268.06 1470.88 2265.72 1468.77 Q2263.38 1466.67 2259.38 1466.67 Q2257.5 1466.67 2255.63 1467.08 Q2253.78 1467.5 2251.83 1468.38 L2251.83 1451.02 Z" fill="#000000" fill-rule="nonzero" fill-opacity="1" /><path clip-path="url(#clip650)" d="M2291.95 1454.1 Q2288.34 1454.1 2286.51 1457.66 Q2284.7 1461.2 2284.7 1468.33 Q2284.7 1475.44 2286.51 1479.01 Q2288.34 1482.55 2291.95 1482.55 Q2295.58 1482.55 2297.39 1479.01 Q2299.22 1475.44 2299.22 1468.33 Q2299.22 1461.2 2297.39 1457.66 Q2295.58 1454.1 2291.95 1454.1 M2291.95 1450.39 Q2297.76 1450.39 2300.81 1455 Q2303.89 1459.58 2303.89 1468.33 Q2303.89 1477.06 2300.81 1481.67 Q2297.76 1486.25 2291.95 1486.25 Q2286.14 1486.25 2283.06 1481.67 Q2280 1477.06 2280 1468.33 Q2280 1459.58 2283.06 1455 Q2286.14 1450.39 2291.95 1450.39 Z" fill="#000000" fill-rule="nonzero" fill-opacity="1" /><path clip-path="url(#clip650)" d="M2322.11 1454.1 Q2318.5 1454.1 2316.67 1457.66 Q2314.86 1461.2 2314.86 1468.33 Q2314.86 1475.44 2316.67 1479.01 Q2318.5 1482.55 2322.11 1482.55 Q2325.74 1482.55 2327.55 1479.01 Q2329.38 1475.44 2329.38 1468.33 Q2329.38 1461.2 2327.55 1457.66 Q2325.74 1454.1 2322.11 1454.1 M2322.11 1450.39 Q2327.92 1450.39 2330.98 1455 Q2334.05 1459.58 2334.05 1468.33 Q2334.05 1477.06 2330.98 1481.67 Q2327.92 1486.25 2322.11 1486.25 Q2316.3 1486.25 2313.22 1481.67 Q2310.17 1477.06 2310.17 1468.33 Q2310.17 1459.58 2313.22 1455 Q2316.3 1450.39 2322.11 1450.39 Z" fill="#000000" fill-rule="nonzero" fill-opacity="1" /><path clip-path="url(#clip650)" d="M1282.24 1522.27 L1282.24 1532.4 L1294.31 1532.4 L1294.31 1536.95 L1282.24 1536.95 L1282.24 1556.3 Q1282.24 1560.66 1283.42 1561.9 Q1284.63 1563.14 1288.29 1563.14 L1294.31 1563.14 L1294.31 1568.04 L1288.29 1568.04 Q1281.51 1568.04 1278.93 1565.53 Q1276.35 1562.98 1276.35 1556.3 L1276.35 1536.95 L1272.06 1536.95 L1272.06 1532.4 L1276.35 1532.4 L1276.35 1522.27 L1282.24 1522.27 Z" fill="#000000" fill-rule="nonzero" fill-opacity="1" /><polyline clip-path="url(#clip650)" style="stroke:#000000; stroke-linecap:round; stroke-linejoin:round; stroke-width:4; stroke-opacity:1; fill:none" points="213.607,1423.18 213.607,123.472 "/>
<polyline clip-path="url(#clip650)" style="stroke:#000000; stroke-linecap:round; stroke-linejoin:round; stroke-width:4; stroke-opacity:1; fill:none" points="213.607,1009.41 232.505,1009.41 "/>
<polyline clip-path="url(#clip650)" style="stroke:#000000; stroke-linecap:round; stroke-linejoin:round; stroke-width:4; stroke-opacity:1; fill:none" points="213.607,568.367 232.505,568.367 "/>
<polyline clip-path="url(#clip650)" style="stroke:#000000; stroke-linecap:round; stroke-linejoin:round; stroke-width:4; stroke-opacity:1; fill:none" points="213.607,127.326 232.505,127.326 "/>
<path clip-path="url(#clip650)" d="M52.6602 1029.2 L60.2991 1029.2 L60.2991 1002.83 L51.9889 1004.5 L51.9889 1000.24 L60.2528 998.575 L64.9287 998.575 L64.9287 1029.2 L72.5675 1029.2 L72.5675 1033.13 L52.6602 1033.13 L52.6602 1029.2 Z" fill="#000000" fill-rule="nonzero" fill-opacity="1" /><path clip-path="url(#clip650)" d="M92.0119 1001.65 Q88.4008 1001.65 86.5721 1005.22 Q84.7665 1008.76 84.7665 1015.89 Q84.7665 1023 86.5721 1026.56 Q88.4008 1030.1 92.0119 1030.1 Q95.6461 1030.1 97.4517 1026.56 Q99.2804 1023 99.2804 1015.89 Q99.2804 1008.76 97.4517 1005.22 Q95.6461 1001.65 92.0119 1001.65 M92.0119 997.95 Q97.822 997.95 100.878 1002.56 Q103.956 1007.14 103.956 1015.89 Q103.956 1024.62 100.878 1029.22 Q97.822 1033.81 92.0119 1033.81 Q86.2017 1033.81 83.123 1029.22 Q80.0675 1024.62 80.0675 1015.89 Q80.0675 1007.14 83.123 1002.56 Q86.2017 997.95 92.0119 997.95 Z" fill="#000000" fill-rule="nonzero" fill-opacity="1" /><path clip-path="url(#clip650)" d="M103.956 992.051 L128.068 992.051 L128.068 995.248 L103.956 995.248 L103.956 992.051 Z" fill="#000000" fill-rule="nonzero" fill-opacity="1" /><path clip-path="url(#clip650)" d="M136.926 1002.53 L143.133 1002.53 L143.133 981.105 L136.381 982.459 L136.381 978.998 L143.095 977.644 L146.894 977.644 L146.894 1002.53 L153.101 1002.53 L153.101 1005.72 L136.926 1005.72 L136.926 1002.53 Z" fill="#000000" fill-rule="nonzero" fill-opacity="1" /><path clip-path="url(#clip650)" d="M161.433 1002.53 L167.639 1002.53 L167.639 981.105 L160.887 982.459 L160.887 978.998 L167.602 977.644 L171.401 977.644 L171.401 1002.53 L177.607 1002.53 L177.607 1005.72 L161.433 1005.72 L161.433 1002.53 Z" fill="#000000" fill-rule="nonzero" fill-opacity="1" /><path clip-path="url(#clip650)" d="M51.6634 588.159 L59.3023 588.159 L59.3023 561.793 L50.9921 563.46 L50.9921 559.201 L59.256 557.534 L63.9319 557.534 L63.9319 588.159 L71.5707 588.159 L71.5707 592.094 L51.6634 592.094 L51.6634 588.159 Z" fill="#000000" fill-rule="nonzero" fill-opacity="1" /><path clip-path="url(#clip650)" d="M91.0151 560.613 Q87.404 560.613 85.5753 564.178 Q83.7697 567.719 83.7697 574.849 Q83.7697 581.955 85.5753 585.52 Q87.404 589.062 91.0151 589.062 Q94.6493 589.062 96.4548 585.52 Q98.2835 581.955 98.2835 574.849 Q98.2835 567.719 96.4548 564.178 Q94.6493 560.613 91.0151 560.613 M91.0151 556.909 Q96.8252 556.909 99.8808 561.516 Q102.959 566.099 102.959 574.849 Q102.959 583.576 99.8808 588.182 Q96.8252 592.766 91.0151 592.766 Q85.2049 592.766 82.1262 588.182 Q79.0707 583.576 79.0707 574.849 Q79.0707 566.099 82.1262 561.516 Q85.2049 556.909 91.0151 556.909 Z" fill="#000000" fill-rule="nonzero" fill-opacity="1" /><path clip-path="url(#clip650)" d="M102.959 551.011 L127.071 551.011 L127.071 554.208 L102.959 554.208 L102.959 551.011 Z" fill="#000000" fill-rule="nonzero" fill-opacity="1" /><path clip-path="url(#clip650)" d="M135.929 561.486 L142.136 561.486 L142.136 540.064 L135.384 541.419 L135.384 537.958 L142.098 536.604 L145.898 536.604 L145.898 561.486 L152.104 561.486 L152.104 564.684 L135.929 564.684 L135.929 561.486 Z" fill="#000000" fill-rule="nonzero" fill-opacity="1" /><path clip-path="url(#clip650)" d="M167.903 539.105 Q164.969 539.105 163.483 542.002 Q162.016 544.879 162.016 550.672 Q162.016 556.446 163.483 559.342 Q164.969 562.22 167.903 562.22 Q170.855 562.22 172.322 559.342 Q173.808 556.446 173.808 550.672 Q173.808 544.879 172.322 542.002 Q170.855 539.105 167.903 539.105 M167.903 536.096 Q172.623 536.096 175.106 539.839 Q177.607 543.563 177.607 550.672 Q177.607 557.763 175.106 561.505 Q172.623 565.229 167.903 565.229 Q163.182 565.229 160.68 561.505 Q158.198 557.763 158.198 550.672 Q158.198 543.563 160.68 539.839 Q163.182 536.096 167.903 536.096 Z" fill="#000000" fill-rule="nonzero" fill-opacity="1" /><path clip-path="url(#clip650)" d="M76.3204 147.119 L83.9593 147.119 L83.9593 120.753 L75.6491 122.42 L75.6491 118.16 L83.913 116.494 L88.5889 116.494 L88.5889 147.119 L96.2277 147.119 L96.2277 151.054 L76.3204 151.054 L76.3204 147.119 Z" fill="#000000" fill-rule="nonzero" fill-opacity="1" /><path clip-path="url(#clip650)" d="M115.672 119.572 Q112.061 119.572 110.232 123.137 Q108.427 126.679 108.427 133.808 Q108.427 140.915 110.232 144.48 Q112.061 148.021 115.672 148.021 Q119.306 148.021 121.112 144.48 Q122.941 140.915 122.941 133.808 Q122.941 126.679 121.112 123.137 Q119.306 119.572 115.672 119.572 M115.672 115.869 Q121.482 115.869 124.538 120.475 Q127.616 125.059 127.616 133.808 Q127.616 142.535 124.538 147.142 Q121.482 151.725 115.672 151.725 Q109.862 151.725 106.783 147.142 Q103.728 142.535 103.728 133.808 Q103.728 125.059 106.783 120.475 Q109.862 115.869 115.672 115.869 Z" fill="#000000" fill-rule="nonzero" fill-opacity="1" /><path clip-path="url(#clip650)" d="M127.616 109.97 L151.728 109.97 L151.728 113.167 L127.616 113.167 L127.616 109.97 Z" fill="#000000" fill-rule="nonzero" fill-opacity="1" /><path clip-path="url(#clip650)" d="M160.041 123.06 L160.041 119.6 Q161.47 120.277 162.937 120.634 Q164.404 120.991 165.815 120.991 Q169.577 120.991 171.551 118.471 Q173.545 115.932 173.827 110.779 Q172.736 112.396 171.062 113.261 Q169.388 114.127 167.357 114.127 Q163.144 114.127 160.68 111.588 Q158.235 109.03 158.235 104.61 Q158.235 100.284 160.793 97.6698 Q163.351 95.0556 167.602 95.0556 Q172.473 95.0556 175.031 98.7983 Q177.607 102.522 177.607 109.632 Q177.607 116.271 174.448 120.239 Q171.307 124.189 165.984 124.189 Q164.555 124.189 163.088 123.907 Q161.621 123.625 160.041 123.06 M167.602 111.155 Q170.16 111.155 171.645 109.406 Q173.15 107.657 173.15 104.61 Q173.15 101.582 171.645 99.8327 Q170.16 98.0648 167.602 98.0648 Q165.044 98.0648 163.539 99.8327 Q162.053 101.582 162.053 104.61 Q162.053 107.657 163.539 109.406 Q165.044 111.155 167.602 111.155 Z" fill="#000000" fill-rule="nonzero" fill-opacity="1" /><path clip-path="url(#clip650)" d="M704.328 16.7545 L704.328 25.383 Q700.196 21.5346 695.497 19.6307 Q690.838 17.7268 685.572 17.7268 Q675.202 17.7268 669.693 24.0867 Q664.183 30.4061 664.183 42.3968 Q664.183 54.3469 669.693 60.7069 Q675.202 67.0263 685.572 67.0263 Q690.838 67.0263 695.497 65.1223 Q700.196 63.2184 704.328 59.3701 L704.328 67.9175 Q700.034 70.8341 695.213 72.2924 Q690.433 73.7508 685.086 73.7508 Q671.353 73.7508 663.454 65.3654 Q655.555 56.9395 655.555 42.3968 Q655.555 27.8135 663.454 19.4281 Q671.353 11.0023 685.086 11.0023 Q690.514 11.0023 695.294 12.4606 Q700.115 13.8784 704.328 16.7545 Z" fill="#000000" fill-rule="nonzero" fill-opacity="1" /><path clip-path="url(#clip650)" d="M734.223 32.4315 Q728.228 32.4315 724.744 37.1306 Q721.261 41.7891 721.261 49.9314 Q721.261 58.0738 724.704 62.7728 Q728.188 67.4314 734.223 67.4314 Q740.178 67.4314 743.662 62.7323 Q747.146 58.0333 747.146 49.9314 Q747.146 41.8701 743.662 37.1711 Q740.178 32.4315 734.223 32.4315 M734.223 26.1121 Q743.946 26.1121 749.495 32.4315 Q755.045 38.7509 755.045 49.9314 Q755.045 61.0714 749.495 67.4314 Q743.946 73.7508 734.223 73.7508 Q724.461 73.7508 718.911 67.4314 Q713.402 61.0714 713.402 49.9314 Q713.402 38.7509 718.911 32.4315 Q724.461 26.1121 734.223 26.1121 Z" fill="#000000" fill-rule="nonzero" fill-opacity="1" /><path clip-path="url(#clip650)" d="M802.724 35.9153 Q805.519 30.8922 809.408 28.5022 Q813.297 26.1121 818.563 26.1121 Q825.652 26.1121 829.501 31.0947 Q833.349 36.0368 833.349 45.1919 L833.349 72.576 L825.855 72.576 L825.855 45.4349 Q825.855 38.913 823.546 35.7533 Q821.237 32.5936 816.497 32.5936 Q810.704 32.5936 807.342 36.4419 Q803.98 40.2903 803.98 46.9338 L803.98 72.576 L796.486 72.576 L796.486 45.4349 Q796.486 38.8725 794.177 35.7533 Q791.868 32.5936 787.047 32.5936 Q781.335 32.5936 777.973 36.4824 Q774.611 40.3308 774.611 46.9338 L774.611 72.576 L767.117 72.576 L767.117 27.2059 L774.611 27.2059 L774.611 34.2544 Q777.163 30.082 780.728 28.0971 Q784.293 26.1121 789.194 26.1121 Q794.136 26.1121 797.58 28.6237 Q801.063 31.1352 802.724 35.9153 Z" fill="#000000" fill-rule="nonzero" fill-opacity="1" /><path clip-path="url(#clip650)" d="M855.426 65.7705 L855.426 89.8329 L847.932 89.8329 L847.932 27.2059 L855.426 27.2059 L855.426 34.0924 Q857.776 30.0415 861.341 28.0971 Q864.946 26.1121 869.929 26.1121 Q878.193 26.1121 883.337 32.6746 Q888.522 39.2371 888.522 49.9314 Q888.522 60.6258 883.337 67.1883 Q878.193 73.7508 869.929 73.7508 Q864.946 73.7508 861.341 71.8063 Q857.776 69.8214 855.426 65.7705 M880.785 49.9314 Q880.785 41.7081 877.382 37.0496 Q874.02 32.3505 868.106 32.3505 Q862.191 32.3505 858.789 37.0496 Q855.426 41.7081 855.426 49.9314 Q855.426 58.1548 858.789 62.8538 Q862.191 67.5124 868.106 67.5124 Q874.02 67.5124 877.382 62.8538 Q880.785 58.1548 880.785 49.9314 Z" fill="#000000" fill-rule="nonzero" fill-opacity="1" /><path clip-path="url(#clip650)" d="M921.497 49.7694 Q912.463 49.7694 908.979 51.8354 Q905.496 53.9013 905.496 58.8839 Q905.496 62.8538 908.088 65.2034 Q910.721 67.5124 915.218 67.5124 Q921.416 67.5124 925.143 63.1374 Q928.91 58.7219 928.91 51.4303 L928.91 49.7694 L921.497 49.7694 M936.364 46.6907 L936.364 72.576 L928.91 72.576 L928.91 65.6895 Q926.358 69.8214 922.55 71.8063 Q918.742 73.7508 913.233 73.7508 Q906.265 73.7508 902.133 69.8619 Q898.042 65.9325 898.042 59.3701 Q898.042 51.7138 903.146 47.825 Q908.291 43.9361 918.459 43.9361 L928.91 43.9361 L928.91 43.2069 Q928.91 38.0623 925.507 35.2672 Q922.145 32.4315 916.028 32.4315 Q912.139 32.4315 908.453 33.3632 Q904.766 34.295 901.364 36.1584 L901.364 29.2718 Q905.455 27.692 909.303 26.9223 Q913.152 26.1121 916.798 26.1121 Q926.641 26.1121 931.502 31.2163 Q936.364 36.3204 936.364 46.6907 Z" fill="#000000" fill-rule="nonzero" fill-opacity="1" /><path clip-path="url(#clip650)" d="M978.007 34.1734 Q976.751 33.4443 975.252 33.1202 Q973.794 32.7556 972.011 32.7556 Q965.692 32.7556 962.289 36.8875 Q958.927 40.9789 958.927 48.6757 L958.927 72.576 L951.433 72.576 L951.433 27.2059 L958.927 27.2059 L958.927 34.2544 Q961.277 30.1225 965.044 28.1376 Q968.811 26.1121 974.199 26.1121 Q974.969 26.1121 975.9 26.2337 Q976.832 26.3147 977.966 26.5172 L978.007 34.1734 Z" fill="#000000" fill-rule="nonzero" fill-opacity="1" /><path clip-path="url(#clip650)" d="M985.825 27.2059 L993.279 27.2059 L993.279 72.576 L985.825 72.576 L985.825 27.2059 M985.825 9.54393 L993.279 9.54393 L993.279 18.9825 L985.825 18.9825 L985.825 9.54393 Z" fill="#000000" fill-rule="nonzero" fill-opacity="1" /><path clip-path="url(#clip650)" d="M1037.8 28.5427 L1037.8 35.5912 Q1034.64 33.9709 1031.24 33.1607 Q1027.83 32.3505 1024.19 32.3505 Q1018.64 32.3505 1015.84 34.0519 Q1013.09 35.7533 1013.09 39.156 Q1013.09 41.7486 1015.07 43.2475 Q1017.06 44.7058 1023.05 46.0426 L1025.6 46.6097 Q1033.54 48.3111 1036.87 51.4303 Q1040.23 54.509 1040.23 60.0587 Q1040.23 66.3781 1035.21 70.0644 Q1030.22 73.7508 1021.47 73.7508 Q1017.83 73.7508 1013.86 73.0216 Q1009.93 72.3329 1005.55 70.9151 L1005.55 63.2184 Q1009.68 65.3654 1013.7 66.4591 Q1017.71 67.5124 1021.64 67.5124 Q1026.9 67.5124 1029.74 65.73 Q1032.57 63.9071 1032.57 60.6258 Q1032.57 57.5877 1030.51 55.9673 Q1028.48 54.3469 1021.55 52.8481 L1018.96 52.2405 Q1012.03 50.7821 1008.96 47.7845 Q1005.88 44.7463 1005.88 39.4801 Q1005.88 33.0797 1010.41 29.5959 Q1014.95 26.1121 1023.3 26.1121 Q1027.43 26.1121 1031.07 26.7198 Q1034.72 27.3274 1037.8 28.5427 Z" fill="#000000" fill-rule="nonzero" fill-opacity="1" /><path clip-path="url(#clip650)" d="M1069.68 32.4315 Q1063.68 32.4315 1060.2 37.1306 Q1056.72 41.7891 1056.72 49.9314 Q1056.72 58.0738 1060.16 62.7728 Q1063.64 67.4314 1069.68 67.4314 Q1075.63 67.4314 1079.12 62.7323 Q1082.6 58.0333 1082.6 49.9314 Q1082.6 41.8701 1079.12 37.1711 Q1075.63 32.4315 1069.68 32.4315 M1069.68 26.1121 Q1079.4 26.1121 1084.95 32.4315 Q1090.5 38.7509 1090.5 49.9314 Q1090.5 61.0714 1084.95 67.4314 Q1079.4 73.7508 1069.68 73.7508 Q1059.92 73.7508 1054.37 67.4314 Q1048.86 61.0714 1048.86 49.9314 Q1048.86 38.7509 1054.37 32.4315 Q1059.92 26.1121 1069.68 26.1121 Z" fill="#000000" fill-rule="nonzero" fill-opacity="1" /><path clip-path="url(#clip650)" d="M1140.57 45.1919 L1140.57 72.576 L1133.12 72.576 L1133.12 45.4349 Q1133.12 38.994 1130.6 35.7938 Q1128.09 32.5936 1123.07 32.5936 Q1117.03 32.5936 1113.55 36.4419 Q1110.07 40.2903 1110.07 46.9338 L1110.07 72.576 L1102.57 72.576 L1102.57 27.2059 L1110.07 27.2059 L1110.07 34.2544 Q1112.74 30.163 1116.35 28.1376 Q1119.99 26.1121 1124.73 26.1121 Q1132.55 26.1121 1136.56 30.9732 Q1140.57 35.7938 1140.57 45.1919 Z" fill="#000000" fill-rule="nonzero" fill-opacity="1" /><path clip-path="url(#clip650)" d="M1199.39 32.4315 Q1193.39 32.4315 1189.91 37.1306 Q1186.43 41.7891 1186.43 49.9314 Q1186.43 58.0738 1189.87 62.7728 Q1193.35 67.4314 1199.39 67.4314 Q1205.34 67.4314 1208.83 62.7323 Q1212.31 58.0333 1212.31 49.9314 Q1212.31 41.8701 1208.83 37.1711 Q1205.34 32.4315 1199.39 32.4315 M1199.39 26.1121 Q1209.11 26.1121 1214.66 32.4315 Q1220.21 38.7509 1220.21 49.9314 Q1220.21 61.0714 1214.66 67.4314 Q1209.11 73.7508 1199.39 73.7508 Q1189.63 73.7508 1184.08 67.4314 Q1178.57 61.0714 1178.57 49.9314 Q1178.57 38.7509 1184.08 32.4315 Q1189.63 26.1121 1199.39 26.1121 Z" fill="#000000" fill-rule="nonzero" fill-opacity="1" /><path clip-path="url(#clip650)" d="M1255.53 9.54393 L1255.53 15.7418 L1248.4 15.7418 Q1244.39 15.7418 1242.81 17.3622 Q1241.28 18.9825 1241.28 23.1955 L1241.28 27.2059 L1253.55 27.2059 L1253.55 32.9987 L1241.28 32.9987 L1241.28 72.576 L1233.78 72.576 L1233.78 32.9987 L1226.65 32.9987 L1226.65 27.2059 L1233.78 27.2059 L1233.78 24.0462 Q1233.78 16.471 1237.31 13.0277 Q1240.83 9.54393 1248.49 9.54393 L1255.53 9.54393 Z" fill="#000000" fill-rule="nonzero" fill-opacity="1" /><path clip-path="url(#clip650)" d="M1320.79 28.9478 L1320.79 35.9153 Q1317.63 34.1734 1314.43 33.3227 Q1311.27 32.4315 1308.03 32.4315 Q1300.78 32.4315 1296.77 37.0496 Q1292.76 41.6271 1292.76 49.9314 Q1292.76 58.2358 1296.77 62.8538 Q1300.78 67.4314 1308.03 67.4314 Q1311.27 67.4314 1314.43 66.5807 Q1317.63 65.6895 1320.79 63.9476 L1320.79 70.8341 Q1317.68 72.2924 1314.31 73.0216 Q1310.99 73.7508 1307.22 73.7508 Q1296.98 73.7508 1290.94 67.3098 Q1284.9 60.8689 1284.9 49.9314 Q1284.9 38.832 1290.98 32.472 Q1297.1 26.1121 1307.71 26.1121 Q1311.15 26.1121 1314.43 26.8413 Q1317.72 27.5299 1320.79 28.9478 Z" fill="#000000" fill-rule="nonzero" fill-opacity="1" /><path clip-path="url(#clip650)" d="M1351.34 32.4315 Q1345.34 32.4315 1341.86 37.1306 Q1338.38 41.7891 1338.38 49.9314 Q1338.38 58.0738 1341.82 62.7728 Q1345.3 67.4314 1351.34 67.4314 Q1357.29 67.4314 1360.78 62.7323 Q1364.26 58.0333 1364.26 49.9314 Q1364.26 41.8701 1360.78 37.1711 Q1357.29 32.4315 1351.34 32.4315 M1351.34 26.1121 Q1361.06 26.1121 1366.61 32.4315 Q1372.16 38.7509 1372.16 49.9314 Q1372.16 61.0714 1366.61 67.4314 Q1361.06 73.7508 1351.34 73.7508 Q1341.58 73.7508 1336.03 67.4314 Q1330.52 61.0714 1330.52 49.9314 Q1330.52 38.7509 1336.03 32.4315 Q1341.58 26.1121 1351.34 26.1121 Z" fill="#000000" fill-rule="nonzero" fill-opacity="1" /><path clip-path="url(#clip650)" d="M1422.23 45.1919 L1422.23 72.576 L1414.78 72.576 L1414.78 45.4349 Q1414.78 38.994 1412.26 35.7938 Q1409.75 32.5936 1404.73 32.5936 Q1398.69 32.5936 1395.21 36.4419 Q1391.73 40.2903 1391.73 46.9338 L1391.73 72.576 L1384.23 72.576 L1384.23 27.2059 L1391.73 27.2059 L1391.73 34.2544 Q1394.4 30.163 1398 28.1376 Q1401.65 26.1121 1406.39 26.1121 Q1414.21 26.1121 1418.22 30.9732 Q1422.23 35.7938 1422.23 45.1919 Z" fill="#000000" fill-rule="nonzero" fill-opacity="1" /><path clip-path="url(#clip650)" d="M1469.75 28.9478 L1469.75 35.9153 Q1466.59 34.1734 1463.39 33.3227 Q1460.23 32.4315 1456.99 32.4315 Q1449.73 32.4315 1445.72 37.0496 Q1441.71 41.6271 1441.71 49.9314 Q1441.71 58.2358 1445.72 62.8538 Q1449.73 67.4314 1456.99 67.4314 Q1460.23 67.4314 1463.39 66.5807 Q1466.59 65.6895 1469.75 63.9476 L1469.75 70.8341 Q1466.63 72.2924 1463.26 73.0216 Q1459.94 73.7508 1456.18 73.7508 Q1445.93 73.7508 1439.89 67.3098 Q1433.86 60.8689 1433.86 49.9314 Q1433.86 38.832 1439.93 32.472 Q1446.05 26.1121 1456.66 26.1121 Q1460.1 26.1121 1463.39 26.8413 Q1466.67 27.5299 1469.75 28.9478 Z" fill="#000000" fill-rule="nonzero" fill-opacity="1" /><path clip-path="url(#clip650)" d="M1503.33 49.7694 Q1494.29 49.7694 1490.81 51.8354 Q1487.33 53.9013 1487.33 58.8839 Q1487.33 62.8538 1489.92 65.2034 Q1492.55 67.5124 1497.05 67.5124 Q1503.25 67.5124 1506.97 63.1374 Q1510.74 58.7219 1510.74 51.4303 L1510.74 49.7694 L1503.33 49.7694 M1518.19 46.6907 L1518.19 72.576 L1510.74 72.576 L1510.74 65.6895 Q1508.19 69.8214 1504.38 71.8063 Q1500.57 73.7508 1495.06 73.7508 Q1488.1 73.7508 1483.96 69.8619 Q1479.87 65.9325 1479.87 59.3701 Q1479.87 51.7138 1484.98 47.825 Q1490.12 43.9361 1500.29 43.9361 L1510.74 43.9361 L1510.74 43.2069 Q1510.74 38.0623 1507.34 35.2672 Q1503.98 32.4315 1497.86 32.4315 Q1493.97 32.4315 1490.28 33.3632 Q1486.6 34.295 1483.2 36.1584 L1483.2 29.2718 Q1487.29 27.692 1491.13 26.9223 Q1494.98 26.1121 1498.63 26.1121 Q1508.47 26.1121 1513.33 31.2163 Q1518.19 36.3204 1518.19 46.6907 Z" fill="#000000" fill-rule="nonzero" fill-opacity="1" /><path clip-path="url(#clip650)" d="M1540.92 14.324 L1540.92 27.2059 L1556.27 27.2059 L1556.27 32.9987 L1540.92 32.9987 L1540.92 57.6282 Q1540.92 63.1779 1542.42 64.7578 Q1543.96 66.3376 1548.62 66.3376 L1556.27 66.3376 L1556.27 72.576 L1548.62 72.576 Q1539.99 72.576 1536.71 69.3758 Q1533.43 66.1351 1533.43 57.6282 L1533.43 32.9987 L1527.96 32.9987 L1527.96 27.2059 L1533.43 27.2059 L1533.43 14.324 L1540.92 14.324 Z" fill="#000000" fill-rule="nonzero" fill-opacity="1" /><path clip-path="url(#clip650)" d="M1604.88 48.0275 L1604.88 51.6733 L1570.61 51.6733 Q1571.1 59.3701 1575.23 63.421 Q1579.4 67.4314 1586.82 67.4314 Q1591.11 67.4314 1595.12 66.3781 Q1599.17 65.3249 1603.14 63.2184 L1603.14 70.267 Q1599.13 71.9684 1594.92 72.8596 Q1590.71 73.7508 1586.37 73.7508 Q1575.52 73.7508 1569.16 67.4314 Q1562.84 61.1119 1562.84 50.3365 Q1562.84 39.1965 1568.83 32.6746 Q1574.87 26.1121 1585.08 26.1121 Q1594.23 26.1121 1599.54 32.0264 Q1604.88 37.9003 1604.88 48.0275 M1597.43 45.84 Q1597.35 39.7232 1593.99 36.0774 Q1590.67 32.4315 1585.16 32.4315 Q1578.92 32.4315 1575.15 35.9558 Q1571.42 39.4801 1570.86 45.8805 L1597.43 45.84 Z" fill="#000000" fill-rule="nonzero" fill-opacity="1" /><path clip-path="url(#clip650)" d="M1654.83 45.1919 L1654.83 72.576 L1647.38 72.576 L1647.38 45.4349 Q1647.38 38.994 1644.87 35.7938 Q1642.36 32.5936 1637.33 32.5936 Q1631.3 32.5936 1627.81 36.4419 Q1624.33 40.2903 1624.33 46.9338 L1624.33 72.576 L1616.83 72.576 L1616.83 27.2059 L1624.33 27.2059 L1624.33 34.2544 Q1627 30.163 1630.61 28.1376 Q1634.25 26.1121 1638.99 26.1121 Q1646.81 26.1121 1650.82 30.9732 Q1654.83 35.7938 1654.83 45.1919 Z" fill="#000000" fill-rule="nonzero" fill-opacity="1" /><path clip-path="url(#clip650)" d="M1690.32 49.7694 Q1681.28 49.7694 1677.8 51.8354 Q1674.32 53.9013 1674.32 58.8839 Q1674.32 62.8538 1676.91 65.2034 Q1679.54 67.5124 1684.04 67.5124 Q1690.24 67.5124 1693.96 63.1374 Q1697.73 58.7219 1697.73 51.4303 L1697.73 49.7694 L1690.32 49.7694 M1705.18 46.6907 L1705.18 72.576 L1697.73 72.576 L1697.73 65.6895 Q1695.18 69.8214 1691.37 71.8063 Q1687.56 73.7508 1682.05 73.7508 Q1675.09 73.7508 1670.95 69.8619 Q1666.86 65.9325 1666.86 59.3701 Q1666.86 51.7138 1671.97 47.825 Q1677.11 43.9361 1687.28 43.9361 L1697.73 43.9361 L1697.73 43.2069 Q1697.73 38.0623 1694.33 35.2672 Q1690.97 32.4315 1684.85 32.4315 Q1680.96 32.4315 1677.27 33.3632 Q1673.59 34.295 1670.18 36.1584 L1670.18 29.2718 Q1674.28 27.692 1678.12 26.9223 Q1681.97 26.1121 1685.62 26.1121 Q1695.46 26.1121 1700.32 31.2163 Q1705.18 36.3204 1705.18 46.6907 Z" fill="#000000" fill-rule="nonzero" fill-opacity="1" /><path clip-path="url(#clip650)" d="M1727.91 14.324 L1727.91 27.2059 L1743.26 27.2059 L1743.26 32.9987 L1727.91 32.9987 L1727.91 57.6282 Q1727.91 63.1779 1729.41 64.7578 Q1730.95 66.3376 1735.61 66.3376 L1743.26 66.3376 L1743.26 72.576 L1735.61 72.576 Q1726.98 72.576 1723.7 69.3758 Q1720.42 66.1351 1720.42 57.6282 L1720.42 32.9987 L1714.95 32.9987 L1714.95 27.2059 L1720.42 27.2059 L1720.42 14.324 L1727.91 14.324 Z" fill="#000000" fill-rule="nonzero" fill-opacity="1" /><path clip-path="url(#clip650)" d="M1753.07 27.2059 L1760.52 27.2059 L1760.52 72.576 L1753.07 72.576 L1753.07 27.2059 M1753.07 9.54393 L1760.52 9.54393 L1760.52 18.9825 L1753.07 18.9825 L1753.07 9.54393 Z" fill="#000000" fill-rule="nonzero" fill-opacity="1" /><path clip-path="url(#clip650)" d="M1793.7 32.4315 Q1787.7 32.4315 1784.22 37.1306 Q1780.73 41.7891 1780.73 49.9314 Q1780.73 58.0738 1784.18 62.7728 Q1787.66 67.4314 1793.7 67.4314 Q1799.65 67.4314 1803.14 62.7323 Q1806.62 58.0333 1806.62 49.9314 Q1806.62 41.8701 1803.14 37.1711 Q1799.65 32.4315 1793.7 32.4315 M1793.7 26.1121 Q1803.42 26.1121 1808.97 32.4315 Q1814.52 38.7509 1814.52 49.9314 Q1814.52 61.0714 1808.97 67.4314 Q1803.42 73.7508 1793.7 73.7508 Q1783.93 73.7508 1778.38 67.4314 Q1772.88 61.0714 1772.88 49.9314 Q1772.88 38.7509 1778.38 32.4315 Q1783.93 26.1121 1793.7 26.1121 Z" fill="#000000" fill-rule="nonzero" fill-opacity="1" /><path clip-path="url(#clip650)" d="M1864.59 45.1919 L1864.59 72.576 L1857.13 72.576 L1857.13 45.4349 Q1857.13 38.994 1854.62 35.7938 Q1852.11 32.5936 1847.09 32.5936 Q1841.05 32.5936 1837.57 36.4419 Q1834.08 40.2903 1834.08 46.9338 L1834.08 72.576 L1826.59 72.576 L1826.59 27.2059 L1834.08 27.2059 L1834.08 34.2544 Q1836.76 30.163 1840.36 28.1376 Q1844.01 26.1121 1848.75 26.1121 Q1856.57 26.1121 1860.58 30.9732 Q1864.59 35.7938 1864.59 45.1919 Z" fill="#000000" fill-rule="nonzero" fill-opacity="1" /><path clip-path="url(#clip650)" d="M1908.38 28.5427 L1908.38 35.5912 Q1905.22 33.9709 1901.82 33.1607 Q1898.41 32.3505 1894.77 32.3505 Q1889.22 32.3505 1886.42 34.0519 Q1883.67 35.7533 1883.67 39.156 Q1883.67 41.7486 1885.65 43.2475 Q1887.64 44.7058 1893.63 46.0426 L1896.18 46.6097 Q1904.12 48.3111 1907.45 51.4303 Q1910.81 54.509 1910.81 60.0587 Q1910.81 66.3781 1905.79 70.0644 Q1900.8 73.7508 1892.05 73.7508 Q1888.41 73.7508 1884.44 73.0216 Q1880.51 72.3329 1876.13 70.9151 L1876.13 63.2184 Q1880.26 65.3654 1884.28 66.4591 Q1888.29 67.5124 1892.21 67.5124 Q1897.48 67.5124 1900.32 65.73 Q1903.15 63.9071 1903.15 60.6258 Q1903.15 57.5877 1901.09 55.9673 Q1899.06 54.3469 1892.13 52.8481 L1889.54 52.2405 Q1882.61 50.7821 1879.54 47.7845 Q1876.46 44.7463 1876.46 39.4801 Q1876.46 33.0797 1880.99 29.5959 Q1885.53 26.1121 1893.88 26.1121 Q1898.01 26.1121 1901.65 26.7198 Q1905.3 27.3274 1908.38 28.5427 Z" fill="#000000" fill-rule="nonzero" fill-opacity="1" /><polyline clip-path="url(#clip652)" style="stroke:#009af9; stroke-linecap:round; stroke-linejoin:round; stroke-width:4; stroke-opacity:1; fill:none" points="274.149,453.148 284.24,296.078 294.33,439.573 304.42,277.297 314.511,484.378 324.601,519.607 334.691,670.684 344.782,831.256 354.872,434.58 364.962,310.662 375.053,410.776 385.143,725.702 395.233,356.85 405.324,672.345 415.414,573.311 425.504,470.824 435.595,993.613 445.685,669.01 455.775,340.093 465.866,1303.41 475.956,799.565 486.046,651.075 496.137,814.759 506.227,573.58 516.317,687.577 526.407,461.737 536.498,711.923 546.588,338.078 556.678,423.598 566.769,785.745 576.859,721.405 586.949,719.084 597.04,861.268 607.13,372.51 617.22,826.068 627.311,574.216 637.401,553.812 647.491,1112.33 657.582,1123.33 667.672,655.237 677.762,1012.77 687.853,362.97 697.943,1209.98 708.033,779.41 718.124,597.193 728.214,374.028 738.304,513.575 748.395,447.993 758.485,608.188 768.575,628.57 778.666,849.108 788.756,777.971 798.846,449.65 808.937,1234.98 819.027,607.081 829.117,898.685 839.207,521.626 849.298,485.572 859.388,684.866 869.478,474.697 879.569,641.811 889.659,439.875 899.749,426.351 909.84,760.068 919.93,665.704 930.02,461.823 940.111,589.012 950.201,536.335 960.291,439.412 970.382,557.02 980.472,417.116 990.562,414.586 1000.65,438.842 1010.74,444.113 1020.83,569.144 1030.92,851.447 1041.01,420.585 1051.1,405.604 1061.19,507.821 1071.28,533.364 1081.38,417.604 1091.47,371.258 1101.56,665.559 1111.65,589.219 1121.74,379.366 1131.83,547.992 1141.92,654.627 1152.01,403.003 1162.1,388.434 1172.19,379.931 1182.28,514.07 1192.37,411.811 1202.46,690.453 1212.55,336.124 1222.64,639.304 1232.73,783.671 1242.82,1107.27 1252.91,375.922 1263,332.545 1273.09,432.383 1283.18,360.799 1293.27,319.235 1303.36,318.953 1313.45,349.895 1323.54,397.303 1333.63,767.531 1343.72,413.509 1353.81,509.67 1363.9,387.048 1373.99,422.835 1384.08,326.362 1394.18,360.439 1404.27,298.177 1414.36,475.928 1424.45,420.114 1434.54,364.776 1444.63,309.146 1454.72,599.072 1464.81,312.139 1474.9,722.724 1484.99,496.503 1495.08,312.004 1505.17,317.868 1515.26,464.823 1525.35,572.85 1535.44,300.862 1545.53,507.72 1555.62,274.935 1565.71,274.577 1575.8,391.684 1585.89,307.867 1595.98,367.616 1606.07,280.287 1616.16,442.357 1626.25,336.901 1636.34,260.662 1646.43,416.282 1656.52,267.087 1666.61,418.422 1676.7,263.59 1686.79,293.526 1696.88,372.131 1706.98,305.294 1717.07,265.224 1727.16,459.539 1737.25,253.475 1747.34,266.546 1757.43,576.865 1767.52,253.48 1777.61,351.468 1787.7,256.845 1797.79,237.57 1807.88,378.854 1817.97,454.433 1828.06,230.394 1838.15,275.704 1848.24,238.411 1858.33,293.498 1868.42,275.033 1878.51,261.886 1888.6,318.071 1898.69,236.43 1908.78,236.299 1918.87,263.789 1928.96,363.809 1939.05,279.535 1949.14,282.244 1959.23,217.302 1969.32,224.002 1979.41,208.382 1989.5,225.907 1999.59,228.459 2009.68,227.661 2019.78,218.425 2029.87,211.037 2039.96,404.862 2050.05,380.538 2060.14,213.434 2070.23,197.882 2080.32,261.816 2090.41,249.991 2100.5,346.673 2110.59,209.011 2120.68,195.502 2130.77,228.776 2140.86,302.104 2150.95,236.696 2161.04,215.148 2171.13,221.353 2181.22,192.027 2191.31,183.924 2201.4,245.858 2211.49,334.351 2221.58,203.57 2231.67,277.186 2241.76,227.008 2251.85,182.28 2261.94,202.922 2272.03,281.011 2282.12,292.478 2292.21,225.444 "/>
<polyline clip-path="url(#clip652)" style="stroke:#e26f46; stroke-linecap:round; stroke-linejoin:round; stroke-width:4; stroke-opacity:1; fill:none" points="274.149,1386.4 284.24,1074 294.33,978.251 304.42,918.421 314.511,874.553 324.601,837.12 334.691,806.106 344.782,781.327 354.872,758.184 364.962,737.311 375.053,719.333 385.143,701.998 395.233,687.064 405.324,672.304 415.414,658.459 425.504,645.682 435.595,634.012 445.685,623.204 455.775,612.489 465.866,602.773 475.956,593.505 486.046,584.942 496.137,576.536 506.227,568.38 516.317,560.355 526.407,553.116 536.498,545.508 546.588,538.898 556.678,531.449 566.769,525.278 576.859,518.127 586.949,512.521 597.04,505.866 607.13,500.439 617.22,495.335 627.311,489.314 637.401,483.86 647.491,479.047 657.582,474.121 667.672,469.095 677.762,464.141 687.853,459.467 697.943,454.913 708.033,450.997 718.124,446.635 728.214,441.938 738.304,437.536 748.395,433.363 758.485,429.938 768.575,426.217 778.666,422.037 788.756,418.471 798.846,414.407 808.937,411 819.027,407.873 829.117,404.058 839.207,400.478 849.298,397.819 859.388,394.245 869.478,390.975 879.569,387.845 889.659,384.746 899.749,382.169 909.84,378.961 919.93,375.152 930.02,373.165 940.111,369.846 950.201,367.03 960.291,364.385 970.382,361.676 980.472,359.101 990.562,356.111 1000.65,353.078 1010.74,351.107 1020.83,348.047 1030.92,345.848 1041.01,343.67 1051.1,341.119 1061.19,338.702 1071.28,336.501 1081.38,334.099 1091.47,331.449 1101.56,329.109 1111.65,327.03 1121.74,324.71 1131.83,322.651 1141.92,320.423 1152.01,318.194 1162.1,316.295 1172.19,313.353 1182.28,311.253 1192.37,309.599 1202.46,307.385 1212.55,305.731 1222.64,303.789 1232.73,301.159 1242.82,299.528 1252.91,297.917 1263,295.609 1273.09,294.072 1283.18,292.1 1293.27,290.404 1303.36,288.296 1313.45,286.352 1323.54,284.454 1333.63,282.954 1343.72,280.794 1353.81,279.329 1363.9,277.518 1373.99,275.498 1384.08,273.893 1394.18,271.766 1404.27,270.724 1414.36,268.664 1424.45,267.281 1434.54,264.917 1444.63,264.012 1454.72,262.505 1464.81,261.585 1474.9,259.24 1484.99,257.708 1495.08,254.784 1505.17,255.089 1515.26,253.942 1525.35,251.917 1535.44,251.816 1545.53,248.155 1555.62,246.637 1565.71,247.064 1575.8,244.128 1585.89,242.271 1595.98,241.137 1606.07,239.516 1616.16,237.405 1626.25,236.698 1636.34,235.288 1646.43,232.928 1656.52,231.992 1666.61,233.01 1676.7,230.448 1686.79,228.124 1696.88,225.363 1706.98,225.225 1717.07,224.325 1727.16,222.368 1737.25,222.806 1747.34,219.624 1757.43,218.735 1767.52,218.059 1777.61,215.888 1787.7,216.041 1797.79,211.921 1807.88,213.534 1817.97,210.772 1828.06,209.855 1838.15,209.458 1848.24,205.923 1858.33,205.287 1868.42,206.295 1878.51,205.006 1888.6,204.52 1898.69,201.977 1908.78,200.202 1918.87,200.306 1928.96,197.351 1939.05,197.763 1949.14,197.787 1959.23,194.135 1969.32,193.268 1979.41,192.527 1989.5,191.863 1999.59,189.433 2009.68,188.607 2019.78,188.115 2029.87,188.275 2039.96,184.85 2050.05,184.258 2060.14,184.275 2070.23,184.338 2080.32,181.298 2090.41,180.719 2100.5,178.54 2110.59,177.511 2120.68,175.396 2130.77,175.529 2140.86,175.953 2150.95,173.71 2161.04,170.763 2171.13,172.872 2181.22,171.24 2191.31,169.018 2201.4,168.519 2211.49,168.255 2221.58,167.375 2231.67,166.341 2241.76,164.263 2251.85,162.439 2261.94,162.066 2272.03,162.376 2282.12,160.718 2292.21,160.256 "/>
<path clip-path="url(#clip650)" d="M1715.71 1379.86 L2281.45 1379.86 L2281.45 1224.34 L1715.71 1224.34  Z" fill="#ffffff" fill-rule="evenodd" fill-opacity="1"/>
<polyline clip-path="url(#clip650)" style="stroke:#000000; stroke-linecap:round; stroke-linejoin:round; stroke-width:4; stroke-opacity:1; fill:none" points="1715.71,1379.86 2281.45,1379.86 2281.45,1224.34 1715.71,1224.34 1715.71,1379.86 "/>
<polyline clip-path="url(#clip650)" style="stroke:#009af9; stroke-linecap:round; stroke-linejoin:round; stroke-width:4; stroke-opacity:1; fill:none" points="1739.48,1276.18 1882.09,1276.18 "/>
<path clip-path="url(#clip650)" d="M1921.87 1262.07 Q1916.78 1262.07 1913.77 1265.86 Q1910.79 1269.66 1910.79 1276.21 Q1910.79 1282.74 1913.77 1286.53 Q1916.78 1290.33 1921.87 1290.33 Q1926.97 1290.33 1929.93 1286.53 Q1932.92 1282.74 1932.92 1276.21 Q1932.92 1269.66 1929.93 1265.86 Q1926.97 1262.07 1921.87 1262.07 M1921.87 1258.27 Q1929.14 1258.27 1933.49 1263.16 Q1937.85 1268.02 1937.85 1276.21 Q1937.85 1284.38 1933.49 1289.27 Q1929.14 1294.13 1921.87 1294.13 Q1914.58 1294.13 1910.21 1289.27 Q1905.86 1284.41 1905.86 1276.21 Q1905.86 1268.02 1910.21 1263.16 Q1914.58 1258.27 1921.87 1258.27 Z" fill="#000000" fill-rule="nonzero" fill-opacity="1" /><path clip-path="url(#clip650)" d="M1949.1 1289.57 L1949.1 1303.32 L1944.81 1303.32 L1944.81 1267.53 L1949.1 1267.53 L1949.1 1271.47 Q1950.44 1269.15 1952.48 1268.04 Q1954.54 1266.91 1957.38 1266.91 Q1962.11 1266.91 1965.05 1270.66 Q1968.01 1274.41 1968.01 1280.52 Q1968.01 1286.63 1965.05 1290.38 Q1962.11 1294.13 1957.38 1294.13 Q1954.54 1294.13 1952.48 1293.02 Q1950.44 1291.88 1949.1 1289.57 M1963.59 1280.52 Q1963.59 1275.82 1961.64 1273.16 Q1959.72 1270.47 1956.34 1270.47 Q1952.96 1270.47 1951.02 1273.16 Q1949.1 1275.82 1949.1 1280.52 Q1949.1 1285.22 1951.02 1287.9 Q1952.96 1290.56 1956.34 1290.56 Q1959.72 1290.56 1961.64 1287.9 Q1963.59 1285.22 1963.59 1280.52 Z" fill="#000000" fill-rule="nonzero" fill-opacity="1" /><path clip-path="url(#clip650)" d="M1979.28 1260.17 L1979.28 1267.53 L1988.05 1267.53 L1988.05 1270.84 L1979.28 1270.84 L1979.28 1284.91 Q1979.28 1288.09 1980.14 1288.99 Q1981.02 1289.89 1983.68 1289.89 L1988.05 1289.89 L1988.05 1293.46 L1983.68 1293.46 Q1978.75 1293.46 1976.87 1291.63 Q1975 1289.78 1975 1284.91 L1975 1270.84 L1971.87 1270.84 L1971.87 1267.53 L1975 1267.53 L1975 1260.17 L1979.28 1260.17 Z" fill="#000000" fill-rule="nonzero" fill-opacity="1" /><path clip-path="url(#clip650)" d="M1993.66 1267.53 L1997.92 1267.53 L1997.92 1293.46 L1993.66 1293.46 L1993.66 1267.53 M1993.66 1257.44 L1997.92 1257.44 L1997.92 1262.83 L1993.66 1262.83 L1993.66 1257.44 Z" fill="#000000" fill-rule="nonzero" fill-opacity="1" /><path clip-path="url(#clip650)" d="M2027.01 1272.51 Q2028.61 1269.64 2030.83 1268.27 Q2033.05 1266.91 2036.06 1266.91 Q2040.11 1266.91 2042.31 1269.75 Q2044.51 1272.58 2044.51 1277.81 L2044.51 1293.46 L2040.23 1293.46 L2040.23 1277.95 Q2040.23 1274.22 2038.91 1272.41 Q2037.59 1270.61 2034.88 1270.61 Q2031.57 1270.61 2029.65 1272.81 Q2027.73 1275.01 2027.73 1278.8 L2027.73 1293.46 L2023.45 1293.46 L2023.45 1277.95 Q2023.45 1274.2 2022.13 1272.41 Q2020.81 1270.61 2018.05 1270.61 Q2014.79 1270.61 2012.87 1272.83 Q2010.95 1275.03 2010.95 1278.8 L2010.95 1293.46 L2006.67 1293.46 L2006.67 1267.53 L2010.95 1267.53 L2010.95 1271.56 Q2012.41 1269.17 2014.44 1268.04 Q2016.48 1266.91 2019.28 1266.91 Q2022.11 1266.91 2024.07 1268.34 Q2026.06 1269.78 2027.01 1272.51 Z" fill="#000000" fill-rule="nonzero" fill-opacity="1" /><path clip-path="url(#clip650)" d="M2064.79 1280.42 Q2059.63 1280.42 2057.64 1281.6 Q2055.65 1282.79 2055.65 1285.63 Q2055.65 1287.9 2057.13 1289.24 Q2058.63 1290.56 2061.2 1290.56 Q2064.74 1290.56 2066.87 1288.06 Q2069.03 1285.54 2069.03 1281.37 L2069.03 1280.42 L2064.79 1280.42 M2073.29 1278.66 L2073.29 1293.46 L2069.03 1293.46 L2069.03 1289.52 Q2067.57 1291.88 2065.39 1293.02 Q2063.22 1294.13 2060.07 1294.13 Q2056.09 1294.13 2053.73 1291.91 Q2051.39 1289.66 2051.39 1285.91 Q2051.39 1281.54 2054.3 1279.31 Q2057.24 1277.09 2063.05 1277.09 L2069.03 1277.09 L2069.03 1276.67 Q2069.03 1273.73 2067.08 1272.14 Q2065.16 1270.52 2061.67 1270.52 Q2059.44 1270.52 2057.34 1271.05 Q2055.23 1271.58 2053.29 1272.65 L2053.29 1268.71 Q2055.62 1267.81 2057.82 1267.37 Q2060.02 1266.91 2062.1 1266.91 Q2067.73 1266.91 2070.51 1269.82 Q2073.29 1272.74 2073.29 1278.66 Z" fill="#000000" fill-rule="nonzero" fill-opacity="1" /><path clip-path="url(#clip650)" d="M2082.06 1257.44 L2086.32 1257.44 L2086.32 1293.46 L2082.06 1293.46 L2082.06 1257.44 Z" fill="#000000" fill-rule="nonzero" fill-opacity="1" /><path clip-path="url(#clip650)" d="M2121.29 1261.56 L2121.29 1266.49 Q2118.93 1264.29 2116.25 1263.2 Q2113.59 1262.11 2110.58 1262.11 Q2104.65 1262.11 2101.5 1265.75 Q2098.35 1269.36 2098.35 1276.21 Q2098.35 1283.04 2101.5 1286.67 Q2104.65 1290.28 2110.58 1290.28 Q2113.59 1290.28 2116.25 1289.2 Q2118.93 1288.11 2121.29 1285.91 L2121.29 1290.79 Q2118.84 1292.46 2116.09 1293.29 Q2113.35 1294.13 2110.3 1294.13 Q2102.45 1294.13 2097.94 1289.34 Q2093.42 1284.52 2093.42 1276.21 Q2093.42 1267.88 2097.94 1263.09 Q2102.45 1258.27 2110.3 1258.27 Q2113.4 1258.27 2116.13 1259.1 Q2118.89 1259.91 2121.29 1261.56 Z" fill="#000000" fill-rule="nonzero" fill-opacity="1" /><path clip-path="url(#clip650)" d="M2138.38 1270.52 Q2134.95 1270.52 2132.96 1273.2 Q2130.97 1275.86 2130.97 1280.52 Q2130.97 1285.17 2132.94 1287.85 Q2134.93 1290.52 2138.38 1290.52 Q2141.78 1290.52 2143.77 1287.83 Q2145.76 1285.15 2145.76 1280.52 Q2145.76 1275.91 2143.77 1273.22 Q2141.78 1270.52 2138.38 1270.52 M2138.38 1266.91 Q2143.93 1266.91 2147.1 1270.52 Q2150.28 1274.13 2150.28 1280.52 Q2150.28 1286.88 2147.1 1290.52 Q2143.93 1294.13 2138.38 1294.13 Q2132.8 1294.13 2129.63 1290.52 Q2126.48 1286.88 2126.48 1280.52 Q2126.48 1274.13 2129.63 1270.52 Q2132.8 1266.91 2138.38 1266.91 Z" fill="#000000" fill-rule="nonzero" fill-opacity="1" /><path clip-path="url(#clip650)" d="M2178.89 1277.81 L2178.89 1293.46 L2174.63 1293.46 L2174.63 1277.95 Q2174.63 1274.27 2173.19 1272.44 Q2171.76 1270.61 2168.89 1270.61 Q2165.44 1270.61 2163.45 1272.81 Q2161.46 1275.01 2161.46 1278.8 L2161.46 1293.46 L2157.17 1293.46 L2157.17 1267.53 L2161.46 1267.53 L2161.46 1271.56 Q2162.98 1269.22 2165.04 1268.06 Q2167.13 1266.91 2169.84 1266.91 Q2174.3 1266.91 2176.6 1269.68 Q2178.89 1272.44 2178.89 1277.81 Z" fill="#000000" fill-rule="nonzero" fill-opacity="1" /><path clip-path="url(#clip650)" d="M2191.6 1260.17 L2191.6 1267.53 L2200.37 1267.53 L2200.37 1270.84 L2191.6 1270.84 L2191.6 1284.91 Q2191.6 1288.09 2192.45 1288.99 Q2193.33 1289.89 2195.99 1289.89 L2200.37 1289.89 L2200.37 1293.46 L2195.99 1293.46 Q2191.06 1293.46 2189.19 1291.63 Q2187.31 1289.78 2187.31 1284.91 L2187.31 1270.84 L2184.19 1270.84 L2184.19 1267.53 L2187.31 1267.53 L2187.31 1260.17 L2191.6 1260.17 Z" fill="#000000" fill-rule="nonzero" fill-opacity="1" /><path clip-path="url(#clip650)" d="M2220.99 1271.51 Q2220.28 1271.1 2219.42 1270.91 Q2218.59 1270.7 2217.57 1270.7 Q2213.96 1270.7 2212.01 1273.06 Q2210.09 1275.4 2210.09 1279.8 L2210.09 1293.46 L2205.81 1293.46 L2205.81 1267.53 L2210.09 1267.53 L2210.09 1271.56 Q2211.43 1269.2 2213.59 1268.06 Q2215.74 1266.91 2218.82 1266.91 Q2219.26 1266.91 2219.79 1266.97 Q2220.32 1267.02 2220.97 1267.14 L2220.99 1271.51 Z" fill="#000000" fill-rule="nonzero" fill-opacity="1" /><path clip-path="url(#clip650)" d="M2234.47 1270.52 Q2231.04 1270.52 2229.05 1273.2 Q2227.06 1275.86 2227.06 1280.52 Q2227.06 1285.17 2229.03 1287.85 Q2231.02 1290.52 2234.47 1290.52 Q2237.87 1290.52 2239.86 1287.83 Q2241.85 1285.15 2241.85 1280.52 Q2241.85 1275.91 2239.86 1273.22 Q2237.87 1270.52 2234.47 1270.52 M2234.47 1266.91 Q2240.02 1266.91 2243.19 1270.52 Q2246.36 1274.13 2246.36 1280.52 Q2246.36 1286.88 2243.19 1290.52 Q2240.02 1294.13 2234.47 1294.13 Q2228.89 1294.13 2225.72 1290.52 Q2222.57 1286.88 2222.57 1280.52 Q2222.57 1274.13 2225.72 1270.52 Q2228.89 1266.91 2234.47 1266.91 Z" fill="#000000" fill-rule="nonzero" fill-opacity="1" /><path clip-path="url(#clip650)" d="M2253.42 1257.44 L2257.68 1257.44 L2257.68 1293.46 L2253.42 1293.46 L2253.42 1257.44 Z" fill="#000000" fill-rule="nonzero" fill-opacity="1" /><polyline clip-path="url(#clip650)" style="stroke:#e26f46; stroke-linecap:round; stroke-linejoin:round; stroke-width:4; stroke-opacity:1; fill:none" points="1739.48,1328.02 1882.09,1328.02 "/>
<path clip-path="url(#clip650)" d="M1933.73 1313.4 L1933.73 1318.33 Q1931.36 1316.13 1928.68 1315.04 Q1926.02 1313.95 1923.01 1313.95 Q1917.08 1313.95 1913.93 1317.59 Q1910.79 1321.2 1910.79 1328.05 Q1910.79 1334.88 1913.93 1338.51 Q1917.08 1342.12 1923.01 1342.12 Q1926.02 1342.12 1928.68 1341.04 Q1931.36 1339.95 1933.73 1337.75 L1933.73 1342.63 Q1931.27 1344.3 1928.52 1345.13 Q1925.79 1345.97 1922.73 1345.97 Q1914.88 1345.97 1910.37 1341.18 Q1905.86 1336.36 1905.86 1328.05 Q1905.86 1319.72 1910.37 1314.93 Q1914.88 1310.11 1922.73 1310.11 Q1925.83 1310.11 1928.56 1310.94 Q1931.32 1311.75 1933.73 1313.4 Z" fill="#000000" fill-rule="nonzero" fill-opacity="1" /><path clip-path="url(#clip650)" d="M1940.76 1309.28 L1945.02 1309.28 L1945.02 1345.3 L1940.76 1345.3 L1940.76 1309.28 Z" fill="#000000" fill-rule="nonzero" fill-opacity="1" /><path clip-path="url(#clip650)" d="M1965.72 1332.26 Q1960.55 1332.26 1958.56 1333.44 Q1956.57 1334.63 1956.57 1337.47 Q1956.57 1339.74 1958.05 1341.08 Q1959.56 1342.4 1962.13 1342.4 Q1965.67 1342.4 1967.8 1339.9 Q1969.95 1337.38 1969.95 1333.21 L1969.95 1332.26 L1965.72 1332.26 M1974.21 1330.5 L1974.21 1345.3 L1969.95 1345.3 L1969.95 1341.36 Q1968.49 1343.72 1966.32 1344.86 Q1964.14 1345.97 1960.99 1345.97 Q1957.01 1345.97 1954.65 1343.75 Q1952.31 1341.5 1952.31 1337.75 Q1952.31 1333.38 1955.23 1331.15 Q1958.17 1328.93 1963.98 1328.93 L1969.95 1328.93 L1969.95 1328.51 Q1969.95 1325.57 1968.01 1323.98 Q1966.09 1322.36 1962.59 1322.36 Q1960.37 1322.36 1958.26 1322.89 Q1956.16 1323.42 1954.21 1324.49 L1954.21 1320.55 Q1956.55 1319.65 1958.75 1319.21 Q1960.95 1318.75 1963.03 1318.75 Q1968.66 1318.75 1971.43 1321.66 Q1974.21 1324.58 1974.21 1330.5 Z" fill="#000000" fill-rule="nonzero" fill-opacity="1" /><path clip-path="url(#clip650)" d="M1999.51 1320.13 L1999.51 1324.16 Q1997.71 1323.24 1995.76 1322.77 Q1993.82 1322.31 1991.73 1322.31 Q1988.56 1322.31 1986.97 1323.28 Q1985.39 1324.25 1985.39 1326.2 Q1985.39 1327.68 1986.53 1328.54 Q1987.66 1329.37 1991.09 1330.13 L1992.55 1330.46 Q1997.08 1331.43 1998.98 1333.21 Q2000.9 1334.97 2000.9 1338.14 Q2000.9 1341.75 1998.03 1343.86 Q1995.18 1345.97 1990.18 1345.97 Q1988.1 1345.97 1985.83 1345.55 Q1983.59 1345.16 1981.09 1344.35 L1981.09 1339.95 Q1983.45 1341.18 1985.74 1341.8 Q1988.03 1342.4 1990.28 1342.4 Q1993.29 1342.4 1994.91 1341.38 Q1996.53 1340.34 1996.53 1338.47 Q1996.53 1336.73 1995.35 1335.81 Q1994.19 1334.88 1990.23 1334.02 L1988.75 1333.68 Q1984.79 1332.84 1983.03 1331.13 Q1981.27 1329.39 1981.27 1326.38 Q1981.27 1322.73 1983.86 1320.74 Q1986.46 1318.75 1991.23 1318.75 Q1993.59 1318.75 1995.67 1319.09 Q1997.75 1319.44 1999.51 1320.13 Z" fill="#000000" fill-rule="nonzero" fill-opacity="1" /><path clip-path="url(#clip650)" d="M2024.21 1320.13 L2024.21 1324.16 Q2022.41 1323.24 2020.46 1322.77 Q2018.52 1322.31 2016.43 1322.31 Q2013.26 1322.31 2011.67 1323.28 Q2010.09 1324.25 2010.09 1326.2 Q2010.09 1327.68 2011.23 1328.54 Q2012.36 1329.37 2015.79 1330.13 L2017.24 1330.46 Q2021.78 1331.43 2023.68 1333.21 Q2025.6 1334.97 2025.6 1338.14 Q2025.6 1341.75 2022.73 1343.86 Q2019.88 1345.97 2014.88 1345.97 Q2012.8 1345.97 2010.53 1345.55 Q2008.29 1345.16 2005.79 1344.35 L2005.79 1339.95 Q2008.15 1341.18 2010.44 1341.8 Q2012.73 1342.4 2014.98 1342.4 Q2017.98 1342.4 2019.61 1341.38 Q2021.23 1340.34 2021.23 1338.47 Q2021.23 1336.73 2020.05 1335.81 Q2018.89 1334.88 2014.93 1334.02 L2013.45 1333.68 Q2009.49 1332.84 2007.73 1331.13 Q2005.97 1329.39 2005.97 1326.38 Q2005.97 1322.73 2008.56 1320.74 Q2011.16 1318.75 2015.92 1318.75 Q2018.29 1318.75 2020.37 1319.09 Q2022.45 1319.44 2024.21 1320.13 Z" fill="#000000" fill-rule="nonzero" fill-opacity="1" /><path clip-path="url(#clip650)" d="M2032.38 1319.37 L2036.64 1319.37 L2036.64 1345.3 L2032.38 1345.3 L2032.38 1319.37 M2032.38 1309.28 L2036.64 1309.28 L2036.64 1314.67 L2032.38 1314.67 L2032.38 1309.28 Z" fill="#000000" fill-rule="nonzero" fill-opacity="1" /><path clip-path="url(#clip650)" d="M2064.21 1320.37 L2064.21 1324.35 Q2062.41 1323.35 2060.58 1322.87 Q2058.77 1322.36 2056.92 1322.36 Q2052.78 1322.36 2050.48 1325 Q2048.19 1327.61 2048.19 1332.36 Q2048.19 1337.1 2050.48 1339.74 Q2052.78 1342.36 2056.92 1342.36 Q2058.77 1342.36 2060.58 1341.87 Q2062.41 1341.36 2064.21 1340.37 L2064.21 1344.3 Q2062.43 1345.13 2060.51 1345.55 Q2058.61 1345.97 2056.46 1345.97 Q2050.6 1345.97 2047.15 1342.29 Q2043.7 1338.61 2043.7 1332.36 Q2043.7 1326.01 2047.17 1322.38 Q2050.67 1318.75 2056.73 1318.75 Q2058.7 1318.75 2060.58 1319.16 Q2062.45 1319.56 2064.21 1320.37 Z" fill="#000000" fill-rule="nonzero" fill-opacity="1" /><path clip-path="url(#clip650)" d="M2083.4 1332.26 Q2078.24 1332.26 2076.25 1333.44 Q2074.26 1334.63 2074.26 1337.47 Q2074.26 1339.74 2075.74 1341.08 Q2077.24 1342.4 2079.81 1342.4 Q2083.35 1342.4 2085.48 1339.9 Q2087.64 1337.38 2087.64 1333.21 L2087.64 1332.26 L2083.4 1332.26 M2091.9 1330.5 L2091.9 1345.3 L2087.64 1345.3 L2087.64 1341.36 Q2086.18 1343.72 2084 1344.86 Q2081.83 1345.97 2078.68 1345.97 Q2074.7 1345.97 2072.34 1343.75 Q2070 1341.5 2070 1337.75 Q2070 1333.38 2072.92 1331.15 Q2075.85 1328.93 2081.67 1328.93 L2087.64 1328.93 L2087.64 1328.51 Q2087.64 1325.57 2085.69 1323.98 Q2083.77 1322.36 2080.28 1322.36 Q2078.05 1322.36 2075.95 1322.89 Q2073.84 1323.42 2071.9 1324.49 L2071.9 1320.55 Q2074.23 1319.65 2076.43 1319.21 Q2078.63 1318.75 2080.72 1318.75 Q2086.34 1318.75 2089.12 1321.66 Q2091.9 1324.58 2091.9 1330.5 Z" fill="#000000" fill-rule="nonzero" fill-opacity="1" /><path clip-path="url(#clip650)" d="M2100.67 1309.28 L2104.93 1309.28 L2104.93 1345.3 L2100.67 1345.3 L2100.67 1309.28 Z" fill="#000000" fill-rule="nonzero" fill-opacity="1" /></svg>
