<?xml version="1.0" encoding="utf-8"?>
<svg xmlns="http://www.w3.org/2000/svg" xmlns:xlink="http://www.w3.org/1999/xlink" width="800" height="400" viewBox="0 0 3200 1600">
<defs>
  <clipPath id="clip100">
    <rect x="0" y="0" width="3200" height="1600"/>
  </clipPath>
</defs>
<path clip-path="url(#clip100)" d="M0 1600 L3200 1600 L3200 0 L0 0  Z" fill="#ffffff" fill-rule="evenodd" fill-opacity="1"/>
<defs>
  <clipPath id="clip101">
    <rect x="273" y="95" width="2880" height="1353"/>
  </clipPath>
</defs>
<path clip-path="url(#clip100)" d="M273.918 1446.94 L3152.76 1446.94 L3152.76 95.3921 L273.918 95.3921  Z" fill="#ffffff" fill-rule="evenodd" fill-opacity="1"/>
<polyline clip-path="url(#clip101)" style="stroke:#000000; stroke-linecap:round; stroke-linejoin:round; stroke-width:2; stroke-opacity:0.1; fill:none" points="355.395,1446.94 355.395,95.3921 "/>
<polyline clip-path="url(#clip101)" style="stroke:#000000; stroke-linecap:round; stroke-linejoin:round; stroke-width:2; stroke-opacity:0.1; fill:none" points="945.943,1446.94 945.943,95.3921 "/>
<polyline clip-path="url(#clip101)" style="stroke:#000000; stroke-linecap:round; stroke-linejoin:round; stroke-width:2; stroke-opacity:0.1; fill:none" points="1536.49,1446.94 1536.49,95.3921 "/>
<polyline clip-path="url(#clip101)" style="stroke:#000000; stroke-linecap:round; stroke-linejoin:round; stroke-width:2; stroke-opacity:0.1; fill:none" points="2127.04,1446.94 2127.04,95.3921 "/>
<polyline clip-path="url(#clip101)" style="stroke:#000000; stroke-linecap:round; stroke-linejoin:round; stroke-width:2; stroke-opacity:0.1; fill:none" points="2717.59,1446.94 2717.59,95.3921 "/>
<polyline clip-path="url(#clip101)" style="stroke:#000000; stroke-linecap:round; stroke-linejoin:round; stroke-width:2; stroke-opacity:0.1; fill:none" points="273.918,1308.08 3152.76,1308.08 "/>
<polyline clip-path="url(#clip101)" style="stroke:#000000; stroke-linecap:round; stroke-linejoin:round; stroke-width:2; stroke-opacity:0.1; fill:none" points="273.918,1074.43 3152.76,1074.43 "/>
<polyline clip-path="url(#clip101)" style="stroke:#000000; stroke-linecap:round; stroke-linejoin:round; stroke-width:2; stroke-opacity:0.1; fill:none" points="273.918,840.77 3152.76,840.77 "/>
<polyline clip-path="url(#clip101)" style="stroke:#000000; stroke-linecap:round; stroke-linejoin:round; stroke-width:2; stroke-opacity:0.1; fill:none" points="273.918,607.113 3152.76,607.113 "/>
<polyline clip-path="url(#clip101)" style="stroke:#000000; stroke-linecap:round; stroke-linejoin:round; stroke-width:2; stroke-opacity:0.1; fill:none" points="273.918,373.456 3152.76,373.456 "/>
<polyline clip-path="url(#clip101)" style="stroke:#000000; stroke-linecap:round; stroke-linejoin:round; stroke-width:2; stroke-opacity:0.1; fill:none" points="273.918,139.799 3152.76,139.799 "/>
<polyline clip-path="url(#clip100)" style="stroke:#000000; stroke-linecap:round; stroke-linejoin:round; stroke-width:4; stroke-opacity:1; fill:none" points="273.918,1446.94 3152.76,1446.94 "/>
<polyline clip-path="url(#clip100)" style="stroke:#000000; stroke-linecap:round; stroke-linejoin:round; stroke-width:4; stroke-opacity:1; fill:none" points="355.395,1446.94 355.395,1428.04 "/>
<polyline clip-path="url(#clip100)" style="stroke:#000000; stroke-linecap:round; stroke-linejoin:round; stroke-width:4; stroke-opacity:1; fill:none" points="945.943,1446.94 945.943,1428.04 "/>
<polyline clip-path="url(#clip100)" style="stroke:#000000; stroke-linecap:round; stroke-linejoin:round; stroke-width:4; stroke-opacity:1; fill:none" points="1536.49,1446.94 1536.49,1428.04 "/>
<polyline clip-path="url(#clip100)" style="stroke:#000000; stroke-linecap:round; stroke-linejoin:round; stroke-width:4; stroke-opacity:1; fill:none" points="2127.04,1446.94 2127.04,1428.04 "/>
<polyline clip-path="url(#clip100)" style="stroke:#000000; stroke-linecap:round; stroke-linejoin:round; stroke-width:4; stroke-opacity:1; fill:none" points="2717.59,1446.94 2717.59,1428.04 "/>
<path clip-path="url(#clip100)" d="M317.698 1484.26 Q314.087 1484.26 312.258 1487.82 Q310.453 1491.36 310.453 1498.49 Q310.453 1505.6 312.258 1509.17 Q314.087 1512.71 317.698 1512.71 Q321.332 1512.71 323.138 1509.17 Q324.967 1505.6 324.967 1498.49 Q324.967 1491.36 323.138 1487.82 Q321.332 1484.26 317.698 1484.26 M317.698 1480.55 Q323.508 1480.55 326.564 1485.16 Q329.642 1489.74 329.642 1498.49 Q329.642 1507.22 326.564 1511.83 Q323.508 1516.41 317.698 1516.41 Q311.888 1516.41 308.809 1511.83 Q305.754 1507.22 305.754 1498.49 Q305.754 1489.74 308.809 1485.16 Q311.888 1480.55 317.698 1480.55 Z" fill="#000000" fill-rule="nonzero" fill-opacity="1" /><path clip-path="url(#clip100)" d="M337.86 1509.86 L342.744 1509.86 L342.744 1515.74 L337.86 1515.74 L337.86 1509.86 Z" fill="#000000" fill-rule="nonzero" fill-opacity="1" /><path clip-path="url(#clip100)" d="M362.929 1484.26 Q359.318 1484.26 357.49 1487.82 Q355.684 1491.36 355.684 1498.49 Q355.684 1505.6 357.49 1509.17 Q359.318 1512.71 362.929 1512.71 Q366.564 1512.71 368.369 1509.17 Q370.198 1505.6 370.198 1498.49 Q370.198 1491.36 368.369 1487.82 Q366.564 1484.26 362.929 1484.26 M362.929 1480.55 Q368.739 1480.55 371.795 1485.16 Q374.874 1489.74 374.874 1498.49 Q374.874 1507.22 371.795 1511.83 Q368.739 1516.41 362.929 1516.41 Q357.119 1516.41 354.04 1511.83 Q350.985 1507.22 350.985 1498.49 Q350.985 1489.74 354.04 1485.16 Q357.119 1480.55 362.929 1480.55 Z" fill="#000000" fill-rule="nonzero" fill-opacity="1" /><path clip-path="url(#clip100)" d="M393.091 1484.26 Q389.48 1484.26 387.651 1487.82 Q385.846 1491.36 385.846 1498.49 Q385.846 1505.6 387.651 1509.17 Q389.48 1512.71 393.091 1512.71 Q396.725 1512.71 398.531 1509.17 Q400.36 1505.6 400.36 1498.49 Q400.36 1491.36 398.531 1487.82 Q396.725 1484.26 393.091 1484.26 M393.091 1480.55 Q398.901 1480.55 401.957 1485.16 Q405.036 1489.74 405.036 1498.49 Q405.036 1507.22 401.957 1511.83 Q398.901 1516.41 393.091 1516.41 Q387.281 1516.41 384.202 1511.83 Q381.147 1507.22 381.147 1498.49 Q381.147 1489.74 384.202 1485.16 Q387.281 1480.55 393.091 1480.55 Z" fill="#000000" fill-rule="nonzero" fill-opacity="1" /><path clip-path="url(#clip100)" d="M908.744 1484.26 Q905.133 1484.26 903.304 1487.82 Q901.498 1491.36 901.498 1498.49 Q901.498 1505.6 903.304 1509.17 Q905.133 1512.71 908.744 1512.71 Q912.378 1512.71 914.183 1509.17 Q916.012 1505.6 916.012 1498.49 Q916.012 1491.36 914.183 1487.82 Q912.378 1484.26 908.744 1484.26 M908.744 1480.55 Q914.554 1480.55 917.609 1485.16 Q920.688 1489.74 920.688 1498.49 Q920.688 1507.22 917.609 1511.83 Q914.554 1516.41 908.744 1516.41 Q902.933 1516.41 899.855 1511.83 Q896.799 1507.22 896.799 1498.49 Q896.799 1489.74 899.855 1485.16 Q902.933 1480.55 908.744 1480.55 Z" fill="#000000" fill-rule="nonzero" fill-opacity="1" /><path clip-path="url(#clip100)" d="M928.906 1509.86 L933.79 1509.86 L933.79 1515.74 L928.906 1515.74 L928.906 1509.86 Z" fill="#000000" fill-rule="nonzero" fill-opacity="1" /><path clip-path="url(#clip100)" d="M948.003 1511.8 L964.322 1511.8 L964.322 1515.74 L942.378 1515.74 L942.378 1511.8 Q945.04 1509.05 949.623 1504.42 Q954.23 1499.77 955.41 1498.43 Q957.655 1495.9 958.535 1494.17 Q959.438 1492.41 959.438 1490.72 Q959.438 1487.96 957.493 1486.23 Q955.572 1484.49 952.47 1484.49 Q950.271 1484.49 947.818 1485.25 Q945.387 1486.02 942.609 1487.57 L942.609 1482.85 Q945.433 1481.71 947.887 1481.13 Q950.341 1480.55 952.378 1480.55 Q957.748 1480.55 960.942 1483.24 Q964.137 1485.93 964.137 1490.42 Q964.137 1492.55 963.327 1494.47 Q962.54 1496.36 960.433 1498.96 Q959.854 1499.63 956.753 1502.85 Q953.651 1506.04 948.003 1511.8 Z" fill="#000000" fill-rule="nonzero" fill-opacity="1" /><path clip-path="url(#clip100)" d="M974.183 1481.18 L992.539 1481.18 L992.539 1485.12 L978.465 1485.12 L978.465 1493.59 Q979.484 1493.24 980.503 1493.08 Q981.521 1492.89 982.54 1492.89 Q988.327 1492.89 991.706 1496.06 Q995.086 1499.24 995.086 1504.65 Q995.086 1510.23 991.614 1513.33 Q988.141 1516.41 981.822 1516.41 Q979.646 1516.41 977.378 1516.04 Q975.132 1515.67 972.725 1514.93 L972.725 1510.23 Q974.808 1511.36 977.03 1511.92 Q979.253 1512.48 981.729 1512.48 Q985.734 1512.48 988.072 1510.37 Q990.41 1508.26 990.41 1504.65 Q990.41 1501.04 988.072 1498.93 Q985.734 1496.83 981.729 1496.83 Q979.854 1496.83 977.979 1497.24 Q976.128 1497.66 974.183 1498.54 L974.183 1481.18 Z" fill="#000000" fill-rule="nonzero" fill-opacity="1" /><path clip-path="url(#clip100)" d="M1498.79 1484.26 Q1495.18 1484.26 1493.35 1487.82 Q1491.55 1491.36 1491.55 1498.49 Q1491.55 1505.6 1493.35 1509.17 Q1495.18 1512.71 1498.79 1512.71 Q1502.43 1512.71 1504.23 1509.17 Q1506.06 1505.6 1506.06 1498.49 Q1506.06 1491.36 1504.23 1487.82 Q1502.43 1484.26 1498.79 1484.26 M1498.79 1480.55 Q1504.6 1480.55 1507.66 1485.16 Q1510.74 1489.74 1510.74 1498.49 Q1510.74 1507.22 1507.66 1511.83 Q1504.6 1516.41 1498.79 1516.41 Q1492.98 1516.41 1489.9 1511.83 Q1486.85 1507.22 1486.85 1498.49 Q1486.85 1489.74 1489.9 1485.16 Q1492.98 1480.55 1498.79 1480.55 Z" fill="#000000" fill-rule="nonzero" fill-opacity="1" /><path clip-path="url(#clip100)" d="M1518.96 1509.86 L1523.84 1509.86 L1523.84 1515.74 L1518.96 1515.74 L1518.96 1509.86 Z" fill="#000000" fill-rule="nonzero" fill-opacity="1" /><path clip-path="url(#clip100)" d="M1534.07 1481.18 L1552.43 1481.18 L1552.43 1485.12 L1538.35 1485.12 L1538.35 1493.59 Q1539.37 1493.24 1540.39 1493.08 Q1541.41 1492.89 1542.43 1492.89 Q1548.21 1492.89 1551.59 1496.06 Q1554.97 1499.24 1554.97 1504.65 Q1554.97 1510.23 1551.5 1513.33 Q1548.03 1516.41 1541.71 1516.41 Q1539.53 1516.41 1537.27 1516.04 Q1535.02 1515.67 1532.61 1514.93 L1532.61 1510.23 Q1534.7 1511.36 1536.92 1511.92 Q1539.14 1512.48 1541.62 1512.48 Q1545.62 1512.48 1547.96 1510.37 Q1550.3 1508.26 1550.3 1504.65 Q1550.3 1501.04 1547.96 1498.93 Q1545.62 1496.83 1541.62 1496.83 Q1539.74 1496.83 1537.87 1497.24 Q1536.02 1497.66 1534.07 1498.54 L1534.07 1481.18 Z" fill="#000000" fill-rule="nonzero" fill-opacity="1" /><path clip-path="url(#clip100)" d="M1574.19 1484.26 Q1570.58 1484.26 1568.75 1487.82 Q1566.94 1491.36 1566.94 1498.49 Q1566.94 1505.6 1568.75 1509.17 Q1570.58 1512.71 1574.19 1512.71 Q1577.82 1512.71 1579.63 1509.17 Q1581.46 1505.6 1581.46 1498.49 Q1581.46 1491.36 1579.63 1487.82 Q1577.82 1484.26 1574.19 1484.26 M1574.19 1480.55 Q1580 1480.55 1583.05 1485.16 Q1586.13 1489.74 1586.13 1498.49 Q1586.13 1507.22 1583.05 1511.83 Q1580 1516.41 1574.19 1516.41 Q1568.38 1516.41 1565.3 1511.83 Q1562.24 1507.22 1562.24 1498.49 Q1562.24 1489.74 1565.3 1485.16 Q1568.38 1480.55 1574.19 1480.55 Z" fill="#000000" fill-rule="nonzero" fill-opacity="1" /><path clip-path="url(#clip100)" d="M2089.84 1484.26 Q2086.23 1484.26 2084.4 1487.82 Q2082.59 1491.36 2082.59 1498.49 Q2082.59 1505.6 2084.4 1509.17 Q2086.23 1512.71 2089.84 1512.71 Q2093.47 1512.71 2095.28 1509.17 Q2097.11 1505.6 2097.11 1498.49 Q2097.11 1491.36 2095.28 1487.82 Q2093.47 1484.26 2089.84 1484.26 M2089.84 1480.55 Q2095.65 1480.55 2098.71 1485.16 Q2101.78 1489.74 2101.78 1498.49 Q2101.78 1507.22 2098.71 1511.83 Q2095.65 1516.41 2089.84 1516.41 Q2084.03 1516.41 2080.95 1511.83 Q2077.9 1507.22 2077.9 1498.49 Q2077.9 1489.74 2080.95 1485.16 Q2084.03 1480.55 2089.84 1480.55 Z" fill="#000000" fill-rule="nonzero" fill-opacity="1" /><path clip-path="url(#clip100)" d="M2110 1509.86 L2114.89 1509.86 L2114.89 1515.74 L2110 1515.74 L2110 1509.86 Z" fill="#000000" fill-rule="nonzero" fill-opacity="1" /><path clip-path="url(#clip100)" d="M2123.89 1481.18 L2146.11 1481.18 L2146.11 1483.17 L2133.57 1515.74 L2128.68 1515.74 L2140.49 1485.12 L2123.89 1485.12 L2123.89 1481.18 Z" fill="#000000" fill-rule="nonzero" fill-opacity="1" /><path clip-path="url(#clip100)" d="M2155.28 1481.18 L2173.64 1481.18 L2173.64 1485.12 L2159.56 1485.12 L2159.56 1493.59 Q2160.58 1493.24 2161.6 1493.08 Q2162.62 1492.89 2163.64 1492.89 Q2169.42 1492.89 2172.8 1496.06 Q2176.18 1499.24 2176.18 1504.65 Q2176.18 1510.23 2172.71 1513.33 Q2169.24 1516.41 2162.92 1516.41 Q2160.74 1516.41 2158.47 1516.04 Q2156.23 1515.67 2153.82 1514.93 L2153.82 1510.23 Q2155.9 1511.36 2158.13 1511.92 Q2160.35 1512.48 2162.83 1512.48 Q2166.83 1512.48 2169.17 1510.37 Q2171.51 1508.26 2171.51 1504.65 Q2171.51 1501.04 2169.17 1498.93 Q2166.83 1496.83 2162.83 1496.83 Q2160.95 1496.83 2159.08 1497.24 Q2157.22 1497.66 2155.28 1498.54 L2155.28 1481.18 Z" fill="#000000" fill-rule="nonzero" fill-opacity="1" /><path clip-path="url(#clip100)" d="M2669.66 1511.8 L2677.3 1511.8 L2677.3 1485.44 L2668.99 1487.11 L2668.99 1482.85 L2677.25 1481.18 L2681.93 1481.18 L2681.93 1511.8 L2689.57 1511.8 L2689.57 1515.74 L2669.66 1515.74 L2669.66 1511.8 Z" fill="#000000" fill-rule="nonzero" fill-opacity="1" /><path clip-path="url(#clip100)" d="M2699.01 1509.86 L2703.89 1509.86 L2703.89 1515.74 L2699.01 1515.74 L2699.01 1509.86 Z" fill="#000000" fill-rule="nonzero" fill-opacity="1" /><path clip-path="url(#clip100)" d="M2724.08 1484.26 Q2720.47 1484.26 2718.64 1487.82 Q2716.83 1491.36 2716.83 1498.49 Q2716.83 1505.6 2718.64 1509.17 Q2720.47 1512.71 2724.08 1512.71 Q2727.71 1512.71 2729.52 1509.17 Q2731.35 1505.6 2731.35 1498.49 Q2731.35 1491.36 2729.52 1487.82 Q2727.71 1484.26 2724.08 1484.26 M2724.08 1480.55 Q2729.89 1480.55 2732.94 1485.16 Q2736.02 1489.74 2736.02 1498.49 Q2736.02 1507.22 2732.94 1511.83 Q2729.89 1516.41 2724.08 1516.41 Q2718.27 1516.41 2715.19 1511.83 Q2712.13 1507.22 2712.13 1498.49 Q2712.13 1489.74 2715.19 1485.16 Q2718.27 1480.55 2724.08 1480.55 Z" fill="#000000" fill-rule="nonzero" fill-opacity="1" /><path clip-path="url(#clip100)" d="M2754.24 1484.26 Q2750.63 1484.26 2748.8 1487.82 Q2747 1491.36 2747 1498.49 Q2747 1505.6 2748.8 1509.17 Q2750.63 1512.71 2754.24 1512.71 Q2757.88 1512.71 2759.68 1509.17 Q2761.51 1505.6 2761.51 1498.49 Q2761.51 1491.36 2759.68 1487.82 Q2757.88 1484.26 2754.24 1484.26 M2754.24 1480.55 Q2760.05 1480.55 2763.11 1485.16 Q2766.19 1489.74 2766.19 1498.49 Q2766.19 1507.22 2763.11 1511.83 Q2760.05 1516.41 2754.24 1516.41 Q2748.43 1516.41 2745.35 1511.83 Q2742.3 1507.22 2742.3 1498.49 Q2742.3 1489.74 2745.35 1485.16 Q2748.43 1480.55 2754.24 1480.55 Z" fill="#000000" fill-rule="nonzero" fill-opacity="1" /><path clip-path="url(#clip100)" d="M1712.48 1557.01 L1712.48 1566.21 L1723.45 1566.21 L1723.45 1570.35 L1712.48 1570.35 L1712.48 1587.94 Q1712.48 1591.91 1713.55 1593.04 Q1714.65 1594.16 1717.98 1594.16 L1723.45 1594.16 L1723.45 1598.62 L1717.98 1598.62 Q1711.82 1598.62 1709.47 1596.33 Q1707.13 1594.02 1707.13 1587.94 L1707.13 1570.35 L1703.22 1570.35 L1703.22 1566.21 L1707.13 1566.21 L1707.13 1557.01 L1712.48 1557.01 Z" fill="#000000" fill-rule="nonzero" fill-opacity="1" /><polyline clip-path="url(#clip100)" style="stroke:#000000; stroke-linecap:round; stroke-linejoin:round; stroke-width:4; stroke-opacity:1; fill:none" points="273.918,1446.94 273.918,95.3921 "/>
<polyline clip-path="url(#clip100)" style="stroke:#000000; stroke-linecap:round; stroke-linejoin:round; stroke-width:4; stroke-opacity:1; fill:none" points="273.918,1308.08 292.816,1308.08 "/>
<polyline clip-path="url(#clip100)" style="stroke:#000000; stroke-linecap:round; stroke-linejoin:round; stroke-width:4; stroke-opacity:1; fill:none" points="273.918,1074.43 292.816,1074.43 "/>
<polyline clip-path="url(#clip100)" style="stroke:#000000; stroke-linecap:round; stroke-linejoin:round; stroke-width:4; stroke-opacity:1; fill:none" points="273.918,840.77 292.816,840.77 "/>
<polyline clip-path="url(#clip100)" style="stroke:#000000; stroke-linecap:round; stroke-linejoin:round; stroke-width:4; stroke-opacity:1; fill:none" points="273.918,607.113 292.816,607.113 "/>
<polyline clip-path="url(#clip100)" style="stroke:#000000; stroke-linecap:round; stroke-linejoin:round; stroke-width:4; stroke-opacity:1; fill:none" points="273.918,373.456 292.816,373.456 "/>
<polyline clip-path="url(#clip100)" style="stroke:#000000; stroke-linecap:round; stroke-linejoin:round; stroke-width:4; stroke-opacity:1; fill:none" points="273.918,139.799 292.816,139.799 "/>
<path clip-path="url(#clip100)" d="M139.576 1293.88 Q135.965 1293.88 134.136 1297.45 Q132.331 1300.99 132.331 1308.12 Q132.331 1315.22 134.136 1318.79 Q135.965 1322.33 139.576 1322.33 Q143.21 1322.33 145.016 1318.79 Q146.844 1315.22 146.844 1308.12 Q146.844 1300.99 145.016 1297.45 Q143.21 1293.88 139.576 1293.88 M139.576 1290.18 Q145.386 1290.18 148.442 1294.79 Q151.52 1299.37 151.52 1308.12 Q151.52 1316.85 148.442 1321.45 Q145.386 1326.04 139.576 1326.04 Q133.766 1326.04 130.687 1321.45 Q127.632 1316.85 127.632 1308.12 Q127.632 1299.37 130.687 1294.79 Q133.766 1290.18 139.576 1290.18 Z" fill="#000000" fill-rule="nonzero" fill-opacity="1" /><path clip-path="url(#clip100)" d="M159.738 1319.48 L164.622 1319.48 L164.622 1325.36 L159.738 1325.36 L159.738 1319.48 Z" fill="#000000" fill-rule="nonzero" fill-opacity="1" /><path clip-path="url(#clip100)" d="M175.617 1321.43 L183.256 1321.43 L183.256 1295.06 L174.946 1296.73 L174.946 1292.47 L183.21 1290.8 L187.886 1290.8 L187.886 1321.43 L195.525 1321.43 L195.525 1325.36 L175.617 1325.36 L175.617 1321.43 Z" fill="#000000" fill-rule="nonzero" fill-opacity="1" /><path clip-path="url(#clip100)" d="M205.015 1290.8 L223.372 1290.8 L223.372 1294.74 L209.298 1294.74 L209.298 1303.21 Q210.316 1302.86 211.335 1302.7 Q212.353 1302.52 213.372 1302.52 Q219.159 1302.52 222.538 1305.69 Q225.918 1308.86 225.918 1314.28 Q225.918 1319.85 222.446 1322.96 Q218.974 1326.04 212.654 1326.04 Q210.478 1326.04 208.21 1325.66 Q205.964 1325.29 203.557 1324.55 L203.557 1319.85 Q205.64 1320.99 207.863 1321.54 Q210.085 1322.1 212.562 1322.1 Q216.566 1322.1 218.904 1319.99 Q221.242 1317.89 221.242 1314.28 Q221.242 1310.66 218.904 1308.56 Q216.566 1306.45 212.562 1306.45 Q210.687 1306.45 208.812 1306.87 Q206.96 1307.29 205.015 1308.16 L205.015 1290.8 Z" fill="#000000" fill-rule="nonzero" fill-opacity="1" /><path clip-path="url(#clip100)" d="M138.581 1060.23 Q134.97 1060.23 133.141 1063.79 Q131.335 1067.33 131.335 1074.46 Q131.335 1081.57 133.141 1085.13 Q134.97 1088.67 138.581 1088.67 Q142.215 1088.67 144.02 1085.13 Q145.849 1081.57 145.849 1074.46 Q145.849 1067.33 144.02 1063.79 Q142.215 1060.23 138.581 1060.23 M138.581 1056.52 Q144.391 1056.52 147.446 1061.13 Q150.525 1065.71 150.525 1074.46 Q150.525 1083.19 147.446 1087.79 Q144.391 1092.38 138.581 1092.38 Q132.77 1092.38 129.692 1087.79 Q126.636 1083.19 126.636 1074.46 Q126.636 1065.71 129.692 1061.13 Q132.77 1056.52 138.581 1056.52 Z" fill="#000000" fill-rule="nonzero" fill-opacity="1" /><path clip-path="url(#clip100)" d="M158.743 1085.83 L163.627 1085.83 L163.627 1091.71 L158.743 1091.71 L158.743 1085.83 Z" fill="#000000" fill-rule="nonzero" fill-opacity="1" /><path clip-path="url(#clip100)" d="M177.84 1087.77 L194.159 1087.77 L194.159 1091.71 L172.215 1091.71 L172.215 1087.77 Q174.877 1085.02 179.46 1080.39 Q184.066 1075.73 185.247 1074.39 Q187.492 1071.87 188.372 1070.13 Q189.275 1068.37 189.275 1066.68 Q189.275 1063.93 187.33 1062.19 Q185.409 1060.46 182.307 1060.46 Q180.108 1060.46 177.654 1061.22 Q175.224 1061.98 172.446 1063.54 L172.446 1058.81 Q175.27 1057.68 177.724 1057.1 Q180.178 1056.52 182.215 1056.52 Q187.585 1056.52 190.779 1059.21 Q193.974 1061.89 193.974 1066.38 Q193.974 1068.51 193.164 1070.43 Q192.377 1072.33 190.27 1074.92 Q189.691 1075.6 186.59 1078.81 Q183.488 1082.01 177.84 1087.77 Z" fill="#000000" fill-rule="nonzero" fill-opacity="1" /><path clip-path="url(#clip100)" d="M213.974 1060.23 Q210.363 1060.23 208.534 1063.79 Q206.728 1067.33 206.728 1074.46 Q206.728 1081.57 208.534 1085.13 Q210.363 1088.67 213.974 1088.67 Q217.608 1088.67 219.414 1085.13 Q221.242 1081.57 221.242 1074.46 Q221.242 1067.33 219.414 1063.79 Q217.608 1060.23 213.974 1060.23 M213.974 1056.52 Q219.784 1056.52 222.839 1061.13 Q225.918 1065.71 225.918 1074.46 Q225.918 1083.19 222.839 1087.79 Q219.784 1092.38 213.974 1092.38 Q208.164 1092.38 205.085 1087.79 Q202.029 1083.19 202.029 1074.46 Q202.029 1065.71 205.085 1061.13 Q208.164 1056.52 213.974 1056.52 Z" fill="#000000" fill-rule="nonzero" fill-opacity="1" /><path clip-path="url(#clip100)" d="M139.576 826.569 Q135.965 826.569 134.136 830.133 Q132.331 833.675 132.331 840.805 Q132.331 847.911 134.136 851.476 Q135.965 855.018 139.576 855.018 Q143.21 855.018 145.016 851.476 Q146.844 847.911 146.844 840.805 Q146.844 833.675 145.016 830.133 Q143.21 826.569 139.576 826.569 M139.576 822.865 Q145.386 822.865 148.442 827.471 Q151.52 832.055 151.52 840.805 Q151.52 849.532 148.442 854.138 Q145.386 858.721 139.576 858.721 Q133.766 858.721 130.687 854.138 Q127.632 849.532 127.632 840.805 Q127.632 832.055 130.687 827.471 Q133.766 822.865 139.576 822.865 Z" fill="#000000" fill-rule="nonzero" fill-opacity="1" /><path clip-path="url(#clip100)" d="M159.738 852.17 L164.622 852.17 L164.622 858.05 L159.738 858.05 L159.738 852.17 Z" fill="#000000" fill-rule="nonzero" fill-opacity="1" /><path clip-path="url(#clip100)" d="M178.835 854.115 L195.154 854.115 L195.154 858.05 L173.21 858.05 L173.21 854.115 Q175.872 851.36 180.455 846.731 Q185.062 842.078 186.242 840.735 Q188.488 838.212 189.367 836.476 Q190.27 834.717 190.27 833.027 Q190.27 830.272 188.326 828.536 Q186.404 826.8 183.303 826.8 Q181.104 826.8 178.65 827.564 Q176.219 828.328 173.442 829.879 L173.442 825.157 Q176.266 824.022 178.719 823.444 Q181.173 822.865 183.21 822.865 Q188.58 822.865 191.775 825.55 Q194.969 828.235 194.969 832.726 Q194.969 834.856 194.159 836.777 Q193.372 838.675 191.266 841.268 Q190.687 841.939 187.585 845.157 Q184.483 848.351 178.835 854.115 Z" fill="#000000" fill-rule="nonzero" fill-opacity="1" /><path clip-path="url(#clip100)" d="M205.015 823.49 L223.372 823.49 L223.372 827.425 L209.298 827.425 L209.298 835.897 Q210.316 835.55 211.335 835.388 Q212.353 835.203 213.372 835.203 Q219.159 835.203 222.538 838.374 Q225.918 841.545 225.918 846.962 Q225.918 852.541 222.446 855.643 Q218.974 858.721 212.654 858.721 Q210.478 858.721 208.21 858.351 Q205.964 857.981 203.557 857.24 L203.557 852.541 Q205.64 853.675 207.863 854.231 Q210.085 854.786 212.562 854.786 Q216.566 854.786 218.904 852.68 Q221.242 850.573 221.242 846.962 Q221.242 843.351 218.904 841.245 Q216.566 839.138 212.562 839.138 Q210.687 839.138 208.812 839.555 Q206.96 839.971 205.015 840.851 L205.015 823.49 Z" fill="#000000" fill-rule="nonzero" fill-opacity="1" /><path clip-path="url(#clip100)" d="M138.581 592.912 Q134.97 592.912 133.141 596.477 Q131.335 600.018 131.335 607.148 Q131.335 614.254 133.141 617.819 Q134.97 621.361 138.581 621.361 Q142.215 621.361 144.02 617.819 Q145.849 614.254 145.849 607.148 Q145.849 600.018 144.02 596.477 Q142.215 592.912 138.581 592.912 M138.581 589.208 Q144.391 589.208 147.446 593.815 Q150.525 598.398 150.525 607.148 Q150.525 615.875 147.446 620.481 Q144.391 625.064 138.581 625.064 Q132.77 625.064 129.692 620.481 Q126.636 615.875 126.636 607.148 Q126.636 598.398 129.692 593.815 Q132.77 589.208 138.581 589.208 Z" fill="#000000" fill-rule="nonzero" fill-opacity="1" /><path clip-path="url(#clip100)" d="M158.743 618.513 L163.627 618.513 L163.627 624.393 L158.743 624.393 L158.743 618.513 Z" fill="#000000" fill-rule="nonzero" fill-opacity="1" /><path clip-path="url(#clip100)" d="M187.978 605.759 Q191.335 606.476 193.21 608.745 Q195.108 611.013 195.108 614.347 Q195.108 619.463 191.59 622.263 Q188.071 625.064 181.59 625.064 Q179.414 625.064 177.099 624.625 Q174.807 624.208 172.354 623.351 L172.354 618.838 Q174.298 619.972 176.613 620.55 Q178.928 621.129 181.451 621.129 Q185.849 621.129 188.141 619.393 Q190.455 617.657 190.455 614.347 Q190.455 611.291 188.303 609.578 Q186.173 607.842 182.354 607.842 L178.326 607.842 L178.326 604 L182.539 604 Q185.988 604 187.816 602.634 Q189.645 601.245 189.645 598.652 Q189.645 595.99 187.747 594.578 Q185.872 593.143 182.354 593.143 Q180.432 593.143 178.233 593.56 Q176.034 593.977 173.395 594.856 L173.395 590.69 Q176.057 589.949 178.372 589.578 Q180.71 589.208 182.77 589.208 Q188.094 589.208 191.196 591.639 Q194.298 594.046 194.298 598.166 Q194.298 601.037 192.654 603.027 Q191.011 604.995 187.978 605.759 Z" fill="#000000" fill-rule="nonzero" fill-opacity="1" /><path clip-path="url(#clip100)" d="M213.974 592.912 Q210.363 592.912 208.534 596.477 Q206.728 600.018 206.728 607.148 Q206.728 614.254 208.534 617.819 Q210.363 621.361 213.974 621.361 Q217.608 621.361 219.414 617.819 Q221.242 614.254 221.242 607.148 Q221.242 600.018 219.414 596.477 Q217.608 592.912 213.974 592.912 M213.974 589.208 Q219.784 589.208 222.839 593.815 Q225.918 598.398 225.918 607.148 Q225.918 615.875 222.839 620.481 Q219.784 625.064 213.974 625.064 Q208.164 625.064 205.085 620.481 Q202.029 615.875 202.029 607.148 Q202.029 598.398 205.085 593.815 Q208.164 589.208 213.974 589.208 Z" fill="#000000" fill-rule="nonzero" fill-opacity="1" /><path clip-path="url(#clip100)" d="M139.576 359.255 Q135.965 359.255 134.136 362.82 Q132.331 366.361 132.331 373.491 Q132.331 380.597 134.136 384.162 Q135.965 387.704 139.576 387.704 Q143.21 387.704 145.016 384.162 Q146.844 380.597 146.844 373.491 Q146.844 366.361 145.016 362.82 Q143.21 359.255 139.576 359.255 M139.576 355.551 Q145.386 355.551 148.442 360.158 Q151.52 364.741 151.52 373.491 Q151.52 382.218 148.442 386.824 Q145.386 391.407 139.576 391.407 Q133.766 391.407 130.687 386.824 Q127.632 382.218 127.632 373.491 Q127.632 364.741 130.687 360.158 Q133.766 355.551 139.576 355.551 Z" fill="#000000" fill-rule="nonzero" fill-opacity="1" /><path clip-path="url(#clip100)" d="M159.738 384.857 L164.622 384.857 L164.622 390.736 L159.738 390.736 L159.738 384.857 Z" fill="#000000" fill-rule="nonzero" fill-opacity="1" /><path clip-path="url(#clip100)" d="M188.974 372.102 Q192.33 372.82 194.205 375.088 Q196.103 377.357 196.103 380.69 Q196.103 385.806 192.585 388.607 Q189.066 391.407 182.585 391.407 Q180.409 391.407 178.094 390.968 Q175.803 390.551 173.349 389.694 L173.349 385.181 Q175.293 386.315 177.608 386.894 Q179.923 387.472 182.446 387.472 Q186.844 387.472 189.136 385.736 Q191.451 384 191.451 380.69 Q191.451 377.634 189.298 375.921 Q187.168 374.185 183.349 374.185 L179.321 374.185 L179.321 370.343 L183.534 370.343 Q186.983 370.343 188.812 368.977 Q190.641 367.588 190.641 364.996 Q190.641 362.333 188.742 360.921 Q186.867 359.486 183.349 359.486 Q181.428 359.486 179.229 359.903 Q177.029 360.32 174.391 361.199 L174.391 357.033 Q177.053 356.292 179.367 355.921 Q181.705 355.551 183.766 355.551 Q189.09 355.551 192.191 357.982 Q195.293 360.389 195.293 364.509 Q195.293 367.38 193.65 369.37 Q192.006 371.338 188.974 372.102 Z" fill="#000000" fill-rule="nonzero" fill-opacity="1" /><path clip-path="url(#clip100)" d="M205.015 356.176 L223.372 356.176 L223.372 360.111 L209.298 360.111 L209.298 368.583 Q210.316 368.236 211.335 368.074 Q212.353 367.889 213.372 367.889 Q219.159 367.889 222.538 371.06 Q225.918 374.232 225.918 379.648 Q225.918 385.227 222.446 388.329 Q218.974 391.407 212.654 391.407 Q210.478 391.407 208.21 391.037 Q205.964 390.667 203.557 389.926 L203.557 385.227 Q205.64 386.361 207.863 386.917 Q210.085 387.472 212.562 387.472 Q216.566 387.472 218.904 385.366 Q221.242 383.259 221.242 379.648 Q221.242 376.037 218.904 373.931 Q216.566 371.824 212.562 371.824 Q210.687 371.824 208.812 372.241 Q206.96 372.658 205.015 373.537 L205.015 356.176 Z" fill="#000000" fill-rule="nonzero" fill-opacity="1" /><path clip-path="url(#clip100)" d="M138.581 125.598 Q134.97 125.598 133.141 129.163 Q131.335 132.704 131.335 139.834 Q131.335 146.94 133.141 150.505 Q134.97 154.047 138.581 154.047 Q142.215 154.047 144.02 150.505 Q145.849 146.94 145.849 139.834 Q145.849 132.704 144.02 129.163 Q142.215 125.598 138.581 125.598 M138.581 121.894 Q144.391 121.894 147.446 126.501 Q150.525 131.084 150.525 139.834 Q150.525 148.561 147.446 153.167 Q144.391 157.75 138.581 157.75 Q132.77 157.75 129.692 153.167 Q126.636 148.561 126.636 139.834 Q126.636 131.084 129.692 126.501 Q132.77 121.894 138.581 121.894 Z" fill="#000000" fill-rule="nonzero" fill-opacity="1" /><path clip-path="url(#clip100)" d="M158.743 151.2 L163.627 151.2 L163.627 157.079 L158.743 157.079 L158.743 151.2 Z" fill="#000000" fill-rule="nonzero" fill-opacity="1" /><path clip-path="url(#clip100)" d="M186.659 126.593 L174.854 145.042 L186.659 145.042 L186.659 126.593 M185.432 122.519 L191.312 122.519 L191.312 145.042 L196.242 145.042 L196.242 148.931 L191.312 148.931 L191.312 157.079 L186.659 157.079 L186.659 148.931 L171.057 148.931 L171.057 144.417 L185.432 122.519 Z" fill="#000000" fill-rule="nonzero" fill-opacity="1" /><path clip-path="url(#clip100)" d="M213.974 125.598 Q210.363 125.598 208.534 129.163 Q206.728 132.704 206.728 139.834 Q206.728 146.94 208.534 150.505 Q210.363 154.047 213.974 154.047 Q217.608 154.047 219.414 150.505 Q221.242 146.94 221.242 139.834 Q221.242 132.704 219.414 129.163 Q217.608 125.598 213.974 125.598 M213.974 121.894 Q219.784 121.894 222.839 126.501 Q225.918 131.084 225.918 139.834 Q225.918 148.561 222.839 153.167 Q219.784 157.75 213.974 157.75 Q208.164 157.75 205.085 153.167 Q202.029 148.561 202.029 139.834 Q202.029 131.084 205.085 126.501 Q208.164 121.894 213.974 121.894 Z" fill="#000000" fill-rule="nonzero" fill-opacity="1" /><path clip-path="url(#clip100)" d="M52.8869 784.737 L33.269 784.737 L33.269 779.412 L52.6844 779.412 Q57.2851 779.412 59.5999 777.618 Q61.8857 775.825 61.8857 772.237 Q61.8857 767.925 59.1369 765.437 Q56.3881 762.92 51.6427 762.92 L33.269 762.92 L33.269 757.595 L65.6762 757.595 L65.6762 762.92 L60.6994 762.92 Q63.6508 764.858 65.0975 767.433 Q66.5153 769.98 66.5153 773.365 Q66.5153 778.95 63.0431 781.843 Q59.5709 784.737 52.8869 784.737 M32.4877 771.34 L32.4877 771.34 Z" fill="#000000" fill-rule="nonzero" fill-opacity="1" /><path clip-path="url(#clip100)" d="M1640.68 20.677 L1640.68 25.6538 Q1638.42 24.4096 1636.14 23.802 Q1633.88 23.1654 1631.57 23.1654 Q1626.39 23.1654 1623.52 26.464 Q1620.66 29.7336 1620.66 35.6653 Q1620.66 41.597 1623.52 44.8956 Q1626.39 48.1653 1631.57 48.1653 Q1633.88 48.1653 1636.14 47.5576 Q1638.42 46.921 1640.68 45.6768 L1640.68 50.5958 Q1638.45 51.6375 1636.05 52.1583 Q1633.68 52.6791 1630.99 52.6791 Q1623.67 52.6791 1619.36 48.0784 Q1615.04 43.4778 1615.04 35.6653 Q1615.04 27.7371 1619.38 23.1943 Q1623.75 18.6515 1631.34 18.6515 Q1633.79 18.6515 1636.14 19.1724 Q1638.48 19.6642 1640.68 20.677 Z" fill="#000000" fill-rule="nonzero" fill-opacity="1" /><path clip-path="url(#clip100)" d="M1662.5 23.1654 Q1658.22 23.1654 1655.73 26.5218 Q1653.24 29.8494 1653.24 35.6653 Q1653.24 41.4813 1655.7 44.8377 Q1658.19 48.1653 1662.5 48.1653 Q1666.75 48.1653 1669.24 44.8088 Q1671.73 41.4523 1671.73 35.6653 Q1671.73 29.9072 1669.24 26.5508 Q1666.75 23.1654 1662.5 23.1654 M1662.5 18.6515 Q1669.44 18.6515 1673.41 23.1654 Q1677.37 27.6792 1677.37 35.6653 Q1677.37 43.6225 1673.41 48.1653 Q1669.44 52.6791 1662.5 52.6791 Q1655.52 52.6791 1651.56 48.1653 Q1647.63 43.6225 1647.63 35.6653 Q1647.63 27.6792 1651.56 23.1654 Q1655.52 18.6515 1662.5 18.6515 Z" fill="#000000" fill-rule="nonzero" fill-opacity="1" /><path clip-path="url(#clip100)" d="M1713.13 32.2799 L1713.13 51.84 L1707.81 51.84 L1707.81 32.4535 Q1707.81 27.8529 1706.02 25.567 Q1704.22 23.2811 1700.63 23.2811 Q1696.32 23.2811 1693.83 26.03 Q1691.35 28.7788 1691.35 33.5241 L1691.35 51.84 L1685.99 51.84 L1685.99 19.4328 L1691.35 19.4328 L1691.35 24.4675 Q1693.26 21.545 1695.83 20.0983 Q1698.44 18.6515 1701.82 18.6515 Q1707.41 18.6515 1710.27 22.1237 Q1713.13 25.567 1713.13 32.2799 Z" fill="#000000" fill-rule="nonzero" fill-opacity="1" /><path clip-path="url(#clip100)" d="M1729.02 10.2314 L1729.02 19.4328 L1739.99 19.4328 L1739.99 23.5705 L1729.02 23.5705 L1729.02 41.163 Q1729.02 45.1271 1730.09 46.2555 Q1731.19 47.384 1734.52 47.384 L1739.99 47.384 L1739.99 51.84 L1734.52 51.84 Q1728.35 51.84 1726.01 49.5541 Q1723.67 47.2393 1723.67 41.163 L1723.67 23.5705 L1719.76 23.5705 L1719.76 19.4328 L1723.67 19.4328 L1723.67 10.2314 L1729.02 10.2314 Z" fill="#000000" fill-rule="nonzero" fill-opacity="1" /><path clip-path="url(#clip100)" d="M1765.77 24.4096 Q1764.87 23.8888 1763.8 23.6573 Q1762.76 23.3969 1761.48 23.3969 Q1756.97 23.3969 1754.54 26.3482 Q1752.14 29.2707 1752.14 34.7683 L1752.14 51.84 L1746.79 51.84 L1746.79 19.4328 L1752.14 19.4328 L1752.14 24.4675 Q1753.82 21.5161 1756.51 20.0983 Q1759.2 18.6515 1763.05 18.6515 Q1763.6 18.6515 1764.26 18.7383 Q1764.93 18.7962 1765.74 18.9409 L1765.77 24.4096 Z" fill="#000000" fill-rule="nonzero" fill-opacity="1" /><path clip-path="url(#clip100)" d="M1782.61 23.1654 Q1778.33 23.1654 1775.84 26.5218 Q1773.35 29.8494 1773.35 35.6653 Q1773.35 41.4813 1775.81 44.8377 Q1778.3 48.1653 1782.61 48.1653 Q1786.86 48.1653 1789.35 44.8088 Q1791.84 41.4523 1791.84 35.6653 Q1791.84 29.9072 1789.35 26.5508 Q1786.86 23.1654 1782.61 23.1654 M1782.61 18.6515 Q1789.55 18.6515 1793.52 23.1654 Q1797.48 27.6792 1797.48 35.6653 Q1797.48 43.6225 1793.52 48.1653 Q1789.55 52.6791 1782.61 52.6791 Q1775.63 52.6791 1771.67 48.1653 Q1767.73 43.6225 1767.73 35.6653 Q1767.73 27.6792 1771.67 23.1654 Q1775.63 18.6515 1782.61 18.6515 Z" fill="#000000" fill-rule="nonzero" fill-opacity="1" /><path clip-path="url(#clip100)" d="M1806.31 6.81709 L1811.63 6.81709 L1811.63 51.84 L1806.31 51.84 L1806.31 6.81709 Z" fill="#000000" fill-rule="nonzero" fill-opacity="1" /><polyline clip-path="url(#clip101)" style="stroke:#000000; stroke-linecap:round; stroke-linejoin:round; stroke-width:4; stroke-opacity:1; fill:none" stroke-dasharray="16, 10" points="355.395,2798.49 355.395,-1256.16 "/>
<polyline clip-path="url(#clip101)" style="stroke:#000000; stroke-linecap:round; stroke-linejoin:round; stroke-width:4; stroke-opacity:1; fill:none" stroke-dasharray="16, 10" points="3071.28,2798.49 3071.28,-1256.16 "/>
<polyline clip-path="url(#clip101)" style="stroke:#009af9; stroke-linecap:round; stroke-linejoin:round; stroke-width:8; stroke-opacity:1; fill:none" points="355.395,437.562 366.258,437.562 366.258,133.643 377.122,133.643 377.122,224.249 387.985,224.249 387.985,223.041 398.849,223.041 398.849,233.609 409.712,233.609 409.712,241.754 420.576,241.754 420.576,250.088 431.439,250.088 431.439,257.982 442.303,257.982 442.303,265.782 453.166,265.782 453.166,273.491 464.03,273.491 464.03,281.169 474.894,281.169 474.894,288.807 485.757,288.807 485.757,296.412 496.621,296.412 496.621,303.977 507.484,303.977 507.484,311.505 518.348,311.505 518.348,318.993 529.211,318.993 529.211,326.441 540.075,326.441 540.075,333.85 550.938,333.85 550.938,341.219 561.802,341.219 561.802,348.548 572.665,348.548 572.665,355.839 583.529,355.839 583.529,363.089 594.392,363.089 594.392,370.301 605.256,370.301 605.256,377.475 616.12,377.475 616.12,384.609 626.983,384.609 626.983,391.705 637.847,391.705 637.847,398.763 648.71,398.763 648.71,405.783 659.574,405.783 659.574,412.765 670.437,412.765 670.437,419.709 681.301,419.709 681.301,426.616 692.164,426.616 692.164,433.485 703.028,433.485 703.028,440.317 713.891,440.317 713.891,447.113 724.755,447.113 724.755,453.872 735.618,453.872 735.618,460.594 746.482,460.594 746.482,467.279 757.346,467.279 757.346,473.929 768.209,473.929 768.209,480.543 779.073,480.543 779.073,487.121 789.936,487.121 789.936,493.663 800.8,493.663 800.8,500.17 811.663,500.17 811.663,506.642 822.527,506.642 822.527,513.078 833.39,513.078 833.39,519.48 844.254,519.48 844.254,525.847 855.117,525.847 855.117,532.18 865.981,532.18 865.981,538.479 876.845,538.479 876.845,544.743 887.708,544.743 887.708,550.974 898.572,550.974 898.572,557.17 909.435,557.17 909.435,563.334 920.299,563.334 920.299,569.464 931.162,569.464 931.162,575.56 942.026,575.56 942.026,581.624 952.889,581.624 952.889,587.655 963.753,587.655 963.753,593.653 974.616,593.653 974.616,599.619 985.48,599.619 985.48,605.553 996.343,605.553 996.343,611.455 1007.21,611.455 1007.21,617.324 1018.07,617.324 1018.07,623.162 1028.93,623.162 1028.93,628.969 1039.8,628.969 1039.8,634.744 1050.66,634.744 1050.66,640.488 1061.52,640.488 1061.52,646.201 1072.39,646.201 1072.39,651.883 1083.25,651.883 1083.25,657.534 1094.12,657.534 1094.12,663.155 1104.98,663.155 1104.98,668.746 1115.84,668.746 1115.84,674.307 1126.71,674.307 1126.71,679.837 1137.57,679.837 1137.57,685.338 1148.43,685.338 1148.43,690.809 1159.3,690.809 1159.3,696.251 1170.16,696.251 1170.16,701.664 1181.02,701.664 1181.02,707.047 1191.89,707.047 1191.89,712.401 1202.75,712.401 1202.75,717.727 1213.61,717.727 1213.61,723.024 1224.48,723.024 1224.48,728.293 1235.34,728.293 1235.34,733.533 1246.2,733.533 1246.2,738.746 1257.07,738.746 1257.07,743.93 1267.93,743.93 1267.93,749.087 1278.8,749.087 1278.8,754.216 1289.66,754.216 1289.66,759.317 1300.52,759.317 1300.52,764.391 1311.39,764.391 1311.39,769.438 1322.25,769.438 1322.25,774.459 1333.11,774.459 1333.11,779.452 1343.98,779.452 1343.98,784.419 1354.84,784.419 1354.84,789.359 1365.7,789.359 1365.7,794.273 1376.57,794.273 1376.57,799.16 1387.43,799.16 1387.43,804.022 1398.29,804.022 1398.29,808.858 1409.16,808.858 1409.16,813.668 1420.02,813.668 1420.02,818.452 1430.88,818.452 1430.88,823.211 1441.75,823.211 1441.75,827.945 1452.61,827.945 1452.61,832.654 1463.48,832.654 1463.48,837.337 1474.34,837.337 1474.34,841.996 1485.2,841.996 1485.2,846.63 1496.07,846.63 1496.07,851.24 1506.93,851.24 1506.93,855.825 1517.79,855.825 1517.79,860.386 1528.66,860.386 1528.66,864.923 1539.52,864.923 1539.52,869.436 1550.38,869.436 1550.38,873.926 1561.25,873.926 1561.25,878.391 1572.11,878.391 1572.11,882.833 1582.97,882.833 1582.97,887.252 1593.84,887.252 1593.84,891.647 1604.7,891.647 1604.7,896.02 1615.57,896.02 1615.57,900.369 1626.43,900.369 1626.43,904.696 1637.29,904.696 1637.29,909 1648.16,909 1648.16,913.281 1659.02,913.281 1659.02,917.54 1669.88,917.54 1669.88,921.777 1680.75,921.777 1680.75,925.991 1691.61,925.991 1691.61,930.184 1702.47,930.184 1702.47,934.354 1713.34,934.354 1713.34,938.503 1724.2,938.503 1724.2,942.63 1735.06,942.63 1735.06,946.736 1745.93,946.736 1745.93,950.821 1756.79,950.821 1756.79,954.884 1767.65,954.884 1767.65,958.926 1778.52,958.926 1778.52,962.947 1789.38,962.947 1789.38,966.947 1800.25,966.947 1800.25,970.927 1811.11,970.927 1811.11,974.886 1821.97,974.886 1821.97,978.824 1832.84,978.824 1832.84,982.742 1843.7,982.742 1843.7,986.64 1854.56,986.64 1854.56,990.518 1865.43,990.518 1865.43,994.376 1876.29,994.376 1876.29,998.214 1887.15,998.214 1887.15,1002.03 1898.02,1002.03 1898.02,1005.83 1908.88,1005.83 1908.88,1009.61 1919.74,1009.61 1919.74,1013.37 1930.61,1013.37 1930.61,1017.11 1941.47,1017.11 1941.47,1020.83 1952.33,1020.83 1952.33,1024.53 1963.2,1024.53 1963.2,1028.22 1974.06,1028.22 1974.06,1031.88 1984.93,1031.88 1984.93,1035.53 1995.79,1035.53 1995.79,1039.15 2006.65,1039.15 2006.65,1042.76 2017.52,1042.76 2017.52,1046.35 2028.38,1046.35 2028.38,1049.93 2039.24,1049.93 2039.24,1053.48 2050.11,1053.48 2050.11,1057.01 2060.97,1057.01 2060.97,1060.53 2071.83,1060.53 2071.83,1064.03 2082.7,1064.03 2082.7,1067.52 2093.56,1067.52 2093.56,1070.98 2104.42,1070.98 2104.42,1074.43 2115.29,1074.43 2115.29,1077.86 2126.15,1077.86 2126.15,1081.27 2137.02,1081.27 2137.02,1084.67 2147.88,1084.67 2147.88,1088.04 2158.74,1088.04 2158.74,1091.41 2169.61,1091.41 2169.61,1094.75 2180.47,1094.75 2180.47,1098.08 2191.33,1098.08 2191.33,1101.39 2202.2,1101.39 2202.2,1104.68 2213.06,1104.68 2213.06,1107.96 2223.92,1107.96 2223.92,1111.22 2234.79,1111.22 2234.79,1114.47 2245.65,1114.47 2245.65,1117.7 2256.51,1117.7 2256.51,1120.91 2267.38,1120.91 2267.38,1124.11 2278.24,1124.11 2278.24,1127.29 2289.1,1127.29 2289.1,1130.45 2299.97,1130.45 2299.97,1133.6 2310.83,1133.6 2310.83,1136.74 2321.7,1136.74 2321.7,1139.86 2332.56,1139.86 2332.56,1142.96 2343.42,1142.96 2343.42,1146.05 2354.29,1146.05 2354.29,1149.12 2365.15,1149.12 2365.15,1152.18 2376.01,1152.18 2376.01,1155.22 2386.88,1155.22 2386.88,1158.25 2397.74,1158.25 2397.74,1161.26 2408.6,1161.26 2408.6,1164.26 2419.47,1164.26 2419.47,1167.24 2430.33,1167.24 2430.33,1170.21 2441.19,1170.21 2441.19,1173.16 2452.06,1173.16 2452.06,1176.1 2462.92,1176.1 2462.92,1179.03 2473.78,1179.03 2473.78,1181.94 2484.65,1181.94 2484.65,1184.83 2495.51,1184.83 2495.51,1187.72 2506.38,1187.72 2506.38,1190.58 2517.24,1190.58 2517.24,1193.44 2528.1,1193.44 2528.1,1196.28 2538.97,1196.28 2538.97,1199.11 2549.83,1199.11 2549.83,1201.92 2560.69,1201.92 2560.69,1204.72 2571.56,1204.72 2571.56,1207.5 2582.42,1207.5 2582.42,1210.28 2593.28,1210.28 2593.28,1213.04 2604.15,1213.04 2604.15,1215.78 2615.01,1215.78 2615.01,1218.51 2625.87,1218.51 2625.87,1221.23 2636.74,1221.23 2636.74,1223.94 2647.6,1223.94 2647.6,1226.64 2658.46,1226.64 2658.46,1229.31 2669.33,1229.31 2669.33,1231.98 2680.19,1231.98 2680.19,1234.63 2691.06,1234.63 2691.06,1237.28 2701.92,1237.28 2701.92,1239.9 2712.78,1239.9 2712.78,1242.53 2723.65,1242.53 2723.65,1245.12 2734.51,1245.12 2734.51,1247.74 2745.37,1247.74 2745.37,1250.28 2756.24,1250.28 2756.24,1252.9 2767.1,1252.9 2767.1,1255.38 2777.96,1255.38 2777.96,1258.02 2788.83,1258.02 2788.83,1260.43 2799.69,1260.43 2799.69,1263.11 2810.55,1263.11 2810.55,1265.4 2821.42,1265.4 2821.42,1268.19 2832.28,1268.19 2832.28,1270.28 2843.15,1270.28 2843.15,1273.28 2854.01,1273.28 2854.01,1275.03 2864.87,1275.03 2864.87,1278.43 2875.74,1278.43 2875.74,1279.6 2886.6,1279.6 2886.6,1283.72 2897.46,1283.72 2897.46,1283.88 2908.33,1283.88 2908.33,1289.28 2919.19,1289.28 2919.19,1287.68 2930.05,1287.68 2930.05,1295.38 2940.92,1295.38 2940.92,1290.67 2951.78,1290.67 2951.78,1302.44 2962.64,1302.44 2962.64,1292.29 2973.51,1292.29 2973.51,1311.21 2984.37,1311.21 2984.37,1291.56 2995.23,1291.56 2995.23,1322.98 3006.1,1322.98 3006.1,1286.74 3016.96,1286.74 3016.96,1340.14 3027.83,1340.14 3027.83,1274.41 3038.69,1274.41 3038.69,1368.2 3049.55,1368.2 3049.55,1246.19 3060.42,1246.19 3060.42,1408.69 3071.28,1408.69 "/>
<polyline clip-path="url(#clip101)" style="stroke:#3da44d; stroke-linecap:round; stroke-linejoin:round; stroke-width:8; stroke-opacity:1; fill:none" stroke-dasharray="32, 20" points="355.395,198.997 366.258,206.036 377.122,214.429 387.985,222.41 398.849,230.39 409.712,238.316 420.576,246.198 431.439,254.036 442.303,261.832 453.166,269.587 464.03,277.3 474.894,284.972 485.757,292.603 496.621,300.194 507.484,307.743 518.348,315.253 529.211,322.722 540.075,330.151 550.938,337.54 561.802,344.889 572.665,352.199 583.529,359.47 594.392,366.701 605.256,373.894 616.12,381.047 626.983,388.163 637.847,395.24 648.71,402.278 659.574,409.279 670.437,416.242 681.301,423.168 692.164,430.056 703.028,436.907 713.891,443.72 724.755,450.497 735.618,457.238 746.482,463.942 757.346,470.609 768.209,477.241 779.073,483.837 789.936,490.397 800.8,496.922 811.663,503.411 822.527,509.865 833.39,516.284 844.254,522.669 855.117,529.019 865.981,535.334 876.845,541.616 887.708,547.863 898.572,554.077 909.435,560.257 920.299,566.403 931.162,572.517 942.026,578.597 952.889,584.644 963.753,590.659 974.616,596.641 985.48,602.591 996.343,608.508 1007.21,614.394 1018.07,620.248 1028.93,626.07 1039.8,631.861 1050.66,637.62 1061.52,643.349 1072.39,649.046 1083.25,654.713 1094.12,660.349 1104.98,665.955 1115.84,671.531 1126.71,677.076 1137.57,682.592 1148.43,688.078 1159.3,693.534 1170.16,698.961 1181.02,704.359 1191.89,709.728 1202.75,715.068 1213.61,720.38 1224.48,725.663 1235.34,730.917 1246.2,736.143 1257.07,741.342 1267.93,746.512 1278.8,751.655 1289.66,756.77 1300.52,761.858 1311.39,766.919 1322.25,771.952 1333.11,776.959 1343.98,781.939 1354.84,786.892 1365.7,791.819 1376.57,796.72 1387.43,801.595 1398.29,806.443 1409.16,811.266 1420.02,816.063 1430.88,820.835 1441.75,825.581 1452.61,830.303 1463.48,834.999 1474.34,839.67 1485.2,844.317 1496.07,848.939 1506.93,853.536 1517.79,858.109 1528.66,862.658 1539.52,867.183 1550.38,871.684 1561.25,876.162 1572.11,880.615 1582.97,885.046 1593.84,889.453 1604.7,893.837 1615.57,898.198 1626.43,902.536 1637.29,906.851 1648.16,911.143 1659.02,915.414 1669.88,919.661 1680.75,923.887 1691.61,928.09 1702.47,932.272 1713.34,936.432 1724.2,940.57 1735.06,944.686 1745.93,948.781 1756.79,952.855 1767.65,956.908 1778.52,960.939 1789.38,964.95 1800.25,968.94 1811.11,972.909 1821.97,976.858 1832.84,980.786 1843.7,984.694 1854.56,988.582 1865.43,992.45 1876.29,996.298 1887.15,1000.13 1898.02,1003.93 1908.88,1007.72 1919.74,1011.49 1930.61,1015.24 1941.47,1018.97 1952.33,1022.68 1963.2,1026.38 1974.06,1030.05 1984.93,1033.71 1995.79,1037.34 2006.65,1040.96 2017.52,1044.56 2028.38,1048.14 2039.24,1051.7 2050.11,1055.25 2060.97,1058.78 2071.83,1062.29 2082.7,1065.78 2093.56,1069.25 2104.42,1072.71 2115.29,1076.14 2126.15,1079.57 2137.02,1082.97 2147.88,1086.36 2158.74,1089.73 2169.61,1093.08 2180.47,1096.42 2191.33,1099.74 2202.2,1103.04 2213.06,1106.32 2223.92,1109.59 2234.79,1112.85 2245.65,1116.08 2256.51,1119.31 2267.38,1122.51 2278.24,1125.7 2289.1,1128.87 2299.97,1132.03 2310.83,1135.17 2321.7,1138.3 2332.56,1141.41 2343.42,1144.51 2354.29,1147.59 2365.15,1150.65 2376.01,1153.7 2386.88,1156.74 2397.74,1159.75 2408.6,1162.76 2419.47,1165.75 2430.33,1168.73 2441.19,1171.69 2452.06,1174.63 2462.92,1177.57 2473.78,1180.48 2484.65,1183.39 2495.51,1186.28 2506.38,1189.15 2517.24,1192.01 2528.1,1194.86 2538.97,1197.69 2549.83,1200.51 2560.69,1203.32 2571.56,1206.11 2582.42,1208.89 2593.28,1211.66 2604.15,1214.41 2615.01,1217.15 2625.87,1219.88 2636.74,1222.59 2647.6,1225.29 2658.46,1227.98 2669.33,1230.65 2680.19,1233.31 2691.06,1235.96 2701.92,1238.6 2712.78,1241.22 2723.65,1243.83 2734.51,1246.43 2745.37,1249.01 2756.24,1251.59 2767.1,1254.15 2777.96,1256.7 2788.83,1259.24 2799.69,1261.76 2810.55,1264.27 2821.42,1266.78 2832.28,1269.26 2843.15,1271.74 2854.01,1274.21 2864.87,1276.66 2875.74,1279.11 2886.6,1281.54 2897.46,1283.96 2908.33,1286.37 2919.19,1288.76 2930.05,1291.16 2940.92,1293.52 2951.78,1295.9 2962.64,1298.24 2973.51,1300.6 2984.37,1302.9 2995.23,1305.26 3006.1,1307.52 3016.96,1309.89 3027.83,1312.08 3038.69,1314.49 3049.55,1316.59 3060.42,1319.08 3071.28,1321.03 "/>
<path clip-path="url(#clip100)" d="M2550.97 295.964 L3056.79 295.964 L3056.79 140.444 L2550.97 140.444  Z" fill="#ffffff" fill-rule="evenodd" fill-opacity="1"/>
<polyline clip-path="url(#clip100)" style="stroke:#000000; stroke-linecap:round; stroke-linejoin:round; stroke-width:4; stroke-opacity:1; fill:none" points="2550.97,295.964 3056.79,295.964 3056.79,140.444 2550.97,140.444 2550.97,295.964 "/>
<polyline clip-path="url(#clip100)" style="stroke:#009af9; stroke-linecap:round; stroke-linejoin:round; stroke-width:8; stroke-opacity:1; fill:none" points="2582.96,192.284 2774.88,192.284 "/>
<path clip-path="url(#clip100)" d="M2811.54 178.846 L2811.54 205.721 L2817.19 205.721 Q2824.35 205.721 2827.66 202.48 Q2830.99 199.24 2830.99 192.249 Q2830.99 185.305 2827.66 182.087 Q2824.35 178.846 2817.19 178.846 L2811.54 178.846 M2806.87 175.004 L2816.48 175.004 Q2826.52 175.004 2831.22 179.194 Q2835.92 183.36 2835.92 192.249 Q2835.92 201.184 2831.2 205.374 Q2826.48 209.564 2816.48 209.564 L2806.87 209.564 L2806.87 175.004 Z" fill="#000000" fill-rule="nonzero" fill-opacity="1" /><path clip-path="url(#clip100)" d="M2843.19 183.638 L2847.45 183.638 L2847.45 209.564 L2843.19 209.564 L2843.19 183.638 M2843.19 173.545 L2847.45 173.545 L2847.45 178.939 L2843.19 178.939 L2843.19 173.545 Z" fill="#000000" fill-rule="nonzero" fill-opacity="1" /><path clip-path="url(#clip100)" d="M2871.38 187.619 Q2870.66 187.203 2869.81 187.018 Q2868.98 186.809 2867.96 186.809 Q2864.35 186.809 2862.4 189.17 Q2860.48 191.508 2860.48 195.906 L2860.48 209.564 L2856.2 209.564 L2856.2 183.638 L2860.48 183.638 L2860.48 187.666 Q2861.82 185.305 2863.98 184.17 Q2866.13 183.013 2869.21 183.013 Q2869.65 183.013 2870.18 183.082 Q2870.71 183.129 2871.36 183.244 L2871.38 187.619 Z" fill="#000000" fill-rule="nonzero" fill-opacity="1" /><path clip-path="url(#clip100)" d="M2896.98 195.536 L2896.98 197.619 L2877.4 197.619 Q2877.68 202.017 2880.04 204.332 Q2882.42 206.624 2886.66 206.624 Q2889.11 206.624 2891.41 206.022 Q2893.72 205.42 2895.99 204.217 L2895.99 208.244 Q2893.7 209.216 2891.29 209.726 Q2888.88 210.235 2886.41 210.235 Q2880.2 210.235 2876.57 206.624 Q2872.96 203.013 2872.96 196.855 Q2872.96 190.49 2876.38 186.763 Q2879.83 183.013 2885.66 183.013 Q2890.9 183.013 2893.93 186.393 Q2896.98 189.749 2896.98 195.536 M2892.72 194.286 Q2892.68 190.791 2890.76 188.707 Q2888.86 186.624 2885.71 186.624 Q2882.15 186.624 2879.99 188.638 Q2877.86 190.652 2877.54 194.309 L2892.72 194.286 Z" fill="#000000" fill-rule="nonzero" fill-opacity="1" /><path clip-path="url(#clip100)" d="M2922.63 184.633 L2922.63 188.615 Q2920.83 187.619 2919 187.133 Q2917.19 186.624 2915.34 186.624 Q2911.2 186.624 2908.91 189.263 Q2906.61 191.879 2906.61 196.624 Q2906.61 201.369 2908.91 204.008 Q2911.2 206.624 2915.34 206.624 Q2917.19 206.624 2919 206.138 Q2920.83 205.629 2922.63 204.633 L2922.63 208.568 Q2920.85 209.402 2918.93 209.818 Q2917.03 210.235 2914.88 210.235 Q2909.02 210.235 2905.57 206.554 Q2902.12 202.874 2902.12 196.624 Q2902.12 190.281 2905.6 186.647 Q2909.09 183.013 2915.16 183.013 Q2917.12 183.013 2919 183.43 Q2920.87 183.823 2922.63 184.633 Z" fill="#000000" fill-rule="nonzero" fill-opacity="1" /><path clip-path="url(#clip100)" d="M2934.25 176.277 L2934.25 183.638 L2943.03 183.638 L2943.03 186.948 L2934.25 186.948 L2934.25 201.022 Q2934.25 204.193 2935.11 205.096 Q2935.99 205.999 2938.65 205.999 L2943.03 205.999 L2943.03 209.564 L2938.65 209.564 Q2933.72 209.564 2931.85 207.735 Q2929.97 205.883 2929.97 201.022 L2929.97 186.948 L2926.85 186.948 L2926.85 183.638 L2929.97 183.638 L2929.97 176.277 L2934.25 176.277 Z" fill="#000000" fill-rule="nonzero" fill-opacity="1" /><polyline clip-path="url(#clip100)" style="stroke:#3da44d; stroke-linecap:round; stroke-linejoin:round; stroke-width:8; stroke-opacity:1; fill:none" stroke-dasharray="32, 20" points="2582.96,244.124 2774.88,244.124 "/>
<path clip-path="url(#clip100)" d="M2806.87 251.172 L2806.87 235.478 L2811.13 235.478 L2811.13 251.01 Q2811.13 254.691 2812.56 256.543 Q2814 258.371 2816.87 258.371 Q2820.32 258.371 2822.31 256.172 Q2824.32 253.973 2824.32 250.177 L2824.32 235.478 L2828.58 235.478 L2828.58 261.404 L2824.32 261.404 L2824.32 257.422 Q2822.77 259.783 2820.71 260.941 Q2818.67 262.075 2815.97 262.075 Q2811.5 262.075 2809.18 259.297 Q2806.87 256.519 2806.87 251.172 M2817.59 234.853 L2817.59 234.853 Z" fill="#000000" fill-rule="nonzero" fill-opacity="1" /><path clip-path="url(#clip100)" d="M2853.88 236.242 L2853.88 240.27 Q2852.08 239.344 2850.13 238.881 Q2848.19 238.418 2846.1 238.418 Q2842.93 238.418 2841.34 239.39 Q2839.76 240.362 2839.76 242.307 Q2839.76 243.788 2840.9 244.645 Q2842.03 245.478 2845.46 246.242 L2846.91 246.566 Q2851.45 247.538 2853.35 249.32 Q2855.27 251.08 2855.27 254.251 Q2855.27 257.862 2852.4 259.969 Q2849.55 262.075 2844.55 262.075 Q2842.47 262.075 2840.2 261.658 Q2837.96 261.265 2835.46 260.455 L2835.46 256.057 Q2837.82 257.283 2840.11 257.908 Q2842.4 258.51 2844.65 258.51 Q2847.66 258.51 2849.28 257.492 Q2850.9 256.45 2850.9 254.575 Q2850.9 252.839 2849.72 251.913 Q2848.56 250.987 2844.6 250.131 L2843.12 249.783 Q2839.16 248.95 2837.4 247.237 Q2835.64 245.501 2835.64 242.492 Q2835.64 238.834 2838.23 236.844 Q2840.83 234.853 2845.6 234.853 Q2847.96 234.853 2850.04 235.2 Q2852.12 235.547 2853.88 236.242 Z" fill="#000000" fill-rule="nonzero" fill-opacity="1" /><path clip-path="url(#clip100)" d="M2887.35 225.432 Q2884.25 230.756 2882.75 235.964 Q2881.24 241.172 2881.24 246.52 Q2881.24 251.867 2882.75 257.121 Q2884.28 262.353 2887.35 267.654 L2883.65 267.654 Q2880.18 262.214 2878.44 256.959 Q2876.73 251.705 2876.73 246.52 Q2876.73 241.358 2878.44 236.126 Q2880.16 230.895 2883.65 225.432 L2887.35 225.432 Z" fill="#000000" fill-rule="nonzero" fill-opacity="1" /><path clip-path="url(#clip100)" d="M2917.17 245.756 L2917.17 261.404 L2912.91 261.404 L2912.91 245.895 Q2912.91 242.214 2911.47 240.385 Q2910.04 238.557 2907.17 238.557 Q2903.72 238.557 2901.73 240.756 Q2899.74 242.955 2899.74 246.751 L2899.74 261.404 L2895.46 261.404 L2895.46 225.385 L2899.74 225.385 L2899.74 239.506 Q2901.27 237.168 2903.33 236.01 Q2905.41 234.853 2908.12 234.853 Q2912.59 234.853 2914.88 237.631 Q2917.17 240.385 2917.17 245.756 Z" fill="#000000" fill-rule="nonzero" fill-opacity="1" /><path clip-path="url(#clip100)" d="M2937.45 248.371 Q2932.28 248.371 2930.29 249.552 Q2928.3 250.732 2928.3 253.58 Q2928.3 255.848 2929.78 257.191 Q2931.29 258.51 2933.86 258.51 Q2937.4 258.51 2939.53 256.01 Q2941.68 253.487 2941.68 249.32 L2941.68 248.371 L2937.45 248.371 M2945.94 246.612 L2945.94 261.404 L2941.68 261.404 L2941.68 257.469 Q2940.22 259.83 2938.05 260.964 Q2935.87 262.075 2932.72 262.075 Q2928.74 262.075 2926.38 259.853 Q2924.04 257.607 2924.04 253.857 Q2924.04 249.482 2926.96 247.26 Q2929.9 245.038 2935.71 245.038 L2941.68 245.038 L2941.68 244.621 Q2941.68 241.682 2939.74 240.084 Q2937.82 238.464 2934.32 238.464 Q2932.1 238.464 2929.99 238.996 Q2927.89 239.529 2925.94 240.594 L2925.94 236.658 Q2928.28 235.756 2930.48 235.316 Q2932.68 234.853 2934.76 234.853 Q2940.39 234.853 2943.16 237.77 Q2945.94 240.686 2945.94 246.612 Z" fill="#000000" fill-rule="nonzero" fill-opacity="1" /><path clip-path="url(#clip100)" d="M2976.27 245.756 L2976.27 261.404 L2972.01 261.404 L2972.01 245.895 Q2972.01 242.214 2970.57 240.385 Q2969.14 238.557 2966.27 238.557 Q2962.82 238.557 2960.83 240.756 Q2958.84 242.955 2958.84 246.751 L2958.84 261.404 L2954.55 261.404 L2954.55 235.478 L2958.84 235.478 L2958.84 239.506 Q2960.36 237.168 2962.42 236.01 Q2964.51 234.853 2967.22 234.853 Q2971.68 234.853 2973.97 237.631 Q2976.27 240.385 2976.27 245.756 Z" fill="#000000" fill-rule="nonzero" fill-opacity="1" /><path clip-path="url(#clip100)" d="M3001.82 239.413 L3001.82 225.385 L3006.08 225.385 L3006.08 261.404 L3001.82 261.404 L3001.82 257.515 Q3000.48 259.83 2998.42 260.964 Q2996.38 262.075 2993.51 262.075 Q2988.81 262.075 2985.85 258.325 Q2982.91 254.575 2982.91 248.464 Q2982.91 242.353 2985.85 238.603 Q2988.81 234.853 2993.51 234.853 Q2996.38 234.853 2998.42 235.987 Q3000.48 237.098 3001.82 239.413 M2987.31 248.464 Q2987.31 253.163 2989.23 255.848 Q2991.17 258.51 2994.55 258.51 Q2997.93 258.51 2999.88 255.848 Q3001.82 253.163 3001.82 248.464 Q3001.82 243.765 2999.88 241.103 Q2997.93 238.418 2994.55 238.418 Q2991.17 238.418 2989.23 241.103 Q2987.31 243.765 2987.31 248.464 Z" fill="#000000" fill-rule="nonzero" fill-opacity="1" /><path clip-path="url(#clip100)" d="M3014.18 225.432 L3017.89 225.432 Q3021.36 230.895 3023.07 236.126 Q3024.81 241.358 3024.81 246.52 Q3024.81 251.705 3023.07 256.959 Q3021.36 262.214 3017.89 267.654 L3014.18 267.654 Q3017.26 262.353 3018.77 257.121 Q3020.29 251.867 3020.29 246.52 Q3020.29 241.172 3018.77 235.964 Q3017.26 230.756 3014.18 225.432 Z" fill="#000000" fill-rule="nonzero" fill-opacity="1" /></svg>
