<?xml version="1.0" encoding="utf-8"?>
<svg xmlns="http://www.w3.org/2000/svg" xmlns:xlink="http://www.w3.org/1999/xlink" width="600" height="400" viewBox="0 0 2400 1600">
<defs>
  <clipPath id="clip480">
    <rect x="0" y="0" width="2400" height="1600"/>
  </clipPath>
</defs>
<path clip-path="url(#clip480)" d="M0 1600 L2400 1600 L2400 0 L0 0  Z" fill="#ffffff" fill-rule="evenodd" fill-opacity="1"/>
<defs>
  <clipPath id="clip481">
    <rect x="480" y="0" width="1681" height="1600"/>
  </clipPath>
</defs>
<path clip-path="url(#clip480)" d="M254.422 1486.45 L2352.76 1486.45 L2352.76 47.2441 L254.422 47.2441  Z" fill="#ffffff" fill-rule="evenodd" fill-opacity="1"/>
<defs>
  <clipPath id="clip482">
    <rect x="254" y="47" width="2099" height="1440"/>
  </clipPath>
</defs>
<polyline clip-path="url(#clip482)" style="stroke:#000000; stroke-linecap:round; stroke-linejoin:round; stroke-width:2; stroke-opacity:0.1; fill:none" points="313.809,1486.45 313.809,47.2441 "/>
<polyline clip-path="url(#clip482)" style="stroke:#000000; stroke-linecap:round; stroke-linejoin:round; stroke-width:2; stroke-opacity:0.1; fill:none" points="788.903,1486.45 788.903,47.2441 "/>
<polyline clip-path="url(#clip482)" style="stroke:#000000; stroke-linecap:round; stroke-linejoin:round; stroke-width:2; stroke-opacity:0.1; fill:none" points="1264,1486.45 1264,47.2441 "/>
<polyline clip-path="url(#clip482)" style="stroke:#000000; stroke-linecap:round; stroke-linejoin:round; stroke-width:2; stroke-opacity:0.1; fill:none" points="1739.09,1486.45 1739.09,47.2441 "/>
<polyline clip-path="url(#clip482)" style="stroke:#000000; stroke-linecap:round; stroke-linejoin:round; stroke-width:2; stroke-opacity:0.1; fill:none" points="2214.19,1486.45 2214.19,47.2441 "/>
<polyline clip-path="url(#clip482)" style="stroke:#000000; stroke-linecap:round; stroke-linejoin:round; stroke-width:2; stroke-opacity:0.1; fill:none" points="254.422,1257.79 2352.76,1257.79 "/>
<polyline clip-path="url(#clip482)" style="stroke:#000000; stroke-linecap:round; stroke-linejoin:round; stroke-width:2; stroke-opacity:0.1; fill:none" points="254.422,1012.29 2352.76,1012.29 "/>
<polyline clip-path="url(#clip482)" style="stroke:#000000; stroke-linecap:round; stroke-linejoin:round; stroke-width:2; stroke-opacity:0.1; fill:none" points="254.422,766.79 2352.76,766.79 "/>
<polyline clip-path="url(#clip482)" style="stroke:#000000; stroke-linecap:round; stroke-linejoin:round; stroke-width:2; stroke-opacity:0.1; fill:none" points="254.422,521.288 2352.76,521.288 "/>
<polyline clip-path="url(#clip482)" style="stroke:#000000; stroke-linecap:round; stroke-linejoin:round; stroke-width:2; stroke-opacity:0.1; fill:none" points="254.422,275.787 2352.76,275.787 "/>
<polyline clip-path="url(#clip480)" style="stroke:#000000; stroke-linecap:round; stroke-linejoin:round; stroke-width:4; stroke-opacity:1; fill:none" points="254.422,1486.45 2352.76,1486.45 "/>
<polyline clip-path="url(#clip480)" style="stroke:#000000; stroke-linecap:round; stroke-linejoin:round; stroke-width:4; stroke-opacity:1; fill:none" points="313.809,1486.45 313.809,1467.55 "/>
<polyline clip-path="url(#clip480)" style="stroke:#000000; stroke-linecap:round; stroke-linejoin:round; stroke-width:4; stroke-opacity:1; fill:none" points="788.903,1486.45 788.903,1467.55 "/>
<polyline clip-path="url(#clip480)" style="stroke:#000000; stroke-linecap:round; stroke-linejoin:round; stroke-width:4; stroke-opacity:1; fill:none" points="1264,1486.45 1264,1467.55 "/>
<polyline clip-path="url(#clip480)" style="stroke:#000000; stroke-linecap:round; stroke-linejoin:round; stroke-width:4; stroke-opacity:1; fill:none" points="1739.09,1486.45 1739.09,1467.55 "/>
<polyline clip-path="url(#clip480)" style="stroke:#000000; stroke-linecap:round; stroke-linejoin:round; stroke-width:4; stroke-opacity:1; fill:none" points="2214.19,1486.45 2214.19,1467.55 "/>
<path clip-path="url(#clip480)" d="M291.193 1517.37 Q287.582 1517.37 285.753 1520.93 Q283.948 1524.47 283.948 1531.6 Q283.948 1538.71 285.753 1542.27 Q287.582 1545.82 291.193 1545.82 Q294.827 1545.82 296.633 1542.27 Q298.461 1538.71 298.461 1531.6 Q298.461 1524.47 296.633 1520.93 Q294.827 1517.37 291.193 1517.37 M291.193 1513.66 Q297.003 1513.66 300.059 1518.27 Q303.137 1522.85 303.137 1531.6 Q303.137 1540.33 300.059 1544.94 Q297.003 1549.52 291.193 1549.52 Q285.383 1549.52 282.304 1544.94 Q279.249 1540.33 279.249 1531.6 Q279.249 1522.85 282.304 1518.27 Q285.383 1513.66 291.193 1513.66 Z" fill="#000000" fill-rule="nonzero" fill-opacity="1" /><path clip-path="url(#clip480)" d="M311.355 1542.97 L316.239 1542.97 L316.239 1548.85 L311.355 1548.85 L311.355 1542.97 Z" fill="#000000" fill-rule="nonzero" fill-opacity="1" /><path clip-path="url(#clip480)" d="M336.424 1517.37 Q332.813 1517.37 330.984 1520.93 Q329.179 1524.47 329.179 1531.6 Q329.179 1538.71 330.984 1542.27 Q332.813 1545.82 336.424 1545.82 Q340.058 1545.82 341.864 1542.27 Q343.693 1538.71 343.693 1531.6 Q343.693 1524.47 341.864 1520.93 Q340.058 1517.37 336.424 1517.37 M336.424 1513.66 Q342.234 1513.66 345.29 1518.27 Q348.369 1522.85 348.369 1531.6 Q348.369 1540.33 345.29 1544.94 Q342.234 1549.52 336.424 1549.52 Q330.614 1549.52 327.535 1544.94 Q324.48 1540.33 324.48 1531.6 Q324.48 1522.85 327.535 1518.27 Q330.614 1513.66 336.424 1513.66 Z" fill="#000000" fill-rule="nonzero" fill-opacity="1" /><path clip-path="url(#clip480)" d="M766.785 1517.37 Q763.174 1517.37 761.345 1520.93 Q759.54 1524.47 759.54 1531.6 Q759.54 1538.71 761.345 1542.27 Q763.174 1545.82 766.785 1545.82 Q770.419 1545.82 772.225 1542.27 Q774.054 1538.71 774.054 1531.6 Q774.054 1524.47 772.225 1520.93 Q770.419 1517.37 766.785 1517.37 M766.785 1513.66 Q772.595 1513.66 775.651 1518.27 Q778.73 1522.85 778.73 1531.6 Q778.73 1540.33 775.651 1544.94 Q772.595 1549.52 766.785 1549.52 Q760.975 1549.52 757.896 1544.94 Q754.841 1540.33 754.841 1531.6 Q754.841 1522.85 757.896 1518.27 Q760.975 1513.66 766.785 1513.66 Z" fill="#000000" fill-rule="nonzero" fill-opacity="1" /><path clip-path="url(#clip480)" d="M786.947 1542.97 L791.831 1542.97 L791.831 1548.85 L786.947 1548.85 L786.947 1542.97 Z" fill="#000000" fill-rule="nonzero" fill-opacity="1" /><path clip-path="url(#clip480)" d="M802.063 1514.29 L820.419 1514.29 L820.419 1518.22 L806.345 1518.22 L806.345 1526.7 Q807.364 1526.35 808.382 1526.19 Q809.401 1526 810.419 1526 Q816.206 1526 819.586 1529.17 Q822.965 1532.34 822.965 1537.76 Q822.965 1543.34 819.493 1546.44 Q816.021 1549.52 809.702 1549.52 Q807.526 1549.52 805.257 1549.15 Q803.012 1548.78 800.604 1548.04 L800.604 1543.34 Q802.688 1544.47 804.91 1545.03 Q807.132 1545.58 809.609 1545.58 Q813.614 1545.58 815.952 1543.48 Q818.29 1541.37 818.29 1537.76 Q818.29 1534.15 815.952 1532.04 Q813.614 1529.94 809.609 1529.94 Q807.734 1529.94 805.859 1530.35 Q804.007 1530.77 802.063 1531.65 L802.063 1514.29 Z" fill="#000000" fill-rule="nonzero" fill-opacity="1" /><path clip-path="url(#clip480)" d="M1231.15 1544.91 L1238.79 1544.91 L1238.79 1518.55 L1230.48 1520.21 L1230.48 1515.95 L1238.74 1514.29 L1243.42 1514.29 L1243.42 1544.91 L1251.06 1544.91 L1251.06 1548.85 L1231.15 1548.85 L1231.15 1544.91 Z" fill="#000000" fill-rule="nonzero" fill-opacity="1" /><path clip-path="url(#clip480)" d="M1260.5 1542.97 L1265.39 1542.97 L1265.39 1548.85 L1260.5 1548.85 L1260.5 1542.97 Z" fill="#000000" fill-rule="nonzero" fill-opacity="1" /><path clip-path="url(#clip480)" d="M1285.57 1517.37 Q1281.96 1517.37 1280.13 1520.93 Q1278.33 1524.47 1278.33 1531.6 Q1278.33 1538.71 1280.13 1542.27 Q1281.96 1545.82 1285.57 1545.82 Q1289.21 1545.82 1291.01 1542.27 Q1292.84 1538.71 1292.84 1531.6 Q1292.84 1524.47 1291.01 1520.93 Q1289.21 1517.37 1285.57 1517.37 M1285.57 1513.66 Q1291.38 1513.66 1294.44 1518.27 Q1297.52 1522.85 1297.52 1531.6 Q1297.52 1540.33 1294.44 1544.94 Q1291.38 1549.52 1285.57 1549.52 Q1279.76 1549.52 1276.68 1544.94 Q1273.63 1540.33 1273.63 1531.6 Q1273.63 1522.85 1276.68 1518.27 Q1279.76 1513.66 1285.57 1513.66 Z" fill="#000000" fill-rule="nonzero" fill-opacity="1" /><path clip-path="url(#clip480)" d="M1706.74 1544.91 L1714.38 1544.91 L1714.38 1518.55 L1706.07 1520.21 L1706.07 1515.95 L1714.34 1514.29 L1719.01 1514.29 L1719.01 1544.91 L1726.65 1544.91 L1726.65 1548.85 L1706.74 1548.85 L1706.74 1544.91 Z" fill="#000000" fill-rule="nonzero" fill-opacity="1" /><path clip-path="url(#clip480)" d="M1736.09 1542.97 L1740.98 1542.97 L1740.98 1548.85 L1736.09 1548.85 L1736.09 1542.97 Z" fill="#000000" fill-rule="nonzero" fill-opacity="1" /><path clip-path="url(#clip480)" d="M1751.21 1514.29 L1769.57 1514.29 L1769.57 1518.22 L1755.49 1518.22 L1755.49 1526.7 Q1756.51 1526.35 1757.53 1526.19 Q1758.55 1526 1759.57 1526 Q1765.35 1526 1768.73 1529.17 Q1772.11 1532.34 1772.11 1537.76 Q1772.11 1543.34 1768.64 1546.44 Q1765.17 1549.52 1758.85 1549.52 Q1756.67 1549.52 1754.4 1549.15 Q1752.16 1548.78 1749.75 1548.04 L1749.75 1543.34 Q1751.84 1544.47 1754.06 1545.03 Q1756.28 1545.58 1758.76 1545.58 Q1762.76 1545.58 1765.1 1543.48 Q1767.44 1541.37 1767.44 1537.76 Q1767.44 1534.15 1765.1 1532.04 Q1762.76 1529.94 1758.76 1529.94 Q1756.88 1529.94 1755.01 1530.35 Q1753.15 1530.77 1751.21 1531.65 L1751.21 1514.29 Z" fill="#000000" fill-rule="nonzero" fill-opacity="1" /><path clip-path="url(#clip480)" d="M2185.43 1544.91 L2201.74 1544.91 L2201.74 1548.85 L2179.8 1548.85 L2179.8 1544.91 Q2182.46 1542.16 2187.05 1537.53 Q2191.65 1532.88 2192.83 1531.53 Q2195.08 1529.01 2195.96 1527.27 Q2196.86 1525.51 2196.86 1523.82 Q2196.86 1521.07 2194.92 1519.33 Q2192.99 1517.6 2189.89 1517.6 Q2187.69 1517.6 2185.24 1518.36 Q2182.81 1519.13 2180.03 1520.68 L2180.03 1515.95 Q2182.86 1514.82 2185.31 1514.24 Q2187.76 1513.66 2189.8 1513.66 Q2195.17 1513.66 2198.37 1516.35 Q2201.56 1519.03 2201.56 1523.52 Q2201.56 1525.65 2200.75 1527.57 Q2199.96 1529.47 2197.86 1532.07 Q2197.28 1532.74 2194.18 1535.95 Q2191.07 1539.15 2185.43 1544.91 Z" fill="#000000" fill-rule="nonzero" fill-opacity="1" /><path clip-path="url(#clip480)" d="M2211.56 1542.97 L2216.44 1542.97 L2216.44 1548.85 L2211.56 1548.85 L2211.56 1542.97 Z" fill="#000000" fill-rule="nonzero" fill-opacity="1" /><path clip-path="url(#clip480)" d="M2236.63 1517.37 Q2233.02 1517.37 2231.19 1520.93 Q2229.38 1524.47 2229.38 1531.6 Q2229.38 1538.71 2231.19 1542.27 Q2233.02 1545.82 2236.63 1545.82 Q2240.26 1545.82 2242.07 1542.27 Q2243.9 1538.71 2243.9 1531.6 Q2243.9 1524.47 2242.07 1520.93 Q2240.26 1517.37 2236.63 1517.37 M2236.63 1513.66 Q2242.44 1513.66 2245.49 1518.27 Q2248.57 1522.85 2248.57 1531.6 Q2248.57 1540.33 2245.49 1544.94 Q2242.44 1549.52 2236.63 1549.52 Q2230.82 1549.52 2227.74 1544.94 Q2224.68 1540.33 2224.68 1531.6 Q2224.68 1522.85 2227.74 1518.27 Q2230.82 1513.66 2236.63 1513.66 Z" fill="#000000" fill-rule="nonzero" fill-opacity="1" /><polyline clip-path="url(#clip480)" style="stroke:#000000; stroke-linecap:round; stroke-linejoin:round; stroke-width:4; stroke-opacity:1; fill:none" points="254.422,1486.45 254.422,47.2441 "/>
<polyline clip-path="url(#clip480)" style="stroke:#000000; stroke-linecap:round; stroke-linejoin:round; stroke-width:4; stroke-opacity:1; fill:none" points="254.422,1257.79 273.319,1257.79 "/>
<polyline clip-path="url(#clip480)" style="stroke:#000000; stroke-linecap:round; stroke-linejoin:round; stroke-width:4; stroke-opacity:1; fill:none" points="254.422,1012.29 273.319,1012.29 "/>
<polyline clip-path="url(#clip480)" style="stroke:#000000; stroke-linecap:round; stroke-linejoin:round; stroke-width:4; stroke-opacity:1; fill:none" points="254.422,766.79 273.319,766.79 "/>
<polyline clip-path="url(#clip480)" style="stroke:#000000; stroke-linecap:round; stroke-linejoin:round; stroke-width:4; stroke-opacity:1; fill:none" points="254.422,521.288 273.319,521.288 "/>
<polyline clip-path="url(#clip480)" style="stroke:#000000; stroke-linecap:round; stroke-linejoin:round; stroke-width:4; stroke-opacity:1; fill:none" points="254.422,275.787 273.319,275.787 "/>
<path clip-path="url(#clip480)" d="M50.9921 1258.24 L80.6679 1258.24 L80.6679 1262.18 L50.9921 1262.18 L50.9921 1258.24 Z" fill="#000000" fill-rule="nonzero" fill-opacity="1" /><path clip-path="url(#clip480)" d="M100.76 1243.59 Q97.1493 1243.59 95.3206 1247.16 Q93.515 1250.7 93.515 1257.83 Q93.515 1264.93 95.3206 1268.5 Q97.1493 1272.04 100.76 1272.04 Q104.395 1272.04 106.2 1268.5 Q108.029 1264.93 108.029 1257.83 Q108.029 1250.7 106.2 1247.16 Q104.395 1243.59 100.76 1243.59 M100.76 1239.89 Q106.571 1239.89 109.626 1244.49 Q112.705 1249.08 112.705 1257.83 Q112.705 1266.55 109.626 1271.16 Q106.571 1275.74 100.76 1275.74 Q94.9502 1275.74 91.8715 1271.16 Q88.816 1266.55 88.816 1257.83 Q88.816 1249.08 91.8715 1244.49 Q94.9502 1239.89 100.76 1239.89 Z" fill="#000000" fill-rule="nonzero" fill-opacity="1" /><path clip-path="url(#clip480)" d="M120.922 1269.19 L125.807 1269.19 L125.807 1275.07 L120.922 1275.07 L120.922 1269.19 Z" fill="#000000" fill-rule="nonzero" fill-opacity="1" /><path clip-path="url(#clip480)" d="M145.992 1243.59 Q142.381 1243.59 140.552 1247.16 Q138.746 1250.7 138.746 1257.83 Q138.746 1264.93 140.552 1268.5 Q142.381 1272.04 145.992 1272.04 Q149.626 1272.04 151.431 1268.5 Q153.26 1264.93 153.26 1257.83 Q153.26 1250.7 151.431 1247.16 Q149.626 1243.59 145.992 1243.59 M145.992 1239.89 Q151.802 1239.89 154.857 1244.49 Q157.936 1249.08 157.936 1257.83 Q157.936 1266.55 154.857 1271.16 Q151.802 1275.74 145.992 1275.74 Q140.181 1275.74 137.103 1271.16 Q134.047 1266.55 134.047 1257.83 Q134.047 1249.08 137.103 1244.49 Q140.181 1239.89 145.992 1239.89 Z" fill="#000000" fill-rule="nonzero" fill-opacity="1" /><path clip-path="url(#clip480)" d="M176.153 1243.59 Q172.542 1243.59 170.714 1247.16 Q168.908 1250.7 168.908 1257.83 Q168.908 1264.93 170.714 1268.5 Q172.542 1272.04 176.153 1272.04 Q179.788 1272.04 181.593 1268.5 Q183.422 1264.93 183.422 1257.83 Q183.422 1250.7 181.593 1247.16 Q179.788 1243.59 176.153 1243.59 M176.153 1239.89 Q181.964 1239.89 185.019 1244.49 Q188.098 1249.08 188.098 1257.83 Q188.098 1266.55 185.019 1271.16 Q181.964 1275.74 176.153 1275.74 Q170.343 1275.74 167.265 1271.16 Q164.209 1266.55 164.209 1257.83 Q164.209 1249.08 167.265 1244.49 Q170.343 1239.89 176.153 1239.89 Z" fill="#000000" fill-rule="nonzero" fill-opacity="1" /><path clip-path="url(#clip480)" d="M206.894 1255.93 Q203.746 1255.93 201.894 1258.08 Q200.065 1260.23 200.065 1263.98 Q200.065 1267.71 201.894 1269.89 Q203.746 1272.04 206.894 1272.04 Q210.042 1272.04 211.871 1269.89 Q213.723 1267.71 213.723 1263.98 Q213.723 1260.23 211.871 1258.08 Q210.042 1255.93 206.894 1255.93 M216.176 1241.28 L216.176 1245.53 Q214.417 1244.7 212.612 1244.26 Q210.829 1243.82 209.07 1243.82 Q204.44 1243.82 201.987 1246.95 Q199.556 1250.07 199.209 1256.39 Q200.575 1254.38 202.635 1253.31 Q204.695 1252.22 207.172 1252.22 Q212.38 1252.22 215.389 1255.4 Q218.422 1258.54 218.422 1263.98 Q218.422 1269.31 215.274 1272.53 Q212.126 1275.74 206.894 1275.74 Q200.899 1275.74 197.727 1271.16 Q194.556 1266.55 194.556 1257.83 Q194.556 1249.63 198.445 1244.77 Q202.334 1239.89 208.885 1239.89 Q210.644 1239.89 212.426 1240.23 Q214.232 1240.58 216.176 1241.28 Z" fill="#000000" fill-rule="nonzero" fill-opacity="1" /><path clip-path="url(#clip480)" d="M51.8023 1012.74 L81.4781 1012.74 L81.4781 1016.68 L51.8023 1016.68 L51.8023 1012.74 Z" fill="#000000" fill-rule="nonzero" fill-opacity="1" /><path clip-path="url(#clip480)" d="M101.571 998.089 Q97.9595 998.089 96.1308 1001.65 Q94.3252 1005.2 94.3252 1012.33 Q94.3252 1019.43 96.1308 1023 Q97.9595 1026.54 101.571 1026.54 Q105.205 1026.54 107.01 1023 Q108.839 1019.43 108.839 1012.33 Q108.839 1005.2 107.01 1001.65 Q105.205 998.089 101.571 998.089 M101.571 994.386 Q107.381 994.386 110.436 998.992 Q113.515 1003.58 113.515 1012.33 Q113.515 1021.05 110.436 1025.66 Q107.381 1030.24 101.571 1030.24 Q95.7604 1030.24 92.6817 1025.66 Q89.6262 1021.05 89.6262 1012.33 Q89.6262 1003.58 92.6817 998.992 Q95.7604 994.386 101.571 994.386 Z" fill="#000000" fill-rule="nonzero" fill-opacity="1" /><path clip-path="url(#clip480)" d="M121.732 1023.69 L126.617 1023.69 L126.617 1029.57 L121.732 1029.57 L121.732 1023.69 Z" fill="#000000" fill-rule="nonzero" fill-opacity="1" /><path clip-path="url(#clip480)" d="M146.802 998.089 Q143.191 998.089 141.362 1001.65 Q139.556 1005.2 139.556 1012.33 Q139.556 1019.43 141.362 1023 Q143.191 1026.54 146.802 1026.54 Q150.436 1026.54 152.242 1023 Q154.07 1019.43 154.07 1012.33 Q154.07 1005.2 152.242 1001.65 Q150.436 998.089 146.802 998.089 M146.802 994.386 Q152.612 994.386 155.667 998.992 Q158.746 1003.58 158.746 1012.33 Q158.746 1021.05 155.667 1025.66 Q152.612 1030.24 146.802 1030.24 Q140.992 1030.24 137.913 1025.66 Q134.857 1021.05 134.857 1012.33 Q134.857 1003.58 137.913 998.992 Q140.992 994.386 146.802 994.386 Z" fill="#000000" fill-rule="nonzero" fill-opacity="1" /><path clip-path="url(#clip480)" d="M176.964 998.089 Q173.353 998.089 171.524 1001.65 Q169.718 1005.2 169.718 1012.33 Q169.718 1019.43 171.524 1023 Q173.353 1026.54 176.964 1026.54 Q180.598 1026.54 182.403 1023 Q184.232 1019.43 184.232 1012.33 Q184.232 1005.2 182.403 1001.65 Q180.598 998.089 176.964 998.089 M176.964 994.386 Q182.774 994.386 185.829 998.992 Q188.908 1003.58 188.908 1012.33 Q188.908 1021.05 185.829 1025.66 Q182.774 1030.24 176.964 1030.24 Q171.154 1030.24 168.075 1025.66 Q165.019 1021.05 165.019 1012.33 Q165.019 1003.58 168.075 998.992 Q171.154 994.386 176.964 994.386 Z" fill="#000000" fill-rule="nonzero" fill-opacity="1" /><path clip-path="url(#clip480)" d="M211.292 1010.94 Q214.649 1011.65 216.524 1013.92 Q218.422 1016.19 218.422 1019.52 Q218.422 1024.64 214.903 1027.44 Q211.385 1030.24 204.903 1030.24 Q202.727 1030.24 200.413 1029.8 Q198.121 1029.39 195.667 1028.53 L195.667 1024.02 Q197.612 1025.15 199.927 1025.73 Q202.241 1026.31 204.764 1026.31 Q209.163 1026.31 211.454 1024.57 Q213.769 1022.83 213.769 1019.52 Q213.769 1016.47 211.616 1014.76 Q209.487 1013.02 205.667 1013.02 L201.639 1013.02 L201.639 1009.18 L205.852 1009.18 Q209.301 1009.18 211.13 1007.81 Q212.959 1006.42 212.959 1003.83 Q212.959 1001.17 211.061 999.756 Q209.186 998.321 205.667 998.321 Q203.746 998.321 201.547 998.737 Q199.348 999.154 196.709 1000.03 L196.709 995.867 Q199.371 995.126 201.686 994.756 Q204.024 994.386 206.084 994.386 Q211.408 994.386 214.51 996.816 Q217.612 999.224 217.612 1003.34 Q217.612 1006.21 215.968 1008.21 Q214.325 1010.17 211.292 1010.94 Z" fill="#000000" fill-rule="nonzero" fill-opacity="1" /><path clip-path="url(#clip480)" d="M100.922 752.588 Q97.3113 752.588 95.4826 756.153 Q93.6771 759.695 93.6771 766.824 Q93.6771 773.931 95.4826 777.495 Q97.3113 781.037 100.922 781.037 Q104.557 781.037 106.362 777.495 Q108.191 773.931 108.191 766.824 Q108.191 759.695 106.362 756.153 Q104.557 752.588 100.922 752.588 M100.922 748.885 Q106.733 748.885 109.788 753.491 Q112.867 758.074 112.867 766.824 Q112.867 775.551 109.788 780.158 Q106.733 784.741 100.922 784.741 Q95.1123 784.741 92.0336 780.158 Q88.978 775.551 88.978 766.824 Q88.978 758.074 92.0336 753.491 Q95.1123 748.885 100.922 748.885 Z" fill="#000000" fill-rule="nonzero" fill-opacity="1" /><path clip-path="url(#clip480)" d="M121.084 778.19 L125.969 778.19 L125.969 784.07 L121.084 784.07 L121.084 778.19 Z" fill="#000000" fill-rule="nonzero" fill-opacity="1" /><path clip-path="url(#clip480)" d="M146.154 752.588 Q142.543 752.588 140.714 756.153 Q138.908 759.695 138.908 766.824 Q138.908 773.931 140.714 777.495 Q142.543 781.037 146.154 781.037 Q149.788 781.037 151.593 777.495 Q153.422 773.931 153.422 766.824 Q153.422 759.695 151.593 756.153 Q149.788 752.588 146.154 752.588 M146.154 748.885 Q151.964 748.885 155.019 753.491 Q158.098 758.074 158.098 766.824 Q158.098 775.551 155.019 780.158 Q151.964 784.741 146.154 784.741 Q140.343 784.741 137.265 780.158 Q134.209 775.551 134.209 766.824 Q134.209 758.074 137.265 753.491 Q140.343 748.885 146.154 748.885 Z" fill="#000000" fill-rule="nonzero" fill-opacity="1" /><path clip-path="url(#clip480)" d="M176.316 752.588 Q172.704 752.588 170.876 756.153 Q169.07 759.695 169.07 766.824 Q169.07 773.931 170.876 777.495 Q172.704 781.037 176.316 781.037 Q179.95 781.037 181.755 777.495 Q183.584 773.931 183.584 766.824 Q183.584 759.695 181.755 756.153 Q179.95 752.588 176.316 752.588 M176.316 748.885 Q182.126 748.885 185.181 753.491 Q188.26 758.074 188.26 766.824 Q188.26 775.551 185.181 780.158 Q182.126 784.741 176.316 784.741 Q170.505 784.741 167.427 780.158 Q164.371 775.551 164.371 766.824 Q164.371 758.074 167.427 753.491 Q170.505 748.885 176.316 748.885 Z" fill="#000000" fill-rule="nonzero" fill-opacity="1" /><path clip-path="url(#clip480)" d="M206.477 752.588 Q202.866 752.588 201.038 756.153 Q199.232 759.695 199.232 766.824 Q199.232 773.931 201.038 777.495 Q202.866 781.037 206.477 781.037 Q210.112 781.037 211.917 777.495 Q213.746 773.931 213.746 766.824 Q213.746 759.695 211.917 756.153 Q210.112 752.588 206.477 752.588 M206.477 748.885 Q212.288 748.885 215.343 753.491 Q218.422 758.074 218.422 766.824 Q218.422 775.551 215.343 780.158 Q212.288 784.741 206.477 784.741 Q200.667 784.741 197.589 780.158 Q194.533 775.551 194.533 766.824 Q194.533 758.074 197.589 753.491 Q200.667 748.885 206.477 748.885 Z" fill="#000000" fill-rule="nonzero" fill-opacity="1" /><path clip-path="url(#clip480)" d="M101.571 507.087 Q97.9595 507.087 96.1308 510.652 Q94.3252 514.194 94.3252 521.323 Q94.3252 528.43 96.1308 531.994 Q97.9595 535.536 101.571 535.536 Q105.205 535.536 107.01 531.994 Q108.839 528.43 108.839 521.323 Q108.839 514.194 107.01 510.652 Q105.205 507.087 101.571 507.087 M101.571 503.383 Q107.381 503.383 110.436 507.99 Q113.515 512.573 113.515 521.323 Q113.515 530.05 110.436 534.656 Q107.381 539.24 101.571 539.24 Q95.7604 539.24 92.6817 534.656 Q89.6262 530.05 89.6262 521.323 Q89.6262 512.573 92.6817 507.99 Q95.7604 503.383 101.571 503.383 Z" fill="#000000" fill-rule="nonzero" fill-opacity="1" /><path clip-path="url(#clip480)" d="M121.732 532.689 L126.617 532.689 L126.617 538.568 L121.732 538.568 L121.732 532.689 Z" fill="#000000" fill-rule="nonzero" fill-opacity="1" /><path clip-path="url(#clip480)" d="M146.802 507.087 Q143.191 507.087 141.362 510.652 Q139.556 514.194 139.556 521.323 Q139.556 528.43 141.362 531.994 Q143.191 535.536 146.802 535.536 Q150.436 535.536 152.242 531.994 Q154.07 528.43 154.07 521.323 Q154.07 514.194 152.242 510.652 Q150.436 507.087 146.802 507.087 M146.802 503.383 Q152.612 503.383 155.667 507.99 Q158.746 512.573 158.746 521.323 Q158.746 530.05 155.667 534.656 Q152.612 539.24 146.802 539.24 Q140.992 539.24 137.913 534.656 Q134.857 530.05 134.857 521.323 Q134.857 512.573 137.913 507.99 Q140.992 503.383 146.802 503.383 Z" fill="#000000" fill-rule="nonzero" fill-opacity="1" /><path clip-path="url(#clip480)" d="M176.964 507.087 Q173.353 507.087 171.524 510.652 Q169.718 514.194 169.718 521.323 Q169.718 528.43 171.524 531.994 Q173.353 535.536 176.964 535.536 Q180.598 535.536 182.403 531.994 Q184.232 528.43 184.232 521.323 Q184.232 514.194 182.403 510.652 Q180.598 507.087 176.964 507.087 M176.964 503.383 Q182.774 503.383 185.829 507.99 Q188.908 512.573 188.908 521.323 Q188.908 530.05 185.829 534.656 Q182.774 539.24 176.964 539.24 Q171.154 539.24 168.075 534.656 Q165.019 530.05 165.019 521.323 Q165.019 512.573 168.075 507.99 Q171.154 503.383 176.964 503.383 Z" fill="#000000" fill-rule="nonzero" fill-opacity="1" /><path clip-path="url(#clip480)" d="M211.292 519.934 Q214.649 520.652 216.524 522.92 Q218.422 525.189 218.422 528.522 Q218.422 533.638 214.903 536.439 Q211.385 539.24 204.903 539.24 Q202.727 539.24 200.413 538.8 Q198.121 538.383 195.667 537.527 L195.667 533.013 Q197.612 534.147 199.927 534.726 Q202.241 535.305 204.764 535.305 Q209.163 535.305 211.454 533.568 Q213.769 531.832 213.769 528.522 Q213.769 525.467 211.616 523.754 Q209.487 522.018 205.667 522.018 L201.639 522.018 L201.639 518.175 L205.852 518.175 Q209.301 518.175 211.13 516.809 Q212.959 515.42 212.959 512.828 Q212.959 510.166 211.061 508.754 Q209.186 507.319 205.667 507.319 Q203.746 507.319 201.547 507.735 Q199.348 508.152 196.709 509.032 L196.709 504.865 Q199.371 504.124 201.686 503.754 Q204.024 503.383 206.084 503.383 Q211.408 503.383 214.51 505.814 Q217.612 508.221 217.612 512.342 Q217.612 515.212 215.968 517.203 Q214.325 519.17 211.292 519.934 Z" fill="#000000" fill-rule="nonzero" fill-opacity="1" /><path clip-path="url(#clip480)" d="M100.76 261.586 Q97.1493 261.586 95.3206 265.151 Q93.515 268.692 93.515 275.822 Q93.515 282.928 95.3206 286.493 Q97.1493 290.035 100.76 290.035 Q104.395 290.035 106.2 286.493 Q108.029 282.928 108.029 275.822 Q108.029 268.692 106.2 265.151 Q104.395 261.586 100.76 261.586 M100.76 257.882 Q106.571 257.882 109.626 262.489 Q112.705 267.072 112.705 275.822 Q112.705 284.549 109.626 289.155 Q106.571 293.739 100.76 293.739 Q94.9502 293.739 91.8715 289.155 Q88.816 284.549 88.816 275.822 Q88.816 267.072 91.8715 262.489 Q94.9502 257.882 100.76 257.882 Z" fill="#000000" fill-rule="nonzero" fill-opacity="1" /><path clip-path="url(#clip480)" d="M120.922 287.188 L125.807 287.188 L125.807 293.067 L120.922 293.067 L120.922 287.188 Z" fill="#000000" fill-rule="nonzero" fill-opacity="1" /><path clip-path="url(#clip480)" d="M145.992 261.586 Q142.381 261.586 140.552 265.151 Q138.746 268.692 138.746 275.822 Q138.746 282.928 140.552 286.493 Q142.381 290.035 145.992 290.035 Q149.626 290.035 151.431 286.493 Q153.26 282.928 153.26 275.822 Q153.26 268.692 151.431 265.151 Q149.626 261.586 145.992 261.586 M145.992 257.882 Q151.802 257.882 154.857 262.489 Q157.936 267.072 157.936 275.822 Q157.936 284.549 154.857 289.155 Q151.802 293.739 145.992 293.739 Q140.181 293.739 137.103 289.155 Q134.047 284.549 134.047 275.822 Q134.047 267.072 137.103 262.489 Q140.181 257.882 145.992 257.882 Z" fill="#000000" fill-rule="nonzero" fill-opacity="1" /><path clip-path="url(#clip480)" d="M176.153 261.586 Q172.542 261.586 170.714 265.151 Q168.908 268.692 168.908 275.822 Q168.908 282.928 170.714 286.493 Q172.542 290.035 176.153 290.035 Q179.788 290.035 181.593 286.493 Q183.422 282.928 183.422 275.822 Q183.422 268.692 181.593 265.151 Q179.788 261.586 176.153 261.586 M176.153 257.882 Q181.964 257.882 185.019 262.489 Q188.098 267.072 188.098 275.822 Q188.098 284.549 185.019 289.155 Q181.964 293.739 176.153 293.739 Q170.343 293.739 167.265 289.155 Q164.209 284.549 164.209 275.822 Q164.209 267.072 167.265 262.489 Q170.343 257.882 176.153 257.882 Z" fill="#000000" fill-rule="nonzero" fill-opacity="1" /><path clip-path="url(#clip480)" d="M206.894 273.924 Q203.746 273.924 201.894 276.077 Q200.065 278.229 200.065 281.979 Q200.065 285.706 201.894 287.882 Q203.746 290.035 206.894 290.035 Q210.042 290.035 211.871 287.882 Q213.723 285.706 213.723 281.979 Q213.723 278.229 211.871 276.077 Q210.042 273.924 206.894 273.924 M216.176 259.271 L216.176 263.53 Q214.417 262.697 212.612 262.257 Q210.829 261.817 209.07 261.817 Q204.44 261.817 201.987 264.942 Q199.556 268.067 199.209 274.387 Q200.575 272.373 202.635 271.308 Q204.695 270.22 207.172 270.22 Q212.38 270.22 215.389 273.391 Q218.422 276.54 218.422 281.979 Q218.422 287.303 215.274 290.521 Q212.126 293.739 206.894 293.739 Q200.899 293.739 197.727 289.155 Q194.556 284.549 194.556 275.822 Q194.556 267.628 198.445 262.767 Q202.334 257.882 208.885 257.882 Q210.644 257.882 212.426 258.23 Q214.232 258.577 216.176 259.271 Z" fill="#000000" fill-rule="nonzero" fill-opacity="1" /><polyline clip-path="url(#clip482)" style="stroke:#009af9; stroke-linecap:round; stroke-linejoin:round; stroke-width:4; stroke-opacity:1; fill:none" points="313.809,1445.72 321.727,1438.16 329.645,1430.6 337.563,1423.04 345.482,1415.49 353.4,1407.93 361.318,1400.37 369.236,1392.82 377.155,1385.26 385.073,1377.7 392.991,1370.14 400.909,1362.59 408.828,1355.03 416.746,1347.47 424.664,1339.92 432.582,1332.36 440.5,1324.8 448.419,1317.24 456.337,1309.69 464.255,1302.13 472.173,1294.57 480.092,1287.02 488.01,1279.46 495.928,1271.9 503.846,1264.34 511.765,1256.79 519.683,1249.23 527.601,1241.67 535.519,1234.11 543.438,1226.56 551.356,1219 559.274,1211.44 567.192,1203.89 575.111,1196.33 583.029,1188.77 590.947,1181.21 598.865,1173.66 606.784,1166.1 614.702,1158.54 622.62,1150.99 630.538,1143.43 638.457,1135.87 646.375,1128.31 654.293,1120.76 662.211,1113.2 670.129,1105.64 678.048,1098.09 685.966,1090.53 693.884,1082.97 701.802,1075.41 709.721,1067.86 717.639,1060.3 725.557,1052.74 733.475,1045.19 741.394,1037.63 749.312,1030.07 757.23,1022.51 765.148,1014.96 773.067,1007.4 780.985,999.843 788.903,992.285 796.821,984.728 804.74,977.171 812.658,969.614 820.576,962.057 828.494,954.499 836.413,946.942 844.331,939.385 852.249,931.828 860.167,924.271 868.086,916.714 876.004,909.156 883.922,901.599 891.84,894.042 899.759,886.485 907.677,878.928 915.595,871.371 923.513,863.813 931.431,856.256 939.35,848.699 947.268,841.142 955.186,833.585 963.104,826.028 971.023,818.47 978.941,810.913 986.859,803.356 994.777,795.799 1002.7,788.242 1010.61,780.684 1018.53,773.127 1026.45,766.79 1034.37,766.79 1042.29,766.79 1050.21,766.79 1058.12,766.79 1066.04,766.79 1073.96,766.79 1081.88,766.79 1089.8,766.79 1097.71,766.79 1105.63,766.79 1113.55,766.79 1121.47,766.79 1129.39,766.79 1137.31,766.79 1145.22,766.79 1153.14,766.79 1161.06,766.79 1168.98,766.79 1176.9,766.79 1184.82,766.79 1192.73,766.79 1200.65,766.79 1208.57,766.79 1216.49,766.79 1224.41,766.79 1232.32,766.79 1240.24,766.79 1248.16,766.79 1256.08,766.79 1264,766.79 1271.92,766.79 1279.83,766.79 1287.75,766.79 1295.67,766.79 1303.59,766.79 1311.51,766.79 1319.43,766.79 1327.34,766.79 1335.26,766.79 1343.18,766.79 1351.1,766.79 1359.02,766.79 1366.93,766.79 1374.85,766.79 1382.77,766.79 1390.69,766.79 1398.61,766.79 1406.53,766.79 1414.44,766.79 1422.36,766.79 1430.28,766.79 1438.2,766.79 1446.12,766.79 1454.04,766.79 1461.95,766.79 1469.87,766.79 1477.79,766.79 1485.71,766.79 1493.63,766.79 1501.54,766.79 1509.46,766.79 1517.38,766.79 1525.3,766.79 1533.22,766.79 1541.14,766.79 1549.05,766.79 1556.97,766.79 1564.89,766.79 1572.81,766.79 1580.73,760.565 1588.65,753.007 1596.56,745.45 1604.48,737.893 1612.4,730.336 1620.32,722.779 1628.24,715.222 1636.16,707.664 1644.07,700.107 1651.99,692.55 1659.91,684.993 1667.83,677.436 1675.75,669.879 1683.66,662.321 1691.58,654.764 1699.5,647.207 1707.42,639.65 1715.34,632.093 1723.26,624.536 1731.17,616.978 1739.09,609.421 1747.01,601.864 1754.93,594.307 1762.85,586.75 1770.77,579.193 1778.68,571.635 1786.6,564.078 1794.52,556.521 1802.44,548.964 1810.36,541.407 1818.27,533.849 1826.19,526.292 1834.11,518.735 1842.03,511.178 1849.95,503.621 1857.87,496.064 1865.78,488.506 1873.7,480.949 1881.62,473.392 1889.54,465.835 1897.46,458.278 1905.38,450.721 1913.29,443.163 1921.21,435.606 1929.13,428.049 1937.05,420.492 1944.97,412.935 1952.88,405.378 1960.8,397.82 1968.72,390.263 1976.64,382.706 1984.56,375.149 1992.48,367.592 2000.39,360.034 2008.31,352.477 2016.23,344.92 2024.15,337.363 2032.07,329.806 2039.99,322.249 2047.9,314.691 2055.82,307.134 2063.74,299.577 2071.66,292.02 2079.58,284.463 2087.49,276.906 2095.41,269.348 2103.33,261.791 2111.25,254.234 2119.17,246.677 2127.09,239.12 2135,231.563 2142.92,224.005 2150.84,216.448 2158.76,208.891 2166.68,201.334 2174.6,193.777 2182.51,186.22 2190.43,178.662 2198.35,171.105 2206.27,163.548 2214.19,155.991 2222.1,148.434 2230.02,140.876 2237.94,133.319 2245.86,125.762 2253.78,118.205 2261.7,110.648 2269.61,103.091 2277.53,95.5334 2285.45,87.9763 2293.37,87.9763 "/>
<path clip-path="url(#clip480)" d="M324.366 198.898 L586.63 198.898 L586.63 95.2176 L324.366 95.2176  Z" fill="#ffffff" fill-rule="evenodd" fill-opacity="1"/>
<polyline clip-path="url(#clip480)" style="stroke:#000000; stroke-linecap:round; stroke-linejoin:round; stroke-width:4; stroke-opacity:1; fill:none" points="324.366,198.898 586.63,198.898 586.63,95.2176 324.366,95.2176 324.366,198.898 "/>
<polyline clip-path="url(#clip480)" style="stroke:#009af9; stroke-linecap:round; stroke-linejoin:round; stroke-width:4; stroke-opacity:1; fill:none" points="347.681,147.058 487.57,147.058 "/>
<path clip-path="url(#clip480)" d="M524.727 166.745 Q522.922 171.375 521.209 172.787 Q519.496 174.199 516.626 174.199 L513.223 174.199 L513.223 170.634 L515.723 170.634 Q517.482 170.634 518.454 169.8 Q519.426 168.967 520.607 165.865 L521.371 163.921 L510.885 138.412 L515.399 138.412 L523.501 158.689 L531.602 138.412 L536.116 138.412 L524.727 166.745 Z" fill="#000000" fill-rule="nonzero" fill-opacity="1" /><path clip-path="url(#clip480)" d="M543.408 160.402 L551.047 160.402 L551.047 134.037 L542.737 135.703 L542.737 131.444 L551 129.778 L555.676 129.778 L555.676 160.402 L563.315 160.402 L563.315 164.338 L543.408 164.338 L543.408 160.402 Z" fill="#000000" fill-rule="nonzero" fill-opacity="1" /></svg>
