<?xml version="1.0" encoding="utf-8"?>
<svg xmlns="http://www.w3.org/2000/svg" xmlns:xlink="http://www.w3.org/1999/xlink" width="600" height="420" viewBox="0 0 2400 1680">
<defs>
  <clipPath id="clip550">
    <rect x="0" y="0" width="2400" height="1680"/>
  </clipPath>
</defs>
<path clip-path="url(#clip550)" d="M0 1680 L2400 1680 L2400 0 L0 0  Z" fill="#ffffff" fill-rule="evenodd" fill-opacity="1"/>
<defs>
  <clipPath id="clip551">
    <rect x="480" y="0" width="1681" height="1680"/>
  </clipPath>
</defs>
<path clip-path="url(#clip550)" d="M316.702 662.812 L1202.72 662.812 L1202.72 108.352 L316.702 108.352  Z" fill="#ffffff" fill-rule="evenodd" fill-opacity="1"/>
<defs>
  <clipPath id="clip552">
    <rect x="316" y="108" width="887" height="555"/>
  </clipPath>
</defs>
<polyline clip-path="url(#clip552)" style="stroke:#000000; stroke-linecap:round; stroke-linejoin:round; stroke-width:2; stroke-opacity:0.1; fill:none" points="341.778,662.812 341.778,108.352 "/>
<polyline clip-path="url(#clip552)" style="stroke:#000000; stroke-linecap:round; stroke-linejoin:round; stroke-width:2; stroke-opacity:0.1; fill:none" points="550.744,662.812 550.744,108.352 "/>
<polyline clip-path="url(#clip552)" style="stroke:#000000; stroke-linecap:round; stroke-linejoin:round; stroke-width:2; stroke-opacity:0.1; fill:none" points="759.711,662.812 759.711,108.352 "/>
<polyline clip-path="url(#clip552)" style="stroke:#000000; stroke-linecap:round; stroke-linejoin:round; stroke-width:2; stroke-opacity:0.1; fill:none" points="968.677,662.812 968.677,108.352 "/>
<polyline clip-path="url(#clip552)" style="stroke:#000000; stroke-linecap:round; stroke-linejoin:round; stroke-width:2; stroke-opacity:0.1; fill:none" points="1177.64,662.812 1177.64,108.352 "/>
<polyline clip-path="url(#clip552)" style="stroke:#000000; stroke-linecap:round; stroke-linejoin:round; stroke-width:2; stroke-opacity:0.1; fill:none" points="316.702,647.12 1202.72,647.12 "/>
<polyline clip-path="url(#clip552)" style="stroke:#000000; stroke-linecap:round; stroke-linejoin:round; stroke-width:2; stroke-opacity:0.1; fill:none" points="316.702,516.351 1202.72,516.351 "/>
<polyline clip-path="url(#clip552)" style="stroke:#000000; stroke-linecap:round; stroke-linejoin:round; stroke-width:2; stroke-opacity:0.1; fill:none" points="316.702,385.582 1202.72,385.582 "/>
<polyline clip-path="url(#clip552)" style="stroke:#000000; stroke-linecap:round; stroke-linejoin:round; stroke-width:2; stroke-opacity:0.1; fill:none" points="316.702,254.813 1202.72,254.813 "/>
<polyline clip-path="url(#clip552)" style="stroke:#000000; stroke-linecap:round; stroke-linejoin:round; stroke-width:2; stroke-opacity:0.1; fill:none" points="316.702,124.044 1202.72,124.044 "/>
<polyline clip-path="url(#clip550)" style="stroke:#000000; stroke-linecap:round; stroke-linejoin:round; stroke-width:4; stroke-opacity:1; fill:none" points="316.702,662.812 1202.72,662.812 "/>
<polyline clip-path="url(#clip550)" style="stroke:#000000; stroke-linecap:round; stroke-linejoin:round; stroke-width:4; stroke-opacity:1; fill:none" points="341.778,662.812 341.778,643.914 "/>
<polyline clip-path="url(#clip550)" style="stroke:#000000; stroke-linecap:round; stroke-linejoin:round; stroke-width:4; stroke-opacity:1; fill:none" points="550.744,662.812 550.744,643.914 "/>
<polyline clip-path="url(#clip550)" style="stroke:#000000; stroke-linecap:round; stroke-linejoin:round; stroke-width:4; stroke-opacity:1; fill:none" points="759.711,662.812 759.711,643.914 "/>
<polyline clip-path="url(#clip550)" style="stroke:#000000; stroke-linecap:round; stroke-linejoin:round; stroke-width:4; stroke-opacity:1; fill:none" points="968.677,662.812 968.677,643.914 "/>
<polyline clip-path="url(#clip550)" style="stroke:#000000; stroke-linecap:round; stroke-linejoin:round; stroke-width:4; stroke-opacity:1; fill:none" points="1177.64,662.812 1177.64,643.914 "/>
<path clip-path="url(#clip550)" d="M304.081 693.731 Q300.47 693.731 298.642 697.295 Q296.836 700.837 296.836 707.967 Q296.836 715.073 298.642 718.638 Q300.47 722.179 304.081 722.179 Q307.716 722.179 309.521 718.638 Q311.35 715.073 311.35 707.967 Q311.35 700.837 309.521 697.295 Q307.716 693.731 304.081 693.731 M304.081 690.027 Q309.892 690.027 312.947 694.633 Q316.026 699.217 316.026 707.967 Q316.026 716.693 312.947 721.3 Q309.892 725.883 304.081 725.883 Q298.271 725.883 295.193 721.3 Q292.137 716.693 292.137 707.967 Q292.137 699.217 295.193 694.633 Q298.271 690.027 304.081 690.027 Z" fill="#000000" fill-rule="nonzero" fill-opacity="1" /><path clip-path="url(#clip550)" d="M324.243 719.332 L329.128 719.332 L329.128 725.212 L324.243 725.212 L324.243 719.332 Z" fill="#000000" fill-rule="nonzero" fill-opacity="1" /><path clip-path="url(#clip550)" d="M349.313 693.731 Q345.702 693.731 343.873 697.295 Q342.067 700.837 342.067 707.967 Q342.067 715.073 343.873 718.638 Q345.702 722.179 349.313 722.179 Q352.947 722.179 354.752 718.638 Q356.581 715.073 356.581 707.967 Q356.581 700.837 354.752 697.295 Q352.947 693.731 349.313 693.731 M349.313 690.027 Q355.123 690.027 358.178 694.633 Q361.257 699.217 361.257 707.967 Q361.257 716.693 358.178 721.3 Q355.123 725.883 349.313 725.883 Q343.502 725.883 340.424 721.3 Q337.368 716.693 337.368 707.967 Q337.368 699.217 340.424 694.633 Q343.502 690.027 349.313 690.027 Z" fill="#000000" fill-rule="nonzero" fill-opacity="1" /><path clip-path="url(#clip550)" d="M379.474 693.731 Q375.863 693.731 374.035 697.295 Q372.229 700.837 372.229 707.967 Q372.229 715.073 374.035 718.638 Q375.863 722.179 379.474 722.179 Q383.109 722.179 384.914 718.638 Q386.743 715.073 386.743 707.967 Q386.743 700.837 384.914 697.295 Q383.109 693.731 379.474 693.731 M379.474 690.027 Q385.285 690.027 388.34 694.633 Q391.419 699.217 391.419 707.967 Q391.419 716.693 388.34 721.3 Q385.285 725.883 379.474 725.883 Q373.664 725.883 370.586 721.3 Q367.53 716.693 367.53 707.967 Q367.53 699.217 370.586 694.633 Q373.664 690.027 379.474 690.027 Z" fill="#000000" fill-rule="nonzero" fill-opacity="1" /><path clip-path="url(#clip550)" d="M513.545 693.731 Q509.934 693.731 508.106 697.295 Q506.3 700.837 506.3 707.967 Q506.3 715.073 508.106 718.638 Q509.934 722.179 513.545 722.179 Q517.18 722.179 518.985 718.638 Q520.814 715.073 520.814 707.967 Q520.814 700.837 518.985 697.295 Q517.18 693.731 513.545 693.731 M513.545 690.027 Q519.356 690.027 522.411 694.633 Q525.49 699.217 525.49 707.967 Q525.49 716.693 522.411 721.3 Q519.356 725.883 513.545 725.883 Q507.735 725.883 504.657 721.3 Q501.601 716.693 501.601 707.967 Q501.601 699.217 504.657 694.633 Q507.735 690.027 513.545 690.027 Z" fill="#000000" fill-rule="nonzero" fill-opacity="1" /><path clip-path="url(#clip550)" d="M533.707 719.332 L538.592 719.332 L538.592 725.212 L533.707 725.212 L533.707 719.332 Z" fill="#000000" fill-rule="nonzero" fill-opacity="1" /><path clip-path="url(#clip550)" d="M552.805 721.277 L569.124 721.277 L569.124 725.212 L547.18 725.212 L547.18 721.277 Q549.842 718.522 554.425 713.892 Q559.031 709.24 560.212 707.897 Q562.457 705.374 563.337 703.638 Q564.24 701.879 564.24 700.189 Q564.24 697.434 562.295 695.698 Q560.374 693.962 557.272 693.962 Q555.073 693.962 552.619 694.726 Q550.189 695.49 547.411 697.041 L547.411 692.319 Q550.235 691.184 552.689 690.606 Q555.142 690.027 557.179 690.027 Q562.55 690.027 565.744 692.712 Q568.939 695.397 568.939 699.888 Q568.939 702.018 568.129 703.939 Q567.341 705.837 565.235 708.43 Q564.656 709.101 561.554 712.318 Q558.453 715.513 552.805 721.277 Z" fill="#000000" fill-rule="nonzero" fill-opacity="1" /><path clip-path="url(#clip550)" d="M578.985 690.652 L597.341 690.652 L597.341 694.587 L583.267 694.587 L583.267 703.059 Q584.286 702.712 585.304 702.55 Q586.323 702.365 587.341 702.365 Q593.128 702.365 596.508 705.536 Q599.888 708.707 599.888 714.124 Q599.888 719.703 596.415 722.804 Q592.943 725.883 586.624 725.883 Q584.448 725.883 582.179 725.513 Q579.934 725.142 577.527 724.402 L577.527 719.703 Q579.61 720.837 581.832 721.392 Q584.054 721.948 586.531 721.948 Q590.536 721.948 592.874 719.842 Q595.212 717.735 595.212 714.124 Q595.212 710.513 592.874 708.406 Q590.536 706.3 586.531 706.3 Q584.656 706.3 582.781 706.717 Q580.929 707.133 578.985 708.013 L578.985 690.652 Z" fill="#000000" fill-rule="nonzero" fill-opacity="1" /><path clip-path="url(#clip550)" d="M722.014 693.731 Q718.403 693.731 716.574 697.295 Q714.769 700.837 714.769 707.967 Q714.769 715.073 716.574 718.638 Q718.403 722.179 722.014 722.179 Q725.648 722.179 727.454 718.638 Q729.283 715.073 729.283 707.967 Q729.283 700.837 727.454 697.295 Q725.648 693.731 722.014 693.731 M722.014 690.027 Q727.824 690.027 730.88 694.633 Q733.959 699.217 733.959 707.967 Q733.959 716.693 730.88 721.3 Q727.824 725.883 722.014 725.883 Q716.204 725.883 713.125 721.3 Q710.07 716.693 710.07 707.967 Q710.07 699.217 713.125 694.633 Q716.204 690.027 722.014 690.027 Z" fill="#000000" fill-rule="nonzero" fill-opacity="1" /><path clip-path="url(#clip550)" d="M742.176 719.332 L747.06 719.332 L747.06 725.212 L742.176 725.212 L742.176 719.332 Z" fill="#000000" fill-rule="nonzero" fill-opacity="1" /><path clip-path="url(#clip550)" d="M757.292 690.652 L775.648 690.652 L775.648 694.587 L761.574 694.587 L761.574 703.059 Q762.593 702.712 763.611 702.55 Q764.63 702.365 765.648 702.365 Q771.435 702.365 774.815 705.536 Q778.194 708.707 778.194 714.124 Q778.194 719.703 774.722 722.804 Q771.25 725.883 764.931 725.883 Q762.755 725.883 760.486 725.513 Q758.241 725.142 755.833 724.402 L755.833 719.703 Q757.917 720.837 760.139 721.392 Q762.361 721.948 764.838 721.948 Q768.843 721.948 771.181 719.842 Q773.519 717.735 773.519 714.124 Q773.519 710.513 771.181 708.406 Q768.843 706.3 764.838 706.3 Q762.963 706.3 761.088 706.717 Q759.236 707.133 757.292 708.013 L757.292 690.652 Z" fill="#000000" fill-rule="nonzero" fill-opacity="1" /><path clip-path="url(#clip550)" d="M797.407 693.731 Q793.796 693.731 791.968 697.295 Q790.162 700.837 790.162 707.967 Q790.162 715.073 791.968 718.638 Q793.796 722.179 797.407 722.179 Q801.042 722.179 802.847 718.638 Q804.676 715.073 804.676 707.967 Q804.676 700.837 802.847 697.295 Q801.042 693.731 797.407 693.731 M797.407 690.027 Q803.217 690.027 806.273 694.633 Q809.352 699.217 809.352 707.967 Q809.352 716.693 806.273 721.3 Q803.217 725.883 797.407 725.883 Q791.597 725.883 788.518 721.3 Q785.463 716.693 785.463 707.967 Q785.463 699.217 788.518 694.633 Q791.597 690.027 797.407 690.027 Z" fill="#000000" fill-rule="nonzero" fill-opacity="1" /><path clip-path="url(#clip550)" d="M931.478 693.731 Q927.867 693.731 926.039 697.295 Q924.233 700.837 924.233 707.967 Q924.233 715.073 926.039 718.638 Q927.867 722.179 931.478 722.179 Q935.113 722.179 936.918 718.638 Q938.747 715.073 938.747 707.967 Q938.747 700.837 936.918 697.295 Q935.113 693.731 931.478 693.731 M931.478 690.027 Q937.288 690.027 940.344 694.633 Q943.423 699.217 943.423 707.967 Q943.423 716.693 940.344 721.3 Q937.288 725.883 931.478 725.883 Q925.668 725.883 922.589 721.3 Q919.534 716.693 919.534 707.967 Q919.534 699.217 922.589 694.633 Q925.668 690.027 931.478 690.027 Z" fill="#000000" fill-rule="nonzero" fill-opacity="1" /><path clip-path="url(#clip550)" d="M951.64 719.332 L956.524 719.332 L956.524 725.212 L951.64 725.212 L951.64 719.332 Z" fill="#000000" fill-rule="nonzero" fill-opacity="1" /><path clip-path="url(#clip550)" d="M965.529 690.652 L987.751 690.652 L987.751 692.643 L975.205 725.212 L970.321 725.212 L982.126 694.587 L965.529 694.587 L965.529 690.652 Z" fill="#000000" fill-rule="nonzero" fill-opacity="1" /><path clip-path="url(#clip550)" d="M996.918 690.652 L1015.27 690.652 L1015.27 694.587 L1001.2 694.587 L1001.2 703.059 Q1002.22 702.712 1003.24 702.55 Q1004.26 702.365 1005.27 702.365 Q1011.06 702.365 1014.44 705.536 Q1017.82 708.707 1017.82 714.124 Q1017.82 719.703 1014.35 722.804 Q1010.88 725.883 1004.56 725.883 Q1002.38 725.883 1000.11 725.513 Q997.867 725.142 995.459 724.402 L995.459 719.703 Q997.543 720.837 999.765 721.392 Q1001.99 721.948 1004.46 721.948 Q1008.47 721.948 1010.81 719.842 Q1013.14 717.735 1013.14 714.124 Q1013.14 710.513 1010.81 708.406 Q1008.47 706.3 1004.46 706.3 Q1002.59 706.3 1000.71 706.717 Q998.862 707.133 996.918 708.013 L996.918 690.652 Z" fill="#000000" fill-rule="nonzero" fill-opacity="1" /><path clip-path="url(#clip550)" d="M1129.72 721.277 L1137.35 721.277 L1137.35 694.911 L1129.04 696.578 L1129.04 692.319 L1137.31 690.652 L1141.98 690.652 L1141.98 721.277 L1149.62 721.277 L1149.62 725.212 L1129.72 725.212 L1129.72 721.277 Z" fill="#000000" fill-rule="nonzero" fill-opacity="1" /><path clip-path="url(#clip550)" d="M1159.07 719.332 L1163.95 719.332 L1163.95 725.212 L1159.07 725.212 L1159.07 719.332 Z" fill="#000000" fill-rule="nonzero" fill-opacity="1" /><path clip-path="url(#clip550)" d="M1184.14 693.731 Q1180.53 693.731 1178.7 697.295 Q1176.89 700.837 1176.89 707.967 Q1176.89 715.073 1178.7 718.638 Q1180.53 722.179 1184.14 722.179 Q1187.77 722.179 1189.58 718.638 Q1191.41 715.073 1191.41 707.967 Q1191.41 700.837 1189.58 697.295 Q1187.77 693.731 1184.14 693.731 M1184.14 690.027 Q1189.95 690.027 1193 694.633 Q1196.08 699.217 1196.08 707.967 Q1196.08 716.693 1193 721.3 Q1189.95 725.883 1184.14 725.883 Q1178.33 725.883 1175.25 721.3 Q1172.19 716.693 1172.19 707.967 Q1172.19 699.217 1175.25 694.633 Q1178.33 690.027 1184.14 690.027 Z" fill="#000000" fill-rule="nonzero" fill-opacity="1" /><path clip-path="url(#clip550)" d="M1214.3 693.731 Q1210.69 693.731 1208.86 697.295 Q1207.05 700.837 1207.05 707.967 Q1207.05 715.073 1208.86 718.638 Q1210.69 722.179 1214.3 722.179 Q1217.93 722.179 1219.74 718.638 Q1221.57 715.073 1221.57 707.967 Q1221.57 700.837 1219.74 697.295 Q1217.93 693.731 1214.3 693.731 M1214.3 690.027 Q1220.11 690.027 1223.16 694.633 Q1226.24 699.217 1226.24 707.967 Q1226.24 716.693 1223.16 721.3 Q1220.11 725.883 1214.3 725.883 Q1208.49 725.883 1205.41 721.3 Q1202.35 716.693 1202.35 707.967 Q1202.35 699.217 1205.41 694.633 Q1208.49 690.027 1214.3 690.027 Z" fill="#000000" fill-rule="nonzero" fill-opacity="1" /><path clip-path="url(#clip550)" d="M758.857 760.883 L758.857 770.085 L769.824 770.085 L769.824 774.222 L758.857 774.222 L758.857 791.815 Q758.857 795.779 759.928 796.907 Q761.027 798.036 764.355 798.036 L769.824 798.036 L769.824 802.492 L764.355 802.492 Q758.192 802.492 755.848 800.206 Q753.504 797.891 753.504 791.815 L753.504 774.222 L749.598 774.222 L749.598 770.085 L753.504 770.085 L753.504 760.883 L758.857 760.883 Z" fill="#000000" fill-rule="nonzero" fill-opacity="1" /><polyline clip-path="url(#clip550)" style="stroke:#000000; stroke-linecap:round; stroke-linejoin:round; stroke-width:4; stroke-opacity:1; fill:none" points="316.702,662.812 316.702,108.352 "/>
<polyline clip-path="url(#clip550)" style="stroke:#000000; stroke-linecap:round; stroke-linejoin:round; stroke-width:4; stroke-opacity:1; fill:none" points="316.702,647.12 335.6,647.12 "/>
<polyline clip-path="url(#clip550)" style="stroke:#000000; stroke-linecap:round; stroke-linejoin:round; stroke-width:4; stroke-opacity:1; fill:none" points="316.702,516.351 335.6,516.351 "/>
<polyline clip-path="url(#clip550)" style="stroke:#000000; stroke-linecap:round; stroke-linejoin:round; stroke-width:4; stroke-opacity:1; fill:none" points="316.702,385.582 335.6,385.582 "/>
<polyline clip-path="url(#clip550)" style="stroke:#000000; stroke-linecap:round; stroke-linejoin:round; stroke-width:4; stroke-opacity:1; fill:none" points="316.702,254.813 335.6,254.813 "/>
<polyline clip-path="url(#clip550)" style="stroke:#000000; stroke-linecap:round; stroke-linejoin:round; stroke-width:4; stroke-opacity:1; fill:none" points="316.702,124.044 335.6,124.044 "/>
<path clip-path="url(#clip550)" d="M143.596 647.571 L173.272 647.571 L173.272 651.506 L143.596 651.506 L143.596 647.571 Z" fill="#000000" fill-rule="nonzero" fill-opacity="1" /><path clip-path="url(#clip550)" d="M184.175 660.464 L191.814 660.464 L191.814 634.099 L183.503 635.765 L183.503 631.506 L191.767 629.84 L196.443 629.84 L196.443 660.464 L204.082 660.464 L204.082 664.4 L184.175 664.4 L184.175 660.464 Z" fill="#000000" fill-rule="nonzero" fill-opacity="1" /><path clip-path="url(#clip550)" d="M213.526 658.52 L218.411 658.52 L218.411 664.4 L213.526 664.4 L213.526 658.52 Z" fill="#000000" fill-rule="nonzero" fill-opacity="1" /><path clip-path="url(#clip550)" d="M238.596 632.918 Q234.985 632.918 233.156 636.483 Q231.35 640.025 231.35 647.154 Q231.35 654.261 233.156 657.826 Q234.985 661.367 238.596 661.367 Q242.23 661.367 244.035 657.826 Q245.864 654.261 245.864 647.154 Q245.864 640.025 244.035 636.483 Q242.23 632.918 238.596 632.918 M238.596 629.215 Q244.406 629.215 247.461 633.821 Q250.54 638.404 250.54 647.154 Q250.54 655.881 247.461 660.488 Q244.406 665.071 238.596 665.071 Q232.786 665.071 229.707 660.488 Q226.651 655.881 226.651 647.154 Q226.651 638.404 229.707 633.821 Q232.786 629.215 238.596 629.215 Z" fill="#000000" fill-rule="nonzero" fill-opacity="1" /><path clip-path="url(#clip550)" d="M268.758 632.918 Q265.146 632.918 263.318 636.483 Q261.512 640.025 261.512 647.154 Q261.512 654.261 263.318 657.826 Q265.146 661.367 268.758 661.367 Q272.392 661.367 274.197 657.826 Q276.026 654.261 276.026 647.154 Q276.026 640.025 274.197 636.483 Q272.392 632.918 268.758 632.918 M268.758 629.215 Q274.568 629.215 277.623 633.821 Q280.702 638.404 280.702 647.154 Q280.702 655.881 277.623 660.488 Q274.568 665.071 268.758 665.071 Q262.947 665.071 259.869 660.488 Q256.813 655.881 256.813 647.154 Q256.813 638.404 259.869 633.821 Q262.947 629.215 268.758 629.215 Z" fill="#000000" fill-rule="nonzero" fill-opacity="1" /><path clip-path="url(#clip550)" d="M144.592 516.802 L174.267 516.802 L174.267 520.737 L144.592 520.737 L144.592 516.802 Z" fill="#000000" fill-rule="nonzero" fill-opacity="1" /><path clip-path="url(#clip550)" d="M194.36 502.149 Q190.749 502.149 188.92 505.714 Q187.115 509.256 187.115 516.386 Q187.115 523.492 188.92 527.057 Q190.749 530.598 194.36 530.598 Q197.994 530.598 199.8 527.057 Q201.628 523.492 201.628 516.386 Q201.628 509.256 199.8 505.714 Q197.994 502.149 194.36 502.149 M194.36 498.446 Q200.17 498.446 203.226 503.052 Q206.304 507.636 206.304 516.386 Q206.304 525.112 203.226 529.719 Q200.17 534.302 194.36 534.302 Q188.55 534.302 185.471 529.719 Q182.415 525.112 182.415 516.386 Q182.415 507.636 185.471 503.052 Q188.55 498.446 194.36 498.446 Z" fill="#000000" fill-rule="nonzero" fill-opacity="1" /><path clip-path="url(#clip550)" d="M214.522 527.751 L219.406 527.751 L219.406 533.631 L214.522 533.631 L214.522 527.751 Z" fill="#000000" fill-rule="nonzero" fill-opacity="1" /><path clip-path="url(#clip550)" d="M228.411 499.071 L250.633 499.071 L250.633 501.062 L238.086 533.631 L233.202 533.631 L245.008 503.006 L228.411 503.006 L228.411 499.071 Z" fill="#000000" fill-rule="nonzero" fill-opacity="1" /><path clip-path="url(#clip550)" d="M259.799 499.071 L278.156 499.071 L278.156 503.006 L264.082 503.006 L264.082 511.478 Q265.1 511.131 266.119 510.969 Q267.137 510.784 268.156 510.784 Q273.943 510.784 277.322 513.955 Q280.702 517.126 280.702 522.543 Q280.702 528.122 277.23 531.223 Q273.758 534.302 267.438 534.302 Q265.262 534.302 262.994 533.932 Q260.748 533.561 258.341 532.821 L258.341 528.122 Q260.424 529.256 262.647 529.811 Q264.869 530.367 267.346 530.367 Q271.35 530.367 273.688 528.26 Q276.026 526.154 276.026 522.543 Q276.026 518.932 273.688 516.825 Q271.35 514.719 267.346 514.719 Q265.471 514.719 263.596 515.136 Q261.744 515.552 259.799 516.432 L259.799 499.071 Z" fill="#000000" fill-rule="nonzero" fill-opacity="1" /><path clip-path="url(#clip550)" d="M143.596 386.033 L173.272 386.033 L173.272 389.969 L143.596 389.969 L143.596 386.033 Z" fill="#000000" fill-rule="nonzero" fill-opacity="1" /><path clip-path="url(#clip550)" d="M193.364 371.381 Q189.753 371.381 187.925 374.945 Q186.119 378.487 186.119 385.617 Q186.119 392.723 187.925 396.288 Q189.753 399.83 193.364 399.83 Q196.999 399.83 198.804 396.288 Q200.633 392.723 200.633 385.617 Q200.633 378.487 198.804 374.945 Q196.999 371.381 193.364 371.381 M193.364 367.677 Q199.175 367.677 202.23 372.283 Q205.309 376.867 205.309 385.617 Q205.309 394.344 202.23 398.95 Q199.175 403.533 193.364 403.533 Q187.554 403.533 184.476 398.95 Q181.42 394.344 181.42 385.617 Q181.42 376.867 184.476 372.283 Q187.554 367.677 193.364 367.677 Z" fill="#000000" fill-rule="nonzero" fill-opacity="1" /><path clip-path="url(#clip550)" d="M213.526 396.982 L218.411 396.982 L218.411 402.862 L213.526 402.862 L213.526 396.982 Z" fill="#000000" fill-rule="nonzero" fill-opacity="1" /><path clip-path="url(#clip550)" d="M228.642 368.302 L246.998 368.302 L246.998 372.237 L232.924 372.237 L232.924 380.709 Q233.943 380.362 234.961 380.2 Q235.98 380.015 236.998 380.015 Q242.786 380.015 246.165 383.186 Q249.545 386.357 249.545 391.774 Q249.545 397.353 246.073 400.455 Q242.6 403.533 236.281 403.533 Q234.105 403.533 231.836 403.163 Q229.591 402.793 227.184 402.052 L227.184 397.353 Q229.267 398.487 231.489 399.043 Q233.711 399.598 236.188 399.598 Q240.193 399.598 242.531 397.492 Q244.869 395.385 244.869 391.774 Q244.869 388.163 242.531 386.057 Q240.193 383.95 236.188 383.95 Q234.313 383.95 232.438 384.367 Q230.586 384.783 228.642 385.663 L228.642 368.302 Z" fill="#000000" fill-rule="nonzero" fill-opacity="1" /><path clip-path="url(#clip550)" d="M268.758 371.381 Q265.146 371.381 263.318 374.945 Q261.512 378.487 261.512 385.617 Q261.512 392.723 263.318 396.288 Q265.146 399.83 268.758 399.83 Q272.392 399.83 274.197 396.288 Q276.026 392.723 276.026 385.617 Q276.026 378.487 274.197 374.945 Q272.392 371.381 268.758 371.381 M268.758 367.677 Q274.568 367.677 277.623 372.283 Q280.702 376.867 280.702 385.617 Q280.702 394.344 277.623 398.95 Q274.568 403.533 268.758 403.533 Q262.947 403.533 259.869 398.95 Q256.813 394.344 256.813 385.617 Q256.813 376.867 259.869 372.283 Q262.947 367.677 268.758 367.677 Z" fill="#000000" fill-rule="nonzero" fill-opacity="1" /><path clip-path="url(#clip550)" d="M144.592 255.265 L174.267 255.265 L174.267 259.2 L144.592 259.2 L144.592 255.265 Z" fill="#000000" fill-rule="nonzero" fill-opacity="1" /><path clip-path="url(#clip550)" d="M194.36 240.612 Q190.749 240.612 188.92 244.177 Q187.115 247.718 187.115 254.848 Q187.115 261.954 188.92 265.519 Q190.749 269.061 194.36 269.061 Q197.994 269.061 199.8 265.519 Q201.628 261.954 201.628 254.848 Q201.628 247.718 199.8 244.177 Q197.994 240.612 194.36 240.612 M194.36 236.908 Q200.17 236.908 203.226 241.515 Q206.304 246.098 206.304 254.848 Q206.304 263.575 203.226 268.181 Q200.17 272.764 194.36 272.764 Q188.55 272.764 185.471 268.181 Q182.415 263.575 182.415 254.848 Q182.415 246.098 185.471 241.515 Q188.55 236.908 194.36 236.908 Z" fill="#000000" fill-rule="nonzero" fill-opacity="1" /><path clip-path="url(#clip550)" d="M214.522 266.214 L219.406 266.214 L219.406 272.093 L214.522 272.093 L214.522 266.214 Z" fill="#000000" fill-rule="nonzero" fill-opacity="1" /><path clip-path="url(#clip550)" d="M233.619 268.158 L249.938 268.158 L249.938 272.093 L227.994 272.093 L227.994 268.158 Q230.656 265.403 235.239 260.774 Q239.846 256.121 241.026 254.778 Q243.272 252.255 244.151 250.519 Q245.054 248.76 245.054 247.07 Q245.054 244.316 243.11 242.579 Q241.188 240.843 238.086 240.843 Q235.887 240.843 233.434 241.607 Q231.003 242.371 228.225 243.922 L228.225 239.2 Q231.049 238.066 233.503 237.487 Q235.957 236.908 237.994 236.908 Q243.364 236.908 246.559 239.593 Q249.753 242.279 249.753 246.769 Q249.753 248.899 248.943 250.82 Q248.156 252.718 246.049 255.311 Q245.471 255.982 242.369 259.2 Q239.267 262.394 233.619 268.158 Z" fill="#000000" fill-rule="nonzero" fill-opacity="1" /><path clip-path="url(#clip550)" d="M259.799 237.533 L278.156 237.533 L278.156 241.468 L264.082 241.468 L264.082 249.941 Q265.1 249.593 266.119 249.431 Q267.137 249.246 268.156 249.246 Q273.943 249.246 277.322 252.417 Q280.702 255.589 280.702 261.005 Q280.702 266.584 277.23 269.686 Q273.758 272.764 267.438 272.764 Q265.262 272.764 262.994 272.394 Q260.748 272.024 258.341 271.283 L258.341 266.584 Q260.424 267.718 262.647 268.274 Q264.869 268.829 267.346 268.829 Q271.35 268.829 273.688 266.723 Q276.026 264.616 276.026 261.005 Q276.026 257.394 273.688 255.288 Q271.35 253.181 267.346 253.181 Q265.471 253.181 263.596 253.598 Q261.744 254.015 259.799 254.894 L259.799 237.533 Z" fill="#000000" fill-rule="nonzero" fill-opacity="1" /><path clip-path="url(#clip550)" d="M193.364 109.843 Q189.753 109.843 187.925 113.408 Q186.119 116.95 186.119 124.079 Q186.119 131.186 187.925 134.75 Q189.753 138.292 193.364 138.292 Q196.999 138.292 198.804 134.75 Q200.633 131.186 200.633 124.079 Q200.633 116.95 198.804 113.408 Q196.999 109.843 193.364 109.843 M193.364 106.139 Q199.175 106.139 202.23 110.746 Q205.309 115.329 205.309 124.079 Q205.309 132.806 202.23 137.412 Q199.175 141.996 193.364 141.996 Q187.554 141.996 184.476 137.412 Q181.42 132.806 181.42 124.079 Q181.42 115.329 184.476 110.746 Q187.554 106.139 193.364 106.139 Z" fill="#000000" fill-rule="nonzero" fill-opacity="1" /><path clip-path="url(#clip550)" d="M213.526 135.445 L218.411 135.445 L218.411 141.324 L213.526 141.324 L213.526 135.445 Z" fill="#000000" fill-rule="nonzero" fill-opacity="1" /><path clip-path="url(#clip550)" d="M238.596 109.843 Q234.985 109.843 233.156 113.408 Q231.35 116.95 231.35 124.079 Q231.35 131.186 233.156 134.75 Q234.985 138.292 238.596 138.292 Q242.23 138.292 244.035 134.75 Q245.864 131.186 245.864 124.079 Q245.864 116.95 244.035 113.408 Q242.23 109.843 238.596 109.843 M238.596 106.139 Q244.406 106.139 247.461 110.746 Q250.54 115.329 250.54 124.079 Q250.54 132.806 247.461 137.412 Q244.406 141.996 238.596 141.996 Q232.786 141.996 229.707 137.412 Q226.651 132.806 226.651 124.079 Q226.651 115.329 229.707 110.746 Q232.786 106.139 238.596 106.139 Z" fill="#000000" fill-rule="nonzero" fill-opacity="1" /><path clip-path="url(#clip550)" d="M268.758 109.843 Q265.146 109.843 263.318 113.408 Q261.512 116.95 261.512 124.079 Q261.512 131.186 263.318 134.75 Q265.146 138.292 268.758 138.292 Q272.392 138.292 274.197 134.75 Q276.026 131.186 276.026 124.079 Q276.026 116.95 274.197 113.408 Q272.392 109.843 268.758 109.843 M268.758 106.139 Q274.568 106.139 277.623 110.746 Q280.702 115.329 280.702 124.079 Q280.702 132.806 277.623 137.412 Q274.568 141.996 268.758 141.996 Q262.947 141.996 259.869 137.412 Q256.813 132.806 256.813 124.079 Q256.813 115.329 259.869 110.746 Q262.947 106.139 268.758 106.139 Z" fill="#000000" fill-rule="nonzero" fill-opacity="1" /><path clip-path="url(#clip550)" d="M62.229 370.478 L77.9986 382.197 L94.6362 369.87 L94.6362 376.149 L81.9048 385.582 L94.6362 395.015 L94.6362 401.294 L77.6803 388.707 L62.229 400.223 L62.229 393.944 L73.7741 385.351 L62.229 376.757 L62.229 370.478 Z" fill="#000000" fill-rule="nonzero" fill-opacity="1" /><path clip-path="url(#clip550)" d="M710.868 20.3876 L710.868 25.4223 Q708.611 24.2649 706.181 23.6862 Q703.75 23.1075 701.146 23.1075 Q697.182 23.1075 695.186 24.3228 Q693.218 25.5381 693.218 27.9686 Q693.218 29.8204 694.636 30.891 Q696.054 31.9327 700.336 32.8876 L702.159 33.2926 Q707.83 34.5079 710.203 36.7359 Q712.605 38.935 712.605 42.8991 Q712.605 47.4129 709.017 50.046 Q705.458 52.6791 699.208 52.6791 Q696.603 52.6791 693.768 52.1583 Q690.961 51.6664 687.836 50.6537 L687.836 45.156 Q690.788 46.6896 693.652 47.4708 Q696.517 48.2231 699.323 48.2231 Q703.085 48.2231 705.11 46.95 Q707.136 45.6479 707.136 43.3042 Q707.136 41.134 705.66 39.9766 Q704.213 38.8192 699.265 37.7486 L697.414 37.3146 Q692.466 36.273 690.267 34.1318 Q688.068 31.9616 688.068 28.2001 Q688.068 23.6283 691.308 21.1399 Q694.549 18.6515 700.51 18.6515 Q703.461 18.6515 706.065 19.0855 Q708.669 19.5196 710.868 20.3876 Z" fill="#000000" fill-rule="nonzero" fill-opacity="1" /><path clip-path="url(#clip550)" d="M726.349 10.2314 L726.349 19.4328 L737.315 19.4328 L737.315 23.5705 L726.349 23.5705 L726.349 41.163 Q726.349 45.1271 727.419 46.2555 Q728.519 47.384 731.846 47.384 L737.315 47.384 L737.315 51.84 L731.846 51.84 Q725.683 51.84 723.339 49.5541 Q720.996 47.2393 720.996 41.163 L720.996 23.5705 L717.089 23.5705 L717.089 19.4328 L720.996 19.4328 L720.996 10.2314 L726.349 10.2314 Z" fill="#000000" fill-rule="nonzero" fill-opacity="1" /><path clip-path="url(#clip550)" d="M759.045 35.5496 Q752.593 35.5496 750.104 37.0253 Q747.616 38.501 747.616 42.06 Q747.616 44.8956 749.468 46.5738 Q751.349 48.2231 754.56 48.2231 Q758.987 48.2231 761.649 45.0981 Q764.34 41.9442 764.34 36.7359 L764.34 35.5496 L759.045 35.5496 M769.664 33.3505 L769.664 51.84 L764.34 51.84 L764.34 46.921 Q762.517 49.8724 759.798 51.2902 Q757.078 52.6791 753.143 52.6791 Q748.166 52.6791 745.214 49.9014 Q742.292 47.0947 742.292 42.4072 Q742.292 36.9385 745.938 34.1607 Q749.612 31.3829 756.875 31.3829 L764.34 31.3829 L764.34 30.8621 Q764.34 27.1874 761.91 25.1908 Q759.508 23.1654 755.139 23.1654 Q752.361 23.1654 749.728 23.8309 Q747.095 24.4964 744.665 25.8274 L744.665 20.9085 Q747.587 19.78 750.336 19.2302 Q753.085 18.6515 755.689 18.6515 Q762.72 18.6515 766.192 22.2973 Q769.664 25.9431 769.664 33.3505 Z" fill="#000000" fill-rule="nonzero" fill-opacity="1" /><path clip-path="url(#clip550)" d="M785.897 10.2314 L785.897 19.4328 L796.863 19.4328 L796.863 23.5705 L785.897 23.5705 L785.897 41.163 Q785.897 45.1271 786.968 46.2555 Q788.067 47.384 791.395 47.384 L796.863 47.384 L796.863 51.84 L791.395 51.84 Q785.231 51.84 782.888 49.5541 Q780.544 47.2393 780.544 41.163 L780.544 23.5705 L776.638 23.5705 L776.638 19.4328 L780.544 19.4328 L780.544 10.2314 L785.897 10.2314 Z" fill="#000000" fill-rule="nonzero" fill-opacity="1" /><path clip-path="url(#clip550)" d="M831.585 34.3054 L831.585 36.9095 L807.106 36.9095 Q807.454 42.4072 810.405 45.3007 Q813.385 48.1653 818.68 48.1653 Q821.747 48.1653 824.612 47.4129 Q827.506 46.6606 830.341 45.156 L830.341 50.1907 Q827.477 51.406 824.467 52.0425 Q821.458 52.6791 818.362 52.6791 Q810.607 52.6791 806.065 48.1653 Q801.551 43.6514 801.551 35.9547 Q801.551 27.9975 805.833 23.339 Q810.145 18.6515 817.436 18.6515 Q823.975 18.6515 827.766 22.876 Q831.585 27.0716 831.585 34.3054 M826.261 32.7429 Q826.203 28.3737 823.802 25.7695 Q821.429 23.1654 817.494 23.1654 Q813.038 23.1654 810.347 25.6827 Q807.685 28.2001 807.28 32.7718 L826.261 32.7429 Z" fill="#000000" fill-rule="nonzero" fill-opacity="1" /><polyline clip-path="url(#clip552)" style="stroke:#000000; stroke-linecap:round; stroke-linejoin:round; stroke-width:4; stroke-opacity:1; fill:none" stroke-dasharray="16, 10" points="341.778,1217.27 341.778,-446.108 "/>
<polyline clip-path="url(#clip552)" style="stroke:#000000; stroke-linecap:round; stroke-linejoin:round; stroke-width:4; stroke-opacity:1; fill:none" stroke-dasharray="16, 10" points="1177.64,1217.27 1177.64,-446.108 "/>
<polyline clip-path="url(#clip552)" style="stroke:#009af9; stroke-linecap:round; stroke-linejoin:round; stroke-width:8; stroke-opacity:1; fill:none" points="341.778,647.12 345.439,644.834 354.343,639.315 365.97,632.197 379.937,623.777 396.357,614.056 414.908,603.3 435.44,591.671 457.669,579.4 481.379,566.664 506.337,553.644 532.347,540.482 559.229,527.302 586.833,514.202 615.029,501.26 643.708,488.537 672.778,476.079 702.165,463.917 731.807,452.076 761.651,440.57 791.657,429.409 792.176,429.219 792.591,429.068 792.924,428.946 793.189,428.849 793.402,428.772 793.572,428.71 793.708,428.66 793.817,428.621 793.904,428.589 793.974,428.564 794.03,428.543 794.074,428.527 794.11,428.514 794.139,428.504 794.161,428.495 794.18,428.489 794.194,428.483 794.206,428.479 794.215,428.476 794.223,428.473 794.229,428.471 794.234,428.469 794.237,428.468 794.241,428.466 794.243,428.466 794.245,428.465 794.247,428.464 794.248,428.464 794.249,428.463 794.25,428.463 794.251,428.463 794.251,428.463 794.252,428.462 794.252,428.462 794.252,428.462 794.252,428.462 794.253,428.462 794.253,428.462 794.253,428.462 794.253,428.462 794.253,428.462 794.253,428.462 794.253,428.462 794.253,428.462 794.253,428.462 794.253,428.462 794.253,428.462 794.253,428.462 794.253,428.462 794.253,428.462 794.253,428.462 794.253,428.462 794.253,428.462 794.257,428.458 794.295,428.42 794.674,428.045 798.461,424.306 806.745,416.186 817.22,406.034 829.908,393.906 844.669,380.026 861.343,364.639 879.715,348.038 899.571,330.5 920.696,312.293 942.894,293.651 965.985,274.778 989.814,255.84 1014.25,236.974 1039.17,218.288 1064.5,199.866 1090.14,181.772 1116.04,164.052 1142.14,146.741 1168.4,129.86 1177.64,124.044 "/>
<path clip-path="url(#clip550)" d="M1466.74 662.812 L2352.76 662.812 L2352.76 108.352 L1466.74 108.352  Z" fill="#ffffff" fill-rule="evenodd" fill-opacity="1"/>
<defs>
  <clipPath id="clip553">
    <rect x="1466" y="108" width="887" height="555"/>
  </clipPath>
</defs>
<polyline clip-path="url(#clip553)" style="stroke:#000000; stroke-linecap:round; stroke-linejoin:round; stroke-width:2; stroke-opacity:0.1; fill:none" points="1491.81,662.812 1491.81,108.352 "/>
<polyline clip-path="url(#clip553)" style="stroke:#000000; stroke-linecap:round; stroke-linejoin:round; stroke-width:2; stroke-opacity:0.1; fill:none" points="1700.78,662.812 1700.78,108.352 "/>
<polyline clip-path="url(#clip553)" style="stroke:#000000; stroke-linecap:round; stroke-linejoin:round; stroke-width:2; stroke-opacity:0.1; fill:none" points="1909.75,662.812 1909.75,108.352 "/>
<polyline clip-path="url(#clip553)" style="stroke:#000000; stroke-linecap:round; stroke-linejoin:round; stroke-width:2; stroke-opacity:0.1; fill:none" points="2118.71,662.812 2118.71,108.352 "/>
<polyline clip-path="url(#clip553)" style="stroke:#000000; stroke-linecap:round; stroke-linejoin:round; stroke-width:2; stroke-opacity:0.1; fill:none" points="2327.68,662.812 2327.68,108.352 "/>
<polyline clip-path="url(#clip553)" style="stroke:#000000; stroke-linecap:round; stroke-linejoin:round; stroke-width:2; stroke-opacity:0.1; fill:none" points="1466.74,559.231 2352.76,559.231 "/>
<polyline clip-path="url(#clip553)" style="stroke:#000000; stroke-linecap:round; stroke-linejoin:round; stroke-width:2; stroke-opacity:0.1; fill:none" points="1466.74,428.462 2352.76,428.462 "/>
<polyline clip-path="url(#clip553)" style="stroke:#000000; stroke-linecap:round; stroke-linejoin:round; stroke-width:2; stroke-opacity:0.1; fill:none" points="1466.74,297.693 2352.76,297.693 "/>
<polyline clip-path="url(#clip553)" style="stroke:#000000; stroke-linecap:round; stroke-linejoin:round; stroke-width:2; stroke-opacity:0.1; fill:none" points="1466.74,166.924 2352.76,166.924 "/>
<polyline clip-path="url(#clip550)" style="stroke:#000000; stroke-linecap:round; stroke-linejoin:round; stroke-width:4; stroke-opacity:1; fill:none" points="1466.74,662.812 2352.76,662.812 "/>
<polyline clip-path="url(#clip550)" style="stroke:#000000; stroke-linecap:round; stroke-linejoin:round; stroke-width:4; stroke-opacity:1; fill:none" points="1491.81,662.812 1491.81,643.914 "/>
<polyline clip-path="url(#clip550)" style="stroke:#000000; stroke-linecap:round; stroke-linejoin:round; stroke-width:4; stroke-opacity:1; fill:none" points="1700.78,662.812 1700.78,643.914 "/>
<polyline clip-path="url(#clip550)" style="stroke:#000000; stroke-linecap:round; stroke-linejoin:round; stroke-width:4; stroke-opacity:1; fill:none" points="1909.75,662.812 1909.75,643.914 "/>
<polyline clip-path="url(#clip550)" style="stroke:#000000; stroke-linecap:round; stroke-linejoin:round; stroke-width:4; stroke-opacity:1; fill:none" points="2118.71,662.812 2118.71,643.914 "/>
<polyline clip-path="url(#clip550)" style="stroke:#000000; stroke-linecap:round; stroke-linejoin:round; stroke-width:4; stroke-opacity:1; fill:none" points="2327.68,662.812 2327.68,643.914 "/>
<path clip-path="url(#clip550)" d="M1454.12 693.731 Q1450.51 693.731 1448.68 697.295 Q1446.87 700.837 1446.87 707.967 Q1446.87 715.073 1448.68 718.638 Q1450.51 722.179 1454.12 722.179 Q1457.75 722.179 1459.56 718.638 Q1461.39 715.073 1461.39 707.967 Q1461.39 700.837 1459.56 697.295 Q1457.75 693.731 1454.12 693.731 M1454.12 690.027 Q1459.93 690.027 1462.98 694.633 Q1466.06 699.217 1466.06 707.967 Q1466.06 716.693 1462.98 721.3 Q1459.93 725.883 1454.12 725.883 Q1448.31 725.883 1445.23 721.3 Q1442.17 716.693 1442.17 707.967 Q1442.17 699.217 1445.23 694.633 Q1448.31 690.027 1454.12 690.027 Z" fill="#000000" fill-rule="nonzero" fill-opacity="1" /><path clip-path="url(#clip550)" d="M1474.28 719.332 L1479.16 719.332 L1479.16 725.212 L1474.28 725.212 L1474.28 719.332 Z" fill="#000000" fill-rule="nonzero" fill-opacity="1" /><path clip-path="url(#clip550)" d="M1499.35 693.731 Q1495.74 693.731 1493.91 697.295 Q1492.1 700.837 1492.1 707.967 Q1492.1 715.073 1493.91 718.638 Q1495.74 722.179 1499.35 722.179 Q1502.98 722.179 1504.79 718.638 Q1506.62 715.073 1506.62 707.967 Q1506.62 700.837 1504.79 697.295 Q1502.98 693.731 1499.35 693.731 M1499.35 690.027 Q1505.16 690.027 1508.21 694.633 Q1511.29 699.217 1511.29 707.967 Q1511.29 716.693 1508.21 721.3 Q1505.16 725.883 1499.35 725.883 Q1493.54 725.883 1490.46 721.3 Q1487.4 716.693 1487.4 707.967 Q1487.4 699.217 1490.46 694.633 Q1493.54 690.027 1499.35 690.027 Z" fill="#000000" fill-rule="nonzero" fill-opacity="1" /><path clip-path="url(#clip550)" d="M1529.51 693.731 Q1525.9 693.731 1524.07 697.295 Q1522.27 700.837 1522.27 707.967 Q1522.27 715.073 1524.07 718.638 Q1525.9 722.179 1529.51 722.179 Q1533.15 722.179 1534.95 718.638 Q1536.78 715.073 1536.78 707.967 Q1536.78 700.837 1534.95 697.295 Q1533.15 693.731 1529.51 693.731 M1529.51 690.027 Q1535.32 690.027 1538.38 694.633 Q1541.46 699.217 1541.46 707.967 Q1541.46 716.693 1538.38 721.3 Q1535.32 725.883 1529.51 725.883 Q1523.7 725.883 1520.62 721.3 Q1517.57 716.693 1517.57 707.967 Q1517.57 699.217 1520.62 694.633 Q1523.7 690.027 1529.51 690.027 Z" fill="#000000" fill-rule="nonzero" fill-opacity="1" /><path clip-path="url(#clip550)" d="M1663.58 693.731 Q1659.97 693.731 1658.14 697.295 Q1656.34 700.837 1656.34 707.967 Q1656.34 715.073 1658.14 718.638 Q1659.97 722.179 1663.58 722.179 Q1667.22 722.179 1669.02 718.638 Q1670.85 715.073 1670.85 707.967 Q1670.85 700.837 1669.02 697.295 Q1667.22 693.731 1663.58 693.731 M1663.58 690.027 Q1669.39 690.027 1672.45 694.633 Q1675.53 699.217 1675.53 707.967 Q1675.53 716.693 1672.45 721.3 Q1669.39 725.883 1663.58 725.883 Q1657.77 725.883 1654.69 721.3 Q1651.64 716.693 1651.64 707.967 Q1651.64 699.217 1654.69 694.633 Q1657.77 690.027 1663.58 690.027 Z" fill="#000000" fill-rule="nonzero" fill-opacity="1" /><path clip-path="url(#clip550)" d="M1683.74 719.332 L1688.63 719.332 L1688.63 725.212 L1683.74 725.212 L1683.74 719.332 Z" fill="#000000" fill-rule="nonzero" fill-opacity="1" /><path clip-path="url(#clip550)" d="M1702.84 721.277 L1719.16 721.277 L1719.16 725.212 L1697.22 725.212 L1697.22 721.277 Q1699.88 718.522 1704.46 713.892 Q1709.07 709.24 1710.25 707.897 Q1712.49 705.374 1713.37 703.638 Q1714.28 701.879 1714.28 700.189 Q1714.28 697.434 1712.33 695.698 Q1710.41 693.962 1707.31 693.962 Q1705.11 693.962 1702.66 694.726 Q1700.23 695.49 1697.45 697.041 L1697.45 692.319 Q1700.27 691.184 1702.73 690.606 Q1705.18 690.027 1707.22 690.027 Q1712.59 690.027 1715.78 692.712 Q1718.98 695.397 1718.98 699.888 Q1718.98 702.018 1718.16 703.939 Q1717.38 705.837 1715.27 708.43 Q1714.69 709.101 1711.59 712.318 Q1708.49 715.513 1702.84 721.277 Z" fill="#000000" fill-rule="nonzero" fill-opacity="1" /><path clip-path="url(#clip550)" d="M1729.02 690.652 L1747.38 690.652 L1747.38 694.587 L1733.3 694.587 L1733.3 703.059 Q1734.32 702.712 1735.34 702.55 Q1736.36 702.365 1737.38 702.365 Q1743.16 702.365 1746.54 705.536 Q1749.92 708.707 1749.92 714.124 Q1749.92 719.703 1746.45 722.804 Q1742.98 725.883 1736.66 725.883 Q1734.48 725.883 1732.22 725.513 Q1729.97 725.142 1727.56 724.402 L1727.56 719.703 Q1729.65 720.837 1731.87 721.392 Q1734.09 721.948 1736.57 721.948 Q1740.57 721.948 1742.91 719.842 Q1745.25 717.735 1745.25 714.124 Q1745.25 710.513 1742.91 708.406 Q1740.57 706.3 1736.57 706.3 Q1734.69 706.3 1732.82 706.717 Q1730.97 707.133 1729.02 708.013 L1729.02 690.652 Z" fill="#000000" fill-rule="nonzero" fill-opacity="1" /><path clip-path="url(#clip550)" d="M1872.05 693.731 Q1868.44 693.731 1866.61 697.295 Q1864.81 700.837 1864.81 707.967 Q1864.81 715.073 1866.61 718.638 Q1868.44 722.179 1872.05 722.179 Q1875.68 722.179 1877.49 718.638 Q1879.32 715.073 1879.32 707.967 Q1879.32 700.837 1877.49 697.295 Q1875.68 693.731 1872.05 693.731 M1872.05 690.027 Q1877.86 690.027 1880.92 694.633 Q1883.99 699.217 1883.99 707.967 Q1883.99 716.693 1880.92 721.3 Q1877.86 725.883 1872.05 725.883 Q1866.24 725.883 1863.16 721.3 Q1860.11 716.693 1860.11 707.967 Q1860.11 699.217 1863.16 694.633 Q1866.24 690.027 1872.05 690.027 Z" fill="#000000" fill-rule="nonzero" fill-opacity="1" /><path clip-path="url(#clip550)" d="M1892.21 719.332 L1897.1 719.332 L1897.1 725.212 L1892.21 725.212 L1892.21 719.332 Z" fill="#000000" fill-rule="nonzero" fill-opacity="1" /><path clip-path="url(#clip550)" d="M1907.33 690.652 L1925.68 690.652 L1925.68 694.587 L1911.61 694.587 L1911.61 703.059 Q1912.63 702.712 1913.65 702.55 Q1914.67 702.365 1915.68 702.365 Q1921.47 702.365 1924.85 705.536 Q1928.23 708.707 1928.23 714.124 Q1928.23 719.703 1924.76 722.804 Q1921.29 725.883 1914.97 725.883 Q1912.79 725.883 1910.52 725.513 Q1908.28 725.142 1905.87 724.402 L1905.87 719.703 Q1907.95 720.837 1910.18 721.392 Q1912.4 721.948 1914.87 721.948 Q1918.88 721.948 1921.22 719.842 Q1923.55 717.735 1923.55 714.124 Q1923.55 710.513 1921.22 708.406 Q1918.88 706.3 1914.87 706.3 Q1913 706.3 1911.12 706.717 Q1909.27 707.133 1907.33 708.013 L1907.33 690.652 Z" fill="#000000" fill-rule="nonzero" fill-opacity="1" /><path clip-path="url(#clip550)" d="M1947.44 693.731 Q1943.83 693.731 1942 697.295 Q1940.2 700.837 1940.2 707.967 Q1940.2 715.073 1942 718.638 Q1943.83 722.179 1947.44 722.179 Q1951.08 722.179 1952.88 718.638 Q1954.71 715.073 1954.71 707.967 Q1954.71 700.837 1952.88 697.295 Q1951.08 693.731 1947.44 693.731 M1947.44 690.027 Q1953.25 690.027 1956.31 694.633 Q1959.39 699.217 1959.39 707.967 Q1959.39 716.693 1956.31 721.3 Q1953.25 725.883 1947.44 725.883 Q1941.63 725.883 1938.55 721.3 Q1935.5 716.693 1935.5 707.967 Q1935.5 699.217 1938.55 694.633 Q1941.63 690.027 1947.44 690.027 Z" fill="#000000" fill-rule="nonzero" fill-opacity="1" /><path clip-path="url(#clip550)" d="M2081.51 693.731 Q2077.9 693.731 2076.07 697.295 Q2074.27 700.837 2074.27 707.967 Q2074.27 715.073 2076.07 718.638 Q2077.9 722.179 2081.51 722.179 Q2085.15 722.179 2086.95 718.638 Q2088.78 715.073 2088.78 707.967 Q2088.78 700.837 2086.95 697.295 Q2085.15 693.731 2081.51 693.731 M2081.51 690.027 Q2087.32 690.027 2090.38 694.633 Q2093.46 699.217 2093.46 707.967 Q2093.46 716.693 2090.38 721.3 Q2087.32 725.883 2081.51 725.883 Q2075.7 725.883 2072.63 721.3 Q2069.57 716.693 2069.57 707.967 Q2069.57 699.217 2072.63 694.633 Q2075.7 690.027 2081.51 690.027 Z" fill="#000000" fill-rule="nonzero" fill-opacity="1" /><path clip-path="url(#clip550)" d="M2101.68 719.332 L2106.56 719.332 L2106.56 725.212 L2101.68 725.212 L2101.68 719.332 Z" fill="#000000" fill-rule="nonzero" fill-opacity="1" /><path clip-path="url(#clip550)" d="M2115.57 690.652 L2137.79 690.652 L2137.79 692.643 L2125.24 725.212 L2120.36 725.212 L2132.16 694.587 L2115.57 694.587 L2115.57 690.652 Z" fill="#000000" fill-rule="nonzero" fill-opacity="1" /><path clip-path="url(#clip550)" d="M2146.95 690.652 L2165.31 690.652 L2165.31 694.587 L2151.24 694.587 L2151.24 703.059 Q2152.26 702.712 2153.27 702.55 Q2154.29 702.365 2155.31 702.365 Q2161.1 702.365 2164.48 705.536 Q2167.86 708.707 2167.86 714.124 Q2167.86 719.703 2164.38 722.804 Q2160.91 725.883 2154.59 725.883 Q2152.42 725.883 2150.15 725.513 Q2147.9 725.142 2145.5 724.402 L2145.5 719.703 Q2147.58 720.837 2149.8 721.392 Q2152.02 721.948 2154.5 721.948 Q2158.5 721.948 2160.84 719.842 Q2163.18 717.735 2163.18 714.124 Q2163.18 710.513 2160.84 708.406 Q2158.5 706.3 2154.5 706.3 Q2152.63 706.3 2150.75 706.717 Q2148.9 707.133 2146.95 708.013 L2146.95 690.652 Z" fill="#000000" fill-rule="nonzero" fill-opacity="1" /><path clip-path="url(#clip550)" d="M2279.75 721.277 L2287.39 721.277 L2287.39 694.911 L2279.08 696.578 L2279.08 692.319 L2287.34 690.652 L2292.02 690.652 L2292.02 721.277 L2299.66 721.277 L2299.66 725.212 L2279.75 725.212 L2279.75 721.277 Z" fill="#000000" fill-rule="nonzero" fill-opacity="1" /><path clip-path="url(#clip550)" d="M2309.1 719.332 L2313.99 719.332 L2313.99 725.212 L2309.1 725.212 L2309.1 719.332 Z" fill="#000000" fill-rule="nonzero" fill-opacity="1" /><path clip-path="url(#clip550)" d="M2334.17 693.731 Q2330.56 693.731 2328.73 697.295 Q2326.93 700.837 2326.93 707.967 Q2326.93 715.073 2328.73 718.638 Q2330.56 722.179 2334.17 722.179 Q2337.81 722.179 2339.61 718.638 Q2341.44 715.073 2341.44 707.967 Q2341.44 700.837 2339.61 697.295 Q2337.81 693.731 2334.17 693.731 M2334.17 690.027 Q2339.98 690.027 2343.04 694.633 Q2346.12 699.217 2346.12 707.967 Q2346.12 716.693 2343.04 721.3 Q2339.98 725.883 2334.17 725.883 Q2328.36 725.883 2325.28 721.3 Q2322.23 716.693 2322.23 707.967 Q2322.23 699.217 2325.28 694.633 Q2328.36 690.027 2334.17 690.027 Z" fill="#000000" fill-rule="nonzero" fill-opacity="1" /><path clip-path="url(#clip550)" d="M2364.33 693.731 Q2360.72 693.731 2358.9 697.295 Q2357.09 700.837 2357.09 707.967 Q2357.09 715.073 2358.9 718.638 Q2360.72 722.179 2364.33 722.179 Q2367.97 722.179 2369.77 718.638 Q2371.6 715.073 2371.6 707.967 Q2371.6 700.837 2369.77 697.295 Q2367.97 693.731 2364.33 693.731 M2364.33 690.027 Q2370.14 690.027 2373.2 694.633 Q2376.28 699.217 2376.28 707.967 Q2376.28 716.693 2373.2 721.3 Q2370.14 725.883 2364.33 725.883 Q2358.52 725.883 2355.45 721.3 Q2352.39 716.693 2352.39 707.967 Q2352.39 699.217 2355.45 694.633 Q2358.52 690.027 2364.33 690.027 Z" fill="#000000" fill-rule="nonzero" fill-opacity="1" /><path clip-path="url(#clip550)" d="M1908.89 760.883 L1908.89 770.085 L1919.86 770.085 L1919.86 774.222 L1908.89 774.222 L1908.89 791.815 Q1908.89 795.779 1909.96 796.907 Q1911.06 798.036 1914.39 798.036 L1919.86 798.036 L1919.86 802.492 L1914.39 802.492 Q1908.23 802.492 1905.88 800.206 Q1903.54 797.891 1903.54 791.815 L1903.54 774.222 L1899.63 774.222 L1899.63 770.085 L1903.54 770.085 L1903.54 760.883 L1908.89 760.883 Z" fill="#000000" fill-rule="nonzero" fill-opacity="1" /><polyline clip-path="url(#clip550)" style="stroke:#000000; stroke-linecap:round; stroke-linejoin:round; stroke-width:4; stroke-opacity:1; fill:none" points="1466.74,662.812 1466.74,108.352 "/>
<polyline clip-path="url(#clip550)" style="stroke:#000000; stroke-linecap:round; stroke-linejoin:round; stroke-width:4; stroke-opacity:1; fill:none" points="1466.74,559.231 1485.64,559.231 "/>
<polyline clip-path="url(#clip550)" style="stroke:#000000; stroke-linecap:round; stroke-linejoin:round; stroke-width:4; stroke-opacity:1; fill:none" points="1466.74,428.462 1485.64,428.462 "/>
<polyline clip-path="url(#clip550)" style="stroke:#000000; stroke-linecap:round; stroke-linejoin:round; stroke-width:4; stroke-opacity:1; fill:none" points="1466.74,297.693 1485.64,297.693 "/>
<polyline clip-path="url(#clip550)" style="stroke:#000000; stroke-linecap:round; stroke-linejoin:round; stroke-width:4; stroke-opacity:1; fill:none" points="1466.74,166.924 1485.64,166.924 "/>
<path clip-path="url(#clip550)" d="M1344.4 545.029 Q1340.79 545.029 1338.96 548.594 Q1337.15 552.136 1337.15 559.265 Q1337.15 566.372 1338.96 569.937 Q1340.79 573.478 1344.4 573.478 Q1348.03 573.478 1349.84 569.937 Q1351.66 566.372 1351.66 559.265 Q1351.66 552.136 1349.84 548.594 Q1348.03 545.029 1344.4 545.029 M1344.4 541.326 Q1350.21 541.326 1353.26 545.932 Q1356.34 550.516 1356.34 559.265 Q1356.34 567.992 1353.26 572.599 Q1350.21 577.182 1344.4 577.182 Q1338.59 577.182 1335.51 572.599 Q1332.45 567.992 1332.45 559.265 Q1332.45 550.516 1335.51 545.932 Q1338.59 541.326 1344.4 541.326 Z" fill="#000000" fill-rule="nonzero" fill-opacity="1" /><path clip-path="url(#clip550)" d="M1364.56 570.631 L1369.44 570.631 L1369.44 576.511 L1364.56 576.511 L1364.56 570.631 Z" fill="#000000" fill-rule="nonzero" fill-opacity="1" /><path clip-path="url(#clip550)" d="M1378.45 541.951 L1400.67 541.951 L1400.67 543.941 L1388.12 576.511 L1383.24 576.511 L1395.04 545.886 L1378.45 545.886 L1378.45 541.951 Z" fill="#000000" fill-rule="nonzero" fill-opacity="1" /><path clip-path="url(#clip550)" d="M1409.84 541.951 L1428.19 541.951 L1428.19 545.886 L1414.12 545.886 L1414.12 554.358 Q1415.14 554.011 1416.16 553.849 Q1417.17 553.664 1418.19 553.664 Q1423.98 553.664 1427.36 556.835 Q1430.74 560.006 1430.74 565.423 Q1430.74 571.002 1427.27 574.103 Q1423.79 577.182 1417.47 577.182 Q1415.3 577.182 1413.03 576.812 Q1410.78 576.441 1408.38 575.701 L1408.38 571.002 Q1410.46 572.136 1412.68 572.691 Q1414.91 573.247 1417.38 573.247 Q1421.39 573.247 1423.72 571.14 Q1426.06 569.034 1426.06 565.423 Q1426.06 561.812 1423.72 559.705 Q1421.39 557.599 1417.38 557.599 Q1415.51 557.599 1413.63 558.015 Q1411.78 558.432 1409.84 559.312 L1409.84 541.951 Z" fill="#000000" fill-rule="nonzero" fill-opacity="1" /><path clip-path="url(#clip550)" d="M1334.21 441.807 L1341.85 441.807 L1341.85 415.441 L1333.54 417.108 L1333.54 412.849 L1341.8 411.182 L1346.48 411.182 L1346.48 441.807 L1354.12 441.807 L1354.12 445.742 L1334.21 445.742 L1334.21 441.807 Z" fill="#000000" fill-rule="nonzero" fill-opacity="1" /><path clip-path="url(#clip550)" d="M1363.56 439.862 L1368.45 439.862 L1368.45 445.742 L1363.56 445.742 L1363.56 439.862 Z" fill="#000000" fill-rule="nonzero" fill-opacity="1" /><path clip-path="url(#clip550)" d="M1388.63 414.261 Q1385.02 414.261 1383.19 417.825 Q1381.39 421.367 1381.39 428.497 Q1381.39 435.603 1383.19 439.168 Q1385.02 442.71 1388.63 442.71 Q1392.27 442.71 1394.07 439.168 Q1395.9 435.603 1395.9 428.497 Q1395.9 421.367 1394.07 417.825 Q1392.27 414.261 1388.63 414.261 M1388.63 410.557 Q1394.44 410.557 1397.5 415.163 Q1400.58 419.747 1400.58 428.497 Q1400.58 437.223 1397.5 441.83 Q1394.44 446.413 1388.63 446.413 Q1382.82 446.413 1379.74 441.83 Q1376.69 437.223 1376.69 428.497 Q1376.69 419.747 1379.74 415.163 Q1382.82 410.557 1388.63 410.557 Z" fill="#000000" fill-rule="nonzero" fill-opacity="1" /><path clip-path="url(#clip550)" d="M1418.79 414.261 Q1415.18 414.261 1413.35 417.825 Q1411.55 421.367 1411.55 428.497 Q1411.55 435.603 1413.35 439.168 Q1415.18 442.71 1418.79 442.71 Q1422.43 442.71 1424.23 439.168 Q1426.06 435.603 1426.06 428.497 Q1426.06 421.367 1424.23 417.825 Q1422.43 414.261 1418.79 414.261 M1418.79 410.557 Q1424.6 410.557 1427.66 415.163 Q1430.74 419.747 1430.74 428.497 Q1430.74 437.223 1427.66 441.83 Q1424.6 446.413 1418.79 446.413 Q1412.98 446.413 1409.91 441.83 Q1406.85 437.223 1406.85 428.497 Q1406.85 419.747 1409.91 415.163 Q1412.98 410.557 1418.79 410.557 Z" fill="#000000" fill-rule="nonzero" fill-opacity="1" /><path clip-path="url(#clip550)" d="M1335.21 311.038 L1342.85 311.038 L1342.85 284.672 L1334.54 286.339 L1334.54 282.08 L1342.8 280.413 L1347.47 280.413 L1347.47 311.038 L1355.11 311.038 L1355.11 314.973 L1335.21 314.973 L1335.21 311.038 Z" fill="#000000" fill-rule="nonzero" fill-opacity="1" /><path clip-path="url(#clip550)" d="M1364.56 309.094 L1369.44 309.094 L1369.44 314.973 L1364.56 314.973 L1364.56 309.094 Z" fill="#000000" fill-rule="nonzero" fill-opacity="1" /><path clip-path="url(#clip550)" d="M1383.66 311.038 L1399.97 311.038 L1399.97 314.973 L1378.03 314.973 L1378.03 311.038 Q1380.69 308.283 1385.28 303.654 Q1389.88 299.001 1391.06 297.658 Q1393.31 295.135 1394.19 293.399 Q1395.09 291.64 1395.09 289.95 Q1395.09 287.196 1393.15 285.459 Q1391.22 283.723 1388.12 283.723 Q1385.92 283.723 1383.47 284.487 Q1381.04 285.251 1378.26 286.802 L1378.26 282.08 Q1381.09 280.946 1383.54 280.367 Q1385.99 279.788 1388.03 279.788 Q1393.4 279.788 1396.59 282.473 Q1399.79 285.159 1399.79 289.649 Q1399.79 291.779 1398.98 293.7 Q1398.19 295.598 1396.09 298.191 Q1395.51 298.862 1392.41 302.08 Q1389.3 305.274 1383.66 311.038 Z" fill="#000000" fill-rule="nonzero" fill-opacity="1" /><path clip-path="url(#clip550)" d="M1409.84 280.413 L1428.19 280.413 L1428.19 284.348 L1414.12 284.348 L1414.12 292.821 Q1415.14 292.473 1416.16 292.311 Q1417.17 292.126 1418.19 292.126 Q1423.98 292.126 1427.36 295.297 Q1430.74 298.469 1430.74 303.885 Q1430.74 309.464 1427.27 312.566 Q1423.79 315.644 1417.47 315.644 Q1415.3 315.644 1413.03 315.274 Q1410.78 314.904 1408.38 314.163 L1408.38 309.464 Q1410.46 310.598 1412.68 311.154 Q1414.91 311.709 1417.38 311.709 Q1421.39 311.709 1423.72 309.603 Q1426.06 307.496 1426.06 303.885 Q1426.06 300.274 1423.72 298.168 Q1421.39 296.061 1417.38 296.061 Q1415.51 296.061 1413.63 296.478 Q1411.78 296.895 1409.84 297.774 L1409.84 280.413 Z" fill="#000000" fill-rule="nonzero" fill-opacity="1" /><path clip-path="url(#clip550)" d="M1334.21 180.269 L1341.85 180.269 L1341.85 153.904 L1333.54 155.57 L1333.54 151.311 L1341.8 149.644 L1346.48 149.644 L1346.48 180.269 L1354.12 180.269 L1354.12 184.204 L1334.21 184.204 L1334.21 180.269 Z" fill="#000000" fill-rule="nonzero" fill-opacity="1" /><path clip-path="url(#clip550)" d="M1363.56 178.325 L1368.45 178.325 L1368.45 184.204 L1363.56 184.204 L1363.56 178.325 Z" fill="#000000" fill-rule="nonzero" fill-opacity="1" /><path clip-path="url(#clip550)" d="M1378.68 149.644 L1397.03 149.644 L1397.03 153.58 L1382.96 153.58 L1382.96 162.052 Q1383.98 161.704 1385 161.542 Q1386.02 161.357 1387.03 161.357 Q1392.82 161.357 1396.2 164.529 Q1399.58 167.7 1399.58 173.116 Q1399.58 178.695 1396.11 181.797 Q1392.64 184.876 1386.32 184.876 Q1384.14 184.876 1381.87 184.505 Q1379.63 184.135 1377.22 183.394 L1377.22 178.695 Q1379.3 179.829 1381.53 180.385 Q1383.75 180.94 1386.22 180.94 Q1390.23 180.94 1392.57 178.834 Q1394.91 176.728 1394.91 173.116 Q1394.91 169.505 1392.57 167.399 Q1390.23 165.292 1386.22 165.292 Q1384.35 165.292 1382.47 165.709 Q1380.62 166.126 1378.68 167.005 L1378.68 149.644 Z" fill="#000000" fill-rule="nonzero" fill-opacity="1" /><path clip-path="url(#clip550)" d="M1418.79 152.723 Q1415.18 152.723 1413.35 156.288 Q1411.55 159.829 1411.55 166.959 Q1411.55 174.066 1413.35 177.63 Q1415.18 181.172 1418.79 181.172 Q1422.43 181.172 1424.23 177.63 Q1426.06 174.066 1426.06 166.959 Q1426.06 159.829 1424.23 156.288 Q1422.43 152.723 1418.79 152.723 M1418.79 149.019 Q1424.6 149.019 1427.66 153.626 Q1430.74 158.209 1430.74 166.959 Q1430.74 175.686 1427.66 180.292 Q1424.6 184.876 1418.79 184.876 Q1412.98 184.876 1409.91 180.292 Q1406.85 175.686 1406.85 166.959 Q1406.85 158.209 1409.91 153.626 Q1412.98 149.019 1418.79 149.019 Z" fill="#000000" fill-rule="nonzero" fill-opacity="1" /><path clip-path="url(#clip550)" d="M1829.12 20.677 L1829.12 25.6538 Q1826.86 24.4096 1824.58 23.802 Q1822.32 23.1654 1820.01 23.1654 Q1814.83 23.1654 1811.96 26.464 Q1809.1 29.7336 1809.1 35.6653 Q1809.1 41.597 1811.96 44.8956 Q1814.83 48.1653 1820.01 48.1653 Q1822.32 48.1653 1824.58 47.5576 Q1826.86 46.921 1829.12 45.6768 L1829.12 50.5958 Q1826.89 51.6375 1824.49 52.1583 Q1822.12 52.6791 1819.43 52.6791 Q1812.11 52.6791 1807.79 48.0784 Q1803.48 43.4778 1803.48 35.6653 Q1803.48 27.7371 1807.82 23.1943 Q1812.19 18.6515 1819.77 18.6515 Q1822.23 18.6515 1824.58 19.1724 Q1826.92 19.6642 1829.12 20.677 Z" fill="#000000" fill-rule="nonzero" fill-opacity="1" /><path clip-path="url(#clip550)" d="M1850.94 23.1654 Q1846.65 23.1654 1844.17 26.5218 Q1841.68 29.8494 1841.68 35.6653 Q1841.68 41.4813 1844.14 44.8377 Q1846.63 48.1653 1850.94 48.1653 Q1855.19 48.1653 1857.68 44.8088 Q1860.17 41.4523 1860.17 35.6653 Q1860.17 29.9072 1857.68 26.5508 Q1855.19 23.1654 1850.94 23.1654 M1850.94 18.6515 Q1857.88 18.6515 1861.85 23.1654 Q1865.81 27.6792 1865.81 35.6653 Q1865.81 43.6225 1861.85 48.1653 Q1857.88 52.6791 1850.94 52.6791 Q1843.96 52.6791 1840 48.1653 Q1836.06 43.6225 1836.06 35.6653 Q1836.06 27.6792 1840 23.1654 Q1843.96 18.6515 1850.94 18.6515 Z" fill="#000000" fill-rule="nonzero" fill-opacity="1" /><path clip-path="url(#clip550)" d="M1895.29 20.3876 L1895.29 25.4223 Q1893.04 24.2649 1890.61 23.6862 Q1888.18 23.1075 1885.57 23.1075 Q1881.61 23.1075 1879.61 24.3228 Q1877.64 25.5381 1877.64 27.9686 Q1877.64 29.8204 1879.06 30.891 Q1880.48 31.9327 1884.76 32.8876 L1886.58 33.2926 Q1892.26 34.5079 1894.63 36.7359 Q1897.03 38.935 1897.03 42.8991 Q1897.03 47.4129 1893.44 50.046 Q1889.88 52.6791 1883.63 52.6791 Q1881.03 52.6791 1878.19 52.1583 Q1875.39 51.6664 1872.26 50.6537 L1872.26 45.156 Q1875.21 46.6896 1878.08 47.4708 Q1880.94 48.2231 1883.75 48.2231 Q1887.51 48.2231 1889.54 46.95 Q1891.56 45.6479 1891.56 43.3042 Q1891.56 41.134 1890.09 39.9766 Q1888.64 38.8192 1883.69 37.7486 L1881.84 37.3146 Q1876.89 36.273 1874.69 34.1318 Q1872.49 31.9616 1872.49 28.2001 Q1872.49 23.6283 1875.73 21.1399 Q1878.97 18.6515 1884.94 18.6515 Q1887.89 18.6515 1890.49 19.0855 Q1893.1 19.5196 1895.29 20.3876 Z" fill="#000000" fill-rule="nonzero" fill-opacity="1" /><path clip-path="url(#clip550)" d="M1910.77 10.2314 L1910.77 19.4328 L1921.74 19.4328 L1921.74 23.5705 L1910.77 23.5705 L1910.77 41.163 Q1910.77 45.1271 1911.84 46.2555 Q1912.94 47.384 1916.27 47.384 L1921.74 47.384 L1921.74 51.84 L1916.27 51.84 Q1910.11 51.84 1907.77 49.5541 Q1905.42 47.2393 1905.42 41.163 L1905.42 23.5705 L1901.52 23.5705 L1901.52 19.4328 L1905.42 19.4328 L1905.42 10.2314 L1910.77 10.2314 Z" fill="#000000" fill-rule="nonzero" fill-opacity="1" /><path clip-path="url(#clip550)" d="M1943.47 35.5496 Q1937.02 35.5496 1934.53 37.0253 Q1932.04 38.501 1932.04 42.06 Q1932.04 44.8956 1933.89 46.5738 Q1935.77 48.2231 1938.99 48.2231 Q1943.41 48.2231 1946.08 45.0981 Q1948.77 41.9442 1948.77 36.7359 L1948.77 35.5496 L1943.47 35.5496 M1954.09 33.3505 L1954.09 51.84 L1948.77 51.84 L1948.77 46.921 Q1946.94 49.8724 1944.22 51.2902 Q1941.5 52.6791 1937.57 52.6791 Q1932.59 52.6791 1929.64 49.9014 Q1926.72 47.0947 1926.72 42.4072 Q1926.72 36.9385 1930.36 34.1607 Q1934.04 31.3829 1941.3 31.3829 L1948.77 31.3829 L1948.77 30.8621 Q1948.77 27.1874 1946.34 25.1908 Q1943.93 23.1654 1939.56 23.1654 Q1936.79 23.1654 1934.15 23.8309 Q1931.52 24.4964 1929.09 25.8274 L1929.09 20.9085 Q1932.01 19.78 1934.76 19.2302 Q1937.51 18.6515 1940.11 18.6515 Q1947.15 18.6515 1950.62 22.2973 Q1954.09 25.9431 1954.09 33.3505 Z" fill="#000000" fill-rule="nonzero" fill-opacity="1" /><path clip-path="url(#clip550)" d="M1970.32 10.2314 L1970.32 19.4328 L1981.29 19.4328 L1981.29 23.5705 L1970.32 23.5705 L1970.32 41.163 Q1970.32 45.1271 1971.39 46.2555 Q1972.49 47.384 1975.82 47.384 L1981.29 47.384 L1981.29 51.84 L1975.82 51.84 Q1969.66 51.84 1967.31 49.5541 Q1964.97 47.2393 1964.97 41.163 L1964.97 23.5705 L1961.06 23.5705 L1961.06 19.4328 L1964.97 19.4328 L1964.97 10.2314 L1970.32 10.2314 Z" fill="#000000" fill-rule="nonzero" fill-opacity="1" /><path clip-path="url(#clip550)" d="M2016.01 34.3054 L2016.01 36.9095 L1991.53 36.9095 Q1991.88 42.4072 1994.83 45.3007 Q1997.81 48.1653 2003.11 48.1653 Q2006.17 48.1653 2009.04 47.4129 Q2011.93 46.6606 2014.77 45.156 L2014.77 50.1907 Q2011.9 51.406 2008.89 52.0425 Q2005.88 52.6791 2002.79 52.6791 Q1995.03 52.6791 1990.49 48.1653 Q1985.98 43.6514 1985.98 35.9547 Q1985.98 27.9975 1990.26 23.339 Q1994.57 18.6515 2001.86 18.6515 Q2008.4 18.6515 2012.19 22.876 Q2016.01 27.0716 2016.01 34.3054 M2010.69 32.7429 Q2010.63 28.3737 2008.23 25.7695 Q2005.85 23.1654 2001.92 23.1654 Q1997.46 23.1654 1994.77 25.6827 Q1992.11 28.2001 1991.71 32.7718 L2010.69 32.7429 Z" fill="#000000" fill-rule="nonzero" fill-opacity="1" /><polyline clip-path="url(#clip553)" style="stroke:#000000; stroke-linecap:round; stroke-linejoin:round; stroke-width:4; stroke-opacity:1; fill:none" stroke-dasharray="16, 10" points="1491.81,1217.27 1491.81,-446.108 "/>
<polyline clip-path="url(#clip553)" style="stroke:#000000; stroke-linecap:round; stroke-linejoin:round; stroke-width:4; stroke-opacity:1; fill:none" stroke-dasharray="16, 10" points="2327.68,1217.27 2327.68,-446.108 "/>
<polyline clip-path="url(#clip553)" style="stroke:#009af9; stroke-linecap:round; stroke-linejoin:round; stroke-width:8; stroke-opacity:1; fill:none" points="1491.81,647.12 1495.47,645.783 1504.38,642.509 1516.01,638.18 1529.97,632.9 1546.39,626.579 1564.94,619.286 1585.48,611.024 1607.7,601.847 1631.42,591.785 1656.37,580.882 1682.38,569.167 1709.27,556.669 1736.87,543.411 1765.07,529.409 1793.74,514.675 1822.81,499.214 1852.2,483.028 1881.84,466.116 1911.69,448.471 1941.69,430.084 1942.21,429.76 1942.63,429.501 1942.96,429.293 1943.23,429.127 1943.44,428.994 1943.61,428.888 1943.74,428.803 1943.85,428.734 1943.94,428.68 1944.01,428.636 1944.07,428.602 1944.11,428.574 1944.15,428.551 1944.17,428.533 1944.2,428.519 1944.22,428.508 1944.23,428.499 1944.24,428.491 1944.25,428.485 1944.26,428.481 1944.27,428.477 1944.27,428.474 1944.27,428.472 1944.28,428.47 1944.28,428.468 1944.28,428.467 1944.28,428.466 1944.28,428.465 1944.29,428.464 1944.29,428.464 1944.29,428.463 1944.29,428.463 1944.29,428.463 1944.29,428.462 1944.29,428.462 1944.29,428.462 1944.29,428.462 1944.29,428.462 1944.29,428.462 1944.29,428.462 1944.29,428.462 1944.29,428.462 1944.29,428.462 1944.29,428.462 1944.29,428.462 1944.29,428.462 1944.29,428.462 1944.29,428.462 1944.29,428.462 1944.29,428.462 1944.29,428.462 1944.29,428.462 1944.29,428.462 1944.29,428.459 1944.33,428.436 1944.71,428.199 1948.5,425.822 1956.78,420.586 1967.26,413.89 1979.94,405.666 1994.71,395.941 2011.38,384.747 2029.75,372.151 2049.61,358.223 2070.73,343.037 2092.93,326.661 2116.02,309.158 2139.85,290.581 2164.28,270.975 2189.21,250.374 2214.53,228.807 2240.18,206.291 2266.07,182.839 2292.18,158.456 2318.44,133.144 2327.68,124.044 "/>
<path clip-path="url(#clip550)" d="M316.702 1502.81 L2352.76 1502.81 L2352.76 948.352 L316.702 948.352  Z" fill="#ffffff" fill-rule="evenodd" fill-opacity="1"/>
<defs>
  <clipPath id="clip554">
    <rect x="316" y="948" width="2037" height="555"/>
  </clipPath>
</defs>
<polyline clip-path="url(#clip554)" style="stroke:#000000; stroke-linecap:round; stroke-linejoin:round; stroke-width:2; stroke-opacity:0.1; fill:none" points="374.326,1502.81 374.326,948.352 "/>
<polyline clip-path="url(#clip554)" style="stroke:#000000; stroke-linecap:round; stroke-linejoin:round; stroke-width:2; stroke-opacity:0.1; fill:none" points="854.528,1502.81 854.528,948.352 "/>
<polyline clip-path="url(#clip554)" style="stroke:#000000; stroke-linecap:round; stroke-linejoin:round; stroke-width:2; stroke-opacity:0.1; fill:none" points="1334.73,1502.81 1334.73,948.352 "/>
<polyline clip-path="url(#clip554)" style="stroke:#000000; stroke-linecap:round; stroke-linejoin:round; stroke-width:2; stroke-opacity:0.1; fill:none" points="1814.93,1502.81 1814.93,948.352 "/>
<polyline clip-path="url(#clip554)" style="stroke:#000000; stroke-linecap:round; stroke-linejoin:round; stroke-width:2; stroke-opacity:0.1; fill:none" points="2295.13,1502.81 2295.13,948.352 "/>
<polyline clip-path="url(#clip554)" style="stroke:#000000; stroke-linecap:round; stroke-linejoin:round; stroke-width:2; stroke-opacity:0.1; fill:none" points="316.702,1487.12 2352.76,1487.12 "/>
<polyline clip-path="url(#clip554)" style="stroke:#000000; stroke-linecap:round; stroke-linejoin:round; stroke-width:2; stroke-opacity:0.1; fill:none" points="316.702,1356.35 2352.76,1356.35 "/>
<polyline clip-path="url(#clip554)" style="stroke:#000000; stroke-linecap:round; stroke-linejoin:round; stroke-width:2; stroke-opacity:0.1; fill:none" points="316.702,1225.58 2352.76,1225.58 "/>
<polyline clip-path="url(#clip554)" style="stroke:#000000; stroke-linecap:round; stroke-linejoin:round; stroke-width:2; stroke-opacity:0.1; fill:none" points="316.702,1094.81 2352.76,1094.81 "/>
<polyline clip-path="url(#clip554)" style="stroke:#000000; stroke-linecap:round; stroke-linejoin:round; stroke-width:2; stroke-opacity:0.1; fill:none" points="316.702,964.044 2352.76,964.044 "/>
<polyline clip-path="url(#clip550)" style="stroke:#000000; stroke-linecap:round; stroke-linejoin:round; stroke-width:4; stroke-opacity:1; fill:none" points="316.702,1502.81 2352.76,1502.81 "/>
<polyline clip-path="url(#clip550)" style="stroke:#000000; stroke-linecap:round; stroke-linejoin:round; stroke-width:4; stroke-opacity:1; fill:none" points="374.326,1502.81 374.326,1483.91 "/>
<polyline clip-path="url(#clip550)" style="stroke:#000000; stroke-linecap:round; stroke-linejoin:round; stroke-width:4; stroke-opacity:1; fill:none" points="854.528,1502.81 854.528,1483.91 "/>
<polyline clip-path="url(#clip550)" style="stroke:#000000; stroke-linecap:round; stroke-linejoin:round; stroke-width:4; stroke-opacity:1; fill:none" points="1334.73,1502.81 1334.73,1483.91 "/>
<polyline clip-path="url(#clip550)" style="stroke:#000000; stroke-linecap:round; stroke-linejoin:round; stroke-width:4; stroke-opacity:1; fill:none" points="1814.93,1502.81 1814.93,1483.91 "/>
<polyline clip-path="url(#clip550)" style="stroke:#000000; stroke-linecap:round; stroke-linejoin:round; stroke-width:4; stroke-opacity:1; fill:none" points="2295.13,1502.81 2295.13,1483.91 "/>
<path clip-path="url(#clip550)" d="M336.63 1533.73 Q333.018 1533.73 331.19 1537.3 Q329.384 1540.84 329.384 1547.97 Q329.384 1555.07 331.19 1558.64 Q333.018 1562.18 336.63 1562.18 Q340.264 1562.18 342.069 1558.64 Q343.898 1555.07 343.898 1547.97 Q343.898 1540.84 342.069 1537.3 Q340.264 1533.73 336.63 1533.73 M336.63 1530.03 Q342.44 1530.03 345.495 1534.63 Q348.574 1539.22 348.574 1547.97 Q348.574 1556.69 345.495 1561.3 Q342.44 1565.88 336.63 1565.88 Q330.819 1565.88 327.741 1561.3 Q324.685 1556.69 324.685 1547.97 Q324.685 1539.22 327.741 1534.63 Q330.819 1530.03 336.63 1530.03 Z" fill="#000000" fill-rule="nonzero" fill-opacity="1" /><path clip-path="url(#clip550)" d="M356.792 1559.33 L361.676 1559.33 L361.676 1565.21 L356.792 1565.21 L356.792 1559.33 Z" fill="#000000" fill-rule="nonzero" fill-opacity="1" /><path clip-path="url(#clip550)" d="M381.861 1533.73 Q378.25 1533.73 376.421 1537.3 Q374.615 1540.84 374.615 1547.97 Q374.615 1555.07 376.421 1558.64 Q378.25 1562.18 381.861 1562.18 Q385.495 1562.18 387.301 1558.64 Q389.129 1555.07 389.129 1547.97 Q389.129 1540.84 387.301 1537.3 Q385.495 1533.73 381.861 1533.73 M381.861 1530.03 Q387.671 1530.03 390.727 1534.63 Q393.805 1539.22 393.805 1547.97 Q393.805 1556.69 390.727 1561.3 Q387.671 1565.88 381.861 1565.88 Q376.051 1565.88 372.972 1561.3 Q369.916 1556.69 369.916 1547.97 Q369.916 1539.22 372.972 1534.63 Q376.051 1530.03 381.861 1530.03 Z" fill="#000000" fill-rule="nonzero" fill-opacity="1" /><path clip-path="url(#clip550)" d="M412.023 1533.73 Q408.412 1533.73 406.583 1537.3 Q404.777 1540.84 404.777 1547.97 Q404.777 1555.07 406.583 1558.64 Q408.412 1562.18 412.023 1562.18 Q415.657 1562.18 417.462 1558.64 Q419.291 1555.07 419.291 1547.97 Q419.291 1540.84 417.462 1537.3 Q415.657 1533.73 412.023 1533.73 M412.023 1530.03 Q417.833 1530.03 420.888 1534.63 Q423.967 1539.22 423.967 1547.97 Q423.967 1556.69 420.888 1561.3 Q417.833 1565.88 412.023 1565.88 Q406.213 1565.88 403.134 1561.3 Q400.078 1556.69 400.078 1547.97 Q400.078 1539.22 403.134 1534.63 Q406.213 1530.03 412.023 1530.03 Z" fill="#000000" fill-rule="nonzero" fill-opacity="1" /><path clip-path="url(#clip550)" d="M817.329 1533.73 Q813.718 1533.73 811.889 1537.3 Q810.083 1540.84 810.083 1547.97 Q810.083 1555.07 811.889 1558.64 Q813.718 1562.18 817.329 1562.18 Q820.963 1562.18 822.768 1558.64 Q824.597 1555.07 824.597 1547.97 Q824.597 1540.84 822.768 1537.3 Q820.963 1533.73 817.329 1533.73 M817.329 1530.03 Q823.139 1530.03 826.194 1534.63 Q829.273 1539.22 829.273 1547.97 Q829.273 1556.69 826.194 1561.3 Q823.139 1565.88 817.329 1565.88 Q811.519 1565.88 808.44 1561.3 Q805.384 1556.69 805.384 1547.97 Q805.384 1539.22 808.44 1534.63 Q811.519 1530.03 817.329 1530.03 Z" fill="#000000" fill-rule="nonzero" fill-opacity="1" /><path clip-path="url(#clip550)" d="M837.491 1559.33 L842.375 1559.33 L842.375 1565.21 L837.491 1565.21 L837.491 1559.33 Z" fill="#000000" fill-rule="nonzero" fill-opacity="1" /><path clip-path="url(#clip550)" d="M856.588 1561.28 L872.907 1561.28 L872.907 1565.21 L850.963 1565.21 L850.963 1561.28 Q853.625 1558.52 858.208 1553.89 Q862.815 1549.24 863.995 1547.9 Q866.24 1545.37 867.12 1543.64 Q868.023 1541.88 868.023 1540.19 Q868.023 1537.43 866.078 1535.7 Q864.157 1533.96 861.055 1533.96 Q858.856 1533.96 856.403 1534.73 Q853.972 1535.49 851.194 1537.04 L851.194 1532.32 Q854.018 1531.18 856.472 1530.61 Q858.926 1530.03 860.963 1530.03 Q866.333 1530.03 869.527 1532.71 Q872.722 1535.4 872.722 1539.89 Q872.722 1542.02 871.912 1543.94 Q871.125 1545.84 869.018 1548.43 Q868.439 1549.1 865.338 1552.32 Q862.236 1555.51 856.588 1561.28 Z" fill="#000000" fill-rule="nonzero" fill-opacity="1" /><path clip-path="url(#clip550)" d="M882.768 1530.65 L901.125 1530.65 L901.125 1534.59 L887.051 1534.59 L887.051 1543.06 Q888.069 1542.71 889.088 1542.55 Q890.106 1542.36 891.125 1542.36 Q896.912 1542.36 900.291 1545.54 Q903.671 1548.71 903.671 1554.12 Q903.671 1559.7 900.199 1562.8 Q896.726 1565.88 890.407 1565.88 Q888.231 1565.88 885.963 1565.51 Q883.717 1565.14 881.31 1564.4 L881.31 1559.7 Q883.393 1560.84 885.615 1561.39 Q887.838 1561.95 890.314 1561.95 Q894.319 1561.95 896.657 1559.84 Q898.995 1557.74 898.995 1554.12 Q898.995 1550.51 896.657 1548.41 Q894.319 1546.3 890.314 1546.3 Q888.439 1546.3 886.564 1546.72 Q884.713 1547.13 882.768 1548.01 L882.768 1530.65 Z" fill="#000000" fill-rule="nonzero" fill-opacity="1" /><path clip-path="url(#clip550)" d="M1297.03 1533.73 Q1293.42 1533.73 1291.59 1537.3 Q1289.79 1540.84 1289.79 1547.97 Q1289.79 1555.07 1291.59 1558.64 Q1293.42 1562.18 1297.03 1562.18 Q1300.67 1562.18 1302.47 1558.64 Q1304.3 1555.07 1304.3 1547.97 Q1304.3 1540.84 1302.47 1537.3 Q1300.67 1533.73 1297.03 1533.73 M1297.03 1530.03 Q1302.84 1530.03 1305.9 1534.63 Q1308.98 1539.22 1308.98 1547.97 Q1308.98 1556.69 1305.9 1561.3 Q1302.84 1565.88 1297.03 1565.88 Q1291.22 1565.88 1288.14 1561.3 Q1285.09 1556.69 1285.09 1547.97 Q1285.09 1539.22 1288.14 1534.63 Q1291.22 1530.03 1297.03 1530.03 Z" fill="#000000" fill-rule="nonzero" fill-opacity="1" /><path clip-path="url(#clip550)" d="M1317.19 1559.33 L1322.08 1559.33 L1322.08 1565.21 L1317.19 1565.21 L1317.19 1559.33 Z" fill="#000000" fill-rule="nonzero" fill-opacity="1" /><path clip-path="url(#clip550)" d="M1332.31 1530.65 L1350.67 1530.65 L1350.67 1534.59 L1336.59 1534.59 L1336.59 1543.06 Q1337.61 1542.71 1338.63 1542.55 Q1339.65 1542.36 1340.67 1542.36 Q1346.45 1542.36 1349.83 1545.54 Q1353.21 1548.71 1353.21 1554.12 Q1353.21 1559.7 1349.74 1562.8 Q1346.27 1565.88 1339.95 1565.88 Q1337.77 1565.88 1335.5 1565.51 Q1333.26 1565.14 1330.85 1564.4 L1330.85 1559.7 Q1332.93 1560.84 1335.16 1561.39 Q1337.38 1561.95 1339.86 1561.95 Q1343.86 1561.95 1346.2 1559.84 Q1348.54 1557.74 1348.54 1554.12 Q1348.54 1550.51 1346.2 1548.41 Q1343.86 1546.3 1339.86 1546.3 Q1337.98 1546.3 1336.11 1546.72 Q1334.25 1547.13 1332.31 1548.01 L1332.31 1530.65 Z" fill="#000000" fill-rule="nonzero" fill-opacity="1" /><path clip-path="url(#clip550)" d="M1372.43 1533.73 Q1368.81 1533.73 1366.99 1537.3 Q1365.18 1540.84 1365.18 1547.97 Q1365.18 1555.07 1366.99 1558.64 Q1368.81 1562.18 1372.43 1562.18 Q1376.06 1562.18 1377.87 1558.64 Q1379.69 1555.07 1379.69 1547.97 Q1379.69 1540.84 1377.87 1537.3 Q1376.06 1533.73 1372.43 1533.73 M1372.43 1530.03 Q1378.24 1530.03 1381.29 1534.63 Q1384.37 1539.22 1384.37 1547.97 Q1384.37 1556.69 1381.29 1561.3 Q1378.24 1565.88 1372.43 1565.88 Q1366.62 1565.88 1363.54 1561.3 Q1360.48 1556.69 1360.48 1547.97 Q1360.48 1539.22 1363.54 1534.63 Q1366.62 1530.03 1372.43 1530.03 Z" fill="#000000" fill-rule="nonzero" fill-opacity="1" /><path clip-path="url(#clip550)" d="M1777.73 1533.73 Q1774.12 1533.73 1772.29 1537.3 Q1770.49 1540.84 1770.49 1547.97 Q1770.49 1555.07 1772.29 1558.64 Q1774.12 1562.18 1777.73 1562.18 Q1781.37 1562.18 1783.17 1558.64 Q1785 1555.07 1785 1547.97 Q1785 1540.84 1783.17 1537.3 Q1781.37 1533.73 1777.73 1533.73 M1777.73 1530.03 Q1783.54 1530.03 1786.6 1534.63 Q1789.68 1539.22 1789.68 1547.97 Q1789.68 1556.69 1786.6 1561.3 Q1783.54 1565.88 1777.73 1565.88 Q1771.92 1565.88 1768.84 1561.3 Q1765.79 1556.69 1765.79 1547.97 Q1765.79 1539.22 1768.84 1534.63 Q1771.92 1530.03 1777.73 1530.03 Z" fill="#000000" fill-rule="nonzero" fill-opacity="1" /><path clip-path="url(#clip550)" d="M1797.89 1559.33 L1802.78 1559.33 L1802.78 1565.21 L1797.89 1565.21 L1797.89 1559.33 Z" fill="#000000" fill-rule="nonzero" fill-opacity="1" /><path clip-path="url(#clip550)" d="M1811.78 1530.65 L1834 1530.65 L1834 1532.64 L1821.46 1565.21 L1816.57 1565.21 L1828.38 1534.59 L1811.78 1534.59 L1811.78 1530.65 Z" fill="#000000" fill-rule="nonzero" fill-opacity="1" /><path clip-path="url(#clip550)" d="M1843.17 1530.65 L1861.53 1530.65 L1861.53 1534.59 L1847.45 1534.59 L1847.45 1543.06 Q1848.47 1542.71 1849.49 1542.55 Q1850.51 1542.36 1851.53 1542.36 Q1857.31 1542.36 1860.69 1545.54 Q1864.07 1548.71 1864.07 1554.12 Q1864.07 1559.7 1860.6 1562.8 Q1857.13 1565.88 1850.81 1565.88 Q1848.63 1565.88 1846.37 1565.51 Q1844.12 1565.14 1841.71 1564.4 L1841.71 1559.7 Q1843.8 1560.84 1846.02 1561.39 Q1848.24 1561.95 1850.72 1561.95 Q1854.72 1561.95 1857.06 1559.84 Q1859.4 1557.74 1859.4 1554.12 Q1859.4 1550.51 1857.06 1548.41 Q1854.72 1546.3 1850.72 1546.3 Q1848.84 1546.3 1846.97 1546.72 Q1845.12 1547.13 1843.17 1548.01 L1843.17 1530.65 Z" fill="#000000" fill-rule="nonzero" fill-opacity="1" /><path clip-path="url(#clip550)" d="M2247.2 1561.28 L2254.84 1561.28 L2254.84 1534.91 L2246.53 1536.58 L2246.53 1532.32 L2254.8 1530.65 L2259.47 1530.65 L2259.47 1561.28 L2267.11 1561.28 L2267.11 1565.21 L2247.2 1565.21 L2247.2 1561.28 Z" fill="#000000" fill-rule="nonzero" fill-opacity="1" /><path clip-path="url(#clip550)" d="M2276.56 1559.33 L2281.44 1559.33 L2281.44 1565.21 L2276.56 1565.21 L2276.56 1559.33 Z" fill="#000000" fill-rule="nonzero" fill-opacity="1" /><path clip-path="url(#clip550)" d="M2301.62 1533.73 Q2298.01 1533.73 2296.18 1537.3 Q2294.38 1540.84 2294.38 1547.97 Q2294.38 1555.07 2296.18 1558.64 Q2298.01 1562.18 2301.62 1562.18 Q2305.26 1562.18 2307.06 1558.64 Q2308.89 1555.07 2308.89 1547.97 Q2308.89 1540.84 2307.06 1537.3 Q2305.26 1533.73 2301.62 1533.73 M2301.62 1530.03 Q2307.43 1530.03 2310.49 1534.63 Q2313.57 1539.22 2313.57 1547.97 Q2313.57 1556.69 2310.49 1561.3 Q2307.43 1565.88 2301.62 1565.88 Q2295.81 1565.88 2292.74 1561.3 Q2289.68 1556.69 2289.68 1547.97 Q2289.68 1539.22 2292.74 1534.63 Q2295.81 1530.03 2301.62 1530.03 Z" fill="#000000" fill-rule="nonzero" fill-opacity="1" /><path clip-path="url(#clip550)" d="M2331.79 1533.73 Q2328.18 1533.73 2326.35 1537.3 Q2324.54 1540.84 2324.54 1547.97 Q2324.54 1555.07 2326.35 1558.64 Q2328.18 1562.18 2331.79 1562.18 Q2335.42 1562.18 2337.23 1558.64 Q2339.06 1555.07 2339.06 1547.97 Q2339.06 1540.84 2337.23 1537.3 Q2335.42 1533.73 2331.79 1533.73 M2331.79 1530.03 Q2337.6 1530.03 2340.65 1534.63 Q2343.73 1539.22 2343.73 1547.97 Q2343.73 1556.69 2340.65 1561.3 Q2337.6 1565.88 2331.79 1565.88 Q2325.98 1565.88 2322.9 1561.3 Q2319.84 1556.69 2319.84 1547.97 Q2319.84 1539.22 2322.9 1534.63 Q2325.98 1530.03 2331.79 1530.03 Z" fill="#000000" fill-rule="nonzero" fill-opacity="1" /><path clip-path="url(#clip550)" d="M1333.88 1600.88 L1333.88 1610.08 L1344.84 1610.08 L1344.84 1614.22 L1333.88 1614.22 L1333.88 1631.81 Q1333.88 1635.78 1334.95 1636.91 Q1336.05 1638.04 1339.37 1638.04 L1344.84 1638.04 L1344.84 1642.49 L1339.37 1642.49 Q1333.21 1642.49 1330.87 1640.21 Q1328.52 1637.89 1328.52 1631.81 L1328.52 1614.22 L1324.62 1614.22 L1324.62 1610.08 L1328.52 1610.08 L1328.52 1600.88 L1333.88 1600.88 Z" fill="#000000" fill-rule="nonzero" fill-opacity="1" /><polyline clip-path="url(#clip550)" style="stroke:#000000; stroke-linecap:round; stroke-linejoin:round; stroke-width:4; stroke-opacity:1; fill:none" points="316.702,1502.81 316.702,948.352 "/>
<polyline clip-path="url(#clip550)" style="stroke:#000000; stroke-linecap:round; stroke-linejoin:round; stroke-width:4; stroke-opacity:1; fill:none" points="316.702,1487.12 335.6,1487.12 "/>
<polyline clip-path="url(#clip550)" style="stroke:#000000; stroke-linecap:round; stroke-linejoin:round; stroke-width:4; stroke-opacity:1; fill:none" points="316.702,1356.35 335.6,1356.35 "/>
<polyline clip-path="url(#clip550)" style="stroke:#000000; stroke-linecap:round; stroke-linejoin:round; stroke-width:4; stroke-opacity:1; fill:none" points="316.702,1225.58 335.6,1225.58 "/>
<polyline clip-path="url(#clip550)" style="stroke:#000000; stroke-linecap:round; stroke-linejoin:round; stroke-width:4; stroke-opacity:1; fill:none" points="316.702,1094.81 335.6,1094.81 "/>
<polyline clip-path="url(#clip550)" style="stroke:#000000; stroke-linecap:round; stroke-linejoin:round; stroke-width:4; stroke-opacity:1; fill:none" points="316.702,964.044 335.6,964.044 "/>
<path clip-path="url(#clip550)" d="M173.758 1487.57 L203.434 1487.57 L203.434 1491.51 L173.758 1491.51 L173.758 1487.57 Z" fill="#000000" fill-rule="nonzero" fill-opacity="1" /><path clip-path="url(#clip550)" d="M214.337 1500.46 L221.975 1500.46 L221.975 1474.1 L213.665 1475.77 L213.665 1471.51 L221.929 1469.84 L226.605 1469.84 L226.605 1500.46 L234.244 1500.46 L234.244 1504.4 L214.337 1504.4 L214.337 1500.46 Z" fill="#000000" fill-rule="nonzero" fill-opacity="1" /><path clip-path="url(#clip550)" d="M243.688 1498.52 L248.573 1498.52 L248.573 1504.4 L243.688 1504.4 L243.688 1498.52 Z" fill="#000000" fill-rule="nonzero" fill-opacity="1" /><path clip-path="url(#clip550)" d="M268.758 1472.92 Q265.146 1472.92 263.318 1476.48 Q261.512 1480.02 261.512 1487.15 Q261.512 1494.26 263.318 1497.83 Q265.146 1501.37 268.758 1501.37 Q272.392 1501.37 274.197 1497.83 Q276.026 1494.26 276.026 1487.15 Q276.026 1480.02 274.197 1476.48 Q272.392 1472.92 268.758 1472.92 M268.758 1469.21 Q274.568 1469.21 277.623 1473.82 Q280.702 1478.4 280.702 1487.15 Q280.702 1495.88 277.623 1500.49 Q274.568 1505.07 268.758 1505.07 Q262.947 1505.07 259.869 1500.49 Q256.813 1495.88 256.813 1487.15 Q256.813 1478.4 259.869 1473.82 Q262.947 1469.21 268.758 1469.21 Z" fill="#000000" fill-rule="nonzero" fill-opacity="1" /><path clip-path="url(#clip550)" d="M174.753 1356.8 L204.429 1356.8 L204.429 1360.74 L174.753 1360.74 L174.753 1356.8 Z" fill="#000000" fill-rule="nonzero" fill-opacity="1" /><path clip-path="url(#clip550)" d="M224.522 1342.15 Q220.911 1342.15 219.082 1345.71 Q217.276 1349.26 217.276 1356.39 Q217.276 1363.49 219.082 1367.06 Q220.911 1370.6 224.522 1370.6 Q228.156 1370.6 229.961 1367.06 Q231.79 1363.49 231.79 1356.39 Q231.79 1349.26 229.961 1345.71 Q228.156 1342.15 224.522 1342.15 M224.522 1338.45 Q230.332 1338.45 233.387 1343.05 Q236.466 1347.64 236.466 1356.39 Q236.466 1365.11 233.387 1369.72 Q230.332 1374.3 224.522 1374.3 Q218.712 1374.3 215.633 1369.72 Q212.577 1365.11 212.577 1356.39 Q212.577 1347.64 215.633 1343.05 Q218.712 1338.45 224.522 1338.45 Z" fill="#000000" fill-rule="nonzero" fill-opacity="1" /><path clip-path="url(#clip550)" d="M244.684 1367.75 L249.568 1367.75 L249.568 1373.63 L244.684 1373.63 L244.684 1367.75 Z" fill="#000000" fill-rule="nonzero" fill-opacity="1" /><path clip-path="url(#clip550)" d="M259.799 1339.07 L278.156 1339.07 L278.156 1343.01 L264.082 1343.01 L264.082 1351.48 Q265.1 1351.13 266.119 1350.97 Q267.137 1350.78 268.156 1350.78 Q273.943 1350.78 277.322 1353.95 Q280.702 1357.13 280.702 1362.54 Q280.702 1368.12 277.23 1371.22 Q273.758 1374.3 267.438 1374.3 Q265.262 1374.3 262.994 1373.93 Q260.748 1373.56 258.341 1372.82 L258.341 1368.12 Q260.424 1369.26 262.647 1369.81 Q264.869 1370.37 267.346 1370.37 Q271.35 1370.37 273.688 1368.26 Q276.026 1366.15 276.026 1362.54 Q276.026 1358.93 273.688 1356.83 Q271.35 1354.72 267.346 1354.72 Q265.471 1354.72 263.596 1355.14 Q261.744 1355.55 259.799 1356.43 L259.799 1339.07 Z" fill="#000000" fill-rule="nonzero" fill-opacity="1" /><path clip-path="url(#clip550)" d="M223.526 1211.38 Q219.915 1211.38 218.087 1214.95 Q216.281 1218.49 216.281 1225.62 Q216.281 1232.72 218.087 1236.29 Q219.915 1239.83 223.526 1239.83 Q227.161 1239.83 228.966 1236.29 Q230.795 1232.72 230.795 1225.62 Q230.795 1218.49 228.966 1214.95 Q227.161 1211.38 223.526 1211.38 M223.526 1207.68 Q229.337 1207.68 232.392 1212.28 Q235.471 1216.87 235.471 1225.62 Q235.471 1234.34 232.392 1238.95 Q229.337 1243.53 223.526 1243.53 Q217.716 1243.53 214.638 1238.95 Q211.582 1234.34 211.582 1225.62 Q211.582 1216.87 214.638 1212.28 Q217.716 1207.68 223.526 1207.68 Z" fill="#000000" fill-rule="nonzero" fill-opacity="1" /><path clip-path="url(#clip550)" d="M243.688 1236.98 L248.573 1236.98 L248.573 1242.86 L243.688 1242.86 L243.688 1236.98 Z" fill="#000000" fill-rule="nonzero" fill-opacity="1" /><path clip-path="url(#clip550)" d="M268.758 1211.38 Q265.146 1211.38 263.318 1214.95 Q261.512 1218.49 261.512 1225.62 Q261.512 1232.72 263.318 1236.29 Q265.146 1239.83 268.758 1239.83 Q272.392 1239.83 274.197 1236.29 Q276.026 1232.72 276.026 1225.62 Q276.026 1218.49 274.197 1214.95 Q272.392 1211.38 268.758 1211.38 M268.758 1207.68 Q274.568 1207.68 277.623 1212.28 Q280.702 1216.87 280.702 1225.62 Q280.702 1234.34 277.623 1238.95 Q274.568 1243.53 268.758 1243.53 Q262.947 1243.53 259.869 1238.95 Q256.813 1234.34 256.813 1225.62 Q256.813 1216.87 259.869 1212.28 Q262.947 1207.68 268.758 1207.68 Z" fill="#000000" fill-rule="nonzero" fill-opacity="1" /><path clip-path="url(#clip550)" d="M224.522 1080.61 Q220.911 1080.61 219.082 1084.18 Q217.276 1087.72 217.276 1094.85 Q217.276 1101.95 219.082 1105.52 Q220.911 1109.06 224.522 1109.06 Q228.156 1109.06 229.961 1105.52 Q231.79 1101.95 231.79 1094.85 Q231.79 1087.72 229.961 1084.18 Q228.156 1080.61 224.522 1080.61 M224.522 1076.91 Q230.332 1076.91 233.387 1081.51 Q236.466 1086.1 236.466 1094.85 Q236.466 1103.57 233.387 1108.18 Q230.332 1112.76 224.522 1112.76 Q218.712 1112.76 215.633 1108.18 Q212.577 1103.57 212.577 1094.85 Q212.577 1086.1 215.633 1081.51 Q218.712 1076.91 224.522 1076.91 Z" fill="#000000" fill-rule="nonzero" fill-opacity="1" /><path clip-path="url(#clip550)" d="M244.684 1106.21 L249.568 1106.21 L249.568 1112.09 L244.684 1112.09 L244.684 1106.21 Z" fill="#000000" fill-rule="nonzero" fill-opacity="1" /><path clip-path="url(#clip550)" d="M259.799 1077.53 L278.156 1077.53 L278.156 1081.47 L264.082 1081.47 L264.082 1089.94 Q265.1 1089.59 266.119 1089.43 Q267.137 1089.25 268.156 1089.25 Q273.943 1089.25 277.322 1092.42 Q280.702 1095.59 280.702 1101.01 Q280.702 1106.58 277.23 1109.69 Q273.758 1112.76 267.438 1112.76 Q265.262 1112.76 262.994 1112.39 Q260.748 1112.02 258.341 1111.28 L258.341 1106.58 Q260.424 1107.72 262.647 1108.27 Q264.869 1108.83 267.346 1108.83 Q271.35 1108.83 273.688 1106.72 Q276.026 1104.62 276.026 1101.01 Q276.026 1097.39 273.688 1095.29 Q271.35 1093.18 267.346 1093.18 Q265.471 1093.18 263.596 1093.6 Q261.744 1094.01 259.799 1094.89 L259.799 1077.53 Z" fill="#000000" fill-rule="nonzero" fill-opacity="1" /><path clip-path="url(#clip550)" d="M214.337 977.389 L221.975 977.389 L221.975 951.024 L213.665 952.69 L213.665 948.431 L221.929 946.764 L226.605 946.764 L226.605 977.389 L234.244 977.389 L234.244 981.324 L214.337 981.324 L214.337 977.389 Z" fill="#000000" fill-rule="nonzero" fill-opacity="1" /><path clip-path="url(#clip550)" d="M243.688 975.445 L248.573 975.445 L248.573 981.324 L243.688 981.324 L243.688 975.445 Z" fill="#000000" fill-rule="nonzero" fill-opacity="1" /><path clip-path="url(#clip550)" d="M268.758 949.843 Q265.146 949.843 263.318 953.408 Q261.512 956.95 261.512 964.079 Q261.512 971.186 263.318 974.75 Q265.146 978.292 268.758 978.292 Q272.392 978.292 274.197 974.75 Q276.026 971.186 276.026 964.079 Q276.026 956.95 274.197 953.408 Q272.392 949.843 268.758 949.843 M268.758 946.139 Q274.568 946.139 277.623 950.746 Q280.702 955.329 280.702 964.079 Q280.702 972.806 277.623 977.412 Q274.568 981.996 268.758 981.996 Q262.947 981.996 259.869 977.412 Q256.813 972.806 256.813 964.079 Q256.813 955.329 259.869 950.746 Q262.947 946.139 268.758 946.139 Z" fill="#000000" fill-rule="nonzero" fill-opacity="1" /><path clip-path="url(#clip550)" d="M112.009 1239.15 L92.3909 1239.15 L92.3909 1233.83 L111.806 1233.83 Q116.407 1233.83 118.722 1232.03 Q121.008 1230.24 121.008 1226.65 Q121.008 1222.34 118.259 1219.85 Q115.51 1217.34 110.765 1217.34 L92.3909 1217.34 L92.3909 1212.01 L124.798 1212.01 L124.798 1217.34 L119.821 1217.34 Q122.773 1219.27 124.219 1221.85 Q125.637 1224.4 125.637 1227.78 Q125.637 1233.37 122.165 1236.26 Q118.693 1239.15 112.009 1239.15 M91.6096 1225.76 L91.6096 1225.76 Z" fill="#000000" fill-rule="nonzero" fill-opacity="1" /><path clip-path="url(#clip550)" d="M1262.07 860.677 L1262.07 865.654 Q1259.82 864.41 1257.53 863.802 Q1255.27 863.165 1252.96 863.165 Q1247.78 863.165 1244.91 866.464 Q1242.05 869.734 1242.05 875.665 Q1242.05 881.597 1244.91 884.896 Q1247.78 888.165 1252.96 888.165 Q1255.27 888.165 1257.53 887.558 Q1259.82 886.921 1262.07 885.677 L1262.07 890.596 Q1259.85 891.637 1257.44 892.158 Q1255.07 892.679 1252.38 892.679 Q1245.06 892.679 1240.75 888.078 Q1236.44 883.478 1236.44 875.665 Q1236.44 867.737 1240.78 863.194 Q1245.15 858.652 1252.73 858.652 Q1255.19 858.652 1257.53 859.172 Q1259.87 859.664 1262.07 860.677 Z" fill="#000000" fill-rule="nonzero" fill-opacity="1" /><path clip-path="url(#clip550)" d="M1283.89 863.165 Q1279.61 863.165 1277.12 866.522 Q1274.63 869.849 1274.63 875.665 Q1274.63 881.481 1277.09 884.838 Q1279.58 888.165 1283.89 888.165 Q1288.14 888.165 1290.63 884.809 Q1293.12 881.452 1293.12 875.665 Q1293.12 869.907 1290.63 866.551 Q1288.14 863.165 1283.89 863.165 M1283.89 858.652 Q1290.83 858.652 1294.8 863.165 Q1298.76 867.679 1298.76 875.665 Q1298.76 883.622 1294.8 888.165 Q1290.83 892.679 1283.89 892.679 Q1276.92 892.679 1272.95 888.165 Q1269.02 883.622 1269.02 875.665 Q1269.02 867.679 1272.95 863.165 Q1276.92 858.652 1283.89 858.652 Z" fill="#000000" fill-rule="nonzero" fill-opacity="1" /><path clip-path="url(#clip550)" d="M1334.53 872.28 L1334.53 891.84 L1329.2 891.84 L1329.2 872.454 Q1329.2 867.853 1327.41 865.567 Q1325.61 863.281 1322.03 863.281 Q1317.72 863.281 1315.23 866.03 Q1312.74 868.779 1312.74 873.524 L1312.74 891.84 L1307.39 891.84 L1307.39 859.433 L1312.74 859.433 L1312.74 864.467 Q1314.65 861.545 1317.22 860.098 Q1319.83 858.652 1323.21 858.652 Q1328.8 858.652 1331.66 862.124 Q1334.53 865.567 1334.53 872.28 Z" fill="#000000" fill-rule="nonzero" fill-opacity="1" /><path clip-path="url(#clip550)" d="M1350.41 850.231 L1350.41 859.433 L1361.38 859.433 L1361.38 863.57 L1350.41 863.57 L1350.41 881.163 Q1350.41 885.127 1351.48 886.256 Q1352.58 887.384 1355.91 887.384 L1361.38 887.384 L1361.38 891.84 L1355.91 891.84 Q1349.75 891.84 1347.4 889.554 Q1345.06 887.239 1345.06 881.163 L1345.06 863.57 L1341.15 863.57 L1341.15 859.433 L1345.06 859.433 L1345.06 850.231 L1350.41 850.231 Z" fill="#000000" fill-rule="nonzero" fill-opacity="1" /><path clip-path="url(#clip550)" d="M1387.16 864.41 Q1386.26 863.889 1385.19 863.657 Q1384.15 863.397 1382.88 863.397 Q1378.36 863.397 1375.93 866.348 Q1373.53 869.271 1373.53 874.768 L1373.53 891.84 L1368.18 891.84 L1368.18 859.433 L1373.53 859.433 L1373.53 864.467 Q1375.21 861.516 1377.9 860.098 Q1380.59 858.652 1384.44 858.652 Q1384.99 858.652 1385.65 858.738 Q1386.32 858.796 1387.13 858.941 L1387.16 864.41 Z" fill="#000000" fill-rule="nonzero" fill-opacity="1" /><path clip-path="url(#clip550)" d="M1404 863.165 Q1399.72 863.165 1397.23 866.522 Q1394.74 869.849 1394.74 875.665 Q1394.74 881.481 1397.2 884.838 Q1399.69 888.165 1404 888.165 Q1408.25 888.165 1410.74 884.809 Q1413.23 881.452 1413.23 875.665 Q1413.23 869.907 1410.74 866.551 Q1408.25 863.165 1404 863.165 M1404 858.652 Q1410.94 858.652 1414.91 863.165 Q1418.87 867.679 1418.87 875.665 Q1418.87 883.622 1414.91 888.165 Q1410.94 892.679 1404 892.679 Q1397.03 892.679 1393.06 888.165 Q1389.13 883.622 1389.13 875.665 Q1389.13 867.679 1393.06 863.165 Q1397.03 858.652 1404 858.652 Z" fill="#000000" fill-rule="nonzero" fill-opacity="1" /><path clip-path="url(#clip550)" d="M1427.7 846.817 L1433.02 846.817 L1433.02 891.84 L1427.7 891.84 L1427.7 846.817 Z" fill="#000000" fill-rule="nonzero" fill-opacity="1" /><polyline clip-path="url(#clip554)" style="stroke:#000000; stroke-linecap:round; stroke-linejoin:round; stroke-width:4; stroke-opacity:1; fill:none" stroke-dasharray="16, 10" points="374.326,2057.27 374.326,393.892 "/>
<polyline clip-path="url(#clip554)" style="stroke:#000000; stroke-linecap:round; stroke-linejoin:round; stroke-width:4; stroke-opacity:1; fill:none" stroke-dasharray="16, 10" points="2295.13,2057.27 2295.13,393.892 "/>
<polyline clip-path="url(#clip554)" style="stroke:#dd64b5; stroke-linecap:round; stroke-linejoin:round; stroke-width:4; stroke-opacity:1; fill:none" points="-1719.35,964.044 4388.81,964.044 "/>
<polyline clip-path="url(#clip554)" style="stroke:#dd64b5; stroke-linecap:round; stroke-linejoin:round; stroke-width:4; stroke-opacity:1; fill:none" points="-1719.35,1487.12 4388.81,1487.12 "/>
<polyline clip-path="url(#clip554)" style="stroke:#009af9; stroke-linecap:round; stroke-linejoin:round; stroke-width:8; stroke-opacity:1; fill:none" points="374.326,1225.58 382.738,1225.58 403.201,1225.58 429.92,1225.58 462.016,1225.58 499.749,1225.58 542.378,1225.58 589.561,1225.58 640.641,1225.58 695.128,1225.58 752.479,1225.58 812.25,1225.58 874.025,1225.58 937.459,1225.58 1002.25,1225.58 1068.16,1225.58 1134.96,1225.58 1202.49,1225.58 1270.61,1225.58 1339.19,1225.58 1408.14,1225.58 1409.33,1225.58 1410.29,1225.58 1411.05,1225.58 1411.66,1225.58 1412.15,1225.58 1412.54,1225.58 1412.85,1225.58 1413.11,1225.58 1413.31,1225.58 1413.47,1225.58 1413.59,1225.58 1413.7,1225.58 1413.78,1225.58 1413.84,1225.58 1413.9,1225.58 1413.94,1225.58 1413.97,1225.58 1414,1225.58 1414.02,1225.58 1414.04,1225.58 1414.05,1225.58 1414.06,1225.58 1414.07,1225.58 1414.08,1225.58 1414.08,1225.58 1414.09,1225.58 1414.09,1225.58 1414.1,1225.58 1414.1,1225.58 1414.1,1225.58 1414.1,1225.58 1414.1,1225.58 1414.1,1225.58 1414.1,1225.58 1414.1,1225.58 1414.11,1225.58 1414.11,1225.58 1414.11,1225.58 1414.11,1225.58 1414.11,1225.58 1414.11,1225.58 1414.11,1225.58 1414.11,1225.58 1414.11,1225.58 1414.11,1225.58 1414.11,1225.58 1414.11,1225.58 1414.11,964.044 1414.11,964.044 1414.11,964.044 1414.11,964.044 1414.11,964.044 1414.11,964.044 1414.12,964.044 1414.2,964.044 1415.07,964.044 1423.78,964.044 1442.81,964.044 1466.88,964.044 1496.04,964.044 1529.96,964.044 1568.28,964.044 1610.5,964.044 1656.13,964.044 1704.67,964.044 1755.68,964.044 1808.74,964.044 1863.5,964.044 1919.65,964.044 1976.93,964.044 2035.12,964.044 2094.05,964.044 2153.56,964.044 2213.54,964.044 2273.89,964.044 2295.13,964.044 "/>
</svg>
