<?xml version="1.0" encoding="utf-8"?>
<svg xmlns="http://www.w3.org/2000/svg" xmlns:xlink="http://www.w3.org/1999/xlink" width="600" height="400" viewBox="0 0 2400 1600">
<defs>
  <clipPath id="clip850">
    <rect x="0" y="0" width="2400" height="1600"/>
  </clipPath>
</defs>
<path clip-path="url(#clip850)" d="M0 1600 L2400 1600 L2400 0 L0 0  Z" fill="#ffffff" fill-rule="evenodd" fill-opacity="1"/>
<defs>
  <clipPath id="clip851">
    <rect x="284" y="47" width="2069" height="1440"/>
  </clipPath>
</defs>
<path clip-path="url(#clip850)" d="M284.422 1486.45 L2352.76 1486.45 L2352.76 47.2441 L284.422 47.2441  Z" fill="#ffffff" fill-rule="evenodd" fill-opacity="1"/>
<polyline clip-path="url(#clip851)" style="stroke:#000000; stroke-linecap:round; stroke-linejoin:round; stroke-width:2; stroke-opacity:0.1; fill:none" points="342.959,1486.45 342.959,47.2441 "/>
<polyline clip-path="url(#clip851)" style="stroke:#000000; stroke-linecap:round; stroke-linejoin:round; stroke-width:2; stroke-opacity:0.1; fill:none" points="811.261,1486.45 811.261,47.2441 "/>
<polyline clip-path="url(#clip851)" style="stroke:#000000; stroke-linecap:round; stroke-linejoin:round; stroke-width:2; stroke-opacity:0.1; fill:none" points="1279.56,1486.45 1279.56,47.2441 "/>
<polyline clip-path="url(#clip851)" style="stroke:#000000; stroke-linecap:round; stroke-linejoin:round; stroke-width:2; stroke-opacity:0.1; fill:none" points="1747.87,1486.45 1747.87,47.2441 "/>
<polyline clip-path="url(#clip851)" style="stroke:#000000; stroke-linecap:round; stroke-linejoin:round; stroke-width:2; stroke-opacity:0.1; fill:none" points="2216.17,1486.45 2216.17,47.2441 "/>
<polyline clip-path="url(#clip851)" style="stroke:#000000; stroke-linecap:round; stroke-linejoin:round; stroke-width:2; stroke-opacity:0.1; fill:none" points="284.422,1313.18 2352.76,1313.18 "/>
<polyline clip-path="url(#clip851)" style="stroke:#000000; stroke-linecap:round; stroke-linejoin:round; stroke-width:2; stroke-opacity:0.1; fill:none" points="284.422,1006.88 2352.76,1006.88 "/>
<polyline clip-path="url(#clip851)" style="stroke:#000000; stroke-linecap:round; stroke-linejoin:round; stroke-width:2; stroke-opacity:0.1; fill:none" points="284.422,700.578 2352.76,700.578 "/>
<polyline clip-path="url(#clip851)" style="stroke:#000000; stroke-linecap:round; stroke-linejoin:round; stroke-width:2; stroke-opacity:0.1; fill:none" points="284.422,394.277 2352.76,394.277 "/>
<polyline clip-path="url(#clip851)" style="stroke:#000000; stroke-linecap:round; stroke-linejoin:round; stroke-width:2; stroke-opacity:0.1; fill:none" points="284.422,87.9763 2352.76,87.9763 "/>
<polyline clip-path="url(#clip850)" style="stroke:#000000; stroke-linecap:round; stroke-linejoin:round; stroke-width:4; stroke-opacity:1; fill:none" points="284.422,1486.45 2352.76,1486.45 "/>
<polyline clip-path="url(#clip850)" style="stroke:#000000; stroke-linecap:round; stroke-linejoin:round; stroke-width:4; stroke-opacity:1; fill:none" points="342.959,1486.45 342.959,1467.55 "/>
<polyline clip-path="url(#clip850)" style="stroke:#000000; stroke-linecap:round; stroke-linejoin:round; stroke-width:4; stroke-opacity:1; fill:none" points="811.261,1486.45 811.261,1467.55 "/>
<polyline clip-path="url(#clip850)" style="stroke:#000000; stroke-linecap:round; stroke-linejoin:round; stroke-width:4; stroke-opacity:1; fill:none" points="1279.56,1486.45 1279.56,1467.55 "/>
<polyline clip-path="url(#clip850)" style="stroke:#000000; stroke-linecap:round; stroke-linejoin:round; stroke-width:4; stroke-opacity:1; fill:none" points="1747.87,1486.45 1747.87,1467.55 "/>
<polyline clip-path="url(#clip850)" style="stroke:#000000; stroke-linecap:round; stroke-linejoin:round; stroke-width:4; stroke-opacity:1; fill:none" points="2216.17,1486.45 2216.17,1467.55 "/>
<path clip-path="url(#clip850)" d="M320.344 1517.37 Q316.733 1517.37 314.904 1520.93 Q313.098 1524.47 313.098 1531.6 Q313.098 1538.71 314.904 1542.27 Q316.733 1545.82 320.344 1545.82 Q323.978 1545.82 325.784 1542.27 Q327.612 1538.71 327.612 1531.6 Q327.612 1524.47 325.784 1520.93 Q323.978 1517.37 320.344 1517.37 M320.344 1513.66 Q326.154 1513.66 329.209 1518.27 Q332.288 1522.85 332.288 1531.6 Q332.288 1540.33 329.209 1544.94 Q326.154 1549.52 320.344 1549.52 Q314.534 1549.52 311.455 1544.94 Q308.399 1540.33 308.399 1531.6 Q308.399 1522.85 311.455 1518.27 Q314.534 1513.66 320.344 1513.66 Z" fill="#000000" fill-rule="nonzero" fill-opacity="1" /><path clip-path="url(#clip850)" d="M340.506 1542.97 L345.39 1542.97 L345.39 1548.85 L340.506 1548.85 L340.506 1542.97 Z" fill="#000000" fill-rule="nonzero" fill-opacity="1" /><path clip-path="url(#clip850)" d="M365.575 1517.37 Q361.964 1517.37 360.135 1520.93 Q358.33 1524.47 358.33 1531.6 Q358.33 1538.71 360.135 1542.27 Q361.964 1545.82 365.575 1545.82 Q369.209 1545.82 371.015 1542.27 Q372.843 1538.71 372.843 1531.6 Q372.843 1524.47 371.015 1520.93 Q369.209 1517.37 365.575 1517.37 M365.575 1513.66 Q371.385 1513.66 374.441 1518.27 Q377.519 1522.85 377.519 1531.6 Q377.519 1540.33 374.441 1544.94 Q371.385 1549.52 365.575 1549.52 Q359.765 1549.52 356.686 1544.94 Q353.631 1540.33 353.631 1531.6 Q353.631 1522.85 356.686 1518.27 Q359.765 1513.66 365.575 1513.66 Z" fill="#000000" fill-rule="nonzero" fill-opacity="1" /><path clip-path="url(#clip850)" d="M789.144 1517.37 Q785.532 1517.37 783.704 1520.93 Q781.898 1524.47 781.898 1531.6 Q781.898 1538.71 783.704 1542.27 Q785.532 1545.82 789.144 1545.82 Q792.778 1545.82 794.583 1542.27 Q796.412 1538.71 796.412 1531.6 Q796.412 1524.47 794.583 1520.93 Q792.778 1517.37 789.144 1517.37 M789.144 1513.66 Q794.954 1513.66 798.009 1518.27 Q801.088 1522.85 801.088 1531.6 Q801.088 1540.33 798.009 1544.94 Q794.954 1549.52 789.144 1549.52 Q783.333 1549.52 780.255 1544.94 Q777.199 1540.33 777.199 1531.6 Q777.199 1522.85 780.255 1518.27 Q783.333 1513.66 789.144 1513.66 Z" fill="#000000" fill-rule="nonzero" fill-opacity="1" /><path clip-path="url(#clip850)" d="M809.305 1542.97 L814.19 1542.97 L814.19 1548.85 L809.305 1548.85 L809.305 1542.97 Z" fill="#000000" fill-rule="nonzero" fill-opacity="1" /><path clip-path="url(#clip850)" d="M824.421 1514.29 L842.778 1514.29 L842.778 1518.22 L828.704 1518.22 L828.704 1526.7 Q829.722 1526.35 830.741 1526.19 Q831.759 1526 832.778 1526 Q838.565 1526 841.944 1529.17 Q845.324 1532.34 845.324 1537.76 Q845.324 1543.34 841.852 1546.44 Q838.379 1549.52 832.06 1549.52 Q829.884 1549.52 827.616 1549.15 Q825.37 1548.78 822.963 1548.04 L822.963 1543.34 Q825.046 1544.47 827.268 1545.03 Q829.491 1545.58 831.967 1545.58 Q835.972 1545.58 838.31 1543.48 Q840.648 1541.37 840.648 1537.76 Q840.648 1534.15 838.31 1532.04 Q835.972 1529.94 831.967 1529.94 Q830.092 1529.94 828.217 1530.35 Q826.366 1530.77 824.421 1531.65 L824.421 1514.29 Z" fill="#000000" fill-rule="nonzero" fill-opacity="1" /><path clip-path="url(#clip850)" d="M1246.72 1544.91 L1254.36 1544.91 L1254.36 1518.55 L1246.05 1520.21 L1246.05 1515.95 L1254.31 1514.29 L1258.99 1514.29 L1258.99 1544.91 L1266.62 1544.91 L1266.62 1548.85 L1246.72 1548.85 L1246.72 1544.91 Z" fill="#000000" fill-rule="nonzero" fill-opacity="1" /><path clip-path="url(#clip850)" d="M1276.07 1542.97 L1280.95 1542.97 L1280.95 1548.85 L1276.07 1548.85 L1276.07 1542.97 Z" fill="#000000" fill-rule="nonzero" fill-opacity="1" /><path clip-path="url(#clip850)" d="M1301.14 1517.37 Q1297.53 1517.37 1295.7 1520.93 Q1293.89 1524.47 1293.89 1531.6 Q1293.89 1538.71 1295.7 1542.27 Q1297.53 1545.82 1301.14 1545.82 Q1304.77 1545.82 1306.58 1542.27 Q1308.41 1538.71 1308.41 1531.6 Q1308.41 1524.47 1306.58 1520.93 Q1304.77 1517.37 1301.14 1517.37 M1301.14 1513.66 Q1306.95 1513.66 1310 1518.27 Q1313.08 1522.85 1313.08 1531.6 Q1313.08 1540.33 1310 1544.94 Q1306.95 1549.52 1301.14 1549.52 Q1295.33 1549.52 1292.25 1544.94 Q1289.19 1540.33 1289.19 1531.6 Q1289.19 1522.85 1292.25 1518.27 Q1295.33 1513.66 1301.14 1513.66 Z" fill="#000000" fill-rule="nonzero" fill-opacity="1" /><path clip-path="url(#clip850)" d="M1715.52 1544.91 L1723.16 1544.91 L1723.16 1518.55 L1714.85 1520.21 L1714.85 1515.95 L1723.11 1514.29 L1727.78 1514.29 L1727.78 1544.91 L1735.42 1544.91 L1735.42 1548.85 L1715.52 1548.85 L1715.52 1544.91 Z" fill="#000000" fill-rule="nonzero" fill-opacity="1" /><path clip-path="url(#clip850)" d="M1744.87 1542.97 L1749.75 1542.97 L1749.75 1548.85 L1744.87 1548.85 L1744.87 1542.97 Z" fill="#000000" fill-rule="nonzero" fill-opacity="1" /><path clip-path="url(#clip850)" d="M1759.98 1514.29 L1778.34 1514.29 L1778.34 1518.22 L1764.27 1518.22 L1764.27 1526.7 Q1765.28 1526.35 1766.3 1526.19 Q1767.32 1526 1768.34 1526 Q1774.13 1526 1777.51 1529.17 Q1780.89 1532.34 1780.89 1537.76 Q1780.89 1543.34 1777.41 1546.44 Q1773.94 1549.52 1767.62 1549.52 Q1765.45 1549.52 1763.18 1549.15 Q1760.93 1548.78 1758.53 1548.04 L1758.53 1543.34 Q1760.61 1544.47 1762.83 1545.03 Q1765.05 1545.58 1767.53 1545.58 Q1771.53 1545.58 1773.87 1543.48 Q1776.21 1541.37 1776.21 1537.76 Q1776.21 1534.15 1773.87 1532.04 Q1771.53 1529.94 1767.53 1529.94 Q1765.65 1529.94 1763.78 1530.35 Q1761.93 1530.77 1759.98 1531.65 L1759.98 1514.29 Z" fill="#000000" fill-rule="nonzero" fill-opacity="1" /><path clip-path="url(#clip850)" d="M2187.41 1544.91 L2203.73 1544.91 L2203.73 1548.85 L2181.78 1548.85 L2181.78 1544.91 Q2184.44 1542.16 2189.03 1537.53 Q2193.63 1532.88 2194.81 1531.53 Q2197.06 1529.01 2197.94 1527.27 Q2198.84 1525.51 2198.84 1523.82 Q2198.84 1521.07 2196.9 1519.33 Q2194.98 1517.6 2191.87 1517.6 Q2189.67 1517.6 2187.22 1518.36 Q2184.79 1519.13 2182.01 1520.68 L2182.01 1515.95 Q2184.84 1514.82 2187.29 1514.24 Q2189.74 1513.66 2191.78 1513.66 Q2197.15 1513.66 2200.35 1516.35 Q2203.54 1519.03 2203.54 1523.52 Q2203.54 1525.65 2202.73 1527.57 Q2201.94 1529.47 2199.84 1532.07 Q2199.26 1532.74 2196.16 1535.95 Q2193.05 1539.15 2187.41 1544.91 Z" fill="#000000" fill-rule="nonzero" fill-opacity="1" /><path clip-path="url(#clip850)" d="M2213.54 1542.97 L2218.42 1542.97 L2218.42 1548.85 L2213.54 1548.85 L2213.54 1542.97 Z" fill="#000000" fill-rule="nonzero" fill-opacity="1" /><path clip-path="url(#clip850)" d="M2238.61 1517.37 Q2235 1517.37 2233.17 1520.93 Q2231.36 1524.47 2231.36 1531.6 Q2231.36 1538.71 2233.17 1542.27 Q2235 1545.82 2238.61 1545.82 Q2242.24 1545.82 2244.05 1542.27 Q2245.88 1538.71 2245.88 1531.6 Q2245.88 1524.47 2244.05 1520.93 Q2242.24 1517.37 2238.61 1517.37 M2238.61 1513.66 Q2244.42 1513.66 2247.48 1518.27 Q2250.55 1522.85 2250.55 1531.6 Q2250.55 1540.33 2247.48 1544.94 Q2244.42 1549.52 2238.61 1549.52 Q2232.8 1549.52 2229.72 1544.94 Q2226.67 1540.33 2226.67 1531.6 Q2226.67 1522.85 2229.72 1518.27 Q2232.8 1513.66 2238.61 1513.66 Z" fill="#000000" fill-rule="nonzero" fill-opacity="1" /><polyline clip-path="url(#clip850)" style="stroke:#000000; stroke-linecap:round; stroke-linejoin:round; stroke-width:4; stroke-opacity:1; fill:none" points="284.422,1486.45 284.422,47.2441 "/>
<polyline clip-path="url(#clip850)" style="stroke:#000000; stroke-linecap:round; stroke-linejoin:round; stroke-width:4; stroke-opacity:1; fill:none" points="284.422,1313.18 303.319,1313.18 "/>
<polyline clip-path="url(#clip850)" style="stroke:#000000; stroke-linecap:round; stroke-linejoin:round; stroke-width:4; stroke-opacity:1; fill:none" points="284.422,1006.88 303.319,1006.88 "/>
<polyline clip-path="url(#clip850)" style="stroke:#000000; stroke-linecap:round; stroke-linejoin:round; stroke-width:4; stroke-opacity:1; fill:none" points="284.422,700.578 303.319,700.578 "/>
<polyline clip-path="url(#clip850)" style="stroke:#000000; stroke-linecap:round; stroke-linejoin:round; stroke-width:4; stroke-opacity:1; fill:none" points="284.422,394.277 303.319,394.277 "/>
<polyline clip-path="url(#clip850)" style="stroke:#000000; stroke-linecap:round; stroke-linejoin:round; stroke-width:4; stroke-opacity:1; fill:none" points="284.422,87.9763 303.319,87.9763 "/>
<path clip-path="url(#clip850)" d="M50.9921 1313.63 L80.6679 1313.63 L80.6679 1317.57 L50.9921 1317.57 L50.9921 1313.63 Z" fill="#000000" fill-rule="nonzero" fill-opacity="1" /><path clip-path="url(#clip850)" d="M100.76 1298.98 Q97.1493 1298.98 95.3206 1302.54 Q93.515 1306.08 93.515 1313.21 Q93.515 1320.32 95.3206 1323.89 Q97.1493 1327.43 100.76 1327.43 Q104.395 1327.43 106.2 1323.89 Q108.029 1320.32 108.029 1313.21 Q108.029 1306.08 106.2 1302.54 Q104.395 1298.98 100.76 1298.98 M100.76 1295.27 Q106.571 1295.27 109.626 1299.88 Q112.705 1304.46 112.705 1313.21 Q112.705 1321.94 109.626 1326.55 Q106.571 1331.13 100.76 1331.13 Q94.9502 1331.13 91.8715 1326.55 Q88.816 1321.94 88.816 1313.21 Q88.816 1304.46 91.8715 1299.88 Q94.9502 1295.27 100.76 1295.27 Z" fill="#000000" fill-rule="nonzero" fill-opacity="1" /><path clip-path="url(#clip850)" d="M120.922 1324.58 L125.807 1324.58 L125.807 1330.46 L120.922 1330.46 L120.922 1324.58 Z" fill="#000000" fill-rule="nonzero" fill-opacity="1" /><path clip-path="url(#clip850)" d="M145.992 1298.98 Q142.381 1298.98 140.552 1302.54 Q138.746 1306.08 138.746 1313.21 Q138.746 1320.32 140.552 1323.89 Q142.381 1327.43 145.992 1327.43 Q149.626 1327.43 151.431 1323.89 Q153.26 1320.32 153.26 1313.21 Q153.26 1306.08 151.431 1302.54 Q149.626 1298.98 145.992 1298.98 M145.992 1295.27 Q151.802 1295.27 154.857 1299.88 Q157.936 1304.46 157.936 1313.21 Q157.936 1321.94 154.857 1326.55 Q151.802 1331.13 145.992 1331.13 Q140.181 1331.13 137.103 1326.55 Q134.047 1321.94 134.047 1313.21 Q134.047 1304.46 137.103 1299.88 Q140.181 1295.27 145.992 1295.27 Z" fill="#000000" fill-rule="nonzero" fill-opacity="1" /><path clip-path="url(#clip850)" d="M166.964 1326.52 L174.603 1326.52 L174.603 1300.16 L166.292 1301.83 L166.292 1297.57 L174.556 1295.9 L179.232 1295.9 L179.232 1326.52 L186.871 1326.52 L186.871 1330.46 L166.964 1330.46 L166.964 1326.52 Z" fill="#000000" fill-rule="nonzero" fill-opacity="1" /><path clip-path="url(#clip850)" d="M206.315 1298.98 Q202.704 1298.98 200.876 1302.54 Q199.07 1306.08 199.07 1313.21 Q199.07 1320.32 200.876 1323.89 Q202.704 1327.43 206.315 1327.43 Q209.95 1327.43 211.755 1323.89 Q213.584 1320.32 213.584 1313.21 Q213.584 1306.08 211.755 1302.54 Q209.95 1298.98 206.315 1298.98 M206.315 1295.27 Q212.126 1295.27 215.181 1299.88 Q218.26 1304.46 218.26 1313.21 Q218.26 1321.94 215.181 1326.55 Q212.126 1331.13 206.315 1331.13 Q200.505 1331.13 197.427 1326.55 Q194.371 1321.94 194.371 1313.21 Q194.371 1304.46 197.427 1299.88 Q200.505 1295.27 206.315 1295.27 Z" fill="#000000" fill-rule="nonzero" fill-opacity="1" /><path clip-path="url(#clip850)" d="M236.477 1298.98 Q232.866 1298.98 231.037 1302.54 Q229.232 1306.08 229.232 1313.21 Q229.232 1320.32 231.037 1323.89 Q232.866 1327.43 236.477 1327.43 Q240.111 1327.43 241.917 1323.89 Q243.746 1320.32 243.746 1313.21 Q243.746 1306.08 241.917 1302.54 Q240.111 1298.98 236.477 1298.98 M236.477 1295.27 Q242.287 1295.27 245.343 1299.88 Q248.422 1304.46 248.422 1313.21 Q248.422 1321.94 245.343 1326.55 Q242.287 1331.13 236.477 1331.13 Q230.667 1331.13 227.588 1326.55 Q224.533 1321.94 224.533 1313.21 Q224.533 1304.46 227.588 1299.88 Q230.667 1295.27 236.477 1295.27 Z" fill="#000000" fill-rule="nonzero" fill-opacity="1" /><path clip-path="url(#clip850)" d="M51.9875 1007.33 L81.6633 1007.33 L81.6633 1011.27 L51.9875 1011.27 L51.9875 1007.33 Z" fill="#000000" fill-rule="nonzero" fill-opacity="1" /><path clip-path="url(#clip850)" d="M101.756 992.677 Q98.1447 992.677 96.316 996.242 Q94.5104 999.784 94.5104 1006.91 Q94.5104 1014.02 96.316 1017.58 Q98.1447 1021.13 101.756 1021.13 Q105.39 1021.13 107.196 1017.58 Q109.024 1014.02 109.024 1006.91 Q109.024 999.784 107.196 996.242 Q105.39 992.677 101.756 992.677 M101.756 988.974 Q107.566 988.974 110.621 993.58 Q113.7 998.163 113.7 1006.91 Q113.7 1015.64 110.621 1020.25 Q107.566 1024.83 101.756 1024.83 Q95.9456 1024.83 92.8669 1020.25 Q89.8114 1015.64 89.8114 1006.91 Q89.8114 998.163 92.8669 993.58 Q95.9456 988.974 101.756 988.974 Z" fill="#000000" fill-rule="nonzero" fill-opacity="1" /><path clip-path="url(#clip850)" d="M121.918 1018.28 L126.802 1018.28 L126.802 1024.16 L121.918 1024.16 L121.918 1018.28 Z" fill="#000000" fill-rule="nonzero" fill-opacity="1" /><path clip-path="url(#clip850)" d="M146.987 992.677 Q143.376 992.677 141.547 996.242 Q139.742 999.784 139.742 1006.91 Q139.742 1014.02 141.547 1017.58 Q143.376 1021.13 146.987 1021.13 Q150.621 1021.13 152.427 1017.58 Q154.255 1014.02 154.255 1006.91 Q154.255 999.784 152.427 996.242 Q150.621 992.677 146.987 992.677 M146.987 988.974 Q152.797 988.974 155.853 993.58 Q158.931 998.163 158.931 1006.91 Q158.931 1015.64 155.853 1020.25 Q152.797 1024.83 146.987 1024.83 Q141.177 1024.83 138.098 1020.25 Q135.043 1015.64 135.043 1006.91 Q135.043 998.163 138.098 993.58 Q141.177 988.974 146.987 988.974 Z" fill="#000000" fill-rule="nonzero" fill-opacity="1" /><path clip-path="url(#clip850)" d="M177.149 992.677 Q173.538 992.677 171.709 996.242 Q169.904 999.784 169.904 1006.91 Q169.904 1014.02 171.709 1017.58 Q173.538 1021.13 177.149 1021.13 Q180.783 1021.13 182.589 1017.58 Q184.417 1014.02 184.417 1006.91 Q184.417 999.784 182.589 996.242 Q180.783 992.677 177.149 992.677 M177.149 988.974 Q182.959 988.974 186.015 993.58 Q189.093 998.163 189.093 1006.91 Q189.093 1015.64 186.015 1020.25 Q182.959 1024.83 177.149 1024.83 Q171.339 1024.83 168.26 1020.25 Q165.204 1015.64 165.204 1006.91 Q165.204 998.163 168.26 993.58 Q171.339 988.974 177.149 988.974 Z" fill="#000000" fill-rule="nonzero" fill-opacity="1" /><path clip-path="url(#clip850)" d="M196.13 989.599 L218.352 989.599 L218.352 991.589 L205.806 1024.16 L200.922 1024.16 L212.727 993.534 L196.13 993.534 L196.13 989.599 Z" fill="#000000" fill-rule="nonzero" fill-opacity="1" /><path clip-path="url(#clip850)" d="M227.519 989.599 L245.875 989.599 L245.875 993.534 L231.801 993.534 L231.801 1002.01 Q232.82 1001.66 233.838 1001.5 Q234.857 1001.31 235.875 1001.31 Q241.662 1001.31 245.042 1004.48 Q248.422 1007.65 248.422 1013.07 Q248.422 1018.65 244.949 1021.75 Q241.477 1024.83 235.158 1024.83 Q232.982 1024.83 230.713 1024.46 Q228.468 1024.09 226.061 1023.35 L226.061 1018.65 Q228.144 1019.78 230.366 1020.34 Q232.588 1020.89 235.065 1020.89 Q239.07 1020.89 241.408 1018.79 Q243.746 1016.68 243.746 1013.07 Q243.746 1009.46 241.408 1007.35 Q239.07 1005.25 235.065 1005.25 Q233.19 1005.25 231.315 1005.66 Q229.463 1006.08 227.519 1006.96 L227.519 989.599 Z" fill="#000000" fill-rule="nonzero" fill-opacity="1" /><path clip-path="url(#clip850)" d="M50.9921 701.029 L80.6679 701.029 L80.6679 704.964 L50.9921 704.964 L50.9921 701.029 Z" fill="#000000" fill-rule="nonzero" fill-opacity="1" /><path clip-path="url(#clip850)" d="M100.76 686.376 Q97.1493 686.376 95.3206 689.941 Q93.515 693.483 93.515 700.612 Q93.515 707.719 95.3206 711.284 Q97.1493 714.825 100.76 714.825 Q104.395 714.825 106.2 711.284 Q108.029 707.719 108.029 700.612 Q108.029 693.483 106.2 689.941 Q104.395 686.376 100.76 686.376 M100.76 682.673 Q106.571 682.673 109.626 687.279 Q112.705 691.863 112.705 700.612 Q112.705 709.339 109.626 713.946 Q106.571 718.529 100.76 718.529 Q94.9502 718.529 91.8715 713.946 Q88.816 709.339 88.816 700.612 Q88.816 691.863 91.8715 687.279 Q94.9502 682.673 100.76 682.673 Z" fill="#000000" fill-rule="nonzero" fill-opacity="1" /><path clip-path="url(#clip850)" d="M120.922 711.978 L125.807 711.978 L125.807 717.858 L120.922 717.858 L120.922 711.978 Z" fill="#000000" fill-rule="nonzero" fill-opacity="1" /><path clip-path="url(#clip850)" d="M145.992 686.376 Q142.381 686.376 140.552 689.941 Q138.746 693.483 138.746 700.612 Q138.746 707.719 140.552 711.284 Q142.381 714.825 145.992 714.825 Q149.626 714.825 151.431 711.284 Q153.26 707.719 153.26 700.612 Q153.26 693.483 151.431 689.941 Q149.626 686.376 145.992 686.376 M145.992 682.673 Q151.802 682.673 154.857 687.279 Q157.936 691.863 157.936 700.612 Q157.936 709.339 154.857 713.946 Q151.802 718.529 145.992 718.529 Q140.181 718.529 137.103 713.946 Q134.047 709.339 134.047 700.612 Q134.047 691.863 137.103 687.279 Q140.181 682.673 145.992 682.673 Z" fill="#000000" fill-rule="nonzero" fill-opacity="1" /><path clip-path="url(#clip850)" d="M176.153 686.376 Q172.542 686.376 170.714 689.941 Q168.908 693.483 168.908 700.612 Q168.908 707.719 170.714 711.284 Q172.542 714.825 176.153 714.825 Q179.788 714.825 181.593 711.284 Q183.422 707.719 183.422 700.612 Q183.422 693.483 181.593 689.941 Q179.788 686.376 176.153 686.376 M176.153 682.673 Q181.964 682.673 185.019 687.279 Q188.098 691.863 188.098 700.612 Q188.098 709.339 185.019 713.946 Q181.964 718.529 176.153 718.529 Q170.343 718.529 167.265 713.946 Q164.209 709.339 164.209 700.612 Q164.209 691.863 167.265 687.279 Q170.343 682.673 176.153 682.673 Z" fill="#000000" fill-rule="nonzero" fill-opacity="1" /><path clip-path="url(#clip850)" d="M196.362 683.298 L214.718 683.298 L214.718 687.233 L200.644 687.233 L200.644 695.705 Q201.663 695.358 202.681 695.196 Q203.7 695.011 204.718 695.011 Q210.505 695.011 213.885 698.182 Q217.264 701.353 217.264 706.77 Q217.264 712.349 213.792 715.45 Q210.32 718.529 204.001 718.529 Q201.825 718.529 199.556 718.159 Q197.311 717.788 194.903 717.048 L194.903 712.349 Q196.987 713.483 199.209 714.038 Q201.431 714.594 203.908 714.594 Q207.913 714.594 210.251 712.487 Q212.588 710.381 212.588 706.77 Q212.588 703.159 210.251 701.052 Q207.913 698.946 203.908 698.946 Q202.033 698.946 200.158 699.362 Q198.306 699.779 196.362 700.659 L196.362 683.298 Z" fill="#000000" fill-rule="nonzero" fill-opacity="1" /><path clip-path="url(#clip850)" d="M236.477 686.376 Q232.866 686.376 231.037 689.941 Q229.232 693.483 229.232 700.612 Q229.232 707.719 231.037 711.284 Q232.866 714.825 236.477 714.825 Q240.111 714.825 241.917 711.284 Q243.746 707.719 243.746 700.612 Q243.746 693.483 241.917 689.941 Q240.111 686.376 236.477 686.376 M236.477 682.673 Q242.287 682.673 245.343 687.279 Q248.422 691.863 248.422 700.612 Q248.422 709.339 245.343 713.946 Q242.287 718.529 236.477 718.529 Q230.667 718.529 227.588 713.946 Q224.533 709.339 224.533 700.612 Q224.533 691.863 227.588 687.279 Q230.667 682.673 236.477 682.673 Z" fill="#000000" fill-rule="nonzero" fill-opacity="1" /><path clip-path="url(#clip850)" d="M51.9875 394.728 L81.6633 394.728 L81.6633 398.664 L51.9875 398.664 L51.9875 394.728 Z" fill="#000000" fill-rule="nonzero" fill-opacity="1" /><path clip-path="url(#clip850)" d="M101.756 380.076 Q98.1447 380.076 96.316 383.641 Q94.5104 387.182 94.5104 394.312 Q94.5104 401.418 96.316 404.983 Q98.1447 408.525 101.756 408.525 Q105.39 408.525 107.196 404.983 Q109.024 401.418 109.024 394.312 Q109.024 387.182 107.196 383.641 Q105.39 380.076 101.756 380.076 M101.756 376.372 Q107.566 376.372 110.621 380.978 Q113.7 385.562 113.7 394.312 Q113.7 403.039 110.621 407.645 Q107.566 412.228 101.756 412.228 Q95.9456 412.228 92.8669 407.645 Q89.8114 403.039 89.8114 394.312 Q89.8114 385.562 92.8669 380.978 Q95.9456 376.372 101.756 376.372 Z" fill="#000000" fill-rule="nonzero" fill-opacity="1" /><path clip-path="url(#clip850)" d="M121.918 405.677 L126.802 405.677 L126.802 411.557 L121.918 411.557 L121.918 405.677 Z" fill="#000000" fill-rule="nonzero" fill-opacity="1" /><path clip-path="url(#clip850)" d="M146.987 380.076 Q143.376 380.076 141.547 383.641 Q139.742 387.182 139.742 394.312 Q139.742 401.418 141.547 404.983 Q143.376 408.525 146.987 408.525 Q150.621 408.525 152.427 404.983 Q154.255 401.418 154.255 394.312 Q154.255 387.182 152.427 383.641 Q150.621 380.076 146.987 380.076 M146.987 376.372 Q152.797 376.372 155.853 380.978 Q158.931 385.562 158.931 394.312 Q158.931 403.039 155.853 407.645 Q152.797 412.228 146.987 412.228 Q141.177 412.228 138.098 407.645 Q135.043 403.039 135.043 394.312 Q135.043 385.562 138.098 380.978 Q141.177 376.372 146.987 376.372 Z" fill="#000000" fill-rule="nonzero" fill-opacity="1" /><path clip-path="url(#clip850)" d="M177.149 380.076 Q173.538 380.076 171.709 383.641 Q169.904 387.182 169.904 394.312 Q169.904 401.418 171.709 404.983 Q173.538 408.525 177.149 408.525 Q180.783 408.525 182.589 404.983 Q184.417 401.418 184.417 394.312 Q184.417 387.182 182.589 383.641 Q180.783 380.076 177.149 380.076 M177.149 376.372 Q182.959 376.372 186.015 380.978 Q189.093 385.562 189.093 394.312 Q189.093 403.039 186.015 407.645 Q182.959 412.228 177.149 412.228 Q171.339 412.228 168.26 407.645 Q165.204 403.039 165.204 394.312 Q165.204 385.562 168.26 380.978 Q171.339 376.372 177.149 376.372 Z" fill="#000000" fill-rule="nonzero" fill-opacity="1" /><path clip-path="url(#clip850)" d="M201.339 407.622 L217.658 407.622 L217.658 411.557 L195.714 411.557 L195.714 407.622 Q198.376 404.867 202.959 400.238 Q207.565 395.585 208.746 394.242 Q210.991 391.719 211.871 389.983 Q212.774 388.224 212.774 386.534 Q212.774 383.779 210.829 382.043 Q208.908 380.307 205.806 380.307 Q203.607 380.307 201.153 381.071 Q198.723 381.835 195.945 383.386 L195.945 378.664 Q198.769 377.529 201.223 376.951 Q203.676 376.372 205.714 376.372 Q211.084 376.372 214.278 379.057 Q217.473 381.742 217.473 386.233 Q217.473 388.363 216.663 390.284 Q215.876 392.182 213.769 394.775 Q213.19 395.446 210.088 398.664 Q206.987 401.858 201.339 407.622 Z" fill="#000000" fill-rule="nonzero" fill-opacity="1" /><path clip-path="url(#clip850)" d="M227.519 376.997 L245.875 376.997 L245.875 380.932 L231.801 380.932 L231.801 389.404 Q232.82 389.057 233.838 388.895 Q234.857 388.71 235.875 388.71 Q241.662 388.71 245.042 391.881 Q248.422 395.052 248.422 400.469 Q248.422 406.048 244.949 409.15 Q241.477 412.228 235.158 412.228 Q232.982 412.228 230.713 411.858 Q228.468 411.488 226.061 410.747 L226.061 406.048 Q228.144 407.182 230.366 407.738 Q232.588 408.293 235.065 408.293 Q239.07 408.293 241.408 406.187 Q243.746 404.08 243.746 400.469 Q243.746 396.858 241.408 394.752 Q239.07 392.645 235.065 392.645 Q233.19 392.645 231.315 393.062 Q229.463 393.478 227.519 394.358 L227.519 376.997 Z" fill="#000000" fill-rule="nonzero" fill-opacity="1" /><path clip-path="url(#clip850)" d="M100.76 73.775 Q97.1493 73.775 95.3206 77.3398 Q93.515 80.8814 93.515 88.011 Q93.515 95.1174 95.3206 98.6822 Q97.1493 102.224 100.76 102.224 Q104.395 102.224 106.2 98.6822 Q108.029 95.1174 108.029 88.011 Q108.029 80.8814 106.2 77.3398 Q104.395 73.775 100.76 73.775 M100.76 70.0713 Q106.571 70.0713 109.626 74.6777 Q112.705 79.261 112.705 88.011 Q112.705 96.7378 109.626 101.344 Q106.571 105.928 100.76 105.928 Q94.9502 105.928 91.8715 101.344 Q88.816 96.7378 88.816 88.011 Q88.816 79.261 91.8715 74.6777 Q94.9502 70.0713 100.76 70.0713 Z" fill="#000000" fill-rule="nonzero" fill-opacity="1" /><path clip-path="url(#clip850)" d="M120.922 99.3767 L125.807 99.3767 L125.807 105.256 L120.922 105.256 L120.922 99.3767 Z" fill="#000000" fill-rule="nonzero" fill-opacity="1" /><path clip-path="url(#clip850)" d="M145.992 73.775 Q142.381 73.775 140.552 77.3398 Q138.746 80.8814 138.746 88.011 Q138.746 95.1174 140.552 98.6822 Q142.381 102.224 145.992 102.224 Q149.626 102.224 151.431 98.6822 Q153.26 95.1174 153.26 88.011 Q153.26 80.8814 151.431 77.3398 Q149.626 73.775 145.992 73.775 M145.992 70.0713 Q151.802 70.0713 154.857 74.6777 Q157.936 79.261 157.936 88.011 Q157.936 96.7378 154.857 101.344 Q151.802 105.928 145.992 105.928 Q140.181 105.928 137.103 101.344 Q134.047 96.7378 134.047 88.011 Q134.047 79.261 137.103 74.6777 Q140.181 70.0713 145.992 70.0713 Z" fill="#000000" fill-rule="nonzero" fill-opacity="1" /><path clip-path="url(#clip850)" d="M176.153 73.775 Q172.542 73.775 170.714 77.3398 Q168.908 80.8814 168.908 88.011 Q168.908 95.1174 170.714 98.6822 Q172.542 102.224 176.153 102.224 Q179.788 102.224 181.593 98.6822 Q183.422 95.1174 183.422 88.011 Q183.422 80.8814 181.593 77.3398 Q179.788 73.775 176.153 73.775 M176.153 70.0713 Q181.964 70.0713 185.019 74.6777 Q188.098 79.261 188.098 88.011 Q188.098 96.7378 185.019 101.344 Q181.964 105.928 176.153 105.928 Q170.343 105.928 167.265 101.344 Q164.209 96.7378 164.209 88.011 Q164.209 79.261 167.265 74.6777 Q170.343 70.0713 176.153 70.0713 Z" fill="#000000" fill-rule="nonzero" fill-opacity="1" /><path clip-path="url(#clip850)" d="M206.315 73.775 Q202.704 73.775 200.876 77.3398 Q199.07 80.8814 199.07 88.011 Q199.07 95.1174 200.876 98.6822 Q202.704 102.224 206.315 102.224 Q209.95 102.224 211.755 98.6822 Q213.584 95.1174 213.584 88.011 Q213.584 80.8814 211.755 77.3398 Q209.95 73.775 206.315 73.775 M206.315 70.0713 Q212.126 70.0713 215.181 74.6777 Q218.26 79.261 218.26 88.011 Q218.26 96.7378 215.181 101.344 Q212.126 105.928 206.315 105.928 Q200.505 105.928 197.427 101.344 Q194.371 96.7378 194.371 88.011 Q194.371 79.261 197.427 74.6777 Q200.505 70.0713 206.315 70.0713 Z" fill="#000000" fill-rule="nonzero" fill-opacity="1" /><path clip-path="url(#clip850)" d="M236.477 73.775 Q232.866 73.775 231.037 77.3398 Q229.232 80.8814 229.232 88.011 Q229.232 95.1174 231.037 98.6822 Q232.866 102.224 236.477 102.224 Q240.111 102.224 241.917 98.6822 Q243.746 95.1174 243.746 88.011 Q243.746 80.8814 241.917 77.3398 Q240.111 73.775 236.477 73.775 M236.477 70.0713 Q242.287 70.0713 245.343 74.6777 Q248.422 79.261 248.422 88.011 Q248.422 96.7378 245.343 101.344 Q242.287 105.928 236.477 105.928 Q230.667 105.928 227.588 101.344 Q224.533 96.7378 224.533 88.011 Q224.533 79.261 227.588 74.6777 Q230.667 70.0713 236.477 70.0713 Z" fill="#000000" fill-rule="nonzero" fill-opacity="1" /><polyline clip-path="url(#clip851)" style="stroke:#009af9; stroke-linecap:round; stroke-linejoin:round; stroke-width:4; stroke-opacity:1; fill:none" points="342.959,87.9763 350.764,87.9763 358.569,87.9763 366.374,87.9763 374.18,87.9763 381.985,87.9763 389.79,87.9763 397.595,87.9763 405.4,87.9763 413.205,87.9763 421.01,87.9763 428.815,87.9763 436.62,87.9763 444.425,87.9763 452.23,87.9763 460.035,87.9763 467.84,87.9763 475.645,87.9763 483.45,87.9763 491.255,87.9763 499.06,87.9763 506.865,87.9763 514.67,87.9763 522.475,87.9763 530.28,87.9763 538.085,87.9763 545.89,87.9763 553.695,87.9763 561.5,87.9763 569.305,87.9763 577.11,87.9763 584.915,87.9763 592.721,87.9763 600.526,87.9763 608.331,87.9763 616.136,87.9763 623.941,87.9763 631.746,87.9763 639.551,87.9763 647.356,87.9763 655.161,87.9763 662.966,87.9763 670.771,87.9763 678.576,87.9763 686.381,87.9763 694.186,87.9763 701.991,87.9763 709.796,87.9763 717.601,87.9763 725.406,87.9763 733.211,87.9763 741.016,87.9763 748.821,87.9763 756.626,87.9763 764.431,87.9763 772.236,87.9763 780.041,87.9763 787.846,87.9763 795.651,87.9763 803.456,87.9763 811.261,87.9763 819.067,87.9763 826.872,87.9763 834.677,87.9763 842.482,87.9763 850.287,87.9763 858.092,87.9763 865.897,87.9763 873.702,87.9763 881.507,87.9763 889.312,87.9763 897.117,87.9763 904.922,87.9763 912.727,87.9763 920.532,87.9763 928.337,87.9763 936.142,87.9763 943.947,87.9763 951.752,87.9763 959.557,87.9763 967.362,87.9763 975.167,87.9763 982.972,87.9763 990.777,87.9763 998.582,87.9763 1006.39,87.9763 1014.19,87.9763 1022,87.9763 1029.8,87.9763 1037.61,87.9764 1045.41,307.052 1053.22,1445.72 1061.02,1445.72 1068.83,1445.72 1076.63,1445.72 1084.44,1445.72 1092.24,1445.72 1100.05,1445.72 1107.85,1445.72 1115.66,1445.72 1123.46,1445.72 1131.27,1445.72 1139.07,1445.72 1146.88,1445.72 1154.68,1445.72 1162.49,1445.72 1170.29,1445.72 1178.1,1445.72 1185.9,1445.72 1193.71,1445.72 1201.51,1445.72 1209.32,1445.72 1217.12,1445.72 1224.93,1445.72 1232.73,1445.72 1240.54,1445.72 1248.34,1445.72 1256.15,1445.72 1263.95,1445.72 1271.76,1445.72 1279.56,1445.72 1287.37,1445.72 1295.17,1445.72 1302.98,1445.72 1310.78,1445.72 1318.59,1445.72 1326.39,1445.72 1334.2,1445.72 1342,1445.72 1349.81,1445.72 1357.61,1445.72 1365.42,1445.72 1373.22,1445.72 1381.03,1445.72 1388.83,1445.72 1396.64,1445.72 1404.44,1445.72 1412.25,1445.72 1420.05,1445.72 1427.86,1445.72 1435.66,1445.72 1443.47,1445.72 1451.27,1445.72 1459.08,1445.72 1466.88,1445.72 1474.69,1445.72 1482.49,1445.72 1490.3,1445.72 1498.1,1445.72 1505.91,1445.72 1513.71,1445.72 1521.52,1445.72 1529.32,1445.72 1537.13,1445.72 1544.93,1445.72 1552.74,1445.72 1560.54,1445.72 1568.35,1445.72 1576.15,1445.72 1583.96,1445.72 1591.76,327.339 1599.57,87.9764 1607.38,87.9763 1615.18,87.9763 1622.99,87.9763 1630.79,87.9763 1638.6,87.9763 1646.4,87.9763 1654.21,87.9763 1662.01,87.9763 1669.82,87.9763 1677.62,87.9763 1685.43,87.9763 1693.23,87.9763 1701.04,87.9763 1708.84,87.9763 1716.65,87.9763 1724.45,87.9763 1732.26,87.9763 1740.06,87.9763 1747.87,87.9763 1755.67,87.9763 1763.48,87.9763 1771.28,87.9763 1779.09,87.9763 1786.89,87.9763 1794.7,87.9763 1802.5,87.9763 1810.31,87.9763 1818.11,87.9763 1825.92,87.9763 1833.72,87.9763 1841.53,87.9763 1849.33,87.9763 1857.14,87.9763 1864.94,87.9763 1872.75,87.9763 1880.55,87.9763 1888.36,87.9763 1896.16,87.9763 1903.97,87.9763 1911.77,87.9763 1919.58,87.9763 1927.38,87.9763 1935.19,87.9763 1942.99,87.9763 1950.8,87.9763 1958.6,87.9763 1966.41,87.9763 1974.21,87.9763 1982.02,87.9763 1989.82,87.9763 1997.63,87.9763 2005.43,87.9763 2013.24,87.9763 2021.04,87.9763 2028.85,87.9763 2036.65,87.9763 2044.46,87.9763 2052.26,87.9763 2060.07,87.9763 2067.87,87.9763 2075.68,87.9763 2083.48,87.9763 2091.29,87.9763 2099.09,87.9763 2106.9,87.9763 2114.7,87.9763 2122.51,87.9763 2130.31,87.9763 2138.12,87.9763 2145.92,87.9763 2153.73,87.9763 2161.53,87.9763 2169.34,87.9763 2177.14,87.9763 2184.95,87.9763 2192.75,87.9763 2200.56,87.9763 2208.36,87.9763 2216.17,87.9763 2223.97,87.9763 2231.78,87.9763 2239.58,87.9763 2247.39,87.9763 2255.19,87.9763 2263,87.9763 2270.8,87.9763 2278.61,87.9763 2286.41,87.9763 2294.22,87.9763 "/>
<path clip-path="url(#clip850)" d="M2024.55 1438.47 L2283.81 1438.47 L2283.81 1334.79 L2024.55 1334.79  Z" fill="#ffffff" fill-rule="evenodd" fill-opacity="1"/>
<polyline clip-path="url(#clip850)" style="stroke:#000000; stroke-linecap:round; stroke-linejoin:round; stroke-width:4; stroke-opacity:1; fill:none" points="2024.55,1438.47 2283.81,1438.47 2283.81,1334.79 2024.55,1334.79 2024.55,1438.47 "/>
<polyline clip-path="url(#clip850)" style="stroke:#009af9; stroke-linecap:round; stroke-linejoin:round; stroke-width:4; stroke-opacity:1; fill:none" points="2047.53,1386.63 2185.42,1386.63 "/>
<path clip-path="url(#clip850)" d="M2222.24 1406.32 Q2220.44 1410.95 2218.72 1412.36 Q2217.01 1413.78 2214.14 1413.78 L2210.74 1413.78 L2210.74 1410.21 L2213.24 1410.21 Q2215 1410.21 2215.97 1409.38 Q2216.94 1408.54 2218.12 1405.44 L2218.89 1403.5 L2208.4 1377.99 L2212.91 1377.99 L2221.02 1398.27 L2229.12 1377.99 L2233.63 1377.99 L2222.24 1406.32 Z" fill="#000000" fill-rule="nonzero" fill-opacity="1" /><path clip-path="url(#clip850)" d="M2240.92 1399.98 L2248.56 1399.98 L2248.56 1373.61 L2240.25 1375.28 L2240.25 1371.02 L2248.52 1369.35 L2253.19 1369.35 L2253.19 1399.98 L2260.83 1399.98 L2260.83 1403.91 L2240.92 1403.91 L2240.92 1399.98 Z" fill="#000000" fill-rule="nonzero" fill-opacity="1" /></svg>
