<?xml version="1.0" encoding="utf-8"?>
<svg xmlns="http://www.w3.org/2000/svg" xmlns:xlink="http://www.w3.org/1999/xlink" width="600" height="400" viewBox="0 0 2400 1600">
<defs>
  <clipPath id="clip190">
    <rect x="0" y="0" width="2400" height="1600"/>
  </clipPath>
</defs>
<path clip-path="url(#clip190)" d="M0 1600 L2400 1600 L2400 0 L0 0  Z" fill="#ffffff" fill-rule="evenodd" fill-opacity="1"/>
<defs>
  <clipPath id="clip191">
    <rect x="480" y="0" width="1681" height="1600"/>
  </clipPath>
</defs>
<path clip-path="url(#clip190)" d="M225.432 1427.5 L2352.76 1427.5 L2352.76 47.2441 L225.432 47.2441  Z" fill="#ffffff" fill-rule="evenodd" fill-opacity="1"/>
<defs>
  <clipPath id="clip192">
    <rect x="225" y="47" width="2128" height="1381"/>
  </clipPath>
</defs>
<polyline clip-path="url(#clip192)" style="stroke:#000000; stroke-linecap:round; stroke-linejoin:round; stroke-width:2; stroke-opacity:0.1; fill:none" points="285.639,1427.5 285.639,47.2441 "/>
<polyline clip-path="url(#clip192)" style="stroke:#000000; stroke-linecap:round; stroke-linejoin:round; stroke-width:2; stroke-opacity:0.1; fill:none" points="787.367,1427.5 787.367,47.2441 "/>
<polyline clip-path="url(#clip192)" style="stroke:#000000; stroke-linecap:round; stroke-linejoin:round; stroke-width:2; stroke-opacity:0.1; fill:none" points="1289.09,1427.5 1289.09,47.2441 "/>
<polyline clip-path="url(#clip192)" style="stroke:#000000; stroke-linecap:round; stroke-linejoin:round; stroke-width:2; stroke-opacity:0.1; fill:none" points="1790.82,1427.5 1790.82,47.2441 "/>
<polyline clip-path="url(#clip192)" style="stroke:#000000; stroke-linecap:round; stroke-linejoin:round; stroke-width:2; stroke-opacity:0.1; fill:none" points="2292.55,1427.5 2292.55,47.2441 "/>
<polyline clip-path="url(#clip192)" style="stroke:#000000; stroke-linecap:round; stroke-linejoin:round; stroke-width:2; stroke-opacity:0.1; fill:none" points="225.432,1277.31 2352.76,1277.31 "/>
<polyline clip-path="url(#clip192)" style="stroke:#000000; stroke-linecap:round; stroke-linejoin:round; stroke-width:2; stroke-opacity:0.1; fill:none" points="225.432,1006.04 2352.76,1006.04 "/>
<polyline clip-path="url(#clip192)" style="stroke:#000000; stroke-linecap:round; stroke-linejoin:round; stroke-width:2; stroke-opacity:0.1; fill:none" points="225.432,734.768 2352.76,734.768 "/>
<polyline clip-path="url(#clip192)" style="stroke:#000000; stroke-linecap:round; stroke-linejoin:round; stroke-width:2; stroke-opacity:0.1; fill:none" points="225.432,463.495 2352.76,463.495 "/>
<polyline clip-path="url(#clip192)" style="stroke:#000000; stroke-linecap:round; stroke-linejoin:round; stroke-width:2; stroke-opacity:0.1; fill:none" points="225.432,192.223 2352.76,192.223 "/>
<polyline clip-path="url(#clip190)" style="stroke:#000000; stroke-linecap:round; stroke-linejoin:round; stroke-width:4; stroke-opacity:1; fill:none" points="225.432,1427.5 2352.76,1427.5 "/>
<polyline clip-path="url(#clip190)" style="stroke:#000000; stroke-linecap:round; stroke-linejoin:round; stroke-width:4; stroke-opacity:1; fill:none" points="285.639,1427.5 285.639,1408.6 "/>
<polyline clip-path="url(#clip190)" style="stroke:#000000; stroke-linecap:round; stroke-linejoin:round; stroke-width:4; stroke-opacity:1; fill:none" points="787.367,1427.5 787.367,1408.6 "/>
<polyline clip-path="url(#clip190)" style="stroke:#000000; stroke-linecap:round; stroke-linejoin:round; stroke-width:4; stroke-opacity:1; fill:none" points="1289.09,1427.5 1289.09,1408.6 "/>
<polyline clip-path="url(#clip190)" style="stroke:#000000; stroke-linecap:round; stroke-linejoin:round; stroke-width:4; stroke-opacity:1; fill:none" points="1790.82,1427.5 1790.82,1408.6 "/>
<polyline clip-path="url(#clip190)" style="stroke:#000000; stroke-linecap:round; stroke-linejoin:round; stroke-width:4; stroke-opacity:1; fill:none" points="2292.55,1427.5 2292.55,1408.6 "/>
<path clip-path="url(#clip190)" d="M247.943 1458.42 Q244.332 1458.42 242.503 1461.98 Q240.697 1465.52 240.697 1472.65 Q240.697 1479.76 242.503 1483.33 Q244.332 1486.87 247.943 1486.87 Q251.577 1486.87 253.383 1483.33 Q255.211 1479.76 255.211 1472.65 Q255.211 1465.52 253.383 1461.98 Q251.577 1458.42 247.943 1458.42 M247.943 1454.71 Q253.753 1454.71 256.808 1459.32 Q259.887 1463.9 259.887 1472.65 Q259.887 1481.38 256.808 1485.99 Q253.753 1490.57 247.943 1490.57 Q242.133 1490.57 239.054 1485.99 Q235.998 1481.38 235.998 1472.65 Q235.998 1463.9 239.054 1459.32 Q242.133 1454.71 247.943 1454.71 Z" fill="#000000" fill-rule="nonzero" fill-opacity="1" /><path clip-path="url(#clip190)" d="M268.105 1484.02 L272.989 1484.02 L272.989 1489.9 L268.105 1489.9 L268.105 1484.02 Z" fill="#000000" fill-rule="nonzero" fill-opacity="1" /><path clip-path="url(#clip190)" d="M293.174 1458.42 Q289.563 1458.42 287.734 1461.98 Q285.929 1465.52 285.929 1472.65 Q285.929 1479.76 287.734 1483.33 Q289.563 1486.87 293.174 1486.87 Q296.808 1486.87 298.614 1483.33 Q300.443 1479.76 300.443 1472.65 Q300.443 1465.52 298.614 1461.98 Q296.808 1458.42 293.174 1458.42 M293.174 1454.71 Q298.984 1454.71 302.04 1459.32 Q305.118 1463.9 305.118 1472.65 Q305.118 1481.38 302.04 1485.99 Q298.984 1490.57 293.174 1490.57 Q287.364 1490.57 284.285 1485.99 Q281.23 1481.38 281.23 1472.65 Q281.23 1463.9 284.285 1459.32 Q287.364 1454.71 293.174 1454.71 Z" fill="#000000" fill-rule="nonzero" fill-opacity="1" /><path clip-path="url(#clip190)" d="M323.336 1458.42 Q319.725 1458.42 317.896 1461.98 Q316.091 1465.52 316.091 1472.65 Q316.091 1479.76 317.896 1483.33 Q319.725 1486.87 323.336 1486.87 Q326.97 1486.87 328.776 1483.33 Q330.604 1479.76 330.604 1472.65 Q330.604 1465.52 328.776 1461.98 Q326.97 1458.42 323.336 1458.42 M323.336 1454.71 Q329.146 1454.71 332.202 1459.32 Q335.28 1463.9 335.28 1472.65 Q335.28 1481.38 332.202 1485.99 Q329.146 1490.57 323.336 1490.57 Q317.526 1490.57 314.447 1485.99 Q311.392 1481.38 311.392 1472.65 Q311.392 1463.9 314.447 1459.32 Q317.526 1454.71 323.336 1454.71 Z" fill="#000000" fill-rule="nonzero" fill-opacity="1" /><path clip-path="url(#clip190)" d="M750.168 1458.42 Q746.557 1458.42 744.728 1461.98 Q742.922 1465.52 742.922 1472.65 Q742.922 1479.76 744.728 1483.33 Q746.557 1486.87 750.168 1486.87 Q753.802 1486.87 755.608 1483.33 Q757.436 1479.76 757.436 1472.65 Q757.436 1465.52 755.608 1461.98 Q753.802 1458.42 750.168 1458.42 M750.168 1454.71 Q755.978 1454.71 759.033 1459.32 Q762.112 1463.9 762.112 1472.65 Q762.112 1481.38 759.033 1485.99 Q755.978 1490.57 750.168 1490.57 Q744.358 1490.57 741.279 1485.99 Q738.223 1481.38 738.223 1472.65 Q738.223 1463.9 741.279 1459.32 Q744.358 1454.71 750.168 1454.71 Z" fill="#000000" fill-rule="nonzero" fill-opacity="1" /><path clip-path="url(#clip190)" d="M770.33 1484.02 L775.214 1484.02 L775.214 1489.9 L770.33 1489.9 L770.33 1484.02 Z" fill="#000000" fill-rule="nonzero" fill-opacity="1" /><path clip-path="url(#clip190)" d="M789.427 1485.96 L805.746 1485.96 L805.746 1489.9 L783.802 1489.9 L783.802 1485.96 Q786.464 1483.21 791.047 1478.58 Q795.654 1473.93 796.834 1472.59 Q799.08 1470.06 799.959 1468.33 Q800.862 1466.57 800.862 1464.88 Q800.862 1462.12 798.918 1460.39 Q796.996 1458.65 793.894 1458.65 Q791.695 1458.65 789.242 1459.41 Q786.811 1460.18 784.033 1461.73 L784.033 1457.01 Q786.857 1455.87 789.311 1455.29 Q791.765 1454.71 793.802 1454.71 Q799.172 1454.71 802.367 1457.4 Q805.561 1460.09 805.561 1464.58 Q805.561 1466.71 804.751 1468.63 Q803.964 1470.52 801.857 1473.12 Q801.279 1473.79 798.177 1477.01 Q795.075 1480.2 789.427 1485.96 Z" fill="#000000" fill-rule="nonzero" fill-opacity="1" /><path clip-path="url(#clip190)" d="M815.607 1455.34 L833.964 1455.34 L833.964 1459.28 L819.89 1459.28 L819.89 1467.75 Q820.908 1467.4 821.927 1467.24 Q822.945 1467.05 823.964 1467.05 Q829.751 1467.05 833.13 1470.22 Q836.51 1473.4 836.51 1478.81 Q836.51 1484.39 833.038 1487.49 Q829.566 1490.57 823.246 1490.57 Q821.07 1490.57 818.802 1490.2 Q816.556 1489.83 814.149 1489.09 L814.149 1484.39 Q816.232 1485.52 818.454 1486.08 Q820.677 1486.64 823.154 1486.64 Q827.158 1486.64 829.496 1484.53 Q831.834 1482.42 831.834 1478.81 Q831.834 1475.2 829.496 1473.09 Q827.158 1470.99 823.154 1470.99 Q821.279 1470.99 819.404 1471.4 Q817.552 1471.82 815.607 1472.7 L815.607 1455.34 Z" fill="#000000" fill-rule="nonzero" fill-opacity="1" /><path clip-path="url(#clip190)" d="M1251.4 1458.42 Q1247.79 1458.42 1245.96 1461.98 Q1244.15 1465.52 1244.15 1472.65 Q1244.15 1479.76 1245.96 1483.33 Q1247.79 1486.87 1251.4 1486.87 Q1255.03 1486.87 1256.84 1483.33 Q1258.67 1479.76 1258.67 1472.65 Q1258.67 1465.52 1256.84 1461.98 Q1255.03 1458.42 1251.4 1458.42 M1251.4 1454.71 Q1257.21 1454.71 1260.26 1459.32 Q1263.34 1463.9 1263.34 1472.65 Q1263.34 1481.38 1260.26 1485.99 Q1257.21 1490.57 1251.4 1490.57 Q1245.59 1490.57 1242.51 1485.99 Q1239.45 1481.38 1239.45 1472.65 Q1239.45 1463.9 1242.51 1459.32 Q1245.59 1454.71 1251.4 1454.71 Z" fill="#000000" fill-rule="nonzero" fill-opacity="1" /><path clip-path="url(#clip190)" d="M1271.56 1484.02 L1276.44 1484.02 L1276.44 1489.9 L1271.56 1489.9 L1271.56 1484.02 Z" fill="#000000" fill-rule="nonzero" fill-opacity="1" /><path clip-path="url(#clip190)" d="M1286.68 1455.34 L1305.03 1455.34 L1305.03 1459.28 L1290.96 1459.28 L1290.96 1467.75 Q1291.98 1467.4 1292.99 1467.24 Q1294.01 1467.05 1295.03 1467.05 Q1300.82 1467.05 1304.2 1470.22 Q1307.58 1473.4 1307.58 1478.81 Q1307.58 1484.39 1304.11 1487.49 Q1300.63 1490.57 1294.31 1490.57 Q1292.14 1490.57 1289.87 1490.2 Q1287.62 1489.83 1285.22 1489.09 L1285.22 1484.39 Q1287.3 1485.52 1289.52 1486.08 Q1291.74 1486.64 1294.22 1486.64 Q1298.23 1486.64 1300.56 1484.53 Q1302.9 1482.42 1302.9 1478.81 Q1302.9 1475.2 1300.56 1473.09 Q1298.23 1470.99 1294.22 1470.99 Q1292.35 1470.99 1290.47 1471.4 Q1288.62 1471.82 1286.68 1472.7 L1286.68 1455.34 Z" fill="#000000" fill-rule="nonzero" fill-opacity="1" /><path clip-path="url(#clip190)" d="M1326.79 1458.42 Q1323.18 1458.42 1321.35 1461.98 Q1319.55 1465.52 1319.55 1472.65 Q1319.55 1479.76 1321.35 1483.33 Q1323.18 1486.87 1326.79 1486.87 Q1330.42 1486.87 1332.23 1483.33 Q1334.06 1479.76 1334.06 1472.65 Q1334.06 1465.52 1332.23 1461.98 Q1330.42 1458.42 1326.79 1458.42 M1326.79 1454.71 Q1332.6 1454.71 1335.66 1459.32 Q1338.73 1463.9 1338.73 1472.65 Q1338.73 1481.38 1335.66 1485.99 Q1332.6 1490.57 1326.79 1490.57 Q1320.98 1490.57 1317.9 1485.99 Q1314.85 1481.38 1314.85 1472.65 Q1314.85 1463.9 1317.9 1459.32 Q1320.98 1454.71 1326.79 1454.71 Z" fill="#000000" fill-rule="nonzero" fill-opacity="1" /><path clip-path="url(#clip190)" d="M1753.62 1458.42 Q1750.01 1458.42 1748.18 1461.98 Q1746.38 1465.52 1746.38 1472.65 Q1746.38 1479.76 1748.18 1483.33 Q1750.01 1486.87 1753.62 1486.87 Q1757.26 1486.87 1759.06 1483.33 Q1760.89 1479.76 1760.89 1472.65 Q1760.89 1465.52 1759.06 1461.98 Q1757.26 1458.42 1753.62 1458.42 M1753.62 1454.71 Q1759.43 1454.71 1762.49 1459.32 Q1765.57 1463.9 1765.57 1472.65 Q1765.57 1481.38 1762.49 1485.99 Q1759.43 1490.57 1753.62 1490.57 Q1747.81 1490.57 1744.73 1485.99 Q1741.68 1481.38 1741.68 1472.65 Q1741.68 1463.9 1744.73 1459.32 Q1747.81 1454.71 1753.62 1454.71 Z" fill="#000000" fill-rule="nonzero" fill-opacity="1" /><path clip-path="url(#clip190)" d="M1773.78 1484.02 L1778.67 1484.02 L1778.67 1489.9 L1773.78 1489.9 L1773.78 1484.02 Z" fill="#000000" fill-rule="nonzero" fill-opacity="1" /><path clip-path="url(#clip190)" d="M1787.67 1455.34 L1809.9 1455.34 L1809.9 1457.33 L1797.35 1489.9 L1792.46 1489.9 L1804.27 1459.28 L1787.67 1459.28 L1787.67 1455.34 Z" fill="#000000" fill-rule="nonzero" fill-opacity="1" /><path clip-path="url(#clip190)" d="M1819.06 1455.34 L1837.42 1455.34 L1837.42 1459.28 L1823.34 1459.28 L1823.34 1467.75 Q1824.36 1467.4 1825.38 1467.24 Q1826.4 1467.05 1827.42 1467.05 Q1833.21 1467.05 1836.58 1470.22 Q1839.96 1473.4 1839.96 1478.81 Q1839.96 1484.39 1836.49 1487.49 Q1833.02 1490.57 1826.7 1490.57 Q1824.52 1490.57 1822.26 1490.2 Q1820.01 1489.83 1817.6 1489.09 L1817.6 1484.39 Q1819.69 1485.52 1821.91 1486.08 Q1824.13 1486.64 1826.61 1486.64 Q1830.61 1486.64 1832.95 1484.53 Q1835.29 1482.42 1835.29 1478.81 Q1835.29 1475.2 1832.95 1473.09 Q1830.61 1470.99 1826.61 1470.99 Q1824.73 1470.99 1822.86 1471.4 Q1821.01 1471.82 1819.06 1472.7 L1819.06 1455.34 Z" fill="#000000" fill-rule="nonzero" fill-opacity="1" /><path clip-path="url(#clip190)" d="M2244.62 1485.96 L2252.26 1485.96 L2252.26 1459.6 L2243.95 1461.27 L2243.95 1457.01 L2252.21 1455.34 L2256.89 1455.34 L2256.89 1485.96 L2264.53 1485.96 L2264.53 1489.9 L2244.62 1489.9 L2244.62 1485.96 Z" fill="#000000" fill-rule="nonzero" fill-opacity="1" /><path clip-path="url(#clip190)" d="M2273.97 1484.02 L2278.86 1484.02 L2278.86 1489.9 L2273.97 1489.9 L2273.97 1484.02 Z" fill="#000000" fill-rule="nonzero" fill-opacity="1" /><path clip-path="url(#clip190)" d="M2299.04 1458.42 Q2295.43 1458.42 2293.6 1461.98 Q2291.8 1465.52 2291.8 1472.65 Q2291.8 1479.76 2293.6 1483.33 Q2295.43 1486.87 2299.04 1486.87 Q2302.68 1486.87 2304.48 1483.33 Q2306.31 1479.76 2306.31 1472.65 Q2306.31 1465.52 2304.48 1461.98 Q2302.68 1458.42 2299.04 1458.42 M2299.04 1454.71 Q2304.85 1454.71 2307.91 1459.32 Q2310.99 1463.9 2310.99 1472.65 Q2310.99 1481.38 2307.91 1485.99 Q2304.85 1490.57 2299.04 1490.57 Q2293.23 1490.57 2290.15 1485.99 Q2287.1 1481.38 2287.1 1472.65 Q2287.1 1463.9 2290.15 1459.32 Q2293.23 1454.71 2299.04 1454.71 Z" fill="#000000" fill-rule="nonzero" fill-opacity="1" /><path clip-path="url(#clip190)" d="M2329.2 1458.42 Q2325.59 1458.42 2323.76 1461.98 Q2321.96 1465.52 2321.96 1472.65 Q2321.96 1479.76 2323.76 1483.33 Q2325.59 1486.87 2329.2 1486.87 Q2332.84 1486.87 2334.64 1483.33 Q2336.47 1479.76 2336.47 1472.65 Q2336.47 1465.52 2334.64 1461.98 Q2332.84 1458.42 2329.2 1458.42 M2329.2 1454.71 Q2335.01 1454.71 2338.07 1459.32 Q2341.15 1463.9 2341.15 1472.65 Q2341.15 1481.38 2338.07 1485.99 Q2335.01 1490.57 2329.2 1490.57 Q2323.39 1490.57 2320.31 1485.99 Q2317.26 1481.38 2317.26 1472.65 Q2317.26 1463.9 2320.31 1459.32 Q2323.39 1454.71 2329.2 1454.71 Z" fill="#000000" fill-rule="nonzero" fill-opacity="1" /><path clip-path="url(#clip190)" d="M1288.24 1525.57 L1288.24 1534.77 L1299.21 1534.77 L1299.21 1538.91 L1288.24 1538.91 L1288.24 1556.5 Q1288.24 1560.47 1289.31 1561.6 Q1290.41 1562.72 1293.74 1562.72 L1299.21 1562.72 L1299.21 1567.18 L1293.74 1567.18 Q1287.57 1567.18 1285.23 1564.89 Q1282.89 1562.58 1282.89 1556.5 L1282.89 1538.91 L1278.98 1538.91 L1278.98 1534.77 L1282.89 1534.77 L1282.89 1525.57 L1288.24 1525.57 Z" fill="#000000" fill-rule="nonzero" fill-opacity="1" /><polyline clip-path="url(#clip190)" style="stroke:#000000; stroke-linecap:round; stroke-linejoin:round; stroke-width:4; stroke-opacity:1; fill:none" points="225.432,1427.5 225.432,47.2441 "/>
<polyline clip-path="url(#clip190)" style="stroke:#000000; stroke-linecap:round; stroke-linejoin:round; stroke-width:4; stroke-opacity:1; fill:none" points="225.432,1277.31 244.33,1277.31 "/>
<polyline clip-path="url(#clip190)" style="stroke:#000000; stroke-linecap:round; stroke-linejoin:round; stroke-width:4; stroke-opacity:1; fill:none" points="225.432,1006.04 244.33,1006.04 "/>
<polyline clip-path="url(#clip190)" style="stroke:#000000; stroke-linecap:round; stroke-linejoin:round; stroke-width:4; stroke-opacity:1; fill:none" points="225.432,734.768 244.33,734.768 "/>
<polyline clip-path="url(#clip190)" style="stroke:#000000; stroke-linecap:round; stroke-linejoin:round; stroke-width:4; stroke-opacity:1; fill:none" points="225.432,463.495 244.33,463.495 "/>
<polyline clip-path="url(#clip190)" style="stroke:#000000; stroke-linecap:round; stroke-linejoin:round; stroke-width:4; stroke-opacity:1; fill:none" points="225.432,192.223 244.33,192.223 "/>
<path clip-path="url(#clip190)" d="M82.4882 1277.76 L112.164 1277.76 L112.164 1281.7 L82.4882 1281.7 L82.4882 1277.76 Z" fill="#000000" fill-rule="nonzero" fill-opacity="1" /><path clip-path="url(#clip190)" d="M122.303 1260.03 L140.659 1260.03 L140.659 1263.97 L126.585 1263.97 L126.585 1272.44 Q127.604 1272.09 128.622 1271.93 Q129.641 1271.75 130.659 1271.75 Q136.446 1271.75 139.826 1274.92 Q143.205 1278.09 143.205 1283.5 Q143.205 1289.08 139.733 1292.18 Q136.261 1295.26 129.942 1295.26 Q127.766 1295.26 125.497 1294.89 Q123.252 1294.52 120.844 1293.78 L120.844 1289.08 Q122.928 1290.22 125.15 1290.77 Q127.372 1291.33 129.849 1291.33 Q133.854 1291.33 136.192 1289.22 Q138.53 1287.12 138.53 1283.5 Q138.53 1279.89 136.192 1277.79 Q133.854 1275.68 129.849 1275.68 Q127.974 1275.68 126.099 1276.1 Q124.247 1276.51 122.303 1277.39 L122.303 1260.03 Z" fill="#000000" fill-rule="nonzero" fill-opacity="1" /><path clip-path="url(#clip190)" d="M152.418 1288.71 L157.303 1288.71 L157.303 1294.59 L152.418 1294.59 L152.418 1288.71 Z" fill="#000000" fill-rule="nonzero" fill-opacity="1" /><path clip-path="url(#clip190)" d="M177.488 1263.11 Q173.877 1263.11 172.048 1266.68 Q170.242 1270.22 170.242 1277.35 Q170.242 1284.45 172.048 1288.02 Q173.877 1291.56 177.488 1291.56 Q181.122 1291.56 182.927 1288.02 Q184.756 1284.45 184.756 1277.35 Q184.756 1270.22 182.927 1266.68 Q181.122 1263.11 177.488 1263.11 M177.488 1259.41 Q183.298 1259.41 186.353 1264.01 Q189.432 1268.6 189.432 1277.35 Q189.432 1286.07 186.353 1290.68 Q183.298 1295.26 177.488 1295.26 Q171.678 1295.26 168.599 1290.68 Q165.543 1286.07 165.543 1277.35 Q165.543 1268.6 168.599 1264.01 Q171.678 1259.41 177.488 1259.41 Z" fill="#000000" fill-rule="nonzero" fill-opacity="1" /><path clip-path="url(#clip190)" d="M83.4836 1006.49 L113.159 1006.49 L113.159 1010.43 L83.4836 1010.43 L83.4836 1006.49 Z" fill="#000000" fill-rule="nonzero" fill-opacity="1" /><path clip-path="url(#clip190)" d="M127.28 1019.38 L143.599 1019.38 L143.599 1023.32 L121.655 1023.32 L121.655 1019.38 Q124.317 1016.63 128.9 1012 Q133.506 1007.35 134.687 1006.01 Q136.932 1003.48 137.812 1001.75 Q138.715 999.987 138.715 998.297 Q138.715 995.542 136.77 993.806 Q134.849 992.07 131.747 992.07 Q129.548 992.07 127.094 992.834 Q124.664 993.598 121.886 995.149 L121.886 990.427 Q124.71 989.292 127.164 988.714 Q129.618 988.135 131.655 988.135 Q137.025 988.135 140.219 990.82 Q143.414 993.505 143.414 997.996 Q143.414 1000.13 142.604 1002.05 Q141.817 1003.95 139.71 1006.54 Q139.131 1007.21 136.03 1010.43 Q132.928 1013.62 127.28 1019.38 Z" fill="#000000" fill-rule="nonzero" fill-opacity="1" /><path clip-path="url(#clip190)" d="M153.414 1017.44 L158.298 1017.44 L158.298 1023.32 L153.414 1023.32 L153.414 1017.44 Z" fill="#000000" fill-rule="nonzero" fill-opacity="1" /><path clip-path="url(#clip190)" d="M168.529 988.76 L186.886 988.76 L186.886 992.695 L172.812 992.695 L172.812 1001.17 Q173.83 1000.82 174.849 1000.66 Q175.867 1000.47 176.886 1000.47 Q182.673 1000.47 186.052 1003.64 Q189.432 1006.82 189.432 1012.23 Q189.432 1017.81 185.96 1020.91 Q182.488 1023.99 176.168 1023.99 Q173.992 1023.99 171.724 1023.62 Q169.478 1023.25 167.071 1022.51 L167.071 1017.81 Q169.154 1018.95 171.377 1019.5 Q173.599 1020.06 176.076 1020.06 Q180.08 1020.06 182.418 1017.95 Q184.756 1015.84 184.756 1012.23 Q184.756 1008.62 182.418 1006.51 Q180.08 1004.41 176.076 1004.41 Q174.201 1004.41 172.326 1004.82 Q170.474 1005.24 168.529 1006.12 L168.529 988.76 Z" fill="#000000" fill-rule="nonzero" fill-opacity="1" /><path clip-path="url(#clip190)" d="M132.256 720.566 Q128.645 720.566 126.817 724.131 Q125.011 727.673 125.011 734.802 Q125.011 741.909 126.817 745.474 Q128.645 749.015 132.256 749.015 Q135.891 749.015 137.696 745.474 Q139.525 741.909 139.525 734.802 Q139.525 727.673 137.696 724.131 Q135.891 720.566 132.256 720.566 M132.256 716.863 Q138.067 716.863 141.122 721.469 Q144.201 726.052 144.201 734.802 Q144.201 743.529 141.122 748.136 Q138.067 752.719 132.256 752.719 Q126.446 752.719 123.368 748.136 Q120.312 743.529 120.312 734.802 Q120.312 726.052 123.368 721.469 Q126.446 716.863 132.256 716.863 Z" fill="#000000" fill-rule="nonzero" fill-opacity="1" /><path clip-path="url(#clip190)" d="M152.418 746.168 L157.303 746.168 L157.303 752.048 L152.418 752.048 L152.418 746.168 Z" fill="#000000" fill-rule="nonzero" fill-opacity="1" /><path clip-path="url(#clip190)" d="M177.488 720.566 Q173.877 720.566 172.048 724.131 Q170.242 727.673 170.242 734.802 Q170.242 741.909 172.048 745.474 Q173.877 749.015 177.488 749.015 Q181.122 749.015 182.927 745.474 Q184.756 741.909 184.756 734.802 Q184.756 727.673 182.927 724.131 Q181.122 720.566 177.488 720.566 M177.488 716.863 Q183.298 716.863 186.353 721.469 Q189.432 726.052 189.432 734.802 Q189.432 743.529 186.353 748.136 Q183.298 752.719 177.488 752.719 Q171.678 752.719 168.599 748.136 Q165.543 743.529 165.543 734.802 Q165.543 726.052 168.599 721.469 Q171.678 716.863 177.488 716.863 Z" fill="#000000" fill-rule="nonzero" fill-opacity="1" /><path clip-path="url(#clip190)" d="M127.28 476.84 L143.599 476.84 L143.599 480.775 L121.655 480.775 L121.655 476.84 Q124.317 474.086 128.9 469.456 Q133.506 464.803 134.687 463.461 Q136.932 460.938 137.812 459.201 Q138.715 457.442 138.715 455.752 Q138.715 452.998 136.77 451.262 Q134.849 449.526 131.747 449.526 Q129.548 449.526 127.094 450.289 Q124.664 451.053 121.886 452.604 L121.886 447.882 Q124.71 446.748 127.164 446.169 Q129.618 445.59 131.655 445.59 Q137.025 445.59 140.219 448.276 Q143.414 450.961 143.414 455.451 Q143.414 457.581 142.604 459.502 Q141.817 461.4 139.71 463.993 Q139.131 464.664 136.03 467.882 Q132.928 471.076 127.28 476.84 Z" fill="#000000" fill-rule="nonzero" fill-opacity="1" /><path clip-path="url(#clip190)" d="M153.414 474.896 L158.298 474.896 L158.298 480.775 L153.414 480.775 L153.414 474.896 Z" fill="#000000" fill-rule="nonzero" fill-opacity="1" /><path clip-path="url(#clip190)" d="M168.529 446.215 L186.886 446.215 L186.886 450.151 L172.812 450.151 L172.812 458.623 Q173.83 458.275 174.849 458.113 Q175.867 457.928 176.886 457.928 Q182.673 457.928 186.052 461.1 Q189.432 464.271 189.432 469.687 Q189.432 475.266 185.96 478.368 Q182.488 481.447 176.168 481.447 Q173.992 481.447 171.724 481.076 Q169.478 480.706 167.071 479.965 L167.071 475.266 Q169.154 476.4 171.377 476.956 Q173.599 477.512 176.076 477.512 Q180.08 477.512 182.418 475.405 Q184.756 473.299 184.756 469.687 Q184.756 466.076 182.418 463.97 Q180.08 461.863 176.076 461.863 Q174.201 461.863 172.326 462.28 Q170.474 462.697 168.529 463.576 L168.529 446.215 Z" fill="#000000" fill-rule="nonzero" fill-opacity="1" /><path clip-path="url(#clip190)" d="M122.303 174.943 L140.659 174.943 L140.659 178.878 L126.585 178.878 L126.585 187.35 Q127.604 187.003 128.622 186.841 Q129.641 186.656 130.659 186.656 Q136.446 186.656 139.826 189.827 Q143.205 192.998 143.205 198.415 Q143.205 203.994 139.733 207.096 Q136.261 210.174 129.942 210.174 Q127.766 210.174 125.497 209.804 Q123.252 209.434 120.844 208.693 L120.844 203.994 Q122.928 205.128 125.15 205.684 Q127.372 206.239 129.849 206.239 Q133.854 206.239 136.192 204.133 Q138.53 202.026 138.53 198.415 Q138.53 194.804 136.192 192.698 Q133.854 190.591 129.849 190.591 Q127.974 190.591 126.099 191.008 Q124.247 191.424 122.303 192.304 L122.303 174.943 Z" fill="#000000" fill-rule="nonzero" fill-opacity="1" /><path clip-path="url(#clip190)" d="M152.418 203.623 L157.303 203.623 L157.303 209.503 L152.418 209.503 L152.418 203.623 Z" fill="#000000" fill-rule="nonzero" fill-opacity="1" /><path clip-path="url(#clip190)" d="M177.488 178.022 Q173.877 178.022 172.048 181.587 Q170.242 185.128 170.242 192.258 Q170.242 199.364 172.048 202.929 Q173.877 206.471 177.488 206.471 Q181.122 206.471 182.927 202.929 Q184.756 199.364 184.756 192.258 Q184.756 185.128 182.927 181.587 Q181.122 178.022 177.488 178.022 M177.488 174.318 Q183.298 174.318 186.353 178.924 Q189.432 183.508 189.432 192.258 Q189.432 200.985 186.353 205.591 Q183.298 210.174 177.488 210.174 Q171.678 210.174 168.599 205.591 Q165.543 200.985 165.543 192.258 Q165.543 183.508 168.599 178.924 Q171.678 174.318 177.488 174.318 Z" fill="#000000" fill-rule="nonzero" fill-opacity="1" /><polyline clip-path="url(#clip192)" style="stroke:#000000; stroke-linecap:round; stroke-linejoin:round; stroke-width:4; stroke-opacity:1; fill:none" stroke-dasharray="16, 10" points="285.639,2807.76 285.639,-1333.01 "/>
<polyline clip-path="url(#clip192)" style="stroke:#000000; stroke-linecap:round; stroke-linejoin:round; stroke-width:4; stroke-opacity:1; fill:none" stroke-dasharray="16, 10" points="2292.55,2807.76 2292.55,-1333.01 "/>
<polyline clip-path="url(#clip192)" style="stroke:#009af9; stroke-linecap:round; stroke-linejoin:round; stroke-width:8; stroke-opacity:1; fill:none" points="285.639,86.3079 293.667,91.5164 301.695,96.725 309.722,101.933 317.75,107.142 325.778,112.35 333.805,117.559 341.833,122.768 349.86,127.976 357.888,133.185 365.916,138.393 373.943,143.602 381.971,148.81 389.999,154.019 398.026,159.227 406.054,164.436 414.082,169.644 422.109,174.853 430.137,180.061 438.164,185.27 446.192,190.478 454.22,195.687 462.247,200.895 470.275,206.104 478.303,211.312 486.33,216.521 494.358,221.729 502.386,226.938 510.413,232.146 518.441,237.355 526.468,242.563 534.496,247.772 542.524,252.98 550.551,258.189 558.579,263.397 566.607,268.606 574.634,273.814 582.662,279.023 590.69,284.231 598.717,289.44 606.745,294.648 614.772,299.857 622.8,305.065 630.828,310.274 638.855,315.482 646.883,320.691 654.911,325.9 662.938,331.108 670.966,336.317 678.994,341.525 687.021,346.734 695.049,351.942 703.076,357.151 711.104,362.359 719.132,367.568 727.159,372.776 735.187,377.985 743.215,383.193 751.242,388.402 759.27,393.61 767.298,398.819 775.325,404.027 783.353,409.236 791.38,414.444 799.408,419.653 807.436,424.861 815.463,430.07 823.491,435.278 831.519,440.487 839.546,445.695 847.574,450.904 855.602,456.112 863.629,461.321 871.657,466.529 879.684,471.738 887.712,476.946 895.74,482.155 903.767,487.363 911.795,492.572 919.823,497.78 927.85,502.989 935.878,508.197 943.906,513.406 951.933,518.614 959.961,523.823 967.988,529.031 976.016,534.24 984.044,539.449 992.071,544.657 1000.1,549.866 1008.13,555.074 1016.15,560.283 1024.18,565.491 1032.21,570.7 1040.24,575.908 1048.26,581.117 1056.29,586.325 1064.32,591.534 1072.35,596.742 1080.38,601.951 1088.4,607.159 1096.43,612.368 1104.46,617.576 1112.49,622.785 1120.51,627.993 1128.54,633.202 1136.57,638.41 1144.6,643.619 1152.62,648.827 1160.65,654.036 1168.68,659.244 1176.71,664.453 1184.73,669.661 1192.76,674.87 1200.79,680.078 1208.82,685.287 1216.85,690.495 1224.87,695.704 1232.9,700.912 1240.93,706.121 1248.96,711.329 1256.98,716.538 1265.01,721.746 1273.04,726.955 1281.07,732.163 1289.09,737.372 1297.12,742.58 1305.15,747.789 1313.18,752.998 1321.2,758.206 1329.23,763.415 1337.26,768.623 1345.29,773.832 1353.32,779.04 1361.34,784.249 1369.37,789.457 1377.4,794.666 1385.43,799.874 1393.45,805.083 1401.48,810.291 1409.51,815.5 1417.54,820.708 1425.56,825.917 1433.59,831.125 1441.62,836.334 1449.65,841.542 1457.67,846.751 1465.7,851.959 1473.73,857.168 1481.76,862.376 1489.78,867.585 1497.81,872.793 1505.84,878.002 1513.87,883.21 1521.9,888.419 1529.92,893.627 1537.95,898.836 1545.98,904.044 1554.01,909.253 1562.03,914.461 1570.06,919.67 1578.09,924.878 1586.12,930.087 1594.14,935.295 1602.17,940.504 1610.2,945.712 1618.23,950.921 1626.25,956.129 1634.28,961.338 1642.31,966.547 1650.34,971.755 1658.37,976.964 1666.39,982.172 1674.42,987.381 1682.45,992.589 1690.48,997.798 1698.5,1003.01 1706.53,1008.21 1714.56,1013.42 1722.59,1018.63 1730.61,1023.84 1738.64,1029.05 1746.67,1034.26 1754.7,1039.47 1762.72,1044.67 1770.75,1049.88 1778.78,1055.09 1786.81,1060.3 1794.84,1065.51 1802.86,1070.72 1810.89,1075.93 1818.92,1081.13 1826.95,1086.34 1834.97,1091.55 1843,1096.76 1851.03,1101.97 1859.06,1107.18 1867.08,1112.38 1875.11,1117.59 1883.14,1122.8 1891.17,1128.01 1899.19,1133.22 1907.22,1138.43 1915.25,1143.64 1923.28,1148.84 1931.3,1154.05 1939.33,1159.26 1947.36,1164.47 1955.39,1169.68 1963.42,1174.89 1971.44,1180.1 1979.47,1185.3 1987.5,1190.51 1995.53,1195.72 2003.55,1200.93 2011.58,1206.14 2019.61,1211.35 2027.64,1216.56 2035.66,1221.76 2043.69,1226.97 2051.72,1232.18 2059.75,1237.39 2067.77,1242.6 2075.8,1247.81 2083.83,1253.01 2091.86,1258.22 2099.89,1263.43 2107.91,1268.64 2115.94,1273.85 2123.97,1279.06 2132,1284.27 2140.02,1289.47 2148.05,1294.68 2156.08,1299.89 2164.11,1305.1 2172.13,1310.31 2180.16,1315.52 2188.19,1320.73 2196.22,1325.93 2204.24,1331.14 2212.27,1336.35 2220.3,1341.56 2228.33,1346.77 2236.36,1351.98 2244.38,1357.18 2252.41,1362.39 2260.44,1367.6 2268.47,1372.81 2276.49,1378.02 2284.52,1383.23 2292.55,1388.44 "/>
</svg>
