<?xml version="1.0" encoding="utf-8"?>
<svg xmlns="http://www.w3.org/2000/svg" xmlns:xlink="http://www.w3.org/1999/xlink" width="600" height="400" viewBox="0 0 2400 1600">
<defs>
  <clipPath id="clip920">
    <rect x="0" y="0" width="2400" height="1600"/>
  </clipPath>
</defs>
<path clip-path="url(#clip920)" d="M0 1600 L2400 1600 L2400 0 L0 0  Z" fill="#ffffff" fill-rule="evenodd" fill-opacity="1"/>
<defs>
  <clipPath id="clip921">
    <rect x="480" y="0" width="1681" height="1600"/>
  </clipPath>
</defs>
<path clip-path="url(#clip920)" d="M215.687 1486.45 L2352.76 1486.45 L2352.76 106.192 L215.687 106.192  Z" fill="#ffffff" fill-rule="evenodd" fill-opacity="1"/>
<defs>
  <clipPath id="clip922">
    <rect x="215" y="106" width="2138" height="1381"/>
  </clipPath>
</defs>
<polyline clip-path="url(#clip922)" style="stroke:#000000; stroke-linecap:round; stroke-linejoin:round; stroke-width:2; stroke-opacity:0.1; fill:none" points="276.17,1486.45 276.17,106.192 "/>
<polyline clip-path="url(#clip922)" style="stroke:#000000; stroke-linecap:round; stroke-linejoin:round; stroke-width:2; stroke-opacity:0.1; fill:none" points="780.196,1486.45 780.196,106.192 "/>
<polyline clip-path="url(#clip922)" style="stroke:#000000; stroke-linecap:round; stroke-linejoin:round; stroke-width:2; stroke-opacity:0.1; fill:none" points="1284.22,1486.45 1284.22,106.192 "/>
<polyline clip-path="url(#clip922)" style="stroke:#000000; stroke-linecap:round; stroke-linejoin:round; stroke-width:2; stroke-opacity:0.1; fill:none" points="1788.25,1486.45 1788.25,106.192 "/>
<polyline clip-path="url(#clip922)" style="stroke:#000000; stroke-linecap:round; stroke-linejoin:round; stroke-width:2; stroke-opacity:0.1; fill:none" points="2292.27,1486.45 2292.27,106.192 "/>
<polyline clip-path="url(#clip922)" style="stroke:#000000; stroke-linecap:round; stroke-linejoin:round; stroke-width:2; stroke-opacity:0.1; fill:none" points="215.687,1371.53 2352.76,1371.53 "/>
<polyline clip-path="url(#clip922)" style="stroke:#000000; stroke-linecap:round; stroke-linejoin:round; stroke-width:2; stroke-opacity:0.1; fill:none" points="215.687,1083.98 2352.76,1083.98 "/>
<polyline clip-path="url(#clip922)" style="stroke:#000000; stroke-linecap:round; stroke-linejoin:round; stroke-width:2; stroke-opacity:0.1; fill:none" points="215.687,796.43 2352.76,796.43 "/>
<polyline clip-path="url(#clip922)" style="stroke:#000000; stroke-linecap:round; stroke-linejoin:round; stroke-width:2; stroke-opacity:0.1; fill:none" points="215.687,508.882 2352.76,508.882 "/>
<polyline clip-path="url(#clip922)" style="stroke:#000000; stroke-linecap:round; stroke-linejoin:round; stroke-width:2; stroke-opacity:0.1; fill:none" points="215.687,221.333 2352.76,221.333 "/>
<polyline clip-path="url(#clip920)" style="stroke:#000000; stroke-linecap:round; stroke-linejoin:round; stroke-width:4; stroke-opacity:1; fill:none" points="215.687,1486.45 2352.76,1486.45 "/>
<polyline clip-path="url(#clip920)" style="stroke:#000000; stroke-linecap:round; stroke-linejoin:round; stroke-width:4; stroke-opacity:1; fill:none" points="276.17,1486.45 276.17,1467.55 "/>
<polyline clip-path="url(#clip920)" style="stroke:#000000; stroke-linecap:round; stroke-linejoin:round; stroke-width:4; stroke-opacity:1; fill:none" points="780.196,1486.45 780.196,1467.55 "/>
<polyline clip-path="url(#clip920)" style="stroke:#000000; stroke-linecap:round; stroke-linejoin:round; stroke-width:4; stroke-opacity:1; fill:none" points="1284.22,1486.45 1284.22,1467.55 "/>
<polyline clip-path="url(#clip920)" style="stroke:#000000; stroke-linecap:round; stroke-linejoin:round; stroke-width:4; stroke-opacity:1; fill:none" points="1788.25,1486.45 1788.25,1467.55 "/>
<polyline clip-path="url(#clip920)" style="stroke:#000000; stroke-linecap:round; stroke-linejoin:round; stroke-width:4; stroke-opacity:1; fill:none" points="2292.27,1486.45 2292.27,1467.55 "/>
<path clip-path="url(#clip920)" d="M238.473 1517.37 Q234.862 1517.37 233.033 1520.93 Q231.228 1524.47 231.228 1531.6 Q231.228 1538.71 233.033 1542.27 Q234.862 1545.82 238.473 1545.82 Q242.108 1545.82 243.913 1542.27 Q245.742 1538.71 245.742 1531.6 Q245.742 1524.47 243.913 1520.93 Q242.108 1517.37 238.473 1517.37 M238.473 1513.66 Q244.283 1513.66 247.339 1518.27 Q250.418 1522.85 250.418 1531.6 Q250.418 1540.33 247.339 1544.94 Q244.283 1549.52 238.473 1549.52 Q232.663 1549.52 229.584 1544.94 Q226.529 1540.33 226.529 1531.6 Q226.529 1522.85 229.584 1518.27 Q232.663 1513.66 238.473 1513.66 Z" fill="#000000" fill-rule="nonzero" fill-opacity="1" /><path clip-path="url(#clip920)" d="M258.635 1542.97 L263.519 1542.97 L263.519 1548.85 L258.635 1548.85 L258.635 1542.97 Z" fill="#000000" fill-rule="nonzero" fill-opacity="1" /><path clip-path="url(#clip920)" d="M283.705 1517.37 Q280.093 1517.37 278.265 1520.93 Q276.459 1524.47 276.459 1531.6 Q276.459 1538.71 278.265 1542.27 Q280.093 1545.82 283.705 1545.82 Q287.339 1545.82 289.144 1542.27 Q290.973 1538.71 290.973 1531.6 Q290.973 1524.47 289.144 1520.93 Q287.339 1517.37 283.705 1517.37 M283.705 1513.66 Q289.515 1513.66 292.57 1518.27 Q295.649 1522.85 295.649 1531.6 Q295.649 1540.33 292.57 1544.94 Q289.515 1549.52 283.705 1549.52 Q277.894 1549.52 274.816 1544.94 Q271.76 1540.33 271.76 1531.6 Q271.76 1522.85 274.816 1518.27 Q277.894 1513.66 283.705 1513.66 Z" fill="#000000" fill-rule="nonzero" fill-opacity="1" /><path clip-path="url(#clip920)" d="M313.866 1517.37 Q310.255 1517.37 308.427 1520.93 Q306.621 1524.47 306.621 1531.6 Q306.621 1538.71 308.427 1542.27 Q310.255 1545.82 313.866 1545.82 Q317.501 1545.82 319.306 1542.27 Q321.135 1538.71 321.135 1531.6 Q321.135 1524.47 319.306 1520.93 Q317.501 1517.37 313.866 1517.37 M313.866 1513.66 Q319.677 1513.66 322.732 1518.27 Q325.811 1522.85 325.811 1531.6 Q325.811 1540.33 322.732 1544.94 Q319.677 1549.52 313.866 1549.52 Q308.056 1549.52 304.978 1544.94 Q301.922 1540.33 301.922 1531.6 Q301.922 1522.85 304.978 1518.27 Q308.056 1513.66 313.866 1513.66 Z" fill="#000000" fill-rule="nonzero" fill-opacity="1" /><path clip-path="url(#clip920)" d="M742.997 1517.37 Q739.386 1517.37 737.557 1520.93 Q735.751 1524.47 735.751 1531.6 Q735.751 1538.71 737.557 1542.27 Q739.386 1545.82 742.997 1545.82 Q746.631 1545.82 748.436 1542.27 Q750.265 1538.71 750.265 1531.6 Q750.265 1524.47 748.436 1520.93 Q746.631 1517.37 742.997 1517.37 M742.997 1513.66 Q748.807 1513.66 751.862 1518.27 Q754.941 1522.85 754.941 1531.6 Q754.941 1540.33 751.862 1544.94 Q748.807 1549.52 742.997 1549.52 Q737.187 1549.52 734.108 1544.94 Q731.052 1540.33 731.052 1531.6 Q731.052 1522.85 734.108 1518.27 Q737.187 1513.66 742.997 1513.66 Z" fill="#000000" fill-rule="nonzero" fill-opacity="1" /><path clip-path="url(#clip920)" d="M763.159 1542.97 L768.043 1542.97 L768.043 1548.85 L763.159 1548.85 L763.159 1542.97 Z" fill="#000000" fill-rule="nonzero" fill-opacity="1" /><path clip-path="url(#clip920)" d="M782.256 1544.91 L798.575 1544.91 L798.575 1548.85 L776.631 1548.85 L776.631 1544.91 Q779.293 1542.16 783.876 1537.53 Q788.483 1532.88 789.663 1531.53 Q791.908 1529.01 792.788 1527.27 Q793.691 1525.51 793.691 1523.82 Q793.691 1521.07 791.746 1519.33 Q789.825 1517.6 786.723 1517.6 Q784.524 1517.6 782.071 1518.36 Q779.64 1519.13 776.862 1520.68 L776.862 1515.95 Q779.686 1514.82 782.14 1514.24 Q784.594 1513.66 786.631 1513.66 Q792.001 1513.66 795.195 1516.35 Q798.39 1519.03 798.39 1523.52 Q798.39 1525.65 797.58 1527.57 Q796.793 1529.47 794.686 1532.07 Q794.108 1532.74 791.006 1535.95 Q787.904 1539.15 782.256 1544.91 Z" fill="#000000" fill-rule="nonzero" fill-opacity="1" /><path clip-path="url(#clip920)" d="M808.436 1514.29 L826.793 1514.29 L826.793 1518.22 L812.719 1518.22 L812.719 1526.7 Q813.737 1526.35 814.756 1526.19 Q815.774 1526 816.793 1526 Q822.58 1526 825.959 1529.17 Q829.339 1532.34 829.339 1537.76 Q829.339 1543.34 825.867 1546.44 Q822.394 1549.52 816.075 1549.52 Q813.899 1549.52 811.631 1549.15 Q809.385 1548.78 806.978 1548.04 L806.978 1543.34 Q809.061 1544.47 811.283 1545.03 Q813.506 1545.58 815.982 1545.58 Q819.987 1545.58 822.325 1543.48 Q824.663 1541.37 824.663 1537.76 Q824.663 1534.15 822.325 1532.04 Q819.987 1529.94 815.982 1529.94 Q814.107 1529.94 812.232 1530.35 Q810.381 1530.77 808.436 1531.65 L808.436 1514.29 Z" fill="#000000" fill-rule="nonzero" fill-opacity="1" /><path clip-path="url(#clip920)" d="M1246.52 1517.37 Q1242.91 1517.37 1241.08 1520.93 Q1239.28 1524.47 1239.28 1531.6 Q1239.28 1538.71 1241.08 1542.27 Q1242.91 1545.82 1246.52 1545.82 Q1250.16 1545.82 1251.96 1542.27 Q1253.79 1538.71 1253.79 1531.6 Q1253.79 1524.47 1251.96 1520.93 Q1250.16 1517.37 1246.52 1517.37 M1246.52 1513.66 Q1252.33 1513.66 1255.39 1518.27 Q1258.47 1522.85 1258.47 1531.6 Q1258.47 1540.33 1255.39 1544.94 Q1252.33 1549.52 1246.52 1549.52 Q1240.71 1549.52 1237.64 1544.94 Q1234.58 1540.33 1234.58 1531.6 Q1234.58 1522.85 1237.64 1518.27 Q1240.71 1513.66 1246.52 1513.66 Z" fill="#000000" fill-rule="nonzero" fill-opacity="1" /><path clip-path="url(#clip920)" d="M1266.69 1542.97 L1271.57 1542.97 L1271.57 1548.85 L1266.69 1548.85 L1266.69 1542.97 Z" fill="#000000" fill-rule="nonzero" fill-opacity="1" /><path clip-path="url(#clip920)" d="M1281.8 1514.29 L1300.16 1514.29 L1300.16 1518.22 L1286.08 1518.22 L1286.08 1526.7 Q1287.1 1526.35 1288.12 1526.19 Q1289.14 1526 1290.16 1526 Q1295.95 1526 1299.33 1529.17 Q1302.71 1532.34 1302.71 1537.76 Q1302.71 1543.34 1299.23 1546.44 Q1295.76 1549.52 1289.44 1549.52 Q1287.27 1549.52 1285 1549.15 Q1282.75 1548.78 1280.34 1548.04 L1280.34 1543.34 Q1282.43 1544.47 1284.65 1545.03 Q1286.87 1545.58 1289.35 1545.58 Q1293.35 1545.58 1295.69 1543.48 Q1298.03 1541.37 1298.03 1537.76 Q1298.03 1534.15 1295.69 1532.04 Q1293.35 1529.94 1289.35 1529.94 Q1287.47 1529.94 1285.6 1530.35 Q1283.75 1530.77 1281.8 1531.65 L1281.8 1514.29 Z" fill="#000000" fill-rule="nonzero" fill-opacity="1" /><path clip-path="url(#clip920)" d="M1321.92 1517.37 Q1318.31 1517.37 1316.48 1520.93 Q1314.67 1524.47 1314.67 1531.6 Q1314.67 1538.71 1316.48 1542.27 Q1318.31 1545.82 1321.92 1545.82 Q1325.55 1545.82 1327.36 1542.27 Q1329.19 1538.71 1329.19 1531.6 Q1329.19 1524.47 1327.36 1520.93 Q1325.55 1517.37 1321.92 1517.37 M1321.92 1513.66 Q1327.73 1513.66 1330.78 1518.27 Q1333.86 1522.85 1333.86 1531.6 Q1333.86 1540.33 1330.78 1544.94 Q1327.73 1549.52 1321.92 1549.52 Q1316.11 1549.52 1313.03 1544.94 Q1309.97 1540.33 1309.97 1531.6 Q1309.97 1522.85 1313.03 1518.27 Q1316.11 1513.66 1321.92 1513.66 Z" fill="#000000" fill-rule="nonzero" fill-opacity="1" /><path clip-path="url(#clip920)" d="M1751.05 1517.37 Q1747.44 1517.37 1745.61 1520.93 Q1743.8 1524.47 1743.8 1531.6 Q1743.8 1538.71 1745.61 1542.27 Q1747.44 1545.82 1751.05 1545.82 Q1754.68 1545.82 1756.49 1542.27 Q1758.32 1538.71 1758.32 1531.6 Q1758.32 1524.47 1756.49 1520.93 Q1754.68 1517.37 1751.05 1517.37 M1751.05 1513.66 Q1756.86 1513.66 1759.91 1518.27 Q1762.99 1522.85 1762.99 1531.6 Q1762.99 1540.33 1759.91 1544.94 Q1756.86 1549.52 1751.05 1549.52 Q1745.24 1549.52 1742.16 1544.94 Q1739.1 1540.33 1739.1 1531.6 Q1739.1 1522.85 1742.16 1518.27 Q1745.24 1513.66 1751.05 1513.66 Z" fill="#000000" fill-rule="nonzero" fill-opacity="1" /><path clip-path="url(#clip920)" d="M1771.21 1542.97 L1776.09 1542.97 L1776.09 1548.85 L1771.21 1548.85 L1771.21 1542.97 Z" fill="#000000" fill-rule="nonzero" fill-opacity="1" /><path clip-path="url(#clip920)" d="M1785.1 1514.29 L1807.32 1514.29 L1807.32 1516.28 L1794.77 1548.85 L1789.89 1548.85 L1801.7 1518.22 L1785.1 1518.22 L1785.1 1514.29 Z" fill="#000000" fill-rule="nonzero" fill-opacity="1" /><path clip-path="url(#clip920)" d="M1816.49 1514.29 L1834.84 1514.29 L1834.84 1518.22 L1820.77 1518.22 L1820.77 1526.7 Q1821.79 1526.35 1822.81 1526.19 Q1823.83 1526 1824.84 1526 Q1830.63 1526 1834.01 1529.17 Q1837.39 1532.34 1837.39 1537.76 Q1837.39 1543.34 1833.92 1546.44 Q1830.45 1549.52 1824.13 1549.52 Q1821.95 1549.52 1819.68 1549.15 Q1817.44 1548.78 1815.03 1548.04 L1815.03 1543.34 Q1817.11 1544.47 1819.33 1545.03 Q1821.56 1545.58 1824.03 1545.58 Q1828.04 1545.58 1830.38 1543.48 Q1832.71 1541.37 1832.71 1537.76 Q1832.71 1534.15 1830.38 1532.04 Q1828.04 1529.94 1824.03 1529.94 Q1822.16 1529.94 1820.28 1530.35 Q1818.43 1530.77 1816.49 1531.65 L1816.49 1514.29 Z" fill="#000000" fill-rule="nonzero" fill-opacity="1" /><path clip-path="url(#clip920)" d="M2244.34 1544.91 L2251.98 1544.91 L2251.98 1518.55 L2243.67 1520.21 L2243.67 1515.95 L2251.94 1514.29 L2256.61 1514.29 L2256.61 1544.91 L2264.25 1544.91 L2264.25 1548.85 L2244.34 1548.85 L2244.34 1544.91 Z" fill="#000000" fill-rule="nonzero" fill-opacity="1" /><path clip-path="url(#clip920)" d="M2273.7 1542.97 L2278.58 1542.97 L2278.58 1548.85 L2273.7 1548.85 L2273.7 1542.97 Z" fill="#000000" fill-rule="nonzero" fill-opacity="1" /><path clip-path="url(#clip920)" d="M2298.77 1517.37 Q2295.15 1517.37 2293.33 1520.93 Q2291.52 1524.47 2291.52 1531.6 Q2291.52 1538.71 2293.33 1542.27 Q2295.15 1545.82 2298.77 1545.82 Q2302.4 1545.82 2304.21 1542.27 Q2306.03 1538.71 2306.03 1531.6 Q2306.03 1524.47 2304.21 1520.93 Q2302.4 1517.37 2298.77 1517.37 M2298.77 1513.66 Q2304.58 1513.66 2307.63 1518.27 Q2310.71 1522.85 2310.71 1531.6 Q2310.71 1540.33 2307.63 1544.94 Q2304.58 1549.52 2298.77 1549.52 Q2292.96 1549.52 2289.88 1544.94 Q2286.82 1540.33 2286.82 1531.6 Q2286.82 1522.85 2289.88 1518.27 Q2292.96 1513.66 2298.77 1513.66 Z" fill="#000000" fill-rule="nonzero" fill-opacity="1" /><path clip-path="url(#clip920)" d="M2328.93 1517.37 Q2325.32 1517.37 2323.49 1520.93 Q2321.68 1524.47 2321.68 1531.6 Q2321.68 1538.71 2323.49 1542.27 Q2325.32 1545.82 2328.93 1545.82 Q2332.56 1545.82 2334.37 1542.27 Q2336.2 1538.71 2336.2 1531.6 Q2336.2 1524.47 2334.37 1520.93 Q2332.56 1517.37 2328.93 1517.37 M2328.93 1513.66 Q2334.74 1513.66 2337.79 1518.27 Q2340.87 1522.85 2340.87 1531.6 Q2340.87 1540.33 2337.79 1544.94 Q2334.74 1549.52 2328.93 1549.52 Q2323.12 1549.52 2320.04 1544.94 Q2316.98 1540.33 2316.98 1531.6 Q2316.98 1522.85 2320.04 1518.27 Q2323.12 1513.66 2328.93 1513.66 Z" fill="#000000" fill-rule="nonzero" fill-opacity="1" /><polyline clip-path="url(#clip920)" style="stroke:#000000; stroke-linecap:round; stroke-linejoin:round; stroke-width:4; stroke-opacity:1; fill:none" points="215.687,1486.45 215.687,106.192 "/>
<polyline clip-path="url(#clip920)" style="stroke:#000000; stroke-linecap:round; stroke-linejoin:round; stroke-width:4; stroke-opacity:1; fill:none" points="215.687,1371.53 234.584,1371.53 "/>
<polyline clip-path="url(#clip920)" style="stroke:#000000; stroke-linecap:round; stroke-linejoin:round; stroke-width:4; stroke-opacity:1; fill:none" points="215.687,1083.98 234.584,1083.98 "/>
<polyline clip-path="url(#clip920)" style="stroke:#000000; stroke-linecap:round; stroke-linejoin:round; stroke-width:4; stroke-opacity:1; fill:none" points="215.687,796.43 234.584,796.43 "/>
<polyline clip-path="url(#clip920)" style="stroke:#000000; stroke-linecap:round; stroke-linejoin:round; stroke-width:4; stroke-opacity:1; fill:none" points="215.687,508.882 234.584,508.882 "/>
<polyline clip-path="url(#clip920)" style="stroke:#000000; stroke-linecap:round; stroke-linejoin:round; stroke-width:4; stroke-opacity:1; fill:none" points="215.687,221.333 234.584,221.333 "/>
<path clip-path="url(#clip920)" d="M83.1595 1384.87 L90.7983 1384.87 L90.7983 1358.51 L82.4882 1360.17 L82.4882 1355.91 L90.752 1354.25 L95.4279 1354.25 L95.4279 1384.87 L103.067 1384.87 L103.067 1388.81 L83.1595 1388.81 L83.1595 1384.87 Z" fill="#000000" fill-rule="nonzero" fill-opacity="1" /><path clip-path="url(#clip920)" d="M113.321 1384.87 L120.96 1384.87 L120.96 1358.51 L112.65 1360.17 L112.65 1355.91 L120.914 1354.25 L125.59 1354.25 L125.59 1384.87 L133.229 1384.87 L133.229 1388.81 L113.321 1388.81 L113.321 1384.87 Z" fill="#000000" fill-rule="nonzero" fill-opacity="1" /><path clip-path="url(#clip920)" d="M142.673 1382.93 L147.557 1382.93 L147.557 1388.81 L142.673 1388.81 L142.673 1382.93 Z" fill="#000000" fill-rule="nonzero" fill-opacity="1" /><path clip-path="url(#clip920)" d="M167.742 1357.33 Q164.131 1357.33 162.303 1360.89 Q160.497 1364.43 160.497 1371.56 Q160.497 1378.67 162.303 1382.23 Q164.131 1385.78 167.742 1385.78 Q171.377 1385.78 173.182 1382.23 Q175.011 1378.67 175.011 1371.56 Q175.011 1364.43 173.182 1360.89 Q171.377 1357.33 167.742 1357.33 M167.742 1353.62 Q173.553 1353.62 176.608 1358.23 Q179.687 1362.81 179.687 1371.56 Q179.687 1380.29 176.608 1384.9 Q173.553 1389.48 167.742 1389.48 Q161.932 1389.48 158.854 1384.9 Q155.798 1380.29 155.798 1371.56 Q155.798 1362.81 158.854 1358.23 Q161.932 1353.62 167.742 1353.62 Z" fill="#000000" fill-rule="nonzero" fill-opacity="1" /><path clip-path="url(#clip920)" d="M84.1548 1097.32 L91.7937 1097.32 L91.7937 1070.96 L83.4836 1072.62 L83.4836 1068.37 L91.7474 1066.7 L96.4233 1066.7 L96.4233 1097.32 L104.062 1097.32 L104.062 1101.26 L84.1548 1101.26 L84.1548 1097.32 Z" fill="#000000" fill-rule="nonzero" fill-opacity="1" /><path clip-path="url(#clip920)" d="M114.317 1097.32 L121.956 1097.32 L121.956 1070.96 L113.645 1072.62 L113.645 1068.37 L121.909 1066.7 L126.585 1066.7 L126.585 1097.32 L134.224 1097.32 L134.224 1101.26 L114.317 1101.26 L114.317 1097.32 Z" fill="#000000" fill-rule="nonzero" fill-opacity="1" /><path clip-path="url(#clip920)" d="M143.668 1095.38 L148.553 1095.38 L148.553 1101.26 L143.668 1101.26 L143.668 1095.38 Z" fill="#000000" fill-rule="nonzero" fill-opacity="1" /><path clip-path="url(#clip920)" d="M158.784 1066.7 L177.14 1066.7 L177.14 1070.63 L163.066 1070.63 L163.066 1079.11 Q164.085 1078.76 165.103 1078.6 Q166.122 1078.41 167.141 1078.41 Q172.928 1078.41 176.307 1081.58 Q179.687 1084.75 179.687 1090.17 Q179.687 1095.75 176.215 1098.85 Q172.742 1101.93 166.423 1101.93 Q164.247 1101.93 161.979 1101.56 Q159.733 1101.19 157.326 1100.45 L157.326 1095.75 Q159.409 1096.88 161.631 1097.44 Q163.853 1098 166.33 1098 Q170.335 1098 172.673 1095.89 Q175.011 1093.78 175.011 1090.17 Q175.011 1086.56 172.673 1084.45 Q170.335 1082.35 166.33 1082.35 Q164.455 1082.35 162.58 1082.76 Q160.729 1083.18 158.784 1084.06 L158.784 1066.7 Z" fill="#000000" fill-rule="nonzero" fill-opacity="1" /><path clip-path="url(#clip920)" d="M83.1595 809.775 L90.7983 809.775 L90.7983 783.41 L82.4882 785.076 L82.4882 780.817 L90.752 779.15 L95.4279 779.15 L95.4279 809.775 L103.067 809.775 L103.067 813.71 L83.1595 813.71 L83.1595 809.775 Z" fill="#000000" fill-rule="nonzero" fill-opacity="1" /><path clip-path="url(#clip920)" d="M116.539 809.775 L132.858 809.775 L132.858 813.71 L110.914 813.71 L110.914 809.775 Q113.576 807.021 118.159 802.391 Q122.766 797.738 123.946 796.396 Q126.192 793.873 127.071 792.136 Q127.974 790.377 127.974 788.687 Q127.974 785.933 126.03 784.197 Q124.108 782.461 121.007 782.461 Q118.807 782.461 116.354 783.224 Q113.923 783.988 111.145 785.539 L111.145 780.817 Q113.97 779.683 116.423 779.104 Q118.877 778.525 120.914 778.525 Q126.284 778.525 129.479 781.211 Q132.673 783.896 132.673 788.386 Q132.673 790.516 131.863 792.437 Q131.076 794.336 128.969 796.928 Q128.391 797.599 125.289 800.817 Q122.187 804.011 116.539 809.775 Z" fill="#000000" fill-rule="nonzero" fill-opacity="1" /><path clip-path="url(#clip920)" d="M142.673 807.831 L147.557 807.831 L147.557 813.71 L142.673 813.71 L142.673 807.831 Z" fill="#000000" fill-rule="nonzero" fill-opacity="1" /><path clip-path="url(#clip920)" d="M167.742 782.229 Q164.131 782.229 162.303 785.794 Q160.497 789.336 160.497 796.465 Q160.497 803.572 162.303 807.136 Q164.131 810.678 167.742 810.678 Q171.377 810.678 173.182 807.136 Q175.011 803.572 175.011 796.465 Q175.011 789.336 173.182 785.794 Q171.377 782.229 167.742 782.229 M167.742 778.525 Q173.553 778.525 176.608 783.132 Q179.687 787.715 179.687 796.465 Q179.687 805.192 176.608 809.798 Q173.553 814.382 167.742 814.382 Q161.932 814.382 158.854 809.798 Q155.798 805.192 155.798 796.465 Q155.798 787.715 158.854 783.132 Q161.932 778.525 167.742 778.525 Z" fill="#000000" fill-rule="nonzero" fill-opacity="1" /><path clip-path="url(#clip920)" d="M84.1548 522.227 L91.7937 522.227 L91.7937 495.861 L83.4836 497.528 L83.4836 493.268 L91.7474 491.602 L96.4233 491.602 L96.4233 522.227 L104.062 522.227 L104.062 526.162 L84.1548 526.162 L84.1548 522.227 Z" fill="#000000" fill-rule="nonzero" fill-opacity="1" /><path clip-path="url(#clip920)" d="M117.534 522.227 L133.854 522.227 L133.854 526.162 L111.909 526.162 L111.909 522.227 Q114.571 519.472 119.155 514.842 Q123.761 510.19 124.942 508.847 Q127.187 506.324 128.067 504.588 Q128.969 502.829 128.969 501.139 Q128.969 498.384 127.025 496.648 Q125.104 494.912 122.002 494.912 Q119.803 494.912 117.349 495.676 Q114.919 496.44 112.141 497.991 L112.141 493.268 Q114.965 492.134 117.419 491.555 Q119.872 490.977 121.909 490.977 Q127.28 490.977 130.474 493.662 Q133.668 496.347 133.668 500.838 Q133.668 502.967 132.858 504.889 Q132.071 506.787 129.965 509.379 Q129.386 510.051 126.284 513.268 Q123.182 516.463 117.534 522.227 Z" fill="#000000" fill-rule="nonzero" fill-opacity="1" /><path clip-path="url(#clip920)" d="M143.668 520.282 L148.553 520.282 L148.553 526.162 L143.668 526.162 L143.668 520.282 Z" fill="#000000" fill-rule="nonzero" fill-opacity="1" /><path clip-path="url(#clip920)" d="M158.784 491.602 L177.14 491.602 L177.14 495.537 L163.066 495.537 L163.066 504.009 Q164.085 503.662 165.103 503.5 Q166.122 503.315 167.141 503.315 Q172.928 503.315 176.307 506.486 Q179.687 509.657 179.687 515.074 Q179.687 520.653 176.215 523.754 Q172.742 526.833 166.423 526.833 Q164.247 526.833 161.979 526.463 Q159.733 526.092 157.326 525.352 L157.326 520.653 Q159.409 521.787 161.631 522.342 Q163.853 522.898 166.33 522.898 Q170.335 522.898 172.673 520.791 Q175.011 518.685 175.011 515.074 Q175.011 511.463 172.673 509.356 Q170.335 507.25 166.33 507.25 Q164.455 507.25 162.58 507.666 Q160.729 508.083 158.784 508.963 L158.784 491.602 Z" fill="#000000" fill-rule="nonzero" fill-opacity="1" /><path clip-path="url(#clip920)" d="M83.1595 234.678 L90.7983 234.678 L90.7983 208.312 L82.4882 209.979 L82.4882 205.72 L90.752 204.053 L95.4279 204.053 L95.4279 234.678 L103.067 234.678 L103.067 238.613 L83.1595 238.613 L83.1595 234.678 Z" fill="#000000" fill-rule="nonzero" fill-opacity="1" /><path clip-path="url(#clip920)" d="M126.678 219.979 Q130.034 220.696 131.909 222.965 Q133.807 225.234 133.807 228.567 Q133.807 233.683 130.289 236.483 Q126.77 239.284 120.289 239.284 Q118.113 239.284 115.798 238.845 Q113.507 238.428 111.053 237.571 L111.053 233.058 Q112.997 234.192 115.312 234.77 Q117.627 235.349 120.15 235.349 Q124.548 235.349 126.84 233.613 Q129.155 231.877 129.155 228.567 Q129.155 225.511 127.002 223.798 Q124.872 222.062 121.053 222.062 L117.025 222.062 L117.025 218.22 L121.238 218.22 Q124.687 218.22 126.516 216.854 Q128.344 215.465 128.344 212.872 Q128.344 210.21 126.446 208.798 Q124.571 207.363 121.053 207.363 Q119.132 207.363 116.932 207.78 Q114.733 208.197 112.095 209.076 L112.095 204.91 Q114.757 204.169 117.071 203.798 Q119.409 203.428 121.469 203.428 Q126.794 203.428 129.895 205.859 Q132.997 208.266 132.997 212.386 Q132.997 215.257 131.354 217.247 Q129.71 219.215 126.678 219.979 Z" fill="#000000" fill-rule="nonzero" fill-opacity="1" /><path clip-path="url(#clip920)" d="M142.673 232.733 L147.557 232.733 L147.557 238.613 L142.673 238.613 L142.673 232.733 Z" fill="#000000" fill-rule="nonzero" fill-opacity="1" /><path clip-path="url(#clip920)" d="M167.742 207.132 Q164.131 207.132 162.303 210.697 Q160.497 214.238 160.497 221.368 Q160.497 228.474 162.303 232.039 Q164.131 235.581 167.742 235.581 Q171.377 235.581 173.182 232.039 Q175.011 228.474 175.011 221.368 Q175.011 214.238 173.182 210.697 Q171.377 207.132 167.742 207.132 M167.742 203.428 Q173.553 203.428 176.608 208.035 Q179.687 212.618 179.687 221.368 Q179.687 230.095 176.608 234.701 Q173.553 239.284 167.742 239.284 Q161.932 239.284 158.854 234.701 Q155.798 230.095 155.798 221.368 Q155.798 212.618 158.854 208.035 Q161.932 203.428 167.742 203.428 Z" fill="#000000" fill-rule="nonzero" fill-opacity="1" /><path clip-path="url(#clip920)" d="M1203.59 20.677 L1203.59 25.6538 Q1201.34 24.4096 1199.05 23.802 Q1196.79 23.1654 1194.48 23.1654 Q1189.3 23.1654 1186.44 26.464 Q1183.57 29.7336 1183.57 35.6653 Q1183.57 41.597 1186.44 44.8956 Q1189.3 48.1653 1194.48 48.1653 Q1196.79 48.1653 1199.05 47.5576 Q1201.34 46.921 1203.59 45.6768 L1203.59 50.5958 Q1201.37 51.6375 1198.96 52.1583 Q1196.59 52.6791 1193.9 52.6791 Q1186.58 52.6791 1182.27 48.0784 Q1177.96 43.4778 1177.96 35.6653 Q1177.96 27.7371 1182.3 23.1943 Q1186.67 18.6515 1194.25 18.6515 Q1196.71 18.6515 1199.05 19.1724 Q1201.39 19.6642 1203.59 20.677 Z" fill="#000000" fill-rule="nonzero" fill-opacity="1" /><path clip-path="url(#clip920)" d="M1225.41 23.1654 Q1221.13 23.1654 1218.64 26.5218 Q1216.15 29.8494 1216.15 35.6653 Q1216.15 41.4813 1218.61 44.8377 Q1221.1 48.1653 1225.41 48.1653 Q1229.66 48.1653 1232.15 44.8088 Q1234.64 41.4523 1234.64 35.6653 Q1234.64 29.9072 1232.15 26.5508 Q1229.66 23.1654 1225.41 23.1654 M1225.41 18.6515 Q1232.36 18.6515 1236.32 23.1654 Q1240.28 27.6792 1240.28 35.6653 Q1240.28 43.6225 1236.32 48.1653 Q1232.36 52.6791 1225.41 52.6791 Q1218.44 52.6791 1214.47 48.1653 Q1210.54 43.6225 1210.54 35.6653 Q1210.54 27.6792 1214.47 23.1654 Q1218.44 18.6515 1225.41 18.6515 Z" fill="#000000" fill-rule="nonzero" fill-opacity="1" /><path clip-path="url(#clip920)" d="M1269.77 20.3876 L1269.77 25.4223 Q1267.51 24.2649 1265.08 23.6862 Q1262.65 23.1075 1260.05 23.1075 Q1256.08 23.1075 1254.09 24.3228 Q1252.12 25.5381 1252.12 27.9686 Q1252.12 29.8204 1253.54 30.891 Q1254.95 31.9327 1259.24 32.8876 L1261.06 33.2926 Q1266.73 34.5079 1269.1 36.7359 Q1271.5 38.935 1271.5 42.8991 Q1271.5 47.4129 1267.92 50.046 Q1264.36 52.6791 1258.11 52.6791 Q1255.5 52.6791 1252.67 52.1583 Q1249.86 51.6664 1246.74 50.6537 L1246.74 45.156 Q1249.69 46.6896 1252.55 47.4708 Q1255.42 48.2231 1258.22 48.2231 Q1261.98 48.2231 1264.01 46.95 Q1266.04 45.6479 1266.04 43.3042 Q1266.04 41.134 1264.56 39.9766 Q1263.11 38.8192 1258.17 37.7486 L1256.31 37.3146 Q1251.37 36.273 1249.17 34.1318 Q1246.97 31.9616 1246.97 28.2001 Q1246.97 23.6283 1250.21 21.1399 Q1253.45 18.6515 1259.41 18.6515 Q1262.36 18.6515 1264.97 19.0855 Q1267.57 19.5196 1269.77 20.3876 Z" fill="#000000" fill-rule="nonzero" fill-opacity="1" /><path clip-path="url(#clip920)" d="M1285.25 10.2314 L1285.25 19.4328 L1296.21 19.4328 L1296.21 23.5705 L1285.25 23.5705 L1285.25 41.163 Q1285.25 45.1271 1286.32 46.2555 Q1287.42 47.384 1290.75 47.384 L1296.21 47.384 L1296.21 51.84 L1290.75 51.84 Q1284.58 51.84 1282.24 49.5541 Q1279.9 47.2393 1279.9 41.163 L1279.9 23.5705 L1275.99 23.5705 L1275.99 19.4328 L1279.9 19.4328 L1279.9 10.2314 L1285.25 10.2314 Z" fill="#000000" fill-rule="nonzero" fill-opacity="1" /><path clip-path="url(#clip920)" d="M1317.95 35.5496 Q1311.49 35.5496 1309 37.0253 Q1306.52 38.501 1306.52 42.06 Q1306.52 44.8956 1308.37 46.5738 Q1310.25 48.2231 1313.46 48.2231 Q1317.89 48.2231 1320.55 45.0981 Q1323.24 41.9442 1323.24 36.7359 L1323.24 35.5496 L1317.95 35.5496 M1328.56 33.3505 L1328.56 51.84 L1323.24 51.84 L1323.24 46.921 Q1321.42 49.8724 1318.7 51.2902 Q1315.98 52.6791 1312.04 52.6791 Q1307.07 52.6791 1304.11 49.9014 Q1301.19 47.0947 1301.19 42.4072 Q1301.19 36.9385 1304.84 34.1607 Q1308.51 31.3829 1315.77 31.3829 L1323.24 31.3829 L1323.24 30.8621 Q1323.24 27.1874 1320.81 25.1908 Q1318.41 23.1654 1314.04 23.1654 Q1311.26 23.1654 1308.63 23.8309 Q1305.99 24.4964 1303.56 25.8274 L1303.56 20.9085 Q1306.49 19.78 1309.24 19.2302 Q1311.98 18.6515 1314.59 18.6515 Q1321.62 18.6515 1325.09 22.2973 Q1328.56 25.9431 1328.56 33.3505 Z" fill="#000000" fill-rule="nonzero" fill-opacity="1" /><path clip-path="url(#clip920)" d="M1344.8 10.2314 L1344.8 19.4328 L1355.76 19.4328 L1355.76 23.5705 L1344.8 23.5705 L1344.8 41.163 Q1344.8 45.1271 1345.87 46.2555 Q1346.97 47.384 1350.29 47.384 L1355.76 47.384 L1355.76 51.84 L1350.29 51.84 Q1344.13 51.84 1341.79 49.5541 Q1339.44 47.2393 1339.44 41.163 L1339.44 23.5705 L1335.54 23.5705 L1335.54 19.4328 L1339.44 19.4328 L1339.44 10.2314 L1344.8 10.2314 Z" fill="#000000" fill-rule="nonzero" fill-opacity="1" /><path clip-path="url(#clip920)" d="M1390.49 34.3054 L1390.49 36.9095 L1366.01 36.9095 Q1366.35 42.4072 1369.3 45.3007 Q1372.29 48.1653 1377.58 48.1653 Q1380.65 48.1653 1383.51 47.4129 Q1386.41 46.6606 1389.24 45.156 L1389.24 50.1907 Q1386.38 51.406 1383.37 52.0425 Q1380.36 52.6791 1377.26 52.6791 Q1369.51 52.6791 1364.96 48.1653 Q1360.45 43.6514 1360.45 35.9547 Q1360.45 27.9975 1364.73 23.339 Q1369.04 18.6515 1376.34 18.6515 Q1382.88 18.6515 1386.67 22.876 Q1390.49 27.0716 1390.49 34.3054 M1385.16 32.7429 Q1385.1 28.3737 1382.7 25.7695 Q1380.33 23.1654 1376.39 23.1654 Q1371.94 23.1654 1369.25 25.6827 Q1366.58 28.2001 1366.18 32.7718 L1385.16 32.7429 Z" fill="#000000" fill-rule="nonzero" fill-opacity="1" /><polyline clip-path="url(#clip922)" style="stroke:#000000; stroke-linecap:round; stroke-linejoin:round; stroke-width:4; stroke-opacity:1; fill:none" stroke-dasharray="16, 10" points="276.17,2866.7 276.17,-1274.06 "/>
<polyline clip-path="url(#clip922)" style="stroke:#000000; stroke-linecap:round; stroke-linejoin:round; stroke-width:4; stroke-opacity:1; fill:none" stroke-dasharray="16, 10" points="2292.27,2866.7 2292.27,-1274.06 "/>
<polyline clip-path="url(#clip922)" style="stroke:#009af9; stroke-linecap:round; stroke-linejoin:round; stroke-width:8; stroke-opacity:1; fill:none" points="276.17,796.32 284.234,796.32 292.299,796.32 300.363,796.32 308.427,796.32 316.492,796.32 324.556,796.32 332.621,796.32 340.685,796.32 348.75,796.32 356.814,796.32 364.878,796.32 372.943,796.32 381.007,796.32 389.072,796.32 397.136,796.32 405.2,796.32 413.265,796.32 421.329,796.32 429.394,796.32 437.458,796.32 445.522,796.32 453.587,796.32 461.651,796.32 469.716,796.32 477.78,796.32 485.845,796.32 493.909,796.32 501.973,796.32 510.038,796.32 518.102,796.32 526.167,796.32 534.231,796.32 542.295,796.32 550.36,796.32 558.424,796.32 566.489,796.32 574.553,796.32 582.617,796.32 590.682,796.32 598.746,796.32 606.811,796.32 614.875,796.32 622.94,796.32 631.004,796.32 639.068,796.32 647.133,796.32 655.197,796.32 663.262,796.32 671.326,796.32 679.39,796.32 687.455,796.32 695.519,796.32 703.584,796.32 711.648,796.32 719.712,796.32 727.777,796.32 735.841,796.32 743.906,796.32 751.97,796.32 760.035,796.32 768.099,796.32 776.163,796.32 784.228,796.32 792.292,796.32 800.357,796.32 808.421,796.32 816.485,796.32 824.55,796.32 832.614,796.32 840.679,796.32 848.743,796.32 856.807,796.32 864.872,796.32 872.936,796.32 881.001,796.32 889.065,796.32 897.13,796.32 905.194,796.32 913.258,796.32 921.323,796.32 929.387,796.32 937.452,796.32 945.516,796.32 953.58,796.32 961.645,796.32 969.709,796.32 977.774,796.32 985.838,796.32 993.902,796.32 1001.97,796.32 1010.03,796.32 1018.1,796.32 1026.16,796.32 1034.22,796.32 1042.29,796.32 1050.35,796.32 1058.42,796.32 1066.48,796.32 1074.55,796.32 1082.61,796.32 1090.68,796.32 1098.74,796.32 1106.8,796.32 1114.87,796.32 1122.93,796.32 1131,796.32 1139.06,796.32 1147.13,796.32 1155.19,796.32 1163.26,796.32 1171.32,796.32 1179.38,796.32 1187.45,796.32 1195.51,796.32 1203.58,796.32 1211.64,796.32 1219.71,796.32 1227.77,796.32 1235.83,796.32 1243.9,796.32 1251.96,796.32 1260.03,796.32 1268.09,796.32 1276.16,796.32 1284.22,796.32 1292.29,796.32 1300.35,796.32 1308.41,796.32 1316.48,796.32 1324.54,796.32 1332.61,796.32 1340.67,796.32 1348.74,796.32 1356.8,796.32 1364.87,796.32 1372.93,796.32 1380.99,796.32 1389.06,796.32 1397.12,796.32 1405.19,796.32 1413.25,796.32 1421.32,796.32 1429.38,796.32 1437.45,796.32 1445.51,796.32 1453.57,796.32 1461.64,796.32 1469.7,796.32 1477.77,796.32 1485.83,796.32 1493.9,796.32 1501.96,796.32 1510.02,796.32 1518.09,796.32 1526.15,796.32 1534.22,796.32 1542.28,796.32 1550.35,796.32 1558.41,796.32 1566.48,796.32 1574.54,796.32 1582.6,796.32 1590.67,796.32 1598.73,796.32 1606.8,796.32 1614.86,796.32 1622.93,796.32 1630.99,796.32 1639.06,796.32 1647.12,796.32 1655.18,796.32 1663.25,796.32 1671.31,796.32 1679.38,796.32 1687.44,796.32 1695.51,796.32 1703.57,796.32 1711.64,796.32 1719.7,796.32 1727.76,796.32 1735.83,796.32 1743.89,796.32 1751.96,796.32 1760.02,796.32 1768.09,796.32 1776.15,796.32 1784.21,796.32 1792.28,796.32 1800.34,796.32 1808.41,796.32 1816.47,796.32 1824.54,796.32 1832.6,796.32 1840.67,796.32 1848.73,796.32 1856.79,796.32 1864.86,796.32 1872.92,796.32 1880.99,796.32 1889.05,796.32 1897.12,796.32 1905.18,796.32 1913.25,796.32 1921.31,796.32 1929.37,796.32 1937.44,796.32 1945.5,796.32 1953.57,796.32 1961.63,796.32 1969.7,796.32 1977.76,796.32 1985.83,796.32 1993.89,796.32 2001.95,796.32 2010.02,796.32 2018.08,796.32 2026.15,796.32 2034.21,796.32 2042.28,796.32 2050.34,796.32 2058.4,796.32 2066.47,796.32 2074.53,796.32 2082.6,796.32 2090.66,796.32 2098.73,796.32 2106.79,796.32 2114.86,796.32 2122.92,796.32 2130.98,796.32 2139.05,796.32 2147.11,796.32 2155.18,796.32 2163.24,796.32 2171.31,796.32 2179.37,796.32 2187.44,796.32 2195.5,796.32 2203.56,796.32 2211.63,796.32 2219.69,796.32 2227.76,796.32 2235.82,796.32 2243.89,796.32 2251.95,796.32 2260.02,796.32 2268.08,796.32 2276.14,796.32 2284.21,796.32 2292.27,796.32 "/>
</svg>
