<?xml version="1.0" encoding="utf-8"?>
<svg xmlns="http://www.w3.org/2000/svg" xmlns:xlink="http://www.w3.org/1999/xlink" width="800" height="400" viewBox="0 0 3200 1600">
<defs>
  <clipPath id="clip270">
    <rect x="0" y="0" width="3200" height="1600"/>
  </clipPath>
</defs>
<path clip-path="url(#clip270)" d="M0 1600 L3200 1600 L3200 0 L0 0  Z" fill="#ffffff" fill-rule="evenodd" fill-opacity="1"/>
<defs>
  <clipPath id="clip271">
    <rect x="273" y="95" width="2880" height="1353"/>
  </clipPath>
</defs>
<path clip-path="url(#clip270)" d="M273.918 1446.94 L3152.76 1446.94 L3152.76 95.3921 L273.918 95.3921  Z" fill="#ffffff" fill-rule="evenodd" fill-opacity="1"/>
<polyline clip-path="url(#clip271)" style="stroke:#000000; stroke-linecap:round; stroke-linejoin:round; stroke-width:2; stroke-opacity:0.1; fill:none" points="355.395,1446.94 355.395,95.3921 "/>
<polyline clip-path="url(#clip271)" style="stroke:#000000; stroke-linecap:round; stroke-linejoin:round; stroke-width:2; stroke-opacity:0.1; fill:none" points="945.943,1446.94 945.943,95.3921 "/>
<polyline clip-path="url(#clip271)" style="stroke:#000000; stroke-linecap:round; stroke-linejoin:round; stroke-width:2; stroke-opacity:0.1; fill:none" points="1536.49,1446.94 1536.49,95.3921 "/>
<polyline clip-path="url(#clip271)" style="stroke:#000000; stroke-linecap:round; stroke-linejoin:round; stroke-width:2; stroke-opacity:0.1; fill:none" points="2127.04,1446.94 2127.04,95.3921 "/>
<polyline clip-path="url(#clip271)" style="stroke:#000000; stroke-linecap:round; stroke-linejoin:round; stroke-width:2; stroke-opacity:0.1; fill:none" points="2717.59,1446.94 2717.59,95.3921 "/>
<polyline clip-path="url(#clip271)" style="stroke:#000000; stroke-linecap:round; stroke-linejoin:round; stroke-width:2; stroke-opacity:0.1; fill:none" points="273.918,1308.08 3152.76,1308.08 "/>
<polyline clip-path="url(#clip271)" style="stroke:#000000; stroke-linecap:round; stroke-linejoin:round; stroke-width:2; stroke-opacity:0.1; fill:none" points="273.918,1074.43 3152.76,1074.43 "/>
<polyline clip-path="url(#clip271)" style="stroke:#000000; stroke-linecap:round; stroke-linejoin:round; stroke-width:2; stroke-opacity:0.1; fill:none" points="273.918,840.77 3152.76,840.77 "/>
<polyline clip-path="url(#clip271)" style="stroke:#000000; stroke-linecap:round; stroke-linejoin:round; stroke-width:2; stroke-opacity:0.1; fill:none" points="273.918,607.113 3152.76,607.113 "/>
<polyline clip-path="url(#clip271)" style="stroke:#000000; stroke-linecap:round; stroke-linejoin:round; stroke-width:2; stroke-opacity:0.1; fill:none" points="273.918,373.456 3152.76,373.456 "/>
<polyline clip-path="url(#clip271)" style="stroke:#000000; stroke-linecap:round; stroke-linejoin:round; stroke-width:2; stroke-opacity:0.1; fill:none" points="273.918,139.799 3152.76,139.799 "/>
<polyline clip-path="url(#clip270)" style="stroke:#000000; stroke-linecap:round; stroke-linejoin:round; stroke-width:4; stroke-opacity:1; fill:none" points="273.918,1446.94 3152.76,1446.94 "/>
<polyline clip-path="url(#clip270)" style="stroke:#000000; stroke-linecap:round; stroke-linejoin:round; stroke-width:4; stroke-opacity:1; fill:none" points="355.395,1446.94 355.395,1428.04 "/>
<polyline clip-path="url(#clip270)" style="stroke:#000000; stroke-linecap:round; stroke-linejoin:round; stroke-width:4; stroke-opacity:1; fill:none" points="945.943,1446.94 945.943,1428.04 "/>
<polyline clip-path="url(#clip270)" style="stroke:#000000; stroke-linecap:round; stroke-linejoin:round; stroke-width:4; stroke-opacity:1; fill:none" points="1536.49,1446.94 1536.49,1428.04 "/>
<polyline clip-path="url(#clip270)" style="stroke:#000000; stroke-linecap:round; stroke-linejoin:round; stroke-width:4; stroke-opacity:1; fill:none" points="2127.04,1446.94 2127.04,1428.04 "/>
<polyline clip-path="url(#clip270)" style="stroke:#000000; stroke-linecap:round; stroke-linejoin:round; stroke-width:4; stroke-opacity:1; fill:none" points="2717.59,1446.94 2717.59,1428.04 "/>
<path clip-path="url(#clip270)" d="M317.698 1484.26 Q314.087 1484.26 312.258 1487.82 Q310.453 1491.36 310.453 1498.49 Q310.453 1505.6 312.258 1509.17 Q314.087 1512.71 317.698 1512.71 Q321.332 1512.71 323.138 1509.17 Q324.967 1505.6 324.967 1498.49 Q324.967 1491.36 323.138 1487.82 Q321.332 1484.26 317.698 1484.26 M317.698 1480.55 Q323.508 1480.55 326.564 1485.16 Q329.642 1489.74 329.642 1498.49 Q329.642 1507.22 326.564 1511.83 Q323.508 1516.41 317.698 1516.41 Q311.888 1516.41 308.809 1511.83 Q305.754 1507.22 305.754 1498.49 Q305.754 1489.74 308.809 1485.16 Q311.888 1480.55 317.698 1480.55 Z" fill="#000000" fill-rule="nonzero" fill-opacity="1" /><path clip-path="url(#clip270)" d="M337.86 1509.86 L342.744 1509.86 L342.744 1515.74 L337.86 1515.74 L337.86 1509.86 Z" fill="#000000" fill-rule="nonzero" fill-opacity="1" /><path clip-path="url(#clip270)" d="M362.929 1484.26 Q359.318 1484.26 357.49 1487.82 Q355.684 1491.36 355.684 1498.49 Q355.684 1505.6 357.49 1509.17 Q359.318 1512.71 362.929 1512.71 Q366.564 1512.71 368.369 1509.17 Q370.198 1505.6 370.198 1498.49 Q370.198 1491.36 368.369 1487.82 Q366.564 1484.26 362.929 1484.26 M362.929 1480.55 Q368.739 1480.55 371.795 1485.16 Q374.874 1489.74 374.874 1498.49 Q374.874 1507.22 371.795 1511.83 Q368.739 1516.41 362.929 1516.41 Q357.119 1516.41 354.04 1511.83 Q350.985 1507.22 350.985 1498.49 Q350.985 1489.74 354.04 1485.16 Q357.119 1480.55 362.929 1480.55 Z" fill="#000000" fill-rule="nonzero" fill-opacity="1" /><path clip-path="url(#clip270)" d="M393.091 1484.26 Q389.48 1484.26 387.651 1487.82 Q385.846 1491.36 385.846 1498.49 Q385.846 1505.6 387.651 1509.17 Q389.48 1512.71 393.091 1512.71 Q396.725 1512.71 398.531 1509.17 Q400.36 1505.6 400.36 1498.49 Q400.36 1491.36 398.531 1487.82 Q396.725 1484.26 393.091 1484.26 M393.091 1480.55 Q398.901 1480.55 401.957 1485.16 Q405.036 1489.74 405.036 1498.49 Q405.036 1507.22 401.957 1511.83 Q398.901 1516.41 393.091 1516.41 Q387.281 1516.41 384.202 1511.83 Q381.147 1507.22 381.147 1498.49 Q381.147 1489.74 384.202 1485.16 Q387.281 1480.55 393.091 1480.55 Z" fill="#000000" fill-rule="nonzero" fill-opacity="1" /><path clip-path="url(#clip270)" d="M908.744 1484.26 Q905.133 1484.26 903.304 1487.82 Q901.498 1491.36 901.498 1498.49 Q901.498 1505.6 903.304 1509.17 Q905.133 1512.71 908.744 1512.71 Q912.378 1512.71 914.183 1509.17 Q916.012 1505.6 916.012 1498.49 Q916.012 1491.36 914.183 1487.82 Q912.378 1484.26 908.744 1484.26 M908.744 1480.55 Q914.554 1480.55 917.609 1485.16 Q920.688 1489.74 920.688 1498.49 Q920.688 1507.22 917.609 1511.83 Q914.554 1516.41 908.744 1516.41 Q902.933 1516.41 899.855 1511.83 Q896.799 1507.22 896.799 1498.49 Q896.799 1489.74 899.855 1485.16 Q902.933 1480.55 908.744 1480.55 Z" fill="#000000" fill-rule="nonzero" fill-opacity="1" /><path clip-path="url(#clip270)" d="M928.906 1509.86 L933.79 1509.86 L933.79 1515.74 L928.906 1515.74 L928.906 1509.86 Z" fill="#000000" fill-rule="nonzero" fill-opacity="1" /><path clip-path="url(#clip270)" d="M948.003 1511.8 L964.322 1511.8 L964.322 1515.74 L942.378 1515.74 L942.378 1511.8 Q945.04 1509.05 949.623 1504.42 Q954.23 1499.77 955.41 1498.43 Q957.655 1495.9 958.535 1494.17 Q959.438 1492.41 959.438 1490.72 Q959.438 1487.96 957.493 1486.23 Q955.572 1484.49 952.47 1484.49 Q950.271 1484.49 947.818 1485.25 Q945.387 1486.02 942.609 1487.57 L942.609 1482.85 Q945.433 1481.71 947.887 1481.13 Q950.341 1480.55 952.378 1480.55 Q957.748 1480.55 960.942 1483.24 Q964.137 1485.93 964.137 1490.42 Q964.137 1492.55 963.327 1494.47 Q962.54 1496.36 960.433 1498.96 Q959.854 1499.63 956.753 1502.85 Q953.651 1506.04 948.003 1511.8 Z" fill="#000000" fill-rule="nonzero" fill-opacity="1" /><path clip-path="url(#clip270)" d="M974.183 1481.18 L992.539 1481.18 L992.539 1485.12 L978.465 1485.12 L978.465 1493.59 Q979.484 1493.24 980.503 1493.08 Q981.521 1492.89 982.54 1492.89 Q988.327 1492.89 991.706 1496.06 Q995.086 1499.24 995.086 1504.65 Q995.086 1510.23 991.614 1513.33 Q988.141 1516.41 981.822 1516.41 Q979.646 1516.41 977.378 1516.04 Q975.132 1515.67 972.725 1514.93 L972.725 1510.23 Q974.808 1511.36 977.03 1511.92 Q979.253 1512.48 981.729 1512.48 Q985.734 1512.48 988.072 1510.37 Q990.41 1508.26 990.41 1504.65 Q990.41 1501.04 988.072 1498.93 Q985.734 1496.83 981.729 1496.83 Q979.854 1496.83 977.979 1497.24 Q976.128 1497.66 974.183 1498.54 L974.183 1481.18 Z" fill="#000000" fill-rule="nonzero" fill-opacity="1" /><path clip-path="url(#clip270)" d="M1498.79 1484.26 Q1495.18 1484.26 1493.35 1487.82 Q1491.55 1491.36 1491.55 1498.49 Q1491.55 1505.6 1493.35 1509.17 Q1495.18 1512.71 1498.79 1512.71 Q1502.43 1512.71 1504.23 1509.17 Q1506.06 1505.6 1506.06 1498.49 Q1506.06 1491.36 1504.23 1487.82 Q1502.43 1484.26 1498.79 1484.26 M1498.79 1480.55 Q1504.6 1480.55 1507.66 1485.16 Q1510.74 1489.74 1510.74 1498.49 Q1510.74 1507.22 1507.66 1511.83 Q1504.6 1516.41 1498.79 1516.41 Q1492.98 1516.41 1489.9 1511.83 Q1486.85 1507.22 1486.85 1498.49 Q1486.85 1489.74 1489.9 1485.16 Q1492.98 1480.55 1498.79 1480.55 Z" fill="#000000" fill-rule="nonzero" fill-opacity="1" /><path clip-path="url(#clip270)" d="M1518.96 1509.86 L1523.84 1509.86 L1523.84 1515.74 L1518.96 1515.74 L1518.96 1509.86 Z" fill="#000000" fill-rule="nonzero" fill-opacity="1" /><path clip-path="url(#clip270)" d="M1534.07 1481.18 L1552.43 1481.18 L1552.43 1485.12 L1538.35 1485.12 L1538.35 1493.59 Q1539.37 1493.24 1540.39 1493.08 Q1541.41 1492.89 1542.43 1492.89 Q1548.21 1492.89 1551.59 1496.06 Q1554.97 1499.24 1554.97 1504.65 Q1554.97 1510.23 1551.5 1513.33 Q1548.03 1516.41 1541.71 1516.41 Q1539.53 1516.41 1537.27 1516.04 Q1535.02 1515.67 1532.61 1514.93 L1532.61 1510.23 Q1534.7 1511.36 1536.92 1511.92 Q1539.14 1512.48 1541.62 1512.48 Q1545.62 1512.48 1547.96 1510.37 Q1550.3 1508.26 1550.3 1504.65 Q1550.3 1501.04 1547.96 1498.93 Q1545.62 1496.83 1541.62 1496.83 Q1539.74 1496.83 1537.87 1497.24 Q1536.02 1497.66 1534.07 1498.54 L1534.07 1481.18 Z" fill="#000000" fill-rule="nonzero" fill-opacity="1" /><path clip-path="url(#clip270)" d="M1574.19 1484.26 Q1570.58 1484.26 1568.75 1487.82 Q1566.94 1491.36 1566.94 1498.49 Q1566.94 1505.6 1568.75 1509.17 Q1570.58 1512.71 1574.19 1512.71 Q1577.82 1512.71 1579.63 1509.17 Q1581.46 1505.6 1581.46 1498.49 Q1581.46 1491.36 1579.63 1487.82 Q1577.82 1484.26 1574.19 1484.26 M1574.19 1480.55 Q1580 1480.55 1583.05 1485.16 Q1586.13 1489.74 1586.13 1498.49 Q1586.13 1507.22 1583.05 1511.83 Q1580 1516.41 1574.19 1516.41 Q1568.38 1516.41 1565.3 1511.83 Q1562.24 1507.22 1562.24 1498.49 Q1562.24 1489.74 1565.3 1485.16 Q1568.38 1480.55 1574.19 1480.55 Z" fill="#000000" fill-rule="nonzero" fill-opacity="1" /><path clip-path="url(#clip270)" d="M2089.84 1484.26 Q2086.23 1484.26 2084.4 1487.82 Q2082.59 1491.36 2082.59 1498.49 Q2082.59 1505.6 2084.4 1509.17 Q2086.23 1512.71 2089.84 1512.71 Q2093.47 1512.71 2095.28 1509.17 Q2097.11 1505.6 2097.11 1498.49 Q2097.11 1491.36 2095.28 1487.82 Q2093.47 1484.26 2089.84 1484.26 M2089.84 1480.55 Q2095.65 1480.55 2098.71 1485.16 Q2101.78 1489.74 2101.78 1498.49 Q2101.78 1507.22 2098.71 1511.83 Q2095.65 1516.41 2089.84 1516.41 Q2084.03 1516.41 2080.95 1511.83 Q2077.9 1507.22 2077.9 1498.49 Q2077.9 1489.74 2080.95 1485.16 Q2084.03 1480.55 2089.84 1480.55 Z" fill="#000000" fill-rule="nonzero" fill-opacity="1" /><path clip-path="url(#clip270)" d="M2110 1509.86 L2114.89 1509.86 L2114.89 1515.74 L2110 1515.74 L2110 1509.86 Z" fill="#000000" fill-rule="nonzero" fill-opacity="1" /><path clip-path="url(#clip270)" d="M2123.89 1481.18 L2146.11 1481.18 L2146.11 1483.17 L2133.57 1515.74 L2128.68 1515.74 L2140.49 1485.12 L2123.89 1485.12 L2123.89 1481.18 Z" fill="#000000" fill-rule="nonzero" fill-opacity="1" /><path clip-path="url(#clip270)" d="M2155.28 1481.18 L2173.64 1481.18 L2173.64 1485.12 L2159.56 1485.12 L2159.56 1493.59 Q2160.58 1493.24 2161.6 1493.08 Q2162.62 1492.89 2163.64 1492.89 Q2169.42 1492.89 2172.8 1496.06 Q2176.18 1499.24 2176.18 1504.65 Q2176.18 1510.23 2172.71 1513.33 Q2169.24 1516.41 2162.92 1516.41 Q2160.74 1516.41 2158.47 1516.04 Q2156.23 1515.67 2153.82 1514.93 L2153.82 1510.23 Q2155.9 1511.36 2158.13 1511.92 Q2160.35 1512.48 2162.83 1512.48 Q2166.83 1512.48 2169.17 1510.37 Q2171.51 1508.26 2171.51 1504.65 Q2171.51 1501.04 2169.17 1498.93 Q2166.83 1496.83 2162.83 1496.83 Q2160.95 1496.83 2159.08 1497.24 Q2157.22 1497.66 2155.28 1498.54 L2155.28 1481.18 Z" fill="#000000" fill-rule="nonzero" fill-opacity="1" /><path clip-path="url(#clip270)" d="M2669.66 1511.8 L2677.3 1511.8 L2677.3 1485.44 L2668.99 1487.11 L2668.99 1482.85 L2677.25 1481.18 L2681.93 1481.18 L2681.93 1511.8 L2689.57 1511.8 L2689.57 1515.74 L2669.66 1515.74 L2669.66 1511.8 Z" fill="#000000" fill-rule="nonzero" fill-opacity="1" /><path clip-path="url(#clip270)" d="M2699.01 1509.86 L2703.89 1509.86 L2703.89 1515.74 L2699.01 1515.74 L2699.01 1509.86 Z" fill="#000000" fill-rule="nonzero" fill-opacity="1" /><path clip-path="url(#clip270)" d="M2724.08 1484.26 Q2720.47 1484.26 2718.64 1487.82 Q2716.83 1491.36 2716.83 1498.49 Q2716.83 1505.6 2718.64 1509.17 Q2720.47 1512.71 2724.08 1512.71 Q2727.71 1512.71 2729.52 1509.17 Q2731.35 1505.6 2731.35 1498.49 Q2731.35 1491.36 2729.52 1487.82 Q2727.71 1484.26 2724.08 1484.26 M2724.08 1480.55 Q2729.89 1480.55 2732.94 1485.16 Q2736.02 1489.74 2736.02 1498.49 Q2736.02 1507.22 2732.94 1511.83 Q2729.89 1516.41 2724.08 1516.41 Q2718.27 1516.41 2715.19 1511.83 Q2712.13 1507.22 2712.13 1498.49 Q2712.13 1489.74 2715.19 1485.16 Q2718.27 1480.55 2724.08 1480.55 Z" fill="#000000" fill-rule="nonzero" fill-opacity="1" /><path clip-path="url(#clip270)" d="M2754.24 1484.26 Q2750.63 1484.26 2748.8 1487.82 Q2747 1491.36 2747 1498.49 Q2747 1505.6 2748.8 1509.17 Q2750.63 1512.71 2754.24 1512.71 Q2757.88 1512.71 2759.68 1509.17 Q2761.51 1505.6 2761.51 1498.49 Q2761.51 1491.36 2759.68 1487.82 Q2757.88 1484.26 2754.24 1484.26 M2754.24 1480.55 Q2760.05 1480.55 2763.11 1485.16 Q2766.19 1489.74 2766.19 1498.49 Q2766.19 1507.22 2763.11 1511.83 Q2760.05 1516.41 2754.24 1516.41 Q2748.43 1516.41 2745.35 1511.83 Q2742.3 1507.22 2742.3 1498.49 Q2742.3 1489.74 2745.35 1485.16 Q2748.43 1480.55 2754.24 1480.55 Z" fill="#000000" fill-rule="nonzero" fill-opacity="1" /><path clip-path="url(#clip270)" d="M1712.48 1557.01 L1712.48 1566.21 L1723.45 1566.21 L1723.45 1570.35 L1712.48 1570.35 L1712.48 1587.94 Q1712.48 1591.91 1713.55 1593.04 Q1714.65 1594.16 1717.98 1594.16 L1723.45 1594.16 L1723.45 1598.62 L1717.98 1598.62 Q1711.82 1598.62 1709.47 1596.33 Q1707.13 1594.02 1707.13 1587.94 L1707.13 1570.35 L1703.22 1570.35 L1703.22 1566.21 L1707.13 1566.21 L1707.13 1557.01 L1712.48 1557.01 Z" fill="#000000" fill-rule="nonzero" fill-opacity="1" /><polyline clip-path="url(#clip270)" style="stroke:#000000; stroke-linecap:round; stroke-linejoin:round; stroke-width:4; stroke-opacity:1; fill:none" points="273.918,1446.94 273.918,95.3921 "/>
<polyline clip-path="url(#clip270)" style="stroke:#000000; stroke-linecap:round; stroke-linejoin:round; stroke-width:4; stroke-opacity:1; fill:none" points="273.918,1308.08 292.816,1308.08 "/>
<polyline clip-path="url(#clip270)" style="stroke:#000000; stroke-linecap:round; stroke-linejoin:round; stroke-width:4; stroke-opacity:1; fill:none" points="273.918,1074.43 292.816,1074.43 "/>
<polyline clip-path="url(#clip270)" style="stroke:#000000; stroke-linecap:round; stroke-linejoin:round; stroke-width:4; stroke-opacity:1; fill:none" points="273.918,840.77 292.816,840.77 "/>
<polyline clip-path="url(#clip270)" style="stroke:#000000; stroke-linecap:round; stroke-linejoin:round; stroke-width:4; stroke-opacity:1; fill:none" points="273.918,607.113 292.816,607.113 "/>
<polyline clip-path="url(#clip270)" style="stroke:#000000; stroke-linecap:round; stroke-linejoin:round; stroke-width:4; stroke-opacity:1; fill:none" points="273.918,373.456 292.816,373.456 "/>
<polyline clip-path="url(#clip270)" style="stroke:#000000; stroke-linecap:round; stroke-linejoin:round; stroke-width:4; stroke-opacity:1; fill:none" points="273.918,139.799 292.816,139.799 "/>
<path clip-path="url(#clip270)" d="M139.576 1293.88 Q135.965 1293.88 134.136 1297.45 Q132.331 1300.99 132.331 1308.12 Q132.331 1315.22 134.136 1318.79 Q135.965 1322.33 139.576 1322.33 Q143.21 1322.33 145.016 1318.79 Q146.844 1315.22 146.844 1308.12 Q146.844 1300.99 145.016 1297.45 Q143.21 1293.88 139.576 1293.88 M139.576 1290.18 Q145.386 1290.18 148.442 1294.79 Q151.52 1299.37 151.52 1308.12 Q151.52 1316.85 148.442 1321.45 Q145.386 1326.04 139.576 1326.04 Q133.766 1326.04 130.687 1321.45 Q127.632 1316.85 127.632 1308.12 Q127.632 1299.37 130.687 1294.79 Q133.766 1290.18 139.576 1290.18 Z" fill="#000000" fill-rule="nonzero" fill-opacity="1" /><path clip-path="url(#clip270)" d="M159.738 1319.48 L164.622 1319.48 L164.622 1325.36 L159.738 1325.36 L159.738 1319.48 Z" fill="#000000" fill-rule="nonzero" fill-opacity="1" /><path clip-path="url(#clip270)" d="M175.617 1321.43 L183.256 1321.43 L183.256 1295.06 L174.946 1296.73 L174.946 1292.47 L183.21 1290.8 L187.886 1290.8 L187.886 1321.43 L195.525 1321.43 L195.525 1325.36 L175.617 1325.36 L175.617 1321.43 Z" fill="#000000" fill-rule="nonzero" fill-opacity="1" /><path clip-path="url(#clip270)" d="M205.015 1290.8 L223.372 1290.8 L223.372 1294.74 L209.298 1294.74 L209.298 1303.21 Q210.316 1302.86 211.335 1302.7 Q212.353 1302.52 213.372 1302.52 Q219.159 1302.52 222.538 1305.69 Q225.918 1308.86 225.918 1314.28 Q225.918 1319.85 222.446 1322.96 Q218.974 1326.04 212.654 1326.04 Q210.478 1326.04 208.21 1325.66 Q205.964 1325.29 203.557 1324.55 L203.557 1319.85 Q205.64 1320.99 207.863 1321.54 Q210.085 1322.1 212.562 1322.1 Q216.566 1322.1 218.904 1319.99 Q221.242 1317.89 221.242 1314.28 Q221.242 1310.66 218.904 1308.56 Q216.566 1306.45 212.562 1306.45 Q210.687 1306.45 208.812 1306.87 Q206.96 1307.29 205.015 1308.16 L205.015 1290.8 Z" fill="#000000" fill-rule="nonzero" fill-opacity="1" /><path clip-path="url(#clip270)" d="M138.581 1060.23 Q134.97 1060.23 133.141 1063.79 Q131.335 1067.33 131.335 1074.46 Q131.335 1081.57 133.141 1085.13 Q134.97 1088.67 138.581 1088.67 Q142.215 1088.67 144.02 1085.13 Q145.849 1081.57 145.849 1074.46 Q145.849 1067.33 144.02 1063.79 Q142.215 1060.23 138.581 1060.23 M138.581 1056.52 Q144.391 1056.52 147.446 1061.13 Q150.525 1065.71 150.525 1074.46 Q150.525 1083.19 147.446 1087.79 Q144.391 1092.38 138.581 1092.38 Q132.77 1092.38 129.692 1087.79 Q126.636 1083.19 126.636 1074.46 Q126.636 1065.71 129.692 1061.13 Q132.77 1056.52 138.581 1056.52 Z" fill="#000000" fill-rule="nonzero" fill-opacity="1" /><path clip-path="url(#clip270)" d="M158.743 1085.83 L163.627 1085.83 L163.627 1091.71 L158.743 1091.71 L158.743 1085.83 Z" fill="#000000" fill-rule="nonzero" fill-opacity="1" /><path clip-path="url(#clip270)" d="M177.84 1087.77 L194.159 1087.77 L194.159 1091.71 L172.215 1091.71 L172.215 1087.77 Q174.877 1085.02 179.46 1080.39 Q184.066 1075.73 185.247 1074.39 Q187.492 1071.87 188.372 1070.13 Q189.275 1068.37 189.275 1066.68 Q189.275 1063.93 187.33 1062.19 Q185.409 1060.46 182.307 1060.46 Q180.108 1060.46 177.654 1061.22 Q175.224 1061.98 172.446 1063.54 L172.446 1058.81 Q175.27 1057.68 177.724 1057.1 Q180.178 1056.52 182.215 1056.52 Q187.585 1056.52 190.779 1059.21 Q193.974 1061.89 193.974 1066.38 Q193.974 1068.51 193.164 1070.43 Q192.377 1072.33 190.27 1074.92 Q189.691 1075.6 186.59 1078.81 Q183.488 1082.01 177.84 1087.77 Z" fill="#000000" fill-rule="nonzero" fill-opacity="1" /><path clip-path="url(#clip270)" d="M213.974 1060.23 Q210.363 1060.23 208.534 1063.79 Q206.728 1067.33 206.728 1074.46 Q206.728 1081.57 208.534 1085.13 Q210.363 1088.67 213.974 1088.67 Q217.608 1088.67 219.414 1085.13 Q221.242 1081.57 221.242 1074.46 Q221.242 1067.33 219.414 1063.79 Q217.608 1060.23 213.974 1060.23 M213.974 1056.52 Q219.784 1056.52 222.839 1061.13 Q225.918 1065.71 225.918 1074.46 Q225.918 1083.19 222.839 1087.79 Q219.784 1092.38 213.974 1092.38 Q208.164 1092.38 205.085 1087.79 Q202.029 1083.19 202.029 1074.46 Q202.029 1065.71 205.085 1061.13 Q208.164 1056.52 213.974 1056.52 Z" fill="#000000" fill-rule="nonzero" fill-opacity="1" /><path clip-path="url(#clip270)" d="M139.576 826.569 Q135.965 826.569 134.136 830.133 Q132.331 833.675 132.331 840.805 Q132.331 847.911 134.136 851.476 Q135.965 855.018 139.576 855.018 Q143.21 855.018 145.016 851.476 Q146.844 847.911 146.844 840.805 Q146.844 833.675 145.016 830.133 Q143.21 826.569 139.576 826.569 M139.576 822.865 Q145.386 822.865 148.442 827.471 Q151.52 832.055 151.52 840.805 Q151.52 849.532 148.442 854.138 Q145.386 858.721 139.576 858.721 Q133.766 858.721 130.687 854.138 Q127.632 849.532 127.632 840.805 Q127.632 832.055 130.687 827.471 Q133.766 822.865 139.576 822.865 Z" fill="#000000" fill-rule="nonzero" fill-opacity="1" /><path clip-path="url(#clip270)" d="M159.738 852.17 L164.622 852.17 L164.622 858.05 L159.738 858.05 L159.738 852.17 Z" fill="#000000" fill-rule="nonzero" fill-opacity="1" /><path clip-path="url(#clip270)" d="M178.835 854.115 L195.154 854.115 L195.154 858.05 L173.21 858.05 L173.21 854.115 Q175.872 851.36 180.455 846.731 Q185.062 842.078 186.242 840.735 Q188.488 838.212 189.367 836.476 Q190.27 834.717 190.27 833.027 Q190.27 830.272 188.326 828.536 Q186.404 826.8 183.303 826.8 Q181.104 826.8 178.65 827.564 Q176.219 828.328 173.442 829.879 L173.442 825.157 Q176.266 824.022 178.719 823.444 Q181.173 822.865 183.21 822.865 Q188.58 822.865 191.775 825.55 Q194.969 828.235 194.969 832.726 Q194.969 834.856 194.159 836.777 Q193.372 838.675 191.266 841.268 Q190.687 841.939 187.585 845.157 Q184.483 848.351 178.835 854.115 Z" fill="#000000" fill-rule="nonzero" fill-opacity="1" /><path clip-path="url(#clip270)" d="M205.015 823.49 L223.372 823.49 L223.372 827.425 L209.298 827.425 L209.298 835.897 Q210.316 835.55 211.335 835.388 Q212.353 835.203 213.372 835.203 Q219.159 835.203 222.538 838.374 Q225.918 841.545 225.918 846.962 Q225.918 852.541 222.446 855.643 Q218.974 858.721 212.654 858.721 Q210.478 858.721 208.21 858.351 Q205.964 857.981 203.557 857.24 L203.557 852.541 Q205.64 853.675 207.863 854.231 Q210.085 854.786 212.562 854.786 Q216.566 854.786 218.904 852.68 Q221.242 850.573 221.242 846.962 Q221.242 843.351 218.904 841.245 Q216.566 839.138 212.562 839.138 Q210.687 839.138 208.812 839.555 Q206.96 839.971 205.015 840.851 L205.015 823.49 Z" fill="#000000" fill-rule="nonzero" fill-opacity="1" /><path clip-path="url(#clip270)" d="M138.581 592.912 Q134.97 592.912 133.141 596.477 Q131.335 600.018 131.335 607.148 Q131.335 614.254 133.141 617.819 Q134.97 621.361 138.581 621.361 Q142.215 621.361 144.02 617.819 Q145.849 614.254 145.849 607.148 Q145.849 600.018 144.02 596.477 Q142.215 592.912 138.581 592.912 M138.581 589.208 Q144.391 589.208 147.446 593.815 Q150.525 598.398 150.525 607.148 Q150.525 615.875 147.446 620.481 Q144.391 625.064 138.581 625.064 Q132.77 625.064 129.692 620.481 Q126.636 615.875 126.636 607.148 Q126.636 598.398 129.692 593.815 Q132.77 589.208 138.581 589.208 Z" fill="#000000" fill-rule="nonzero" fill-opacity="1" /><path clip-path="url(#clip270)" d="M158.743 618.513 L163.627 618.513 L163.627 624.393 L158.743 624.393 L158.743 618.513 Z" fill="#000000" fill-rule="nonzero" fill-opacity="1" /><path clip-path="url(#clip270)" d="M187.978 605.759 Q191.335 606.476 193.21 608.745 Q195.108 611.013 195.108 614.347 Q195.108 619.463 191.59 622.263 Q188.071 625.064 181.59 625.064 Q179.414 625.064 177.099 624.625 Q174.807 624.208 172.354 623.351 L172.354 618.838 Q174.298 619.972 176.613 620.55 Q178.928 621.129 181.451 621.129 Q185.849 621.129 188.141 619.393 Q190.455 617.657 190.455 614.347 Q190.455 611.291 188.303 609.578 Q186.173 607.842 182.354 607.842 L178.326 607.842 L178.326 604 L182.539 604 Q185.988 604 187.816 602.634 Q189.645 601.245 189.645 598.652 Q189.645 595.99 187.747 594.578 Q185.872 593.143 182.354 593.143 Q180.432 593.143 178.233 593.56 Q176.034 593.977 173.395 594.856 L173.395 590.69 Q176.057 589.949 178.372 589.578 Q180.71 589.208 182.77 589.208 Q188.094 589.208 191.196 591.639 Q194.298 594.046 194.298 598.166 Q194.298 601.037 192.654 603.027 Q191.011 604.995 187.978 605.759 Z" fill="#000000" fill-rule="nonzero" fill-opacity="1" /><path clip-path="url(#clip270)" d="M213.974 592.912 Q210.363 592.912 208.534 596.477 Q206.728 600.018 206.728 607.148 Q206.728 614.254 208.534 617.819 Q210.363 621.361 213.974 621.361 Q217.608 621.361 219.414 617.819 Q221.242 614.254 221.242 607.148 Q221.242 600.018 219.414 596.477 Q217.608 592.912 213.974 592.912 M213.974 589.208 Q219.784 589.208 222.839 593.815 Q225.918 598.398 225.918 607.148 Q225.918 615.875 222.839 620.481 Q219.784 625.064 213.974 625.064 Q208.164 625.064 205.085 620.481 Q202.029 615.875 202.029 607.148 Q202.029 598.398 205.085 593.815 Q208.164 589.208 213.974 589.208 Z" fill="#000000" fill-rule="nonzero" fill-opacity="1" /><path clip-path="url(#clip270)" d="M139.576 359.255 Q135.965 359.255 134.136 362.82 Q132.331 366.361 132.331 373.491 Q132.331 380.597 134.136 384.162 Q135.965 387.704 139.576 387.704 Q143.21 387.704 145.016 384.162 Q146.844 380.597 146.844 373.491 Q146.844 366.361 145.016 362.82 Q143.21 359.255 139.576 359.255 M139.576 355.551 Q145.386 355.551 148.442 360.158 Q151.52 364.741 151.52 373.491 Q151.52 382.218 148.442 386.824 Q145.386 391.407 139.576 391.407 Q133.766 391.407 130.687 386.824 Q127.632 382.218 127.632 373.491 Q127.632 364.741 130.687 360.158 Q133.766 355.551 139.576 355.551 Z" fill="#000000" fill-rule="nonzero" fill-opacity="1" /><path clip-path="url(#clip270)" d="M159.738 384.857 L164.622 384.857 L164.622 390.736 L159.738 390.736 L159.738 384.857 Z" fill="#000000" fill-rule="nonzero" fill-opacity="1" /><path clip-path="url(#clip270)" d="M188.974 372.102 Q192.33 372.82 194.205 375.088 Q196.103 377.357 196.103 380.69 Q196.103 385.806 192.585 388.607 Q189.066 391.407 182.585 391.407 Q180.409 391.407 178.094 390.968 Q175.803 390.551 173.349 389.694 L173.349 385.181 Q175.293 386.315 177.608 386.894 Q179.923 387.472 182.446 387.472 Q186.844 387.472 189.136 385.736 Q191.451 384 191.451 380.69 Q191.451 377.634 189.298 375.921 Q187.168 374.185 183.349 374.185 L179.321 374.185 L179.321 370.343 L183.534 370.343 Q186.983 370.343 188.812 368.977 Q190.641 367.588 190.641 364.996 Q190.641 362.333 188.742 360.921 Q186.867 359.486 183.349 359.486 Q181.428 359.486 179.229 359.903 Q177.029 360.32 174.391 361.199 L174.391 357.033 Q177.053 356.292 179.367 355.921 Q181.705 355.551 183.766 355.551 Q189.09 355.551 192.191 357.982 Q195.293 360.389 195.293 364.509 Q195.293 367.38 193.65 369.37 Q192.006 371.338 188.974 372.102 Z" fill="#000000" fill-rule="nonzero" fill-opacity="1" /><path clip-path="url(#clip270)" d="M205.015 356.176 L223.372 356.176 L223.372 360.111 L209.298 360.111 L209.298 368.583 Q210.316 368.236 211.335 368.074 Q212.353 367.889 213.372 367.889 Q219.159 367.889 222.538 371.06 Q225.918 374.232 225.918 379.648 Q225.918 385.227 222.446 388.329 Q218.974 391.407 212.654 391.407 Q210.478 391.407 208.21 391.037 Q205.964 390.667 203.557 389.926 L203.557 385.227 Q205.64 386.361 207.863 386.917 Q210.085 387.472 212.562 387.472 Q216.566 387.472 218.904 385.366 Q221.242 383.259 221.242 379.648 Q221.242 376.037 218.904 373.931 Q216.566 371.824 212.562 371.824 Q210.687 371.824 208.812 372.241 Q206.96 372.658 205.015 373.537 L205.015 356.176 Z" fill="#000000" fill-rule="nonzero" fill-opacity="1" /><path clip-path="url(#clip270)" d="M138.581 125.598 Q134.97 125.598 133.141 129.163 Q131.335 132.704 131.335 139.834 Q131.335 146.94 133.141 150.505 Q134.97 154.047 138.581 154.047 Q142.215 154.047 144.02 150.505 Q145.849 146.94 145.849 139.834 Q145.849 132.704 144.02 129.163 Q142.215 125.598 138.581 125.598 M138.581 121.894 Q144.391 121.894 147.446 126.501 Q150.525 131.084 150.525 139.834 Q150.525 148.561 147.446 153.167 Q144.391 157.75 138.581 157.75 Q132.77 157.75 129.692 153.167 Q126.636 148.561 126.636 139.834 Q126.636 131.084 129.692 126.501 Q132.77 121.894 138.581 121.894 Z" fill="#000000" fill-rule="nonzero" fill-opacity="1" /><path clip-path="url(#clip270)" d="M158.743 151.2 L163.627 151.2 L163.627 157.079 L158.743 157.079 L158.743 151.2 Z" fill="#000000" fill-rule="nonzero" fill-opacity="1" /><path clip-path="url(#clip270)" d="M186.659 126.593 L174.854 145.042 L186.659 145.042 L186.659 126.593 M185.432 122.519 L191.312 122.519 L191.312 145.042 L196.242 145.042 L196.242 148.931 L191.312 148.931 L191.312 157.079 L186.659 157.079 L186.659 148.931 L171.057 148.931 L171.057 144.417 L185.432 122.519 Z" fill="#000000" fill-rule="nonzero" fill-opacity="1" /><path clip-path="url(#clip270)" d="M213.974 125.598 Q210.363 125.598 208.534 129.163 Q206.728 132.704 206.728 139.834 Q206.728 146.94 208.534 150.505 Q210.363 154.047 213.974 154.047 Q217.608 154.047 219.414 150.505 Q221.242 146.94 221.242 139.834 Q221.242 132.704 219.414 129.163 Q217.608 125.598 213.974 125.598 M213.974 121.894 Q219.784 121.894 222.839 126.501 Q225.918 131.084 225.918 139.834 Q225.918 148.561 222.839 153.167 Q219.784 157.75 213.974 157.75 Q208.164 157.75 205.085 153.167 Q202.029 148.561 202.029 139.834 Q202.029 131.084 205.085 126.501 Q208.164 121.894 213.974 121.894 Z" fill="#000000" fill-rule="nonzero" fill-opacity="1" /><path clip-path="url(#clip270)" d="M52.8869 784.737 L33.269 784.737 L33.269 779.412 L52.6844 779.412 Q57.2851 779.412 59.5999 777.618 Q61.8857 775.825 61.8857 772.237 Q61.8857 767.925 59.1369 765.437 Q56.3881 762.92 51.6427 762.92 L33.269 762.92 L33.269 757.595 L65.6762 757.595 L65.6762 762.92 L60.6994 762.92 Q63.6508 764.858 65.0975 767.433 Q66.5153 769.98 66.5153 773.365 Q66.5153 778.95 63.0431 781.843 Q59.5709 784.737 52.8869 784.737 M32.4877 771.34 L32.4877 771.34 Z" fill="#000000" fill-rule="nonzero" fill-opacity="1" /><path clip-path="url(#clip270)" d="M1640.68 20.677 L1640.68 25.6538 Q1638.42 24.4096 1636.14 23.802 Q1633.88 23.1654 1631.57 23.1654 Q1626.39 23.1654 1623.52 26.464 Q1620.66 29.7336 1620.66 35.6653 Q1620.66 41.597 1623.52 44.8956 Q1626.39 48.1653 1631.57 48.1653 Q1633.88 48.1653 1636.14 47.5576 Q1638.42 46.921 1640.68 45.6768 L1640.68 50.5958 Q1638.45 51.6375 1636.05 52.1583 Q1633.68 52.6791 1630.99 52.6791 Q1623.67 52.6791 1619.36 48.0784 Q1615.04 43.4778 1615.04 35.6653 Q1615.04 27.7371 1619.38 23.1943 Q1623.75 18.6515 1631.34 18.6515 Q1633.79 18.6515 1636.14 19.1724 Q1638.48 19.6642 1640.68 20.677 Z" fill="#000000" fill-rule="nonzero" fill-opacity="1" /><path clip-path="url(#clip270)" d="M1662.5 23.1654 Q1658.22 23.1654 1655.73 26.5218 Q1653.24 29.8494 1653.24 35.6653 Q1653.24 41.4813 1655.7 44.8377 Q1658.19 48.1653 1662.5 48.1653 Q1666.75 48.1653 1669.24 44.8088 Q1671.73 41.4523 1671.73 35.6653 Q1671.73 29.9072 1669.24 26.5508 Q1666.75 23.1654 1662.5 23.1654 M1662.5 18.6515 Q1669.44 18.6515 1673.41 23.1654 Q1677.37 27.6792 1677.37 35.6653 Q1677.37 43.6225 1673.41 48.1653 Q1669.44 52.6791 1662.5 52.6791 Q1655.52 52.6791 1651.56 48.1653 Q1647.63 43.6225 1647.63 35.6653 Q1647.63 27.6792 1651.56 23.1654 Q1655.52 18.6515 1662.5 18.6515 Z" fill="#000000" fill-rule="nonzero" fill-opacity="1" /><path clip-path="url(#clip270)" d="M1713.13 32.2799 L1713.13 51.84 L1707.81 51.84 L1707.81 32.4535 Q1707.81 27.8529 1706.02 25.567 Q1704.22 23.2811 1700.63 23.2811 Q1696.32 23.2811 1693.83 26.03 Q1691.35 28.7788 1691.35 33.5241 L1691.35 51.84 L1685.99 51.84 L1685.99 19.4328 L1691.35 19.4328 L1691.35 24.4675 Q1693.26 21.545 1695.83 20.0983 Q1698.44 18.6515 1701.82 18.6515 Q1707.41 18.6515 1710.27 22.1237 Q1713.13 25.567 1713.13 32.2799 Z" fill="#000000" fill-rule="nonzero" fill-opacity="1" /><path clip-path="url(#clip270)" d="M1729.02 10.2314 L1729.02 19.4328 L1739.99 19.4328 L1739.99 23.5705 L1729.02 23.5705 L1729.02 41.163 Q1729.02 45.1271 1730.09 46.2555 Q1731.19 47.384 1734.52 47.384 L1739.99 47.384 L1739.99 51.84 L1734.52 51.84 Q1728.35 51.84 1726.01 49.5541 Q1723.67 47.2393 1723.67 41.163 L1723.67 23.5705 L1719.76 23.5705 L1719.76 19.4328 L1723.67 19.4328 L1723.67 10.2314 L1729.02 10.2314 Z" fill="#000000" fill-rule="nonzero" fill-opacity="1" /><path clip-path="url(#clip270)" d="M1765.77 24.4096 Q1764.87 23.8888 1763.8 23.6573 Q1762.76 23.3969 1761.48 23.3969 Q1756.97 23.3969 1754.54 26.3482 Q1752.14 29.2707 1752.14 34.7683 L1752.14 51.84 L1746.79 51.84 L1746.79 19.4328 L1752.14 19.4328 L1752.14 24.4675 Q1753.82 21.5161 1756.51 20.0983 Q1759.2 18.6515 1763.05 18.6515 Q1763.6 18.6515 1764.26 18.7383 Q1764.93 18.7962 1765.74 18.9409 L1765.77 24.4096 Z" fill="#000000" fill-rule="nonzero" fill-opacity="1" /><path clip-path="url(#clip270)" d="M1782.61 23.1654 Q1778.33 23.1654 1775.84 26.5218 Q1773.35 29.8494 1773.35 35.6653 Q1773.35 41.4813 1775.81 44.8377 Q1778.3 48.1653 1782.61 48.1653 Q1786.86 48.1653 1789.35 44.8088 Q1791.84 41.4523 1791.84 35.6653 Q1791.84 29.9072 1789.35 26.5508 Q1786.86 23.1654 1782.61 23.1654 M1782.61 18.6515 Q1789.55 18.6515 1793.52 23.1654 Q1797.48 27.6792 1797.48 35.6653 Q1797.48 43.6225 1793.52 48.1653 Q1789.55 52.6791 1782.61 52.6791 Q1775.63 52.6791 1771.67 48.1653 Q1767.73 43.6225 1767.73 35.6653 Q1767.73 27.6792 1771.67 23.1654 Q1775.63 18.6515 1782.61 18.6515 Z" fill="#000000" fill-rule="nonzero" fill-opacity="1" /><path clip-path="url(#clip270)" d="M1806.31 6.81709 L1811.63 6.81709 L1811.63 51.84 L1806.31 51.84 L1806.31 6.81709 Z" fill="#000000" fill-rule="nonzero" fill-opacity="1" /><polyline clip-path="url(#clip271)" style="stroke:#000000; stroke-linecap:round; stroke-linejoin:round; stroke-width:4; stroke-opacity:1; fill:none" stroke-dasharray="16, 10" points="355.395,2798.49 355.395,-1256.16 "/>
<polyline clip-path="url(#clip271)" style="stroke:#000000; stroke-linecap:round; stroke-linejoin:round; stroke-width:4; stroke-opacity:1; fill:none" stroke-dasharray="16, 10" points="3071.28,2798.49 3071.28,-1256.16 "/>
<polyline clip-path="url(#clip271)" style="stroke:#009af9; stroke-linecap:round; stroke-linejoin:round; stroke-width:8; stroke-opacity:1; fill:none" points="355.395,437.562 366.258,437.562 366.258,133.643 377.122,133.643 377.122,224.249 387.985,224.249 387.985,223.041 398.849,223.041 398.849,233.609 409.712,233.609 409.712,241.754 420.576,241.754 420.576,250.088 431.439,250.088 431.439,257.982 442.303,257.982 442.303,265.782 453.166,265.782 453.166,273.491 464.03,273.491 464.03,281.169 474.894,281.169 474.894,288.807 485.757,288.807 485.757,296.412 496.621,296.412 496.621,303.977 507.484,303.977 507.484,311.505 518.348,311.505 518.348,318.993 529.211,318.993 529.211,326.441 540.075,326.441 540.075,333.85 550.938,333.85 550.938,341.219 561.802,341.219 561.802,348.548 572.665,348.548 572.665,355.839 583.529,355.839 583.529,363.089 594.392,363.089 594.392,370.301 605.256,370.301 605.256,377.475 616.12,377.475 616.12,384.609 626.983,384.609 626.983,391.705 637.847,391.705 637.847,398.763 648.71,398.763 648.71,405.783 659.574,405.783 659.574,412.765 670.437,412.765 670.437,419.709 681.301,419.709 681.301,426.616 692.164,426.616 692.164,433.485 703.028,433.485 703.028,440.317 713.891,440.317 713.891,447.113 724.755,447.113 724.755,453.872 735.618,453.872 735.618,460.594 746.482,460.594 746.482,467.279 757.346,467.279 757.346,473.929 768.209,473.929 768.209,480.543 779.073,480.543 779.073,487.121 789.936,487.121 789.936,493.663 800.8,493.663 800.8,500.17 811.663,500.17 811.663,506.642 822.527,506.642 822.527,513.078 833.39,513.078 833.39,519.48 844.254,519.48 844.254,525.847 855.117,525.847 855.117,532.18 865.981,532.18 865.981,538.479 876.845,538.479 876.845,544.743 887.708,544.743 887.708,550.974 898.572,550.974 898.572,557.17 909.435,557.17 909.435,563.334 920.299,563.334 920.299,569.464 931.162,569.464 931.162,575.56 942.026,575.56 942.026,581.624 952.889,581.624 952.889,587.655 963.753,587.655 963.753,593.653 974.616,593.653 974.616,599.619 985.48,599.619 985.48,605.553 996.343,605.553 996.343,611.455 1007.21,611.455 1007.21,617.324 1018.07,617.324 1018.07,623.162 1028.93,623.162 1028.93,628.969 1039.8,628.969 1039.8,634.744 1050.66,634.744 1050.66,640.488 1061.52,640.488 1061.52,646.201 1072.39,646.201 1072.39,651.883 1083.25,651.883 1083.25,657.534 1094.12,657.534 1094.12,663.155 1104.98,663.155 1104.98,668.746 1115.84,668.746 1115.84,674.307 1126.71,674.307 1126.71,679.837 1137.57,679.837 1137.57,685.338 1148.43,685.338 1148.43,690.809 1159.3,690.809 1159.3,696.251 1170.16,696.251 1170.16,701.664 1181.02,701.664 1181.02,707.047 1191.89,707.047 1191.89,712.401 1202.75,712.401 1202.75,717.727 1213.61,717.727 1213.61,723.024 1224.48,723.024 1224.48,728.293 1235.34,728.293 1235.34,733.533 1246.2,733.533 1246.2,738.746 1257.07,738.746 1257.07,743.93 1267.93,743.93 1267.93,749.087 1278.8,749.087 1278.8,754.216 1289.66,754.216 1289.66,759.317 1300.52,759.317 1300.52,764.391 1311.39,764.391 1311.39,769.438 1322.25,769.438 1322.25,774.459 1333.11,774.459 1333.11,779.452 1343.98,779.452 1343.98,784.419 1354.84,784.419 1354.84,789.359 1365.7,789.359 1365.7,794.273 1376.57,794.273 1376.57,799.16 1387.43,799.16 1387.43,804.022 1398.29,804.022 1398.29,808.858 1409.16,808.858 1409.16,813.668 1420.02,813.668 1420.02,818.452 1430.88,818.452 1430.88,823.211 1441.75,823.211 1441.75,827.945 1452.61,827.945 1452.61,832.654 1463.48,832.654 1463.48,837.337 1474.34,837.337 1474.34,841.996 1485.2,841.996 1485.2,846.63 1496.07,846.63 1496.07,851.24 1506.93,851.24 1506.93,855.825 1517.79,855.825 1517.79,860.386 1528.66,860.386 1528.66,864.923 1539.52,864.923 1539.52,869.436 1550.38,869.436 1550.38,873.926 1561.25,873.926 1561.25,878.391 1572.11,878.391 1572.11,882.833 1582.97,882.833 1582.97,887.252 1593.84,887.252 1593.84,891.647 1604.7,891.647 1604.7,896.02 1615.57,896.02 1615.57,900.369 1626.43,900.369 1626.43,904.696 1637.29,904.696 1637.29,909 1648.16,909 1648.16,913.281 1659.02,913.281 1659.02,917.54 1669.88,917.54 1669.88,921.777 1680.75,921.777 1680.75,925.991 1691.61,925.991 1691.61,930.184 1702.47,930.184 1702.47,934.354 1713.34,934.354 1713.34,938.503 1724.2,938.503 1724.2,942.63 1735.06,942.63 1735.06,946.736 1745.93,946.736 1745.93,950.821 1756.79,950.821 1756.79,954.884 1767.65,954.884 1767.65,958.926 1778.52,958.926 1778.52,962.947 1789.38,962.947 1789.38,966.947 1800.25,966.947 1800.25,970.927 1811.11,970.927 1811.11,974.886 1821.97,974.886 1821.97,978.824 1832.84,978.824 1832.84,982.742 1843.7,982.742 1843.7,986.64 1854.56,986.64 1854.56,990.518 1865.43,990.518 1865.43,994.376 1876.29,994.376 1876.29,998.214 1887.15,998.214 1887.15,1002.03 1898.02,1002.03 1898.02,1005.83 1908.88,1005.83 1908.88,1009.61 1919.74,1009.61 1919.74,1013.37 1930.61,1013.37 1930.61,1017.11 1941.47,1017.11 1941.47,1020.83 1952.33,1020.83 1952.33,1024.53 1963.2,1024.53 1963.2,1028.22 1974.06,1028.22 1974.06,1031.88 1984.93,1031.88 1984.93,1035.53 1995.79,1035.53 1995.79,1039.15 2006.65,1039.15 2006.65,1042.76 2017.52,1042.76 2017.52,1046.35 2028.38,1046.35 2028.38,1049.93 2039.24,1049.93 2039.24,1053.48 2050.11,1053.48 2050.11,1057.01 2060.97,1057.01 2060.97,1060.53 2071.83,1060.53 2071.83,1064.03 2082.7,1064.03 2082.7,1067.52 2093.56,1067.52 2093.56,1070.98 2104.42,1070.98 2104.42,1074.43 2115.29,1074.43 2115.29,1077.86 2126.15,1077.86 2126.15,1081.27 2137.02,1081.27 2137.02,1084.67 2147.88,1084.67 2147.88,1088.04 2158.74,1088.04 2158.74,1091.41 2169.61,1091.41 2169.61,1094.75 2180.47,1094.75 2180.47,1098.08 2191.33,1098.08 2191.33,1101.39 2202.2,1101.39 2202.2,1104.68 2213.06,1104.68 2213.06,1107.96 2223.92,1107.96 2223.92,1111.22 2234.79,1111.22 2234.79,1114.47 2245.65,1114.47 2245.65,1117.7 2256.51,1117.7 2256.51,1120.91 2267.38,1120.91 2267.38,1124.11 2278.24,1124.11 2278.24,1127.29 2289.1,1127.29 2289.1,1130.45 2299.97,1130.45 2299.97,1133.6 2310.83,1133.6 2310.83,1136.74 2321.7,1136.74 2321.7,1139.86 2332.56,1139.86 2332.56,1142.96 2343.42,1142.96 2343.42,1146.05 2354.29,1146.05 2354.29,1149.12 2365.15,1149.12 2365.15,1152.18 2376.01,1152.18 2376.01,1155.22 2386.88,1155.22 2386.88,1158.25 2397.74,1158.25 2397.74,1161.26 2408.6,1161.26 2408.6,1164.26 2419.47,1164.26 2419.47,1167.24 2430.33,1167.24 2430.33,1170.21 2441.19,1170.21 2441.19,1173.16 2452.06,1173.16 2452.06,1176.1 2462.92,1176.1 2462.92,1179.03 2473.78,1179.03 2473.78,1181.94 2484.65,1181.94 2484.65,1184.83 2495.51,1184.83 2495.51,1187.72 2506.38,1187.72 2506.38,1190.58 2517.24,1190.58 2517.24,1193.44 2528.1,1193.44 2528.1,1196.28 2538.97,1196.28 2538.97,1199.11 2549.83,1199.11 2549.83,1201.92 2560.69,1201.92 2560.69,1204.72 2571.56,1204.72 2571.56,1207.5 2582.42,1207.5 2582.42,1210.28 2593.28,1210.28 2593.28,1213.04 2604.15,1213.04 2604.15,1215.78 2615.01,1215.78 2615.01,1218.51 2625.87,1218.51 2625.87,1221.23 2636.74,1221.23 2636.74,1223.94 2647.6,1223.94 2647.6,1226.64 2658.46,1226.64 2658.46,1229.31 2669.33,1229.31 2669.33,1231.98 2680.19,1231.98 2680.19,1234.63 2691.06,1234.63 2691.06,1237.28 2701.92,1237.28 2701.92,1239.9 2712.78,1239.9 2712.78,1242.53 2723.65,1242.53 2723.65,1245.12 2734.51,1245.12 2734.51,1247.74 2745.37,1247.74 2745.37,1250.28 2756.24,1250.28 2756.24,1252.9 2767.1,1252.9 2767.1,1255.38 2777.96,1255.38 2777.96,1258.02 2788.83,1258.02 2788.83,1260.43 2799.69,1260.43 2799.69,1263.11 2810.55,1263.11 2810.55,1265.4 2821.42,1265.4 2821.42,1268.19 2832.28,1268.19 2832.28,1270.28 2843.15,1270.28 2843.15,1273.28 2854.01,1273.28 2854.01,1275.03 2864.87,1275.03 2864.87,1278.43 2875.74,1278.43 2875.74,1279.6 2886.6,1279.6 2886.6,1283.72 2897.46,1283.72 2897.46,1283.88 2908.33,1283.88 2908.33,1289.28 2919.19,1289.28 2919.19,1287.68 2930.05,1287.68 2930.05,1295.38 2940.92,1295.38 2940.92,1290.67 2951.78,1290.67 2951.78,1302.44 2962.64,1302.44 2962.64,1292.29 2973.51,1292.29 2973.51,1311.21 2984.37,1311.21 2984.37,1291.56 2995.23,1291.56 2995.23,1322.98 3006.1,1322.98 3006.1,1286.74 3016.96,1286.74 3016.96,1340.14 3027.83,1340.14 3027.83,1274.41 3038.69,1274.41 3038.69,1368.2 3049.55,1368.2 3049.55,1246.19 3060.42,1246.19 3060.42,1408.69 3071.28,1408.69 "/>
<polyline clip-path="url(#clip271)" style="stroke:#3da44d; stroke-linecap:round; stroke-linejoin:round; stroke-width:8; stroke-opacity:1; fill:none" stroke-dasharray="32, 20" points="355.395,198.997 366.258,206.036 377.122,214.429 387.985,222.41 398.849,230.39 409.712,238.316 420.576,246.198 431.439,254.036 442.303,261.832 453.166,269.587 464.03,277.3 474.894,284.972 485.757,292.603 496.621,300.194 507.484,307.743 518.348,315.253 529.211,322.722 540.075,330.151 550.938,337.54 561.802,344.889 572.665,352.199 583.529,359.47 594.392,366.701 605.256,373.894 616.12,381.047 626.983,388.163 637.847,395.24 648.71,402.278 659.574,409.279 670.437,416.242 681.301,423.168 692.164,430.056 703.028,436.907 713.891,443.72 724.755,450.497 735.618,457.238 746.482,463.942 757.346,470.609 768.209,477.241 779.073,483.837 789.936,490.397 800.8,496.922 811.663,503.411 822.527,509.865 833.39,516.284 844.254,522.669 855.117,529.019 865.981,535.334 876.845,541.616 887.708,547.863 898.572,554.077 909.435,560.257 920.299,566.403 931.162,572.517 942.026,578.597 952.889,584.644 963.753,590.659 974.616,596.641 985.48,602.591 996.343,608.508 1007.21,614.394 1018.07,620.248 1028.93,626.07 1039.8,631.861 1050.66,637.62 1061.52,643.349 1072.39,649.046 1083.25,654.713 1094.12,660.349 1104.98,665.955 1115.84,671.531 1126.71,677.076 1137.57,682.592 1148.43,688.078 1159.3,693.534 1170.16,698.961 1181.02,704.359 1191.89,709.728 1202.75,715.068 1213.61,720.38 1224.48,725.663 1235.34,730.917 1246.2,736.143 1257.07,741.342 1267.93,746.512 1278.8,751.655 1289.66,756.77 1300.52,761.858 1311.39,766.919 1322.25,771.952 1333.11,776.959 1343.98,781.939 1354.84,786.892 1365.7,791.819 1376.57,796.72 1387.43,801.595 1398.29,806.443 1409.16,811.266 1420.02,816.063 1430.88,820.835 1441.75,825.581 1452.61,830.303 1463.48,834.999 1474.34,839.67 1485.2,844.317 1496.07,848.939 1506.93,853.536 1517.79,858.109 1528.66,862.658 1539.52,867.183 1550.38,871.684 1561.25,876.162 1572.11,880.615 1582.97,885.046 1593.84,889.453 1604.7,893.837 1615.57,898.198 1626.43,902.536 1637.29,906.851 1648.16,911.143 1659.02,915.414 1669.88,919.661 1680.75,923.887 1691.61,928.09 1702.47,932.272 1713.34,936.432 1724.2,940.57 1735.06,944.686 1745.93,948.781 1756.79,952.855 1767.65,956.908 1778.52,960.939 1789.38,964.95 1800.25,968.94 1811.11,972.909 1821.97,976.858 1832.84,980.786 1843.7,984.694 1854.56,988.582 1865.43,992.45 1876.29,996.298 1887.15,1000.13 1898.02,1003.93 1908.88,1007.72 1919.74,1011.49 1930.61,1015.24 1941.47,1018.97 1952.33,1022.68 1963.2,1026.38 1974.06,1030.05 1984.93,1033.71 1995.79,1037.34 2006.65,1040.96 2017.52,1044.56 2028.38,1048.14 2039.24,1051.7 2050.11,1055.25 2060.97,1058.78 2071.83,1062.29 2082.7,1065.78 2093.56,1069.25 2104.42,1072.71 2115.29,1076.14 2126.15,1079.57 2137.02,1082.97 2147.88,1086.36 2158.74,1089.73 2169.61,1093.08 2180.47,1096.42 2191.33,1099.74 2202.2,1103.04 2213.06,1106.32 2223.92,1109.59 2234.79,1112.85 2245.65,1116.08 2256.51,1119.31 2267.38,1122.51 2278.24,1125.7 2289.1,1128.87 2299.97,1132.03 2310.83,1135.17 2321.7,1138.3 2332.56,1141.41 2343.42,1144.51 2354.29,1147.59 2365.15,1150.65 2376.01,1153.7 2386.88,1156.74 2397.74,1159.75 2408.6,1162.76 2419.47,1165.75 2430.33,1168.73 2441.19,1171.69 2452.06,1174.63 2462.92,1177.57 2473.78,1180.48 2484.65,1183.39 2495.51,1186.28 2506.38,1189.15 2517.24,1192.01 2528.1,1194.86 2538.97,1197.69 2549.83,1200.51 2560.69,1203.32 2571.56,1206.11 2582.42,1208.89 2593.28,1211.66 2604.15,1214.41 2615.01,1217.15 2625.87,1219.88 2636.74,1222.59 2647.6,1225.29 2658.46,1227.98 2669.33,1230.65 2680.19,1233.31 2691.06,1235.96 2701.92,1238.6 2712.78,1241.22 2723.65,1243.83 2734.51,1246.43 2745.37,1249.01 2756.24,1251.59 2767.1,1254.15 2777.96,1256.7 2788.83,1259.24 2799.69,1261.76 2810.55,1264.27 2821.42,1266.78 2832.28,1269.26 2843.15,1271.74 2854.01,1274.21 2864.87,1276.66 2875.74,1279.11 2886.6,1281.54 2897.46,1283.96 2908.33,1286.37 2919.19,1288.76 2930.05,1291.16 2940.92,1293.52 2951.78,1295.9 2962.64,1298.24 2973.51,1300.6 2984.37,1302.9 2995.23,1305.26 3006.1,1307.52 3016.96,1309.89 3027.83,1312.08 3038.69,1314.49 3049.55,1316.59 3060.42,1319.08 3071.28,1321.03 "/>
<polyline clip-path="url(#clip271)" style="stroke:#c271d2; stroke-linecap:round; stroke-linejoin:round; stroke-width:8; stroke-opacity:1; fill:none" stroke-dasharray="32, 16, 4, 16" points="355.395,200.663 366.258,208.218 377.122,216.429 387.985,224.412 398.849,232.374 409.712,240.287 420.576,248.158 431.439,255.986 442.303,263.772 453.166,271.516 464.03,279.219 474.894,286.881 485.757,294.502 496.621,302.082 507.484,309.621 518.348,317.121 529.211,324.58 540.075,331.999 550.938,339.378 561.802,346.717 572.665,354.017 583.529,361.278 594.392,368.5 605.256,375.683 616.12,382.827 626.983,389.933 637.847,397 648.71,404.029 659.574,411.021 670.437,417.974 681.301,424.891 692.164,431.769 703.028,438.611 713.891,445.416 724.755,452.183 735.618,458.915 746.482,465.61 757.346,472.268 768.209,478.891 779.073,485.478 789.936,492.029 800.8,498.545 811.663,505.025 822.527,511.471 833.39,517.881 844.254,524.257 855.117,530.599 865.981,536.906 876.845,543.178 887.708,549.417 898.572,555.623 909.435,561.794 920.299,567.933 931.162,574.038 942.026,580.11 952.889,586.149 963.753,592.155 974.616,598.129 985.48,604.071 996.343,609.981 1007.21,615.858 1018.07,621.704 1028.93,627.519 1039.8,633.302 1050.66,639.053 1061.52,644.774 1072.39,650.464 1083.25,656.123 1094.12,661.751 1104.98,667.35 1115.84,672.918 1126.71,678.456 1137.57,683.964 1148.43,689.443 1159.3,694.892 1170.16,700.312 1181.02,705.702 1191.89,711.064 1202.75,716.397 1213.61,721.701 1224.48,726.977 1235.34,732.224 1246.2,737.444 1257.07,742.635 1267.93,747.799 1278.8,752.934 1289.66,758.043 1300.52,763.124 1311.39,768.178 1322.25,773.205 1333.11,778.205 1343.98,783.178 1354.84,788.125 1365.7,793.045 1376.57,797.939 1387.43,802.808 1398.29,807.65 1409.16,812.466 1420.02,817.257 1430.88,822.022 1441.75,826.763 1452.61,831.477 1463.48,836.167 1474.34,840.832 1485.2,845.473 1496.07,850.089 1506.93,854.68 1517.79,859.247 1528.66,863.79 1539.52,868.309 1550.38,872.804 1561.25,877.276 1572.11,881.724 1582.97,886.148 1593.84,890.55 1604.7,894.928 1615.57,899.283 1626.43,903.615 1637.29,907.925 1648.16,912.212 1659.02,916.476 1669.88,920.718 1680.75,924.938 1691.61,929.136 1702.47,933.313 1713.34,937.467 1724.2,941.6 1735.06,945.711 1745.93,949.8 1756.79,953.869 1767.65,957.916 1778.52,961.943 1789.38,965.948 1800.25,969.933 1811.11,973.897 1821.97,977.841 1832.84,981.764 1843.7,985.667 1854.56,989.55 1865.43,993.412 1876.29,997.255 1887.15,1001.08 1898.02,1004.88 1908.88,1008.67 1919.74,1012.43 1930.61,1016.18 1941.47,1019.9 1952.33,1023.61 1963.2,1027.3 1974.06,1030.97 1984.93,1034.62 1995.79,1038.25 2006.65,1041.86 2017.52,1045.46 2028.38,1049.03 2039.24,1052.59 2050.11,1056.13 2060.97,1059.65 2071.83,1063.16 2082.7,1066.65 2093.56,1070.11 2104.42,1073.57 2115.29,1077 2126.15,1080.42 2137.02,1083.82 2147.88,1087.2 2158.74,1090.57 2169.61,1093.91 2180.47,1097.25 2191.33,1100.56 2202.2,1103.86 2213.06,1107.14 2223.92,1110.41 2234.79,1113.66 2245.65,1116.89 2256.51,1120.11 2267.38,1123.31 2278.24,1126.49 2289.1,1129.66 2299.97,1132.82 2310.83,1135.95 2321.7,1139.08 2332.56,1142.18 2343.42,1145.28 2354.29,1148.35 2365.15,1151.41 2376.01,1154.46 2386.88,1157.49 2397.74,1160.51 2408.6,1163.51 2419.47,1166.49 2430.33,1169.47 2441.19,1172.42 2452.06,1175.37 2462.92,1178.3 2473.78,1181.21 2484.65,1184.11 2495.51,1187 2506.38,1189.87 2517.24,1192.73 2528.1,1195.57 2538.97,1198.4 2549.83,1201.22 2560.69,1204.02 2571.56,1206.81 2582.42,1209.58 2593.28,1212.35 2604.15,1215.1 2615.01,1217.83 2625.87,1220.55 2636.74,1223.26 2647.6,1225.96 2658.46,1228.64 2669.33,1231.32 2680.19,1233.97 2691.06,1236.62 2701.92,1239.25 2712.78,1241.87 2723.65,1244.48 2734.51,1247.07 2745.37,1249.66 2756.24,1252.23 2767.1,1254.79 2777.96,1257.33 2788.83,1259.87 2799.69,1262.39 2810.55,1264.9 2821.42,1267.4 2832.28,1269.88 2843.15,1272.36 2854.01,1274.82 2864.87,1277.28 2875.74,1279.72 2886.6,1282.15 2897.46,1284.56 2908.33,1286.97 2919.19,1289.36 2930.05,1291.75 2940.92,1294.12 2951.78,1296.49 2962.64,1298.83 2973.51,1301.18 2984.37,1303.49 2995.23,1305.83 3006.1,1308.11 3016.96,1310.44 3027.83,1312.68 3038.69,1315.02 3049.55,1317.2 3060.42,1319.57 3071.28,1320.55 "/>
<path clip-path="url(#clip270)" d="M2467.29 347.804 L3056.79 347.804 L3056.79 140.444 L2467.29 140.444  Z" fill="#ffffff" fill-rule="evenodd" fill-opacity="1"/>
<polyline clip-path="url(#clip270)" style="stroke:#000000; stroke-linecap:round; stroke-linejoin:round; stroke-width:4; stroke-opacity:1; fill:none" points="2467.29,347.804 3056.79,347.804 3056.79,140.444 2467.29,140.444 2467.29,347.804 "/>
<polyline clip-path="url(#clip270)" style="stroke:#009af9; stroke-linecap:round; stroke-linejoin:round; stroke-width:8; stroke-opacity:1; fill:none" points="2499.28,192.284 2691.2,192.284 "/>
<path clip-path="url(#clip270)" d="M2727.86 178.846 L2727.86 205.721 L2733.51 205.721 Q2740.67 205.721 2743.98 202.48 Q2747.31 199.24 2747.31 192.249 Q2747.31 185.305 2743.98 182.087 Q2740.67 178.846 2733.51 178.846 L2727.86 178.846 M2723.19 175.004 L2732.8 175.004 Q2742.84 175.004 2747.54 179.194 Q2752.24 183.36 2752.24 192.249 Q2752.24 201.184 2747.52 205.374 Q2742.8 209.564 2732.8 209.564 L2723.19 209.564 L2723.19 175.004 Z" fill="#000000" fill-rule="nonzero" fill-opacity="1" /><path clip-path="url(#clip270)" d="M2759.51 183.638 L2763.77 183.638 L2763.77 209.564 L2759.51 209.564 L2759.51 183.638 M2759.51 173.545 L2763.77 173.545 L2763.77 178.939 L2759.51 178.939 L2759.51 173.545 Z" fill="#000000" fill-rule="nonzero" fill-opacity="1" /><path clip-path="url(#clip270)" d="M2787.7 187.619 Q2786.98 187.203 2786.13 187.018 Q2785.29 186.809 2784.28 186.809 Q2780.67 186.809 2778.72 189.17 Q2776.8 191.508 2776.8 195.906 L2776.8 209.564 L2772.52 209.564 L2772.52 183.638 L2776.8 183.638 L2776.8 187.666 Q2778.14 185.305 2780.29 184.17 Q2782.45 183.013 2785.53 183.013 Q2785.97 183.013 2786.5 183.082 Q2787.03 183.129 2787.68 183.244 L2787.7 187.619 Z" fill="#000000" fill-rule="nonzero" fill-opacity="1" /><path clip-path="url(#clip270)" d="M2813.3 195.536 L2813.3 197.619 L2793.72 197.619 Q2794 202.017 2796.36 204.332 Q2798.74 206.624 2802.98 206.624 Q2805.43 206.624 2807.73 206.022 Q2810.04 205.42 2812.31 204.217 L2812.31 208.244 Q2810.02 209.216 2807.61 209.726 Q2805.2 210.235 2802.73 210.235 Q2796.52 210.235 2792.89 206.624 Q2789.28 203.013 2789.28 196.855 Q2789.28 190.49 2792.7 186.763 Q2796.15 183.013 2801.98 183.013 Q2807.22 183.013 2810.25 186.393 Q2813.3 189.749 2813.3 195.536 M2809.04 194.286 Q2809 190.791 2807.08 188.707 Q2805.18 186.624 2802.03 186.624 Q2798.47 186.624 2796.31 188.638 Q2794.18 190.652 2793.86 194.309 L2809.04 194.286 Z" fill="#000000" fill-rule="nonzero" fill-opacity="1" /><path clip-path="url(#clip270)" d="M2838.95 184.633 L2838.95 188.615 Q2837.15 187.619 2835.32 187.133 Q2833.51 186.624 2831.66 186.624 Q2827.52 186.624 2825.23 189.263 Q2822.93 191.879 2822.93 196.624 Q2822.93 201.369 2825.23 204.008 Q2827.52 206.624 2831.66 206.624 Q2833.51 206.624 2835.32 206.138 Q2837.15 205.629 2838.95 204.633 L2838.95 208.568 Q2837.17 209.402 2835.25 209.818 Q2833.35 210.235 2831.2 210.235 Q2825.34 210.235 2821.89 206.554 Q2818.44 202.874 2818.44 196.624 Q2818.44 190.281 2821.92 186.647 Q2825.41 183.013 2831.48 183.013 Q2833.44 183.013 2835.32 183.43 Q2837.19 183.823 2838.95 184.633 Z" fill="#000000" fill-rule="nonzero" fill-opacity="1" /><path clip-path="url(#clip270)" d="M2850.57 176.277 L2850.57 183.638 L2859.35 183.638 L2859.35 186.948 L2850.57 186.948 L2850.57 201.022 Q2850.57 204.193 2851.43 205.096 Q2852.31 205.999 2854.97 205.999 L2859.35 205.999 L2859.35 209.564 L2854.97 209.564 Q2850.04 209.564 2848.16 207.735 Q2846.29 205.883 2846.29 201.022 L2846.29 186.948 L2843.17 186.948 L2843.17 183.638 L2846.29 183.638 L2846.29 176.277 L2850.57 176.277 Z" fill="#000000" fill-rule="nonzero" fill-opacity="1" /><polyline clip-path="url(#clip270)" style="stroke:#3da44d; stroke-linecap:round; stroke-linejoin:round; stroke-width:8; stroke-opacity:1; fill:none" stroke-dasharray="32, 20" points="2499.28,244.124 2691.2,244.124 "/>
<path clip-path="url(#clip270)" d="M2723.19 251.172 L2723.19 235.478 L2727.45 235.478 L2727.45 251.01 Q2727.45 254.691 2728.88 256.543 Q2730.32 258.371 2733.19 258.371 Q2736.64 258.371 2738.63 256.172 Q2740.64 253.973 2740.64 250.177 L2740.64 235.478 L2744.9 235.478 L2744.9 261.404 L2740.64 261.404 L2740.64 257.422 Q2739.09 259.783 2737.03 260.941 Q2734.99 262.075 2732.29 262.075 Q2727.82 262.075 2725.5 259.297 Q2723.19 256.519 2723.19 251.172 M2733.91 234.853 L2733.91 234.853 Z" fill="#000000" fill-rule="nonzero" fill-opacity="1" /><path clip-path="url(#clip270)" d="M2770.2 236.242 L2770.2 240.27 Q2768.4 239.344 2766.45 238.881 Q2764.51 238.418 2762.42 238.418 Q2759.25 238.418 2757.66 239.39 Q2756.08 240.362 2756.08 242.307 Q2756.08 243.788 2757.22 244.645 Q2758.35 245.478 2761.78 246.242 L2763.23 246.566 Q2767.77 247.538 2769.67 249.32 Q2771.59 251.08 2771.59 254.251 Q2771.59 257.862 2768.72 259.969 Q2765.87 262.075 2760.87 262.075 Q2758.79 262.075 2756.52 261.658 Q2754.28 261.265 2751.78 260.455 L2751.78 256.057 Q2754.14 257.283 2756.43 257.908 Q2758.72 258.51 2760.97 258.51 Q2763.98 258.51 2765.6 257.492 Q2767.22 256.45 2767.22 254.575 Q2767.22 252.839 2766.04 251.913 Q2764.88 250.987 2760.92 250.131 L2759.44 249.783 Q2755.48 248.95 2753.72 247.237 Q2751.96 245.501 2751.96 242.492 Q2751.96 238.834 2754.55 236.844 Q2757.15 234.853 2761.92 234.853 Q2764.28 234.853 2766.36 235.2 Q2768.44 235.547 2770.2 236.242 Z" fill="#000000" fill-rule="nonzero" fill-opacity="1" /><path clip-path="url(#clip270)" d="M2803.67 225.432 Q2800.57 230.756 2799.07 235.964 Q2797.56 241.172 2797.56 246.52 Q2797.56 251.867 2799.07 257.121 Q2800.6 262.353 2803.67 267.654 L2799.97 267.654 Q2796.5 262.214 2794.76 256.959 Q2793.05 251.705 2793.05 246.52 Q2793.05 241.358 2794.76 236.126 Q2796.48 230.895 2799.97 225.432 L2803.67 225.432 Z" fill="#000000" fill-rule="nonzero" fill-opacity="1" /><path clip-path="url(#clip270)" d="M2833.49 245.756 L2833.49 261.404 L2829.23 261.404 L2829.23 245.895 Q2829.23 242.214 2827.79 240.385 Q2826.36 238.557 2823.49 238.557 Q2820.04 238.557 2818.05 240.756 Q2816.06 242.955 2816.06 246.751 L2816.06 261.404 L2811.78 261.404 L2811.78 225.385 L2816.06 225.385 L2816.06 239.506 Q2817.59 237.168 2819.65 236.01 Q2821.73 234.853 2824.44 234.853 Q2828.91 234.853 2831.2 237.631 Q2833.49 240.385 2833.49 245.756 Z" fill="#000000" fill-rule="nonzero" fill-opacity="1" /><path clip-path="url(#clip270)" d="M2853.77 248.371 Q2848.6 248.371 2846.61 249.552 Q2844.62 250.732 2844.62 253.58 Q2844.62 255.848 2846.1 257.191 Q2847.61 258.51 2850.18 258.51 Q2853.72 258.51 2855.85 256.01 Q2858 253.487 2858 249.32 L2858 248.371 L2853.77 248.371 M2862.26 246.612 L2862.26 261.404 L2858 261.404 L2858 257.469 Q2856.54 259.83 2854.37 260.964 Q2852.19 262.075 2849.04 262.075 Q2845.06 262.075 2842.7 259.853 Q2840.36 257.607 2840.36 253.857 Q2840.36 249.482 2843.28 247.26 Q2846.22 245.038 2852.03 245.038 L2858 245.038 L2858 244.621 Q2858 241.682 2856.06 240.084 Q2854.14 238.464 2850.64 238.464 Q2848.42 238.464 2846.31 238.996 Q2844.21 239.529 2842.26 240.594 L2842.26 236.658 Q2844.6 235.756 2846.8 235.316 Q2849 234.853 2851.08 234.853 Q2856.71 234.853 2859.48 237.77 Q2862.26 240.686 2862.26 246.612 Z" fill="#000000" fill-rule="nonzero" fill-opacity="1" /><path clip-path="url(#clip270)" d="M2892.59 245.756 L2892.59 261.404 L2888.33 261.404 L2888.33 245.895 Q2888.33 242.214 2886.89 240.385 Q2885.46 238.557 2882.59 238.557 Q2879.14 238.557 2877.15 240.756 Q2875.16 242.955 2875.16 246.751 L2875.16 261.404 L2870.87 261.404 L2870.87 235.478 L2875.16 235.478 L2875.16 239.506 Q2876.68 237.168 2878.74 236.01 Q2880.83 234.853 2883.54 234.853 Q2888 234.853 2890.29 237.631 Q2892.59 240.385 2892.59 245.756 Z" fill="#000000" fill-rule="nonzero" fill-opacity="1" /><path clip-path="url(#clip270)" d="M2918.14 239.413 L2918.14 225.385 L2922.4 225.385 L2922.4 261.404 L2918.14 261.404 L2918.14 257.515 Q2916.8 259.83 2914.74 260.964 Q2912.7 262.075 2909.83 262.075 Q2905.13 262.075 2902.17 258.325 Q2899.23 254.575 2899.23 248.464 Q2899.23 242.353 2902.17 238.603 Q2905.13 234.853 2909.83 234.853 Q2912.7 234.853 2914.74 235.987 Q2916.8 237.098 2918.14 239.413 M2903.63 248.464 Q2903.63 253.163 2905.55 255.848 Q2907.49 258.51 2910.87 258.51 Q2914.25 258.51 2916.2 255.848 Q2918.14 253.163 2918.14 248.464 Q2918.14 243.765 2916.2 241.103 Q2914.25 238.418 2910.87 238.418 Q2907.49 238.418 2905.55 241.103 Q2903.63 243.765 2903.63 248.464 Z" fill="#000000" fill-rule="nonzero" fill-opacity="1" /><path clip-path="url(#clip270)" d="M2930.5 225.432 L2934.21 225.432 Q2937.68 230.895 2939.39 236.126 Q2941.13 241.358 2941.13 246.52 Q2941.13 251.705 2939.39 256.959 Q2937.68 262.214 2934.21 267.654 L2930.5 267.654 Q2933.58 262.353 2935.09 257.121 Q2936.61 251.867 2936.61 246.52 Q2936.61 241.172 2935.09 235.964 Q2933.58 230.756 2930.5 225.432 Z" fill="#000000" fill-rule="nonzero" fill-opacity="1" /><polyline clip-path="url(#clip270)" style="stroke:#c271d2; stroke-linecap:round; stroke-linejoin:round; stroke-width:8; stroke-opacity:1; fill:none" stroke-dasharray="32, 16, 4, 16" points="2499.28,295.964 2691.2,295.964 "/>
<path clip-path="url(#clip270)" d="M2723.19 303.012 L2723.19 287.318 L2727.45 287.318 L2727.45 302.85 Q2727.45 306.531 2728.88 308.383 Q2730.32 310.211 2733.19 310.211 Q2736.64 310.211 2738.63 308.012 Q2740.64 305.813 2740.64 302.017 L2740.64 287.318 L2744.9 287.318 L2744.9 313.244 L2740.64 313.244 L2740.64 309.262 Q2739.09 311.623 2737.03 312.781 Q2734.99 313.915 2732.29 313.915 Q2727.82 313.915 2725.5 311.137 Q2723.19 308.359 2723.19 303.012 M2733.91 286.693 L2733.91 286.693 Z" fill="#000000" fill-rule="nonzero" fill-opacity="1" /><path clip-path="url(#clip270)" d="M2770.2 288.082 L2770.2 292.11 Q2768.4 291.184 2766.45 290.721 Q2764.51 290.258 2762.42 290.258 Q2759.25 290.258 2757.66 291.23 Q2756.08 292.202 2756.08 294.147 Q2756.08 295.628 2757.22 296.485 Q2758.35 297.318 2761.78 298.082 L2763.23 298.406 Q2767.77 299.378 2769.67 301.16 Q2771.59 302.92 2771.59 306.091 Q2771.59 309.702 2768.72 311.809 Q2765.87 313.915 2760.87 313.915 Q2758.79 313.915 2756.52 313.498 Q2754.28 313.105 2751.78 312.295 L2751.78 307.897 Q2754.14 309.123 2756.43 309.748 Q2758.72 310.35 2760.97 310.35 Q2763.98 310.35 2765.6 309.332 Q2767.22 308.29 2767.22 306.415 Q2767.22 304.679 2766.04 303.753 Q2764.88 302.827 2760.92 301.971 L2759.44 301.623 Q2755.48 300.79 2753.72 299.077 Q2751.96 297.341 2751.96 294.332 Q2751.96 290.674 2754.55 288.684 Q2757.15 286.693 2761.92 286.693 Q2764.28 286.693 2766.36 287.04 Q2768.44 287.387 2770.2 288.082 Z" fill="#000000" fill-rule="nonzero" fill-opacity="1" /><path clip-path="url(#clip270)" d="M2803.67 277.272 Q2800.57 282.596 2799.07 287.804 Q2797.56 293.012 2797.56 298.36 Q2797.56 303.707 2799.07 308.961 Q2800.6 314.193 2803.67 319.494 L2799.97 319.494 Q2796.5 314.054 2794.76 308.799 Q2793.05 303.545 2793.05 298.36 Q2793.05 293.198 2794.76 287.966 Q2796.48 282.735 2799.97 277.272 L2803.67 277.272 Z" fill="#000000" fill-rule="nonzero" fill-opacity="1" /><path clip-path="url(#clip270)" d="M2830.55 300.304 Q2830.55 295.605 2828.6 292.943 Q2826.68 290.258 2823.3 290.258 Q2819.92 290.258 2817.98 292.943 Q2816.06 295.605 2816.06 300.304 Q2816.06 305.003 2817.98 307.688 Q2819.92 310.35 2823.3 310.35 Q2826.68 310.35 2828.6 307.688 Q2830.55 305.003 2830.55 300.304 M2816.06 291.253 Q2817.4 288.938 2819.44 287.827 Q2821.5 286.693 2824.35 286.693 Q2829.07 286.693 2832.01 290.443 Q2834.97 294.193 2834.97 300.304 Q2834.97 306.415 2832.01 310.165 Q2829.07 313.915 2824.35 313.915 Q2821.5 313.915 2819.44 312.804 Q2817.4 311.67 2816.06 309.355 L2816.06 313.244 L2811.78 313.244 L2811.78 277.225 L2816.06 277.225 L2816.06 291.253 Z" fill="#000000" fill-rule="nonzero" fill-opacity="1" /><path clip-path="url(#clip270)" d="M2857.05 291.299 Q2856.34 290.883 2855.48 290.698 Q2854.65 290.489 2853.63 290.489 Q2850.02 290.489 2848.07 292.85 Q2846.15 295.188 2846.15 299.586 L2846.15 313.244 L2841.87 313.244 L2841.87 287.318 L2846.15 287.318 L2846.15 291.346 Q2847.49 288.985 2849.65 287.85 Q2851.8 286.693 2854.88 286.693 Q2855.32 286.693 2855.85 286.762 Q2856.38 286.809 2857.03 286.924 L2857.05 291.299 Z" fill="#000000" fill-rule="nonzero" fill-opacity="1" /><path clip-path="url(#clip270)" d="M2873.3 300.211 Q2868.14 300.211 2866.15 301.392 Q2864.16 302.572 2864.16 305.42 Q2864.16 307.688 2865.64 309.031 Q2867.15 310.35 2869.72 310.35 Q2873.26 310.35 2875.39 307.85 Q2877.54 305.327 2877.54 301.16 L2877.54 300.211 L2873.3 300.211 M2881.8 298.452 L2881.8 313.244 L2877.54 313.244 L2877.54 309.309 Q2876.08 311.67 2873.91 312.804 Q2871.73 313.915 2868.58 313.915 Q2864.6 313.915 2862.24 311.693 Q2859.9 309.447 2859.9 305.697 Q2859.9 301.322 2862.82 299.1 Q2865.76 296.878 2871.57 296.878 L2877.54 296.878 L2877.54 296.461 Q2877.54 293.522 2875.6 291.924 Q2873.67 290.304 2870.18 290.304 Q2867.96 290.304 2865.85 290.836 Q2863.74 291.369 2861.8 292.434 L2861.8 288.498 Q2864.14 287.596 2866.34 287.156 Q2868.54 286.693 2870.62 286.693 Q2876.24 286.693 2879.02 289.61 Q2881.8 292.526 2881.8 298.452 Z" fill="#000000" fill-rule="nonzero" fill-opacity="1" /><path clip-path="url(#clip270)" d="M2909.23 288.313 L2909.23 292.295 Q2907.42 291.299 2905.6 290.813 Q2903.79 290.304 2901.94 290.304 Q2897.79 290.304 2895.5 292.943 Q2893.21 295.559 2893.21 300.304 Q2893.21 305.049 2895.5 307.688 Q2897.79 310.304 2901.94 310.304 Q2903.79 310.304 2905.6 309.818 Q2907.42 309.309 2909.23 308.313 L2909.23 312.248 Q2907.45 313.082 2905.53 313.498 Q2903.63 313.915 2901.47 313.915 Q2895.62 313.915 2892.17 310.234 Q2888.72 306.554 2888.72 300.304 Q2888.72 293.961 2892.19 290.327 Q2895.69 286.693 2901.75 286.693 Q2903.72 286.693 2905.6 287.11 Q2907.47 287.503 2909.23 288.313 Z" fill="#000000" fill-rule="nonzero" fill-opacity="1" /><path clip-path="url(#clip270)" d="M2916.47 277.225 L2920.76 277.225 L2920.76 298.498 L2933.47 287.318 L2938.91 287.318 L2925.16 299.447 L2939.48 313.244 L2933.93 313.244 L2920.76 300.582 L2920.76 313.244 L2916.47 313.244 L2916.47 277.225 Z" fill="#000000" fill-rule="nonzero" fill-opacity="1" /><path clip-path="url(#clip270)" d="M2964.58 299.216 L2964.58 301.299 L2944.99 301.299 Q2945.27 305.697 2947.63 308.012 Q2950.02 310.304 2954.25 310.304 Q2956.71 310.304 2959 309.702 Q2961.31 309.1 2963.58 307.897 L2963.58 311.924 Q2961.29 312.896 2958.88 313.406 Q2956.47 313.915 2954 313.915 Q2947.79 313.915 2944.16 310.304 Q2940.55 306.693 2940.55 300.535 Q2940.55 294.17 2943.97 290.443 Q2947.42 286.693 2953.26 286.693 Q2958.49 286.693 2961.52 290.073 Q2964.58 293.429 2964.58 299.216 M2960.32 297.966 Q2960.27 294.471 2958.35 292.387 Q2956.45 290.304 2953.3 290.304 Q2949.74 290.304 2947.59 292.318 Q2945.46 294.332 2945.13 297.989 L2960.32 297.966 Z" fill="#000000" fill-rule="nonzero" fill-opacity="1" /><path clip-path="url(#clip270)" d="M2975.78 279.957 L2975.78 287.318 L2984.55 287.318 L2984.55 290.628 L2975.78 290.628 L2975.78 304.702 Q2975.78 307.873 2976.64 308.776 Q2977.52 309.679 2980.18 309.679 L2984.55 309.679 L2984.55 313.244 L2980.18 313.244 Q2975.25 313.244 2973.37 311.415 Q2971.5 309.563 2971.5 304.702 L2971.5 290.628 L2968.37 290.628 L2968.37 287.318 L2971.5 287.318 L2971.5 279.957 L2975.78 279.957 Z" fill="#000000" fill-rule="nonzero" fill-opacity="1" /><path clip-path="url(#clip270)" d="M3006.68 288.082 L3006.68 292.11 Q3004.88 291.184 3002.93 290.721 Q3000.99 290.258 2998.9 290.258 Q2995.73 290.258 2994.14 291.23 Q2992.56 292.202 2992.56 294.147 Q2992.56 295.628 2993.7 296.485 Q2994.83 297.318 2998.26 298.082 L2999.72 298.406 Q3004.25 299.378 3006.15 301.16 Q3008.07 302.92 3008.07 306.091 Q3008.07 309.702 3005.2 311.809 Q3002.35 313.915 2997.35 313.915 Q2995.27 313.915 2993 313.498 Q2990.76 313.105 2988.26 312.295 L2988.26 307.897 Q2990.62 309.123 2992.91 309.748 Q2995.2 310.35 2997.45 310.35 Q3000.46 310.35 3002.08 309.332 Q3003.7 308.29 3003.7 306.415 Q3003.7 304.679 3002.52 303.753 Q3001.36 302.827 2997.4 301.971 L2995.92 301.623 Q2991.96 300.79 2990.2 299.077 Q2988.44 297.341 2988.44 294.332 Q2988.44 290.674 2991.03 288.684 Q2993.63 286.693 2998.4 286.693 Q3000.76 286.693 3002.84 287.04 Q3004.92 287.387 3006.68 288.082 Z" fill="#000000" fill-rule="nonzero" fill-opacity="1" /><path clip-path="url(#clip270)" d="M3014.18 277.272 L3017.89 277.272 Q3021.36 282.735 3023.07 287.966 Q3024.81 293.198 3024.81 298.36 Q3024.81 303.545 3023.07 308.799 Q3021.36 314.054 3017.89 319.494 L3014.18 319.494 Q3017.26 314.193 3018.77 308.961 Q3020.29 303.707 3020.29 298.36 Q3020.29 293.012 3018.77 287.804 Q3017.26 282.596 3014.18 277.272 Z" fill="#000000" fill-rule="nonzero" fill-opacity="1" /></svg>
