<?xml version="1.0" encoding="utf-8"?>
<svg xmlns="http://www.w3.org/2000/svg" xmlns:xlink="http://www.w3.org/1999/xlink" width="800" height="400" viewBox="0 0 3200 1600">
<defs>
  <clipPath id="clip200">
    <rect x="0" y="0" width="3200" height="1600"/>
  </clipPath>
</defs>
<path clip-path="url(#clip200)" d="M0 1600 L3200 1600 L3200 0 L0 0  Z" fill="#ffffff" fill-rule="evenodd" fill-opacity="1"/>
<defs>
  <clipPath id="clip201">
    <rect x="313" y="1058" width="2841" height="327"/>
  </clipPath>
</defs>
<path clip-path="url(#clip200)" d="M313.076 313.522 L3152.76 313.522 L3152.76 95.3921 L313.076 95.3921  Z" fill="#ffffff" fill-rule="evenodd" fill-opacity="1"/>
<defs>
  <clipPath id="clip202">
    <rect x="313" y="95" width="2841" height="219"/>
  </clipPath>
</defs>
<polyline clip-path="url(#clip202)" style="stroke:#000000; stroke-linecap:round; stroke-linejoin:round; stroke-width:2; stroke-opacity:0.1; fill:none" points="393.444,313.522 393.444,95.3921 "/>
<polyline clip-path="url(#clip202)" style="stroke:#000000; stroke-linecap:round; stroke-linejoin:round; stroke-width:2; stroke-opacity:0.1; fill:none" points="1063.18,313.522 1063.18,95.3921 "/>
<polyline clip-path="url(#clip202)" style="stroke:#000000; stroke-linecap:round; stroke-linejoin:round; stroke-width:2; stroke-opacity:0.1; fill:none" points="1732.92,313.522 1732.92,95.3921 "/>
<polyline clip-path="url(#clip202)" style="stroke:#000000; stroke-linecap:round; stroke-linejoin:round; stroke-width:2; stroke-opacity:0.1; fill:none" points="2402.65,313.522 2402.65,95.3921 "/>
<polyline clip-path="url(#clip202)" style="stroke:#000000; stroke-linecap:round; stroke-linejoin:round; stroke-width:2; stroke-opacity:0.1; fill:none" points="3072.39,313.522 3072.39,95.3921 "/>
<polyline clip-path="url(#clip202)" style="stroke:#000000; stroke-linecap:round; stroke-linejoin:round; stroke-width:2; stroke-opacity:0.1; fill:none" points="313.076,307.348 3152.76,307.348 "/>
<polyline clip-path="url(#clip202)" style="stroke:#000000; stroke-linecap:round; stroke-linejoin:round; stroke-width:2; stroke-opacity:0.1; fill:none" points="313.076,255.903 3152.76,255.903 "/>
<polyline clip-path="url(#clip202)" style="stroke:#000000; stroke-linecap:round; stroke-linejoin:round; stroke-width:2; stroke-opacity:0.1; fill:none" points="313.076,204.457 3152.76,204.457 "/>
<polyline clip-path="url(#clip202)" style="stroke:#000000; stroke-linecap:round; stroke-linejoin:round; stroke-width:2; stroke-opacity:0.1; fill:none" points="313.076,153.011 3152.76,153.011 "/>
<polyline clip-path="url(#clip202)" style="stroke:#000000; stroke-linecap:round; stroke-linejoin:round; stroke-width:2; stroke-opacity:0.1; fill:none" points="313.076,101.566 3152.76,101.566 "/>
<polyline clip-path="url(#clip200)" style="stroke:#000000; stroke-linecap:round; stroke-linejoin:round; stroke-width:4; stroke-opacity:1; fill:none" points="313.076,313.522 3152.76,313.522 "/>
<polyline clip-path="url(#clip200)" style="stroke:#000000; stroke-linecap:round; stroke-linejoin:round; stroke-width:4; stroke-opacity:1; fill:none" points="393.444,313.522 393.444,294.624 "/>
<polyline clip-path="url(#clip200)" style="stroke:#000000; stroke-linecap:round; stroke-linejoin:round; stroke-width:4; stroke-opacity:1; fill:none" points="1063.18,313.522 1063.18,294.624 "/>
<polyline clip-path="url(#clip200)" style="stroke:#000000; stroke-linecap:round; stroke-linejoin:round; stroke-width:4; stroke-opacity:1; fill:none" points="1732.92,313.522 1732.92,294.624 "/>
<polyline clip-path="url(#clip200)" style="stroke:#000000; stroke-linecap:round; stroke-linejoin:round; stroke-width:4; stroke-opacity:1; fill:none" points="2402.65,313.522 2402.65,294.624 "/>
<polyline clip-path="url(#clip200)" style="stroke:#000000; stroke-linecap:round; stroke-linejoin:round; stroke-width:4; stroke-opacity:1; fill:none" points="3072.39,313.522 3072.39,294.624 "/>
<path clip-path="url(#clip200)" d="M355.748 350.84 Q352.137 350.84 350.308 354.405 Q348.503 357.947 348.503 365.076 Q348.503 372.183 350.308 375.748 Q352.137 379.289 355.748 379.289 Q359.382 379.289 361.188 375.748 Q363.016 372.183 363.016 365.076 Q363.016 357.947 361.188 354.405 Q359.382 350.84 355.748 350.84 M355.748 347.137 Q361.558 347.137 364.614 351.743 Q367.692 356.326 367.692 365.076 Q367.692 373.803 364.614 378.41 Q361.558 382.993 355.748 382.993 Q349.938 382.993 346.859 378.41 Q343.804 373.803 343.804 365.076 Q343.804 356.326 346.859 351.743 Q349.938 347.137 355.748 347.137 Z" fill="#000000" fill-rule="nonzero" fill-opacity="1" /><path clip-path="url(#clip200)" d="M375.91 376.442 L380.794 376.442 L380.794 382.322 L375.91 382.322 L375.91 376.442 Z" fill="#000000" fill-rule="nonzero" fill-opacity="1" /><path clip-path="url(#clip200)" d="M400.979 350.84 Q397.368 350.84 395.539 354.405 Q393.734 357.947 393.734 365.076 Q393.734 372.183 395.539 375.748 Q397.368 379.289 400.979 379.289 Q404.613 379.289 406.419 375.748 Q408.248 372.183 408.248 365.076 Q408.248 357.947 406.419 354.405 Q404.613 350.84 400.979 350.84 M400.979 347.137 Q406.789 347.137 409.845 351.743 Q412.924 356.326 412.924 365.076 Q412.924 373.803 409.845 378.41 Q406.789 382.993 400.979 382.993 Q395.169 382.993 392.09 378.41 Q389.035 373.803 389.035 365.076 Q389.035 356.326 392.09 351.743 Q395.169 347.137 400.979 347.137 Z" fill="#000000" fill-rule="nonzero" fill-opacity="1" /><path clip-path="url(#clip200)" d="M431.141 350.84 Q427.53 350.84 425.701 354.405 Q423.896 357.947 423.896 365.076 Q423.896 372.183 425.701 375.748 Q427.53 379.289 431.141 379.289 Q434.775 379.289 436.581 375.748 Q438.409 372.183 438.409 365.076 Q438.409 357.947 436.581 354.405 Q434.775 350.84 431.141 350.84 M431.141 347.137 Q436.951 347.137 440.007 351.743 Q443.085 356.326 443.085 365.076 Q443.085 373.803 440.007 378.41 Q436.951 382.993 431.141 382.993 Q425.331 382.993 422.252 378.41 Q419.197 373.803 419.197 365.076 Q419.197 356.326 422.252 351.743 Q425.331 347.137 431.141 347.137 Z" fill="#000000" fill-rule="nonzero" fill-opacity="1" /><path clip-path="url(#clip200)" d="M1025.98 350.84 Q1022.37 350.84 1020.54 354.405 Q1018.74 357.947 1018.74 365.076 Q1018.74 372.183 1020.54 375.748 Q1022.37 379.289 1025.98 379.289 Q1029.62 379.289 1031.42 375.748 Q1033.25 372.183 1033.25 365.076 Q1033.25 357.947 1031.42 354.405 Q1029.62 350.84 1025.98 350.84 M1025.98 347.137 Q1031.79 347.137 1034.85 351.743 Q1037.93 356.326 1037.93 365.076 Q1037.93 373.803 1034.85 378.41 Q1031.79 382.993 1025.98 382.993 Q1020.17 382.993 1017.09 378.41 Q1014.04 373.803 1014.04 365.076 Q1014.04 356.326 1017.09 351.743 Q1020.17 347.137 1025.98 347.137 Z" fill="#000000" fill-rule="nonzero" fill-opacity="1" /><path clip-path="url(#clip200)" d="M1046.14 376.442 L1051.03 376.442 L1051.03 382.322 L1046.14 382.322 L1046.14 376.442 Z" fill="#000000" fill-rule="nonzero" fill-opacity="1" /><path clip-path="url(#clip200)" d="M1065.24 378.387 L1081.56 378.387 L1081.56 382.322 L1059.62 382.322 L1059.62 378.387 Q1062.28 375.632 1066.86 371.002 Q1071.47 366.35 1072.65 365.007 Q1074.89 362.484 1075.77 360.748 Q1076.68 358.988 1076.68 357.299 Q1076.68 354.544 1074.73 352.808 Q1072.81 351.072 1069.71 351.072 Q1067.51 351.072 1065.06 351.836 Q1062.62 352.6 1059.85 354.151 L1059.85 349.428 Q1062.67 348.294 1065.12 347.715 Q1067.58 347.137 1069.62 347.137 Q1074.99 347.137 1078.18 349.822 Q1081.37 352.507 1081.37 356.998 Q1081.37 359.127 1080.56 361.049 Q1079.78 362.947 1077.67 365.539 Q1077.09 366.211 1073.99 369.428 Q1070.89 372.623 1065.24 378.387 Z" fill="#000000" fill-rule="nonzero" fill-opacity="1" /><path clip-path="url(#clip200)" d="M1091.42 347.762 L1109.78 347.762 L1109.78 351.697 L1095.7 351.697 L1095.7 360.169 Q1096.72 359.822 1097.74 359.66 Q1098.76 359.475 1099.78 359.475 Q1105.56 359.475 1108.94 362.646 Q1112.32 365.817 1112.32 371.234 Q1112.32 376.812 1108.85 379.914 Q1105.38 382.993 1099.06 382.993 Q1096.88 382.993 1094.62 382.623 Q1092.37 382.252 1089.96 381.511 L1089.96 376.812 Q1092.05 377.947 1094.27 378.502 Q1096.49 379.058 1098.97 379.058 Q1102.97 379.058 1105.31 376.951 Q1107.65 374.845 1107.65 371.234 Q1107.65 367.623 1105.31 365.516 Q1102.97 363.41 1098.97 363.41 Q1097.09 363.41 1095.22 363.826 Q1093.37 364.243 1091.42 365.123 L1091.42 347.762 Z" fill="#000000" fill-rule="nonzero" fill-opacity="1" /><path clip-path="url(#clip200)" d="M1695.22 350.84 Q1691.61 350.84 1689.78 354.405 Q1687.97 357.947 1687.97 365.076 Q1687.97 372.183 1689.78 375.748 Q1691.61 379.289 1695.22 379.289 Q1698.85 379.289 1700.66 375.748 Q1702.49 372.183 1702.49 365.076 Q1702.49 357.947 1700.66 354.405 Q1698.85 350.84 1695.22 350.84 M1695.22 347.137 Q1701.03 347.137 1704.09 351.743 Q1707.16 356.326 1707.16 365.076 Q1707.16 373.803 1704.09 378.41 Q1701.03 382.993 1695.22 382.993 Q1689.41 382.993 1686.33 378.41 Q1683.28 373.803 1683.28 365.076 Q1683.28 356.326 1686.33 351.743 Q1689.41 347.137 1695.22 347.137 Z" fill="#000000" fill-rule="nonzero" fill-opacity="1" /><path clip-path="url(#clip200)" d="M1715.38 376.442 L1720.27 376.442 L1720.27 382.322 L1715.38 382.322 L1715.38 376.442 Z" fill="#000000" fill-rule="nonzero" fill-opacity="1" /><path clip-path="url(#clip200)" d="M1730.5 347.762 L1748.85 347.762 L1748.85 351.697 L1734.78 351.697 L1734.78 360.169 Q1735.8 359.822 1736.82 359.66 Q1737.83 359.475 1738.85 359.475 Q1744.64 359.475 1748.02 362.646 Q1751.4 365.817 1751.4 371.234 Q1751.4 376.812 1747.93 379.914 Q1744.46 382.993 1738.14 382.993 Q1735.96 382.993 1733.69 382.623 Q1731.45 382.252 1729.04 381.511 L1729.04 376.812 Q1731.12 377.947 1733.34 378.502 Q1735.57 379.058 1738.04 379.058 Q1742.05 379.058 1744.39 376.951 Q1746.72 374.845 1746.72 371.234 Q1746.72 367.623 1744.39 365.516 Q1742.05 363.41 1738.04 363.41 Q1736.17 363.41 1734.29 363.826 Q1732.44 364.243 1730.5 365.123 L1730.5 347.762 Z" fill="#000000" fill-rule="nonzero" fill-opacity="1" /><path clip-path="url(#clip200)" d="M1770.61 350.84 Q1767 350.84 1765.17 354.405 Q1763.37 357.947 1763.37 365.076 Q1763.37 372.183 1765.17 375.748 Q1767 379.289 1770.61 379.289 Q1774.25 379.289 1776.05 375.748 Q1777.88 372.183 1777.88 365.076 Q1777.88 357.947 1776.05 354.405 Q1774.25 350.84 1770.61 350.84 M1770.61 347.137 Q1776.42 347.137 1779.48 351.743 Q1782.56 356.326 1782.56 365.076 Q1782.56 373.803 1779.48 378.41 Q1776.42 382.993 1770.61 382.993 Q1764.8 382.993 1761.72 378.41 Q1758.67 373.803 1758.67 365.076 Q1758.67 356.326 1761.72 351.743 Q1764.8 347.137 1770.61 347.137 Z" fill="#000000" fill-rule="nonzero" fill-opacity="1" /><path clip-path="url(#clip200)" d="M2365.45 350.84 Q2361.84 350.84 2360.01 354.405 Q2358.21 357.947 2358.21 365.076 Q2358.21 372.183 2360.01 375.748 Q2361.84 379.289 2365.45 379.289 Q2369.09 379.289 2370.89 375.748 Q2372.72 372.183 2372.72 365.076 Q2372.72 357.947 2370.89 354.405 Q2369.09 350.84 2365.45 350.84 M2365.45 347.137 Q2371.26 347.137 2374.32 351.743 Q2377.4 356.326 2377.4 365.076 Q2377.4 373.803 2374.32 378.41 Q2371.26 382.993 2365.45 382.993 Q2359.64 382.993 2356.56 378.41 Q2353.51 373.803 2353.51 365.076 Q2353.51 356.326 2356.56 351.743 Q2359.64 347.137 2365.45 347.137 Z" fill="#000000" fill-rule="nonzero" fill-opacity="1" /><path clip-path="url(#clip200)" d="M2385.61 376.442 L2390.5 376.442 L2390.5 382.322 L2385.61 382.322 L2385.61 376.442 Z" fill="#000000" fill-rule="nonzero" fill-opacity="1" /><path clip-path="url(#clip200)" d="M2399.5 347.762 L2421.73 347.762 L2421.73 349.752 L2409.18 382.322 L2404.3 382.322 L2416.1 351.697 L2399.5 351.697 L2399.5 347.762 Z" fill="#000000" fill-rule="nonzero" fill-opacity="1" /><path clip-path="url(#clip200)" d="M2430.89 347.762 L2449.25 347.762 L2449.25 351.697 L2435.17 351.697 L2435.17 360.169 Q2436.19 359.822 2437.21 359.66 Q2438.23 359.475 2439.25 359.475 Q2445.04 359.475 2448.42 362.646 Q2451.8 365.817 2451.8 371.234 Q2451.8 376.812 2448.32 379.914 Q2444.85 382.993 2438.53 382.993 Q2436.36 382.993 2434.09 382.623 Q2431.84 382.252 2429.43 381.511 L2429.43 376.812 Q2431.52 377.947 2433.74 378.502 Q2435.96 379.058 2438.44 379.058 Q2442.44 379.058 2444.78 376.951 Q2447.12 374.845 2447.12 371.234 Q2447.12 367.623 2444.78 365.516 Q2442.44 363.41 2438.44 363.41 Q2436.56 363.41 2434.69 363.826 Q2432.84 364.243 2430.89 365.123 L2430.89 347.762 Z" fill="#000000" fill-rule="nonzero" fill-opacity="1" /><path clip-path="url(#clip200)" d="M3024.46 378.387 L3032.1 378.387 L3032.1 352.021 L3023.79 353.688 L3023.79 349.428 L3032.05 347.762 L3036.73 347.762 L3036.73 378.387 L3044.37 378.387 L3044.37 382.322 L3024.46 382.322 L3024.46 378.387 Z" fill="#000000" fill-rule="nonzero" fill-opacity="1" /><path clip-path="url(#clip200)" d="M3053.81 376.442 L3058.7 376.442 L3058.7 382.322 L3053.81 382.322 L3053.81 376.442 Z" fill="#000000" fill-rule="nonzero" fill-opacity="1" /><path clip-path="url(#clip200)" d="M3078.88 350.84 Q3075.27 350.84 3073.44 354.405 Q3071.64 357.947 3071.64 365.076 Q3071.64 372.183 3073.44 375.748 Q3075.27 379.289 3078.88 379.289 Q3082.51 379.289 3084.32 375.748 Q3086.15 372.183 3086.15 365.076 Q3086.15 357.947 3084.32 354.405 Q3082.51 350.84 3078.88 350.84 M3078.88 347.137 Q3084.69 347.137 3087.75 351.743 Q3090.83 356.326 3090.83 365.076 Q3090.83 373.803 3087.75 378.41 Q3084.69 382.993 3078.88 382.993 Q3073.07 382.993 3069.99 378.41 Q3066.94 373.803 3066.94 365.076 Q3066.94 356.326 3069.99 351.743 Q3073.07 347.137 3078.88 347.137 Z" fill="#000000" fill-rule="nonzero" fill-opacity="1" /><path clip-path="url(#clip200)" d="M3109.04 350.84 Q3105.43 350.84 3103.6 354.405 Q3101.8 357.947 3101.8 365.076 Q3101.8 372.183 3103.6 375.748 Q3105.43 379.289 3109.04 379.289 Q3112.68 379.289 3114.48 375.748 Q3116.31 372.183 3116.31 365.076 Q3116.31 357.947 3114.48 354.405 Q3112.68 350.84 3109.04 350.84 M3109.04 347.137 Q3114.85 347.137 3117.91 351.743 Q3120.99 356.326 3120.99 365.076 Q3120.99 373.803 3117.91 378.41 Q3114.85 382.993 3109.04 382.993 Q3103.23 382.993 3100.15 378.41 Q3097.1 373.803 3097.1 365.076 Q3097.1 356.326 3100.15 351.743 Q3103.23 347.137 3109.04 347.137 Z" fill="#000000" fill-rule="nonzero" fill-opacity="1" /><polyline clip-path="url(#clip200)" style="stroke:#000000; stroke-linecap:round; stroke-linejoin:round; stroke-width:4; stroke-opacity:1; fill:none" points="313.076,313.522 313.076,95.3921 "/>
<polyline clip-path="url(#clip200)" style="stroke:#000000; stroke-linecap:round; stroke-linejoin:round; stroke-width:4; stroke-opacity:1; fill:none" points="313.076,307.348 331.974,307.348 "/>
<polyline clip-path="url(#clip200)" style="stroke:#000000; stroke-linecap:round; stroke-linejoin:round; stroke-width:4; stroke-opacity:1; fill:none" points="313.076,255.903 331.974,255.903 "/>
<polyline clip-path="url(#clip200)" style="stroke:#000000; stroke-linecap:round; stroke-linejoin:round; stroke-width:4; stroke-opacity:1; fill:none" points="313.076,204.457 331.974,204.457 "/>
<polyline clip-path="url(#clip200)" style="stroke:#000000; stroke-linecap:round; stroke-linejoin:round; stroke-width:4; stroke-opacity:1; fill:none" points="313.076,153.011 331.974,153.011 "/>
<polyline clip-path="url(#clip200)" style="stroke:#000000; stroke-linecap:round; stroke-linejoin:round; stroke-width:4; stroke-opacity:1; fill:none" points="313.076,101.566 331.974,101.566 "/>
<path clip-path="url(#clip200)" d="M177.739 293.147 Q174.128 293.147 172.299 296.712 Q170.493 300.253 170.493 307.383 Q170.493 314.489 172.299 318.054 Q174.128 321.596 177.739 321.596 Q181.373 321.596 183.178 318.054 Q185.007 314.489 185.007 307.383 Q185.007 300.253 183.178 296.712 Q181.373 293.147 177.739 293.147 M177.739 289.443 Q183.549 289.443 186.604 294.05 Q189.683 298.633 189.683 307.383 Q189.683 316.11 186.604 320.716 Q183.549 325.299 177.739 325.299 Q171.929 325.299 168.85 320.716 Q165.794 316.11 165.794 307.383 Q165.794 298.633 168.85 294.05 Q171.929 289.443 177.739 289.443 Z" fill="#000000" fill-rule="nonzero" fill-opacity="1" /><path clip-path="url(#clip200)" d="M197.901 318.749 L202.785 318.749 L202.785 324.628 L197.901 324.628 L197.901 318.749 Z" fill="#000000" fill-rule="nonzero" fill-opacity="1" /><path clip-path="url(#clip200)" d="M222.97 293.147 Q219.359 293.147 217.53 296.712 Q215.725 300.253 215.725 307.383 Q215.725 314.489 217.53 318.054 Q219.359 321.596 222.97 321.596 Q226.604 321.596 228.41 318.054 Q230.238 314.489 230.238 307.383 Q230.238 300.253 228.41 296.712 Q226.604 293.147 222.97 293.147 M222.97 289.443 Q228.78 289.443 231.836 294.05 Q234.914 298.633 234.914 307.383 Q234.914 316.11 231.836 320.716 Q228.78 325.299 222.97 325.299 Q217.16 325.299 214.081 320.716 Q211.026 316.11 211.026 307.383 Q211.026 298.633 214.081 294.05 Q217.16 289.443 222.97 289.443 Z" fill="#000000" fill-rule="nonzero" fill-opacity="1" /><path clip-path="url(#clip200)" d="M253.132 293.147 Q249.521 293.147 247.692 296.712 Q245.886 300.253 245.886 307.383 Q245.886 314.489 247.692 318.054 Q249.521 321.596 253.132 321.596 Q256.766 321.596 258.572 318.054 Q260.4 314.489 260.4 307.383 Q260.4 300.253 258.572 296.712 Q256.766 293.147 253.132 293.147 M253.132 289.443 Q258.942 289.443 261.997 294.05 Q265.076 298.633 265.076 307.383 Q265.076 316.11 261.997 320.716 Q258.942 325.299 253.132 325.299 Q247.322 325.299 244.243 320.716 Q241.187 316.11 241.187 307.383 Q241.187 298.633 244.243 294.05 Q247.322 289.443 253.132 289.443 Z" fill="#000000" fill-rule="nonzero" fill-opacity="1" /><path clip-path="url(#clip200)" d="M178.734 241.701 Q175.123 241.701 173.294 245.266 Q171.489 248.808 171.489 255.937 Q171.489 263.044 173.294 266.609 Q175.123 270.15 178.734 270.15 Q182.368 270.15 184.174 266.609 Q186.003 263.044 186.003 255.937 Q186.003 248.808 184.174 245.266 Q182.368 241.701 178.734 241.701 M178.734 237.998 Q184.544 237.998 187.6 242.604 Q190.678 247.187 190.678 255.937 Q190.678 264.664 187.6 269.271 Q184.544 273.854 178.734 273.854 Q172.924 273.854 169.845 269.271 Q166.79 264.664 166.79 255.937 Q166.79 247.187 169.845 242.604 Q172.924 237.998 178.734 237.998 Z" fill="#000000" fill-rule="nonzero" fill-opacity="1" /><path clip-path="url(#clip200)" d="M198.896 267.303 L203.78 267.303 L203.78 273.183 L198.896 273.183 L198.896 267.303 Z" fill="#000000" fill-rule="nonzero" fill-opacity="1" /><path clip-path="url(#clip200)" d="M217.993 269.247 L234.312 269.247 L234.312 273.183 L212.368 273.183 L212.368 269.247 Q215.03 266.493 219.613 261.863 Q224.22 257.21 225.4 255.868 Q227.646 253.345 228.525 251.609 Q229.428 249.849 229.428 248.16 Q229.428 245.405 227.484 243.669 Q225.562 241.933 222.461 241.933 Q220.262 241.933 217.808 242.697 Q215.377 243.46 212.6 245.011 L212.6 240.289 Q215.424 239.155 217.877 238.576 Q220.331 237.998 222.368 237.998 Q227.738 237.998 230.933 240.683 Q234.127 243.368 234.127 247.859 Q234.127 249.988 233.317 251.91 Q232.53 253.808 230.424 256.4 Q229.845 257.072 226.743 260.289 Q223.641 263.484 217.993 269.247 Z" fill="#000000" fill-rule="nonzero" fill-opacity="1" /><path clip-path="url(#clip200)" d="M244.173 238.623 L262.53 238.623 L262.53 242.558 L248.456 242.558 L248.456 251.03 Q249.474 250.683 250.493 250.521 Q251.511 250.335 252.53 250.335 Q258.317 250.335 261.697 253.507 Q265.076 256.678 265.076 262.095 Q265.076 267.673 261.604 270.775 Q258.132 273.854 251.812 273.854 Q249.636 273.854 247.368 273.483 Q245.123 273.113 242.715 272.372 L242.715 267.673 Q244.798 268.808 247.021 269.363 Q249.243 269.919 251.72 269.919 Q255.724 269.919 258.062 267.812 Q260.4 265.706 260.4 262.095 Q260.4 258.484 258.062 256.377 Q255.724 254.271 251.72 254.271 Q249.845 254.271 247.97 254.687 Q246.118 255.104 244.173 255.984 L244.173 238.623 Z" fill="#000000" fill-rule="nonzero" fill-opacity="1" /><path clip-path="url(#clip200)" d="M177.739 190.256 Q174.128 190.256 172.299 193.82 Q170.493 197.362 170.493 204.492 Q170.493 211.598 172.299 215.163 Q174.128 218.705 177.739 218.705 Q181.373 218.705 183.178 215.163 Q185.007 211.598 185.007 204.492 Q185.007 197.362 183.178 193.82 Q181.373 190.256 177.739 190.256 M177.739 186.552 Q183.549 186.552 186.604 191.158 Q189.683 195.742 189.683 204.492 Q189.683 213.218 186.604 217.825 Q183.549 222.408 177.739 222.408 Q171.929 222.408 168.85 217.825 Q165.794 213.218 165.794 204.492 Q165.794 195.742 168.85 191.158 Q171.929 186.552 177.739 186.552 Z" fill="#000000" fill-rule="nonzero" fill-opacity="1" /><path clip-path="url(#clip200)" d="M197.901 215.857 L202.785 215.857 L202.785 221.737 L197.901 221.737 L197.901 215.857 Z" fill="#000000" fill-rule="nonzero" fill-opacity="1" /><path clip-path="url(#clip200)" d="M213.016 187.177 L231.373 187.177 L231.373 191.112 L217.299 191.112 L217.299 199.584 Q218.317 199.237 219.336 199.075 Q220.354 198.89 221.373 198.89 Q227.16 198.89 230.539 202.061 Q233.919 205.232 233.919 210.649 Q233.919 216.228 230.447 219.33 Q226.975 222.408 220.655 222.408 Q218.479 222.408 216.211 222.038 Q213.965 221.667 211.558 220.927 L211.558 216.228 Q213.641 217.362 215.863 217.917 Q218.086 218.473 220.563 218.473 Q224.567 218.473 226.905 216.367 Q229.243 214.26 229.243 210.649 Q229.243 207.038 226.905 204.931 Q224.567 202.825 220.563 202.825 Q218.688 202.825 216.813 203.242 Q214.961 203.658 213.016 204.538 L213.016 187.177 Z" fill="#000000" fill-rule="nonzero" fill-opacity="1" /><path clip-path="url(#clip200)" d="M253.132 190.256 Q249.521 190.256 247.692 193.82 Q245.886 197.362 245.886 204.492 Q245.886 211.598 247.692 215.163 Q249.521 218.705 253.132 218.705 Q256.766 218.705 258.572 215.163 Q260.4 211.598 260.4 204.492 Q260.4 197.362 258.572 193.82 Q256.766 190.256 253.132 190.256 M253.132 186.552 Q258.942 186.552 261.997 191.158 Q265.076 195.742 265.076 204.492 Q265.076 213.218 261.997 217.825 Q258.942 222.408 253.132 222.408 Q247.322 222.408 244.243 217.825 Q241.187 213.218 241.187 204.492 Q241.187 195.742 244.243 191.158 Q247.322 186.552 253.132 186.552 Z" fill="#000000" fill-rule="nonzero" fill-opacity="1" /><path clip-path="url(#clip200)" d="M178.734 138.81 Q175.123 138.81 173.294 142.375 Q171.489 145.916 171.489 153.046 Q171.489 160.152 173.294 163.717 Q175.123 167.259 178.734 167.259 Q182.368 167.259 184.174 163.717 Q186.003 160.152 186.003 153.046 Q186.003 145.916 184.174 142.375 Q182.368 138.81 178.734 138.81 M178.734 135.106 Q184.544 135.106 187.6 139.713 Q190.678 144.296 190.678 153.046 Q190.678 161.773 187.6 166.379 Q184.544 170.963 178.734 170.963 Q172.924 170.963 169.845 166.379 Q166.79 161.773 166.79 153.046 Q166.79 144.296 169.845 139.713 Q172.924 135.106 178.734 135.106 Z" fill="#000000" fill-rule="nonzero" fill-opacity="1" /><path clip-path="url(#clip200)" d="M198.896 164.412 L203.78 164.412 L203.78 170.291 L198.896 170.291 L198.896 164.412 Z" fill="#000000" fill-rule="nonzero" fill-opacity="1" /><path clip-path="url(#clip200)" d="M212.785 135.731 L235.007 135.731 L235.007 137.722 L222.461 170.291 L217.576 170.291 L229.382 139.666 L212.785 139.666 L212.785 135.731 Z" fill="#000000" fill-rule="nonzero" fill-opacity="1" /><path clip-path="url(#clip200)" d="M244.173 135.731 L262.53 135.731 L262.53 139.666 L248.456 139.666 L248.456 148.139 Q249.474 147.791 250.493 147.629 Q251.511 147.444 252.53 147.444 Q258.317 147.444 261.697 150.615 Q265.076 153.787 265.076 159.203 Q265.076 164.782 261.604 167.884 Q258.132 170.963 251.812 170.963 Q249.636 170.963 247.368 170.592 Q245.123 170.222 242.715 169.481 L242.715 164.782 Q244.798 165.916 247.021 166.472 Q249.243 167.027 251.72 167.027 Q255.724 167.027 258.062 164.921 Q260.4 162.814 260.4 159.203 Q260.4 155.592 258.062 153.486 Q255.724 151.379 251.72 151.379 Q249.845 151.379 247.97 151.796 Q246.118 152.213 244.173 153.092 L244.173 135.731 Z" fill="#000000" fill-rule="nonzero" fill-opacity="1" /><path clip-path="url(#clip200)" d="M168.549 114.91 L176.188 114.91 L176.188 88.5448 L167.878 90.2115 L167.878 85.9523 L176.141 84.2856 L180.817 84.2856 L180.817 114.91 L188.456 114.91 L188.456 118.846 L168.549 118.846 L168.549 114.91 Z" fill="#000000" fill-rule="nonzero" fill-opacity="1" /><path clip-path="url(#clip200)" d="M197.901 112.966 L202.785 112.966 L202.785 118.846 L197.901 118.846 L197.901 112.966 Z" fill="#000000" fill-rule="nonzero" fill-opacity="1" /><path clip-path="url(#clip200)" d="M222.97 87.3643 Q219.359 87.3643 217.53 90.9291 Q215.725 94.4707 215.725 101.6 Q215.725 108.707 217.53 112.272 Q219.359 115.813 222.97 115.813 Q226.604 115.813 228.41 112.272 Q230.238 108.707 230.238 101.6 Q230.238 94.4707 228.41 90.9291 Q226.604 87.3643 222.97 87.3643 M222.97 83.6606 Q228.78 83.6606 231.836 88.2671 Q234.914 92.8504 234.914 101.6 Q234.914 110.327 231.836 114.934 Q228.78 119.517 222.97 119.517 Q217.16 119.517 214.081 114.934 Q211.026 110.327 211.026 101.6 Q211.026 92.8504 214.081 88.2671 Q217.16 83.6606 222.97 83.6606 Z" fill="#000000" fill-rule="nonzero" fill-opacity="1" /><path clip-path="url(#clip200)" d="M253.132 87.3643 Q249.521 87.3643 247.692 90.9291 Q245.886 94.4707 245.886 101.6 Q245.886 108.707 247.692 112.272 Q249.521 115.813 253.132 115.813 Q256.766 115.813 258.572 112.272 Q260.4 108.707 260.4 101.6 Q260.4 94.4707 258.572 90.9291 Q256.766 87.3643 253.132 87.3643 M253.132 83.6606 Q258.942 83.6606 261.997 88.2671 Q265.076 92.8504 265.076 101.6 Q265.076 110.327 261.997 114.934 Q258.942 119.517 253.132 119.517 Q247.322 119.517 244.243 114.934 Q241.187 110.327 241.187 101.6 Q241.187 92.8504 244.243 88.2671 Q247.322 83.6606 253.132 83.6606 Z" fill="#000000" fill-rule="nonzero" fill-opacity="1" /><path clip-path="url(#clip200)" d="M88.6596 213.441 Q94.5334 213.441 97.8899 211.04 Q101.217 208.609 101.217 204.385 Q101.217 200.16 97.8899 197.73 Q94.5334 195.299 88.6596 195.299 Q82.7858 195.299 79.4583 197.73 Q76.1018 200.16 76.1018 204.385 Q76.1018 208.609 79.4583 211.04 Q82.7858 213.441 88.6596 213.441 M99.9732 195.299 Q102.867 196.977 104.285 199.552 Q105.673 202.099 105.673 205.687 Q105.673 211.56 100.986 215.264 Q96.2984 218.939 88.6596 218.939 Q81.0207 218.939 76.3333 215.264 Q71.6458 211.56 71.6458 205.687 Q71.6458 202.099 73.0636 199.552 Q74.4525 196.977 77.346 195.299 L72.427 195.299 L72.427 189.975 L117.161 189.975 L117.161 195.299 L99.9732 195.299 Z" fill="#000000" fill-rule="nonzero" fill-opacity="1" /><path clip-path="url(#clip200)" d="M1684.07 20.3876 L1684.07 25.4223 Q1681.82 24.2649 1679.39 23.6862 Q1676.96 23.1075 1674.35 23.1075 Q1670.39 23.1075 1668.39 24.3228 Q1666.42 25.5381 1666.42 27.9686 Q1666.42 29.8204 1667.84 30.891 Q1669.26 31.9327 1673.54 32.8876 L1675.36 33.2926 Q1681.04 34.5079 1683.41 36.7359 Q1685.81 38.935 1685.81 42.8991 Q1685.81 47.4129 1682.22 50.046 Q1678.66 52.6791 1672.41 52.6791 Q1669.81 52.6791 1666.97 52.1583 Q1664.17 51.6664 1661.04 50.6537 L1661.04 45.156 Q1663.99 46.6896 1666.86 47.4708 Q1669.72 48.2231 1672.53 48.2231 Q1676.29 48.2231 1678.32 46.95 Q1680.34 45.6479 1680.34 43.3042 Q1680.34 41.134 1678.87 39.9766 Q1677.42 38.8192 1672.47 37.7486 L1670.62 37.3146 Q1665.67 36.273 1663.47 34.1318 Q1661.27 31.9616 1661.27 28.2001 Q1661.27 23.6283 1664.51 21.1399 Q1667.75 18.6515 1673.71 18.6515 Q1676.67 18.6515 1679.27 19.0855 Q1681.87 19.5196 1684.07 20.3876 Z" fill="#000000" fill-rule="nonzero" fill-opacity="1" /><path clip-path="url(#clip200)" d="M1699.55 10.2314 L1699.55 19.4328 L1710.52 19.4328 L1710.52 23.5705 L1699.55 23.5705 L1699.55 41.163 Q1699.55 45.1271 1700.62 46.2555 Q1701.72 47.384 1705.05 47.384 L1710.52 47.384 L1710.52 51.84 L1705.05 51.84 Q1698.89 51.84 1696.54 49.5541 Q1694.2 47.2393 1694.2 41.163 L1694.2 23.5705 L1690.29 23.5705 L1690.29 19.4328 L1694.2 19.4328 L1694.2 10.2314 L1699.55 10.2314 Z" fill="#000000" fill-rule="nonzero" fill-opacity="1" /><path clip-path="url(#clip200)" d="M1732.25 35.5496 Q1725.8 35.5496 1723.31 37.0253 Q1720.82 38.501 1720.82 42.06 Q1720.82 44.8956 1722.67 46.5738 Q1724.55 48.2231 1727.77 48.2231 Q1732.19 48.2231 1734.85 45.0981 Q1737.55 41.9442 1737.55 36.7359 L1737.55 35.5496 L1732.25 35.5496 M1742.87 33.3505 L1742.87 51.84 L1737.55 51.84 L1737.55 46.921 Q1735.72 49.8724 1733 51.2902 Q1730.28 52.6791 1726.35 52.6791 Q1721.37 52.6791 1718.42 49.9014 Q1715.5 47.0947 1715.5 42.4072 Q1715.5 36.9385 1719.14 34.1607 Q1722.82 31.3829 1730.08 31.3829 L1737.55 31.3829 L1737.55 30.8621 Q1737.55 27.1874 1735.12 25.1908 Q1732.71 23.1654 1728.34 23.1654 Q1725.57 23.1654 1722.93 23.8309 Q1720.3 24.4964 1717.87 25.8274 L1717.87 20.9085 Q1720.79 19.78 1723.54 19.2302 Q1726.29 18.6515 1728.89 18.6515 Q1735.93 18.6515 1739.4 22.2973 Q1742.87 25.9431 1742.87 33.3505 Z" fill="#000000" fill-rule="nonzero" fill-opacity="1" /><path clip-path="url(#clip200)" d="M1759.1 10.2314 L1759.1 19.4328 L1770.07 19.4328 L1770.07 23.5705 L1759.1 23.5705 L1759.1 41.163 Q1759.1 45.1271 1760.17 46.2555 Q1761.27 47.384 1764.6 47.384 L1770.07 47.384 L1770.07 51.84 L1764.6 51.84 Q1758.44 51.84 1756.09 49.5541 Q1753.75 47.2393 1753.75 41.163 L1753.75 23.5705 L1749.84 23.5705 L1749.84 19.4328 L1753.75 19.4328 L1753.75 10.2314 L1759.1 10.2314 Z" fill="#000000" fill-rule="nonzero" fill-opacity="1" /><path clip-path="url(#clip200)" d="M1804.79 34.3054 L1804.79 36.9095 L1780.31 36.9095 Q1780.66 42.4072 1783.61 45.3007 Q1786.59 48.1653 1791.89 48.1653 Q1794.95 48.1653 1797.82 47.4129 Q1800.71 46.6606 1803.55 45.156 L1803.55 50.1907 Q1800.68 51.406 1797.67 52.0425 Q1794.66 52.6791 1791.57 52.6791 Q1783.81 52.6791 1779.27 48.1653 Q1774.76 43.6514 1774.76 35.9547 Q1774.76 27.9975 1779.04 23.339 Q1783.35 18.6515 1790.64 18.6515 Q1797.18 18.6515 1800.97 22.876 Q1804.79 27.0716 1804.79 34.3054 M1799.47 32.7429 Q1799.41 28.3737 1797.01 25.7695 Q1794.63 23.1654 1790.7 23.1654 Q1786.24 23.1654 1783.55 25.6827 Q1780.89 28.2001 1780.49 32.7718 L1799.47 32.7429 Z" fill="#000000" fill-rule="nonzero" fill-opacity="1" /><polyline clip-path="url(#clip202)" style="stroke:#009af9; stroke-linecap:round; stroke-linejoin:round; stroke-width:8; stroke-opacity:1; fill:none" points="393.444,101.566 527.392,102.283 661.339,104.409 795.286,107.884 929.233,112.65 1063.18,118.644 1197.13,125.802 1331.07,134.055 1465.02,143.336 1598.97,153.573 1732.92,164.692 1866.86,176.62 2000.81,189.279 2134.76,202.593 2268.7,216.482 2402.65,230.865 2536.6,245.663 2670.55,260.793 2804.49,276.172 2938.44,291.719 3072.39,307.348 "/>
<polyline clip-path="url(#clip202)" style="stroke:#000000; stroke-linecap:round; stroke-linejoin:round; stroke-width:4; stroke-opacity:1; fill:none" stroke-dasharray="16, 10" points="393.444,531.651 393.444,-122.737 "/>
<polyline clip-path="url(#clip202)" style="stroke:#000000; stroke-linecap:round; stroke-linejoin:round; stroke-width:4; stroke-opacity:1; fill:none" stroke-dasharray="16, 10" points="3072.39,531.651 3072.39,-122.737 "/>
<path clip-path="url(#clip200)" d="M407.732 306.251 L823.482 306.251 L823.482 202.571 L407.732 202.571  Z" fill="#ffffff" fill-rule="evenodd" fill-opacity="1"/>
<polyline clip-path="url(#clip200)" style="stroke:#000000; stroke-linecap:round; stroke-linejoin:round; stroke-width:4; stroke-opacity:1; fill:none" points="407.732,306.251 823.482,306.251 823.482,202.571 407.732,202.571 407.732,306.251 "/>
<polyline clip-path="url(#clip200)" style="stroke:#009af9; stroke-linecap:round; stroke-linejoin:round; stroke-width:8; stroke-opacity:1; fill:none" points="439.284,254.411 628.596,254.411 "/>
<path clip-path="url(#clip200)" d="M679.06 249.7 L679.06 235.672 L683.319 235.672 L683.319 271.691 L679.06 271.691 L679.06 267.802 Q677.717 270.117 675.657 271.251 Q673.62 272.362 670.75 272.362 Q666.051 272.362 663.088 268.612 Q660.148 264.862 660.148 258.751 Q660.148 252.64 663.088 248.89 Q666.051 245.14 670.75 245.14 Q673.62 245.14 675.657 246.274 Q677.717 247.385 679.06 249.7 M664.546 258.751 Q664.546 263.45 666.468 266.135 Q668.412 268.797 671.792 268.797 Q675.171 268.797 677.116 266.135 Q679.06 263.45 679.06 258.751 Q679.06 254.052 677.116 251.39 Q675.171 248.705 671.792 248.705 Q668.412 248.705 666.468 251.39 Q664.546 254.052 664.546 258.751 Z" fill="#000000" fill-rule="nonzero" fill-opacity="1" /><path clip-path="url(#clip200)" d="M692.092 245.765 L696.352 245.765 L696.352 271.691 L692.092 271.691 L692.092 245.765 M692.092 235.672 L696.352 235.672 L696.352 241.066 L692.092 241.066 L692.092 235.672 Z" fill="#000000" fill-rule="nonzero" fill-opacity="1" /><path clip-path="url(#clip200)" d="M720.287 249.746 Q719.569 249.33 718.713 249.145 Q717.879 248.936 716.861 248.936 Q713.25 248.936 711.305 251.297 Q709.384 253.635 709.384 258.033 L709.384 271.691 L705.102 271.691 L705.102 245.765 L709.384 245.765 L709.384 249.793 Q710.727 247.432 712.879 246.297 Q715.032 245.14 718.111 245.14 Q718.551 245.14 719.083 245.209 Q719.615 245.256 720.264 245.371 L720.287 249.746 Z" fill="#000000" fill-rule="nonzero" fill-opacity="1" /><path clip-path="url(#clip200)" d="M745.888 257.663 L745.888 259.746 L726.305 259.746 Q726.583 264.144 728.944 266.459 Q731.328 268.751 735.564 268.751 Q738.018 268.751 740.31 268.149 Q742.625 267.547 744.893 266.344 L744.893 270.371 Q742.601 271.343 740.194 271.853 Q737.787 272.362 735.31 272.362 Q729.106 272.362 725.472 268.751 Q721.861 265.14 721.861 258.982 Q721.861 252.617 725.287 248.89 Q728.736 245.14 734.569 245.14 Q739.8 245.14 742.833 248.52 Q745.888 251.876 745.888 257.663 M741.629 256.413 Q741.583 252.918 739.662 250.834 Q737.763 248.751 734.615 248.751 Q731.051 248.751 728.898 250.765 Q726.768 252.779 726.444 256.436 L741.629 256.413 Z" fill="#000000" fill-rule="nonzero" fill-opacity="1" /><path clip-path="url(#clip200)" d="M771.536 246.76 L771.536 250.742 Q769.731 249.746 767.902 249.26 Q766.097 248.751 764.245 248.751 Q760.101 248.751 757.81 251.39 Q755.518 254.006 755.518 258.751 Q755.518 263.496 757.81 266.135 Q760.101 268.751 764.245 268.751 Q766.097 268.751 767.902 268.265 Q769.731 267.756 771.536 266.76 L771.536 270.695 Q769.754 271.529 767.833 271.945 Q765.935 272.362 763.782 272.362 Q757.925 272.362 754.476 268.681 Q751.027 265.001 751.027 258.751 Q751.027 252.408 754.499 248.774 Q757.995 245.14 764.06 245.14 Q766.027 245.14 767.902 245.557 Q769.777 245.95 771.536 246.76 Z" fill="#000000" fill-rule="nonzero" fill-opacity="1" /><path clip-path="url(#clip200)" d="M783.157 238.404 L783.157 245.765 L791.93 245.765 L791.93 249.075 L783.157 249.075 L783.157 263.149 Q783.157 266.32 784.013 267.223 Q784.893 268.126 787.555 268.126 L791.93 268.126 L791.93 271.691 L787.555 271.691 Q782.624 271.691 780.749 269.862 Q778.874 268.01 778.874 263.149 L778.874 249.075 L775.749 249.075 L775.749 245.765 L778.874 245.765 L778.874 238.404 L783.157 238.404 Z" fill="#000000" fill-rule="nonzero" fill-opacity="1" /><path clip-path="url(#clip200)" d="M313.076 746.8 L3152.76 746.8 L3152.76 528.67 L313.076 528.67  Z" fill="#ffffff" fill-rule="evenodd" fill-opacity="1"/>
<defs>
  <clipPath id="clip203">
    <rect x="313" y="528" width="2841" height="219"/>
  </clipPath>
</defs>
<polyline clip-path="url(#clip203)" style="stroke:#000000; stroke-linecap:round; stroke-linejoin:round; stroke-width:2; stroke-opacity:0.1; fill:none" points="393.444,746.8 393.444,528.67 "/>
<polyline clip-path="url(#clip203)" style="stroke:#000000; stroke-linecap:round; stroke-linejoin:round; stroke-width:2; stroke-opacity:0.1; fill:none" points="1063.18,746.8 1063.18,528.67 "/>
<polyline clip-path="url(#clip203)" style="stroke:#000000; stroke-linecap:round; stroke-linejoin:round; stroke-width:2; stroke-opacity:0.1; fill:none" points="1732.92,746.8 1732.92,528.67 "/>
<polyline clip-path="url(#clip203)" style="stroke:#000000; stroke-linecap:round; stroke-linejoin:round; stroke-width:2; stroke-opacity:0.1; fill:none" points="2402.65,746.8 2402.65,528.67 "/>
<polyline clip-path="url(#clip203)" style="stroke:#000000; stroke-linecap:round; stroke-linejoin:round; stroke-width:2; stroke-opacity:0.1; fill:none" points="3072.39,746.8 3072.39,528.67 "/>
<polyline clip-path="url(#clip203)" style="stroke:#000000; stroke-linecap:round; stroke-linejoin:round; stroke-width:2; stroke-opacity:0.1; fill:none" points="313.076,737.775 3152.76,737.775 "/>
<polyline clip-path="url(#clip203)" style="stroke:#000000; stroke-linecap:round; stroke-linejoin:round; stroke-width:2; stroke-opacity:0.1; fill:none" points="313.076,670.131 3152.76,670.131 "/>
<polyline clip-path="url(#clip203)" style="stroke:#000000; stroke-linecap:round; stroke-linejoin:round; stroke-width:2; stroke-opacity:0.1; fill:none" points="313.076,602.487 3152.76,602.487 "/>
<polyline clip-path="url(#clip203)" style="stroke:#000000; stroke-linecap:round; stroke-linejoin:round; stroke-width:2; stroke-opacity:0.1; fill:none" points="313.076,534.844 3152.76,534.844 "/>
<polyline clip-path="url(#clip200)" style="stroke:#000000; stroke-linecap:round; stroke-linejoin:round; stroke-width:4; stroke-opacity:1; fill:none" points="313.076,746.8 3152.76,746.8 "/>
<polyline clip-path="url(#clip200)" style="stroke:#000000; stroke-linecap:round; stroke-linejoin:round; stroke-width:4; stroke-opacity:1; fill:none" points="393.444,746.8 393.444,727.902 "/>
<polyline clip-path="url(#clip200)" style="stroke:#000000; stroke-linecap:round; stroke-linejoin:round; stroke-width:4; stroke-opacity:1; fill:none" points="1063.18,746.8 1063.18,727.902 "/>
<polyline clip-path="url(#clip200)" style="stroke:#000000; stroke-linecap:round; stroke-linejoin:round; stroke-width:4; stroke-opacity:1; fill:none" points="1732.92,746.8 1732.92,727.902 "/>
<polyline clip-path="url(#clip200)" style="stroke:#000000; stroke-linecap:round; stroke-linejoin:round; stroke-width:4; stroke-opacity:1; fill:none" points="2402.65,746.8 2402.65,727.902 "/>
<polyline clip-path="url(#clip200)" style="stroke:#000000; stroke-linecap:round; stroke-linejoin:round; stroke-width:4; stroke-opacity:1; fill:none" points="3072.39,746.8 3072.39,727.902 "/>
<path clip-path="url(#clip200)" d="M355.748 784.118 Q352.137 784.118 350.308 787.683 Q348.503 791.225 348.503 798.354 Q348.503 805.461 350.308 809.026 Q352.137 812.567 355.748 812.567 Q359.382 812.567 361.188 809.026 Q363.016 805.461 363.016 798.354 Q363.016 791.225 361.188 787.683 Q359.382 784.118 355.748 784.118 M355.748 780.415 Q361.558 780.415 364.614 785.021 Q367.692 789.604 367.692 798.354 Q367.692 807.081 364.614 811.688 Q361.558 816.271 355.748 816.271 Q349.938 816.271 346.859 811.688 Q343.804 807.081 343.804 798.354 Q343.804 789.604 346.859 785.021 Q349.938 780.415 355.748 780.415 Z" fill="#000000" fill-rule="nonzero" fill-opacity="1" /><path clip-path="url(#clip200)" d="M375.91 809.72 L380.794 809.72 L380.794 815.6 L375.91 815.6 L375.91 809.72 Z" fill="#000000" fill-rule="nonzero" fill-opacity="1" /><path clip-path="url(#clip200)" d="M400.979 784.118 Q397.368 784.118 395.539 787.683 Q393.734 791.225 393.734 798.354 Q393.734 805.461 395.539 809.026 Q397.368 812.567 400.979 812.567 Q404.613 812.567 406.419 809.026 Q408.248 805.461 408.248 798.354 Q408.248 791.225 406.419 787.683 Q404.613 784.118 400.979 784.118 M400.979 780.415 Q406.789 780.415 409.845 785.021 Q412.924 789.604 412.924 798.354 Q412.924 807.081 409.845 811.688 Q406.789 816.271 400.979 816.271 Q395.169 816.271 392.09 811.688 Q389.035 807.081 389.035 798.354 Q389.035 789.604 392.09 785.021 Q395.169 780.415 400.979 780.415 Z" fill="#000000" fill-rule="nonzero" fill-opacity="1" /><path clip-path="url(#clip200)" d="M431.141 784.118 Q427.53 784.118 425.701 787.683 Q423.896 791.225 423.896 798.354 Q423.896 805.461 425.701 809.026 Q427.53 812.567 431.141 812.567 Q434.775 812.567 436.581 809.026 Q438.409 805.461 438.409 798.354 Q438.409 791.225 436.581 787.683 Q434.775 784.118 431.141 784.118 M431.141 780.415 Q436.951 780.415 440.007 785.021 Q443.085 789.604 443.085 798.354 Q443.085 807.081 440.007 811.688 Q436.951 816.271 431.141 816.271 Q425.331 816.271 422.252 811.688 Q419.197 807.081 419.197 798.354 Q419.197 789.604 422.252 785.021 Q425.331 780.415 431.141 780.415 Z" fill="#000000" fill-rule="nonzero" fill-opacity="1" /><path clip-path="url(#clip200)" d="M1025.98 784.118 Q1022.37 784.118 1020.54 787.683 Q1018.74 791.225 1018.74 798.354 Q1018.74 805.461 1020.54 809.026 Q1022.37 812.567 1025.98 812.567 Q1029.62 812.567 1031.42 809.026 Q1033.25 805.461 1033.25 798.354 Q1033.25 791.225 1031.42 787.683 Q1029.62 784.118 1025.98 784.118 M1025.98 780.415 Q1031.79 780.415 1034.85 785.021 Q1037.93 789.604 1037.93 798.354 Q1037.93 807.081 1034.85 811.688 Q1031.79 816.271 1025.98 816.271 Q1020.17 816.271 1017.09 811.688 Q1014.04 807.081 1014.04 798.354 Q1014.04 789.604 1017.09 785.021 Q1020.17 780.415 1025.98 780.415 Z" fill="#000000" fill-rule="nonzero" fill-opacity="1" /><path clip-path="url(#clip200)" d="M1046.14 809.72 L1051.03 809.72 L1051.03 815.6 L1046.14 815.6 L1046.14 809.72 Z" fill="#000000" fill-rule="nonzero" fill-opacity="1" /><path clip-path="url(#clip200)" d="M1065.24 811.664 L1081.56 811.664 L1081.56 815.6 L1059.62 815.6 L1059.62 811.664 Q1062.28 808.91 1066.86 804.28 Q1071.47 799.627 1072.65 798.285 Q1074.89 795.762 1075.77 794.026 Q1076.68 792.266 1076.68 790.577 Q1076.68 787.822 1074.73 786.086 Q1072.81 784.35 1069.71 784.35 Q1067.51 784.35 1065.06 785.114 Q1062.62 785.878 1059.85 787.428 L1059.85 782.706 Q1062.67 781.572 1065.12 780.993 Q1067.58 780.415 1069.62 780.415 Q1074.99 780.415 1078.18 783.1 Q1081.37 785.785 1081.37 790.276 Q1081.37 792.405 1080.56 794.327 Q1079.78 796.225 1077.67 798.817 Q1077.09 799.489 1073.99 802.706 Q1070.89 805.901 1065.24 811.664 Z" fill="#000000" fill-rule="nonzero" fill-opacity="1" /><path clip-path="url(#clip200)" d="M1091.42 781.04 L1109.78 781.04 L1109.78 784.975 L1095.7 784.975 L1095.7 793.447 Q1096.72 793.1 1097.74 792.938 Q1098.76 792.752 1099.78 792.752 Q1105.56 792.752 1108.94 795.924 Q1112.32 799.095 1112.32 804.512 Q1112.32 810.09 1108.85 813.192 Q1105.38 816.271 1099.06 816.271 Q1096.88 816.271 1094.62 815.901 Q1092.37 815.53 1089.96 814.789 L1089.96 810.09 Q1092.05 811.225 1094.27 811.78 Q1096.49 812.336 1098.97 812.336 Q1102.97 812.336 1105.31 810.229 Q1107.65 808.123 1107.65 804.512 Q1107.65 800.901 1105.31 798.794 Q1102.97 796.688 1098.97 796.688 Q1097.09 796.688 1095.22 797.104 Q1093.37 797.521 1091.42 798.401 L1091.42 781.04 Z" fill="#000000" fill-rule="nonzero" fill-opacity="1" /><path clip-path="url(#clip200)" d="M1695.22 784.118 Q1691.61 784.118 1689.78 787.683 Q1687.97 791.225 1687.97 798.354 Q1687.97 805.461 1689.78 809.026 Q1691.61 812.567 1695.22 812.567 Q1698.85 812.567 1700.66 809.026 Q1702.49 805.461 1702.49 798.354 Q1702.49 791.225 1700.66 787.683 Q1698.85 784.118 1695.22 784.118 M1695.22 780.415 Q1701.03 780.415 1704.09 785.021 Q1707.16 789.604 1707.16 798.354 Q1707.16 807.081 1704.09 811.688 Q1701.03 816.271 1695.22 816.271 Q1689.41 816.271 1686.33 811.688 Q1683.28 807.081 1683.28 798.354 Q1683.28 789.604 1686.33 785.021 Q1689.41 780.415 1695.22 780.415 Z" fill="#000000" fill-rule="nonzero" fill-opacity="1" /><path clip-path="url(#clip200)" d="M1715.38 809.72 L1720.27 809.72 L1720.27 815.6 L1715.38 815.6 L1715.38 809.72 Z" fill="#000000" fill-rule="nonzero" fill-opacity="1" /><path clip-path="url(#clip200)" d="M1730.5 781.04 L1748.85 781.04 L1748.85 784.975 L1734.78 784.975 L1734.78 793.447 Q1735.8 793.1 1736.82 792.938 Q1737.83 792.752 1738.85 792.752 Q1744.64 792.752 1748.02 795.924 Q1751.4 799.095 1751.4 804.512 Q1751.4 810.09 1747.93 813.192 Q1744.46 816.271 1738.14 816.271 Q1735.96 816.271 1733.69 815.901 Q1731.45 815.53 1729.04 814.789 L1729.04 810.09 Q1731.12 811.225 1733.34 811.78 Q1735.57 812.336 1738.04 812.336 Q1742.05 812.336 1744.39 810.229 Q1746.72 808.123 1746.72 804.512 Q1746.72 800.901 1744.39 798.794 Q1742.05 796.688 1738.04 796.688 Q1736.17 796.688 1734.29 797.104 Q1732.44 797.521 1730.5 798.401 L1730.5 781.04 Z" fill="#000000" fill-rule="nonzero" fill-opacity="1" /><path clip-path="url(#clip200)" d="M1770.61 784.118 Q1767 784.118 1765.17 787.683 Q1763.37 791.225 1763.37 798.354 Q1763.37 805.461 1765.17 809.026 Q1767 812.567 1770.61 812.567 Q1774.25 812.567 1776.05 809.026 Q1777.88 805.461 1777.88 798.354 Q1777.88 791.225 1776.05 787.683 Q1774.25 784.118 1770.61 784.118 M1770.61 780.415 Q1776.42 780.415 1779.48 785.021 Q1782.56 789.604 1782.56 798.354 Q1782.56 807.081 1779.48 811.688 Q1776.42 816.271 1770.61 816.271 Q1764.8 816.271 1761.72 811.688 Q1758.67 807.081 1758.67 798.354 Q1758.67 789.604 1761.72 785.021 Q1764.8 780.415 1770.61 780.415 Z" fill="#000000" fill-rule="nonzero" fill-opacity="1" /><path clip-path="url(#clip200)" d="M2365.45 784.118 Q2361.84 784.118 2360.01 787.683 Q2358.21 791.225 2358.21 798.354 Q2358.21 805.461 2360.01 809.026 Q2361.84 812.567 2365.45 812.567 Q2369.09 812.567 2370.89 809.026 Q2372.72 805.461 2372.72 798.354 Q2372.72 791.225 2370.89 787.683 Q2369.09 784.118 2365.45 784.118 M2365.45 780.415 Q2371.26 780.415 2374.32 785.021 Q2377.4 789.604 2377.4 798.354 Q2377.4 807.081 2374.32 811.688 Q2371.26 816.271 2365.45 816.271 Q2359.64 816.271 2356.56 811.688 Q2353.51 807.081 2353.51 798.354 Q2353.51 789.604 2356.56 785.021 Q2359.64 780.415 2365.45 780.415 Z" fill="#000000" fill-rule="nonzero" fill-opacity="1" /><path clip-path="url(#clip200)" d="M2385.61 809.72 L2390.5 809.72 L2390.5 815.6 L2385.61 815.6 L2385.61 809.72 Z" fill="#000000" fill-rule="nonzero" fill-opacity="1" /><path clip-path="url(#clip200)" d="M2399.5 781.04 L2421.73 781.04 L2421.73 783.03 L2409.18 815.6 L2404.3 815.6 L2416.1 784.975 L2399.5 784.975 L2399.5 781.04 Z" fill="#000000" fill-rule="nonzero" fill-opacity="1" /><path clip-path="url(#clip200)" d="M2430.89 781.04 L2449.25 781.04 L2449.25 784.975 L2435.17 784.975 L2435.17 793.447 Q2436.19 793.1 2437.21 792.938 Q2438.23 792.752 2439.25 792.752 Q2445.04 792.752 2448.42 795.924 Q2451.8 799.095 2451.8 804.512 Q2451.8 810.09 2448.32 813.192 Q2444.85 816.271 2438.53 816.271 Q2436.36 816.271 2434.09 815.901 Q2431.84 815.53 2429.43 814.789 L2429.43 810.09 Q2431.52 811.225 2433.74 811.78 Q2435.96 812.336 2438.44 812.336 Q2442.44 812.336 2444.78 810.229 Q2447.12 808.123 2447.12 804.512 Q2447.12 800.901 2444.78 798.794 Q2442.44 796.688 2438.44 796.688 Q2436.56 796.688 2434.69 797.104 Q2432.84 797.521 2430.89 798.401 L2430.89 781.04 Z" fill="#000000" fill-rule="nonzero" fill-opacity="1" /><path clip-path="url(#clip200)" d="M3024.46 811.664 L3032.1 811.664 L3032.1 785.299 L3023.79 786.965 L3023.79 782.706 L3032.05 781.04 L3036.73 781.04 L3036.73 811.664 L3044.37 811.664 L3044.37 815.6 L3024.46 815.6 L3024.46 811.664 Z" fill="#000000" fill-rule="nonzero" fill-opacity="1" /><path clip-path="url(#clip200)" d="M3053.81 809.72 L3058.7 809.72 L3058.7 815.6 L3053.81 815.6 L3053.81 809.72 Z" fill="#000000" fill-rule="nonzero" fill-opacity="1" /><path clip-path="url(#clip200)" d="M3078.88 784.118 Q3075.27 784.118 3073.44 787.683 Q3071.64 791.225 3071.64 798.354 Q3071.64 805.461 3073.44 809.026 Q3075.27 812.567 3078.88 812.567 Q3082.51 812.567 3084.32 809.026 Q3086.15 805.461 3086.15 798.354 Q3086.15 791.225 3084.32 787.683 Q3082.51 784.118 3078.88 784.118 M3078.88 780.415 Q3084.69 780.415 3087.75 785.021 Q3090.83 789.604 3090.83 798.354 Q3090.83 807.081 3087.75 811.688 Q3084.69 816.271 3078.88 816.271 Q3073.07 816.271 3069.99 811.688 Q3066.94 807.081 3066.94 798.354 Q3066.94 789.604 3069.99 785.021 Q3073.07 780.415 3078.88 780.415 Z" fill="#000000" fill-rule="nonzero" fill-opacity="1" /><path clip-path="url(#clip200)" d="M3109.04 784.118 Q3105.43 784.118 3103.6 787.683 Q3101.8 791.225 3101.8 798.354 Q3101.8 805.461 3103.6 809.026 Q3105.43 812.567 3109.04 812.567 Q3112.68 812.567 3114.48 809.026 Q3116.31 805.461 3116.31 798.354 Q3116.31 791.225 3114.48 787.683 Q3112.68 784.118 3109.04 784.118 M3109.04 780.415 Q3114.85 780.415 3117.91 785.021 Q3120.99 789.604 3120.99 798.354 Q3120.99 807.081 3117.91 811.688 Q3114.85 816.271 3109.04 816.271 Q3103.23 816.271 3100.15 811.688 Q3097.1 807.081 3097.1 798.354 Q3097.1 789.604 3100.15 785.021 Q3103.23 780.415 3109.04 780.415 Z" fill="#000000" fill-rule="nonzero" fill-opacity="1" /><path clip-path="url(#clip200)" d="M1732.06 856.871 L1732.06 866.072 L1743.03 866.072 L1743.03 870.21 L1732.06 870.21 L1732.06 887.803 Q1732.06 891.767 1733.13 892.895 Q1734.23 894.024 1737.56 894.024 L1743.03 894.024 L1743.03 898.48 L1737.56 898.48 Q1731.4 898.48 1729.05 896.194 Q1726.71 893.879 1726.71 887.803 L1726.71 870.21 L1722.8 870.21 L1722.8 866.072 L1726.71 866.072 L1726.71 856.871 L1732.06 856.871 Z" fill="#000000" fill-rule="nonzero" fill-opacity="1" /><polyline clip-path="url(#clip200)" style="stroke:#000000; stroke-linecap:round; stroke-linejoin:round; stroke-width:4; stroke-opacity:1; fill:none" points="313.076,746.8 313.076,528.67 "/>
<polyline clip-path="url(#clip200)" style="stroke:#000000; stroke-linecap:round; stroke-linejoin:round; stroke-width:4; stroke-opacity:1; fill:none" points="313.076,737.775 331.974,737.775 "/>
<polyline clip-path="url(#clip200)" style="stroke:#000000; stroke-linecap:round; stroke-linejoin:round; stroke-width:4; stroke-opacity:1; fill:none" points="313.076,670.131 331.974,670.131 "/>
<polyline clip-path="url(#clip200)" style="stroke:#000000; stroke-linecap:round; stroke-linejoin:round; stroke-width:4; stroke-opacity:1; fill:none" points="313.076,602.487 331.974,602.487 "/>
<polyline clip-path="url(#clip200)" style="stroke:#000000; stroke-linecap:round; stroke-linejoin:round; stroke-width:4; stroke-opacity:1; fill:none" points="313.076,534.844 331.974,534.844 "/>
<path clip-path="url(#clip200)" d="M159.128 738.227 L188.803 738.227 L188.803 742.162 L159.128 742.162 L159.128 738.227 Z" fill="#000000" fill-rule="nonzero" fill-opacity="1" /><path clip-path="url(#clip200)" d="M199.706 751.12 L207.345 751.12 L207.345 724.754 L199.035 726.421 L199.035 722.162 L207.299 720.495 L211.975 720.495 L211.975 751.12 L219.613 751.12 L219.613 755.055 L199.706 755.055 L199.706 751.12 Z" fill="#000000" fill-rule="nonzero" fill-opacity="1" /><path clip-path="url(#clip200)" d="M229.058 749.176 L233.942 749.176 L233.942 755.055 L229.058 755.055 L229.058 749.176 Z" fill="#000000" fill-rule="nonzero" fill-opacity="1" /><path clip-path="url(#clip200)" d="M244.173 720.495 L262.53 720.495 L262.53 724.43 L248.456 724.43 L248.456 732.903 Q249.474 732.555 250.493 732.393 Q251.511 732.208 252.53 732.208 Q258.317 732.208 261.697 735.379 Q265.076 738.551 265.076 743.967 Q265.076 749.546 261.604 752.648 Q258.132 755.726 251.812 755.726 Q249.636 755.726 247.368 755.356 Q245.123 754.986 242.715 754.245 L242.715 749.546 Q244.798 750.68 247.021 751.236 Q249.243 751.791 251.72 751.791 Q255.724 751.791 258.062 749.685 Q260.4 747.578 260.4 743.967 Q260.4 740.356 258.062 738.25 Q255.724 736.143 251.72 736.143 Q249.845 736.143 247.97 736.56 Q246.118 736.977 244.173 737.856 L244.173 720.495 Z" fill="#000000" fill-rule="nonzero" fill-opacity="1" /><path clip-path="url(#clip200)" d="M158.132 670.583 L187.808 670.583 L187.808 674.518 L158.132 674.518 L158.132 670.583 Z" fill="#000000" fill-rule="nonzero" fill-opacity="1" /><path clip-path="url(#clip200)" d="M198.711 683.476 L206.35 683.476 L206.35 657.111 L198.039 658.777 L198.039 654.518 L206.303 652.851 L210.979 652.851 L210.979 683.476 L218.618 683.476 L218.618 687.411 L198.711 687.411 L198.711 683.476 Z" fill="#000000" fill-rule="nonzero" fill-opacity="1" /><path clip-path="url(#clip200)" d="M228.062 681.532 L232.947 681.532 L232.947 687.411 L228.062 687.411 L228.062 681.532 Z" fill="#000000" fill-rule="nonzero" fill-opacity="1" /><path clip-path="url(#clip200)" d="M253.132 655.93 Q249.521 655.93 247.692 659.495 Q245.886 663.036 245.886 670.166 Q245.886 677.272 247.692 680.837 Q249.521 684.379 253.132 684.379 Q256.766 684.379 258.572 680.837 Q260.4 677.272 260.4 670.166 Q260.4 663.036 258.572 659.495 Q256.766 655.93 253.132 655.93 M253.132 652.226 Q258.942 652.226 261.997 656.833 Q265.076 661.416 265.076 670.166 Q265.076 678.893 261.997 683.499 Q258.942 688.083 253.132 688.083 Q247.322 688.083 244.243 683.499 Q241.187 678.893 241.187 670.166 Q241.187 661.416 244.243 656.833 Q247.322 652.226 253.132 652.226 Z" fill="#000000" fill-rule="nonzero" fill-opacity="1" /><path clip-path="url(#clip200)" d="M159.128 602.939 L188.803 602.939 L188.803 606.874 L159.128 606.874 L159.128 602.939 Z" fill="#000000" fill-rule="nonzero" fill-opacity="1" /><path clip-path="url(#clip200)" d="M208.896 588.286 Q205.285 588.286 203.456 591.851 Q201.651 595.393 201.651 602.522 Q201.651 609.629 203.456 613.193 Q205.285 616.735 208.896 616.735 Q212.53 616.735 214.336 613.193 Q216.164 609.629 216.164 602.522 Q216.164 595.393 214.336 591.851 Q212.53 588.286 208.896 588.286 M208.896 584.582 Q214.706 584.582 217.762 589.189 Q220.84 593.772 220.84 602.522 Q220.84 611.249 217.762 615.855 Q214.706 620.439 208.896 620.439 Q203.086 620.439 200.007 615.855 Q196.952 611.249 196.952 602.522 Q196.952 593.772 200.007 589.189 Q203.086 584.582 208.896 584.582 Z" fill="#000000" fill-rule="nonzero" fill-opacity="1" /><path clip-path="url(#clip200)" d="M229.058 613.888 L233.942 613.888 L233.942 619.767 L229.058 619.767 L229.058 613.888 Z" fill="#000000" fill-rule="nonzero" fill-opacity="1" /><path clip-path="url(#clip200)" d="M244.173 585.207 L262.53 585.207 L262.53 589.143 L248.456 589.143 L248.456 597.615 Q249.474 597.268 250.493 597.105 Q251.511 596.92 252.53 596.92 Q258.317 596.92 261.697 600.092 Q265.076 603.263 265.076 608.679 Q265.076 614.258 261.604 617.36 Q258.132 620.439 251.812 620.439 Q249.636 620.439 247.368 620.068 Q245.123 619.698 242.715 618.957 L242.715 614.258 Q244.798 615.392 247.021 615.948 Q249.243 616.504 251.72 616.504 Q255.724 616.504 258.062 614.397 Q260.4 612.291 260.4 608.679 Q260.4 605.068 258.062 602.962 Q255.724 600.855 251.72 600.855 Q249.845 600.855 247.97 601.272 Q246.118 601.689 244.173 602.568 L244.173 585.207 Z" fill="#000000" fill-rule="nonzero" fill-opacity="1" /><path clip-path="url(#clip200)" d="M207.901 520.642 Q204.289 520.642 202.461 524.207 Q200.655 527.749 200.655 534.878 Q200.655 541.985 202.461 545.549 Q204.289 549.091 207.901 549.091 Q211.535 549.091 213.34 545.549 Q215.169 541.985 215.169 534.878 Q215.169 527.749 213.34 524.207 Q211.535 520.642 207.901 520.642 M207.901 516.939 Q213.711 516.939 216.766 521.545 Q219.845 526.128 219.845 534.878 Q219.845 543.605 216.766 548.211 Q213.711 552.795 207.901 552.795 Q202.09 552.795 199.012 548.211 Q195.956 543.605 195.956 534.878 Q195.956 526.128 199.012 521.545 Q202.09 516.939 207.901 516.939 Z" fill="#000000" fill-rule="nonzero" fill-opacity="1" /><path clip-path="url(#clip200)" d="M228.062 546.244 L232.947 546.244 L232.947 552.124 L228.062 552.124 L228.062 546.244 Z" fill="#000000" fill-rule="nonzero" fill-opacity="1" /><path clip-path="url(#clip200)" d="M253.132 520.642 Q249.521 520.642 247.692 524.207 Q245.886 527.749 245.886 534.878 Q245.886 541.985 247.692 545.549 Q249.521 549.091 253.132 549.091 Q256.766 549.091 258.572 545.549 Q260.4 541.985 260.4 534.878 Q260.4 527.749 258.572 524.207 Q256.766 520.642 253.132 520.642 M253.132 516.939 Q258.942 516.939 261.997 521.545 Q265.076 526.128 265.076 534.878 Q265.076 543.605 261.997 548.211 Q258.942 552.795 253.132 552.795 Q247.322 552.795 244.243 548.211 Q241.187 543.605 241.187 534.878 Q241.187 526.128 244.243 521.545 Q247.322 516.939 253.132 516.939 Z" fill="#000000" fill-rule="nonzero" fill-opacity="1" /><path clip-path="url(#clip200)" d="M64.765 653.504 L64.765 647.862 L91.964 637.735 L64.765 627.608 L64.765 621.965 L97.1723 634.118 L97.1723 641.352 L64.765 653.504 Z" fill="#000000" fill-rule="nonzero" fill-opacity="1" /><polyline clip-path="url(#clip203)" style="stroke:#009af9; stroke-linecap:round; stroke-linejoin:round; stroke-width:8; stroke-opacity:1; fill:none" points="393.444,534.844 527.392,553.718 661.339,571.858 795.286,589.227 929.233,605.793 1063.18,621.523 1197.13,636.385 1331.07,650.351 1465.02,663.394 1598.97,675.489 1732.92,686.611 1866.86,696.74 2000.81,705.856 2134.76,713.941 2268.7,720.98 2402.65,726.959 2536.6,731.866 2670.55,735.693 2804.49,738.432 2938.44,740.077 3072.39,740.626 "/>
<polyline clip-path="url(#clip203)" style="stroke:#000000; stroke-linecap:round; stroke-linejoin:round; stroke-width:4; stroke-opacity:1; fill:none" stroke-dasharray="16, 10" points="393.444,964.929 393.444,310.54 "/>
<polyline clip-path="url(#clip203)" style="stroke:#000000; stroke-linecap:round; stroke-linejoin:round; stroke-width:4; stroke-opacity:1; fill:none" stroke-dasharray="16, 10" points="3072.39,964.929 3072.39,310.54 "/>
<path clip-path="url(#clip200)" d="M2642.35 639.621 L3058.1 639.621 L3058.1 535.941 L2642.35 535.941  Z" fill="#ffffff" fill-rule="evenodd" fill-opacity="1"/>
<polyline clip-path="url(#clip200)" style="stroke:#000000; stroke-linecap:round; stroke-linejoin:round; stroke-width:4; stroke-opacity:1; fill:none" points="2642.35,639.621 3058.1,639.621 3058.1,535.941 2642.35,535.941 2642.35,639.621 "/>
<polyline clip-path="url(#clip200)" style="stroke:#009af9; stroke-linecap:round; stroke-linejoin:round; stroke-width:8; stroke-opacity:1; fill:none" points="2673.9,587.781 2863.21,587.781 "/>
<path clip-path="url(#clip200)" d="M2913.68 583.07 L2913.68 569.043 L2917.94 569.043 L2917.94 605.061 L2913.68 605.061 L2913.68 601.172 Q2912.34 603.487 2910.28 604.621 Q2908.24 605.732 2905.37 605.732 Q2900.67 605.732 2897.71 601.982 Q2894.77 598.232 2894.77 592.121 Q2894.77 586.01 2897.71 582.26 Q2900.67 578.51 2905.37 578.51 Q2908.24 578.51 2910.28 579.644 Q2912.34 580.756 2913.68 583.07 M2899.16 592.121 Q2899.16 596.82 2901.09 599.505 Q2903.03 602.168 2906.41 602.168 Q2909.79 602.168 2911.73 599.505 Q2913.68 596.82 2913.68 592.121 Q2913.68 587.422 2911.73 584.76 Q2909.79 582.075 2906.41 582.075 Q2903.03 582.075 2901.09 584.76 Q2899.16 587.422 2899.16 592.121 Z" fill="#000000" fill-rule="nonzero" fill-opacity="1" /><path clip-path="url(#clip200)" d="M2926.71 579.135 L2930.97 579.135 L2930.97 605.061 L2926.71 605.061 L2926.71 579.135 M2926.71 569.043 L2930.97 569.043 L2930.97 574.436 L2926.71 574.436 L2926.71 569.043 Z" fill="#000000" fill-rule="nonzero" fill-opacity="1" /><path clip-path="url(#clip200)" d="M2954.9 583.117 Q2954.19 582.7 2953.33 582.515 Q2952.5 582.307 2951.48 582.307 Q2947.87 582.307 2945.92 584.668 Q2944 587.006 2944 591.404 L2944 605.061 L2939.72 605.061 L2939.72 579.135 L2944 579.135 L2944 583.163 Q2945.34 580.802 2947.5 579.668 Q2949.65 578.51 2952.73 578.51 Q2953.17 578.51 2953.7 578.58 Q2954.23 578.626 2954.88 578.742 L2954.9 583.117 Z" fill="#000000" fill-rule="nonzero" fill-opacity="1" /><path clip-path="url(#clip200)" d="M2980.51 591.033 L2980.51 593.117 L2960.92 593.117 Q2961.2 597.515 2963.56 599.83 Q2965.95 602.121 2970.18 602.121 Q2972.64 602.121 2974.93 601.519 Q2977.24 600.918 2979.51 599.714 L2979.51 603.742 Q2977.22 604.714 2974.81 605.223 Q2972.4 605.732 2969.93 605.732 Q2963.72 605.732 2960.09 602.121 Q2956.48 598.51 2956.48 592.353 Q2956.48 585.987 2959.9 582.26 Q2963.35 578.51 2969.19 578.51 Q2974.42 578.51 2977.45 581.89 Q2980.51 585.246 2980.51 591.033 M2976.25 589.783 Q2976.2 586.288 2974.28 584.205 Q2972.38 582.121 2969.23 582.121 Q2965.67 582.121 2963.52 584.135 Q2961.39 586.149 2961.06 589.806 L2976.25 589.783 Z" fill="#000000" fill-rule="nonzero" fill-opacity="1" /><path clip-path="url(#clip200)" d="M3006.15 580.131 L3006.15 584.112 Q3004.35 583.117 3002.52 582.631 Q3000.71 582.121 2998.86 582.121 Q2994.72 582.121 2992.43 584.76 Q2990.14 587.376 2990.14 592.121 Q2990.14 596.867 2992.43 599.505 Q2994.72 602.121 2998.86 602.121 Q3000.71 602.121 3002.52 601.635 Q3004.35 601.126 3006.15 600.13 L3006.15 604.066 Q3004.37 604.899 3002.45 605.316 Q3000.55 605.732 2998.4 605.732 Q2992.54 605.732 2989.09 602.052 Q2985.65 598.371 2985.65 592.121 Q2985.65 585.779 2989.12 582.144 Q2992.61 578.51 2998.68 578.51 Q3000.65 578.51 3002.52 578.927 Q3004.4 579.32 3006.15 580.131 Z" fill="#000000" fill-rule="nonzero" fill-opacity="1" /><path clip-path="url(#clip200)" d="M3017.77 571.774 L3017.77 579.135 L3026.55 579.135 L3026.55 582.445 L3017.77 582.445 L3017.77 596.519 Q3017.77 599.691 3018.63 600.593 Q3019.51 601.496 3022.17 601.496 L3026.55 601.496 L3026.55 605.061 L3022.17 605.061 Q3017.24 605.061 3015.37 603.232 Q3013.49 601.38 3013.49 596.519 L3013.49 582.445 L3010.37 582.445 L3010.37 579.135 L3013.49 579.135 L3013.49 571.774 L3017.77 571.774 Z" fill="#000000" fill-rule="nonzero" fill-opacity="1" /><path clip-path="url(#clip200)" d="M313.076 1383.95 L3152.76 1383.95 L3152.76 1058.24 L313.076 1058.24  Z" fill="#ffffff" fill-rule="evenodd" fill-opacity="1"/>
<polyline clip-path="url(#clip201)" style="stroke:#000000; stroke-linecap:round; stroke-linejoin:round; stroke-width:2; stroke-opacity:0.1; fill:none" points="393.444,1383.95 393.444,1058.24 "/>
<polyline clip-path="url(#clip201)" style="stroke:#000000; stroke-linecap:round; stroke-linejoin:round; stroke-width:2; stroke-opacity:0.1; fill:none" points="1063.18,1383.95 1063.18,1058.24 "/>
<polyline clip-path="url(#clip201)" style="stroke:#000000; stroke-linecap:round; stroke-linejoin:round; stroke-width:2; stroke-opacity:0.1; fill:none" points="1732.92,1383.95 1732.92,1058.24 "/>
<polyline clip-path="url(#clip201)" style="stroke:#000000; stroke-linecap:round; stroke-linejoin:round; stroke-width:2; stroke-opacity:0.1; fill:none" points="2402.65,1383.95 2402.65,1058.24 "/>
<polyline clip-path="url(#clip201)" style="stroke:#000000; stroke-linecap:round; stroke-linejoin:round; stroke-width:2; stroke-opacity:0.1; fill:none" points="3072.39,1383.95 3072.39,1058.24 "/>
<polyline clip-path="url(#clip201)" style="stroke:#000000; stroke-linecap:round; stroke-linejoin:round; stroke-width:2; stroke-opacity:0.1; fill:none" points="313.076,1326.09 3152.76,1326.09 "/>
<polyline clip-path="url(#clip201)" style="stroke:#000000; stroke-linecap:round; stroke-linejoin:round; stroke-width:2; stroke-opacity:0.1; fill:none" points="313.076,1259.27 3152.76,1259.27 "/>
<polyline clip-path="url(#clip201)" style="stroke:#000000; stroke-linecap:round; stroke-linejoin:round; stroke-width:2; stroke-opacity:0.1; fill:none" points="313.076,1192.44 3152.76,1192.44 "/>
<polyline clip-path="url(#clip201)" style="stroke:#000000; stroke-linecap:round; stroke-linejoin:round; stroke-width:2; stroke-opacity:0.1; fill:none" points="313.076,1125.61 3152.76,1125.61 "/>
<polyline clip-path="url(#clip201)" style="stroke:#000000; stroke-linecap:round; stroke-linejoin:round; stroke-width:2; stroke-opacity:0.1; fill:none" points="313.076,1058.79 3152.76,1058.79 "/>
<polyline clip-path="url(#clip200)" style="stroke:#000000; stroke-linecap:round; stroke-linejoin:round; stroke-width:4; stroke-opacity:1; fill:none" points="313.076,1383.95 3152.76,1383.95 "/>
<polyline clip-path="url(#clip200)" style="stroke:#000000; stroke-linecap:round; stroke-linejoin:round; stroke-width:4; stroke-opacity:1; fill:none" points="393.444,1383.95 393.444,1365.05 "/>
<polyline clip-path="url(#clip200)" style="stroke:#000000; stroke-linecap:round; stroke-linejoin:round; stroke-width:4; stroke-opacity:1; fill:none" points="1063.18,1383.95 1063.18,1365.05 "/>
<polyline clip-path="url(#clip200)" style="stroke:#000000; stroke-linecap:round; stroke-linejoin:round; stroke-width:4; stroke-opacity:1; fill:none" points="1732.92,1383.95 1732.92,1365.05 "/>
<polyline clip-path="url(#clip200)" style="stroke:#000000; stroke-linecap:round; stroke-linejoin:round; stroke-width:4; stroke-opacity:1; fill:none" points="2402.65,1383.95 2402.65,1365.05 "/>
<polyline clip-path="url(#clip200)" style="stroke:#000000; stroke-linecap:round; stroke-linejoin:round; stroke-width:4; stroke-opacity:1; fill:none" points="3072.39,1383.95 3072.39,1365.05 "/>
<path clip-path="url(#clip200)" d="M355.748 1421.27 Q352.137 1421.27 350.308 1424.83 Q348.503 1428.37 348.503 1435.5 Q348.503 1442.61 350.308 1446.17 Q352.137 1449.72 355.748 1449.72 Q359.382 1449.72 361.188 1446.17 Q363.016 1442.61 363.016 1435.5 Q363.016 1428.37 361.188 1424.83 Q359.382 1421.27 355.748 1421.27 M355.748 1417.56 Q361.558 1417.56 364.614 1422.17 Q367.692 1426.75 367.692 1435.5 Q367.692 1444.23 364.614 1448.84 Q361.558 1453.42 355.748 1453.42 Q349.938 1453.42 346.859 1448.84 Q343.804 1444.23 343.804 1435.5 Q343.804 1426.75 346.859 1422.17 Q349.938 1417.56 355.748 1417.56 Z" fill="#000000" fill-rule="nonzero" fill-opacity="1" /><path clip-path="url(#clip200)" d="M375.91 1446.87 L380.794 1446.87 L380.794 1452.75 L375.91 1452.75 L375.91 1446.87 Z" fill="#000000" fill-rule="nonzero" fill-opacity="1" /><path clip-path="url(#clip200)" d="M400.979 1421.27 Q397.368 1421.27 395.539 1424.83 Q393.734 1428.37 393.734 1435.5 Q393.734 1442.61 395.539 1446.17 Q397.368 1449.72 400.979 1449.72 Q404.613 1449.72 406.419 1446.17 Q408.248 1442.61 408.248 1435.5 Q408.248 1428.37 406.419 1424.83 Q404.613 1421.27 400.979 1421.27 M400.979 1417.56 Q406.789 1417.56 409.845 1422.17 Q412.924 1426.75 412.924 1435.5 Q412.924 1444.23 409.845 1448.84 Q406.789 1453.42 400.979 1453.42 Q395.169 1453.42 392.09 1448.84 Q389.035 1444.23 389.035 1435.5 Q389.035 1426.75 392.09 1422.17 Q395.169 1417.56 400.979 1417.56 Z" fill="#000000" fill-rule="nonzero" fill-opacity="1" /><path clip-path="url(#clip200)" d="M431.141 1421.27 Q427.53 1421.27 425.701 1424.83 Q423.896 1428.37 423.896 1435.5 Q423.896 1442.61 425.701 1446.17 Q427.53 1449.72 431.141 1449.72 Q434.775 1449.72 436.581 1446.17 Q438.409 1442.61 438.409 1435.5 Q438.409 1428.37 436.581 1424.83 Q434.775 1421.27 431.141 1421.27 M431.141 1417.56 Q436.951 1417.56 440.007 1422.17 Q443.085 1426.75 443.085 1435.5 Q443.085 1444.23 440.007 1448.84 Q436.951 1453.42 431.141 1453.42 Q425.331 1453.42 422.252 1448.84 Q419.197 1444.23 419.197 1435.5 Q419.197 1426.75 422.252 1422.17 Q425.331 1417.56 431.141 1417.56 Z" fill="#000000" fill-rule="nonzero" fill-opacity="1" /><path clip-path="url(#clip200)" d="M1025.98 1421.27 Q1022.37 1421.27 1020.54 1424.83 Q1018.74 1428.37 1018.74 1435.5 Q1018.74 1442.61 1020.54 1446.17 Q1022.37 1449.72 1025.98 1449.72 Q1029.62 1449.72 1031.42 1446.17 Q1033.25 1442.61 1033.25 1435.5 Q1033.25 1428.37 1031.42 1424.83 Q1029.62 1421.27 1025.98 1421.27 M1025.98 1417.56 Q1031.79 1417.56 1034.85 1422.17 Q1037.93 1426.75 1037.93 1435.5 Q1037.93 1444.23 1034.85 1448.84 Q1031.79 1453.42 1025.98 1453.42 Q1020.17 1453.42 1017.09 1448.84 Q1014.04 1444.23 1014.04 1435.5 Q1014.04 1426.75 1017.09 1422.17 Q1020.17 1417.56 1025.98 1417.56 Z" fill="#000000" fill-rule="nonzero" fill-opacity="1" /><path clip-path="url(#clip200)" d="M1046.14 1446.87 L1051.03 1446.87 L1051.03 1452.75 L1046.14 1452.75 L1046.14 1446.87 Z" fill="#000000" fill-rule="nonzero" fill-opacity="1" /><path clip-path="url(#clip200)" d="M1065.24 1448.81 L1081.56 1448.81 L1081.56 1452.75 L1059.62 1452.75 L1059.62 1448.81 Q1062.28 1446.06 1066.86 1441.43 Q1071.47 1436.78 1072.65 1435.43 Q1074.89 1432.91 1075.77 1431.17 Q1076.68 1429.41 1076.68 1427.72 Q1076.68 1424.97 1074.73 1423.23 Q1072.81 1421.5 1069.71 1421.5 Q1067.51 1421.5 1065.06 1422.26 Q1062.62 1423.03 1059.85 1424.58 L1059.85 1419.85 Q1062.67 1418.72 1065.12 1418.14 Q1067.58 1417.56 1069.62 1417.56 Q1074.99 1417.56 1078.18 1420.25 Q1081.37 1422.93 1081.37 1427.42 Q1081.37 1429.55 1080.56 1431.47 Q1079.78 1433.37 1077.67 1435.97 Q1077.09 1436.64 1073.99 1439.85 Q1070.89 1443.05 1065.24 1448.81 Z" fill="#000000" fill-rule="nonzero" fill-opacity="1" /><path clip-path="url(#clip200)" d="M1091.42 1418.19 L1109.78 1418.19 L1109.78 1422.12 L1095.7 1422.12 L1095.7 1430.6 Q1096.72 1430.25 1097.74 1430.09 Q1098.76 1429.9 1099.78 1429.9 Q1105.56 1429.9 1108.94 1433.07 Q1112.32 1436.24 1112.32 1441.66 Q1112.32 1447.24 1108.85 1450.34 Q1105.38 1453.42 1099.06 1453.42 Q1096.88 1453.42 1094.62 1453.05 Q1092.37 1452.68 1089.96 1451.94 L1089.96 1447.24 Q1092.05 1448.37 1094.27 1448.93 Q1096.49 1449.48 1098.97 1449.48 Q1102.97 1449.48 1105.31 1447.38 Q1107.65 1445.27 1107.65 1441.66 Q1107.65 1438.05 1105.31 1435.94 Q1102.97 1433.84 1098.97 1433.84 Q1097.09 1433.84 1095.22 1434.25 Q1093.37 1434.67 1091.42 1435.55 L1091.42 1418.19 Z" fill="#000000" fill-rule="nonzero" fill-opacity="1" /><path clip-path="url(#clip200)" d="M1695.22 1421.27 Q1691.61 1421.27 1689.78 1424.83 Q1687.97 1428.37 1687.97 1435.5 Q1687.97 1442.61 1689.78 1446.17 Q1691.61 1449.72 1695.22 1449.72 Q1698.85 1449.72 1700.66 1446.17 Q1702.49 1442.61 1702.49 1435.5 Q1702.49 1428.37 1700.66 1424.83 Q1698.85 1421.27 1695.22 1421.27 M1695.22 1417.56 Q1701.03 1417.56 1704.09 1422.17 Q1707.16 1426.75 1707.16 1435.5 Q1707.16 1444.23 1704.09 1448.84 Q1701.03 1453.42 1695.22 1453.42 Q1689.41 1453.42 1686.33 1448.84 Q1683.28 1444.23 1683.28 1435.5 Q1683.28 1426.75 1686.33 1422.17 Q1689.41 1417.56 1695.22 1417.56 Z" fill="#000000" fill-rule="nonzero" fill-opacity="1" /><path clip-path="url(#clip200)" d="M1715.38 1446.87 L1720.27 1446.87 L1720.27 1452.75 L1715.38 1452.75 L1715.38 1446.87 Z" fill="#000000" fill-rule="nonzero" fill-opacity="1" /><path clip-path="url(#clip200)" d="M1730.5 1418.19 L1748.85 1418.19 L1748.85 1422.12 L1734.78 1422.12 L1734.78 1430.6 Q1735.8 1430.25 1736.82 1430.09 Q1737.83 1429.9 1738.85 1429.9 Q1744.64 1429.9 1748.02 1433.07 Q1751.4 1436.24 1751.4 1441.66 Q1751.4 1447.24 1747.93 1450.34 Q1744.46 1453.42 1738.14 1453.42 Q1735.96 1453.42 1733.69 1453.05 Q1731.45 1452.68 1729.04 1451.94 L1729.04 1447.24 Q1731.12 1448.37 1733.34 1448.93 Q1735.57 1449.48 1738.04 1449.48 Q1742.05 1449.48 1744.39 1447.38 Q1746.72 1445.27 1746.72 1441.66 Q1746.72 1438.05 1744.39 1435.94 Q1742.05 1433.84 1738.04 1433.84 Q1736.17 1433.84 1734.29 1434.25 Q1732.44 1434.67 1730.5 1435.55 L1730.5 1418.19 Z" fill="#000000" fill-rule="nonzero" fill-opacity="1" /><path clip-path="url(#clip200)" d="M1770.61 1421.27 Q1767 1421.27 1765.17 1424.83 Q1763.37 1428.37 1763.37 1435.5 Q1763.37 1442.61 1765.17 1446.17 Q1767 1449.72 1770.61 1449.72 Q1774.25 1449.72 1776.05 1446.17 Q1777.88 1442.61 1777.88 1435.5 Q1777.88 1428.37 1776.05 1424.83 Q1774.25 1421.27 1770.61 1421.27 M1770.61 1417.56 Q1776.42 1417.56 1779.48 1422.17 Q1782.56 1426.75 1782.56 1435.5 Q1782.56 1444.23 1779.48 1448.84 Q1776.42 1453.42 1770.61 1453.42 Q1764.8 1453.42 1761.72 1448.84 Q1758.67 1444.23 1758.67 1435.5 Q1758.67 1426.75 1761.72 1422.17 Q1764.8 1417.56 1770.61 1417.56 Z" fill="#000000" fill-rule="nonzero" fill-opacity="1" /><path clip-path="url(#clip200)" d="M2365.45 1421.27 Q2361.84 1421.27 2360.01 1424.83 Q2358.21 1428.37 2358.21 1435.5 Q2358.21 1442.61 2360.01 1446.17 Q2361.84 1449.72 2365.45 1449.72 Q2369.09 1449.72 2370.89 1446.17 Q2372.72 1442.61 2372.72 1435.5 Q2372.72 1428.37 2370.89 1424.83 Q2369.09 1421.27 2365.45 1421.27 M2365.45 1417.56 Q2371.26 1417.56 2374.32 1422.17 Q2377.4 1426.75 2377.4 1435.5 Q2377.4 1444.23 2374.32 1448.84 Q2371.26 1453.42 2365.45 1453.42 Q2359.64 1453.42 2356.56 1448.84 Q2353.51 1444.23 2353.51 1435.5 Q2353.51 1426.75 2356.56 1422.17 Q2359.64 1417.56 2365.45 1417.56 Z" fill="#000000" fill-rule="nonzero" fill-opacity="1" /><path clip-path="url(#clip200)" d="M2385.61 1446.87 L2390.5 1446.87 L2390.5 1452.75 L2385.61 1452.75 L2385.61 1446.87 Z" fill="#000000" fill-rule="nonzero" fill-opacity="1" /><path clip-path="url(#clip200)" d="M2399.5 1418.19 L2421.73 1418.19 L2421.73 1420.18 L2409.18 1452.75 L2404.3 1452.75 L2416.1 1422.12 L2399.5 1422.12 L2399.5 1418.19 Z" fill="#000000" fill-rule="nonzero" fill-opacity="1" /><path clip-path="url(#clip200)" d="M2430.89 1418.19 L2449.25 1418.19 L2449.25 1422.12 L2435.17 1422.12 L2435.17 1430.6 Q2436.19 1430.25 2437.21 1430.09 Q2438.23 1429.9 2439.25 1429.9 Q2445.04 1429.9 2448.42 1433.07 Q2451.8 1436.24 2451.8 1441.66 Q2451.8 1447.24 2448.32 1450.34 Q2444.85 1453.42 2438.53 1453.42 Q2436.36 1453.42 2434.09 1453.05 Q2431.84 1452.68 2429.43 1451.94 L2429.43 1447.24 Q2431.52 1448.37 2433.74 1448.93 Q2435.96 1449.48 2438.44 1449.48 Q2442.44 1449.48 2444.78 1447.38 Q2447.12 1445.27 2447.12 1441.66 Q2447.12 1438.05 2444.78 1435.94 Q2442.44 1433.84 2438.44 1433.84 Q2436.56 1433.84 2434.69 1434.25 Q2432.84 1434.67 2430.89 1435.55 L2430.89 1418.19 Z" fill="#000000" fill-rule="nonzero" fill-opacity="1" /><path clip-path="url(#clip200)" d="M3024.46 1448.81 L3032.1 1448.81 L3032.1 1422.45 L3023.79 1424.11 L3023.79 1419.85 L3032.05 1418.19 L3036.73 1418.19 L3036.73 1448.81 L3044.37 1448.81 L3044.37 1452.75 L3024.46 1452.75 L3024.46 1448.81 Z" fill="#000000" fill-rule="nonzero" fill-opacity="1" /><path clip-path="url(#clip200)" d="M3053.81 1446.87 L3058.7 1446.87 L3058.7 1452.75 L3053.81 1452.75 L3053.81 1446.87 Z" fill="#000000" fill-rule="nonzero" fill-opacity="1" /><path clip-path="url(#clip200)" d="M3078.88 1421.27 Q3075.27 1421.27 3073.44 1424.83 Q3071.64 1428.37 3071.64 1435.5 Q3071.64 1442.61 3073.44 1446.17 Q3075.27 1449.72 3078.88 1449.72 Q3082.51 1449.72 3084.32 1446.17 Q3086.15 1442.61 3086.15 1435.5 Q3086.15 1428.37 3084.32 1424.83 Q3082.51 1421.27 3078.88 1421.27 M3078.88 1417.56 Q3084.69 1417.56 3087.75 1422.17 Q3090.83 1426.75 3090.83 1435.5 Q3090.83 1444.23 3087.75 1448.84 Q3084.69 1453.42 3078.88 1453.42 Q3073.07 1453.42 3069.99 1448.84 Q3066.94 1444.23 3066.94 1435.5 Q3066.94 1426.75 3069.99 1422.17 Q3073.07 1417.56 3078.88 1417.56 Z" fill="#000000" fill-rule="nonzero" fill-opacity="1" /><path clip-path="url(#clip200)" d="M3109.04 1421.27 Q3105.43 1421.27 3103.6 1424.83 Q3101.8 1428.37 3101.8 1435.5 Q3101.8 1442.61 3103.6 1446.17 Q3105.43 1449.72 3109.04 1449.72 Q3112.68 1449.72 3114.48 1446.17 Q3116.31 1442.61 3116.31 1435.5 Q3116.31 1428.37 3114.48 1424.83 Q3112.68 1421.27 3109.04 1421.27 M3109.04 1417.56 Q3114.85 1417.56 3117.91 1422.17 Q3120.99 1426.75 3120.99 1435.5 Q3120.99 1444.23 3117.91 1448.84 Q3114.85 1453.42 3109.04 1453.42 Q3103.23 1453.42 3100.15 1448.84 Q3097.1 1444.23 3097.1 1435.5 Q3097.1 1426.75 3100.15 1422.17 Q3103.23 1417.56 3109.04 1417.56 Z" fill="#000000" fill-rule="nonzero" fill-opacity="1" /><path clip-path="url(#clip200)" d="M1732.06 1494.02 L1732.06 1503.22 L1743.03 1503.22 L1743.03 1507.36 L1732.06 1507.36 L1732.06 1524.95 Q1732.06 1528.91 1733.13 1530.04 Q1734.23 1531.17 1737.56 1531.17 L1743.03 1531.17 L1743.03 1535.63 L1737.56 1535.63 Q1731.4 1535.63 1729.05 1533.34 Q1726.71 1531.03 1726.71 1524.95 L1726.71 1507.36 L1722.8 1507.36 L1722.8 1503.22 L1726.71 1503.22 L1726.71 1494.02 L1732.06 1494.02 Z" fill="#000000" fill-rule="nonzero" fill-opacity="1" /><polyline clip-path="url(#clip200)" style="stroke:#000000; stroke-linecap:round; stroke-linejoin:round; stroke-width:4; stroke-opacity:1; fill:none" points="313.076,1383.95 313.076,1058.24 "/>
<polyline clip-path="url(#clip200)" style="stroke:#000000; stroke-linecap:round; stroke-linejoin:round; stroke-width:4; stroke-opacity:1; fill:none" points="313.076,1326.09 331.974,1326.09 "/>
<polyline clip-path="url(#clip200)" style="stroke:#000000; stroke-linecap:round; stroke-linejoin:round; stroke-width:4; stroke-opacity:1; fill:none" points="313.076,1259.27 331.974,1259.27 "/>
<polyline clip-path="url(#clip200)" style="stroke:#000000; stroke-linecap:round; stroke-linejoin:round; stroke-width:4; stroke-opacity:1; fill:none" points="313.076,1192.44 331.974,1192.44 "/>
<polyline clip-path="url(#clip200)" style="stroke:#000000; stroke-linecap:round; stroke-linejoin:round; stroke-width:4; stroke-opacity:1; fill:none" points="313.076,1125.61 331.974,1125.61 "/>
<polyline clip-path="url(#clip200)" style="stroke:#000000; stroke-linecap:round; stroke-linejoin:round; stroke-width:4; stroke-opacity:1; fill:none" points="313.076,1058.79 331.974,1058.79 "/>
<path clip-path="url(#clip200)" d="M158.132 1326.55 L187.808 1326.55 L187.808 1330.48 L158.132 1330.48 L158.132 1326.55 Z" fill="#000000" fill-rule="nonzero" fill-opacity="1" /><path clip-path="url(#clip200)" d="M201.928 1339.44 L218.248 1339.44 L218.248 1343.37 L196.303 1343.37 L196.303 1339.44 Q198.965 1336.68 203.549 1332.05 Q208.155 1327.4 209.336 1326.06 Q211.581 1323.54 212.461 1321.8 Q213.363 1320.04 213.363 1318.35 Q213.363 1315.6 211.419 1313.86 Q209.498 1312.12 206.396 1312.12 Q204.197 1312.12 201.743 1312.89 Q199.313 1313.65 196.535 1315.2 L196.535 1310.48 Q199.359 1309.35 201.813 1308.77 Q204.266 1308.19 206.303 1308.19 Q211.674 1308.19 214.868 1310.87 Q218.063 1313.56 218.063 1318.05 Q218.063 1320.18 217.252 1322.1 Q216.465 1324 214.359 1326.59 Q213.78 1327.26 210.678 1330.48 Q207.576 1333.67 201.928 1339.44 Z" fill="#000000" fill-rule="nonzero" fill-opacity="1" /><path clip-path="url(#clip200)" d="M228.062 1337.49 L232.947 1337.49 L232.947 1343.37 L228.062 1343.37 L228.062 1337.49 Z" fill="#000000" fill-rule="nonzero" fill-opacity="1" /><path clip-path="url(#clip200)" d="M253.132 1311.89 Q249.521 1311.89 247.692 1315.46 Q245.886 1319 245.886 1326.13 Q245.886 1333.24 247.692 1336.8 Q249.521 1340.34 253.132 1340.34 Q256.766 1340.34 258.572 1336.8 Q260.4 1333.24 260.4 1326.13 Q260.4 1319 258.572 1315.46 Q256.766 1311.89 253.132 1311.89 M253.132 1308.19 Q258.942 1308.19 261.997 1312.8 Q265.076 1317.38 265.076 1326.13 Q265.076 1334.86 261.997 1339.46 Q258.942 1344.05 253.132 1344.05 Q247.322 1344.05 244.243 1339.46 Q241.187 1334.86 241.187 1326.13 Q241.187 1317.38 244.243 1312.8 Q247.322 1308.19 253.132 1308.19 Z" fill="#000000" fill-rule="nonzero" fill-opacity="1" /><path clip-path="url(#clip200)" d="M159.128 1259.72 L188.803 1259.72 L188.803 1263.65 L159.128 1263.65 L159.128 1259.72 Z" fill="#000000" fill-rule="nonzero" fill-opacity="1" /><path clip-path="url(#clip200)" d="M199.706 1272.61 L207.345 1272.61 L207.345 1246.25 L199.035 1247.91 L199.035 1243.65 L207.299 1241.99 L211.975 1241.99 L211.975 1272.61 L219.613 1272.61 L219.613 1276.55 L199.706 1276.55 L199.706 1272.61 Z" fill="#000000" fill-rule="nonzero" fill-opacity="1" /><path clip-path="url(#clip200)" d="M229.058 1270.67 L233.942 1270.67 L233.942 1276.55 L229.058 1276.55 L229.058 1270.67 Z" fill="#000000" fill-rule="nonzero" fill-opacity="1" /><path clip-path="url(#clip200)" d="M244.173 1241.99 L262.53 1241.99 L262.53 1245.92 L248.456 1245.92 L248.456 1254.39 Q249.474 1254.05 250.493 1253.89 Q251.511 1253.7 252.53 1253.7 Q258.317 1253.7 261.697 1256.87 Q265.076 1260.04 265.076 1265.46 Q265.076 1271.04 261.604 1274.14 Q258.132 1277.22 251.812 1277.22 Q249.636 1277.22 247.368 1276.85 Q245.123 1276.48 242.715 1275.74 L242.715 1271.04 Q244.798 1272.17 247.021 1272.73 Q249.243 1273.28 251.72 1273.28 Q255.724 1273.28 258.062 1271.18 Q260.4 1269.07 260.4 1265.46 Q260.4 1261.85 258.062 1259.74 Q255.724 1257.64 251.72 1257.64 Q249.845 1257.64 247.97 1258.05 Q246.118 1258.47 244.173 1259.35 L244.173 1241.99 Z" fill="#000000" fill-rule="nonzero" fill-opacity="1" /><path clip-path="url(#clip200)" d="M158.132 1192.89 L187.808 1192.89 L187.808 1196.83 L158.132 1196.83 L158.132 1192.89 Z" fill="#000000" fill-rule="nonzero" fill-opacity="1" /><path clip-path="url(#clip200)" d="M198.711 1205.78 L206.35 1205.78 L206.35 1179.42 L198.039 1181.09 L198.039 1176.83 L206.303 1175.16 L210.979 1175.16 L210.979 1205.78 L218.618 1205.78 L218.618 1209.72 L198.711 1209.72 L198.711 1205.78 Z" fill="#000000" fill-rule="nonzero" fill-opacity="1" /><path clip-path="url(#clip200)" d="M228.062 1203.84 L232.947 1203.84 L232.947 1209.72 L228.062 1209.72 L228.062 1203.84 Z" fill="#000000" fill-rule="nonzero" fill-opacity="1" /><path clip-path="url(#clip200)" d="M253.132 1178.24 Q249.521 1178.24 247.692 1181.8 Q245.886 1185.35 245.886 1192.47 Q245.886 1199.58 247.692 1203.15 Q249.521 1206.69 253.132 1206.69 Q256.766 1206.69 258.572 1203.15 Q260.4 1199.58 260.4 1192.47 Q260.4 1185.35 258.572 1181.8 Q256.766 1178.24 253.132 1178.24 M253.132 1174.54 Q258.942 1174.54 261.997 1179.14 Q265.076 1183.72 265.076 1192.47 Q265.076 1201.2 261.997 1205.81 Q258.942 1210.39 253.132 1210.39 Q247.322 1210.39 244.243 1205.81 Q241.187 1201.2 241.187 1192.47 Q241.187 1183.72 244.243 1179.14 Q247.322 1174.54 253.132 1174.54 Z" fill="#000000" fill-rule="nonzero" fill-opacity="1" /><path clip-path="url(#clip200)" d="M159.128 1126.06 L188.803 1126.06 L188.803 1130 L159.128 1130 L159.128 1126.06 Z" fill="#000000" fill-rule="nonzero" fill-opacity="1" /><path clip-path="url(#clip200)" d="M208.896 1111.41 Q205.285 1111.41 203.456 1114.98 Q201.651 1118.52 201.651 1125.65 Q201.651 1132.75 203.456 1136.32 Q205.285 1139.86 208.896 1139.86 Q212.53 1139.86 214.336 1136.32 Q216.164 1132.75 216.164 1125.65 Q216.164 1118.52 214.336 1114.98 Q212.53 1111.41 208.896 1111.41 M208.896 1107.71 Q214.706 1107.71 217.762 1112.31 Q220.84 1116.9 220.84 1125.65 Q220.84 1134.37 217.762 1138.98 Q214.706 1143.56 208.896 1143.56 Q203.086 1143.56 200.007 1138.98 Q196.952 1134.37 196.952 1125.65 Q196.952 1116.9 200.007 1112.31 Q203.086 1107.71 208.896 1107.71 Z" fill="#000000" fill-rule="nonzero" fill-opacity="1" /><path clip-path="url(#clip200)" d="M229.058 1137.01 L233.942 1137.01 L233.942 1142.89 L229.058 1142.89 L229.058 1137.01 Z" fill="#000000" fill-rule="nonzero" fill-opacity="1" /><path clip-path="url(#clip200)" d="M244.173 1108.33 L262.53 1108.33 L262.53 1112.27 L248.456 1112.27 L248.456 1120.74 Q249.474 1120.39 250.493 1120.23 Q251.511 1120.05 252.53 1120.05 Q258.317 1120.05 261.697 1123.22 Q265.076 1126.39 265.076 1131.81 Q265.076 1137.38 261.604 1140.49 Q258.132 1143.56 251.812 1143.56 Q249.636 1143.56 247.368 1143.19 Q245.123 1142.82 242.715 1142.08 L242.715 1137.38 Q244.798 1138.52 247.021 1139.07 Q249.243 1139.63 251.72 1139.63 Q255.724 1139.63 258.062 1137.52 Q260.4 1135.42 260.4 1131.81 Q260.4 1128.19 258.062 1126.09 Q255.724 1123.98 251.72 1123.98 Q249.845 1123.98 247.97 1124.4 Q246.118 1124.81 244.173 1125.69 L244.173 1108.33 Z" fill="#000000" fill-rule="nonzero" fill-opacity="1" /><path clip-path="url(#clip200)" d="M207.901 1044.58 Q204.289 1044.58 202.461 1048.15 Q200.655 1051.69 200.655 1058.82 Q200.655 1065.93 202.461 1069.49 Q204.289 1073.03 207.901 1073.03 Q211.535 1073.03 213.34 1069.49 Q215.169 1065.93 215.169 1058.82 Q215.169 1051.69 213.34 1048.15 Q211.535 1044.58 207.901 1044.58 M207.901 1040.88 Q213.711 1040.88 216.766 1045.49 Q219.845 1050.07 219.845 1058.82 Q219.845 1067.55 216.766 1072.15 Q213.711 1076.74 207.901 1076.74 Q202.09 1076.74 199.012 1072.15 Q195.956 1067.55 195.956 1058.82 Q195.956 1050.07 199.012 1045.49 Q202.09 1040.88 207.901 1040.88 Z" fill="#000000" fill-rule="nonzero" fill-opacity="1" /><path clip-path="url(#clip200)" d="M228.062 1070.19 L232.947 1070.19 L232.947 1076.07 L228.062 1076.07 L228.062 1070.19 Z" fill="#000000" fill-rule="nonzero" fill-opacity="1" /><path clip-path="url(#clip200)" d="M253.132 1044.58 Q249.521 1044.58 247.692 1048.15 Q245.886 1051.69 245.886 1058.82 Q245.886 1065.93 247.692 1069.49 Q249.521 1073.03 253.132 1073.03 Q256.766 1073.03 258.572 1069.49 Q260.4 1065.93 260.4 1058.82 Q260.4 1051.69 258.572 1048.15 Q256.766 1044.58 253.132 1044.58 M253.132 1040.88 Q258.942 1040.88 261.997 1045.49 Q265.076 1050.07 265.076 1058.82 Q265.076 1067.55 261.997 1072.15 Q258.942 1076.74 253.132 1076.74 Q247.322 1076.74 244.243 1072.15 Q241.187 1067.55 241.187 1058.82 Q241.187 1050.07 244.243 1045.49 Q247.322 1040.88 253.132 1040.88 Z" fill="#000000" fill-rule="nonzero" fill-opacity="1" /><path clip-path="url(#clip200)" d="M84.383 1234.67 L64.765 1234.67 L64.765 1229.34 L84.1805 1229.34 Q88.7811 1229.34 91.0959 1227.55 Q93.3818 1225.75 93.3818 1222.17 Q93.3818 1217.86 90.633 1215.37 Q87.8841 1212.85 83.1388 1212.85 L64.765 1212.85 L64.765 1207.53 L97.1723 1207.53 L97.1723 1212.85 L92.1955 1212.85 Q95.1468 1214.79 96.5936 1217.36 Q98.0114 1219.91 98.0114 1223.29 Q98.0114 1228.88 94.5392 1231.77 Q91.067 1234.67 84.383 1234.67 M63.9838 1221.27 L63.9838 1221.27 Z" fill="#000000" fill-rule="nonzero" fill-opacity="1" /><path clip-path="url(#clip200)" d="M1660.26 983.529 L1660.26 988.506 Q1658 987.261 1655.72 986.654 Q1653.46 986.017 1651.15 986.017 Q1645.97 986.017 1643.1 989.316 Q1640.24 992.586 1640.24 998.517 Q1640.24 1004.45 1643.1 1007.75 Q1645.97 1011.02 1651.15 1011.02 Q1653.46 1011.02 1655.72 1010.41 Q1658 1009.77 1660.26 1008.53 L1660.26 1013.45 Q1658.03 1014.49 1655.63 1015.01 Q1653.26 1015.53 1650.57 1015.53 Q1643.25 1015.53 1638.94 1010.93 Q1634.62 1006.33 1634.62 998.517 Q1634.62 990.589 1638.96 986.046 Q1643.33 981.503 1650.91 981.503 Q1653.37 981.503 1655.72 982.024 Q1658.06 982.516 1660.26 983.529 Z" fill="#000000" fill-rule="nonzero" fill-opacity="1" /><path clip-path="url(#clip200)" d="M1682.08 986.017 Q1677.79 986.017 1675.31 989.374 Q1672.82 992.701 1672.82 998.517 Q1672.82 1004.33 1675.28 1007.69 Q1677.77 1011.02 1682.08 1011.02 Q1686.33 1011.02 1688.82 1007.66 Q1691.31 1004.3 1691.31 998.517 Q1691.31 992.759 1688.82 989.403 Q1686.33 986.017 1682.08 986.017 M1682.08 981.503 Q1689.02 981.503 1692.99 986.017 Q1696.95 990.531 1696.95 998.517 Q1696.95 1006.47 1692.99 1011.02 Q1689.02 1015.53 1682.08 1015.53 Q1675.1 1015.53 1671.14 1011.02 Q1667.2 1006.47 1667.2 998.517 Q1667.2 990.531 1671.14 986.017 Q1675.1 981.503 1682.08 981.503 Z" fill="#000000" fill-rule="nonzero" fill-opacity="1" /><path clip-path="url(#clip200)" d="M1732.71 995.132 L1732.71 1014.69 L1727.39 1014.69 L1727.39 995.305 Q1727.39 990.705 1725.6 988.419 Q1723.8 986.133 1720.21 986.133 Q1715.9 986.133 1713.41 988.882 Q1710.93 991.631 1710.93 996.376 L1710.93 1014.69 L1705.57 1014.69 L1705.57 982.285 L1710.93 982.285 L1710.93 987.319 Q1712.84 984.397 1715.41 982.95 Q1718.01 981.503 1721.4 981.503 Q1726.98 981.503 1729.85 984.976 Q1732.71 988.419 1732.71 995.132 Z" fill="#000000" fill-rule="nonzero" fill-opacity="1" /><path clip-path="url(#clip200)" d="M1748.6 973.083 L1748.6 982.285 L1759.57 982.285 L1759.57 986.422 L1748.6 986.422 L1748.6 1004.01 Q1748.6 1007.98 1749.67 1009.11 Q1750.77 1010.24 1754.1 1010.24 L1759.57 1010.24 L1759.57 1014.69 L1754.1 1014.69 Q1747.93 1014.69 1745.59 1012.41 Q1743.25 1010.09 1743.25 1004.01 L1743.25 986.422 L1739.34 986.422 L1739.34 982.285 L1743.25 982.285 L1743.25 973.083 L1748.6 973.083 Z" fill="#000000" fill-rule="nonzero" fill-opacity="1" /><path clip-path="url(#clip200)" d="M1785.35 987.261 Q1784.45 986.741 1783.38 986.509 Q1782.34 986.249 1781.06 986.249 Q1776.55 986.249 1774.12 989.2 Q1771.72 992.123 1771.72 997.62 L1771.72 1014.69 L1766.36 1014.69 L1766.36 982.285 L1771.72 982.285 L1771.72 987.319 Q1773.4 984.368 1776.09 982.95 Q1778.78 981.503 1782.63 981.503 Q1783.18 981.503 1783.84 981.59 Q1784.51 981.648 1785.32 981.793 L1785.35 987.261 Z" fill="#000000" fill-rule="nonzero" fill-opacity="1" /><path clip-path="url(#clip200)" d="M1802.19 986.017 Q1797.9 986.017 1795.42 989.374 Q1792.93 992.701 1792.93 998.517 Q1792.93 1004.33 1795.39 1007.69 Q1797.88 1011.02 1802.19 1011.02 Q1806.44 1011.02 1808.93 1007.66 Q1811.42 1004.3 1811.42 998.517 Q1811.42 992.759 1808.93 989.403 Q1806.44 986.017 1802.19 986.017 M1802.19 981.503 Q1809.13 981.503 1813.09 986.017 Q1817.06 990.531 1817.06 998.517 Q1817.06 1006.47 1813.09 1011.02 Q1809.13 1015.53 1802.19 1015.53 Q1795.21 1015.53 1791.25 1011.02 Q1787.31 1006.47 1787.31 998.517 Q1787.31 990.531 1791.25 986.017 Q1795.21 981.503 1802.19 981.503 Z" fill="#000000" fill-rule="nonzero" fill-opacity="1" /><path clip-path="url(#clip200)" d="M1825.88 969.669 L1831.21 969.669 L1831.21 1014.69 L1825.88 1014.69 L1825.88 969.669 Z" fill="#000000" fill-rule="nonzero" fill-opacity="1" /><polyline clip-path="url(#clip201)" style="stroke:#009af9; stroke-linecap:round; stroke-linejoin:round; stroke-width:8; stroke-opacity:1; fill:none" points="393.444,1374.73 527.392,1374.73 527.392,1360.62 661.339,1360.62 661.339,1346.18 795.286,1346.18 795.286,1331.44 929.233,1331.44 929.233,1316.4 1063.18,1316.4 1063.18,1301.09 1197.13,1301.09 1197.13,1285.52 1331.07,1285.52 1331.07,1269.71 1465.02,1269.71 1465.02,1253.68 1598.97,1253.68 1598.97,1237.44 1732.92,1237.44 1732.92,1221 1866.86,1221 1866.86,1204.39 2000.81,1204.39 2000.81,1187.63 2134.76,1187.63 2134.76,1170.73 2268.7,1170.73 2268.7,1153.71 2402.65,1153.71 2402.65,1136.59 2536.6,1136.59 2536.6,1119.39 2670.55,1119.39 2670.55,1102.12 2804.49,1102.12 2804.49,1084.8 2938.44,1084.8 2938.44,1067.46 3072.39,1067.46 "/>
<polyline clip-path="url(#clip201)" style="stroke:#000000; stroke-linecap:round; stroke-linejoin:round; stroke-width:4; stroke-opacity:1; fill:none" stroke-dasharray="16, 10" points="393.444,1709.65 393.444,732.54 "/>
<polyline clip-path="url(#clip201)" style="stroke:#000000; stroke-linecap:round; stroke-linejoin:round; stroke-width:4; stroke-opacity:1; fill:none" stroke-dasharray="16, 10" points="3072.39,1709.65 3072.39,732.54 "/>
<path clip-path="url(#clip200)" d="M407.732 1172.78 L823.482 1172.78 L823.482 1069.1 L407.732 1069.1  Z" fill="#ffffff" fill-rule="evenodd" fill-opacity="1"/>
<polyline clip-path="url(#clip200)" style="stroke:#000000; stroke-linecap:round; stroke-linejoin:round; stroke-width:4; stroke-opacity:1; fill:none" points="407.732,1172.78 823.482,1172.78 823.482,1069.1 407.732,1069.1 407.732,1172.78 "/>
<polyline clip-path="url(#clip200)" style="stroke:#009af9; stroke-linecap:round; stroke-linejoin:round; stroke-width:8; stroke-opacity:1; fill:none" points="439.284,1120.94 628.596,1120.94 "/>
<path clip-path="url(#clip200)" d="M679.06 1116.23 L679.06 1102.2 L683.319 1102.2 L683.319 1138.22 L679.06 1138.22 L679.06 1134.33 Q677.717 1136.65 675.657 1137.78 Q673.62 1138.89 670.75 1138.89 Q666.051 1138.89 663.088 1135.14 Q660.148 1131.39 660.148 1125.28 Q660.148 1119.17 663.088 1115.42 Q666.051 1111.67 670.75 1111.67 Q673.62 1111.67 675.657 1112.8 Q677.717 1113.92 679.06 1116.23 M664.546 1125.28 Q664.546 1129.98 666.468 1132.67 Q668.412 1135.33 671.792 1135.33 Q675.171 1135.33 677.116 1132.67 Q679.06 1129.98 679.06 1125.28 Q679.06 1120.58 677.116 1117.92 Q675.171 1115.23 671.792 1115.23 Q668.412 1115.23 666.468 1117.92 Q664.546 1120.58 664.546 1125.28 Z" fill="#000000" fill-rule="nonzero" fill-opacity="1" /><path clip-path="url(#clip200)" d="M692.092 1112.29 L696.352 1112.29 L696.352 1138.22 L692.092 1138.22 L692.092 1112.29 M692.092 1102.2 L696.352 1102.2 L696.352 1107.6 L692.092 1107.6 L692.092 1102.2 Z" fill="#000000" fill-rule="nonzero" fill-opacity="1" /><path clip-path="url(#clip200)" d="M720.287 1116.28 Q719.569 1115.86 718.713 1115.67 Q717.879 1115.47 716.861 1115.47 Q713.25 1115.47 711.305 1117.83 Q709.384 1120.17 709.384 1124.56 L709.384 1138.22 L705.102 1138.22 L705.102 1112.29 L709.384 1112.29 L709.384 1116.32 Q710.727 1113.96 712.879 1112.83 Q715.032 1111.67 718.111 1111.67 Q718.551 1111.67 719.083 1111.74 Q719.615 1111.79 720.264 1111.9 L720.287 1116.28 Z" fill="#000000" fill-rule="nonzero" fill-opacity="1" /><path clip-path="url(#clip200)" d="M745.888 1124.19 L745.888 1126.28 L726.305 1126.28 Q726.583 1130.67 728.944 1132.99 Q731.328 1135.28 735.564 1135.28 Q738.018 1135.28 740.31 1134.68 Q742.625 1134.08 744.893 1132.87 L744.893 1136.9 Q742.601 1137.87 740.194 1138.38 Q737.787 1138.89 735.31 1138.89 Q729.106 1138.89 725.472 1135.28 Q721.861 1131.67 721.861 1125.51 Q721.861 1119.15 725.287 1115.42 Q728.736 1111.67 734.569 1111.67 Q739.8 1111.67 742.833 1115.05 Q745.888 1118.41 745.888 1124.19 M741.629 1122.94 Q741.583 1119.45 739.662 1117.36 Q737.763 1115.28 734.615 1115.28 Q731.051 1115.28 728.898 1117.29 Q726.768 1119.31 726.444 1122.97 L741.629 1122.94 Z" fill="#000000" fill-rule="nonzero" fill-opacity="1" /><path clip-path="url(#clip200)" d="M771.536 1113.29 L771.536 1117.27 Q769.731 1116.28 767.902 1115.79 Q766.097 1115.28 764.245 1115.28 Q760.101 1115.28 757.81 1117.92 Q755.518 1120.54 755.518 1125.28 Q755.518 1130.03 757.81 1132.67 Q760.101 1135.28 764.245 1135.28 Q766.097 1135.28 767.902 1134.79 Q769.731 1134.29 771.536 1133.29 L771.536 1137.23 Q769.754 1138.06 767.833 1138.48 Q765.935 1138.89 763.782 1138.89 Q757.925 1138.89 754.476 1135.21 Q751.027 1131.53 751.027 1125.28 Q751.027 1118.94 754.499 1115.3 Q757.995 1111.67 764.06 1111.67 Q766.027 1111.67 767.902 1112.09 Q769.777 1112.48 771.536 1113.29 Z" fill="#000000" fill-rule="nonzero" fill-opacity="1" /><path clip-path="url(#clip200)" d="M783.157 1104.93 L783.157 1112.29 L791.93 1112.29 L791.93 1115.61 L783.157 1115.61 L783.157 1129.68 Q783.157 1132.85 784.013 1133.75 Q784.893 1134.66 787.555 1134.66 L791.93 1134.66 L791.93 1138.22 L787.555 1138.22 Q782.624 1138.22 780.749 1136.39 Q778.874 1134.54 778.874 1129.68 L778.874 1115.61 L775.749 1115.61 L775.749 1112.29 L778.874 1112.29 L778.874 1104.93 L783.157 1104.93 Z" fill="#000000" fill-rule="nonzero" fill-opacity="1" /></svg>
