<?xml version="1.0" encoding="utf-8"?>
<svg xmlns="http://www.w3.org/2000/svg" xmlns:xlink="http://www.w3.org/1999/xlink" width="600" height="400" viewBox="0 0 2400 1600">
<defs>
  <clipPath id="clip870">
    <rect x="0" y="0" width="2400" height="1600"/>
  </clipPath>
</defs>
<path clip-path="url(#clip870)" d="M0 1600 L2400 1600 L2400 0 L0 0  Z" fill="#ffffff" fill-rule="evenodd" fill-opacity="1"/>
<defs>
  <clipPath id="clip871">
    <rect x="346" y="106" width="2008" height="1318"/>
  </clipPath>
</defs>
<path clip-path="url(#clip870)" d="M346.038 1423.46 L2352.76 1423.46 L2352.76 106.192 L346.038 106.192  Z" fill="#ffffff" fill-rule="evenodd" fill-opacity="1"/>
<polyline clip-path="url(#clip871)" style="stroke:#000000; stroke-linecap:round; stroke-linejoin:round; stroke-width:2; stroke-opacity:0.1; fill:none" points="402.832,1423.46 402.832,106.192 "/>
<polyline clip-path="url(#clip871)" style="stroke:#000000; stroke-linecap:round; stroke-linejoin:round; stroke-width:2; stroke-opacity:0.1; fill:none" points="876.114,1423.46 876.114,106.192 "/>
<polyline clip-path="url(#clip871)" style="stroke:#000000; stroke-linecap:round; stroke-linejoin:round; stroke-width:2; stroke-opacity:0.1; fill:none" points="1349.4,1423.46 1349.4,106.192 "/>
<polyline clip-path="url(#clip871)" style="stroke:#000000; stroke-linecap:round; stroke-linejoin:round; stroke-width:2; stroke-opacity:0.1; fill:none" points="1822.68,1423.46 1822.68,106.192 "/>
<polyline clip-path="url(#clip871)" style="stroke:#000000; stroke-linecap:round; stroke-linejoin:round; stroke-width:2; stroke-opacity:0.1; fill:none" points="2295.96,1423.46 2295.96,106.192 "/>
<polyline clip-path="url(#clip871)" style="stroke:#000000; stroke-linecap:round; stroke-linejoin:round; stroke-width:2; stroke-opacity:0.1; fill:none" points="346.038,1386.17 2352.76,1386.17 "/>
<polyline clip-path="url(#clip871)" style="stroke:#000000; stroke-linecap:round; stroke-linejoin:round; stroke-width:2; stroke-opacity:0.1; fill:none" points="346.038,1075.5 2352.76,1075.5 "/>
<polyline clip-path="url(#clip871)" style="stroke:#000000; stroke-linecap:round; stroke-linejoin:round; stroke-width:2; stroke-opacity:0.1; fill:none" points="346.038,764.824 2352.76,764.824 "/>
<polyline clip-path="url(#clip871)" style="stroke:#000000; stroke-linecap:round; stroke-linejoin:round; stroke-width:2; stroke-opacity:0.1; fill:none" points="346.038,454.149 2352.76,454.149 "/>
<polyline clip-path="url(#clip871)" style="stroke:#000000; stroke-linecap:round; stroke-linejoin:round; stroke-width:2; stroke-opacity:0.1; fill:none" points="346.038,143.473 2352.76,143.473 "/>
<polyline clip-path="url(#clip870)" style="stroke:#000000; stroke-linecap:round; stroke-linejoin:round; stroke-width:4; stroke-opacity:1; fill:none" points="346.038,1423.46 2352.76,1423.46 "/>
<polyline clip-path="url(#clip870)" style="stroke:#000000; stroke-linecap:round; stroke-linejoin:round; stroke-width:4; stroke-opacity:1; fill:none" points="402.832,1423.46 402.832,1404.56 "/>
<polyline clip-path="url(#clip870)" style="stroke:#000000; stroke-linecap:round; stroke-linejoin:round; stroke-width:4; stroke-opacity:1; fill:none" points="876.114,1423.46 876.114,1404.56 "/>
<polyline clip-path="url(#clip870)" style="stroke:#000000; stroke-linecap:round; stroke-linejoin:round; stroke-width:4; stroke-opacity:1; fill:none" points="1349.4,1423.46 1349.4,1404.56 "/>
<polyline clip-path="url(#clip870)" style="stroke:#000000; stroke-linecap:round; stroke-linejoin:round; stroke-width:4; stroke-opacity:1; fill:none" points="1822.68,1423.46 1822.68,1404.56 "/>
<polyline clip-path="url(#clip870)" style="stroke:#000000; stroke-linecap:round; stroke-linejoin:round; stroke-width:4; stroke-opacity:1; fill:none" points="2295.96,1423.46 2295.96,1404.56 "/>
<path clip-path="url(#clip870)" d="M365.135 1454.37 Q361.524 1454.37 359.696 1457.94 Q357.89 1461.48 357.89 1468.61 Q357.89 1475.72 359.696 1479.28 Q361.524 1482.82 365.135 1482.82 Q368.77 1482.82 370.575 1479.28 Q372.404 1475.72 372.404 1468.61 Q372.404 1461.48 370.575 1457.94 Q368.77 1454.37 365.135 1454.37 M365.135 1450.67 Q370.946 1450.67 374.001 1455.28 Q377.08 1459.86 377.08 1468.61 Q377.08 1477.34 374.001 1481.94 Q370.946 1486.53 365.135 1486.53 Q359.325 1486.53 356.247 1481.94 Q353.191 1477.34 353.191 1468.61 Q353.191 1459.86 356.247 1455.28 Q359.325 1450.67 365.135 1450.67 Z" fill="#000000" fill-rule="nonzero" fill-opacity="1" /><path clip-path="url(#clip870)" d="M385.297 1479.98 L390.182 1479.98 L390.182 1485.86 L385.297 1485.86 L385.297 1479.98 Z" fill="#000000" fill-rule="nonzero" fill-opacity="1" /><path clip-path="url(#clip870)" d="M410.367 1454.37 Q406.756 1454.37 404.927 1457.94 Q403.121 1461.48 403.121 1468.61 Q403.121 1475.72 404.927 1479.28 Q406.756 1482.82 410.367 1482.82 Q414.001 1482.82 415.806 1479.28 Q417.635 1475.72 417.635 1468.61 Q417.635 1461.48 415.806 1457.94 Q414.001 1454.37 410.367 1454.37 M410.367 1450.67 Q416.177 1450.67 419.232 1455.28 Q422.311 1459.86 422.311 1468.61 Q422.311 1477.34 419.232 1481.94 Q416.177 1486.53 410.367 1486.53 Q404.556 1486.53 401.478 1481.94 Q398.422 1477.34 398.422 1468.61 Q398.422 1459.86 401.478 1455.28 Q404.556 1450.67 410.367 1450.67 Z" fill="#000000" fill-rule="nonzero" fill-opacity="1" /><path clip-path="url(#clip870)" d="M440.528 1454.37 Q436.917 1454.37 435.089 1457.94 Q433.283 1461.48 433.283 1468.61 Q433.283 1475.72 435.089 1479.28 Q436.917 1482.82 440.528 1482.82 Q444.163 1482.82 445.968 1479.28 Q447.797 1475.72 447.797 1468.61 Q447.797 1461.48 445.968 1457.94 Q444.163 1454.37 440.528 1454.37 M440.528 1450.67 Q446.339 1450.67 449.394 1455.28 Q452.473 1459.86 452.473 1468.61 Q452.473 1477.34 449.394 1481.94 Q446.339 1486.53 440.528 1486.53 Q434.718 1486.53 431.64 1481.94 Q428.584 1477.34 428.584 1468.61 Q428.584 1459.86 431.64 1455.28 Q434.718 1450.67 440.528 1450.67 Z" fill="#000000" fill-rule="nonzero" fill-opacity="1" /><path clip-path="url(#clip870)" d="M838.916 1454.37 Q835.304 1454.37 833.476 1457.94 Q831.67 1461.48 831.67 1468.61 Q831.67 1475.72 833.476 1479.28 Q835.304 1482.82 838.916 1482.82 Q842.55 1482.82 844.355 1479.28 Q846.184 1475.72 846.184 1468.61 Q846.184 1461.48 844.355 1457.94 Q842.55 1454.37 838.916 1454.37 M838.916 1450.67 Q844.726 1450.67 847.781 1455.28 Q850.86 1459.86 850.86 1468.61 Q850.86 1477.34 847.781 1481.94 Q844.726 1486.53 838.916 1486.53 Q833.105 1486.53 830.027 1481.94 Q826.971 1477.34 826.971 1468.61 Q826.971 1459.86 830.027 1455.28 Q833.105 1450.67 838.916 1450.67 Z" fill="#000000" fill-rule="nonzero" fill-opacity="1" /><path clip-path="url(#clip870)" d="M859.078 1479.98 L863.962 1479.98 L863.962 1485.86 L859.078 1485.86 L859.078 1479.98 Z" fill="#000000" fill-rule="nonzero" fill-opacity="1" /><path clip-path="url(#clip870)" d="M878.175 1481.92 L894.494 1481.92 L894.494 1485.86 L872.55 1485.86 L872.55 1481.92 Q875.212 1479.17 879.795 1474.54 Q884.401 1469.88 885.582 1468.54 Q887.827 1466.02 888.707 1464.28 Q889.61 1462.52 889.61 1460.83 Q889.61 1458.08 887.665 1456.34 Q885.744 1454.61 882.642 1454.61 Q880.443 1454.61 877.989 1455.37 Q875.559 1456.13 872.781 1457.68 L872.781 1452.96 Q875.605 1451.83 878.059 1451.25 Q880.513 1450.67 882.55 1450.67 Q887.92 1450.67 891.114 1453.36 Q894.309 1456.04 894.309 1460.53 Q894.309 1462.66 893.499 1464.58 Q892.712 1466.48 890.605 1469.07 Q890.026 1469.74 886.925 1472.96 Q883.823 1476.16 878.175 1481.92 Z" fill="#000000" fill-rule="nonzero" fill-opacity="1" /><path clip-path="url(#clip870)" d="M904.355 1451.3 L922.711 1451.3 L922.711 1455.23 L908.637 1455.23 L908.637 1463.7 Q909.656 1463.36 910.674 1463.19 Q911.693 1463.01 912.711 1463.01 Q918.498 1463.01 921.878 1466.18 Q925.258 1469.35 925.258 1474.77 Q925.258 1480.35 921.786 1483.45 Q918.313 1486.53 911.994 1486.53 Q909.818 1486.53 907.549 1486.16 Q905.304 1485.79 902.897 1485.05 L902.897 1480.35 Q904.98 1481.48 907.202 1482.04 Q909.424 1482.59 911.901 1482.59 Q915.906 1482.59 918.244 1480.49 Q920.582 1478.38 920.582 1474.77 Q920.582 1471.16 918.244 1469.05 Q915.906 1466.94 911.901 1466.94 Q910.026 1466.94 908.151 1467.36 Q906.299 1467.78 904.355 1468.66 L904.355 1451.3 Z" fill="#000000" fill-rule="nonzero" fill-opacity="1" /><path clip-path="url(#clip870)" d="M1311.7 1454.37 Q1308.09 1454.37 1306.26 1457.94 Q1304.46 1461.48 1304.46 1468.61 Q1304.46 1475.72 1306.26 1479.28 Q1308.09 1482.82 1311.7 1482.82 Q1315.33 1482.82 1317.14 1479.28 Q1318.97 1475.72 1318.97 1468.61 Q1318.97 1461.48 1317.14 1457.94 Q1315.33 1454.37 1311.7 1454.37 M1311.7 1450.67 Q1317.51 1450.67 1320.57 1455.28 Q1323.64 1459.86 1323.64 1468.61 Q1323.64 1477.34 1320.57 1481.94 Q1317.51 1486.53 1311.7 1486.53 Q1305.89 1486.53 1302.81 1481.94 Q1299.76 1477.34 1299.76 1468.61 Q1299.76 1459.86 1302.81 1455.28 Q1305.89 1450.67 1311.7 1450.67 Z" fill="#000000" fill-rule="nonzero" fill-opacity="1" /><path clip-path="url(#clip870)" d="M1331.86 1479.98 L1336.75 1479.98 L1336.75 1485.86 L1331.86 1485.86 L1331.86 1479.98 Z" fill="#000000" fill-rule="nonzero" fill-opacity="1" /><path clip-path="url(#clip870)" d="M1346.98 1451.3 L1365.33 1451.3 L1365.33 1455.23 L1351.26 1455.23 L1351.26 1463.7 Q1352.28 1463.36 1353.3 1463.19 Q1354.32 1463.01 1355.33 1463.01 Q1361.12 1463.01 1364.5 1466.18 Q1367.88 1469.35 1367.88 1474.77 Q1367.88 1480.35 1364.41 1483.45 Q1360.94 1486.53 1354.62 1486.53 Q1352.44 1486.53 1350.17 1486.16 Q1347.93 1485.79 1345.52 1485.05 L1345.52 1480.35 Q1347.6 1481.48 1349.83 1482.04 Q1352.05 1482.59 1354.52 1482.59 Q1358.53 1482.59 1360.87 1480.49 Q1363.2 1478.38 1363.2 1474.77 Q1363.2 1471.16 1360.87 1469.05 Q1358.53 1466.94 1354.52 1466.94 Q1352.65 1466.94 1350.77 1467.36 Q1348.92 1467.78 1346.98 1468.66 L1346.98 1451.3 Z" fill="#000000" fill-rule="nonzero" fill-opacity="1" /><path clip-path="url(#clip870)" d="M1387.09 1454.37 Q1383.48 1454.37 1381.65 1457.94 Q1379.85 1461.48 1379.85 1468.61 Q1379.85 1475.72 1381.65 1479.28 Q1383.48 1482.82 1387.09 1482.82 Q1390.73 1482.82 1392.53 1479.28 Q1394.36 1475.72 1394.36 1468.61 Q1394.36 1461.48 1392.53 1457.94 Q1390.73 1454.37 1387.09 1454.37 M1387.09 1450.67 Q1392.9 1450.67 1395.96 1455.28 Q1399.04 1459.86 1399.04 1468.61 Q1399.04 1477.34 1395.96 1481.94 Q1392.9 1486.53 1387.09 1486.53 Q1381.28 1486.53 1378.2 1481.94 Q1375.15 1477.34 1375.15 1468.61 Q1375.15 1459.86 1378.2 1455.28 Q1381.28 1450.67 1387.09 1450.67 Z" fill="#000000" fill-rule="nonzero" fill-opacity="1" /><path clip-path="url(#clip870)" d="M1785.48 1454.37 Q1781.87 1454.37 1780.04 1457.94 Q1778.24 1461.48 1778.24 1468.61 Q1778.24 1475.72 1780.04 1479.28 Q1781.87 1482.82 1785.48 1482.82 Q1789.11 1482.82 1790.92 1479.28 Q1792.75 1475.72 1792.75 1468.61 Q1792.75 1461.48 1790.92 1457.94 Q1789.11 1454.37 1785.48 1454.37 M1785.48 1450.67 Q1791.29 1450.67 1794.35 1455.28 Q1797.42 1459.86 1797.42 1468.61 Q1797.42 1477.34 1794.35 1481.94 Q1791.29 1486.53 1785.48 1486.53 Q1779.67 1486.53 1776.59 1481.94 Q1773.54 1477.34 1773.54 1468.61 Q1773.54 1459.86 1776.59 1455.28 Q1779.67 1450.67 1785.48 1450.67 Z" fill="#000000" fill-rule="nonzero" fill-opacity="1" /><path clip-path="url(#clip870)" d="M1805.64 1479.98 L1810.53 1479.98 L1810.53 1485.86 L1805.64 1485.86 L1805.64 1479.98 Z" fill="#000000" fill-rule="nonzero" fill-opacity="1" /><path clip-path="url(#clip870)" d="M1819.53 1451.3 L1841.75 1451.3 L1841.75 1453.29 L1829.21 1485.86 L1824.32 1485.86 L1836.13 1455.23 L1819.53 1455.23 L1819.53 1451.3 Z" fill="#000000" fill-rule="nonzero" fill-opacity="1" /><path clip-path="url(#clip870)" d="M1850.92 1451.3 L1869.28 1451.3 L1869.28 1455.23 L1855.2 1455.23 L1855.2 1463.7 Q1856.22 1463.36 1857.24 1463.19 Q1858.26 1463.01 1859.28 1463.01 Q1865.06 1463.01 1868.44 1466.18 Q1871.82 1469.35 1871.82 1474.77 Q1871.82 1480.35 1868.35 1483.45 Q1864.88 1486.53 1858.56 1486.53 Q1856.38 1486.53 1854.11 1486.16 Q1851.87 1485.79 1849.46 1485.05 L1849.46 1480.35 Q1851.55 1481.48 1853.77 1482.04 Q1855.99 1482.59 1858.47 1482.59 Q1862.47 1482.59 1864.81 1480.49 Q1867.15 1478.38 1867.15 1474.77 Q1867.15 1471.16 1864.81 1469.05 Q1862.47 1466.94 1858.47 1466.94 Q1856.59 1466.94 1854.72 1467.36 Q1852.86 1467.78 1850.92 1468.66 L1850.92 1451.3 Z" fill="#000000" fill-rule="nonzero" fill-opacity="1" /><path clip-path="url(#clip870)" d="M2248.03 1481.92 L2255.67 1481.92 L2255.67 1455.55 L2247.36 1457.22 L2247.36 1452.96 L2255.63 1451.3 L2260.3 1451.3 L2260.3 1481.92 L2267.94 1481.92 L2267.94 1485.86 L2248.03 1485.86 L2248.03 1481.92 Z" fill="#000000" fill-rule="nonzero" fill-opacity="1" /><path clip-path="url(#clip870)" d="M2277.39 1479.98 L2282.27 1479.98 L2282.27 1485.86 L2277.39 1485.86 L2277.39 1479.98 Z" fill="#000000" fill-rule="nonzero" fill-opacity="1" /><path clip-path="url(#clip870)" d="M2302.46 1454.37 Q2298.84 1454.37 2297.02 1457.94 Q2295.21 1461.48 2295.21 1468.61 Q2295.21 1475.72 2297.02 1479.28 Q2298.84 1482.82 2302.46 1482.82 Q2306.09 1482.82 2307.89 1479.28 Q2309.72 1475.72 2309.72 1468.61 Q2309.72 1461.48 2307.89 1457.94 Q2306.09 1454.37 2302.46 1454.37 M2302.46 1450.67 Q2308.27 1450.67 2311.32 1455.28 Q2314.4 1459.86 2314.4 1468.61 Q2314.4 1477.34 2311.32 1481.94 Q2308.27 1486.53 2302.46 1486.53 Q2296.64 1486.53 2293.57 1481.94 Q2290.51 1477.34 2290.51 1468.61 Q2290.51 1459.86 2293.57 1455.28 Q2296.64 1450.67 2302.46 1450.67 Z" fill="#000000" fill-rule="nonzero" fill-opacity="1" /><path clip-path="url(#clip870)" d="M2332.62 1454.37 Q2329.01 1454.37 2327.18 1457.94 Q2325.37 1461.48 2325.37 1468.61 Q2325.37 1475.72 2327.18 1479.28 Q2329.01 1482.82 2332.62 1482.82 Q2336.25 1482.82 2338.06 1479.28 Q2339.89 1475.72 2339.89 1468.61 Q2339.89 1461.48 2338.06 1457.94 Q2336.25 1454.37 2332.62 1454.37 M2332.62 1450.67 Q2338.43 1450.67 2341.48 1455.28 Q2344.56 1459.86 2344.56 1468.61 Q2344.56 1477.34 2341.48 1481.94 Q2338.43 1486.53 2332.62 1486.53 Q2326.81 1486.53 2323.73 1481.94 Q2320.67 1477.34 2320.67 1468.61 Q2320.67 1459.86 2323.73 1455.28 Q2326.81 1450.67 2332.62 1450.67 Z" fill="#000000" fill-rule="nonzero" fill-opacity="1" /><polyline clip-path="url(#clip870)" style="stroke:#000000; stroke-linecap:round; stroke-linejoin:round; stroke-width:4; stroke-opacity:1; fill:none" points="346.038,1423.46 346.038,106.192 "/>
<polyline clip-path="url(#clip870)" style="stroke:#000000; stroke-linecap:round; stroke-linejoin:round; stroke-width:4; stroke-opacity:1; fill:none" points="346.038,1386.17 364.936,1386.17 "/>
<polyline clip-path="url(#clip870)" style="stroke:#000000; stroke-linecap:round; stroke-linejoin:round; stroke-width:4; stroke-opacity:1; fill:none" points="346.038,1075.5 364.936,1075.5 "/>
<polyline clip-path="url(#clip870)" style="stroke:#000000; stroke-linecap:round; stroke-linejoin:round; stroke-width:4; stroke-opacity:1; fill:none" points="346.038,764.824 364.936,764.824 "/>
<polyline clip-path="url(#clip870)" style="stroke:#000000; stroke-linecap:round; stroke-linejoin:round; stroke-width:4; stroke-opacity:1; fill:none" points="346.038,454.149 364.936,454.149 "/>
<polyline clip-path="url(#clip870)" style="stroke:#000000; stroke-linecap:round; stroke-linejoin:round; stroke-width:4; stroke-opacity:1; fill:none" points="346.038,143.473 364.936,143.473 "/>
<path clip-path="url(#clip870)" d="M172.932 1386.63 L202.608 1386.63 L202.608 1390.56 L172.932 1390.56 L172.932 1386.63 Z" fill="#000000" fill-rule="nonzero" fill-opacity="1" /><path clip-path="url(#clip870)" d="M213.511 1399.52 L221.15 1399.52 L221.15 1373.15 L212.839 1374.82 L212.839 1370.56 L221.103 1368.89 L225.779 1368.89 L225.779 1399.52 L233.418 1399.52 L233.418 1403.45 L213.511 1403.45 L213.511 1399.52 Z" fill="#000000" fill-rule="nonzero" fill-opacity="1" /><path clip-path="url(#clip870)" d="M242.862 1397.58 L247.747 1397.58 L247.747 1403.45 L242.862 1403.45 L242.862 1397.58 Z" fill="#000000" fill-rule="nonzero" fill-opacity="1" /><path clip-path="url(#clip870)" d="M267.932 1371.97 Q264.321 1371.97 262.492 1375.54 Q260.686 1379.08 260.686 1386.21 Q260.686 1393.32 262.492 1396.88 Q264.321 1400.42 267.932 1400.42 Q271.566 1400.42 273.372 1396.88 Q275.2 1393.32 275.2 1386.21 Q275.2 1379.08 273.372 1375.54 Q271.566 1371.97 267.932 1371.97 M267.932 1368.27 Q273.742 1368.27 276.797 1372.88 Q279.876 1377.46 279.876 1386.21 Q279.876 1394.94 276.797 1399.54 Q273.742 1404.13 267.932 1404.13 Q262.122 1404.13 259.043 1399.54 Q255.987 1394.94 255.987 1386.21 Q255.987 1377.46 259.043 1372.88 Q262.122 1368.27 267.932 1368.27 Z" fill="#000000" fill-rule="nonzero" fill-opacity="1" /><path clip-path="url(#clip870)" d="M298.094 1371.97 Q294.483 1371.97 292.654 1375.54 Q290.848 1379.08 290.848 1386.21 Q290.848 1393.32 292.654 1396.88 Q294.483 1400.42 298.094 1400.42 Q301.728 1400.42 303.533 1396.88 Q305.362 1393.32 305.362 1386.21 Q305.362 1379.08 303.533 1375.54 Q301.728 1371.97 298.094 1371.97 M298.094 1368.27 Q303.904 1368.27 306.959 1372.88 Q310.038 1377.46 310.038 1386.21 Q310.038 1394.94 306.959 1399.54 Q303.904 1404.13 298.094 1404.13 Q292.283 1404.13 289.205 1399.54 Q286.149 1394.94 286.149 1386.21 Q286.149 1377.46 289.205 1372.88 Q292.283 1368.27 298.094 1368.27 Z" fill="#000000" fill-rule="nonzero" fill-opacity="1" /><path clip-path="url(#clip870)" d="M173.928 1075.95 L203.603 1075.95 L203.603 1079.89 L173.928 1079.89 L173.928 1075.95 Z" fill="#000000" fill-rule="nonzero" fill-opacity="1" /><path clip-path="url(#clip870)" d="M223.696 1061.3 Q220.085 1061.3 218.256 1064.86 Q216.451 1068.4 216.451 1075.53 Q216.451 1082.64 218.256 1086.21 Q220.085 1089.75 223.696 1089.75 Q227.33 1089.75 229.136 1086.21 Q230.964 1082.64 230.964 1075.53 Q230.964 1068.4 229.136 1064.86 Q227.33 1061.3 223.696 1061.3 M223.696 1057.59 Q229.506 1057.59 232.562 1062.2 Q235.64 1066.78 235.64 1075.53 Q235.64 1084.26 232.562 1088.87 Q229.506 1093.45 223.696 1093.45 Q217.886 1093.45 214.807 1088.87 Q211.752 1084.26 211.752 1075.53 Q211.752 1066.78 214.807 1062.2 Q217.886 1057.59 223.696 1057.59 Z" fill="#000000" fill-rule="nonzero" fill-opacity="1" /><path clip-path="url(#clip870)" d="M243.858 1086.9 L248.742 1086.9 L248.742 1092.78 L243.858 1092.78 L243.858 1086.9 Z" fill="#000000" fill-rule="nonzero" fill-opacity="1" /><path clip-path="url(#clip870)" d="M257.747 1058.22 L279.969 1058.22 L279.969 1060.21 L267.423 1092.78 L262.538 1092.78 L274.344 1062.15 L257.747 1062.15 L257.747 1058.22 Z" fill="#000000" fill-rule="nonzero" fill-opacity="1" /><path clip-path="url(#clip870)" d="M289.135 1058.22 L307.492 1058.22 L307.492 1062.15 L293.418 1062.15 L293.418 1070.63 Q294.436 1070.28 295.455 1070.12 Q296.473 1069.93 297.492 1069.93 Q303.279 1069.93 306.658 1073.1 Q310.038 1076.27 310.038 1081.69 Q310.038 1087.27 306.566 1090.37 Q303.094 1093.45 296.774 1093.45 Q294.598 1093.45 292.33 1093.08 Q290.084 1092.71 287.677 1091.97 L287.677 1087.27 Q289.76 1088.4 291.983 1088.96 Q294.205 1089.52 296.682 1089.52 Q300.686 1089.52 303.024 1087.41 Q305.362 1085.3 305.362 1081.69 Q305.362 1078.08 303.024 1075.97 Q300.686 1073.87 296.682 1073.87 Q294.807 1073.87 292.932 1074.28 Q291.08 1074.7 289.135 1075.58 L289.135 1058.22 Z" fill="#000000" fill-rule="nonzero" fill-opacity="1" /><path clip-path="url(#clip870)" d="M172.932 765.275 L202.608 765.275 L202.608 769.21 L172.932 769.21 L172.932 765.275 Z" fill="#000000" fill-rule="nonzero" fill-opacity="1" /><path clip-path="url(#clip870)" d="M222.701 750.623 Q219.089 750.623 217.261 754.187 Q215.455 757.729 215.455 764.859 Q215.455 771.965 217.261 775.53 Q219.089 779.072 222.701 779.072 Q226.335 779.072 228.14 775.53 Q229.969 771.965 229.969 764.859 Q229.969 757.729 228.14 754.187 Q226.335 750.623 222.701 750.623 M222.701 746.919 Q228.511 746.919 231.566 751.525 Q234.645 756.109 234.645 764.859 Q234.645 773.585 231.566 778.192 Q228.511 782.775 222.701 782.775 Q216.89 782.775 213.812 778.192 Q210.756 773.585 210.756 764.859 Q210.756 756.109 213.812 751.525 Q216.89 746.919 222.701 746.919 Z" fill="#000000" fill-rule="nonzero" fill-opacity="1" /><path clip-path="url(#clip870)" d="M242.862 776.224 L247.747 776.224 L247.747 782.104 L242.862 782.104 L242.862 776.224 Z" fill="#000000" fill-rule="nonzero" fill-opacity="1" /><path clip-path="url(#clip870)" d="M257.978 747.544 L276.335 747.544 L276.335 751.479 L262.261 751.479 L262.261 759.951 Q263.279 759.604 264.298 759.442 Q265.316 759.257 266.335 759.257 Q272.122 759.257 275.501 762.428 Q278.881 765.599 278.881 771.016 Q278.881 776.595 275.409 779.697 Q271.936 782.775 265.617 782.775 Q263.441 782.775 261.173 782.405 Q258.927 782.034 256.52 781.294 L256.52 776.595 Q258.603 777.729 260.825 778.285 Q263.048 778.84 265.524 778.84 Q269.529 778.84 271.867 776.734 Q274.205 774.627 274.205 771.016 Q274.205 767.405 271.867 765.298 Q269.529 763.192 265.524 763.192 Q263.649 763.192 261.774 763.609 Q259.923 764.025 257.978 764.905 L257.978 747.544 Z" fill="#000000" fill-rule="nonzero" fill-opacity="1" /><path clip-path="url(#clip870)" d="M298.094 750.623 Q294.483 750.623 292.654 754.187 Q290.848 757.729 290.848 764.859 Q290.848 771.965 292.654 775.53 Q294.483 779.072 298.094 779.072 Q301.728 779.072 303.533 775.53 Q305.362 771.965 305.362 764.859 Q305.362 757.729 303.533 754.187 Q301.728 750.623 298.094 750.623 M298.094 746.919 Q303.904 746.919 306.959 751.525 Q310.038 756.109 310.038 764.859 Q310.038 773.585 306.959 778.192 Q303.904 782.775 298.094 782.775 Q292.283 782.775 289.205 778.192 Q286.149 773.585 286.149 764.859 Q286.149 756.109 289.205 751.525 Q292.283 746.919 298.094 746.919 Z" fill="#000000" fill-rule="nonzero" fill-opacity="1" /><path clip-path="url(#clip870)" d="M173.928 454.6 L203.603 454.6 L203.603 458.535 L173.928 458.535 L173.928 454.6 Z" fill="#000000" fill-rule="nonzero" fill-opacity="1" /><path clip-path="url(#clip870)" d="M223.696 439.947 Q220.085 439.947 218.256 443.512 Q216.451 447.054 216.451 454.183 Q216.451 461.29 218.256 464.855 Q220.085 468.396 223.696 468.396 Q227.33 468.396 229.136 464.855 Q230.964 461.29 230.964 454.183 Q230.964 447.054 229.136 443.512 Q227.33 439.947 223.696 439.947 M223.696 436.244 Q229.506 436.244 232.562 440.85 Q235.64 445.433 235.64 454.183 Q235.64 462.91 232.562 467.517 Q229.506 472.1 223.696 472.1 Q217.886 472.1 214.807 467.517 Q211.752 462.91 211.752 454.183 Q211.752 445.433 214.807 440.85 Q217.886 436.244 223.696 436.244 Z" fill="#000000" fill-rule="nonzero" fill-opacity="1" /><path clip-path="url(#clip870)" d="M243.858 465.549 L248.742 465.549 L248.742 471.429 L243.858 471.429 L243.858 465.549 Z" fill="#000000" fill-rule="nonzero" fill-opacity="1" /><path clip-path="url(#clip870)" d="M262.955 467.493 L279.274 467.493 L279.274 471.429 L257.33 471.429 L257.33 467.493 Q259.992 464.739 264.575 460.109 Q269.182 455.456 270.362 454.114 Q272.608 451.591 273.487 449.855 Q274.39 448.095 274.39 446.406 Q274.39 443.651 272.446 441.915 Q270.524 440.179 267.423 440.179 Q265.223 440.179 262.77 440.943 Q260.339 441.706 257.561 443.257 L257.561 438.535 Q260.386 437.401 262.839 436.822 Q265.293 436.244 267.33 436.244 Q272.7 436.244 275.895 438.929 Q279.089 441.614 279.089 446.105 Q279.089 448.234 278.279 450.156 Q277.492 452.054 275.385 454.646 Q274.807 455.318 271.705 458.535 Q268.603 461.73 262.955 467.493 Z" fill="#000000" fill-rule="nonzero" fill-opacity="1" /><path clip-path="url(#clip870)" d="M289.135 436.869 L307.492 436.869 L307.492 440.804 L293.418 440.804 L293.418 449.276 Q294.436 448.929 295.455 448.767 Q296.473 448.581 297.492 448.581 Q303.279 448.581 306.658 451.753 Q310.038 454.924 310.038 460.341 Q310.038 465.919 306.566 469.021 Q303.094 472.1 296.774 472.1 Q294.598 472.1 292.33 471.729 Q290.084 471.359 287.677 470.618 L287.677 465.919 Q289.76 467.054 291.983 467.609 Q294.205 468.165 296.682 468.165 Q300.686 468.165 303.024 466.058 Q305.362 463.952 305.362 460.341 Q305.362 456.73 303.024 454.623 Q300.686 452.517 296.682 452.517 Q294.807 452.517 292.932 452.933 Q291.08 453.35 289.135 454.23 L289.135 436.869 Z" fill="#000000" fill-rule="nonzero" fill-opacity="1" /><path clip-path="url(#clip870)" d="M222.701 129.272 Q219.089 129.272 217.261 132.837 Q215.455 136.378 215.455 143.508 Q215.455 150.614 217.261 154.179 Q219.089 157.721 222.701 157.721 Q226.335 157.721 228.14 154.179 Q229.969 150.614 229.969 143.508 Q229.969 136.378 228.14 132.837 Q226.335 129.272 222.701 129.272 M222.701 125.568 Q228.511 125.568 231.566 130.175 Q234.645 134.758 234.645 143.508 Q234.645 152.235 231.566 156.841 Q228.511 161.424 222.701 161.424 Q216.89 161.424 213.812 156.841 Q210.756 152.235 210.756 143.508 Q210.756 134.758 213.812 130.175 Q216.89 125.568 222.701 125.568 Z" fill="#000000" fill-rule="nonzero" fill-opacity="1" /><path clip-path="url(#clip870)" d="M242.862 154.874 L247.747 154.874 L247.747 160.753 L242.862 160.753 L242.862 154.874 Z" fill="#000000" fill-rule="nonzero" fill-opacity="1" /><path clip-path="url(#clip870)" d="M267.932 129.272 Q264.321 129.272 262.492 132.837 Q260.686 136.378 260.686 143.508 Q260.686 150.614 262.492 154.179 Q264.321 157.721 267.932 157.721 Q271.566 157.721 273.372 154.179 Q275.2 150.614 275.2 143.508 Q275.2 136.378 273.372 132.837 Q271.566 129.272 267.932 129.272 M267.932 125.568 Q273.742 125.568 276.797 130.175 Q279.876 134.758 279.876 143.508 Q279.876 152.235 276.797 156.841 Q273.742 161.424 267.932 161.424 Q262.122 161.424 259.043 156.841 Q255.987 152.235 255.987 143.508 Q255.987 134.758 259.043 130.175 Q262.122 125.568 267.932 125.568 Z" fill="#000000" fill-rule="nonzero" fill-opacity="1" /><path clip-path="url(#clip870)" d="M298.094 129.272 Q294.483 129.272 292.654 132.837 Q290.848 136.378 290.848 143.508 Q290.848 150.614 292.654 154.179 Q294.483 157.721 298.094 157.721 Q301.728 157.721 303.533 154.179 Q305.362 150.614 305.362 143.508 Q305.362 136.378 303.533 132.837 Q301.728 129.272 298.094 129.272 M298.094 125.568 Q303.904 125.568 306.959 130.175 Q310.038 134.758 310.038 143.508 Q310.038 152.235 306.959 156.841 Q303.904 161.424 298.094 161.424 Q292.283 161.424 289.205 156.841 Q286.149 152.235 286.149 143.508 Q286.149 134.758 289.205 130.175 Q292.283 125.568 298.094 125.568 Z" fill="#000000" fill-rule="nonzero" fill-opacity="1" /><path clip-path="url(#clip870)" d="M91.565 760.947 L107.335 772.665 L123.972 760.339 L123.972 766.618 L111.241 776.051 L123.972 785.484 L123.972 791.762 L107.016 779.176 L91.565 790.692 L91.565 784.413 L103.11 775.819 L91.565 767.226 L91.565 760.947 Z" fill="#000000" fill-rule="nonzero" fill-opacity="1" /><path clip-path="url(#clip870)" d="M120.789 753.886 L120.789 747.984 L103.11 747.984 L104.296 754.436 L100.94 754.436 L99.8115 747.781 L99.8115 743.817 L120.789 743.817 L120.789 737.885 L123.972 737.885 L123.972 753.886 L120.789 753.886 Z" fill="#000000" fill-rule="nonzero" fill-opacity="1" /><path clip-path="url(#clip870)" d="M1300.55 20.3876 L1300.55 25.4223 Q1298.3 24.2649 1295.87 23.6862 Q1293.44 23.1075 1290.83 23.1075 Q1286.87 23.1075 1284.87 24.3228 Q1282.9 25.5381 1282.9 27.9686 Q1282.9 29.8204 1284.32 30.891 Q1285.74 31.9327 1290.02 32.8876 L1291.85 33.2926 Q1297.52 34.5079 1299.89 36.7359 Q1302.29 38.935 1302.29 42.8991 Q1302.29 47.4129 1298.7 50.046 Q1295.14 52.6791 1288.89 52.6791 Q1286.29 52.6791 1283.45 52.1583 Q1280.65 51.6664 1277.52 50.6537 L1277.52 45.156 Q1280.47 46.6896 1283.34 47.4708 Q1286.2 48.2231 1289.01 48.2231 Q1292.77 48.2231 1294.8 46.95 Q1296.82 45.6479 1296.82 43.3042 Q1296.82 41.134 1295.35 39.9766 Q1293.9 38.8192 1288.95 37.7486 L1287.1 37.3146 Q1282.15 36.273 1279.95 34.1318 Q1277.75 31.9616 1277.75 28.2001 Q1277.75 23.6283 1280.99 21.1399 Q1284.24 18.6515 1290.2 18.6515 Q1293.15 18.6515 1295.75 19.0855 Q1298.36 19.5196 1300.55 20.3876 Z" fill="#000000" fill-rule="nonzero" fill-opacity="1" /><path clip-path="url(#clip870)" d="M1316.03 10.2314 L1316.03 19.4328 L1327 19.4328 L1327 23.5705 L1316.03 23.5705 L1316.03 41.163 Q1316.03 45.1271 1317.11 46.2555 Q1318.21 47.384 1321.53 47.384 L1327 47.384 L1327 51.84 L1321.53 51.84 Q1315.37 51.84 1313.03 49.5541 Q1310.68 47.2393 1310.68 41.163 L1310.68 23.5705 L1306.78 23.5705 L1306.78 19.4328 L1310.68 19.4328 L1310.68 10.2314 L1316.03 10.2314 Z" fill="#000000" fill-rule="nonzero" fill-opacity="1" /><path clip-path="url(#clip870)" d="M1348.73 35.5496 Q1342.28 35.5496 1339.79 37.0253 Q1337.3 38.501 1337.3 42.06 Q1337.3 44.8956 1339.15 46.5738 Q1341.03 48.2231 1344.25 48.2231 Q1348.67 48.2231 1351.34 45.0981 Q1354.03 41.9442 1354.03 36.7359 L1354.03 35.5496 L1348.73 35.5496 M1359.35 33.3505 L1359.35 51.84 L1354.03 51.84 L1354.03 46.921 Q1352.2 49.8724 1349.48 51.2902 Q1346.76 52.6791 1342.83 52.6791 Q1337.85 52.6791 1334.9 49.9014 Q1331.98 47.0947 1331.98 42.4072 Q1331.98 36.9385 1335.62 34.1607 Q1339.3 31.3829 1346.56 31.3829 L1354.03 31.3829 L1354.03 30.8621 Q1354.03 27.1874 1351.6 25.1908 Q1349.19 23.1654 1344.83 23.1654 Q1342.05 23.1654 1339.41 23.8309 Q1336.78 24.4964 1334.35 25.8274 L1334.35 20.9085 Q1337.27 19.78 1340.02 19.2302 Q1342.77 18.6515 1345.37 18.6515 Q1352.41 18.6515 1355.88 22.2973 Q1359.35 25.9431 1359.35 33.3505 Z" fill="#000000" fill-rule="nonzero" fill-opacity="1" /><path clip-path="url(#clip870)" d="M1375.58 10.2314 L1375.58 19.4328 L1386.55 19.4328 L1386.55 23.5705 L1375.58 23.5705 L1375.58 41.163 Q1375.58 45.1271 1376.65 46.2555 Q1377.75 47.384 1381.08 47.384 L1386.55 47.384 L1386.55 51.84 L1381.08 51.84 Q1374.92 51.84 1372.57 49.5541 Q1370.23 47.2393 1370.23 41.163 L1370.23 23.5705 L1366.32 23.5705 L1366.32 19.4328 L1370.23 19.4328 L1370.23 10.2314 L1375.58 10.2314 Z" fill="#000000" fill-rule="nonzero" fill-opacity="1" /><path clip-path="url(#clip870)" d="M1421.27 34.3054 L1421.27 36.9095 L1396.79 36.9095 Q1397.14 42.4072 1400.09 45.3007 Q1403.07 48.1653 1408.37 48.1653 Q1411.43 48.1653 1414.3 47.4129 Q1417.19 46.6606 1420.03 45.156 L1420.03 50.1907 Q1417.16 51.406 1414.15 52.0425 Q1411.14 52.6791 1408.05 52.6791 Q1400.29 52.6791 1395.75 48.1653 Q1391.24 43.6514 1391.24 35.9547 Q1391.24 27.9975 1395.52 23.339 Q1399.83 18.6515 1407.12 18.6515 Q1413.66 18.6515 1417.45 22.876 Q1421.27 27.0716 1421.27 34.3054 M1415.95 32.7429 Q1415.89 28.3737 1413.49 25.7695 Q1411.12 23.1654 1407.18 23.1654 Q1402.72 23.1654 1400.03 25.6827 Q1397.37 28.2001 1396.97 32.7718 L1415.95 32.7429 Z" fill="#000000" fill-rule="nonzero" fill-opacity="1" /><polyline clip-path="url(#clip871)" style="stroke:#009af9; stroke-linecap:round; stroke-linejoin:round; stroke-width:8; stroke-opacity:1; fill:none" points="402.832,1386.17 410.404,1386.12 417.977,1385.94 425.549,1385.64 433.122,1385.23 440.695,1384.7 448.267,1384.06 455.84,1383.31 463.412,1382.44 470.985,1381.46 478.557,1380.37 486.13,1379.17 493.702,1377.86 501.275,1376.44 508.847,1374.92 516.42,1373.29 523.992,1371.56 531.565,1369.72 539.137,1367.78 546.71,1365.73 554.282,1363.59 561.855,1361.34 569.427,1359 577,1356.56 584.572,1354.02 592.145,1351.38 599.717,1348.65 607.29,1345.82 614.863,1342.9 622.435,1339.89 630.008,1336.79 637.58,1333.59 645.153,1330.31 652.725,1326.93 660.298,1323.47 667.87,1319.93 675.443,1316.29 683.015,1312.57 690.588,1308.77 698.16,1304.88 705.733,1300.92 713.305,1296.87 720.878,1292.74 728.45,1288.53 736.023,1284.24 743.595,1279.88 751.168,1275.44 758.74,1270.93 766.313,1266.34 773.885,1261.67 781.458,1256.94 789.03,1252.13 796.603,1247.25 804.176,1242.3 811.748,1237.29 819.321,1232.2 826.893,1227.05 834.466,1221.83 842.038,1216.55 849.611,1211.2 857.183,1205.8 864.756,1200.33 872.328,1194.79 879.901,1189.2 887.473,1183.55 895.046,1177.84 902.618,1172.07 910.191,1166.25 917.763,1160.37 925.336,1154.44 932.908,1148.45 940.481,1142.41 948.053,1136.32 955.626,1130.18 963.198,1123.99 970.771,1117.75 978.343,1111.47 985.916,1105.13 993.489,1098.75 1001.06,1092.33 1008.63,1085.86 1016.21,1079.35 1023.78,1072.8 1031.35,1066.2 1038.92,1059.57 1046.5,1052.89 1054.07,1046.18 1061.64,1039.43 1069.21,1032.65 1076.79,1025.83 1084.36,1018.97 1091.93,1012.08 1099.5,1005.16 1107.08,998.212 1114.65,991.229 1122.22,984.217 1129.79,977.176 1137.37,970.107 1144.94,963.012 1152.51,955.891 1160.08,948.745 1167.66,941.575 1175.23,934.382 1182.8,927.168 1190.37,919.932 1197.95,912.676 1205.52,905.402 1213.09,898.109 1220.66,890.799 1228.24,883.472 1235.81,876.131 1243.38,868.775 1250.95,861.406 1258.53,854.024 1266.1,846.631 1273.67,839.227 1281.24,831.814 1288.82,824.392 1296.39,816.963 1303.96,809.527 1311.53,802.085 1319.11,794.639 1326.68,787.188 1334.25,779.735 1341.82,772.28 1349.4,764.824 1356.97,757.368 1364.54,749.913 1372.11,742.459 1379.69,735.009 1387.26,727.563 1394.83,720.121 1402.4,712.685 1409.98,705.255 1417.55,697.834 1425.12,690.421 1432.69,683.017 1440.27,675.624 1447.84,668.242 1455.41,660.873 1462.98,653.517 1470.56,646.175 1478.13,638.849 1485.7,631.539 1493.27,624.246 1500.85,616.972 1508.42,609.716 1515.99,602.48 1523.56,595.266 1531.14,588.073 1538.71,580.903 1546.28,573.757 1553.86,566.636 1561.43,559.541 1569,552.472 1576.57,545.431 1584.15,538.419 1591.72,531.436 1599.29,524.484 1606.86,517.563 1614.44,510.675 1622.01,503.82 1629.58,497 1637.15,490.215 1644.73,483.466 1652.3,476.754 1659.87,470.081 1667.44,463.447 1675.02,456.852 1682.59,450.299 1690.16,443.788 1697.73,437.32 1705.31,430.895 1712.88,424.516 1720.45,418.182 1728.02,411.895 1735.6,405.656 1743.17,399.465 1750.74,393.324 1758.31,387.234 1765.89,381.195 1773.46,375.209 1781.03,369.276 1788.6,363.398 1796.18,357.575 1803.75,351.808 1811.32,346.098 1818.89,340.447 1826.47,334.855 1834.04,329.323 1841.61,323.852 1849.18,318.443 1856.76,313.097 1864.33,307.815 1871.9,302.598 1879.47,297.447 1887.05,292.363 1894.62,287.346 1902.19,282.398 1909.76,277.52 1917.34,272.712 1924.91,267.976 1932.48,263.313 1940.05,258.723 1947.63,254.207 1955.2,249.767 1962.77,245.403 1970.34,241.117 1977.92,236.908 1985.49,232.779 1993.06,228.731 2000.63,224.763 2008.21,220.877 2015.78,217.075 2023.35,213.356 2030.92,209.722 2038.5,206.175 2046.07,202.714 2053.64,199.341 2061.21,196.056 2068.79,192.862 2076.36,189.758 2083.93,186.745 2091.5,183.825 2099.08,180.999 2106.65,178.267 2114.22,175.631 2121.79,173.091 2129.37,170.649 2136.94,168.304 2144.51,166.059 2152.08,163.914 2159.66,161.871 2167.23,159.929 2174.8,158.091 2182.37,156.357 2189.95,154.727 2197.52,153.204 2205.09,151.787 2212.66,150.478 2220.24,149.278 2227.81,148.188 2235.38,147.209 2242.95,146.341 2250.53,145.586 2258.1,144.944 2265.67,144.417 2273.24,144.005 2280.82,143.71 2288.39,143.533 2295.96,143.473 "/>
<polyline clip-path="url(#clip871)" style="stroke:#000000; stroke-linecap:round; stroke-linejoin:round; stroke-width:4; stroke-opacity:1; fill:none" stroke-dasharray="16, 10" points="402.832,2740.72 402.832,-1211.07 "/>
<polyline clip-path="url(#clip871)" style="stroke:#000000; stroke-linecap:round; stroke-linejoin:round; stroke-width:4; stroke-opacity:1; fill:none" stroke-dasharray="16, 10" points="2295.96,2740.72 2295.96,-1211.07 "/>
</svg>
