<?xml version="1.0" encoding="utf-8"?>
<svg xmlns="http://www.w3.org/2000/svg" xmlns:xlink="http://www.w3.org/1999/xlink" width="600" height="400" viewBox="0 0 2400 1600">
<defs>
  <clipPath id="clip580">
    <rect x="0" y="0" width="2400" height="1600"/>
  </clipPath>
</defs>
<path clip-path="url(#clip580)" d="M0 1600 L2400 1600 L2400 0 L0 0  Z" fill="#ffffff" fill-rule="evenodd" fill-opacity="1"/>
<defs>
  <clipPath id="clip581">
    <rect x="480" y="0" width="1681" height="1600"/>
  </clipPath>
</defs>
<path clip-path="url(#clip580)" d="M284.38 1427.5 L2352.76 1427.5 L2352.76 106.192 L284.38 106.192  Z" fill="#ffffff" fill-rule="evenodd" fill-opacity="1"/>
<defs>
  <clipPath id="clip582">
    <rect x="284" y="106" width="2069" height="1322"/>
  </clipPath>
</defs>
<polyline clip-path="url(#clip582)" style="stroke:#000000; stroke-linecap:round; stroke-linejoin:round; stroke-width:2; stroke-opacity:0.1; fill:none" points="342.919,1427.5 342.919,106.192 "/>
<polyline clip-path="url(#clip582)" style="stroke:#000000; stroke-linecap:round; stroke-linejoin:round; stroke-width:2; stroke-opacity:0.1; fill:none" points="830.744,1427.5 830.744,106.192 "/>
<polyline clip-path="url(#clip582)" style="stroke:#000000; stroke-linecap:round; stroke-linejoin:round; stroke-width:2; stroke-opacity:0.1; fill:none" points="1318.57,1427.5 1318.57,106.192 "/>
<polyline clip-path="url(#clip582)" style="stroke:#000000; stroke-linecap:round; stroke-linejoin:round; stroke-width:2; stroke-opacity:0.1; fill:none" points="1806.39,1427.5 1806.39,106.192 "/>
<polyline clip-path="url(#clip582)" style="stroke:#000000; stroke-linecap:round; stroke-linejoin:round; stroke-width:2; stroke-opacity:0.1; fill:none" points="2294.22,1427.5 2294.22,106.192 "/>
<polyline clip-path="url(#clip582)" style="stroke:#000000; stroke-linecap:round; stroke-linejoin:round; stroke-width:2; stroke-opacity:0.1; fill:none" points="284.38,1288.31 2352.76,1288.31 "/>
<polyline clip-path="url(#clip582)" style="stroke:#000000; stroke-linecap:round; stroke-linejoin:round; stroke-width:2; stroke-opacity:0.1; fill:none" points="284.38,1027.58 2352.76,1027.58 "/>
<polyline clip-path="url(#clip582)" style="stroke:#000000; stroke-linecap:round; stroke-linejoin:round; stroke-width:2; stroke-opacity:0.1; fill:none" points="284.38,766.846 2352.76,766.846 "/>
<polyline clip-path="url(#clip582)" style="stroke:#000000; stroke-linecap:round; stroke-linejoin:round; stroke-width:2; stroke-opacity:0.1; fill:none" points="284.38,506.116 2352.76,506.116 "/>
<polyline clip-path="url(#clip582)" style="stroke:#000000; stroke-linecap:round; stroke-linejoin:round; stroke-width:2; stroke-opacity:0.1; fill:none" points="284.38,245.386 2352.76,245.386 "/>
<polyline clip-path="url(#clip580)" style="stroke:#000000; stroke-linecap:round; stroke-linejoin:round; stroke-width:4; stroke-opacity:1; fill:none" points="284.38,1427.5 2352.76,1427.5 "/>
<polyline clip-path="url(#clip580)" style="stroke:#000000; stroke-linecap:round; stroke-linejoin:round; stroke-width:4; stroke-opacity:1; fill:none" points="342.919,1427.5 342.919,1408.6 "/>
<polyline clip-path="url(#clip580)" style="stroke:#000000; stroke-linecap:round; stroke-linejoin:round; stroke-width:4; stroke-opacity:1; fill:none" points="830.744,1427.5 830.744,1408.6 "/>
<polyline clip-path="url(#clip580)" style="stroke:#000000; stroke-linecap:round; stroke-linejoin:round; stroke-width:4; stroke-opacity:1; fill:none" points="1318.57,1427.5 1318.57,1408.6 "/>
<polyline clip-path="url(#clip580)" style="stroke:#000000; stroke-linecap:round; stroke-linejoin:round; stroke-width:4; stroke-opacity:1; fill:none" points="1806.39,1427.5 1806.39,1408.6 "/>
<polyline clip-path="url(#clip580)" style="stroke:#000000; stroke-linecap:round; stroke-linejoin:round; stroke-width:4; stroke-opacity:1; fill:none" points="2294.22,1427.5 2294.22,1408.6 "/>
<path clip-path="url(#clip580)" d="M305.222 1458.42 Q301.611 1458.42 299.783 1461.98 Q297.977 1465.52 297.977 1472.65 Q297.977 1479.76 299.783 1483.33 Q301.611 1486.87 305.222 1486.87 Q308.857 1486.87 310.662 1483.33 Q312.491 1479.76 312.491 1472.65 Q312.491 1465.52 310.662 1461.98 Q308.857 1458.42 305.222 1458.42 M305.222 1454.71 Q311.033 1454.71 314.088 1459.32 Q317.167 1463.9 317.167 1472.65 Q317.167 1481.38 314.088 1485.99 Q311.033 1490.57 305.222 1490.57 Q299.412 1490.57 296.334 1485.99 Q293.278 1481.38 293.278 1472.65 Q293.278 1463.9 296.334 1459.32 Q299.412 1454.71 305.222 1454.71 Z" fill="#000000" fill-rule="nonzero" fill-opacity="1" /><path clip-path="url(#clip580)" d="M325.384 1484.02 L330.269 1484.02 L330.269 1489.9 L325.384 1489.9 L325.384 1484.02 Z" fill="#000000" fill-rule="nonzero" fill-opacity="1" /><path clip-path="url(#clip580)" d="M350.454 1458.42 Q346.843 1458.42 345.014 1461.98 Q343.208 1465.52 343.208 1472.65 Q343.208 1479.76 345.014 1483.33 Q346.843 1486.87 350.454 1486.87 Q354.088 1486.87 355.893 1483.33 Q357.722 1479.76 357.722 1472.65 Q357.722 1465.52 355.893 1461.98 Q354.088 1458.42 350.454 1458.42 M350.454 1454.71 Q356.264 1454.71 359.319 1459.32 Q362.398 1463.9 362.398 1472.65 Q362.398 1481.38 359.319 1485.99 Q356.264 1490.57 350.454 1490.57 Q344.644 1490.57 341.565 1485.99 Q338.509 1481.38 338.509 1472.65 Q338.509 1463.9 341.565 1459.32 Q344.644 1454.71 350.454 1454.71 Z" fill="#000000" fill-rule="nonzero" fill-opacity="1" /><path clip-path="url(#clip580)" d="M380.616 1458.42 Q377.004 1458.42 375.176 1461.98 Q373.37 1465.52 373.37 1472.65 Q373.37 1479.76 375.176 1483.33 Q377.004 1486.87 380.616 1486.87 Q384.25 1486.87 386.055 1483.33 Q387.884 1479.76 387.884 1472.65 Q387.884 1465.52 386.055 1461.98 Q384.25 1458.42 380.616 1458.42 M380.616 1454.71 Q386.426 1454.71 389.481 1459.32 Q392.56 1463.9 392.56 1472.65 Q392.56 1481.38 389.481 1485.99 Q386.426 1490.57 380.616 1490.57 Q374.805 1490.57 371.727 1485.99 Q368.671 1481.38 368.671 1472.65 Q368.671 1463.9 371.727 1459.32 Q374.805 1454.71 380.616 1454.71 Z" fill="#000000" fill-rule="nonzero" fill-opacity="1" /><path clip-path="url(#clip580)" d="M793.545 1458.42 Q789.934 1458.42 788.105 1461.98 Q786.299 1465.52 786.299 1472.65 Q786.299 1479.76 788.105 1483.33 Q789.934 1486.87 793.545 1486.87 Q797.179 1486.87 798.984 1483.33 Q800.813 1479.76 800.813 1472.65 Q800.813 1465.52 798.984 1461.98 Q797.179 1458.42 793.545 1458.42 M793.545 1454.71 Q799.355 1454.71 802.41 1459.32 Q805.489 1463.9 805.489 1472.65 Q805.489 1481.38 802.41 1485.99 Q799.355 1490.57 793.545 1490.57 Q787.734 1490.57 784.656 1485.99 Q781.6 1481.38 781.6 1472.65 Q781.6 1463.9 784.656 1459.32 Q787.734 1454.71 793.545 1454.71 Z" fill="#000000" fill-rule="nonzero" fill-opacity="1" /><path clip-path="url(#clip580)" d="M813.707 1484.02 L818.591 1484.02 L818.591 1489.9 L813.707 1489.9 L813.707 1484.02 Z" fill="#000000" fill-rule="nonzero" fill-opacity="1" /><path clip-path="url(#clip580)" d="M832.804 1485.96 L849.123 1485.96 L849.123 1489.9 L827.179 1489.9 L827.179 1485.96 Q829.841 1483.21 834.424 1478.58 Q839.031 1473.93 840.211 1472.59 Q842.456 1470.06 843.336 1468.33 Q844.239 1466.57 844.239 1464.88 Q844.239 1462.12 842.294 1460.39 Q840.373 1458.65 837.271 1458.65 Q835.072 1458.65 832.619 1459.41 Q830.188 1460.18 827.41 1461.73 L827.41 1457.01 Q830.234 1455.87 832.688 1455.29 Q835.142 1454.71 837.179 1454.71 Q842.549 1454.71 845.743 1457.4 Q848.938 1460.09 848.938 1464.58 Q848.938 1466.71 848.128 1468.63 Q847.341 1470.52 845.234 1473.12 Q844.655 1473.79 841.554 1477.01 Q838.452 1480.2 832.804 1485.96 Z" fill="#000000" fill-rule="nonzero" fill-opacity="1" /><path clip-path="url(#clip580)" d="M858.984 1455.34 L877.34 1455.34 L877.34 1459.28 L863.266 1459.28 L863.266 1467.75 Q864.285 1467.4 865.304 1467.24 Q866.322 1467.05 867.341 1467.05 Q873.128 1467.05 876.507 1470.22 Q879.887 1473.4 879.887 1478.81 Q879.887 1484.39 876.415 1487.49 Q872.942 1490.57 866.623 1490.57 Q864.447 1490.57 862.179 1490.2 Q859.933 1489.83 857.526 1489.09 L857.526 1484.39 Q859.609 1485.52 861.831 1486.08 Q864.054 1486.64 866.53 1486.64 Q870.535 1486.64 872.873 1484.53 Q875.211 1482.42 875.211 1478.81 Q875.211 1475.2 872.873 1473.09 Q870.535 1470.99 866.53 1470.99 Q864.655 1470.99 862.78 1471.4 Q860.929 1471.82 858.984 1472.7 L858.984 1455.34 Z" fill="#000000" fill-rule="nonzero" fill-opacity="1" /><path clip-path="url(#clip580)" d="M1280.87 1458.42 Q1277.26 1458.42 1275.43 1461.98 Q1273.63 1465.52 1273.63 1472.65 Q1273.63 1479.76 1275.43 1483.33 Q1277.26 1486.87 1280.87 1486.87 Q1284.51 1486.87 1286.31 1483.33 Q1288.14 1479.76 1288.14 1472.65 Q1288.14 1465.52 1286.31 1461.98 Q1284.51 1458.42 1280.87 1458.42 M1280.87 1454.71 Q1286.68 1454.71 1289.74 1459.32 Q1292.82 1463.9 1292.82 1472.65 Q1292.82 1481.38 1289.74 1485.99 Q1286.68 1490.57 1280.87 1490.57 Q1275.06 1490.57 1271.98 1485.99 Q1268.93 1481.38 1268.93 1472.65 Q1268.93 1463.9 1271.98 1459.32 Q1275.06 1454.71 1280.87 1454.71 Z" fill="#000000" fill-rule="nonzero" fill-opacity="1" /><path clip-path="url(#clip580)" d="M1301.03 1484.02 L1305.92 1484.02 L1305.92 1489.9 L1301.03 1489.9 L1301.03 1484.02 Z" fill="#000000" fill-rule="nonzero" fill-opacity="1" /><path clip-path="url(#clip580)" d="M1316.15 1455.34 L1334.51 1455.34 L1334.51 1459.28 L1320.43 1459.28 L1320.43 1467.75 Q1321.45 1467.4 1322.47 1467.24 Q1323.49 1467.05 1324.51 1467.05 Q1330.29 1467.05 1333.67 1470.22 Q1337.05 1473.4 1337.05 1478.81 Q1337.05 1484.39 1333.58 1487.49 Q1330.11 1490.57 1323.79 1490.57 Q1321.61 1490.57 1319.34 1490.2 Q1317.1 1489.83 1314.69 1489.09 L1314.69 1484.39 Q1316.77 1485.52 1319 1486.08 Q1321.22 1486.64 1323.7 1486.64 Q1327.7 1486.64 1330.04 1484.53 Q1332.38 1482.42 1332.38 1478.81 Q1332.38 1475.2 1330.04 1473.09 Q1327.7 1470.99 1323.7 1470.99 Q1321.82 1470.99 1319.95 1471.4 Q1318.09 1471.82 1316.15 1472.7 L1316.15 1455.34 Z" fill="#000000" fill-rule="nonzero" fill-opacity="1" /><path clip-path="url(#clip580)" d="M1356.26 1458.42 Q1352.65 1458.42 1350.82 1461.98 Q1349.02 1465.52 1349.02 1472.65 Q1349.02 1479.76 1350.82 1483.33 Q1352.65 1486.87 1356.26 1486.87 Q1359.9 1486.87 1361.7 1483.33 Q1363.53 1479.76 1363.53 1472.65 Q1363.53 1465.52 1361.7 1461.98 Q1359.9 1458.42 1356.26 1458.42 M1356.26 1454.71 Q1362.07 1454.71 1365.13 1459.32 Q1368.21 1463.9 1368.21 1472.65 Q1368.21 1481.38 1365.13 1485.99 Q1362.07 1490.57 1356.26 1490.57 Q1350.45 1490.57 1347.38 1485.99 Q1344.32 1481.38 1344.32 1472.65 Q1344.32 1463.9 1347.38 1459.32 Q1350.45 1454.71 1356.26 1454.71 Z" fill="#000000" fill-rule="nonzero" fill-opacity="1" /><path clip-path="url(#clip580)" d="M1769.19 1458.42 Q1765.58 1458.42 1763.75 1461.98 Q1761.95 1465.52 1761.95 1472.65 Q1761.95 1479.76 1763.75 1483.33 Q1765.58 1486.87 1769.19 1486.87 Q1772.83 1486.87 1774.63 1483.33 Q1776.46 1479.76 1776.46 1472.65 Q1776.46 1465.52 1774.63 1461.98 Q1772.83 1458.42 1769.19 1458.42 M1769.19 1454.71 Q1775 1454.71 1778.06 1459.32 Q1781.14 1463.9 1781.14 1472.65 Q1781.14 1481.38 1778.06 1485.99 Q1775 1490.57 1769.19 1490.57 Q1763.38 1490.57 1760.3 1485.99 Q1757.25 1481.38 1757.25 1472.65 Q1757.25 1463.9 1760.3 1459.32 Q1763.38 1454.71 1769.19 1454.71 Z" fill="#000000" fill-rule="nonzero" fill-opacity="1" /><path clip-path="url(#clip580)" d="M1789.36 1484.02 L1794.24 1484.02 L1794.24 1489.9 L1789.36 1489.9 L1789.36 1484.02 Z" fill="#000000" fill-rule="nonzero" fill-opacity="1" /><path clip-path="url(#clip580)" d="M1803.24 1455.34 L1825.47 1455.34 L1825.47 1457.33 L1812.92 1489.9 L1808.04 1489.9 L1819.84 1459.28 L1803.24 1459.28 L1803.24 1455.34 Z" fill="#000000" fill-rule="nonzero" fill-opacity="1" /><path clip-path="url(#clip580)" d="M1834.63 1455.34 L1852.99 1455.34 L1852.99 1459.28 L1838.92 1459.28 L1838.92 1467.75 Q1839.93 1467.4 1840.95 1467.24 Q1841.97 1467.05 1842.99 1467.05 Q1848.78 1467.05 1852.16 1470.22 Q1855.54 1473.4 1855.54 1478.81 Q1855.54 1484.39 1852.06 1487.49 Q1848.59 1490.57 1842.27 1490.57 Q1840.1 1490.57 1837.83 1490.2 Q1835.58 1489.83 1833.17 1489.09 L1833.17 1484.39 Q1835.26 1485.52 1837.48 1486.08 Q1839.7 1486.64 1842.18 1486.64 Q1846.18 1486.64 1848.52 1484.53 Q1850.86 1482.42 1850.86 1478.81 Q1850.86 1475.2 1848.52 1473.09 Q1846.18 1470.99 1842.18 1470.99 Q1840.3 1470.99 1838.43 1471.4 Q1836.58 1471.82 1834.63 1472.7 L1834.63 1455.34 Z" fill="#000000" fill-rule="nonzero" fill-opacity="1" /><path clip-path="url(#clip580)" d="M2246.29 1485.96 L2253.93 1485.96 L2253.93 1459.6 L2245.62 1461.27 L2245.62 1457.01 L2253.88 1455.34 L2258.56 1455.34 L2258.56 1485.96 L2266.2 1485.96 L2266.2 1489.9 L2246.29 1489.9 L2246.29 1485.96 Z" fill="#000000" fill-rule="nonzero" fill-opacity="1" /><path clip-path="url(#clip580)" d="M2275.64 1484.02 L2280.52 1484.02 L2280.52 1489.9 L2275.64 1489.9 L2275.64 1484.02 Z" fill="#000000" fill-rule="nonzero" fill-opacity="1" /><path clip-path="url(#clip580)" d="M2300.71 1458.42 Q2297.1 1458.42 2295.27 1461.98 Q2293.46 1465.52 2293.46 1472.65 Q2293.46 1479.76 2295.27 1483.33 Q2297.1 1486.87 2300.71 1486.87 Q2304.34 1486.87 2306.15 1483.33 Q2307.98 1479.76 2307.98 1472.65 Q2307.98 1465.52 2306.15 1461.98 Q2304.34 1458.42 2300.71 1458.42 M2300.71 1454.71 Q2306.52 1454.71 2309.58 1459.32 Q2312.65 1463.9 2312.65 1472.65 Q2312.65 1481.38 2309.58 1485.99 Q2306.52 1490.57 2300.71 1490.57 Q2294.9 1490.57 2291.82 1485.99 Q2288.77 1481.38 2288.77 1472.65 Q2288.77 1463.9 2291.82 1459.32 Q2294.9 1454.71 2300.71 1454.71 Z" fill="#000000" fill-rule="nonzero" fill-opacity="1" /><path clip-path="url(#clip580)" d="M2330.87 1458.42 Q2327.26 1458.42 2325.43 1461.98 Q2323.63 1465.52 2323.63 1472.65 Q2323.63 1479.76 2325.43 1483.33 Q2327.26 1486.87 2330.87 1486.87 Q2334.51 1486.87 2336.31 1483.33 Q2338.14 1479.76 2338.14 1472.65 Q2338.14 1465.52 2336.31 1461.98 Q2334.51 1458.42 2330.87 1458.42 M2330.87 1454.71 Q2336.68 1454.71 2339.74 1459.32 Q2342.82 1463.9 2342.82 1472.65 Q2342.82 1481.38 2339.74 1485.99 Q2336.68 1490.57 2330.87 1490.57 Q2325.06 1490.57 2321.98 1485.99 Q2318.93 1481.38 2318.93 1472.65 Q2318.93 1463.9 2321.98 1459.32 Q2325.06 1454.71 2330.87 1454.71 Z" fill="#000000" fill-rule="nonzero" fill-opacity="1" /><path clip-path="url(#clip580)" d="M1317.71 1525.57 L1317.71 1534.77 L1328.68 1534.77 L1328.68 1538.91 L1317.71 1538.91 L1317.71 1556.5 Q1317.71 1560.47 1318.79 1561.6 Q1319.88 1562.72 1323.21 1562.72 L1328.68 1562.72 L1328.68 1567.18 L1323.21 1567.18 Q1317.05 1567.18 1314.71 1564.89 Q1312.36 1562.58 1312.36 1556.5 L1312.36 1538.91 L1308.46 1538.91 L1308.46 1534.77 L1312.36 1534.77 L1312.36 1525.57 L1317.71 1525.57 Z" fill="#000000" fill-rule="nonzero" fill-opacity="1" /><polyline clip-path="url(#clip580)" style="stroke:#000000; stroke-linecap:round; stroke-linejoin:round; stroke-width:4; stroke-opacity:1; fill:none" points="284.38,1427.5 284.38,106.192 "/>
<polyline clip-path="url(#clip580)" style="stroke:#000000; stroke-linecap:round; stroke-linejoin:round; stroke-width:4; stroke-opacity:1; fill:none" points="284.38,1288.31 303.278,1288.31 "/>
<polyline clip-path="url(#clip580)" style="stroke:#000000; stroke-linecap:round; stroke-linejoin:round; stroke-width:4; stroke-opacity:1; fill:none" points="284.38,1027.58 303.278,1027.58 "/>
<polyline clip-path="url(#clip580)" style="stroke:#000000; stroke-linecap:round; stroke-linejoin:round; stroke-width:4; stroke-opacity:1; fill:none" points="284.38,766.846 303.278,766.846 "/>
<polyline clip-path="url(#clip580)" style="stroke:#000000; stroke-linecap:round; stroke-linejoin:round; stroke-width:4; stroke-opacity:1; fill:none" points="284.38,506.116 303.278,506.116 "/>
<polyline clip-path="url(#clip580)" style="stroke:#000000; stroke-linecap:round; stroke-linejoin:round; stroke-width:4; stroke-opacity:1; fill:none" points="284.38,245.386 303.278,245.386 "/>
<path clip-path="url(#clip580)" d="M141.436 1288.76 L171.112 1288.76 L171.112 1292.69 L141.436 1292.69 L141.436 1288.76 Z" fill="#000000" fill-rule="nonzero" fill-opacity="1" /><path clip-path="url(#clip580)" d="M181.251 1271.03 L199.607 1271.03 L199.607 1274.96 L185.533 1274.96 L185.533 1283.43 Q186.552 1283.09 187.57 1282.92 Q188.589 1282.74 189.607 1282.74 Q195.394 1282.74 198.774 1285.91 Q202.153 1289.08 202.153 1294.5 Q202.153 1300.08 198.681 1303.18 Q195.209 1306.26 188.89 1306.26 Q186.714 1306.26 184.445 1305.89 Q182.2 1305.52 179.792 1304.78 L179.792 1300.08 Q181.876 1301.21 184.098 1301.77 Q186.32 1302.32 188.797 1302.32 Q192.802 1302.32 195.14 1300.22 Q197.478 1298.11 197.478 1294.5 Q197.478 1290.89 195.14 1288.78 Q192.802 1286.67 188.797 1286.67 Q186.922 1286.67 185.047 1287.09 Q183.195 1287.51 181.251 1288.39 L181.251 1271.03 Z" fill="#000000" fill-rule="nonzero" fill-opacity="1" /><path clip-path="url(#clip580)" d="M211.366 1299.71 L216.251 1299.71 L216.251 1305.59 L211.366 1305.59 L211.366 1299.71 Z" fill="#000000" fill-rule="nonzero" fill-opacity="1" /><path clip-path="url(#clip580)" d="M236.436 1274.1 Q232.825 1274.1 230.996 1277.67 Q229.19 1281.21 229.19 1288.34 Q229.19 1295.45 230.996 1299.01 Q232.825 1302.55 236.436 1302.55 Q240.07 1302.55 241.875 1299.01 Q243.704 1295.45 243.704 1288.34 Q243.704 1281.21 241.875 1277.67 Q240.07 1274.1 236.436 1274.1 M236.436 1270.4 Q242.246 1270.4 245.301 1275.01 Q248.38 1279.59 248.38 1288.34 Q248.38 1297.07 245.301 1301.67 Q242.246 1306.26 236.436 1306.26 Q230.626 1306.26 227.547 1301.67 Q224.491 1297.07 224.491 1288.34 Q224.491 1279.59 227.547 1275.01 Q230.626 1270.4 236.436 1270.4 Z" fill="#000000" fill-rule="nonzero" fill-opacity="1" /><path clip-path="url(#clip580)" d="M142.432 1028.03 L172.107 1028.03 L172.107 1031.96 L142.432 1031.96 L142.432 1028.03 Z" fill="#000000" fill-rule="nonzero" fill-opacity="1" /><path clip-path="url(#clip580)" d="M186.228 1040.92 L202.547 1040.92 L202.547 1044.86 L180.603 1044.86 L180.603 1040.92 Q183.265 1038.17 187.848 1033.54 Q192.454 1028.88 193.635 1027.54 Q195.88 1025.02 196.76 1023.28 Q197.663 1021.52 197.663 1019.83 Q197.663 1017.08 195.718 1015.34 Q193.797 1013.61 190.695 1013.61 Q188.496 1013.61 186.042 1014.37 Q183.612 1015.13 180.834 1016.68 L180.834 1011.96 Q183.658 1010.83 186.112 1010.25 Q188.566 1009.67 190.603 1009.67 Q195.973 1009.67 199.167 1012.36 Q202.362 1015.04 202.362 1019.53 Q202.362 1021.66 201.552 1023.58 Q200.765 1025.48 198.658 1028.07 Q198.079 1028.74 194.978 1031.96 Q191.876 1035.16 186.228 1040.92 Z" fill="#000000" fill-rule="nonzero" fill-opacity="1" /><path clip-path="url(#clip580)" d="M212.362 1038.98 L217.246 1038.98 L217.246 1044.86 L212.362 1044.86 L212.362 1038.98 Z" fill="#000000" fill-rule="nonzero" fill-opacity="1" /><path clip-path="url(#clip580)" d="M227.477 1010.3 L245.834 1010.3 L245.834 1014.23 L231.76 1014.23 L231.76 1022.7 Q232.778 1022.36 233.797 1022.19 Q234.815 1022.01 235.834 1022.01 Q241.621 1022.01 245 1025.18 Q248.38 1028.35 248.38 1033.77 Q248.38 1039.35 244.908 1042.45 Q241.436 1045.53 235.116 1045.53 Q232.94 1045.53 230.672 1045.16 Q228.426 1044.79 226.019 1044.05 L226.019 1039.35 Q228.102 1040.48 230.325 1041.04 Q232.547 1041.59 235.024 1041.59 Q239.028 1041.59 241.366 1039.49 Q243.704 1037.38 243.704 1033.77 Q243.704 1030.16 241.366 1028.05 Q239.028 1025.94 235.024 1025.94 Q233.149 1025.94 231.274 1026.36 Q229.422 1026.78 227.477 1027.66 L227.477 1010.3 Z" fill="#000000" fill-rule="nonzero" fill-opacity="1" /><path clip-path="url(#clip580)" d="M191.204 752.645 Q187.593 752.645 185.765 756.209 Q183.959 759.751 183.959 766.881 Q183.959 773.987 185.765 777.552 Q187.593 781.094 191.204 781.094 Q194.839 781.094 196.644 777.552 Q198.473 773.987 198.473 766.881 Q198.473 759.751 196.644 756.209 Q194.839 752.645 191.204 752.645 M191.204 748.941 Q197.015 748.941 200.07 753.547 Q203.149 758.131 203.149 766.881 Q203.149 775.608 200.07 780.214 Q197.015 784.797 191.204 784.797 Q185.394 784.797 182.316 780.214 Q179.26 775.608 179.26 766.881 Q179.26 758.131 182.316 753.547 Q185.394 748.941 191.204 748.941 Z" fill="#000000" fill-rule="nonzero" fill-opacity="1" /><path clip-path="url(#clip580)" d="M211.366 778.246 L216.251 778.246 L216.251 784.126 L211.366 784.126 L211.366 778.246 Z" fill="#000000" fill-rule="nonzero" fill-opacity="1" /><path clip-path="url(#clip580)" d="M236.436 752.645 Q232.825 752.645 230.996 756.209 Q229.19 759.751 229.19 766.881 Q229.19 773.987 230.996 777.552 Q232.825 781.094 236.436 781.094 Q240.07 781.094 241.875 777.552 Q243.704 773.987 243.704 766.881 Q243.704 759.751 241.875 756.209 Q240.07 752.645 236.436 752.645 M236.436 748.941 Q242.246 748.941 245.301 753.547 Q248.38 758.131 248.38 766.881 Q248.38 775.608 245.301 780.214 Q242.246 784.797 236.436 784.797 Q230.626 784.797 227.547 780.214 Q224.491 775.608 224.491 766.881 Q224.491 758.131 227.547 753.547 Q230.626 748.941 236.436 748.941 Z" fill="#000000" fill-rule="nonzero" fill-opacity="1" /><path clip-path="url(#clip580)" d="M186.228 519.461 L202.547 519.461 L202.547 523.396 L180.603 523.396 L180.603 519.461 Q183.265 516.706 187.848 512.077 Q192.454 507.424 193.635 506.082 Q195.88 503.558 196.76 501.822 Q197.663 500.063 197.663 498.373 Q197.663 495.619 195.718 493.883 Q193.797 492.146 190.695 492.146 Q188.496 492.146 186.042 492.91 Q183.612 493.674 180.834 495.225 L180.834 490.503 Q183.658 489.369 186.112 488.79 Q188.566 488.211 190.603 488.211 Q195.973 488.211 199.167 490.896 Q202.362 493.582 202.362 498.072 Q202.362 500.202 201.552 502.123 Q200.765 504.021 198.658 506.614 Q198.079 507.285 194.978 510.503 Q191.876 513.697 186.228 519.461 Z" fill="#000000" fill-rule="nonzero" fill-opacity="1" /><path clip-path="url(#clip580)" d="M212.362 517.517 L217.246 517.517 L217.246 523.396 L212.362 523.396 L212.362 517.517 Z" fill="#000000" fill-rule="nonzero" fill-opacity="1" /><path clip-path="url(#clip580)" d="M227.477 488.836 L245.834 488.836 L245.834 492.771 L231.76 492.771 L231.76 501.244 Q232.778 500.896 233.797 500.734 Q234.815 500.549 235.834 500.549 Q241.621 500.549 245 503.72 Q248.38 506.892 248.38 512.308 Q248.38 517.887 244.908 520.989 Q241.436 524.068 235.116 524.068 Q232.94 524.068 230.672 523.697 Q228.426 523.327 226.019 522.586 L226.019 517.887 Q228.102 519.021 230.325 519.577 Q232.547 520.132 235.024 520.132 Q239.028 520.132 241.366 518.026 Q243.704 515.919 243.704 512.308 Q243.704 508.697 241.366 506.591 Q239.028 504.484 235.024 504.484 Q233.149 504.484 231.274 504.901 Q229.422 505.318 227.477 506.197 L227.477 488.836 Z" fill="#000000" fill-rule="nonzero" fill-opacity="1" /><path clip-path="url(#clip580)" d="M181.251 228.106 L199.607 228.106 L199.607 232.042 L185.533 232.042 L185.533 240.514 Q186.552 240.167 187.57 240.005 Q188.589 239.819 189.607 239.819 Q195.394 239.819 198.774 242.991 Q202.153 246.162 202.153 251.579 Q202.153 257.157 198.681 260.259 Q195.209 263.338 188.89 263.338 Q186.714 263.338 184.445 262.967 Q182.2 262.597 179.792 261.856 L179.792 257.157 Q181.876 258.292 184.098 258.847 Q186.32 259.403 188.797 259.403 Q192.802 259.403 195.14 257.296 Q197.478 255.19 197.478 251.579 Q197.478 247.967 195.14 245.861 Q192.802 243.755 188.797 243.755 Q186.922 243.755 185.047 244.171 Q183.195 244.588 181.251 245.468 L181.251 228.106 Z" fill="#000000" fill-rule="nonzero" fill-opacity="1" /><path clip-path="url(#clip580)" d="M211.366 256.787 L216.251 256.787 L216.251 262.666 L211.366 262.666 L211.366 256.787 Z" fill="#000000" fill-rule="nonzero" fill-opacity="1" /><path clip-path="url(#clip580)" d="M236.436 231.185 Q232.825 231.185 230.996 234.75 Q229.19 238.292 229.19 245.421 Q229.19 252.528 230.996 256.092 Q232.825 259.634 236.436 259.634 Q240.07 259.634 241.875 256.092 Q243.704 252.528 243.704 245.421 Q243.704 238.292 241.875 234.75 Q240.07 231.185 236.436 231.185 M236.436 227.481 Q242.246 227.481 245.301 232.088 Q248.38 236.671 248.38 245.421 Q248.38 254.148 245.301 258.754 Q242.246 263.338 236.436 263.338 Q230.626 263.338 227.547 258.754 Q224.491 254.148 224.491 245.421 Q224.491 236.671 227.547 232.088 Q230.626 227.481 236.436 227.481 Z" fill="#000000" fill-rule="nonzero" fill-opacity="1" /><path clip-path="url(#clip580)" d="M79.6869 780.417 L60.069 780.417 L60.069 775.092 L79.4844 775.092 Q84.0851 775.092 86.3999 773.298 Q88.6857 771.505 88.6857 767.917 Q88.6857 763.605 85.9369 761.117 Q83.1881 758.6 78.4427 758.6 L60.069 758.6 L60.069 753.275 L92.4762 753.275 L92.4762 758.6 L87.4994 758.6 Q90.4508 760.538 91.8975 763.113 Q93.3153 765.66 93.3153 769.045 Q93.3153 774.63 89.8431 777.523 Q86.3709 780.417 79.6869 780.417 M59.2877 767.02 L59.2877 767.02 Z" fill="#000000" fill-rule="nonzero" fill-opacity="1" /><path clip-path="url(#clip580)" d="M1245.91 20.677 L1245.91 25.6538 Q1243.66 24.4096 1241.37 23.802 Q1239.11 23.1654 1236.8 23.1654 Q1231.62 23.1654 1228.75 26.464 Q1225.89 29.7336 1225.89 35.6653 Q1225.89 41.597 1228.75 44.8956 Q1231.62 48.1653 1236.8 48.1653 Q1239.11 48.1653 1241.37 47.5576 Q1243.66 46.921 1245.91 45.6768 L1245.91 50.5958 Q1243.68 51.6375 1241.28 52.1583 Q1238.91 52.6791 1236.22 52.6791 Q1228.9 52.6791 1224.59 48.0784 Q1220.28 43.4778 1220.28 35.6653 Q1220.28 27.7371 1224.62 23.1943 Q1228.99 18.6515 1236.57 18.6515 Q1239.03 18.6515 1241.37 19.1724 Q1243.71 19.6642 1245.91 20.677 Z" fill="#000000" fill-rule="nonzero" fill-opacity="1" /><path clip-path="url(#clip580)" d="M1267.73 23.1654 Q1263.45 23.1654 1260.96 26.5218 Q1258.47 29.8494 1258.47 35.6653 Q1258.47 41.4813 1260.93 44.8377 Q1263.42 48.1653 1267.73 48.1653 Q1271.98 48.1653 1274.47 44.8088 Q1276.96 41.4523 1276.96 35.6653 Q1276.96 29.9072 1274.47 26.5508 Q1271.98 23.1654 1267.73 23.1654 M1267.73 18.6515 Q1274.67 18.6515 1278.64 23.1654 Q1282.6 27.6792 1282.6 35.6653 Q1282.6 43.6225 1278.64 48.1653 Q1274.67 52.6791 1267.73 52.6791 Q1260.76 52.6791 1256.79 48.1653 Q1252.86 43.6225 1252.86 35.6653 Q1252.86 27.6792 1256.79 23.1654 Q1260.76 18.6515 1267.73 18.6515 Z" fill="#000000" fill-rule="nonzero" fill-opacity="1" /><path clip-path="url(#clip580)" d="M1318.37 32.2799 L1318.37 51.84 L1313.04 51.84 L1313.04 32.4535 Q1313.04 27.8529 1311.25 25.567 Q1309.45 23.2811 1305.87 23.2811 Q1301.55 23.2811 1299.07 26.03 Q1296.58 28.7788 1296.58 33.5241 L1296.58 51.84 L1291.22 51.84 L1291.22 19.4328 L1296.58 19.4328 L1296.58 24.4675 Q1298.49 21.545 1301.06 20.0983 Q1303.67 18.6515 1307.05 18.6515 Q1312.64 18.6515 1315.5 22.1237 Q1318.37 25.567 1318.37 32.2799 Z" fill="#000000" fill-rule="nonzero" fill-opacity="1" /><path clip-path="url(#clip580)" d="M1334.25 10.2314 L1334.25 19.4328 L1345.22 19.4328 L1345.22 23.5705 L1334.25 23.5705 L1334.25 41.163 Q1334.25 45.1271 1335.32 46.2555 Q1336.42 47.384 1339.75 47.384 L1345.22 47.384 L1345.22 51.84 L1339.75 51.84 Q1333.59 51.84 1331.24 49.5541 Q1328.9 47.2393 1328.9 41.163 L1328.9 23.5705 L1324.99 23.5705 L1324.99 19.4328 L1328.9 19.4328 L1328.9 10.2314 L1334.25 10.2314 Z" fill="#000000" fill-rule="nonzero" fill-opacity="1" /><path clip-path="url(#clip580)" d="M1371 24.4096 Q1370.1 23.8888 1369.03 23.6573 Q1367.99 23.3969 1366.72 23.3969 Q1362.2 23.3969 1359.77 26.3482 Q1357.37 29.2707 1357.37 34.7683 L1357.37 51.84 L1352.02 51.84 L1352.02 19.4328 L1357.37 19.4328 L1357.37 24.4675 Q1359.05 21.5161 1361.74 20.0983 Q1364.43 18.6515 1368.28 18.6515 Q1368.83 18.6515 1369.49 18.7383 Q1370.16 18.7962 1370.97 18.9409 L1371 24.4096 Z" fill="#000000" fill-rule="nonzero" fill-opacity="1" /><path clip-path="url(#clip580)" d="M1387.84 23.1654 Q1383.56 23.1654 1381.07 26.5218 Q1378.58 29.8494 1378.58 35.6653 Q1378.58 41.4813 1381.04 44.8377 Q1383.53 48.1653 1387.84 48.1653 Q1392.09 48.1653 1394.58 44.8088 Q1397.07 41.4523 1397.07 35.6653 Q1397.07 29.9072 1394.58 26.5508 Q1392.09 23.1654 1387.84 23.1654 M1387.84 18.6515 Q1394.78 18.6515 1398.75 23.1654 Q1402.71 27.6792 1402.71 35.6653 Q1402.71 43.6225 1398.75 48.1653 Q1394.78 52.6791 1387.84 52.6791 Q1380.87 52.6791 1376.9 48.1653 Q1372.97 43.6225 1372.97 35.6653 Q1372.97 27.6792 1376.9 23.1654 Q1380.87 18.6515 1387.84 18.6515 Z" fill="#000000" fill-rule="nonzero" fill-opacity="1" /><path clip-path="url(#clip580)" d="M1411.54 6.81709 L1416.86 6.81709 L1416.86 51.84 L1411.54 51.84 L1411.54 6.81709 Z" fill="#000000" fill-rule="nonzero" fill-opacity="1" /><polyline clip-path="url(#clip582)" style="stroke:#000000; stroke-linecap:round; stroke-linejoin:round; stroke-width:4; stroke-opacity:1; fill:none" stroke-dasharray="16, 10" points="342.919,2748.81 342.919,-1215.12 "/>
<polyline clip-path="url(#clip582)" style="stroke:#000000; stroke-linecap:round; stroke-linejoin:round; stroke-width:4; stroke-opacity:1; fill:none" stroke-dasharray="16, 10" points="2294.22,2748.81 2294.22,-1215.12 "/>
<polyline clip-path="url(#clip582)" style="stroke:#009af9; stroke-linecap:round; stroke-linejoin:round; stroke-width:8; stroke-opacity:1; fill:none" points="342.919,143.588 350.724,148.594 358.529,153.6 366.335,158.606 374.14,163.612 381.945,168.618 389.75,173.624 397.555,178.63 405.361,183.636 413.166,188.642 420.971,193.649 428.776,198.655 436.581,203.661 444.387,208.667 452.192,213.673 459.997,218.679 467.802,223.685 475.607,228.691 483.412,233.697 491.218,238.703 499.023,243.709 506.828,248.716 514.633,253.722 522.438,258.728 530.244,263.734 538.049,268.74 545.854,273.746 553.659,278.752 561.464,283.758 569.27,288.764 577.075,293.77 584.88,298.776 592.685,303.783 600.49,308.789 608.296,313.795 616.101,318.801 623.906,323.807 631.711,328.813 639.516,333.819 647.322,338.825 655.127,343.831 662.932,348.837 670.737,353.843 678.542,358.85 686.347,363.856 694.153,368.862 701.958,373.868 709.763,378.874 717.568,383.88 725.373,388.886 733.179,393.892 740.984,398.898 748.789,403.904 756.594,408.91 764.399,413.917 772.205,418.923 780.01,423.929 787.815,428.935 795.62,433.941 803.425,438.947 811.231,443.953 819.036,448.959 826.841,453.965 834.646,458.971 842.451,463.977 850.256,468.984 858.062,473.99 865.867,478.996 873.672,484.002 881.477,489.008 889.282,494.014 897.088,499.02 904.893,504.026 912.698,509.032 920.503,514.038 928.308,519.044 936.114,524.051 943.919,529.057 951.724,534.063 959.529,539.069 967.334,544.075 975.14,549.081 982.945,554.087 990.75,559.093 998.555,564.099 1006.36,569.105 1014.17,574.111 1021.97,579.118 1029.78,584.124 1037.58,589.13 1045.39,594.136 1053.19,599.142 1061,604.148 1068.8,609.154 1076.61,614.16 1084.41,619.166 1092.22,624.172 1100.02,629.178 1107.83,634.185 1115.63,639.191 1123.44,644.197 1131.24,649.203 1139.05,654.209 1146.85,659.215 1154.66,664.221 1162.46,669.227 1170.27,674.233 1178.07,679.239 1185.88,684.245 1193.68,689.252 1201.49,694.258 1209.3,699.264 1217.1,704.27 1224.91,709.276 1232.71,714.282 1240.52,719.288 1248.32,724.294 1256.13,729.3 1263.93,734.306 1271.74,739.312 1279.54,744.319 1287.35,749.325 1295.15,754.331 1302.96,759.337 1310.76,764.343 1318.57,769.349 1326.37,774.355 1334.18,779.361 1341.98,784.367 1349.79,789.373 1357.59,794.379 1365.4,799.386 1373.2,804.392 1381.01,809.398 1388.81,814.404 1396.62,819.41 1404.43,824.416 1412.23,829.422 1420.04,834.428 1427.84,839.434 1435.65,844.44 1443.45,849.446 1451.26,854.453 1459.06,859.459 1466.87,864.465 1474.67,869.471 1482.48,874.477 1490.28,879.483 1498.09,884.489 1505.89,889.495 1513.7,894.501 1521.5,899.507 1529.31,904.513 1537.11,909.52 1544.92,914.526 1552.72,919.532 1560.53,924.538 1568.33,929.544 1576.14,934.55 1583.94,939.556 1591.75,944.562 1599.55,949.568 1607.36,954.574 1615.17,959.58 1622.97,964.587 1630.78,969.593 1638.58,974.599 1646.39,979.605 1654.19,984.611 1662,989.617 1669.8,994.623 1677.61,999.629 1685.41,1004.64 1693.22,1009.64 1701.02,1014.65 1708.83,1019.65 1716.63,1024.66 1724.44,1029.67 1732.24,1034.67 1740.05,1039.68 1747.85,1044.68 1755.66,1049.69 1763.46,1054.7 1771.27,1059.7 1779.07,1064.71 1786.88,1069.71 1794.68,1074.72 1802.49,1079.73 1810.3,1084.73 1818.1,1089.74 1825.91,1094.74 1833.71,1099.75 1841.52,1104.76 1849.32,1109.76 1857.13,1114.77 1864.93,1119.78 1872.74,1124.78 1880.54,1129.79 1888.35,1134.79 1896.15,1139.8 1903.96,1144.81 1911.76,1149.81 1919.57,1154.82 1927.37,1159.82 1935.18,1164.83 1942.98,1169.84 1950.79,1174.84 1958.59,1179.85 1966.4,1184.85 1974.2,1189.86 1982.01,1194.87 1989.81,1199.87 1997.62,1204.88 2005.42,1209.89 2013.23,1214.89 2021.04,1219.9 2028.84,1224.9 2036.65,1229.91 2044.45,1234.92 2052.26,1239.92 2060.06,1244.93 2067.87,1249.93 2075.67,1254.94 2083.48,1259.95 2091.28,1264.95 2099.09,1269.96 2106.89,1274.96 2114.7,1279.97 2122.5,1284.98 2130.31,1289.98 2138.11,1294.99 2145.92,1299.99 2153.72,1305 2161.53,1310.01 2169.33,1315.01 2177.14,1320.02 2184.94,1325.03 2192.75,1330.03 2200.55,1335.04 2208.36,1340.04 2216.17,1345.05 2223.97,1350.06 2231.78,1355.06 2239.58,1360.07 2247.39,1365.07 2255.19,1370.08 2263,1375.09 2270.8,1380.09 2278.61,1385.1 2286.41,1390.1 2294.22,1390.1 "/>
</svg>
