<?xml version="1.0" encoding="utf-8"?>
<svg xmlns="http://www.w3.org/2000/svg" xmlns:xlink="http://www.w3.org/1999/xlink" width="600" height="400" viewBox="0 0 2400 1600">
<defs>
  <clipPath id="clip600">
    <rect x="0" y="0" width="2400" height="1600"/>
  </clipPath>
</defs>
<path clip-path="url(#clip600)" d="M0 1600 L2400 1600 L2400 0 L0 0  Z" fill="#ffffff" fill-rule="evenodd" fill-opacity="1"/>
<defs>
  <clipPath id="clip601">
    <rect x="314" y="106" width="2039" height="1381"/>
  </clipPath>
</defs>
<path clip-path="url(#clip600)" d="M314.542 1486.45 L2352.76 1486.45 L2352.76 106.192 L314.542 106.192  Z" fill="#ffffff" fill-rule="evenodd" fill-opacity="1"/>
<polyline clip-path="url(#clip601)" style="stroke:#000000; stroke-linecap:round; stroke-linejoin:round; stroke-width:2; stroke-opacity:0.1; fill:none" points="372.227,1486.45 372.227,106.192 "/>
<polyline clip-path="url(#clip601)" style="stroke:#000000; stroke-linecap:round; stroke-linejoin:round; stroke-width:2; stroke-opacity:0.1; fill:none" points="852.938,1486.45 852.938,106.192 "/>
<polyline clip-path="url(#clip601)" style="stroke:#000000; stroke-linecap:round; stroke-linejoin:round; stroke-width:2; stroke-opacity:0.1; fill:none" points="1333.65,1486.45 1333.65,106.192 "/>
<polyline clip-path="url(#clip601)" style="stroke:#000000; stroke-linecap:round; stroke-linejoin:round; stroke-width:2; stroke-opacity:0.1; fill:none" points="1814.36,1486.45 1814.36,106.192 "/>
<polyline clip-path="url(#clip601)" style="stroke:#000000; stroke-linecap:round; stroke-linejoin:round; stroke-width:2; stroke-opacity:0.1; fill:none" points="2295.07,1486.45 2295.07,106.192 "/>
<polyline clip-path="url(#clip601)" style="stroke:#000000; stroke-linecap:round; stroke-linejoin:round; stroke-width:2; stroke-opacity:0.1; fill:none" points="314.542,1447.38 2352.76,1447.38 "/>
<polyline clip-path="url(#clip601)" style="stroke:#000000; stroke-linecap:round; stroke-linejoin:round; stroke-width:2; stroke-opacity:0.1; fill:none" points="314.542,1121.85 2352.76,1121.85 "/>
<polyline clip-path="url(#clip601)" style="stroke:#000000; stroke-linecap:round; stroke-linejoin:round; stroke-width:2; stroke-opacity:0.1; fill:none" points="314.542,796.32 2352.76,796.32 "/>
<polyline clip-path="url(#clip601)" style="stroke:#000000; stroke-linecap:round; stroke-linejoin:round; stroke-width:2; stroke-opacity:0.1; fill:none" points="314.542,470.788 2352.76,470.788 "/>
<polyline clip-path="url(#clip601)" style="stroke:#000000; stroke-linecap:round; stroke-linejoin:round; stroke-width:2; stroke-opacity:0.1; fill:none" points="314.542,145.256 2352.76,145.256 "/>
<polyline clip-path="url(#clip600)" style="stroke:#000000; stroke-linecap:round; stroke-linejoin:round; stroke-width:4; stroke-opacity:1; fill:none" points="314.542,1486.45 2352.76,1486.45 "/>
<polyline clip-path="url(#clip600)" style="stroke:#000000; stroke-linecap:round; stroke-linejoin:round; stroke-width:4; stroke-opacity:1; fill:none" points="372.227,1486.45 372.227,1467.55 "/>
<polyline clip-path="url(#clip600)" style="stroke:#000000; stroke-linecap:round; stroke-linejoin:round; stroke-width:4; stroke-opacity:1; fill:none" points="852.938,1486.45 852.938,1467.55 "/>
<polyline clip-path="url(#clip600)" style="stroke:#000000; stroke-linecap:round; stroke-linejoin:round; stroke-width:4; stroke-opacity:1; fill:none" points="1333.65,1486.45 1333.65,1467.55 "/>
<polyline clip-path="url(#clip600)" style="stroke:#000000; stroke-linecap:round; stroke-linejoin:round; stroke-width:4; stroke-opacity:1; fill:none" points="1814.36,1486.45 1814.36,1467.55 "/>
<polyline clip-path="url(#clip600)" style="stroke:#000000; stroke-linecap:round; stroke-linejoin:round; stroke-width:4; stroke-opacity:1; fill:none" points="2295.07,1486.45 2295.07,1467.55 "/>
<path clip-path="url(#clip600)" d="M334.531 1517.37 Q330.92 1517.37 329.091 1520.93 Q327.285 1524.47 327.285 1531.6 Q327.285 1538.71 329.091 1542.27 Q330.92 1545.82 334.531 1545.82 Q338.165 1545.82 339.97 1542.27 Q341.799 1538.71 341.799 1531.6 Q341.799 1524.47 339.97 1520.93 Q338.165 1517.37 334.531 1517.37 M334.531 1513.66 Q340.341 1513.66 343.396 1518.27 Q346.475 1522.85 346.475 1531.6 Q346.475 1540.33 343.396 1544.94 Q340.341 1549.52 334.531 1549.52 Q328.721 1549.52 325.642 1544.94 Q322.586 1540.33 322.586 1531.6 Q322.586 1522.85 325.642 1518.27 Q328.721 1513.66 334.531 1513.66 Z" fill="#000000" fill-rule="nonzero" fill-opacity="1" /><path clip-path="url(#clip600)" d="M354.693 1542.97 L359.577 1542.97 L359.577 1548.85 L354.693 1548.85 L354.693 1542.97 Z" fill="#000000" fill-rule="nonzero" fill-opacity="1" /><path clip-path="url(#clip600)" d="M379.762 1517.37 Q376.151 1517.37 374.322 1520.93 Q372.517 1524.47 372.517 1531.6 Q372.517 1538.71 374.322 1542.27 Q376.151 1545.82 379.762 1545.82 Q383.396 1545.82 385.202 1542.27 Q387.03 1538.71 387.03 1531.6 Q387.03 1524.47 385.202 1520.93 Q383.396 1517.37 379.762 1517.37 M379.762 1513.66 Q385.572 1513.66 388.628 1518.27 Q391.706 1522.85 391.706 1531.6 Q391.706 1540.33 388.628 1544.94 Q385.572 1549.52 379.762 1549.52 Q373.952 1549.52 370.873 1544.94 Q367.818 1540.33 367.818 1531.6 Q367.818 1522.85 370.873 1518.27 Q373.952 1513.66 379.762 1513.66 Z" fill="#000000" fill-rule="nonzero" fill-opacity="1" /><path clip-path="url(#clip600)" d="M409.924 1517.37 Q406.313 1517.37 404.484 1520.93 Q402.678 1524.47 402.678 1531.6 Q402.678 1538.71 404.484 1542.27 Q406.313 1545.82 409.924 1545.82 Q413.558 1545.82 415.364 1542.27 Q417.192 1538.71 417.192 1531.6 Q417.192 1524.47 415.364 1520.93 Q413.558 1517.37 409.924 1517.37 M409.924 1513.66 Q415.734 1513.66 418.79 1518.27 Q421.868 1522.85 421.868 1531.6 Q421.868 1540.33 418.79 1544.94 Q415.734 1549.52 409.924 1549.52 Q404.114 1549.52 401.035 1544.94 Q397.979 1540.33 397.979 1531.6 Q397.979 1522.85 401.035 1518.27 Q404.114 1513.66 409.924 1513.66 Z" fill="#000000" fill-rule="nonzero" fill-opacity="1" /><path clip-path="url(#clip600)" d="M815.739 1517.37 Q812.128 1517.37 810.299 1520.93 Q808.494 1524.47 808.494 1531.6 Q808.494 1538.71 810.299 1542.27 Q812.128 1545.82 815.739 1545.82 Q819.373 1545.82 821.179 1542.27 Q823.008 1538.71 823.008 1531.6 Q823.008 1524.47 821.179 1520.93 Q819.373 1517.37 815.739 1517.37 M815.739 1513.66 Q821.549 1513.66 824.605 1518.27 Q827.684 1522.85 827.684 1531.6 Q827.684 1540.33 824.605 1544.94 Q821.549 1549.52 815.739 1549.52 Q809.929 1549.52 806.85 1544.94 Q803.795 1540.33 803.795 1531.6 Q803.795 1522.85 806.85 1518.27 Q809.929 1513.66 815.739 1513.66 Z" fill="#000000" fill-rule="nonzero" fill-opacity="1" /><path clip-path="url(#clip600)" d="M835.901 1542.97 L840.785 1542.97 L840.785 1548.85 L835.901 1548.85 L835.901 1542.97 Z" fill="#000000" fill-rule="nonzero" fill-opacity="1" /><path clip-path="url(#clip600)" d="M854.998 1544.91 L871.318 1544.91 L871.318 1548.85 L849.373 1548.85 L849.373 1544.91 Q852.035 1542.16 856.619 1537.53 Q861.225 1532.88 862.406 1531.53 Q864.651 1529.01 865.531 1527.27 Q866.433 1525.51 866.433 1523.82 Q866.433 1521.07 864.489 1519.33 Q862.568 1517.6 859.466 1517.6 Q857.267 1517.6 854.813 1518.36 Q852.383 1519.13 849.605 1520.68 L849.605 1515.95 Q852.429 1514.82 854.883 1514.24 Q857.336 1513.66 859.373 1513.66 Q864.744 1513.66 867.938 1516.35 Q871.132 1519.03 871.132 1523.52 Q871.132 1525.65 870.322 1527.57 Q869.535 1529.47 867.429 1532.07 Q866.85 1532.74 863.748 1535.95 Q860.646 1539.15 854.998 1544.91 Z" fill="#000000" fill-rule="nonzero" fill-opacity="1" /><path clip-path="url(#clip600)" d="M881.179 1514.29 L899.535 1514.29 L899.535 1518.22 L885.461 1518.22 L885.461 1526.7 Q886.48 1526.35 887.498 1526.19 Q888.517 1526 889.535 1526 Q895.322 1526 898.702 1529.17 Q902.081 1532.34 902.081 1537.76 Q902.081 1543.34 898.609 1546.44 Q895.137 1549.52 888.818 1549.52 Q886.642 1549.52 884.373 1549.15 Q882.128 1548.78 879.72 1548.04 L879.72 1543.34 Q881.804 1544.47 884.026 1545.03 Q886.248 1545.58 888.725 1545.58 Q892.73 1545.58 895.068 1543.48 Q897.405 1541.37 897.405 1537.76 Q897.405 1534.15 895.068 1532.04 Q892.73 1529.94 888.725 1529.94 Q886.85 1529.94 884.975 1530.35 Q883.123 1530.77 881.179 1531.65 L881.179 1514.29 Z" fill="#000000" fill-rule="nonzero" fill-opacity="1" /><path clip-path="url(#clip600)" d="M1295.95 1517.37 Q1292.34 1517.37 1290.51 1520.93 Q1288.71 1524.47 1288.71 1531.6 Q1288.71 1538.71 1290.51 1542.27 Q1292.34 1545.82 1295.95 1545.82 Q1299.59 1545.82 1301.39 1542.27 Q1303.22 1538.71 1303.22 1531.6 Q1303.22 1524.47 1301.39 1520.93 Q1299.59 1517.37 1295.95 1517.37 M1295.95 1513.66 Q1301.76 1513.66 1304.82 1518.27 Q1307.9 1522.85 1307.9 1531.6 Q1307.9 1540.33 1304.82 1544.94 Q1301.76 1549.52 1295.95 1549.52 Q1290.14 1549.52 1287.06 1544.94 Q1284.01 1540.33 1284.01 1531.6 Q1284.01 1522.85 1287.06 1518.27 Q1290.14 1513.66 1295.95 1513.66 Z" fill="#000000" fill-rule="nonzero" fill-opacity="1" /><path clip-path="url(#clip600)" d="M1316.11 1542.97 L1321 1542.97 L1321 1548.85 L1316.11 1548.85 L1316.11 1542.97 Z" fill="#000000" fill-rule="nonzero" fill-opacity="1" /><path clip-path="url(#clip600)" d="M1331.23 1514.29 L1349.59 1514.29 L1349.59 1518.22 L1335.51 1518.22 L1335.51 1526.7 Q1336.53 1526.35 1337.55 1526.19 Q1338.57 1526 1339.59 1526 Q1345.37 1526 1348.75 1529.17 Q1352.13 1532.34 1352.13 1537.76 Q1352.13 1543.34 1348.66 1546.44 Q1345.19 1549.52 1338.87 1549.52 Q1336.69 1549.52 1334.42 1549.15 Q1332.18 1548.78 1329.77 1548.04 L1329.77 1543.34 Q1331.85 1544.47 1334.08 1545.03 Q1336.3 1545.58 1338.78 1545.58 Q1342.78 1545.58 1345.12 1543.48 Q1347.46 1541.37 1347.46 1537.76 Q1347.46 1534.15 1345.12 1532.04 Q1342.78 1529.94 1338.78 1529.94 Q1336.9 1529.94 1335.03 1530.35 Q1333.17 1530.77 1331.23 1531.65 L1331.23 1514.29 Z" fill="#000000" fill-rule="nonzero" fill-opacity="1" /><path clip-path="url(#clip600)" d="M1371.35 1517.37 Q1367.73 1517.37 1365.91 1520.93 Q1364.1 1524.47 1364.1 1531.6 Q1364.1 1538.71 1365.91 1542.27 Q1367.73 1545.82 1371.35 1545.82 Q1374.98 1545.82 1376.79 1542.27 Q1378.61 1538.71 1378.61 1531.6 Q1378.61 1524.47 1376.79 1520.93 Q1374.98 1517.37 1371.35 1517.37 M1371.35 1513.66 Q1377.16 1513.66 1380.21 1518.27 Q1383.29 1522.85 1383.29 1531.6 Q1383.29 1540.33 1380.21 1544.94 Q1377.16 1549.52 1371.35 1549.52 Q1365.54 1549.52 1362.46 1544.94 Q1359.4 1540.33 1359.4 1531.6 Q1359.4 1522.85 1362.46 1518.27 Q1365.54 1513.66 1371.35 1513.66 Z" fill="#000000" fill-rule="nonzero" fill-opacity="1" /><path clip-path="url(#clip600)" d="M1777.16 1517.37 Q1773.55 1517.37 1771.72 1520.93 Q1769.92 1524.47 1769.92 1531.6 Q1769.92 1538.71 1771.72 1542.27 Q1773.55 1545.82 1777.16 1545.82 Q1780.8 1545.82 1782.6 1542.27 Q1784.43 1538.71 1784.43 1531.6 Q1784.43 1524.47 1782.6 1520.93 Q1780.8 1517.37 1777.16 1517.37 M1777.16 1513.66 Q1782.97 1513.66 1786.03 1518.27 Q1789.11 1522.85 1789.11 1531.6 Q1789.11 1540.33 1786.03 1544.94 Q1782.97 1549.52 1777.16 1549.52 Q1771.35 1549.52 1768.27 1544.94 Q1765.22 1540.33 1765.22 1531.6 Q1765.22 1522.85 1768.27 1518.27 Q1771.35 1513.66 1777.16 1513.66 Z" fill="#000000" fill-rule="nonzero" fill-opacity="1" /><path clip-path="url(#clip600)" d="M1797.32 1542.97 L1802.21 1542.97 L1802.21 1548.85 L1797.32 1548.85 L1797.32 1542.97 Z" fill="#000000" fill-rule="nonzero" fill-opacity="1" /><path clip-path="url(#clip600)" d="M1811.21 1514.29 L1833.43 1514.29 L1833.43 1516.28 L1820.89 1548.85 L1816 1548.85 L1827.81 1518.22 L1811.21 1518.22 L1811.21 1514.29 Z" fill="#000000" fill-rule="nonzero" fill-opacity="1" /><path clip-path="url(#clip600)" d="M1842.6 1514.29 L1860.96 1514.29 L1860.96 1518.22 L1846.88 1518.22 L1846.88 1526.7 Q1847.9 1526.35 1848.92 1526.19 Q1849.94 1526 1850.96 1526 Q1856.74 1526 1860.12 1529.17 Q1863.5 1532.34 1863.5 1537.76 Q1863.5 1543.34 1860.03 1546.44 Q1856.56 1549.52 1850.24 1549.52 Q1848.06 1549.52 1845.79 1549.15 Q1843.55 1548.78 1841.14 1548.04 L1841.14 1543.34 Q1843.23 1544.47 1845.45 1545.03 Q1847.67 1545.58 1850.15 1545.58 Q1854.15 1545.58 1856.49 1543.48 Q1858.83 1541.37 1858.83 1537.76 Q1858.83 1534.15 1856.49 1532.04 Q1854.15 1529.94 1850.15 1529.94 Q1848.27 1529.94 1846.4 1530.35 Q1844.54 1530.77 1842.6 1531.65 L1842.6 1514.29 Z" fill="#000000" fill-rule="nonzero" fill-opacity="1" /><path clip-path="url(#clip600)" d="M2247.14 1544.91 L2254.78 1544.91 L2254.78 1518.55 L2246.47 1520.21 L2246.47 1515.95 L2254.74 1514.29 L2259.41 1514.29 L2259.41 1544.91 L2267.05 1544.91 L2267.05 1548.85 L2247.14 1548.85 L2247.14 1544.91 Z" fill="#000000" fill-rule="nonzero" fill-opacity="1" /><path clip-path="url(#clip600)" d="M2276.49 1542.97 L2281.38 1542.97 L2281.38 1548.85 L2276.49 1548.85 L2276.49 1542.97 Z" fill="#000000" fill-rule="nonzero" fill-opacity="1" /><path clip-path="url(#clip600)" d="M2301.56 1517.37 Q2297.95 1517.37 2296.12 1520.93 Q2294.32 1524.47 2294.32 1531.6 Q2294.32 1538.71 2296.12 1542.27 Q2297.95 1545.82 2301.56 1545.82 Q2305.2 1545.82 2307 1542.27 Q2308.83 1538.71 2308.83 1531.6 Q2308.83 1524.47 2307 1520.93 Q2305.2 1517.37 2301.56 1517.37 M2301.56 1513.66 Q2307.37 1513.66 2310.43 1518.27 Q2313.51 1522.85 2313.51 1531.6 Q2313.51 1540.33 2310.43 1544.94 Q2307.37 1549.52 2301.56 1549.52 Q2295.75 1549.52 2292.67 1544.94 Q2289.62 1540.33 2289.62 1531.6 Q2289.62 1522.85 2292.67 1518.27 Q2295.75 1513.66 2301.56 1513.66 Z" fill="#000000" fill-rule="nonzero" fill-opacity="1" /><path clip-path="url(#clip600)" d="M2331.73 1517.37 Q2328.11 1517.37 2326.29 1520.93 Q2324.48 1524.47 2324.48 1531.6 Q2324.48 1538.71 2326.29 1542.27 Q2328.11 1545.82 2331.73 1545.82 Q2335.36 1545.82 2337.17 1542.27 Q2338.99 1538.71 2338.99 1531.6 Q2338.99 1524.47 2337.17 1520.93 Q2335.36 1517.37 2331.73 1517.37 M2331.73 1513.66 Q2337.54 1513.66 2340.59 1518.27 Q2343.67 1522.85 2343.67 1531.6 Q2343.67 1540.33 2340.59 1544.94 Q2337.54 1549.52 2331.73 1549.52 Q2325.92 1549.52 2322.84 1544.94 Q2319.78 1540.33 2319.78 1531.6 Q2319.78 1522.85 2322.84 1518.27 Q2325.92 1513.66 2331.73 1513.66 Z" fill="#000000" fill-rule="nonzero" fill-opacity="1" /><polyline clip-path="url(#clip600)" style="stroke:#000000; stroke-linecap:round; stroke-linejoin:round; stroke-width:4; stroke-opacity:1; fill:none" points="314.542,1486.45 314.542,106.192 "/>
<polyline clip-path="url(#clip600)" style="stroke:#000000; stroke-linecap:round; stroke-linejoin:round; stroke-width:4; stroke-opacity:1; fill:none" points="314.542,1447.38 333.44,1447.38 "/>
<polyline clip-path="url(#clip600)" style="stroke:#000000; stroke-linecap:round; stroke-linejoin:round; stroke-width:4; stroke-opacity:1; fill:none" points="314.542,1121.85 333.44,1121.85 "/>
<polyline clip-path="url(#clip600)" style="stroke:#000000; stroke-linecap:round; stroke-linejoin:round; stroke-width:4; stroke-opacity:1; fill:none" points="314.542,796.32 333.44,796.32 "/>
<polyline clip-path="url(#clip600)" style="stroke:#000000; stroke-linecap:round; stroke-linejoin:round; stroke-width:4; stroke-opacity:1; fill:none" points="314.542,470.788 333.44,470.788 "/>
<polyline clip-path="url(#clip600)" style="stroke:#000000; stroke-linecap:round; stroke-linejoin:round; stroke-width:4; stroke-opacity:1; fill:none" points="314.542,145.256 333.44,145.256 "/>
<path clip-path="url(#clip600)" d="M141.436 1447.84 L171.112 1447.84 L171.112 1451.77 L141.436 1451.77 L141.436 1447.84 Z" fill="#000000" fill-rule="nonzero" fill-opacity="1" /><path clip-path="url(#clip600)" d="M182.015 1460.73 L189.654 1460.73 L189.654 1434.36 L181.343 1436.03 L181.343 1431.77 L189.607 1430.1 L194.283 1430.1 L194.283 1460.73 L201.922 1460.73 L201.922 1464.66 L182.015 1464.66 L182.015 1460.73 Z" fill="#000000" fill-rule="nonzero" fill-opacity="1" /><path clip-path="url(#clip600)" d="M211.366 1458.78 L216.251 1458.78 L216.251 1464.66 L211.366 1464.66 L211.366 1458.78 Z" fill="#000000" fill-rule="nonzero" fill-opacity="1" /><path clip-path="url(#clip600)" d="M236.436 1433.18 Q232.825 1433.18 230.996 1436.75 Q229.19 1440.29 229.19 1447.42 Q229.19 1454.53 230.996 1458.09 Q232.825 1461.63 236.436 1461.63 Q240.07 1461.63 241.875 1458.09 Q243.704 1454.53 243.704 1447.42 Q243.704 1440.29 241.875 1436.75 Q240.07 1433.18 236.436 1433.18 M236.436 1429.48 Q242.246 1429.48 245.301 1434.09 Q248.38 1438.67 248.38 1447.42 Q248.38 1456.15 245.301 1460.75 Q242.246 1465.34 236.436 1465.34 Q230.626 1465.34 227.547 1460.75 Q224.491 1456.15 224.491 1447.42 Q224.491 1438.67 227.547 1434.09 Q230.626 1429.48 236.436 1429.48 Z" fill="#000000" fill-rule="nonzero" fill-opacity="1" /><path clip-path="url(#clip600)" d="M266.598 1433.18 Q262.986 1433.18 261.158 1436.75 Q259.352 1440.29 259.352 1447.42 Q259.352 1454.53 261.158 1458.09 Q262.986 1461.63 266.598 1461.63 Q270.232 1461.63 272.037 1458.09 Q273.866 1454.53 273.866 1447.42 Q273.866 1440.29 272.037 1436.75 Q270.232 1433.18 266.598 1433.18 M266.598 1429.48 Q272.408 1429.48 275.463 1434.09 Q278.542 1438.67 278.542 1447.42 Q278.542 1456.15 275.463 1460.75 Q272.408 1465.34 266.598 1465.34 Q260.787 1465.34 257.709 1460.75 Q254.653 1456.15 254.653 1447.42 Q254.653 1438.67 257.709 1434.09 Q260.787 1429.48 266.598 1429.48 Z" fill="#000000" fill-rule="nonzero" fill-opacity="1" /><path clip-path="url(#clip600)" d="M142.432 1122.3 L172.107 1122.3 L172.107 1126.24 L142.432 1126.24 L142.432 1122.3 Z" fill="#000000" fill-rule="nonzero" fill-opacity="1" /><path clip-path="url(#clip600)" d="M192.2 1107.65 Q188.589 1107.65 186.76 1111.22 Q184.955 1114.76 184.955 1121.89 Q184.955 1128.99 186.76 1132.56 Q188.589 1136.1 192.2 1136.1 Q195.834 1136.1 197.64 1132.56 Q199.468 1128.99 199.468 1121.89 Q199.468 1114.76 197.64 1111.22 Q195.834 1107.65 192.2 1107.65 M192.2 1103.95 Q198.01 1103.95 201.066 1108.55 Q204.144 1113.14 204.144 1121.89 Q204.144 1130.61 201.066 1135.22 Q198.01 1139.8 192.2 1139.8 Q186.39 1139.8 183.311 1135.22 Q180.255 1130.61 180.255 1121.89 Q180.255 1113.14 183.311 1108.55 Q186.39 1103.95 192.2 1103.95 Z" fill="#000000" fill-rule="nonzero" fill-opacity="1" /><path clip-path="url(#clip600)" d="M212.362 1133.25 L217.246 1133.25 L217.246 1139.13 L212.362 1139.13 L212.362 1133.25 Z" fill="#000000" fill-rule="nonzero" fill-opacity="1" /><path clip-path="url(#clip600)" d="M226.251 1104.57 L248.473 1104.57 L248.473 1106.56 L235.926 1139.13 L231.042 1139.13 L242.848 1108.51 L226.251 1108.51 L226.251 1104.57 Z" fill="#000000" fill-rule="nonzero" fill-opacity="1" /><path clip-path="url(#clip600)" d="M257.639 1104.57 L275.996 1104.57 L275.996 1108.51 L261.922 1108.51 L261.922 1116.98 Q262.94 1116.63 263.959 1116.47 Q264.977 1116.28 265.996 1116.28 Q271.783 1116.28 275.162 1119.46 Q278.542 1122.63 278.542 1128.04 Q278.542 1133.62 275.07 1136.72 Q271.598 1139.8 265.278 1139.8 Q263.102 1139.8 260.834 1139.43 Q258.588 1139.06 256.181 1138.32 L256.181 1133.62 Q258.264 1134.76 260.487 1135.31 Q262.709 1135.87 265.186 1135.87 Q269.19 1135.87 271.528 1133.76 Q273.866 1131.66 273.866 1128.04 Q273.866 1124.43 271.528 1122.33 Q269.19 1120.22 265.186 1120.22 Q263.311 1120.22 261.436 1120.64 Q259.584 1121.05 257.639 1121.93 L257.639 1104.57 Z" fill="#000000" fill-rule="nonzero" fill-opacity="1" /><path clip-path="url(#clip600)" d="M141.436 796.771 L171.112 796.771 L171.112 800.707 L141.436 800.707 L141.436 796.771 Z" fill="#000000" fill-rule="nonzero" fill-opacity="1" /><path clip-path="url(#clip600)" d="M191.204 782.119 Q187.593 782.119 185.765 785.683 Q183.959 789.225 183.959 796.355 Q183.959 803.461 185.765 807.026 Q187.593 810.568 191.204 810.568 Q194.839 810.568 196.644 807.026 Q198.473 803.461 198.473 796.355 Q198.473 789.225 196.644 785.683 Q194.839 782.119 191.204 782.119 M191.204 778.415 Q197.015 778.415 200.07 783.021 Q203.149 787.605 203.149 796.355 Q203.149 805.082 200.07 809.688 Q197.015 814.271 191.204 814.271 Q185.394 814.271 182.316 809.688 Q179.26 805.082 179.26 796.355 Q179.26 787.605 182.316 783.021 Q185.394 778.415 191.204 778.415 Z" fill="#000000" fill-rule="nonzero" fill-opacity="1" /><path clip-path="url(#clip600)" d="M211.366 807.72 L216.251 807.72 L216.251 813.6 L211.366 813.6 L211.366 807.72 Z" fill="#000000" fill-rule="nonzero" fill-opacity="1" /><path clip-path="url(#clip600)" d="M226.482 779.04 L244.838 779.04 L244.838 782.975 L230.764 782.975 L230.764 791.447 Q231.783 791.1 232.801 790.938 Q233.82 790.753 234.838 790.753 Q240.626 790.753 244.005 793.924 Q247.385 797.095 247.385 802.512 Q247.385 808.091 243.913 811.193 Q240.44 814.271 234.121 814.271 Q231.945 814.271 229.676 813.901 Q227.431 813.531 225.024 812.79 L225.024 808.091 Q227.107 809.225 229.329 809.781 Q231.551 810.336 234.028 810.336 Q238.033 810.336 240.371 808.23 Q242.709 806.123 242.709 802.512 Q242.709 798.901 240.371 796.795 Q238.033 794.688 234.028 794.688 Q232.153 794.688 230.278 795.105 Q228.426 795.521 226.482 796.401 L226.482 779.04 Z" fill="#000000" fill-rule="nonzero" fill-opacity="1" /><path clip-path="url(#clip600)" d="M266.598 782.119 Q262.986 782.119 261.158 785.683 Q259.352 789.225 259.352 796.355 Q259.352 803.461 261.158 807.026 Q262.986 810.568 266.598 810.568 Q270.232 810.568 272.037 807.026 Q273.866 803.461 273.866 796.355 Q273.866 789.225 272.037 785.683 Q270.232 782.119 266.598 782.119 M266.598 778.415 Q272.408 778.415 275.463 783.021 Q278.542 787.605 278.542 796.355 Q278.542 805.082 275.463 809.688 Q272.408 814.271 266.598 814.271 Q260.787 814.271 257.709 809.688 Q254.653 805.082 254.653 796.355 Q254.653 787.605 257.709 783.021 Q260.787 778.415 266.598 778.415 Z" fill="#000000" fill-rule="nonzero" fill-opacity="1" /><path clip-path="url(#clip600)" d="M142.432 471.239 L172.107 471.239 L172.107 475.175 L142.432 475.175 L142.432 471.239 Z" fill="#000000" fill-rule="nonzero" fill-opacity="1" /><path clip-path="url(#clip600)" d="M192.2 456.587 Q188.589 456.587 186.76 460.151 Q184.955 463.693 184.955 470.823 Q184.955 477.929 186.76 481.494 Q188.589 485.036 192.2 485.036 Q195.834 485.036 197.64 481.494 Q199.468 477.929 199.468 470.823 Q199.468 463.693 197.64 460.151 Q195.834 456.587 192.2 456.587 M192.2 452.883 Q198.01 452.883 201.066 457.489 Q204.144 462.073 204.144 470.823 Q204.144 479.55 201.066 484.156 Q198.01 488.739 192.2 488.739 Q186.39 488.739 183.311 484.156 Q180.255 479.55 180.255 470.823 Q180.255 462.073 183.311 457.489 Q186.39 452.883 192.2 452.883 Z" fill="#000000" fill-rule="nonzero" fill-opacity="1" /><path clip-path="url(#clip600)" d="M212.362 482.188 L217.246 482.188 L217.246 488.068 L212.362 488.068 L212.362 482.188 Z" fill="#000000" fill-rule="nonzero" fill-opacity="1" /><path clip-path="url(#clip600)" d="M231.459 484.133 L247.778 484.133 L247.778 488.068 L225.834 488.068 L225.834 484.133 Q228.496 481.378 233.079 476.749 Q237.686 472.096 238.866 470.753 Q241.112 468.23 241.991 466.494 Q242.894 464.735 242.894 463.045 Q242.894 460.29 240.95 458.554 Q239.028 456.818 235.926 456.818 Q233.727 456.818 231.274 457.582 Q228.843 458.346 226.065 459.897 L226.065 455.175 Q228.889 454.04 231.343 453.462 Q233.797 452.883 235.834 452.883 Q241.204 452.883 244.399 455.568 Q247.593 458.253 247.593 462.744 Q247.593 464.874 246.783 466.795 Q245.996 468.693 243.889 471.286 Q243.311 471.957 240.209 475.175 Q237.107 478.369 231.459 484.133 Z" fill="#000000" fill-rule="nonzero" fill-opacity="1" /><path clip-path="url(#clip600)" d="M257.639 453.508 L275.996 453.508 L275.996 457.443 L261.922 457.443 L261.922 465.915 Q262.94 465.568 263.959 465.406 Q264.977 465.221 265.996 465.221 Q271.783 465.221 275.162 468.392 Q278.542 471.563 278.542 476.98 Q278.542 482.559 275.07 485.661 Q271.598 488.739 265.278 488.739 Q263.102 488.739 260.834 488.369 Q258.588 487.999 256.181 487.258 L256.181 482.559 Q258.264 483.693 260.487 484.249 Q262.709 484.804 265.186 484.804 Q269.19 484.804 271.528 482.698 Q273.866 480.591 273.866 476.98 Q273.866 473.369 271.528 471.263 Q269.19 469.156 265.186 469.156 Q263.311 469.156 261.436 469.573 Q259.584 469.989 257.639 470.869 L257.639 453.508 Z" fill="#000000" fill-rule="nonzero" fill-opacity="1" /><path clip-path="url(#clip600)" d="M191.204 131.055 Q187.593 131.055 185.765 134.619 Q183.959 138.161 183.959 145.291 Q183.959 152.397 185.765 155.962 Q187.593 159.504 191.204 159.504 Q194.839 159.504 196.644 155.962 Q198.473 152.397 198.473 145.291 Q198.473 138.161 196.644 134.619 Q194.839 131.055 191.204 131.055 M191.204 127.351 Q197.015 127.351 200.07 131.957 Q203.149 136.541 203.149 145.291 Q203.149 154.017 200.07 158.624 Q197.015 163.207 191.204 163.207 Q185.394 163.207 182.316 158.624 Q179.26 154.017 179.26 145.291 Q179.26 136.541 182.316 131.957 Q185.394 127.351 191.204 127.351 Z" fill="#000000" fill-rule="nonzero" fill-opacity="1" /><path clip-path="url(#clip600)" d="M211.366 156.656 L216.251 156.656 L216.251 162.536 L211.366 162.536 L211.366 156.656 Z" fill="#000000" fill-rule="nonzero" fill-opacity="1" /><path clip-path="url(#clip600)" d="M236.436 131.055 Q232.825 131.055 230.996 134.619 Q229.19 138.161 229.19 145.291 Q229.19 152.397 230.996 155.962 Q232.825 159.504 236.436 159.504 Q240.07 159.504 241.875 155.962 Q243.704 152.397 243.704 145.291 Q243.704 138.161 241.875 134.619 Q240.07 131.055 236.436 131.055 M236.436 127.351 Q242.246 127.351 245.301 131.957 Q248.38 136.541 248.38 145.291 Q248.38 154.017 245.301 158.624 Q242.246 163.207 236.436 163.207 Q230.626 163.207 227.547 158.624 Q224.491 154.017 224.491 145.291 Q224.491 136.541 227.547 131.957 Q230.626 127.351 236.436 127.351 Z" fill="#000000" fill-rule="nonzero" fill-opacity="1" /><path clip-path="url(#clip600)" d="M266.598 131.055 Q262.986 131.055 261.158 134.619 Q259.352 138.161 259.352 145.291 Q259.352 152.397 261.158 155.962 Q262.986 159.504 266.598 159.504 Q270.232 159.504 272.037 155.962 Q273.866 152.397 273.866 145.291 Q273.866 138.161 272.037 134.619 Q270.232 131.055 266.598 131.055 M266.598 127.351 Q272.408 127.351 275.463 131.957 Q278.542 136.541 278.542 145.291 Q278.542 154.017 275.463 158.624 Q272.408 163.207 266.598 163.207 Q260.787 163.207 257.709 158.624 Q254.653 154.017 254.653 145.291 Q254.653 136.541 257.709 131.957 Q260.787 127.351 266.598 127.351 Z" fill="#000000" fill-rule="nonzero" fill-opacity="1" /><path clip-path="url(#clip600)" d="M60.069 792.443 L75.8386 804.161 L92.4762 791.835 L92.4762 798.114 L79.7448 807.547 L92.4762 816.98 L92.4762 823.259 L75.5203 810.672 L60.069 822.188 L60.069 815.909 L71.6141 807.315 L60.069 798.722 L60.069 792.443 Z" fill="#000000" fill-rule="nonzero" fill-opacity="1" /><path clip-path="url(#clip600)" d="M89.2934 785.383 L89.2934 779.48 L71.6141 779.48 L72.8004 785.932 L69.4439 785.932 L68.3155 779.277 L68.3155 775.313 L89.2934 775.313 L89.2934 769.381 L92.4762 769.381 L92.4762 785.383 L89.2934 785.383 Z" fill="#000000" fill-rule="nonzero" fill-opacity="1" /><path clip-path="url(#clip600)" d="M1284.81 20.3876 L1284.81 25.4223 Q1282.55 24.2649 1280.12 23.6862 Q1277.69 23.1075 1275.08 23.1075 Q1271.12 23.1075 1269.12 24.3228 Q1267.16 25.5381 1267.16 27.9686 Q1267.16 29.8204 1268.57 30.891 Q1269.99 31.9327 1274.27 32.8876 L1276.1 33.2926 Q1281.77 34.5079 1284.14 36.7359 Q1286.54 38.935 1286.54 42.8991 Q1286.54 47.4129 1282.95 50.046 Q1279.4 52.6791 1273.15 52.6791 Q1270.54 52.6791 1267.71 52.1583 Q1264.9 51.6664 1261.77 50.6537 L1261.77 45.156 Q1264.73 46.6896 1267.59 47.4708 Q1270.45 48.2231 1273.26 48.2231 Q1277.02 48.2231 1279.05 46.95 Q1281.07 45.6479 1281.07 43.3042 Q1281.07 41.134 1279.6 39.9766 Q1278.15 38.8192 1273.2 37.7486 L1271.35 37.3146 Q1266.4 36.273 1264.2 34.1318 Q1262.01 31.9616 1262.01 28.2001 Q1262.01 23.6283 1265.25 21.1399 Q1268.49 18.6515 1274.45 18.6515 Q1277.4 18.6515 1280 19.0855 Q1282.61 19.5196 1284.81 20.3876 Z" fill="#000000" fill-rule="nonzero" fill-opacity="1" /><path clip-path="url(#clip600)" d="M1300.29 10.2314 L1300.29 19.4328 L1311.25 19.4328 L1311.25 23.5705 L1300.29 23.5705 L1300.29 41.163 Q1300.29 45.1271 1301.36 46.2555 Q1302.46 47.384 1305.78 47.384 L1311.25 47.384 L1311.25 51.84 L1305.78 51.84 Q1299.62 51.84 1297.28 49.5541 Q1294.93 47.2393 1294.93 41.163 L1294.93 23.5705 L1291.03 23.5705 L1291.03 19.4328 L1294.93 19.4328 L1294.93 10.2314 L1300.29 10.2314 Z" fill="#000000" fill-rule="nonzero" fill-opacity="1" /><path clip-path="url(#clip600)" d="M1332.98 35.5496 Q1326.53 35.5496 1324.04 37.0253 Q1321.55 38.501 1321.55 42.06 Q1321.55 44.8956 1323.41 46.5738 Q1325.29 48.2231 1328.5 48.2231 Q1332.93 48.2231 1335.59 45.0981 Q1338.28 41.9442 1338.28 36.7359 L1338.28 35.5496 L1332.98 35.5496 M1343.6 33.3505 L1343.6 51.84 L1338.28 51.84 L1338.28 46.921 Q1336.46 49.8724 1333.74 51.2902 Q1331.02 52.6791 1327.08 52.6791 Q1322.1 52.6791 1319.15 49.9014 Q1316.23 47.0947 1316.23 42.4072 Q1316.23 36.9385 1319.88 34.1607 Q1323.55 31.3829 1330.81 31.3829 L1338.28 31.3829 L1338.28 30.8621 Q1338.28 27.1874 1335.85 25.1908 Q1333.45 23.1654 1329.08 23.1654 Q1326.3 23.1654 1323.67 23.8309 Q1321.03 24.4964 1318.6 25.8274 L1318.6 20.9085 Q1321.53 19.78 1324.27 19.2302 Q1327.02 18.6515 1329.63 18.6515 Q1336.66 18.6515 1340.13 22.2973 Q1343.6 25.9431 1343.6 33.3505 Z" fill="#000000" fill-rule="nonzero" fill-opacity="1" /><path clip-path="url(#clip600)" d="M1359.84 10.2314 L1359.84 19.4328 L1370.8 19.4328 L1370.8 23.5705 L1359.84 23.5705 L1359.84 41.163 Q1359.84 45.1271 1360.91 46.2555 Q1362.01 47.384 1365.33 47.384 L1370.8 47.384 L1370.8 51.84 L1365.33 51.84 Q1359.17 51.84 1356.83 49.5541 Q1354.48 47.2393 1354.48 41.163 L1354.48 23.5705 L1350.58 23.5705 L1350.58 19.4328 L1354.48 19.4328 L1354.48 10.2314 L1359.84 10.2314 Z" fill="#000000" fill-rule="nonzero" fill-opacity="1" /><path clip-path="url(#clip600)" d="M1405.52 34.3054 L1405.52 36.9095 L1381.04 36.9095 Q1381.39 42.4072 1384.34 45.3007 Q1387.32 48.1653 1392.62 48.1653 Q1395.69 48.1653 1398.55 47.4129 Q1401.44 46.6606 1404.28 45.156 L1404.28 50.1907 Q1401.41 51.406 1398.41 52.0425 Q1395.4 52.6791 1392.3 52.6791 Q1384.55 52.6791 1380 48.1653 Q1375.49 43.6514 1375.49 35.9547 Q1375.49 27.9975 1379.77 23.339 Q1384.08 18.6515 1391.37 18.6515 Q1397.91 18.6515 1401.7 22.876 Q1405.52 27.0716 1405.52 34.3054 M1400.2 32.7429 Q1400.14 28.3737 1397.74 25.7695 Q1395.37 23.1654 1391.43 23.1654 Q1386.98 23.1654 1384.29 25.6827 Q1381.62 28.2001 1381.22 32.7718 L1400.2 32.7429 Z" fill="#000000" fill-rule="nonzero" fill-opacity="1" /><polyline clip-path="url(#clip601)" style="stroke:#000000; stroke-linecap:round; stroke-linejoin:round; stroke-width:4; stroke-opacity:1; fill:none" stroke-dasharray="16, 10" points="372.227,2866.7 372.227,-1274.06 "/>
<polyline clip-path="url(#clip601)" style="stroke:#000000; stroke-linecap:round; stroke-linejoin:round; stroke-width:4; stroke-opacity:1; fill:none" stroke-dasharray="16, 10" points="2295.07,2866.7 2295.07,-1274.06 "/>
<polyline clip-path="url(#clip601)" style="stroke:#009af9; stroke-linecap:round; stroke-linejoin:round; stroke-width:8; stroke-opacity:1; fill:none" points="372.227,1447.38 379.919,1447.32 387.61,1447.14 395.301,1446.83 402.993,1446.39 410.684,1445.84 418.376,1445.17 426.067,1444.38 433.758,1443.47 441.45,1442.44 449.141,1441.3 456.832,1440.04 464.524,1438.67 472.215,1437.19 479.906,1435.59 487.598,1433.88 495.289,1432.07 502.981,1430.14 510.672,1428.11 518.363,1425.97 526.055,1423.72 533.746,1421.37 541.437,1418.91 549.129,1416.35 556.82,1413.69 564.512,1410.93 572.203,1408.06 579.894,1405.1 587.586,1402.04 595.277,1398.89 602.968,1395.63 610.66,1392.29 618.351,1388.85 626.043,1385.31 633.734,1381.68 641.425,1377.97 649.117,1374.16 656.808,1370.26 664.499,1366.28 672.191,1362.21 679.882,1358.05 687.574,1353.81 695.265,1349.48 702.956,1345.07 710.648,1340.58 718.339,1336.01 726.03,1331.35 733.722,1326.62 741.413,1321.81 749.105,1316.93 756.796,1311.96 764.487,1306.93 772.179,1301.82 779.87,1296.63 787.561,1291.37 795.253,1286.05 802.944,1280.65 810.636,1275.18 818.327,1269.65 826.018,1264.05 833.71,1258.38 841.401,1252.65 849.092,1246.85 856.784,1240.99 864.475,1235.07 872.167,1229.09 879.858,1223.04 887.549,1216.94 895.241,1210.78 902.932,1204.57 910.623,1198.29 918.315,1191.97 926.006,1185.58 933.698,1179.15 941.389,1172.66 949.08,1166.13 956.772,1159.54 964.463,1152.9 972.154,1146.22 979.846,1139.49 987.537,1132.71 995.229,1125.89 1002.92,1119.02 1010.61,1112.11 1018.3,1105.16 1025.99,1098.17 1033.69,1091.13 1041.38,1084.06 1049.07,1076.95 1056.76,1069.8 1064.45,1062.62 1072.14,1055.4 1079.83,1048.15 1087.52,1040.87 1095.22,1033.55 1102.91,1026.2 1110.6,1018.83 1118.29,1011.42 1125.98,1003.99 1133.67,996.524 1141.36,989.036 1149.06,981.523 1156.75,973.987 1164.44,966.427 1172.13,958.845 1179.82,951.243 1187.51,943.62 1195.2,935.979 1202.9,928.319 1210.59,920.642 1218.28,912.95 1225.97,905.242 1233.66,897.52 1241.35,889.786 1249.04,882.039 1256.74,874.281 1264.43,866.514 1272.12,858.737 1279.81,850.953 1287.5,843.161 1295.19,835.363 1302.88,827.561 1310.57,819.754 1318.27,811.944 1325.96,804.133 1333.65,796.32 1341.34,788.507 1349.03,780.696 1356.72,772.886 1364.41,765.079 1372.11,757.277 1379.8,749.479 1387.49,741.687 1395.18,733.903 1402.87,726.126 1410.56,718.359 1418.25,710.601 1425.95,702.854 1433.64,695.12 1441.33,687.398 1449.02,679.69 1456.71,671.998 1464.4,664.321 1472.09,656.661 1479.79,649.02 1487.48,641.397 1495.17,633.795 1502.86,626.213 1510.55,618.653 1518.24,611.117 1525.93,603.604 1533.62,596.116 1541.32,588.655 1549.01,581.22 1556.7,573.814 1564.39,566.436 1572.08,559.088 1579.77,551.772 1587.46,544.487 1595.16,537.235 1602.85,530.018 1610.54,522.835 1618.23,515.689 1625.92,508.579 1633.61,501.507 1641.3,494.475 1649,487.482 1656.69,480.531 1664.38,473.621 1672.07,466.754 1679.76,459.932 1687.45,453.154 1695.14,446.423 1702.83,439.738 1710.53,433.101 1718.22,426.514 1725.91,419.976 1733.6,413.49 1741.29,407.055 1748.98,400.674 1756.67,394.346 1764.37,388.073 1772.06,381.857 1779.75,375.697 1787.44,369.596 1795.13,363.553 1802.82,357.571 1810.51,351.649 1818.21,345.79 1825.9,339.993 1833.59,334.26 1841.28,328.593 1848.97,322.991 1856.66,317.457 1864.35,311.99 1872.05,306.593 1879.74,301.265 1887.43,296.009 1895.12,290.824 1902.81,285.713 1910.5,280.675 1918.19,275.713 1925.88,270.826 1933.58,266.017 1941.27,261.285 1948.96,256.633 1956.65,252.06 1964.34,247.569 1972.03,243.159 1979.72,238.833 1987.42,234.59 1995.11,230.433 2002.8,226.362 2010.49,222.377 2018.18,218.481 2025.87,214.673 2033.56,210.956 2041.26,207.329 2048.95,203.795 2056.64,200.353 2064.33,197.006 2072.02,193.754 2079.71,190.597 2087.4,187.538 2095.09,184.576 2102.79,181.714 2110.48,178.952 2118.17,176.29 2125.86,173.731 2133.55,171.275 2141.24,168.922 2148.93,166.675 2156.63,164.533 2164.32,162.499 2172.01,160.573 2179.7,158.755 2187.39,157.048 2195.08,155.452 2202.77,153.967 2210.47,152.596 2218.16,151.339 2225.85,150.196 2233.54,149.17 2241.23,148.261 2248.92,147.47 2256.61,146.797 2264.31,146.245 2272,145.814 2279.69,145.504 2287.38,145.318 2295.07,145.256 "/>
</svg>
